<svg width="17" height="17" viewBox="0 0 17 17" fill="none" xmlns="http://www.w3.org/2000/svg">
<g clip-path="url(#clip0_391_23098)">
<path d="M9.3 1.3C9.3 0.858172 8.94183 0.5 8.5 0.5C8.05817 0.5 7.7 0.858172 7.7 1.3V8.96863L5.06569 6.33431C4.75327 6.0219 4.24673 6.0219 3.93431 6.33431C3.6219 6.64673 3.6219 7.15327 3.93431 7.46569L7.93374 11.4651C7.93567 11.467 7.93761 11.469 7.93956 11.4709C8.01504 11.545 8.10156 11.6011 8.19377 11.6393C8.2874 11.6781 8.39 11.6997 8.4976 11.7L8.5 11.7L8.5024 11.7C8.71971 11.6994 8.91663 11.6121 9.06044 11.4709C9.06239 11.469 9.06433 11.467 9.06626 11.4651L13.0657 7.46569C13.3781 7.15327 13.3781 6.64673 13.0657 6.33431C12.7533 6.0219 12.2467 6.0219 11.9343 6.33431L9.3 8.96863V1.3Z" fill="white"/>
<path d="M1.3 10.1C1.74183 10.1 2.1 10.4582 2.1 10.9V14.1C2.1 14.3122 2.18429 14.5157 2.33431 14.6657C2.48434 14.8157 2.68783 14.9 2.9 14.9H14.1C14.3122 14.9 14.5157 14.8157 14.6657 14.6657C14.8157 14.5157 14.9 14.3122 14.9 14.1V10.9C14.9 10.4582 15.2582 10.1 15.7 10.1C16.1418 10.1 16.5 10.4582 16.5 10.9V14.1C16.5 14.7365 16.2471 15.347 15.7971 15.7971C15.347 16.2471 14.7365 16.5 14.1 16.5H2.9C2.26348 16.5 1.65303 16.2471 1.20294 15.7971C0.752856 15.347 0.5 14.7365 0.5 14.1V10.9C0.5 10.4582 0.858172 10.1 1.3 10.1Z" fill="white"/>
</g>
<defs>
<clipPath id="clip0_391_23098">
<rect width="16" height="16" fill="white" transform="translate(0.5 0.5)"/>
</clipPath>
</defs>
</svg>
