<svg width="117" height="145" viewBox="0 0 117 145" fill="none" xmlns="http://www.w3.org/2000/svg">
<path d="M112.124 3.99212C113.224 3.89416 114.036 2.92284 113.938 1.82262C113.84 0.722408 112.869 -0.0900805 111.769 0.00788105L112.124 3.99212ZM57.5703 35.9305L59.4761 36.5371L57.5703 35.9305ZM95.0095 85.6952L95.4536 87.6453L95.0095 85.6952ZM108.381 53.2727L107.576 55.1036L108.381 53.2727ZM30.8508 93.2353L32.4966 94.3717L30.8508 93.2353ZM11.3637 144.15C11.9989 145.054 13.2464 145.271 14.15 144.636L28.8765 134.286C29.7802 133.651 29.9979 132.403 29.3628 131.5C28.7276 130.596 27.4801 130.378 26.5764 131.013L13.4862 140.214L4.28588 127.123C3.65073 126.22 2.40325 126.002 1.49956 126.637C0.595874 127.272 0.37818 128.52 1.01333 129.424L11.3637 144.15ZM111.769 0.00788105C102.99 0.789502 90.6925 4.46706 79.7881 10.424C68.9431 16.3485 59.0209 24.779 55.6646 35.3239L59.4761 36.5371C62.3597 27.4777 71.157 19.697 81.7058 13.9343C92.1952 8.20407 103.965 4.71852 112.124 3.99212L111.769 0.00788105ZM55.6646 35.3239C50.9428 50.1584 53.5635 64.8237 61.0642 75.0261C68.599 85.2751 81.0193 90.9324 95.4536 87.6453L94.5654 83.7451C81.7801 86.6567 70.9382 81.7038 64.2869 72.6568C57.6015 63.5632 55.1124 50.2468 59.4761 36.5371L55.6646 35.3239ZM95.4536 87.6453C107.685 84.8598 114.355 77.4406 116.355 69.7834C118.306 62.3136 115.748 54.3266 109.185 51.4418L107.576 55.1036C111.77 56.9476 114.115 62.5328 112.485 68.7725C110.904 74.8248 105.511 81.2524 94.5654 83.7451L95.4536 87.6453ZM109.185 51.4418C96.0786 45.6802 80.5634 49.371 66.3116 57.5167C51.9998 65.6967 38.5286 78.5963 29.2051 92.0989L32.4966 94.3717C41.5149 81.3113 54.5554 68.8433 68.2965 60.9895C82.0975 53.1015 96.1763 50.0925 107.576 55.1036L109.185 51.4418ZM29.2051 92.0989C22.8796 101.26 18.3458 113.961 15.4028 124.228C13.9238 129.389 12.8323 133.987 12.1102 137.296C11.749 138.951 11.4799 140.286 11.3006 141.209C11.2109 141.671 11.1437 142.03 11.0987 142.275C11.0762 142.397 11.0592 142.491 11.0477 142.555C11.042 142.587 11.0376 142.612 11.0346 142.629C11.0331 142.637 11.032 142.644 11.0312 142.648C11.0308 142.65 11.0305 142.652 11.0302 142.654C11.0301 142.654 11.03 142.655 11.0299 142.655C11.0298 142.656 11.0298 142.656 13 143C14.9702 143.344 14.9702 143.344 14.9702 143.344C14.9702 143.344 14.9702 143.344 14.9703 143.343C14.9704 143.343 14.9706 143.342 14.9709 143.34C14.9714 143.337 14.9723 143.332 14.9736 143.325C14.976 143.311 14.9799 143.289 14.9851 143.26C14.9955 143.202 15.0114 143.114 15.0327 142.998C15.0755 142.765 15.1402 142.42 15.2272 141.972C15.4013 141.075 15.6642 139.771 16.0182 138.149C16.7265 134.903 17.7977 130.391 19.248 125.33C22.1639 115.157 26.5555 102.976 32.4966 94.3717L29.2051 92.0989Z" fill="#2DB2C4"/>
</svg>
