<svg width="24" height="24" viewBox="0 0 24 24" fill="none" xmlns="http://www.w3.org/2000/svg">
<path d="M8.06072 9.51802C11.203 8.01518 13.6622 5.46489 15.074 2.27704C14.1632 1.32068 12.9791 0.637571 11.704 0.227704L11.0209 0C10.9753 0.0910816 10.9298 0.22771 10.9298 0.318791C9.83681 3.41556 7.60531 5.92031 4.59962 7.33207C2.50475 8.33397 0.956357 10.1556 0.227704 12.3416L0 13.0247C0.0910816 13.0702 0.227706 13.1157 0.318788 13.1157C1.18406 13.4345 2.04934 13.8444 2.86907 14.3453C4.00759 12.296 5.82922 10.5655 8.06072 9.51802Z" fill="white"/>
<path opacity="0.8" d="M21.2679 9.69922C19.5829 12.2495 17.2603 14.2988 14.3912 15.6651C12.0686 16.758 10.2926 18.8074 9.47282 21.2666L9.24512 22.0408C10.1104 22.815 11.1578 23.407 12.2963 23.7713L12.9795 23.999C13.025 23.908 13.0705 23.7713 13.0705 23.6802C14.1635 20.5835 16.395 18.0787 19.4007 16.667C21.4956 15.6651 23.0895 13.8434 23.7726 11.6575L24.0003 10.9744C23.044 10.7011 22.1332 10.2457 21.2679 9.69922Z" fill="white"/>
<path opacity="0.9" d="M7.42333 19.6743C8.56185 16.9419 10.6567 14.7104 13.3436 13.4352C15.8028 12.2512 17.8522 10.4296 19.2639 8.19805C18.2165 7.19616 17.3512 6.05763 16.7136 4.69141C15.0286 7.78818 12.3873 10.2929 9.15388 11.8413C7.28671 12.7066 5.78386 14.2094 4.87305 16.0311C5.87494 16.9874 6.69468 18.1715 7.33225 19.4922C7.33225 19.4922 7.37779 19.5833 7.42333 19.6743Z" fill="white"/>
</svg>
