<svg width="16" height="14" viewBox="0 0 16 14" fill="none" xmlns="http://www.w3.org/2000/svg">
<path fill-rule="evenodd" clip-rule="evenodd" d="M2.1665 2.02495C2.92519 1.26652 3.9298 0.803968 4.99933 0.720638C6.06886 0.637309 7.13299 0.938679 8 1.57045C8.91593 0.907769 10.0477 0.613988 11.1703 0.747499C12.2929 0.881011 13.3242 1.43204 14.0591 2.29106C14.7941 3.15008 15.1789 4.25419 15.1371 5.38394C15.0953 6.51368 14.6299 7.58634 13.8335 8.3887L9.59075 12.6315C9.16881 13.0533 8.59662 13.2902 8 13.2902C7.40338 13.2902 6.83119 13.0533 6.40925 12.6315L2.1665 8.38945C1.32265 7.54555 0.848587 6.401 0.848587 5.20758C0.848587 4.01415 1.32265 2.86886 2.1665 2.02495Z" fill="white"/>
</svg>
