<svg width="207" height="60" viewBox="0 0 207 60" fill="none" xmlns="http://www.w3.org/2000/svg">
<g clip-path="url(#clip0_4485_42500)">
<path d="M60.1276 26.3142V0.537109H64.0165L72.9408 18.7957L81.8646 0.537109H85.753V26.3142H81.7203V9.7922L73.8 26.3145H72.0797L64.1779 9.7922V26.3145L60.1276 26.3142Z" fill="#2DB2C4"/>
<path d="M93.4948 26.3142L101.631 0.537109H107.957L116.092 26.3142H111.648L104.265 3.18667H105.232L97.9394 26.3136L93.4948 26.3142ZM98.0324 20.7294V16.7011H111.575V20.7294H98.0324Z" fill="#2DB2C4"/>
<path d="M123.17 26.3142L131.306 0.537109H137.631L145.767 26.3142H141.322L133.94 3.18667H134.907L127.614 26.3142H123.17ZM127.705 20.7294V16.7011H141.253V20.7294H127.705Z" fill="#2DB2C4"/>
<path d="M153.508 26.3142V0.537109H157.88L169.85 18.7061V0.537788H174.223V26.3149H169.85L157.88 8.14637V26.3154L153.508 26.3142Z" fill="#2DB2C4"/>
<path d="M194.4 26.8503C192.79 26.862 191.193 26.5612 189.697 25.9647C188.242 25.3795 186.929 24.4916 185.845 23.36C184.7 22.1485 183.819 20.713 183.257 19.1441C182.607 17.3085 182.292 15.3717 182.325 13.425C182.325 10.6097 182.851 8.20208 183.902 6.20233C184.873 4.28868 186.371 2.69246 188.22 1.60226C190.099 0.521073 192.235 -0.0327556 194.402 -0.000631006C197.581 -0.000631006 200.099 0.736503 201.956 2.21077C203.813 3.68505 205.071 5.75255 205.728 8.4133L201.318 9.11143C200.894 7.68275 200.059 6.40985 198.917 5.45037C197.807 4.53731 196.391 4.08018 194.67 4.079C192.937 4.05498 191.497 4.43093 190.351 5.20684C189.179 6.0148 188.277 7.15607 187.763 8.48246C187.154 10.057 186.859 11.7352 186.894 13.4228C186.894 15.308 187.181 16.9459 187.755 18.3367C188.27 19.6548 189.172 20.7866 190.343 21.5839C191.495 22.3583 192.938 22.7581 194.671 22.7833C195.852 22.821 197.025 22.5787 198.094 22.0763C199.085 21.5819 199.917 20.8189 200.495 19.8744C201.166 18.7428 201.593 17.4835 201.749 16.1774H197.198V12.7967H206.337C206.361 12.988 206.378 13.268 206.391 13.6386C206.403 14.0091 206.409 14.2295 206.409 14.3C206.409 16.7342 205.927 18.8973 204.964 20.7892C204.042 22.6367 202.61 24.1821 200.838 25.2427C199.044 26.3144 196.898 26.8503 194.4 26.8503Z" fill="#2DB2C4"/>
<path d="M70.4319 59.9989C67.864 59.9989 65.7076 59.4293 63.9628 58.2901C62.207 57.138 60.8345 55.4897 60.0203 53.5553C59.1375 51.5379 58.6962 49.2107 58.6962 46.5737C58.6962 43.9367 59.1375 41.6098 60.0203 39.5932C60.8342 37.6586 62.2068 36.0102 63.9628 34.8583C65.7084 33.7187 67.8647 33.1487 70.4319 33.1484C73.4302 33.1484 75.8646 33.9243 77.7348 35.4759C79.6051 37.0276 80.8736 39.1039 81.5402 41.7049L79.4083 42.2245C78.8591 40.0647 77.8349 38.3492 76.3357 37.0777C74.8365 35.8063 72.8683 35.1709 70.431 35.1717C68.3164 35.1717 66.5575 35.6549 65.1542 36.6213C63.7227 37.6226 62.6191 39.024 61.9821 40.6496C61.2711 42.3679 60.9099 44.3428 60.8986 46.5743C60.8746 48.8061 61.2181 50.7782 61.9291 52.4904C62.5736 54.1192 63.6865 55.5209 65.1274 56.5187C66.5491 57.4915 68.3173 57.9777 70.4319 57.9772C72.8689 57.9772 74.8371 57.3389 76.3366 56.0623C77.8361 54.7857 78.8603 53.0731 79.4092 50.9247L81.5411 51.4442C80.8731 54.0459 79.604 56.1223 77.7337 57.6732C75.8634 59.2241 73.4295 59.9994 70.4319 59.9989Z" fill="black"/>
<path d="M82.4745 59.4627L91.6138 33.6855H94.1761L103.315 59.4627H101.129L92.3479 34.76H93.3875L84.6596 59.4627H82.4745ZM86.2555 52.9824V51.0316H99.516V52.9824H86.2555Z" fill="black"/>
<path d="M106.037 59.462V33.6855H115.767C116.018 33.6855 116.29 33.6944 116.582 33.712C116.892 33.7323 117.2 33.7712 117.505 33.8286C118.714 33.9976 119.859 34.4754 120.829 35.2157C121.751 35.9334 122.481 36.8681 122.953 37.9364C123.452 39.073 123.702 40.3029 123.688 41.5439C123.726 43.3177 123.192 45.0567 122.164 46.5036C121.149 47.9124 119.627 48.8743 117.917 49.1881L117.326 49.4207H108.099V59.4609L106.037 59.462ZM108.099 47.3968H115.734C115.949 47.3968 116.197 47.385 116.477 47.3614C116.758 47.3379 117.041 47.302 117.328 47.2538C118.194 47.095 119 46.7017 119.657 46.1168C120.278 45.5526 120.757 44.8508 121.056 44.0678C121.367 43.2624 121.525 42.406 121.522 41.5426C121.526 40.6827 121.367 39.8298 121.056 39.0282C120.755 38.2487 120.276 37.55 119.657 36.9876C119 36.4028 118.194 36.0095 117.328 35.8507C117.047 35.7921 116.763 35.7504 116.477 35.7257C116.196 35.7017 115.948 35.6897 115.734 35.6897H108.1L108.099 47.3968ZM121.933 59.462L116.843 48.9721L118.761 48.0053L124.351 59.462H121.933Z" fill="black"/>
<path d="M127.793 59.462V33.6855H143.743V35.6901H129.854V45.4819H141.591V47.4882H129.854V57.457H143.742V59.4622L127.793 59.462Z" fill="black"/>
<path d="M147.541 59.462V33.6855H163.491V35.6901H149.603V45.4819H161.34V47.4882H149.603V57.457H163.49V59.4622L147.541 59.462Z" fill="black"/>
<path d="M167.287 59.462V33.6855H177.017C177.268 33.6855 177.539 33.6944 177.832 33.712C178.142 33.7322 178.45 33.7711 178.756 33.8286C179.964 33.9978 181.109 34.4756 182.079 35.2157C183.002 35.9332 183.731 36.868 184.203 37.9364C184.702 39.0732 184.952 40.303 184.938 41.5439C184.977 43.3177 184.443 45.0567 183.415 46.5036C182.399 47.9125 180.877 48.8743 179.167 49.1876L178.576 49.4203H169.347V59.4602L167.287 59.462ZM169.348 47.3968H176.983C177.197 47.3968 177.445 47.385 177.726 47.3614C178.007 47.3379 178.291 47.302 178.578 47.2538C179.444 47.0948 180.25 46.7016 180.907 46.1168C181.527 45.5522 182.005 44.8504 182.304 44.0678C182.617 43.2627 182.775 42.4061 182.772 41.5426C182.776 40.6825 182.617 39.8295 182.304 39.0282C182.003 38.249 181.525 37.5504 180.907 36.9876C180.25 36.4029 179.444 36.0097 178.578 35.8507C178.297 35.7922 178.012 35.7504 177.726 35.7257C177.445 35.7017 177.198 35.6897 176.983 35.6897H169.348V47.3968ZM183.183 59.462L178.093 48.9721L180.01 48.0053L185.601 59.462H183.183Z" fill="black"/>
<path d="M197.805 59.999C196.171 60.0241 194.548 59.7262 193.03 59.1225C191.678 58.5833 190.474 57.7306 189.517 56.6348C188.58 55.5375 187.942 54.2183 187.662 52.8036L189.777 52.446C190.18 54.1086 191.194 55.5591 192.618 56.5092C194.07 57.4996 195.817 57.9951 197.859 57.9955C199.115 58.0196 200.363 57.7948 201.531 57.3341C202.518 56.9492 203.381 56.302 204.027 55.4625C204.627 54.6463 204.942 53.6554 204.923 52.6426C204.946 51.9675 204.801 51.2974 204.502 50.6916C204.237 50.1869 203.868 49.7444 203.418 49.3941C202.983 49.0587 202.506 48.782 201.998 48.5712C201.536 48.3764 201.063 48.2063 200.583 48.0614L194.096 46.1265C193.295 45.9002 192.523 45.5852 191.793 45.1872C191.16 44.8436 190.586 44.4027 190.091 43.8808C189.633 43.3902 189.275 42.8164 189.034 42.1905C188.781 41.5151 188.656 40.7987 188.666 40.0776C188.639 38.7792 189.029 37.5062 189.777 36.4444C190.557 35.3745 191.612 34.5354 192.831 34.0159C194.243 33.4146 195.767 33.1189 197.302 33.1485C198.875 33.1346 200.432 33.4549 201.872 34.0882C203.178 34.6688 204.32 35.5639 205.196 36.6935C206.082 37.8618 206.658 39.2345 206.871 40.6846L204.739 41.0609C204.593 39.9336 204.151 38.865 203.458 37.9639C202.764 37.0754 201.864 36.3689 200.836 35.9053C199.721 35.4057 198.51 35.1552 197.288 35.1713C196.148 35.1381 195.013 35.3516 193.963 35.7972C193.071 36.1716 192.29 36.7696 191.697 37.5335C191.154 38.2423 190.864 39.1122 190.873 40.0047C190.873 40.9591 191.133 41.7197 191.652 42.2864C192.188 42.864 192.842 43.3193 193.57 43.6208C194.28 43.9254 195.007 44.1883 195.748 44.4079L200.945 45.9477C201.435 46.0907 202.02 46.2936 202.701 46.5562C203.417 46.8377 204.092 47.214 204.708 47.6751C205.389 48.1848 205.949 48.8387 206.348 49.59C206.784 50.3857 207.002 51.3791 207.001 52.5703C207.019 53.6449 206.793 54.7095 206.339 55.684C205.899 56.6014 205.248 57.402 204.44 58.0204C203.565 58.685 202.574 59.1826 201.519 59.4883C200.313 59.8398 199.061 60.0119 197.805 59.999Z" fill="black"/>
<path d="M43.8999 17.4479C46.1041 18.9158 48.8307 21.5874 50.2995 23.6834L51.1127 24.8621L47.703 26.6961L44.3187 28.5038L43.6105 27.4821C42.3516 25.6743 39.9122 23.6567 37.7354 22.6089L35.6634 21.6396L38.4688 18.8102C40.0162 17.2644 41.3802 16.0078 41.5111 16.0078C41.642 16.0078 42.7196 16.6619 43.8999 17.4479ZM17.9341 41.3417C18.6945 43.9404 20.0916 46.3087 21.9988 48.2323C24.9363 51.1666 27.7165 52.4243 31.2834 52.4243C35.9256 52.4243 39.755 50.4071 42.7187 46.4246L44.0827 44.5906L45.2892 45.0621C45.9712 45.3241 47.7284 45.9791 49.2235 46.53L51.8988 47.5255L51.4792 48.2068C47.44 54.5207 42.2732 58.2937 35.8473 59.6036C33.3556 60.1276 29.0019 60.1276 26.6676 59.6299C24.4078 59.13 22.2399 58.2814 20.2417 57.1147C18.4843 56.0667 15.2846 53.1324 13.9994 51.3765C12.7405 49.6473 11.1143 46.3463 10.5635 44.3551L10.1182 42.7046L13.6327 39.1154L17.1473 35.5259L17.3309 37.6742C17.4274 38.9116 17.6291 40.1385 17.9341 41.3417Z" fill="black"/>
<path d="M39.4208 15.5886C37.2702 17.7631 32.4703 22.8983 28.7198 26.9592L21.9269 34.3999L14.8978 27.326L7.86871 20.2521V41.0281L4.14421 44.7486C2.07221 46.8183 0.314604 48.495 0.209958 48.495C0.078817 48.495 0 37.6484 0 24.3653C0 9.11719 0.104871 0.28802 0.262285 0.340509C0.393426 0.366753 5.00965 5.18746 10.4911 11.0299C15.999 16.8723 20.825 21.955 21.2184 22.3743L21.9267 23.1082L32.5226 11.5543L43.1453 0L43.2239 5.8162L43.2765 11.6324L39.4208 15.5886Z" fill="url(#paint0_linear_4485_42500)"/>
</g>
<defs>
<linearGradient id="paint0_linear_4485_42500" x1="21.6382" y1="0" x2="21.6382" y2="48.495" gradientUnits="userSpaceOnUse">
<stop stop-color="#04B3D6"/>
<stop offset="1" stop-color="#77D0D2"/>
</linearGradient>
<clipPath id="clip0_4485_42500">
<rect width="207" height="60" fill="white"/>
</clipPath>
</defs>
</svg>
