<svg width="20" height="20" viewBox="0 0 32 32" fill="none" xmlns="http://www.w3.org/2000/svg">
<path d="M12.7526 11.6406L13.4393 14.1246C14.0859 16.4646 14.4086 17.6353 15.3593 18.1673C16.3099 18.7006 17.5166 18.386 19.9299 17.7593L22.4899 17.0926C24.9033 16.466 26.1099 16.1526 26.6593 15.2313C27.2086 14.3086 26.8859 13.138 26.2379 10.798L25.5526 8.31532C24.9059 5.97398 24.5819 4.80331 23.6326 4.27131C22.6806 3.73798 21.4739 4.05265 19.0606 4.68065L16.5006 5.34465C14.0873 5.97131 12.8806 6.28598 12.3326 7.20865C11.7833 8.12998 12.1059 9.30065 12.7526 11.6406Z" fill="#777777"/>
<path d="M3.03625 6.99831C3.07138 6.87168 3.13112 6.75321 3.21207 6.64968C3.29301 6.54616 3.39357 6.4596 3.50799 6.39496C3.62241 6.33032 3.74845 6.28886 3.8789 6.27297C4.00935 6.25707 4.14166 6.26704 4.26825 6.30231L6.53892 6.93165C7.1407 7.09508 7.68988 7.41165 8.13292 7.85048C8.57596 8.28931 8.89775 8.83545 9.06692 9.43565L11.9349 19.817L12.1456 20.5463C12.9959 20.8597 13.7125 21.4562 14.1749 22.2356L14.5883 22.1076L26.4149 19.0343C26.542 19.0012 26.6744 18.9935 26.8045 19.0116C26.9346 19.0296 27.0599 19.0732 27.1732 19.1396C27.2865 19.2061 27.3856 19.2943 27.4648 19.3991C27.544 19.5038 27.6018 19.6232 27.6349 19.7503C27.668 19.8774 27.6757 20.0098 27.6577 20.1399C27.6396 20.27 27.5961 20.3953 27.5296 20.5086C27.4631 20.6219 27.375 20.721 27.2702 20.8002C27.1654 20.8794 27.046 20.9372 26.9189 20.9703L15.1363 24.0316L14.6963 24.1676C14.6883 25.861 13.5189 27.4103 11.7496 27.869C9.62958 28.421 7.44958 27.1996 6.88158 25.1436C6.31358 23.0863 7.57225 20.9716 9.69225 20.421C9.79671 20.3941 9.90211 20.3709 10.0083 20.3516L7.13892 9.96765C7.06168 9.70087 6.91671 9.45861 6.71811 9.26446C6.51951 9.0703 6.27404 8.93084 6.00558 8.85965L3.73358 8.22898C3.60698 8.19399 3.4885 8.13439 3.38493 8.0536C3.28136 7.9728 3.19472 7.8724 3.12996 7.75811C3.06521 7.64383 3.0236 7.5179 3.00752 7.38754C2.99144 7.25717 3.0012 7.12491 3.03625 6.99831Z" fill="#777777"/>
</svg>
