<svg width="20" height="20" viewBox="0 0 32 32" fill="none" xmlns="http://www.w3.org/2000/svg">
<path fill-rule="evenodd" clip-rule="evenodd" d="M25.3333 4C26.0406 4 26.7189 4.28095 27.219 4.78105C27.719 5.28115 28 5.95942 28 6.66667V25.3333C28 26.0406 27.719 26.7189 27.219 27.219C26.7189 27.719 26.0406 28 25.3333 28H6.66667C5.95942 28 5.28115 27.719 4.78105 27.219C4.28095 26.7189 4 26.0406 4 25.3333V6.66667C4 5.95942 4.28095 5.28115 4.78105 4.78105C5.28115 4.28095 5.95942 4 6.66667 4H25.3333ZM21.3333 18.6667H18.6667C18.313 18.6667 17.9739 18.8071 17.7239 19.0572C17.4738 19.3072 17.3333 19.6464 17.3333 20C17.3333 20.3536 17.4738 20.6928 17.7239 20.9428C17.9739 21.1929 18.313 21.3333 18.6667 21.3333H21.3333C21.687 21.3333 22.0261 21.1929 22.2761 20.9428C22.5262 20.6928 22.6667 20.3536 22.6667 20C22.6667 19.6464 22.5262 19.3072 22.2761 19.0572C22.0261 18.8071 21.687 18.6667 21.3333 18.6667ZM12.0667 11.2867C11.8267 11.0475 11.5048 10.9087 11.1662 10.8984C10.8276 10.888 10.4977 11.007 10.2436 11.231C9.98954 11.455 9.83026 11.7674 9.79813 12.1046C9.76601 12.4419 9.86345 12.7787 10.0707 13.0467L10.1813 13.172L13.0093 16L10.1827 18.828C9.94099 19.0674 9.79996 19.3901 9.78842 19.7301C9.77689 20.07 9.89573 20.4016 10.1206 20.6568C10.3455 20.912 10.6594 21.0716 10.9982 21.1029C11.3369 21.1343 11.6748 21.035 11.9427 20.8253L12.0667 20.7147L15.8387 16.9427C16.0682 16.7131 16.2061 16.4076 16.2265 16.0836C16.2469 15.7595 16.1483 15.4392 15.9493 15.1827L15.8387 15.0573L12.0667 11.2867Z" fill="white"/>
</svg>
