<svg width="20" height="20" viewBox="0 0 24 27" fill="none" xmlns="http://www.w3.org/2000/svg">
<path d="M17.3333 19.0026H12V23.0026L5.33333 16.3359L12 9.66927V13.6693H17.3333M12 3.0026C12.3536 3.0026 12.6928 3.14308 12.9428 3.39313C13.1929 3.64318 13.3333 3.98232 13.3333 4.33594C13.3333 4.68956 13.1929 5.0287 12.9428 5.27875C12.6928 5.52879 12.3536 5.66927 12 5.66927C11.6464 5.66927 11.3072 5.52879 11.0572 5.27875C10.8071 5.0287 10.6667 4.68956 10.6667 4.33594C10.6667 3.98232 10.8071 3.64318 11.0572 3.39313C11.3072 3.14308 11.6464 3.0026 12 3.0026ZM21.3333 3.0026H15.76C15.2 1.45594 13.7333 0.335938 12 0.335938C10.2667 0.335938 8.8 1.45594 8.24 3.0026H2.66667C1.95942 3.0026 1.28115 3.28356 0.781048 3.78365C0.280951 4.28375 0 4.96203 0 5.66927V24.3359C0 25.0432 0.280951 25.7215 0.781048 26.2216C1.28115 26.7217 1.95942 27.0026 2.66667 27.0026H21.3333C22.0406 27.0026 22.7189 26.7217 23.219 26.2216C23.719 25.7215 24 25.0432 24 24.3359V5.66927C24 4.96203 23.719 4.28375 23.219 3.78365C22.7189 3.28356 22.0406 3.0026 21.3333 3.0026Z" fill="#777777"/>
</svg>
