<svg width="16" height="16" viewBox="0 0 16 16" fill="none" xmlns="http://www.w3.org/2000/svg">
<g clip-path="url(#clip0_380_6839)">
<path d="M0.3184 1.85455C-0.105848 1.4303 -0.105849 0.742445 0.3184 0.318191C0.742649 -0.106064 1.43049 -0.106064 1.85474 0.318191L15.6818 14.1454C16.1061 14.5697 16.1061 15.2576 15.6818 15.6818C15.2576 16.1061 14.5697 16.1061 14.1455 15.6818L0.3184 1.85455Z" fill="#E72853"/>
<path d="M15.6816 1.85455C16.1058 1.4303 16.1058 0.742445 15.6816 0.318191C15.2573 -0.106064 14.5695 -0.106064 14.1453 0.318191L0.318187 14.1454C-0.106062 14.5697 -0.106062 15.2576 0.318187 15.6818C0.742436 16.1061 1.43028 16.1061 1.85453 15.6818L15.6816 1.85455Z" fill="#E72853"/>
</g>
<defs>
<clipPath id="clip0_380_6839">
<rect width="16" height="16" fill="white"/>
</clipPath>
</defs>
</svg>
