<svg width="309" height="161" viewBox="0 0 309 161" fill="none" xmlns="http://www.w3.org/2000/svg">
<path d="M25.8025 143.445C25.8025 143.445 -5.8865 118.171 11.5637 83.1814C29.0139 48.192 4.68857 36.0723 21.6141 28.8603C38.5306 21.6574 47.8935 37.3514 94.744 24.3154C141.595 11.2704 235.721 -10.3928 257.224 5.73664C278.727 21.8661 217.23 66.1721 246.287 65.8364C305.078 65.156 293.997 125.782 265.555 145.34C251.136 155.256 25.8025 143.445 25.8025 143.445Z" fill="url(#paint0_radial_365_1918)"/>
<path d="M305.595 136.075C262.18 106.359 17.939 133.037 4.54066 141.856C-8.85768 150.675 16.1028 154.002 49.0095 158.309C90.3656 163.646 132.74 158.337 170.854 160.088C208.969 161.84 329.164 160.088 305.595 136.075Z" fill="url(#paint1_radial_365_1918)"/>
<path fill-rule="evenodd" clip-rule="evenodd" d="M246.792 36.0463C246.457 37.6974 245.896 39.2759 245.136 40.7273L247.588 44.102C246.927 45.1452 246.176 46.125 245.353 47.0231L241.463 45.5262C240.242 46.642 238.876 47.5946 237.383 48.3384V52.5205C236.253 52.965 235.077 53.3188 233.864 53.5637L231.594 50.053C230.936 50.1256 230.264 50.1618 229.576 50.1618C228.581 50.1618 227.604 50.0802 226.645 49.9169L224.194 53.3097C223 53.0013 221.842 52.584 220.738 52.076L220.964 47.903C219.508 47.0775 218.187 46.0615 217.038 44.8731L213.067 46.1703C212.289 45.2269 211.593 44.2108 210.986 43.1404L213.619 39.8927C212.94 38.405 212.461 36.8084 212.217 35.1301L208.245 33.8419C208.221 33.4186 208.209 32.9922 208.209 32.5628C208.209 31.7464 208.254 30.9481 208.345 30.1588L212.371 29.0793C212.705 27.4283 213.266 25.8498 214.026 24.3983L211.574 21.0237C212.235 19.9804 212.986 19.0098 213.809 18.1026L217.699 19.6085C218.92 18.4836 220.286 17.5311 221.779 16.7872V12.6052C222.909 12.1606 224.085 11.8069 225.298 11.5619L227.568 15.0817C228.226 15.0031 228.895 14.9638 229.576 14.9638C230.581 14.9638 231.558 15.0454 232.517 15.2087L234.959 11.8159C236.162 12.1334 237.32 12.5417 238.424 13.0497L238.198 17.2226C239.645 18.0482 240.966 19.0733 242.124 20.2526L246.086 18.9553C246.864 19.8988 247.56 20.9148 248.176 21.9943L245.543 25.2329C246.222 26.7207 246.701 28.3264 246.945 29.9955L250.917 31.2837C250.941 31.7071 250.953 32.1334 250.953 32.5628C250.953 33.3793 250.908 34.1776 250.817 34.9668L246.792 36.0463ZM237.962 32.5719C237.962 27.9272 234.208 24.1625 229.586 24.1625C224.954 24.1625 221.2 27.9272 221.2 32.5719C221.2 37.2075 224.954 40.9723 229.586 40.9723C234.208 40.9723 237.962 37.2075 237.962 32.5719Z" fill="#9EC8FF"/>
<path d="M241.011 42.2877C240.911 42.2877 240.812 42.2514 240.721 42.1879C240.531 42.0246 240.504 41.7434 240.667 41.5438C242.748 39.0309 243.897 35.8377 243.897 32.5628C243.897 30.9934 243.643 29.4513 243.137 27.9817C243.055 27.7458 243.182 27.4918 243.417 27.4101C243.652 27.3285 243.915 27.4555 243.996 27.6914C244.53 29.2517 244.801 30.8937 244.801 32.5628C244.801 36.0554 243.58 39.4482 241.364 42.1244C241.273 42.2332 241.146 42.2877 241.011 42.2877Z" fill="white"/>
<path d="M239.798 22.4479C239.69 22.4479 239.572 22.4116 239.491 22.33C238.089 21.0055 236.46 19.9986 234.66 19.3454C234.425 19.2638 234.307 19.0007 234.389 18.7648C234.479 18.529 234.733 18.411 234.968 18.4927C236.886 19.1912 238.613 20.2617 240.106 21.6678C240.287 21.8401 240.296 22.1214 240.124 22.3119C240.043 22.4026 239.916 22.4479 239.798 22.4479Z" fill="white"/>
<path d="M226.329 18.9463C226.13 18.9463 225.94 18.8102 225.895 18.6016C225.831 18.3657 225.976 18.1117 226.22 18.0573C227.405 17.7488 228.645 17.6037 229.884 17.6037C230.128 17.6037 230.336 17.8032 230.336 18.0573C230.336 18.3022 230.128 18.5108 229.884 18.5108C228.717 18.5108 227.559 18.6469 226.437 18.9372C226.401 18.9433 226.365 18.9463 226.329 18.9463Z" fill="white"/>
<path d="M192.172 74.9806C192.172 112.147 162.121 142.292 125.049 142.292C87.9777 142.292 57.926 112.147 57.926 74.9806C57.926 37.805 87.9777 7.65982 125.049 7.65982C162.121 7.65982 192.172 37.805 192.172 74.9806Z" fill="#5EC7E9"/>
<path d="M176.541 74.0916C176.541 102.613 153.491 125.737 125.049 125.737C96.608 125.737 73.5491 102.613 73.5491 74.0916C73.5491 45.5794 96.608 22.4557 125.049 22.4557C153.491 22.4557 176.541 45.5794 176.541 74.0916Z" fill="white"/>
<path d="M125.049 75.906C124.425 75.906 123.81 75.5794 123.475 74.9988C122.978 74.1279 123.276 73.0212 124.145 72.5222L143.648 61.2915C144.517 60.7926 145.62 61.101 146.118 61.9628C146.616 62.8337 146.317 63.9404 145.449 64.4394L125.945 75.6701C125.664 75.8334 125.357 75.906 125.049 75.906Z" fill="#56C1E3"/>
<path d="M125.049 75.4524C124.579 75.4524 124.118 75.2074 123.864 74.7629L108.902 48.3735C108.531 47.7203 108.757 46.8857 109.408 46.5138C110.06 46.1509 110.892 46.3777 111.263 47.0309L126.225 73.4203C126.596 74.0735 126.37 74.9081 125.719 75.28C125.511 75.3979 125.275 75.4524 125.049 75.4524Z" fill="#F37168"/>
<path d="M127.537 74.0916C127.537 75.4705 126.425 76.5954 125.049 76.5954C123.674 76.5954 122.562 75.4705 122.562 74.0916C122.562 72.7127 123.674 71.5969 125.049 71.5969C126.425 71.5969 127.537 72.7127 127.537 74.0916Z" fill="#212D51"/>
<path d="M122.399 39.1204H120.056V31.3187H117.785V29.6495L122.399 28.942V39.1204Z" fill="#212D51"/>
<path d="M132.765 39.1204H125.664V37.5782L128.93 34.14C129.34 33.6683 129.645 33.245 129.844 32.87C130.037 32.5011 130.133 32.1775 130.133 31.8993C130.133 31.5123 130.034 31.2008 129.834 30.9649C129.641 30.7291 129.346 30.6111 128.948 30.6111C128.598 30.6111 128.321 30.7623 128.116 31.0647C127.917 31.3671 127.817 31.7512 127.817 32.2168H125.51L125.501 32.1715C125.477 31.2341 125.782 30.4358 126.415 29.7766C127.054 29.1234 127.899 28.7968 128.948 28.7968C130.064 28.7968 130.932 29.072 131.553 29.6223C132.18 30.1727 132.494 30.9256 132.494 31.8812C132.494 32.5222 132.328 33.0907 131.997 33.5867C131.665 34.0765 131.053 34.8083 130.16 35.782L128.785 37.2607L128.812 37.306H132.765V39.1204Z" fill="#212D51"/>
<path fill-rule="evenodd" clip-rule="evenodd" d="M125.71 107.112C126.108 107.112 126.464 107.146 126.777 107.212C127.085 107.285 127.429 107.394 127.809 107.539L127.42 109.262C127.094 109.16 126.808 109.084 126.56 109.036C126.319 108.987 126.039 108.963 125.719 108.963C125.164 108.963 124.718 109.16 124.38 109.553C124.042 109.946 123.883 110.52 123.901 111.276L123.919 111.313C124.124 111.083 124.395 110.901 124.733 110.768C125.071 110.635 125.457 110.569 125.891 110.569C126.795 110.569 127.501 110.898 128.008 111.558C128.508 112.211 128.759 113.048 128.759 114.07C128.759 115.074 128.427 115.909 127.763 116.574C127.094 117.246 126.241 117.581 125.203 117.581C124.094 117.581 123.198 117.215 122.517 116.484C121.835 115.752 121.494 114.751 121.494 113.481V111.431C121.494 110.088 121.889 109.033 122.679 108.265C123.463 107.497 124.474 107.112 125.71 107.112ZM125.24 112.392C124.914 112.392 124.636 112.435 124.407 112.519C124.172 112.61 123.985 112.734 123.846 112.891V113.49C123.846 114.222 123.967 114.784 124.208 115.177C124.449 115.57 124.781 115.767 125.203 115.767C125.559 115.767 125.849 115.598 126.072 115.259C126.295 114.926 126.406 114.53 126.406 114.07C126.406 113.556 126.298 113.148 126.081 112.846C125.864 112.543 125.583 112.392 125.24 112.392Z" fill="#212D51"/>
<path fill-rule="evenodd" clip-rule="evenodd" d="M83.6717 76.6045C84.1421 76.6045 84.5311 76.4351 84.8386 76.0965C85.1462 75.7638 85.3 75.2982 85.3 74.6994V74.2549C85.0708 74.5331 84.8055 74.7418 84.5039 74.8809C84.2024 75.026 83.8828 75.0986 83.545 75.0986C82.6163 75.0986 81.8926 74.7841 81.3739 74.1551C80.8493 73.5322 80.5869 72.6764 80.5869 71.5878C80.5869 70.5779 80.9156 69.7191 81.573 69.0115C82.2363 68.31 83.0867 67.9592 84.124 67.9592C85.1492 67.9592 85.9905 68.3281 86.6479 69.0659C87.3113 69.8098 87.643 70.8288 87.643 72.1231V74.5361C87.643 75.7094 87.2661 76.6498 86.5122 77.3574C85.7644 78.065 84.8175 78.4188 83.6717 78.4188C83.3219 78.4188 82.9601 78.3825 82.5861 78.3099C82.2122 78.2313 81.8564 78.1225 81.5187 77.9834L81.7629 76.296C82.0886 76.4049 82.3962 76.4835 82.6856 76.5319C82.9751 76.5803 83.3038 76.6045 83.6717 76.6045ZM84.0607 73.4022C84.32 73.4022 84.5582 73.3538 84.7753 73.257C84.9864 73.1663 85.1613 73.0393 85.3 72.876V71.8237C85.3 71.1585 85.1884 70.6504 84.9653 70.2997C84.7422 69.9489 84.4617 69.7735 84.124 69.7735C83.7561 69.7735 83.4666 69.958 83.2556 70.3269C83.0445 70.6958 82.9389 71.1161 82.9389 71.5878C82.9389 72.1503 83.0324 72.5918 83.2194 72.9123C83.4063 73.2389 83.6868 73.4022 84.0607 73.4022Z" fill="#212D51"/>
<path d="M164.572 72.2047H165.685C166.107 72.2047 166.43 72.0898 166.653 71.86C166.882 71.6302 166.996 71.3127 166.996 70.9075C166.996 70.5869 166.894 70.3178 166.689 70.1001C166.484 69.8824 166.188 69.7735 165.802 69.7735C165.495 69.7735 165.223 69.8612 164.988 70.0366C164.759 70.212 164.644 70.4418 164.644 70.726H162.356L162.347 70.6807C162.316 69.8703 162.633 69.2141 163.296 68.7121C163.96 68.2102 164.765 67.9592 165.712 67.9592C166.815 67.9592 167.696 68.2102 168.353 68.7121C169.017 69.2201 169.348 69.9368 169.348 70.8621C169.348 71.3217 169.204 71.7481 168.914 72.1412C168.631 72.5283 168.251 72.8307 167.774 73.0484C168.317 73.248 168.742 73.5534 169.05 73.9646C169.351 74.3698 169.502 74.8567 169.502 75.4252C169.502 76.3565 169.149 77.0883 168.444 77.6205C167.732 78.1527 166.822 78.4188 165.712 78.4188C164.765 78.4188 163.933 78.1708 163.215 77.6749C162.503 77.173 162.16 76.4472 162.184 75.4977L162.202 75.4524H164.5C164.5 75.779 164.626 76.0541 164.88 76.2779C165.133 76.4956 165.44 76.6045 165.802 76.6045C166.212 76.6045 166.541 76.4896 166.788 76.2598C167.036 76.0239 167.159 75.7306 167.159 75.3798C167.159 74.8839 167.03 74.524 166.77 74.3003C166.511 74.0705 166.149 73.9556 165.685 73.9556H164.572V72.2047Z" fill="#212D51"/>
<path fill-rule="evenodd" clip-rule="evenodd" d="M240.326 88.6335C236.137 88.6335 232.736 85.2226 232.736 81.0314C232.736 76.8313 236.137 73.4203 240.326 73.4203C244.505 73.4203 247.906 76.8313 247.906 81.0314C247.906 85.2226 244.505 88.6335 240.326 88.6335ZM240.326 75.2347C237.132 75.2347 234.545 77.8291 234.545 81.0314C234.545 84.2247 237.132 86.8192 240.326 86.8192C243.51 86.8192 246.097 84.2247 246.097 81.0314C246.097 77.8291 243.51 75.2347 240.326 75.2347Z" fill="#9BD6E8"/>
<path fill-rule="evenodd" clip-rule="evenodd" d="M230.809 88.6335C226.62 88.6335 223.219 85.2226 223.219 81.0314C223.219 76.8313 226.62 73.4203 230.809 73.4203C234.988 73.4203 238.389 76.8313 238.389 81.0314C238.389 85.2226 234.988 88.6335 230.809 88.6335ZM230.809 75.2347C227.615 75.2347 225.028 77.8291 225.028 81.0314C225.028 84.2247 227.615 86.8192 230.809 86.8192C233.993 86.8192 236.58 84.2247 236.58 81.0314C236.58 77.8291 233.993 75.2347 230.809 75.2347Z" fill="#9BD6E8"/>
<path fill-rule="evenodd" clip-rule="evenodd" d="M220.478 88.6335C216.299 88.6335 212.897 85.2226 212.897 81.0314C212.897 76.8313 216.299 73.4203 220.478 73.4203C224.667 73.4203 228.068 76.8313 228.068 81.0314C228.068 85.2226 224.667 88.6335 220.478 88.6335ZM220.478 75.2347C217.294 75.2347 214.707 77.8291 214.707 81.0314C214.707 84.2247 217.294 86.8192 220.478 86.8192C223.672 86.8192 226.259 84.2247 226.259 81.0314C226.259 77.8291 223.672 75.2347 220.478 75.2347Z" fill="#9BD6E8"/>
<path fill-rule="evenodd" clip-rule="evenodd" d="M210.961 88.6335C206.782 88.6335 203.381 85.2226 203.381 81.0314C203.381 76.8313 206.782 73.4203 210.961 73.4203C215.15 73.4203 218.551 76.8313 218.551 81.0314C218.551 85.2226 215.15 88.6335 210.961 88.6335ZM210.961 75.2347C207.777 75.2347 205.19 77.8291 205.19 81.0314C205.19 84.2247 207.777 86.8192 210.961 86.8192C214.155 86.8192 216.742 84.2247 216.742 81.0314C216.742 77.8291 214.155 75.2347 210.961 75.2347Z" fill="#9BD6E8"/>
<path fill-rule="evenodd" clip-rule="evenodd" d="M201.074 88.6335C196.895 88.6335 193.493 85.2226 193.493 81.0314C193.493 76.8313 196.895 73.4203 201.074 73.4203C205.262 73.4203 208.664 76.8313 208.664 81.0314C208.664 85.2226 205.262 88.6335 201.074 88.6335ZM201.074 75.2347C197.89 75.2347 195.302 77.8291 195.302 81.0314C195.302 84.2247 197.89 86.8192 201.074 86.8192C204.258 86.8192 206.854 84.2247 206.854 81.0314C206.854 77.8291 204.258 75.2347 201.074 75.2347Z" fill="#9BD6E8"/>
<path fill-rule="evenodd" clip-rule="evenodd" d="M191.557 88.6335C187.377 88.6335 183.967 85.2226 183.967 81.0314C183.967 76.8313 187.377 73.4203 191.557 73.4203C195.745 73.4203 199.147 76.8313 199.147 81.0314C199.147 85.2226 195.745 88.6335 191.557 88.6335ZM191.557 75.2347C188.373 75.2347 185.776 77.8291 185.776 81.0314C185.776 84.2247 188.373 86.8192 191.557 86.8192C194.741 86.8192 197.337 84.2247 197.337 81.0314C197.337 77.8291 194.741 75.2347 191.557 75.2347Z" fill="#9BD6E8"/>
<path fill-rule="evenodd" clip-rule="evenodd" d="M180.928 88.6335C176.74 88.6335 173.338 85.2226 173.338 81.0314C173.338 76.8313 176.74 73.4203 180.928 73.4203C185.108 73.4203 188.509 76.8313 188.509 81.0314C188.509 85.2226 185.108 88.6335 180.928 88.6335ZM180.928 75.2347C177.735 75.2347 175.148 77.8291 175.148 81.0314C175.148 84.2247 177.735 86.8192 180.928 86.8192C184.112 86.8192 186.7 84.2247 186.7 81.0314C186.7 77.8291 184.112 75.2347 180.928 75.2347Z" fill="#9BD6E8"/>
<path d="M248.015 146.638H142.554C141.351 146.638 140.555 145.658 140.781 144.451L152.242 83.2177C152.469 82.0112 153.627 81.0315 154.83 81.0315H260.291C261.503 81.0315 262.29 82.0112 262.064 83.2177L250.611 144.451C250.385 145.658 249.227 146.638 248.015 146.638Z" fill="#212D51"/>
<path d="M249.987 146.638H144.525C143.322 146.638 142.526 145.658 142.752 144.451L154.214 83.2177C154.44 82.0112 155.598 81.0315 156.81 81.0315H262.262C263.475 81.0315 264.271 82.0112 264.044 83.2177L252.583 144.451C252.357 145.658 251.199 146.638 249.987 146.638Z" fill="#5EC7E9"/>
<path d="M271.264 146.638H165.812C164.6 146.638 163.451 145.658 163.243 144.451L152.469 83.2177C152.26 82.0112 153.066 81.0315 154.269 81.0315H259.73C260.933 81.0315 262.091 82.0112 262.299 83.2177L273.064 144.451C273.281 145.658 272.476 146.638 271.264 146.638Z" fill="#212D51"/>
<path d="M273.471 146.638H168.01C166.798 146.638 165.649 145.658 165.441 144.451L154.667 83.2177C154.459 82.0112 155.264 81.0315 156.467 81.0315H261.928C263.131 81.0315 264.289 82.0112 264.497 83.2177L275.262 144.451C275.479 145.658 274.674 146.638 273.471 146.638Z" fill="#56C1E3"/>
<path d="M245.328 87.0097C245.699 88.0257 245.383 88.8512 244.623 88.8512C243.863 88.8512 242.958 88.0257 242.596 87.0097C242.234 85.9936 242.551 85.1681 243.302 85.1681C244.062 85.1681 244.966 85.9936 245.328 87.0097Z" fill="#212D51"/>
<path d="M235.676 87.0097C236.038 88.0257 235.721 88.8512 234.961 88.8512C234.21 88.8512 233.306 88.0257 232.935 87.0097C232.573 85.9936 232.89 85.1681 233.65 85.1681C234.4 85.1681 235.314 85.9936 235.676 87.0097Z" fill="#212D51"/>
<path d="M224.956 87.0097C225.318 88.0257 225.001 88.8512 224.241 88.8512C223.49 88.8512 222.577 88.0257 222.215 87.0097C221.853 85.9936 222.17 85.1681 222.93 85.1681C223.68 85.1681 224.585 85.9936 224.956 87.0097Z" fill="#212D51"/>
<path d="M215.294 87.0097C215.656 88.0257 215.34 88.8512 214.589 88.8512C213.829 88.8512 212.924 88.0257 212.553 87.0097C212.192 85.9936 212.508 85.1681 213.268 85.1681C214.019 85.1681 214.933 85.9936 215.294 87.0097Z" fill="#212D51"/>
<path d="M205.959 87.182C206.321 88.1981 206.004 89.0236 205.254 89.0236C204.494 89.0236 203.589 88.1981 203.227 87.182C202.856 86.166 203.182 85.3405 203.933 85.3405C204.693 85.3405 205.597 86.166 205.959 87.182Z" fill="#212D51"/>
<path d="M196.804 87.182C197.166 88.1981 196.849 89.0236 196.099 89.0236C195.339 89.0236 194.434 88.1981 194.072 87.182C193.701 86.166 194.027 85.3405 194.778 85.3405C195.538 85.3405 196.442 86.166 196.804 87.182Z" fill="#212D51"/>
<path d="M186.609 87.182C186.971 88.1981 186.654 89.0236 185.894 89.0236C185.143 89.0236 184.23 88.1981 183.868 87.182C183.506 86.166 183.823 85.3405 184.573 85.3405C185.333 85.3405 186.238 86.166 186.609 87.182Z" fill="#212D51"/>
<path d="M243.51 87.8261C243.193 87.8261 242.886 87.6538 242.723 87.3544C242.479 86.9099 242.641 86.3565 243.085 86.1206C244.939 85.1046 246.097 83.1542 246.097 81.0224C246.097 77.8291 243.51 75.2347 240.326 75.2347C239.819 75.2347 239.421 74.8264 239.421 74.3275C239.421 73.8195 239.819 73.4203 240.326 73.4203C244.505 73.4203 247.906 76.8313 247.906 81.0224C247.906 83.8164 246.396 86.3747 243.944 87.7173C243.808 87.7898 243.664 87.8261 243.51 87.8261Z" fill="#9BD6E8"/>
<path d="M233.957 87.8443C233.632 87.8443 233.324 87.6719 233.161 87.3635C232.926 86.928 233.089 86.3747 233.532 86.1388C235.414 85.1228 236.581 83.1724 236.581 81.0224C236.581 77.929 234.165 75.3798 231.081 75.2347C230.583 75.2165 230.194 74.7902 230.221 74.2912C230.248 73.7923 230.674 73.4022 231.171 73.4294C235.215 73.6199 238.39 76.9583 238.39 81.0224C238.39 83.8346 236.861 86.411 234.383 87.7354C234.247 87.808 234.102 87.8443 233.957 87.8443Z" fill="#9BD6E8"/>
<path d="M223.328 87.9985C222.984 87.9985 222.658 87.808 222.504 87.4814C222.296 87.0278 222.486 86.4835 222.939 86.2749C224.956 85.3224 226.259 83.2631 226.259 81.0315C226.259 77.9199 223.843 75.3798 220.749 75.2347C220.252 75.2165 219.872 74.7902 219.89 74.2912C219.917 73.7923 220.333 73.4022 220.84 73.4294C224.893 73.6108 228.068 76.9492 228.068 81.0315C228.068 83.9616 226.358 86.665 223.708 87.9169C223.59 87.9713 223.454 87.9985 223.328 87.9985Z" fill="#9BD6E8"/>
<path d="M213.621 88.0892C213.268 88.0892 212.934 87.8806 212.789 87.5449C212.59 87.0823 212.798 86.547 213.259 86.3475C215.376 85.4312 216.742 83.3447 216.742 81.0315C216.742 77.9199 214.327 75.3798 211.233 75.2347C210.735 75.2165 210.346 74.7902 210.373 74.2912C210.401 73.7923 210.817 73.4022 211.314 73.4294C215.376 73.6108 218.551 76.9492 218.551 81.0315C218.551 84.0614 216.76 86.8101 213.974 88.0167C213.856 88.062 213.739 88.0892 213.621 88.0892Z" fill="#9BD6E8"/>
<path d="M204.096 87.9168C203.761 87.9168 203.444 87.7354 203.281 87.4179C203.064 86.9734 203.236 86.4291 203.689 86.2023C205.643 85.2044 206.855 83.2268 206.855 81.0224C206.855 77.938 204.448 75.3979 201.382 75.2437C200.875 75.2165 200.495 74.7901 200.522 74.2912C200.55 73.7832 200.975 73.4022 201.472 73.4294C205.507 73.638 208.664 76.9764 208.664 81.0224C208.664 83.9071 207.072 86.5107 204.503 87.817C204.367 87.8805 204.231 87.9168 204.096 87.9168Z" fill="#9BD6E8"/>
<path d="M194.895 87.7445C194.579 87.7445 194.271 87.5812 194.108 87.2909C193.855 86.8555 194.009 86.3021 194.443 86.0481C196.225 85.023 197.338 83.0907 197.338 81.0315C197.338 78.0197 195.085 75.534 192.109 75.2619C191.611 75.2075 191.241 74.772 191.295 74.2731C191.34 73.7741 191.774 73.4022 192.272 73.4476C194.144 73.629 195.881 74.4908 197.157 75.8878C198.441 77.2939 199.147 79.1174 199.147 81.0315C199.147 83.7439 197.691 86.2658 195.338 87.6266C195.203 87.7082 195.04 87.7445 194.895 87.7445Z" fill="#9BD6E8"/>
<path d="M184.592 87.5449C184.293 87.5449 184.004 87.3998 183.832 87.1276C183.561 86.7103 183.669 86.1479 184.094 85.8757C185.723 84.7962 186.7 82.9819 186.7 81.0315C186.7 78.1194 184.538 75.652 181.67 75.28C181.181 75.2165 180.829 74.7629 180.892 74.264C180.955 73.765 181.408 73.4203 181.905 73.4838C185.668 73.9646 188.509 77.2123 188.509 81.0315C188.509 83.5987 187.233 85.9755 185.08 87.3907C184.927 87.4905 184.755 87.5449 184.592 87.5449Z" fill="#9BD6E8"/>
<path d="M270.024 144.633H170.733C169.683 144.633 168.688 143.771 168.498 142.719L159.841 93.4868C159.66 92.4345 160.357 91.5818 161.406 91.5818H260.698C261.747 91.5818 262.751 92.4345 262.941 93.4868L271.598 142.719C271.779 143.771 271.083 144.633 270.024 144.633Z" fill="white"/>
<path fill-rule="evenodd" clip-rule="evenodd" d="M267.79 141.422H171.846L171.837 141.349L163.65 94.7841H259.594L259.604 94.8657L267.79 141.422ZM172 141.24H267.573L259.441 94.9655H163.867L172 141.24Z" fill="#9EC8FF"/>
<path d="M266.053 132.132H170.29V131.951H266.053V132.132Z" fill="#9EC8FF"/>
<path d="M264.416 122.843H168.652V122.661H264.416V122.843Z" fill="#9EC8FF"/>
<path d="M262.779 113.553H167.024V113.372H262.779V113.553Z" fill="#9EC8FF"/>
<path d="M261.15 104.255H165.386V104.073H261.15V104.255Z" fill="#9EC8FF"/>
<path d="M253.913 141.349L245.744 94.8929L245.925 94.8657L254.094 141.313L253.913 141.349Z" fill="#9EC8FF"/>
<path d="M240.235 141.349L232.066 94.8929L232.247 94.8657L240.407 141.313L240.235 141.349Z" fill="#9EC8FF"/>
<path d="M226.557 141.349L218.388 94.8929L218.56 94.8657L226.729 141.313L226.557 141.349Z" fill="#9EC8FF"/>
<path d="M212.87 141.349L204.701 94.8929L204.882 94.8657L213.051 141.313L212.87 141.349Z" fill="#9EC8FF"/>
<path d="M199.192 141.349L191.024 94.8929L191.205 94.8657L199.373 141.313L199.192 141.349Z" fill="#9EC8FF"/>
<path d="M185.514 141.349L177.346 94.8929L177.527 94.8657L185.695 141.313L185.514 141.349Z" fill="#9EC8FF"/>
<path d="M256.961 100.744H253.741C252.52 100.744 251.335 99.7372 251.118 98.5035C250.9 97.2697 251.724 96.2628 252.954 96.2628H256.174C257.405 96.2628 258.59 97.2697 258.807 98.5035C259.015 99.7372 258.192 100.744 256.961 100.744Z" fill="#F39892"/>
<path d="M261.431 119.495H255.876C255.288 119.495 254.727 119.015 254.619 118.425L254.212 116.084C254.103 115.495 254.501 115.014 255.08 115.014H260.644C261.223 115.014 261.792 115.495 261.892 116.084L262.308 118.425C262.408 119.015 262.01 119.495 261.431 119.495Z" fill="#F39892"/>
<path d="M190.915 112.093H183.361C182.529 112.093 181.724 111.412 181.579 110.569L180.946 107.004C180.801 106.169 181.362 105.48 182.203 105.48H189.757C190.589 105.48 191.394 106.169 191.539 107.004L192.172 110.569C192.317 111.412 191.756 112.093 190.915 112.093Z" fill="#9EC8FF"/>
<path d="M189.694 111.168H184.266C183.66 111.168 183.081 110.669 182.982 110.07L182.529 107.512C182.421 106.904 182.828 106.414 183.425 106.414H188.853C189.459 106.414 190.029 106.904 190.137 107.512L190.589 110.07C190.698 110.669 190.291 111.168 189.694 111.168Z" fill="white"/>
<path d="M250.647 139.907H243.094C242.252 139.907 241.447 139.217 241.303 138.383L240.678 134.817C240.525 133.974 241.095 133.293 241.927 133.293H249.48C250.322 133.293 251.127 133.974 251.272 134.817L251.896 138.383C252.041 139.217 251.48 139.907 250.647 139.907Z" fill="#9EC8FF"/>
<path d="M249.417 138.972H243.99C243.393 138.972 242.814 138.482 242.705 137.884L242.253 135.316C242.153 134.718 242.551 134.219 243.157 134.219H248.585C249.182 134.219 249.761 134.718 249.87 135.316L250.313 137.884C250.422 138.482 250.014 138.972 249.417 138.972Z" fill="white"/>
<path d="M218.406 107.412H212.49C212.092 107.412 211.703 107.085 211.631 106.677C211.567 106.278 211.83 105.951 212.237 105.951H218.153C218.551 105.951 218.94 106.278 219.003 106.677C219.076 107.085 218.804 107.412 218.406 107.412Z" fill="#9EC8FF"/>
<path d="M218.814 109.698H212.888C212.49 109.698 212.11 109.371 212.038 108.972C211.966 108.573 212.237 108.246 212.635 108.246H218.551C218.958 108.246 219.338 108.573 219.411 108.972C219.483 109.371 219.212 109.698 218.814 109.698Z" fill="#9EC8FF"/>
<path d="M210.183 135.062H204.267C203.869 135.062 203.48 134.736 203.407 134.337C203.335 133.928 203.606 133.602 204.005 133.602H209.93C210.328 133.602 210.717 133.928 210.78 134.337C210.853 134.736 210.581 135.062 210.183 135.062Z" fill="#9EC8FF"/>
<path d="M210.591 137.357H204.666C204.267 137.357 203.888 137.022 203.815 136.623C203.743 136.223 204.014 135.897 204.412 135.897H210.328C210.736 135.897 211.115 136.223 211.188 136.623C211.26 137.022 210.989 137.357 210.591 137.357Z" fill="#9EC8FF"/>
<path d="M176.441 117.717H170.525C170.127 117.717 169.738 117.391 169.666 116.992C169.602 116.592 169.865 116.266 170.272 116.266H176.188C176.586 116.266 176.975 116.592 177.047 116.992C177.111 117.391 176.848 117.717 176.441 117.717Z" fill="#9EC8FF"/>
<path d="M176.848 120.012H170.932C170.525 120.012 170.145 119.686 170.072 119.287C170 118.878 170.272 118.552 170.67 118.552H176.595C176.993 118.552 177.373 118.878 177.445 119.287C177.518 119.686 177.246 120.012 176.848 120.012Z" fill="#9EC8FF"/>
<path d="M195.158 130.998H186.392C185.632 130.998 184.899 130.372 184.763 129.619L184.076 125.664C183.94 124.902 184.447 124.285 185.207 124.285H193.982C194.741 124.285 195.465 124.902 195.601 125.664L196.297 129.619C196.433 130.372 195.917 130.998 195.158 130.998Z" fill="#9CD499"/>
<path d="M189.838 129.383C189.793 129.383 189.748 129.365 189.712 129.329L187.749 127.46C187.676 127.397 187.667 127.279 187.74 127.206C187.812 127.134 187.921 127.134 187.993 127.197L189.82 128.939L192.597 125.646C192.661 125.564 192.778 125.555 192.86 125.619C192.932 125.691 192.941 125.8 192.878 125.882L189.974 129.32C189.947 129.356 189.902 129.383 189.847 129.383C189.847 129.383 189.844 129.383 189.838 129.383Z" fill="white"/>
<path d="M231.162 102.722H222.396C221.636 102.722 220.904 102.096 220.768 101.334L220.071 97.3876C219.945 96.6256 220.451 96.0088 221.211 96.0088H229.977C230.737 96.0088 231.47 96.6256 231.605 97.3876L232.302 101.334C232.429 102.096 231.922 102.722 231.162 102.722Z" fill="#9CD499"/>
<path d="M225.842 101.107C225.797 101.107 225.752 101.089 225.716 101.053L223.743 99.1839C223.671 99.1204 223.671 99.0024 223.743 98.9298C223.807 98.8573 223.924 98.8573 223.997 98.9208L225.824 100.663L228.601 97.3695C228.665 97.2879 228.782 97.2788 228.855 97.3423C228.936 97.4058 228.945 97.5237 228.882 97.6054L225.978 101.044C225.942 101.08 225.896 101.098 225.851 101.107C225.845 101.107 225.842 101.107 225.842 101.107Z" fill="white"/>
<path d="M233.921 127.406C234.228 129.129 233.079 130.536 231.352 130.536C229.633 130.536 227.995 129.129 227.688 127.406C227.389 125.682 228.538 124.285 230.257 124.285C231.976 124.285 233.613 125.682 233.921 127.406Z" fill="#9EC8FF"/>
<path d="M195.248 136.94C195.547 138.664 194.398 140.061 192.679 140.061C190.96 140.061 189.323 138.664 189.015 136.94C188.708 135.207 189.856 133.81 191.584 133.81C193.303 133.81 194.94 135.207 195.248 136.94Z" fill="#9EC8FF"/>
<path d="M33.9178 55.4254H48.1747C48.1747 63.2633 41.7337 69.7223 33.9178 69.7223C26.1018 69.7223 19.6609 63.2633 19.6609 55.4254C19.6609 47.5875 26.1018 41.1284 33.9178 41.1284V55.4254Z" fill="#9EC8FF"/>
<path d="M50.5626 53.4205C50.5626 45.5282 44.1759 39.1327 36.3057 39.1327V53.4205H50.5626Z" fill="#F39892"/>
<path d="M37.0473 143.445H29.1318V124.784H37.0473V143.445Z" fill="#5D9EF5"/>
<path d="M64.2946 143.445H56.3792V105.289H64.2946V143.445Z" fill="#5D9EF5"/>
<path d="M77.9179 143.445H70.0024V123.822H77.9179V143.445Z" fill="#5D9EF5"/>
<path d="M91.5417 143.444H83.6262V118.271H91.5417V143.444Z" fill="#5D9EF5"/>
<path d="M50.6711 143.444H42.7556V112.465H50.6711V143.444Z" fill="#5D9EF5"/>
<path d="M105.22 143.445H97.3047V95.8546H105.22V143.445Z" fill="#5D9EF5"/>
<path d="M25.803 118.797C25.3778 118.797 24.9526 118.588 24.6903 118.207C24.2651 117.59 24.4189 116.747 25.0341 116.32L59.5636 92.2622C60.1245 91.8721 60.8934 91.9628 61.3548 92.4799L74.0467 106.831L101.231 80.7593C101.773 80.2422 102.624 80.2604 103.148 80.8047C103.664 81.3399 103.646 82.2017 103.103 82.7278L74.897 109.77C74.6347 110.024 74.2728 110.161 73.911 110.151C73.5401 110.133 73.1963 109.97 72.943 109.689L60.1245 95.1923L26.581 118.552C26.3458 118.715 26.0744 118.797 25.803 118.797Z" fill="#F37168"/>
<path d="M101.701 88.9782C101.61 88.9782 101.52 88.9692 101.429 88.951C100.696 88.7968 100.217 88.0801 100.371 87.3453L101.348 82.5646L96.1462 83.0907C95.4044 83.1724 94.735 82.6281 94.6626 81.8751C94.5812 81.1312 95.124 80.4599 95.8748 80.3874L102.904 79.6707C103.338 79.6253 103.763 79.7977 104.053 80.1152C104.342 80.4327 104.46 80.8772 104.378 81.3036L103.03 87.8896C102.895 88.5337 102.334 88.9782 101.701 88.9782Z" fill="#F37168"/>
<path d="M247.355 68.313C249.788 63.4415 256.147 61.228 257.957 66.6619C259.757 72.0959 260.39 72.4406 262.932 74.7085C271.752 82.6008 258.337 87.3272 253.615 89.4046C248.892 91.4729 247.002 82.6916 246.649 75.7155C246.368 70.2543 246.649 69.7463 247.355 68.313Z" fill="#303C60"/>
<path d="M254.528 141.92C255.008 143.853 254.067 145.395 252.809 146.52C251.787 147.427 248.648 147.817 248.793 148.271C248.947 148.724 252.656 148.869 253.913 148.679C255.161 148.488 255.505 147.881 257.061 147.881C258.074 147.881 258.264 147.055 257.812 146.021C257.36 144.996 257.197 144.424 257.613 143.508C258.02 142.583 254.528 141.92 254.528 141.92Z" fill="#44A7BD"/>
<path d="M273.082 141.92C273.01 143.934 272.775 145.431 273.263 146.366C275.172 147.962 276.746 149.767 276.149 149.894C273.263 150.493 272.168 148.76 270.54 148.271C268.541 147.663 270.73 145.15 269.943 141.92C269.509 140.124 272.964 140.551 272.964 140.551L273.082 141.92Z" fill="#44A7BD"/>
<path d="M259.495 95.9725C258.237 106.604 255.939 114.47 255.686 119.513C255.424 124.557 254.402 144.406 254.402 144.406C254.402 144.406 257.215 144.207 257.468 143.78C257.731 143.354 262.76 132.159 262.498 125.238C262.245 118.316 267.519 107.793 267.519 107.793L266.252 97.4602L259.495 95.9725Z" fill="#F37168"/>
<path d="M260.707 100.599L258.735 101.434C258.201 104.799 257.604 107.838 257.079 110.523C260.218 112.565 261.847 119.35 262.543 123.505C262.896 118.86 265.085 113.245 266.433 110.142L260.707 100.599Z" fill="#D54A41"/>
<path d="M269.825 94.902C269.825 94.902 274.086 100.345 273.95 106.523C273.751 115.921 272.729 118.606 274.502 128.467C275.199 132.323 272.973 144.923 272.973 144.923C272.973 144.923 271.065 145.068 270.042 144.56C270.133 143.635 268.812 128.576 266.252 121.654C265.013 118.298 263.267 108.918 262.326 103.529C261.394 98.1497 261.222 97.0339 261.566 97.0339C261.901 97.0339 269.825 94.902 269.825 94.902Z" fill="#F37168"/>
<path d="M231.913 107.312L226.033 107.992C225.635 108.038 225.219 107.757 225.101 107.366C224.983 106.976 225.218 106.623 225.617 106.577L231.497 105.897C231.895 105.852 232.311 106.133 232.428 106.523C232.546 106.913 232.311 107.267 231.913 107.312Z" fill="#85BAFF"/>
<path d="M232.582 109.544L226.702 110.224C226.304 110.269 225.879 109.988 225.761 109.598C225.652 109.208 225.879 108.854 226.277 108.809L232.157 108.129C232.555 108.083 232.971 108.364 233.088 108.754C233.206 109.145 232.98 109.498 232.582 109.544Z" fill="#85BAFF"/>
<path d="M236.39 104.001C234.626 104.554 233.568 104.672 232.32 104.591C231.071 104.5 230.248 105.235 229.515 105.534C228.783 105.824 228.484 106.287 229.723 106.124C230.954 105.951 231.551 105.951 231.551 105.951C231.551 105.951 232.437 106.151 232.853 106.441C233.052 106.586 233.197 106.722 233.505 107.013C233.867 107.366 233.848 108.047 233.541 108.446C233.197 108.891 232.98 109.371 232.636 109.544C231.985 109.861 232.6 110.251 233.242 109.861C233.867 109.498 234.219 108.972 234.69 108.446C235.359 107.702 235.983 106.487 236.599 105.951C237.214 105.416 236.39 104.001 236.39 104.001Z" fill="#F09959"/>
<path d="M254.003 82.9274C251.145 88.824 248.44 95.1288 244.857 98.0771C241.266 101.025 235.54 104.164 235.54 104.164C235.54 104.164 236.336 106.387 236.689 106.441C237.041 106.505 245.563 103.484 248.024 101.842C250.493 100.2 255.713 94.648 255.713 94.648L254.003 82.9274Z" fill="#A2DFF2"/>
<path d="M253.732 96.7345C256.075 94.6117 258.391 91.1191 258.319 90.7563C258.219 90.2573 254.755 81.1403 254.755 81.1403C254.004 82.9093 253.352 84.4787 252.792 85.8394C253.144 89.9671 254.682 94.0493 253.732 96.7345Z" fill="#96CFE0"/>
<path d="M259.033 75.0714C259.033 75.0714 265.393 75.8334 268.297 80.1969C271.191 84.5694 269.844 91.7451 270.558 95.0563C271.264 98.3765 261.639 102.495 260.417 99.1113C259.25 95.8636 254.311 89.8763 253.814 88.0711C252.665 83.8437 256.844 76.6317 256.844 76.6317L259.033 75.0714Z" fill="#A2DFF2"/>
<path d="M255.234 69.4288L260.119 75.7427C260.119 75.7427 258.337 78.5458 255.768 84.6783C254.827 81.5576 256.184 77.303 256.184 77.303L252.004 71.1796L255.234 69.4288Z" fill="#F09959"/>
<path d="M257.514 72.3771L255.234 69.4288L252.004 71.1796L256.184 77.303C256.184 77.303 256.111 77.6296 256.012 78.1557C257.224 76.3323 257.685 74.4364 257.514 72.3771Z" fill="#E38540"/>
<path d="M254.538 71.5062C254.737 74.01 252.774 76.1327 250.883 76.287C249.001 76.4321 247.907 74.5452 247.708 72.0414C247.509 69.5467 248.884 67.3967 250.765 67.2425C252.656 67.0974 254.339 69.0024 254.538 71.5062Z" fill="#F09959"/>
<path d="M259.06 93.1421C259.856 98.195 256.898 109.018 256.898 109.018C256.898 109.018 258.662 109.426 263.945 108.909C269.228 108.401 271.562 103.112 272.358 102.958C273.154 102.813 273.561 107.884 273.95 108.283C274.348 108.682 274.403 101.878 273.38 99.2111C271.562 94.4666 271.915 92.4527 272.593 89.586C273.806 84.4787 259.06 93.1421 259.06 93.1421Z" fill="#A2DFF2"/>
<path d="M273.806 100.862C273.697 100.227 273.552 99.6556 273.381 99.2111C271.562 94.4666 271.915 92.4527 272.594 89.586C272.648 89.3592 268.378 82.4738 268.378 82.4738L262.824 76.4865C257.486 85.1681 263.927 89.2685 263.43 92.6341C262.932 95.9997 260.345 98.5488 260.345 98.5488L260.535 99.7463C260.779 101.379 262.29 102.522 263.927 102.286C266.234 101.969 269.256 101.325 270.594 100.073C271.897 98.8663 273.046 99.8007 273.806 100.862Z" fill="#96CFE0"/>
<path d="M260.707 99.3744C260.707 99.3744 258.391 100.463 258.128 100.672C257.857 100.871 257.83 101.706 257.83 101.706C257.83 101.706 256.645 103.148 257.251 103.493C257.857 103.829 258.988 104.754 260.164 104.037C260.888 103.593 261.005 100.644 261.512 100.536C262.009 100.427 260.707 99.3744 260.707 99.3744Z" fill="#F09959"/>
<path d="M263.873 76.0602C266.496 75.6973 269.644 79.9973 271.146 83.9435C272.657 87.8806 274.493 93.5322 274.493 93.5322C274.493 93.5322 270.757 97.6779 266.659 99.3925C263.086 100.889 261.249 101.552 261.249 101.552L260.137 99.5558L268.152 92.8065C268.152 92.8065 263.846 87.182 262.733 82.5736C261.629 77.9652 261.892 76.3414 263.873 76.0602Z" fill="#A2DFF2"/>
<path d="M247.246 69.329C248.992 73.7469 254.067 71.5153 255.388 70.7261C256.718 69.9368 257.052 80.7775 259.965 80.3511C262.109 80.0427 260.988 77.3847 263.077 76.2961C264.624 75.4887 265.845 76.6045 265.845 76.6045C265.845 76.6045 265.357 75.7246 264.371 75.3163C263.376 74.9081 259.45 72.2592 257.867 69.4832C256.284 66.6982 252.095 66.0451 251.046 66.3626C249.987 66.6801 247.88 68.7757 247.88 68.7757L247.246 69.329Z" fill="#303C60"/>
<path d="M259.857 81.5304C257.921 81.5304 257.08 77.7112 256.103 73.3115C255.913 72.4406 255.704 71.5334 255.496 70.6625C255.469 70.5446 255.542 70.4267 255.659 70.3995C255.777 70.3632 255.894 70.4358 255.931 70.5537C256.139 71.4336 256.338 72.3408 256.537 73.2208C257.414 77.1941 258.328 81.3036 260.011 81.0768C261.033 80.9407 261.232 78.7091 261.078 76.6771C261.069 76.5501 261.159 76.4503 261.277 76.4412C261.395 76.4321 261.503 76.5228 261.512 76.6408C261.621 78.0287 261.693 81.2945 260.074 81.5123C260.001 81.5243 259.929 81.5304 259.857 81.5304Z" fill="#303C60"/>
<path d="M259.938 82.6916C259.751 82.6916 259.564 82.6462 259.377 82.5555C256.889 81.2945 255.243 71.1887 255.17 70.7623C255.152 70.6444 255.234 70.5265 255.36 70.5083C255.478 70.4902 255.587 70.5718 255.614 70.6898C256.066 73.5564 257.676 81.2038 259.576 82.1563C259.82 82.2833 260.055 82.2833 260.3 82.1563C261.141 81.7209 261.213 80.2966 261.286 79.0448C261.358 77.7838 261.421 76.5863 262.245 76.3233C262.362 76.287 262.489 76.3505 262.525 76.4593C262.561 76.5773 262.498 76.7043 262.38 76.7406C261.847 76.9129 261.792 77.9652 261.729 79.072C261.648 80.4418 261.566 82.0021 260.508 82.5464C260.321 82.6432 260.131 82.6916 259.938 82.6916Z" fill="#303C60"/>
<path d="M255.894 71.5153C255.695 72.1231 255.189 72.495 254.745 72.3499C254.311 72.2138 254.112 71.606 254.311 70.9982C254.501 70.3904 255.017 70.0184 255.46 70.1545C255.894 70.2997 256.093 70.9075 255.894 71.5153Z" fill="#F09959"/>
<path d="M111.779 139.571C111.779 139.571 94.9616 127.859 87.8512 134.609C82.1702 140.006 92.2477 146.338 105.148 144.633C114.23 143.435 115.252 145.177 116.844 145.141C128.677 144.234 144.625 140.678 136.864 135.108C126.298 127.506 119.142 135.561 115.46 137.566C111.779 139.571 111.779 139.571 111.779 139.571Z" fill="#5763CB"/>
<path d="M133.517 134.826C129.102 133.91 112.267 140.17 112.267 140.17C112.267 140.17 97.603 135.734 94.0931 135.316C90.5831 134.89 88.9729 136.233 88.9729 136.233C88.9729 136.233 90.6284 134.355 92.5462 134.191C94.473 134.019 97.2502 133.556 97.2502 133.556C97.2502 133.556 125.312 132.223 129.03 133.067C132.748 133.91 133.517 134.826 133.517 134.826Z" fill="#1B243D"/>
<path d="M109.671 112.029C109.01 112.138 98.6432 116.665 98.5166 118.57C98.3899 120.466 101.357 135.879 107.092 137.884C112.828 139.888 119.251 137.884 119.251 137.884C119.251 137.884 125.981 121.21 123.982 118.044C121.983 114.878 112.936 112.029 112.936 112.029H109.671Z" fill="#FFD24F"/>
<path d="M102.054 115.622C92.1479 120.938 89.7235 130.545 92.3379 132.667C94.1743 134.146 101.095 137.43 107.092 137.221C113.09 137.013 118.726 137.575 118.726 137.575C118.726 137.575 129.011 135.48 131.065 132.386C133.118 129.293 127.419 119.25 122.317 116.347C117.215 113.435 102.054 115.622 102.054 115.622Z" fill="#FFD24F"/>
<path d="M111.498 118.044C110.132 118.044 109.01 116.919 109.01 115.549V107.14C109.01 105.77 110.132 104.645 111.498 104.645C112.864 104.645 113.986 105.77 113.986 107.14V115.549C113.986 116.919 112.864 118.044 111.498 118.044Z" fill="#F09959"/>
<path d="M111.498 104.645C110.132 104.645 109.01 105.77 109.01 107.14V114.016C110.476 115.241 111.896 114.597 113.986 112.973V107.14C113.986 105.77 112.864 104.645 111.498 104.645Z" fill="#E38540"/>
<path d="M116.962 107.475C116.555 108.319 115.894 108.782 115.478 108.519C115.071 108.256 115.071 107.357 115.478 106.523C115.885 105.679 116.555 105.216 116.962 105.48C117.369 105.752 117.369 106.641 116.962 107.475Z" fill="#F09959"/>
<path d="M107.327 106.586C107.798 107.348 107.888 108.265 107.526 108.646C107.174 109.018 106.495 108.7 106.016 107.938C105.545 107.176 105.455 106.251 105.817 105.879C106.179 105.507 106.857 105.824 107.327 106.586Z" fill="#F09959"/>
<path d="M115.894 107.43C115.894 110.478 113.976 112.955 111.606 112.955C109.245 112.955 107.327 110.478 107.327 107.43C107.327 104.373 109.245 101.896 111.606 101.896C113.976 101.896 115.894 104.373 115.894 107.43Z" fill="#F09959"/>
<path d="M120.951 121.119C123.756 122.616 126.198 128.304 126.198 128.304C126.198 128.304 119.884 129.284 118.581 130.272C117.27 131.261 118.762 129.901 119.513 127.179C120.264 124.458 120.951 121.119 120.951 121.119Z" fill="#EDC055"/>
<path d="M101.411 120.702C102.063 123.705 105.202 132.087 105.202 132.087C105.202 132.087 102.298 128.776 99.2131 128.585C96.1283 128.395 94.9885 128.349 95.0066 129.102C95.0066 129.247 95.5222 125.773 97.9014 123.614C100.29 121.455 101.411 120.702 101.411 120.702Z" fill="#EDC055"/>
<path d="M120.218 139.598H103.275C102.596 139.598 102.008 139.108 101.9 138.437L99.8552 126.208C99.7104 125.347 100.371 124.575 101.23 124.575H122.263C123.131 124.575 123.783 125.347 123.647 126.208L121.602 138.437C121.485 139.108 120.906 139.598 120.218 139.598Z" fill="#2A66C6"/>
<path d="M120.218 139.598H103.275C102.596 139.598 102.008 139.126 101.9 138.473L99.8552 126.689C99.7104 125.864 100.371 125.111 101.23 125.111H122.263C123.131 125.111 123.783 125.864 123.647 126.689L121.602 138.473C121.485 139.126 120.906 139.598 120.218 139.598Z" fill="#63ACC2"/>
<path d="M113.985 144.424C113.886 144.406 103.049 141.685 100.624 143.689C98.1997 145.694 108.73 145.721 110.62 145.286C112.511 144.851 113.985 144.424 113.985 144.424Z" fill="#1B243D"/>
<path d="M116.41 144.905C116.41 144.905 118.726 143.154 121.775 143.472C124.823 143.789 127.456 144.461 124.823 145.286C122.2 146.112 119.459 146.22 118.201 146.112C116.935 146.012 116.41 144.905 116.41 144.905Z" fill="#1B243D"/>
<path d="M110.241 99.6284C107.463 100.472 108.431 108.328 111.606 108.074C114.791 107.811 114.917 104.418 114.691 102.214C114.465 100.018 113.117 98.7575 110.241 99.6284Z" fill="#0F2D5C"/>
<path d="M109.246 105.452C108.468 104.708 107.4 107.049 107.825 108.074C108.241 109.108 107.653 109.707 108.223 110.814C108.793 111.92 107.174 110.106 106.957 108.782C106.731 107.457 106.595 105.162 106.278 104.128C105.953 103.094 106.287 101.298 107.726 100.926C109.164 100.554 109.499 99.8914 110.051 99.8552C110.593 99.8279 113.208 100.082 114.501 100.79C115.786 101.506 116.501 102.577 116.401 104.191C116.311 105.806 115.885 109.952 115.496 110.623C115.117 111.304 114.908 111.149 115.026 110.759C115.144 110.369 115.569 108.038 115.243 107.194C114.918 106.36 115.08 104.291 114.239 104.128C113.407 103.965 113.597 105.398 112.593 105.507C111.598 105.616 109.246 105.452 109.246 105.452Z" fill="#0F2D5C"/>
<defs>
<radialGradient id="paint0_radial_365_1918" cx="0" cy="0" r="1" gradientUnits="userSpaceOnUse" gradientTransform="translate(147.513 74.6521) rotate(90) scale(74.6521 141.193)">
<stop stop-color="#4D7DA9"/>
<stop offset="1" stop-color="#E7F3FE" stop-opacity="0"/>
</radialGradient>
<radialGradient id="paint1_radial_365_1918" cx="0" cy="0" r="1" gradientUnits="userSpaceOnUse" gradientTransform="translate(150.843 144.524) rotate(90) scale(14.6747 136.52)">
<stop stop-color="#92ABB3"/>
<stop offset="1" stop-color="white" stop-opacity="0"/>
</radialGradient>
</defs>
</svg>
