<svg width="50" height="50" viewBox="0 0 69 66" fill="none" xmlns="http://www.w3.org/2000/svg">
<path d="M3 63H66.1543M14.0196 3H37.7041C40.2166 3 42.6261 3.99806 44.4027 5.77462C46.1792 7.55118 47.1773 9.96071 47.1773 12.4731V62.9966H4.54643V12.4731C4.54643 9.96071 5.54449 7.55118 7.32105 5.77462C9.09761 3.99806 11.5071 3 14.0196 3Z" stroke="#2DB2C4" stroke-width="5" stroke-linecap="round" stroke-linejoin="round"/>
<path d="M16.3888 15.6328H35.3351M16.3888 28.2637H35.3351M47.174 23.5254H53.4894C54.734 23.5245 55.9666 23.7689 57.1167 24.2445C58.2668 24.7202 59.3119 25.4178 60.1923 26.2976C61.0727 27.1774 61.7711 28.222 62.2476 29.3717C62.7241 30.5215 62.9694 31.7539 62.9694 32.9985V62.9985M22.7349 40.8945H29.0504C29.6726 40.8941 30.2889 41.0162 30.8639 41.2539C31.4389 41.4916 31.9615 41.8403 32.4019 42.2799C32.8422 42.7196 33.1916 43.2417 33.4301 43.8164C33.6686 44.3911 33.7916 45.0072 33.7921 45.6294V62.9985H18.0001V45.6294C18.0001 44.3736 18.4989 43.1693 19.3869 42.2813C20.2749 41.3934 21.4792 40.8945 22.7349 40.8945Z" stroke="#2DB2C4" stroke-width="5" stroke-linecap="round" stroke-linejoin="round"/>
</svg>
