<svg width="50" height="50" viewBox="0 0 80 80" fill="none" xmlns="http://www.w3.org/2000/svg">
<path d="M12.0293 54.0625V51.25H6.4043V54.0625C6.4043 59.284 8.47851 64.2915 12.1706 67.9837C15.8628 71.6758 20.8703 73.75 26.0918 73.75H34.5293V68.125H26.0918C22.3622 68.125 18.7853 66.6434 16.1481 64.0062C13.5109 61.369 12.0293 57.7921 12.0293 54.0625ZM62.6543 25.9375V28.75H68.2793V25.9375C68.2793 20.7161 66.2051 15.7085 62.513 12.0163C58.8208 8.32422 53.8132 6.25 48.5918 6.25H40.1543V11.875H48.5918C50.4385 11.875 52.2671 12.2387 53.9733 12.9454C55.6794 13.6522 57.2297 14.688 58.5355 15.9938C59.8413 17.2996 60.8771 18.8499 61.5839 20.556C62.2906 22.2622 62.6543 24.0908 62.6543 25.9375ZM26.0918 25.9375H9.2168C6.97903 25.9375 4.83292 26.8265 3.25058 28.4088C1.66825 29.9911 0.779297 32.1372 0.779297 34.375V40H6.4043V34.375C6.4043 33.6291 6.70061 32.9137 7.22806 32.3863C7.75551 31.8588 8.47088 31.5625 9.2168 31.5625H26.0918C26.8377 31.5625 27.5531 31.8588 28.0805 32.3863C28.608 32.9137 28.9043 33.6291 28.9043 34.375V40H34.5293V34.375C34.5293 32.1372 33.6404 29.9911 32.058 28.4088C30.4757 26.8265 28.3296 25.9375 26.0918 25.9375ZM17.6543 23.125C19.8793 23.125 22.0544 22.4652 23.9045 21.229C25.7545 19.9929 27.1965 18.2359 28.0479 16.1802C28.8994 14.1245 29.1222 11.8625 28.6881 9.68024C28.254 7.49795 27.1826 5.49339 25.6092 3.92005C24.0359 2.34671 22.0313 1.27525 19.8491 0.841171C17.6668 0.407087 15.4048 0.629874 13.3491 1.48136C11.2934 2.33285 9.53643 3.77479 8.30026 5.62484C7.0641 7.47489 6.4043 9.64997 6.4043 11.875C6.4043 14.8587 7.58956 17.7202 9.69934 19.83C11.8091 21.9397 14.6706 23.125 17.6543 23.125ZM17.6543 6.25C18.7668 6.25 19.8544 6.57991 20.7794 7.19799C21.7044 7.81607 22.4254 8.69458 22.8511 9.72241C23.2769 10.7502 23.3883 11.8812 23.1712 12.9724C22.9542 14.0635 22.4184 15.0658 21.6318 15.8525C20.8451 16.6392 19.8428 17.1749 18.7517 17.3919C17.6605 17.609 16.5295 17.4976 15.5017 17.0718C14.4739 16.6461 13.5954 15.9251 12.9773 15.0001C12.3592 14.0751 12.0293 12.9875 12.0293 11.875C12.0293 10.3832 12.6219 8.95242 13.6768 7.89753C14.7317 6.84264 16.1625 6.25 17.6543 6.25ZM71.0918 65.3125H54.2168C51.979 65.3125 49.8329 66.2015 48.2506 67.7838C46.6682 69.3661 45.7793 71.5122 45.7793 73.75V79.375H51.4043V73.75C51.4043 73.0041 51.7006 72.2887 52.2281 71.7613C52.7555 71.2338 53.4709 70.9375 54.2168 70.9375H71.0918C71.8377 70.9375 72.5531 71.2338 73.0805 71.7613C73.608 72.2887 73.9043 73.0041 73.9043 73.75V79.375H79.5293V73.75C79.5293 71.5122 78.6404 69.3661 77.058 67.7838C75.4757 66.2015 73.3296 65.3125 71.0918 65.3125ZM51.4043 51.25C51.4043 53.475 52.0641 55.6501 53.3003 57.5002C54.5364 59.3502 56.2934 60.7922 58.3491 61.6437C60.4048 62.4951 62.6668 62.7179 64.8491 62.2838C67.0313 61.8498 69.0359 60.7783 70.6092 59.205C72.1826 57.6316 73.2541 55.6271 73.6881 53.4448C74.1222 51.2625 73.8994 49.0005 73.0479 46.9448C72.1965 44.8891 70.7545 43.1321 68.9045 41.896C67.0544 40.6598 64.8793 40 62.6543 40C59.6706 40 56.8091 41.1853 54.6993 43.2951C52.5896 45.4048 51.4043 48.2663 51.4043 51.25ZM68.2793 51.25C68.2793 52.3625 67.9494 53.4501 67.3313 54.3751C66.7132 55.3001 65.8347 56.0211 64.8069 56.4468C63.7791 56.8726 62.6481 56.984 61.5569 56.7669C60.4658 56.5499 59.4635 56.0141 58.6768 55.2275C57.8902 54.4408 57.3544 53.4385 57.1374 52.3474C56.9203 51.2562 57.0317 50.1252 57.4575 49.0974C57.8832 48.0696 58.6042 47.1911 59.5292 46.573C60.4542 45.9549 61.5418 45.625 62.6543 45.625C64.1461 45.625 65.5769 46.2176 66.6318 47.2725C67.6867 48.3274 68.2793 49.7582 68.2793 51.25Z" fill="#2DB2C4"/>
</svg>
