<svg width="50" height="50" viewBox="0 0 81 66" fill="none" xmlns="http://www.w3.org/2000/svg">
<path d="M14.1713 24.3187C6.72375 21.3412 3 19.8525 3 18C3 16.1475 6.72375 14.6625 14.1713 11.6812L24.7013 7.47C32.1488 4.48875 35.8763 3 40.5 3C45.1275 3 48.8513 4.48875 56.2988 7.47L66.8288 11.6812C74.2763 14.6587 78 16.1475 78 18C78 19.8525 74.2763 21.3375 66.8288 24.3187L56.2988 28.5337C48.8513 31.5112 45.1238 33 40.5 33C35.8725 33 32.1488 31.5112 24.7013 28.5337L14.1713 24.3187Z" stroke="#2DB2C4" stroke-width="5"/>
<path d="M78 33C78 33 74.2763 36.3375 66.8288 39.3188L56.2988 43.5337C48.8513 46.5112 45.1238 48 40.5 48C35.8725 48 32.1488 46.5112 24.7013 43.5337L14.175 39.3188C6.72375 36.3413 3 33 3 33M78 48C78 48 74.2763 51.3375 66.8288 54.3187L56.2988 58.5337C48.8513 61.5112 45.1238 63 40.5 63C35.8725 63 32.1488 61.5112 24.7013 58.53L14.175 54.3187C6.72375 51.3412 3 48 3 48" stroke="#2DB2C4" stroke-width="5" stroke-linecap="round"/>
</svg>
