<svg width="50" height="50" viewBox="0 0 60 60" fill="none" xmlns="http://www.w3.org/2000/svg">
<g clip-path="url(#clip0_4440_2220)">
<path d="M19.3548 29.0312H3.87091V38.7087H19.3548V29.0312ZM17.4193 36.7732H5.80639V30.9667H17.4193V36.7732Z" fill="#2DB2C4"/>
<path d="M19.3549 40.6445H17.4194V42.58H19.3549V40.6445Z" fill="#2DB2C4"/>
<path d="M15.4839 40.6445H9.67743V42.58H15.4839V40.6445Z" fill="#2DB2C4"/>
<path d="M53.2258 39.7577V13.5484C53.2258 10.1216 50.6681 7.28129 47.3623 6.83516C46.9955 3.93387 44.8897 1.51548 41.9913 0.790645C39.8923 0.265161 37.7303 0 35.5684 0H34.7168C33.4713 0 32.2103 0.09 30.9706 0.265161C23.7968 1.29097 18.3871 7.52903 18.3871 14.7765V25.1613H3.87097C1.73613 25.1613 0 26.8974 0 29.0323V56.129C0 58.2639 1.73613 60 3.87097 60H22.2581H23.2258H60V50.9284C60 46.1061 57.3319 41.8723 53.2258 39.7577ZM20.3226 14.7765C20.3226 8.4871 25.0181 3.07161 31.2435 2.18226C32.3932 2.01871 33.5623 1.93548 34.7168 1.93548H35.5684C37.5726 1.93548 39.5768 2.18226 41.5229 2.66806C43.8542 3.25161 45.4839 5.33806 45.4839 7.74194V8.70968H46.4516C49.1197 8.70968 51.2903 10.8803 51.2903 13.5484V38.9594C50.9177 38.8403 50.5374 38.7339 50.1484 38.6468L42.5806 36.9658V34.5745C45.5052 32.4639 47.4194 29.0361 47.4194 25.1613V12.5806H45.4839V13.0645L44.6439 13.6945C43.1052 14.849 41.1987 15.4839 39.2768 15.4839H32.1697C29.9865 15.4839 27.9019 16.1235 26.129 17.3119V16.4516H24.1935V25.1613C24.1935 29.0361 26.1077 32.4639 29.0323 34.5745V36.9658L23.2258 38.2548V25.1613H20.3226V14.7765ZM27.9513 39.1887L29.3313 38.8819L29.8577 40.6384C30.8206 43.8465 31.9219 46.1729 33.0871 48.6348C33.6735 49.8735 34.2803 51.1548 34.9171 52.6403L35.3245 53.5916L25.3539 46.1139L27.9513 39.1887ZM23.2258 46.2765V40.2387L25.6955 39.69L23.2258 46.2765ZM30.4839 26.129C32.8848 26.129 34.8387 24.3929 34.8387 22.2581H36.7742C36.7742 24.3929 38.7281 26.129 41.129 26.129C43.53 26.129 45.4839 24.3929 45.4839 22.2581C45.4839 22.0626 45.451 21.8748 45.419 21.6861L45.4839 21.6648V22.2581V25.1613C45.4839 30.4974 41.1426 34.8387 35.8064 34.8387C30.4703 34.8387 26.129 30.4974 26.129 25.1613V22.2581V21.6648L26.1939 21.6861C26.1619 21.8748 26.129 22.0626 26.129 22.2581C26.129 24.3929 28.0829 26.129 30.4839 26.129ZM41.129 18.3871C39.5245 18.3871 38.1348 19.171 37.38 20.3226H34.2329C33.4771 19.171 32.0884 18.3871 30.4839 18.3871C29.0719 18.3871 27.8265 18.9968 27.031 19.9258L26.2558 19.6674C27.8913 18.2187 29.9661 17.4194 32.1697 17.4194H39.2768C41.4852 17.4194 43.6713 16.7226 45.4839 15.4635V19.6258L44.5819 19.9268C43.7864 18.9968 42.541 18.3871 41.129 18.3871ZM43.5484 22.2581C43.5484 23.3255 42.4635 24.1935 41.129 24.1935C39.7945 24.1935 38.7097 23.3255 38.7097 22.2581C38.7097 21.1906 39.7945 20.3226 41.129 20.3226C42.4635 20.3226 43.5484 21.1906 43.5484 22.2581ZM32.9032 22.2581C32.9032 23.3255 31.8184 24.1935 30.4839 24.1935C29.1494 24.1935 28.0645 23.3255 28.0645 22.2581C28.0645 21.1906 29.1494 20.3226 30.4839 20.3226C31.8184 20.3226 32.9032 21.1906 32.9032 22.2581ZM34.8358 47.8055C33.6532 45.3068 32.6323 43.1487 31.711 40.0819L30.9677 37.5997V35.7048C32.4426 36.3842 34.0781 36.7742 35.8064 36.7742C37.5348 36.7742 39.1703 36.3842 40.6452 35.7048V37.5997L39.9 40.0819C38.9797 43.1497 37.9577 45.3068 36.7752 47.8055C36.4587 48.4742 36.1365 49.1555 35.8055 49.8755C35.4745 49.1555 35.1523 48.4752 34.8358 47.8055ZM36.6958 52.6394C37.3316 51.1548 37.9384 49.8735 38.5258 48.6339C39.691 46.1719 40.7923 43.8465 41.7552 40.6374L42.2816 38.881L43.6616 39.1877L46.259 46.1119L36.2884 53.5897L36.6958 52.6394ZM1.93548 29.0323C1.93548 27.9648 2.80355 27.0968 3.87097 27.0968H21.2903V52.2581H3.87097C3.16645 52.2581 2.50548 52.4468 1.93548 52.7777V29.0323ZM18.9068 58.0645H3.87097C2.80355 58.0645 1.93548 57.1964 1.93548 56.129C1.93548 55.0616 2.80355 54.1935 3.87097 54.1935H18.9068C18.5758 54.7635 18.3871 55.4245 18.3871 56.129C18.3871 56.8335 18.5758 57.4945 18.9068 58.0645ZM58.0645 58.0645H50.3226V54.1935H48.3871V58.0645H23.2258H22.2581C21.1906 58.0645 20.3226 57.1964 20.3226 56.129C20.3226 55.0616 21.1906 54.1935 22.2581 54.1935H23.2258V46.9355L35.8064 56.371L48.5797 46.7913L45.9174 39.69L49.7294 40.5377C54.6368 41.6274 58.0645 45.901 58.0645 50.9284V58.0645Z" fill="#2DB2C4"/>
</g>
<defs>
<clipPath id="clip0_4440_2220">
<rect width="60" height="60" fill="white"/>
</clipPath>
</defs>
</svg>
