<svg width="257" height="255" viewBox="0 0 257 255" fill="none" xmlns="http://www.w3.org/2000/svg">
<path d="M35.2416 40.4284L35.8615 41.817C35.5536 41.9737 35.2742 42.1292 35.0234 42.2833C34.7726 42.4375 34.5276 42.6152 34.2884 42.8165C34.0393 43.0088 33.7646 43.2689 33.4642 43.5969C32.8999 44.2131 32.5643 44.9289 32.4574 45.7442C32.3405 46.5504 32.4539 47.3845 32.7975 48.2465C33.1503 49.0987 33.7345 49.8976 34.5501 50.6434C35.0971 51.1436 35.6781 51.5469 36.2929 51.8534C36.8977 52.1508 37.512 52.3382 38.1357 52.4154C38.7586 52.4736 39.3519 52.4044 39.9158 52.2077C40.4887 52.0011 41.0072 51.6444 41.4714 51.1375C41.9174 50.6505 42.2644 50.1917 42.5125 49.7611C42.7506 49.3214 42.9324 48.9033 43.058 48.5068L44.6373 48.9374C44.5565 49.2652 44.4152 49.629 44.2134 50.029C44.0117 50.4289 43.781 50.8205 43.5213 51.2039C43.2707 51.5774 43.0134 51.9083 42.7495 52.1965C42.0396 52.9718 41.2773 53.5348 40.4626 53.8856C39.6471 54.2174 38.8187 54.3638 37.9772 54.3248C37.1257 54.2767 36.2957 54.0656 35.487 53.6914C34.6784 53.3173 33.916 52.8028 33.1998 52.1479C32.4339 51.4476 31.8278 50.6926 31.3815 49.8827C30.9443 49.063 30.6781 48.2261 30.583 47.3721C30.4778 46.509 30.5595 45.6614 30.8279 44.8295C31.1054 43.9875 31.5855 43.1938 32.2681 42.4484C32.4501 42.2496 32.7021 42.0143 33.024 41.7426C33.3551 41.4609 33.711 41.202 34.0917 40.9658C34.4816 40.7196 34.8649 40.5405 35.2416 40.4284Z" fill="white"/>
<path d="M58.8119 37.5915C57.799 38.33 56.7163 38.7443 55.5636 38.8343C54.411 38.9243 53.292 38.7062 52.2068 38.1799C51.1245 37.6349 50.182 36.8128 49.3793 35.7136C48.5608 34.5926 48.0623 33.4301 47.8839 32.2259C47.6976 31.0108 47.8152 29.8577 48.2368 28.7665C48.6692 27.6673 49.3893 26.7336 50.3971 25.9653C51.4209 25.2188 52.5131 24.806 53.6737 24.7269C54.8263 24.6369 55.9493 24.8605 57.0424 25.3976C58.1277 25.9238 59.0717 26.7365 59.8743 27.8357C60.6929 28.9566 61.1899 30.1286 61.3653 31.3516C61.5436 32.5558 61.4166 33.7075 60.9842 34.8066C60.5547 35.887 59.8306 36.8153 58.8119 37.5915ZM57.8181 36.2648C58.5369 35.7406 59.0349 35.0856 59.3122 34.2997C59.5815 33.5029 59.6277 32.652 59.4509 31.7469C59.266 30.831 58.8557 29.9377 58.2199 29.0671C57.6001 28.2182 56.8898 27.577 56.0892 27.1434C55.2995 26.7019 54.4972 26.4947 53.6825 26.5217C52.8707 26.5299 52.1163 26.7882 51.4192 27.2964C50.7004 27.8206 50.2064 28.481 49.937 29.2778C49.6598 30.0637 49.6041 30.9132 49.7701 31.8262C49.947 32.7312 50.3533 33.6191 50.9891 34.4897C51.609 35.3386 52.3138 35.9838 53.1035 36.4253C53.9041 36.8589 54.7158 37.0676 55.5385 37.0514C56.3612 37.0352 57.121 36.773 57.8181 36.2648Z" fill="white"/>
<path d="M77.1862 25.8136L75.4095 26.5956L69.8665 14.0195L71.4396 13.3271L80.5733 18.7583L82.073 19.7544L77.9729 10.4517L79.7681 9.66161L85.3111 22.2378L83.7194 22.9383L74.2458 17.2372L73.0534 16.437L77.1862 25.8136Z" fill="white"/>
<path d="M105.163 2.16042L105.768 3.60024L101.145 4.61152L103.757 16.5352L101.841 16.9544L99.2289 5.03072L94.863 5.98581L94.5343 4.48548L105.163 2.16042Z" fill="white"/>
<path d="M126.906 8.46829L124.483 2.63047L122.439 8.58859L126.906 8.46829ZM123.564 0.0473583L125.323 0L130.986 13.4731L129.073 13.8076L127.535 10.008L121.935 10.1588L120.659 13.8724L118.759 13.9236L123.564 0.0473583Z" fill="white"/>
<path d="M154.239 2.76284L153.416 4.04149C153.116 3.86979 152.833 3.72128 152.566 3.59596C152.3 3.47065 152.017 3.36311 151.717 3.27336C151.42 3.1703 151.052 3.083 150.613 3.01145C149.788 2.87702 149.005 2.9883 148.263 3.34528C147.524 3.68896 146.888 4.24048 146.354 4.99984C145.834 5.76136 145.484 6.68729 145.307 7.77763C145.187 8.50896 145.168 9.21557 145.248 9.89747C145.33 10.5661 145.509 11.1823 145.786 11.7461C146.078 12.2988 146.461 12.757 146.935 13.1208C147.421 13.4868 148.004 13.7251 148.682 13.8356C149.335 13.9419 149.909 13.9808 150.405 13.9525C150.904 13.9109 151.353 13.834 151.754 13.7219L152.258 15.2783C151.94 15.3901 151.557 15.4712 151.112 15.5215C150.667 15.5718 150.212 15.5933 149.749 15.5861C149.299 15.581 148.881 15.547 148.495 15.4842C147.458 15.315 146.569 14.9859 145.829 14.4968C145.105 13.9966 144.528 13.384 144.1 12.659C143.674 11.9207 143.397 11.1111 143.267 10.23C143.138 9.34894 143.151 8.42972 143.307 7.47235C143.474 6.4485 143.775 5.52827 144.209 4.71168C144.656 3.89725 145.211 3.21645 145.874 2.66926C146.539 2.10878 147.293 1.713 148.137 1.48191C148.994 1.25298 149.921 1.21983 150.919 1.38244C151.186 1.42581 151.521 1.50769 151.924 1.62809C152.342 1.75066 152.753 1.90647 153.16 2.09552C153.579 2.28674 153.939 2.50918 154.239 2.76284Z" fill="white"/>
<path d="M177.718 8.97239L177.465 10.5135L173.011 8.91497L168.882 20.4025L167.036 19.7398L171.165 8.25234L166.959 6.74264L167.478 5.2972L177.718 8.97239Z" fill="white"/>
<path d="M205.027 23.5429L199.812 30.4465C199.349 31.0594 199.06 31.6769 198.945 32.299C198.849 32.9185 198.916 33.5007 199.146 34.0457C199.376 34.5907 199.76 35.0661 200.298 35.4719C200.858 35.8939 201.426 36.1368 202.003 36.2005C202.599 36.2616 203.171 36.1529 203.719 35.8743C204.286 35.5932 204.797 35.1515 205.252 34.5493L210.466 27.6457L212.032 28.8266L206.708 35.8754C206.123 36.6496 205.418 37.2147 204.592 37.5705C203.784 37.9237 202.925 38.0437 202.014 37.9304C201.111 37.8064 200.218 37.4117 199.336 36.7461C198.464 36.0887 197.84 35.3391 197.462 34.4972C197.095 33.6635 196.966 32.8063 197.074 31.9255C197.2 31.0421 197.56 30.2079 198.153 29.4229L203.477 22.3742L205.027 23.5429Z" fill="white"/>
<path d="M213.846 47.7948L215.284 47.0938C215.366 47.3649 215.479 47.6805 215.624 48.0406C215.777 48.4107 215.963 48.7872 216.183 49.1701C216.403 49.553 216.648 49.8943 216.919 50.1939C217.363 50.6834 217.794 51.0386 218.212 51.2598C218.631 51.4809 219.027 51.5769 219.401 51.5478C219.784 51.5096 220.121 51.3595 220.411 51.0973C220.751 50.7899 220.946 50.4228 220.996 49.9961C221.064 49.5703 221.027 49.0677 220.884 48.4883C220.752 47.8998 220.552 47.2174 220.285 46.4411C220.087 45.8208 219.933 45.26 219.825 44.7586C219.735 44.2581 219.701 43.7891 219.723 43.3514C219.754 42.9237 219.864 42.5238 220.055 42.1518C220.245 41.7797 220.535 41.4174 220.925 41.0648C221.425 40.6127 221.992 40.3452 222.626 40.2623C223.27 40.1703 223.933 40.2701 224.615 40.5616C225.308 40.844 225.966 41.3298 226.59 42.019C227.052 42.5284 227.425 43.0811 227.71 43.6771C228.005 44.2831 228.221 44.8328 228.358 45.3261L226.785 45.8773C226.721 45.6262 226.634 45.3595 226.524 45.0774C226.423 44.8054 226.28 44.5169 226.094 44.212C225.928 43.908 225.7 43.5962 225.411 43.2766C224.895 42.7073 224.351 42.3273 223.778 42.1366C223.214 41.956 222.708 42.0691 222.258 42.4759C221.918 42.7833 221.709 43.1449 221.631 43.5607C221.572 43.9775 221.609 44.4801 221.742 45.0685C221.894 45.6579 222.098 46.3643 222.352 47.1878C222.542 47.7791 222.682 48.3249 222.772 48.8254C222.881 49.3268 222.92 49.7913 222.889 50.219C222.867 50.6567 222.765 51.0665 222.584 51.4486C222.403 51.8306 222.127 52.1889 221.757 52.5234C221.228 53.0026 220.622 53.2872 219.939 53.3773C219.276 53.4683 218.576 53.3476 217.838 53.0153C217.12 52.6839 216.403 52.1236 215.689 51.3345C215.499 51.1248 215.297 50.8525 215.085 50.5176C214.872 50.2018 214.669 49.8674 214.476 49.5144C214.293 49.1715 214.142 48.8445 214.024 48.5334C213.906 48.2223 213.847 47.9761 213.846 47.7948Z" fill="white"/>
<path d="M253.175 94.918L251.673 94.6762C251.71 94.3329 251.733 94.0142 251.741 93.7201C251.749 93.426 251.734 93.1238 251.697 92.8136C251.672 92.5 251.605 92.1279 251.494 91.6972C251.287 90.8879 250.872 90.2154 250.247 89.6797C249.636 89.1406 248.876 88.7788 247.965 88.5942C247.059 88.4227 246.07 88.4739 244.999 88.7476C244.28 88.9313 243.625 89.1963 243.031 89.5426C242.451 89.8856 241.958 90.2967 241.552 90.776C241.162 91.265 240.895 91.7991 240.751 92.3782C240.611 92.9704 240.626 93.5994 240.796 94.265C240.96 94.9046 241.154 95.4459 241.379 95.8891C241.617 96.3289 241.867 96.7099 242.131 97.0319L240.905 98.1169C240.675 97.8699 240.448 97.5525 240.223 97.1649C239.999 96.7773 239.797 96.3699 239.618 95.9428C239.443 95.5288 239.306 95.1325 239.209 94.754C238.949 93.736 238.895 92.7903 239.047 91.917C239.215 91.0534 239.546 90.2805 240.04 89.5981C240.546 88.9124 241.177 88.3339 241.933 87.8625C242.689 87.3911 243.538 87.0352 244.478 86.7948C245.484 86.5377 246.448 86.4443 247.37 86.5144C248.296 86.5975 249.143 86.8331 249.91 87.221C250.691 87.6056 251.356 88.1379 251.905 88.8178C252.459 89.5108 252.86 90.3467 253.111 91.3256C253.178 91.5867 253.237 91.9262 253.288 92.3442C253.343 92.7752 253.365 93.2146 253.354 93.6623C253.347 94.123 253.287 94.5416 253.175 94.918Z" fill="white"/>
<path d="M242.647 116.181C242.583 114.93 242.829 113.798 243.385 112.785C243.94 111.771 244.736 110.955 245.77 110.336C246.819 109.729 248.024 109.391 249.384 109.321C250.77 109.251 252.017 109.47 253.123 109.98C254.243 110.49 255.144 111.219 255.827 112.169C256.511 113.132 256.898 114.246 256.99 115.509C257.055 116.774 256.803 117.913 256.233 118.927C255.678 119.94 254.876 120.757 253.828 121.377C252.793 121.997 251.595 122.341 250.236 122.41C248.849 122.481 247.595 122.255 246.475 121.733C245.369 121.222 244.474 120.486 243.79 119.522C243.12 118.572 242.74 117.458 242.647 116.181ZM244.302 116.077C244.348 116.965 244.624 117.74 245.13 118.402C245.65 119.063 246.337 119.568 247.192 119.915C248.06 120.262 249.033 120.408 250.11 120.353C251.16 120.299 252.086 120.056 252.887 119.624C253.69 119.206 254.302 118.648 254.726 117.952C255.163 117.269 255.36 116.496 255.316 115.635C255.27 114.747 254.988 113.972 254.468 113.311C253.962 112.649 253.281 112.137 252.425 111.776C251.57 111.429 250.604 111.283 249.527 111.338C248.477 111.391 247.551 111.627 246.749 112.046C245.947 112.478 245.328 113.043 244.891 113.74C244.455 114.436 244.258 115.215 244.302 116.077Z" fill="white"/>
<path d="M242.452 137.994L242.769 136.08L256.336 138.33L256.054 140.024L246.506 144.689L244.851 145.398L254.886 147.062L254.565 148.996L240.998 146.746L241.283 145.032L251.244 140.23L252.567 139.671L242.452 137.994Z" fill="white"/>
<path d="M246.945 174.338L245.407 174.056L247.091 169.637L235.676 165.294L236.374 163.462L247.789 167.805L249.379 163.631L250.816 164.177L246.945 174.338Z" fill="white"/>
<path d="M229.759 189.068L235.974 190.237L232.104 185.266L229.759 189.068ZM238.641 190.883L237.718 192.379L223.334 189.74L224.101 187.957L228.125 188.75L231.065 183.985L228.653 180.885L229.65 179.268L238.641 190.883Z" fill="white"/>
<path d="M219.574 215.048L218.954 213.659C219.261 213.503 219.541 213.347 219.792 213.193C220.042 213.039 220.287 212.861 220.527 212.66C220.776 212.467 221.05 212.207 221.351 211.879C221.915 211.263 222.25 210.547 222.357 209.732C222.474 208.926 222.361 208.091 222.017 207.229C221.664 206.377 221.08 205.578 220.264 204.833C219.717 204.333 219.136 203.929 218.521 203.623C217.916 203.326 217.302 203.138 216.678 203.061C216.055 203.003 215.462 203.072 214.898 203.269C214.325 203.476 213.807 203.832 213.343 204.339C212.897 204.827 212.55 205.285 212.302 205.716C212.064 206.156 211.882 206.574 211.756 206.97L210.177 206.54C210.258 206.212 210.399 205.848 210.601 205.448C210.802 205.048 211.033 204.657 211.293 204.273C211.543 203.9 211.801 203.569 212.064 203.281C212.774 202.505 213.536 201.942 214.351 201.591C215.167 201.259 215.995 201.113 216.837 201.152C217.688 201.2 218.518 201.411 219.327 201.785C220.135 202.159 220.898 202.673 221.614 203.328C222.38 204.028 222.986 204.783 223.433 205.593C223.87 206.413 224.136 207.25 224.232 208.104C224.337 208.967 224.255 209.814 223.987 210.646C223.709 211.488 223.229 212.282 222.547 213.027C222.365 213.226 222.113 213.462 221.791 213.733C221.46 214.015 221.104 214.274 220.723 214.51C220.334 214.757 219.95 214.936 219.574 215.048Z" fill="white"/>
<path d="M201.52 231.282L200.368 230.227L204.145 227.378L196.785 217.636L198.351 216.455L205.711 226.197L209.278 223.506L210.204 224.731L201.52 231.282Z" fill="white"/>
<path d="M174.368 246.143L171.441 238.003C171.181 237.28 170.823 236.7 170.365 236.263C169.899 235.844 169.374 235.581 168.792 235.475C168.209 235.369 167.601 235.43 166.967 235.658C166.307 235.895 165.792 236.237 165.423 236.685C165.046 237.15 164.824 237.687 164.757 238.298C164.682 238.926 164.772 239.596 165.027 240.306L167.954 248.445L166.108 249.108L163.12 240.797C162.792 239.884 162.705 238.985 162.859 238.099C163.005 237.231 163.375 236.447 163.969 235.747C164.567 235.06 165.386 234.529 166.426 234.156C167.454 233.787 168.424 233.675 169.336 233.82C170.235 233.97 171.023 234.331 171.702 234.903C172.372 235.492 172.874 236.25 173.207 237.176L176.195 245.487L174.368 246.143Z" fill="white"/>
<path d="M149.23 240.241L149.03 241.828C148.758 241.748 148.432 241.669 148.051 241.593C147.657 241.519 147.24 241.468 146.799 241.442C146.358 241.416 145.938 241.435 145.539 241.498C144.886 241.601 144.353 241.767 143.938 241.995C143.524 242.224 143.227 242.503 143.047 242.832C142.868 243.173 142.81 243.537 142.871 243.923C142.942 244.376 143.143 244.739 143.473 245.015C143.792 245.305 144.233 245.55 144.796 245.747C145.362 245.958 146.043 246.165 146.839 246.367C147.467 246.54 148.021 246.719 148.5 246.903C148.968 247.102 149.38 247.33 149.734 247.588C150.076 247.848 150.35 248.159 150.557 248.522C150.765 248.885 150.909 249.326 150.991 249.845C151.096 250.511 151.01 251.131 150.732 251.707C150.456 252.296 150.01 252.796 149.392 253.207C148.777 253.631 148.01 253.915 147.091 254.06C146.411 254.167 145.744 254.177 145.089 254.089C144.42 254.004 143.842 253.883 143.353 253.728L143.753 252.111C143.998 252.195 144.269 252.268 144.566 252.33C144.849 252.395 145.169 252.433 145.526 252.445C145.871 252.472 146.257 252.453 146.683 252.385C147.442 252.266 148.058 252.019 148.532 251.644C148.991 251.272 149.174 250.786 149.08 250.187C149.008 249.735 148.82 249.362 148.514 249.069C148.198 248.792 147.756 248.548 147.191 248.337C146.614 248.141 145.911 247.924 145.082 247.687C144.483 247.522 143.949 247.34 143.481 247.141C143.001 246.958 142.591 246.736 142.25 246.476C141.895 246.218 141.608 245.909 141.387 245.548C141.166 245.187 141.017 244.761 140.939 244.268C140.828 243.563 140.921 242.9 141.219 242.281C141.506 241.676 141.991 241.157 142.673 240.722C143.344 240.302 144.205 240.01 145.257 239.844C145.537 239.8 145.875 239.781 146.272 239.787C146.653 239.781 147.044 239.794 147.445 239.827C147.833 239.861 148.189 239.914 148.514 239.986C148.84 240.057 149.078 240.142 149.23 240.241Z" fill="white"/>
<path d="M98.4573 253.212L99.3624 251.99C99.6504 252.181 99.9232 252.347 100.181 252.49C100.439 252.632 100.714 252.758 101.007 252.867C101.297 252.989 101.659 253.1 102.092 253.201C102.907 253.389 103.695 253.329 104.458 253.021C105.218 252.726 105.889 252.217 106.472 251.494C107.041 250.768 107.45 249.867 107.698 248.791C107.865 248.069 107.931 247.365 107.896 246.679C107.858 246.007 107.719 245.38 107.479 244.799C107.224 244.229 106.872 243.747 106.423 243.353C105.961 242.956 105.396 242.68 104.726 242.525C104.082 242.377 103.511 242.301 103.014 242.296C102.514 242.305 102.06 242.353 101.653 242.438L101.252 240.853C101.577 240.762 101.964 240.706 102.411 240.685C102.859 240.663 103.314 240.672 103.776 240.709C104.224 240.744 104.639 240.805 105.02 240.893C106.045 241.129 106.91 241.516 107.616 242.052C108.306 242.598 108.841 243.247 109.221 243.999C109.598 244.763 109.822 245.589 109.894 246.477C109.965 247.364 109.892 248.281 109.673 249.226C109.44 250.237 109.08 251.135 108.594 251.922C108.094 252.705 107.496 253.348 106.799 253.851C106.098 254.367 105.319 254.713 104.463 254.888C103.592 255.061 102.665 255.033 101.68 254.806C101.417 254.745 101.088 254.642 100.693 254.495C100.285 254.346 99.8839 254.163 99.4909 253.948C99.0847 253.73 98.7401 253.485 98.4573 253.212Z" fill="white"/>
<path d="M84.3951 234.098C85.5367 234.616 86.4301 235.354 87.0753 236.313C87.7205 237.272 88.0806 238.353 88.1557 239.556C88.213 240.766 87.96 241.99 87.3969 243.229C86.8226 244.492 86.0547 245.498 85.0931 246.245C84.1259 247.005 83.0633 247.469 81.9051 247.639C80.7347 247.803 79.567 247.636 78.4019 247.137C77.2481 246.613 76.3513 245.866 75.7117 244.895C75.0665 243.936 74.7091 242.849 74.6396 241.634C74.5645 240.43 74.8085 239.21 75.3716 237.971C75.9459 236.707 76.7228 235.698 77.7022 234.944C78.6638 234.197 79.7298 233.741 80.9002 233.577C82.0528 233.42 83.2178 233.593 84.3951 234.098ZM83.7277 235.615C82.9175 235.247 82.1018 235.136 81.2807 235.281C80.4539 235.439 79.6897 235.817 78.988 236.416C78.2808 237.027 77.7041 237.823 77.2581 238.805C76.8232 239.761 76.6137 240.695 76.6296 241.605C76.6332 242.509 76.8471 243.309 77.2713 244.004C77.6777 244.707 78.2736 245.236 79.0593 245.593C79.8694 245.96 80.6879 246.066 81.5147 245.908C82.3358 245.763 83.1034 245.394 83.8173 244.8C84.519 244.201 85.0929 243.411 85.5389 242.43C85.9738 241.473 86.1894 240.543 86.1858 239.638C86.1699 238.729 85.9527 237.92 85.5341 237.212C85.1154 236.504 84.5133 235.972 83.7277 235.615Z" fill="white"/>
<path d="M65.0971 223.901L66.6522 225.063L58.4191 236.07L57.0423 235.042L57.2837 224.424L57.4142 222.629L51.3242 230.771L49.7529 229.597L57.986 218.59L59.379 219.631L59.0696 230.677L58.9587 232.108L65.0971 223.901Z" fill="white"/>
<path d="M30.7295 211.189L31.6865 209.955L34.8408 213.48L43.9464 205.344L45.2539 206.805L36.1484 214.941L39.1274 218.27L37.9817 219.294L30.7295 211.189Z" fill="white"/>
<path d="M25.5341 189.168L21.6387 194.147L27.8358 192.996L25.5341 189.168ZM19.8399 196.217L18.9338 194.71L27.889 183.157L29.1211 184.657L26.5669 187.864L29.4518 192.662L33.315 191.946L34.294 193.575L19.8399 196.217Z" fill="white"/>
<path d="M7.12232 168.191L8.64139 168.278C8.63919 168.624 8.649 168.943 8.67081 169.236C8.69262 169.53 8.73806 169.829 8.80713 170.134C8.86356 170.443 8.96855 170.806 9.12213 171.224C9.41066 172.008 9.89271 172.634 10.5683 173.104C11.2312 173.578 12.0247 173.86 12.9488 173.951C13.8683 174.03 14.8468 173.878 15.8844 173.497C16.5804 173.241 17.2058 172.911 17.7607 172.506C18.3029 172.106 18.7516 171.647 19.1068 171.128C19.4446 170.602 19.6557 170.044 19.7399 169.453C19.8195 168.85 19.7406 168.226 19.5033 167.581C19.2752 166.961 19.0268 166.442 18.7581 166.024C18.4766 165.611 18.1885 165.258 17.8937 164.964L19.002 163.76C19.2563 163.982 19.5148 164.275 19.7776 164.638C20.0404 165 20.2825 165.385 20.504 165.792C20.7209 166.186 20.8968 166.566 21.0317 166.933C21.3947 167.919 21.545 168.854 21.4826 169.739C21.4029 170.615 21.1524 171.417 20.7312 172.146C20.2973 172.88 19.7283 173.52 19.0242 174.066C18.3201 174.612 17.5125 175.052 16.6015 175.387C15.6272 175.745 14.6776 175.936 13.7527 175.96C12.8232 175.971 11.957 175.823 11.1542 175.515C10.3387 175.212 9.62285 174.75 9.00664 174.13C8.38577 173.497 7.90081 172.706 7.55178 171.758C7.45871 171.505 7.36534 171.173 7.27169 170.763C7.17339 170.339 7.10671 169.904 7.07167 169.458C7.03198 168.999 7.04887 168.576 7.12232 168.191Z" fill="white"/>
<path d="M0.98832 144.708L2.45564 144.17L3.25271 148.831L15.2931 146.776L15.6235 148.708L3.58311 150.764L4.3359 155.166L2.82088 155.425L0.98832 144.708Z" fill="white"/>
<path d="M0.25646 113.781L8.83617 114.924C9.59793 115.025 10.2781 114.973 10.8768 114.767C11.4639 114.546 11.9383 114.202 12.3 113.734C12.6617 113.265 12.8871 112.697 12.9761 112.03C13.0687 111.335 13.001 110.721 12.7729 110.188C12.5332 109.64 12.1572 109.195 11.6449 108.855C11.121 108.5 10.4848 108.273 9.73646 108.173L1.15674 107.031L1.41587 105.087L10.176 106.254C11.1382 106.382 11.9775 106.718 12.6938 107.262C13.3986 107.791 13.9256 108.479 14.2749 109.328C14.6109 110.175 14.7058 111.145 14.5598 112.24C14.4155 113.322 14.0694 114.234 13.5216 114.977C12.9755 115.706 12.2922 116.24 11.4717 116.579C10.6395 116.904 9.7357 117.001 8.76013 116.871L0 115.704L0.25646 113.781Z" fill="white"/>
<path d="M17.0523 94.182L15.7343 93.2755C15.9303 93.0708 16.1497 92.8172 16.3925 92.5145C16.6395 92.1991 16.8759 91.8517 17.1016 91.4724C17.3273 91.0931 17.504 90.7116 17.6316 90.3281C17.8401 89.7017 17.9378 89.152 17.9247 88.6792C17.9116 88.2063 17.8004 87.8144 17.5913 87.5035C17.3694 87.1884 17.073 86.9692 16.7019 86.8459C16.267 86.7014 15.8513 86.7123 15.4549 86.8787C15.05 87.0281 14.6302 87.3074 14.1956 87.7167C13.7483 88.1218 13.2519 88.6312 12.7066 89.2451C12.2635 89.7226 11.8503 90.1318 11.4668 90.4729C11.0748 90.797 10.6827 91.0571 10.2906 91.2534C9.90278 91.4369 9.49995 91.5373 9.08215 91.5546C8.66434 91.5719 8.20597 91.4977 7.70703 91.3319C7.06737 91.1193 6.55551 90.7575 6.17144 90.2465C5.77459 89.7313 5.53541 89.1052 5.45389 88.3682C5.35959 87.627 5.45922 86.8153 5.75279 85.9332C5.96978 85.2812 6.26781 84.6846 6.64688 84.1432C7.03021 83.5891 7.40295 83.1309 7.76509 82.7685L9.0193 83.8668C8.83183 84.0459 8.64225 84.2526 8.45056 84.4871C8.26312 84.7087 8.0821 84.9751 7.90752 85.2863C7.72439 85.5804 7.56475 85.9319 7.42861 86.341C7.18609 87.0697 7.12259 87.7301 7.23811 88.3222C7.35789 88.9016 7.70562 89.2869 8.28132 89.4782C8.71629 89.6228 9.13411 89.6267 9.53478 89.4901C9.92691 89.3365 10.3467 89.0571 10.7941 88.6521C11.2329 88.23 11.7484 87.7056 12.3406 87.079C12.7624 86.6228 13.1693 86.2327 13.5613 85.9087C13.9447 85.5676 14.3304 85.3053 14.7183 85.1218C15.1104 84.9256 15.5174 84.8124 15.9395 84.7823C16.3616 84.7522 16.8093 84.8158 17.2826 84.9731C17.9607 85.1984 18.5066 85.5857 18.9206 86.135C19.326 86.6673 19.5652 87.336 19.6382 88.1412C19.7027 88.9293 19.5669 89.8283 19.2308 90.8382C19.1414 91.1067 19.0031 91.4157 18.8157 91.7652C18.6454 92.1061 18.4538 92.4471 18.2409 92.788C18.0322 93.1162 17.8214 93.4082 17.6084 93.664C17.3954 93.9198 17.21 94.0924 17.0523 94.182Z" fill="white"/>
</svg>
