<svg xmlns="http://www.w3.org/2000/svg" width="20" height="20" viewBox="0 0 20 20" fill="none">
<path d="M18.75 8.7647H6.25C5.55965 8.7647 5 9.31777 5 10C5 10.6822 5.55965 11.2353 6.25 11.2353H18.75C19.4404 11.2353 20 10.6822 20 10C20 9.31777 19.4404 8.7647 18.75 8.7647Z" fill="#5D6974"/>
<path d="M1.25 4.47059H18.75C19.4404 4.47059 20 3.91753 20 3.2353C20 2.55307 19.4404 2 18.75 2H1.25C0.559648 2 0 2.55307 0 3.2353C0 3.91753 0.559648 4.47059 1.25 4.47059Z" fill="#5D6974"/>
<path d="M18.75 15.5294H1.25C0.559648 15.5294 0 16.0825 0 16.7647C0 17.4469 0.559648 18 1.25 18H18.75C19.4404 18 20 17.4469 20 16.7647C20 16.0825 19.4404 15.5294 18.75 15.5294Z" fill="#5D6974"/>
</svg>