<svg width="500" height="352" viewBox="0 0 500 352" fill="none" xmlns="http://www.w3.org/2000/svg">
<path d="M83.9121 0.0241699H5.35547V81.9125H83.9121V0.0241699Z" fill="#E0E0E0"/>
<path d="M78.5761 0.0241699H0.0195312V81.9125H78.5761V0.0241699Z" fill="#FAFAFA"/>
<path d="M78.6049 81.9373H0V0H78.6049V81.9373ZM0.0489937 81.8883H78.5566V0.0489937H0.0489937V81.8883Z" fill="#E0E0E0"/>
<path d="M68.0355 11.033H10.5996V70.9047H68.0355V11.033Z" fill="white"/>
<path d="M10.5756 71.3031C10.6209 71.3565 10.0754 71.9832 9.15839 72.9507C8.24137 73.9189 6.95213 75.2286 5.50712 76.6517C4.06139 78.0754 2.73412 79.3435 1.75495 80.2429C0.775766 81.1431 0.144675 81.6755 0.0949479 81.6258C0.0452211 81.5753 0.587098 80.953 1.50485 79.9848C2.42187 79.0173 3.71476 77.704 5.16415 76.2765C6.61281 74.8491 7.94374 73.5781 8.92292 72.6786C9.90283 71.7784 10.5303 71.249 10.5756 71.3031Z" fill="#E0E0E0"/>
<path d="M68.0388 71.1562C68.093 71.1108 68.7189 71.6564 69.6871 72.5734C70.6553 73.4912 71.9651 74.7797 73.3881 76.2247C74.8119 77.6697 76.08 78.9977 76.9794 79.9768C77.8796 80.956 78.412 81.5871 78.3623 81.6368C78.3125 81.6866 77.6895 81.1447 76.7213 80.2277C75.7538 79.3099 74.4397 78.0178 73.0123 76.5684C71.5855 75.119 70.3146 73.788 69.4144 72.8089C68.5149 71.829 67.9855 71.2015 68.0388 71.1562Z" fill="#E0E0E0"/>
<path d="M67.8698 11.1927C67.8245 11.1386 68.37 10.5126 69.287 9.54439C70.204 8.57618 71.4933 7.26646 72.9383 5.8434C74.3833 4.41961 75.7113 3.15157 76.6905 2.25137C77.6696 1.35117 78.3007 0.818803 78.3505 0.869261C78.3995 0.918988 77.8576 1.54203 76.9406 2.51024C76.0235 3.47845 74.7306 4.79109 73.2812 6.21855C71.8319 7.646 70.5017 8.91622 69.5218 9.81716C68.5426 10.7174 67.9151 11.2468 67.8698 11.1927Z" fill="#E0E0E0"/>
<path d="M10.4236 11.339C10.3702 11.3844 9.74347 10.8388 8.77599 9.92181C7.80778 9.00479 6.49806 7.71555 5.075 6.27055C3.65121 4.82482 2.38317 3.49755 1.4837 2.51837C0.583503 1.53919 0.0511324 0.908102 0.100859 0.858376C0.150586 0.808649 0.773636 1.35052 1.74185 2.26754C2.71005 3.18456 4.02269 4.47746 5.45015 5.92685C6.8776 7.37624 8.14855 8.70716 9.04802 9.68634C9.94822 10.6663 10.4777 11.2937 10.4236 11.339Z" fill="#E0E0E0"/>
<path d="M67.875 70.9046C67.8706 70.9009 67.8669 70.8022 67.8625 70.6135C67.8596 70.4095 67.8552 70.1346 67.8501 69.7777C67.8442 69.0267 67.8355 67.9473 67.8245 66.5455C67.8113 63.7088 67.7916 59.583 67.7667 54.3434C67.7397 43.8569 67.7009 28.9184 67.6541 11.0321L67.8757 11.2537C51.1551 11.2632 31.5196 11.2741 10.6021 11.2866H10.5963L10.8508 11.0321C10.8376 33.0077 10.8252 53.566 10.8149 70.9039L10.5963 70.6859C27.7601 70.732 42.0507 70.7708 52.0699 70.7971C57.0755 70.8212 61.0134 70.841 63.7191 70.8541C65.0559 70.8651 66.0848 70.8739 66.8014 70.8797C67.14 70.8848 67.4025 70.8892 67.5978 70.8922C67.7777 70.8965 67.8706 70.9009 67.875 70.9046C67.8793 70.909 67.7938 70.9126 67.6219 70.917C67.4325 70.9199 67.1781 70.9236 66.849 70.9295C66.1426 70.9353 65.1276 70.9433 63.8083 70.955C61.1136 70.9682 57.1932 70.9879 52.2081 71.0121C42.1552 71.0391 27.8171 71.0772 10.5955 71.124L10.3776 71.1247V70.9053C10.3674 53.5675 10.355 33.0091 10.3418 11.0335V10.7791H10.5963H10.6021C31.5188 10.7908 51.1551 10.8017 67.8757 10.812H68.098L68.0973 11.0335C68.0505 28.9791 68.0117 43.9658 67.9846 54.4867C67.9591 59.7051 67.94 63.8141 67.9261 66.639C67.9152 68.0226 67.9064 69.0874 67.9005 69.8282C67.8954 70.174 67.891 70.4417 67.8881 70.6399C67.883 70.8198 67.8793 70.909 67.875 70.9046Z" fill="#E0E0E0"/>
<path d="M48.9016 31.386H29.7363V50.5513H48.9016V31.386Z" fill="#B7CAC9"/>
<path d="M475.708 3.78125V77.8084H369.385L365.555 4.29899L475.708 3.78125Z" fill="#E0E0E0"/>
<path d="M365.549 4.29878V77.6523H471.871V4.29878H365.549Z" fill="white"/>
<path d="M472.371 78.1567H365.039V3.79468H472.371V78.1567ZM366.048 77.1476H471.362V4.80311H366.048V77.1476Z" fill="#E0E0E0"/>
<path d="M460.36 13.4124H377.068V68.5382H460.36V13.4124Z" fill="white"/>
<path d="M460.363 13.4122C460.363 13.4122 460.219 13.4217 459.952 13.4261C459.67 13.4298 459.278 13.4342 458.767 13.44C457.712 13.4466 456.18 13.4568 454.193 13.4693C450.192 13.4846 444.375 13.5066 437.028 13.5343C422.34 13.5636 401.549 13.6045 377.07 13.6528L377.311 13.4122C377.318 30.255 377.325 48.9171 377.333 68.5314V68.538L377.07 68.2755C408.49 68.296 437.458 68.3143 460.362 68.3289L460.153 68.538C460.199 51.7618 460.237 38.0072 460.263 28.429C460.285 23.642 460.304 19.9016 460.316 17.3377C460.326 16.0711 460.334 15.0985 460.339 14.4236C460.348 13.7632 460.363 13.4122 460.363 13.4122C460.363 13.4122 460.378 13.7333 460.385 14.3797C460.391 15.0459 460.399 16.0053 460.409 17.2551C460.421 19.808 460.439 23.5324 460.462 28.2995C460.489 37.9092 460.526 51.7084 460.572 68.5388L460.573 68.7479H460.363C437.459 68.7625 408.491 68.7808 377.071 68.8013H376.809V68.5388V68.5322C376.817 48.9171 376.824 30.2557 376.831 13.413V13.1716L377.072 13.1724C401.616 13.2206 422.461 13.2616 437.188 13.2908C444.511 13.3186 450.309 13.3406 454.298 13.3559C456.264 13.3683 457.779 13.3786 458.823 13.3852C459.322 13.391 459.705 13.3961 459.981 13.3991C460.239 13.4027 460.363 13.4122 460.363 13.4122Z" fill="#E0E0E0"/>
<path d="M365.551 4.09341C365.596 4.03637 366.291 4.49269 367.38 5.27734C368.467 6.06274 369.948 7.17647 371.548 8.4562C373.147 9.73667 374.554 10.9477 375.544 11.8544C376.534 12.7612 377.114 13.3594 377.067 13.4128C376.968 13.5247 374.411 11.4164 371.219 8.86645C368.024 6.32014 365.458 4.21334 365.551 4.09341Z" fill="#E0E0E0"/>
<path d="M471.873 4.29865C471.963 4.41273 469.459 6.54513 466.279 9.06145C463.099 11.5785 460.448 13.5259 460.358 13.4125C460.268 13.2985 462.772 11.1668 465.953 8.64975C469.132 6.13342 471.783 4.1853 471.873 4.29865Z" fill="#E0E0E0"/>
<path d="M471.786 77.6632C467.835 74.4602 463.883 71.2579 459.932 68.0549L471.786 77.6632Z" fill="white"/>
<path d="M459.932 68.0552C460.023 67.9426 462.751 70.0018 466.024 72.6549C469.298 75.3087 471.877 77.5508 471.786 77.6634C471.695 77.776 468.968 75.7168 465.693 73.063C462.421 70.4099 459.841 68.1678 459.932 68.0552Z" fill="#E0E0E0"/>
<path d="M365.551 77.6521C365.461 77.538 367.94 75.4283 371.087 72.939C374.235 70.449 376.859 68.5236 376.949 68.6376C377.039 68.7517 374.561 70.8614 371.412 73.3507C368.266 75.84 365.641 77.7661 365.551 77.6521Z" fill="#E0E0E0"/>
<path d="M393.967 30.5882V49.0464H446.375V30.5882L393.967 30.5882Z" fill="#DFE5E7"/>
<path d="M95.248 262.115V297.372H146.807H203.674V262.115H95.248Z" fill="#DFE5E7"/>
<path d="M90.6973 252.258V262.115H207.462V252.258H146.804H90.6973Z" fill="#E0E0E0"/>
<path d="M149.078 297.372H203.67V262.115H207.461V252.258H146.803V261.203L149.078 297.372Z" fill="#E0E0E0"/>
<path d="M132.396 267.801H110.408V273.108H132.396V267.801Z" fill="#E0E0E0"/>
<path d="M135.811 279.743H107.576V290.949H135.811V279.743Z" fill="white"/>
<path d="M423.636 198.587L398.717 299.346H405.276L430.81 198.587H423.636Z" fill="#DFE5E7"/>
<path d="M470.566 198.588L493.882 299.346H487.323L463.393 198.588H470.566Z" fill="#DFE5E7"/>
<path d="M451.087 297.866H443.452L442.314 182.221H449.95L451.087 297.866Z" fill="#DFE5E7"/>
<path d="M499.996 114.305H392.25V183.335H499.996V114.305Z" fill="#B7CAC9"/>
<path d="M473.197 197.529H419.117V204.195H473.197V197.529Z" fill="#DFE5E7"/>
<path d="M399.422 174.329C399.447 174.329 399.472 174.726 399.496 175.592H399.348C399.237 172.216 399.156 161.032 399.156 147.776C399.186 139.778 399.214 132.54 399.234 127.212C399.269 124.636 399.297 122.525 399.318 120.98C399.338 120.292 399.354 119.732 399.368 119.286C399.384 118.898 399.403 118.695 399.421 118.695C399.439 118.695 399.458 118.898 399.474 119.286C399.488 119.731 399.504 120.292 399.524 120.98C399.545 122.524 399.574 124.635 399.608 127.212C399.628 132.54 399.656 139.778 399.686 147.776C399.686 161.031 399.605 172.216 399.494 175.592H399.346C399.371 174.726 399.396 174.329 399.422 174.329Z" fill="#DFE5E7"/>
<path d="M407.437 174.329C407.463 174.329 407.488 174.726 407.511 175.592H407.363C407.253 172.216 407.172 161.032 407.172 147.776C407.202 139.778 407.23 132.54 407.249 127.212C407.285 124.636 407.313 122.525 407.333 120.98C407.354 120.292 407.37 119.732 407.383 119.286C407.401 118.898 407.418 118.695 407.437 118.695C407.455 118.695 407.473 118.898 407.49 119.286C407.503 119.731 407.519 120.292 407.54 120.98C407.561 122.524 407.589 124.635 407.624 127.212C407.644 132.54 407.671 139.778 407.701 147.776C407.701 161.031 407.62 172.216 407.51 175.592H407.362C407.387 174.726 407.412 174.329 407.437 174.329Z" fill="#DFE5E7"/>
<path d="M415.463 174.329C415.488 174.329 415.513 174.726 415.537 175.592H415.389C415.278 172.216 415.197 161.032 415.197 147.776C415.227 139.778 415.255 132.54 415.275 127.212C415.31 124.636 415.338 122.525 415.359 120.98C415.379 120.292 415.395 119.732 415.409 119.286C415.426 118.898 415.444 118.695 415.462 118.695C415.48 118.695 415.499 118.898 415.515 119.286C415.529 119.731 415.545 120.292 415.565 120.98C415.586 122.524 415.615 124.635 415.649 127.212C415.67 132.54 415.697 139.778 415.727 147.776C415.727 161.031 415.646 172.216 415.535 175.592H415.387C415.412 174.726 415.437 174.329 415.463 174.329Z" fill="#DFE5E7"/>
<path d="M423.471 174.329C423.496 174.329 423.521 174.726 423.544 175.592H423.397C423.286 172.216 423.205 161.032 423.205 147.776C423.235 139.778 423.263 132.54 423.283 127.212C423.318 124.636 423.346 122.525 423.367 120.98C423.387 120.292 423.403 119.732 423.416 119.286C423.434 118.898 423.452 118.695 423.47 118.695C423.488 118.695 423.506 118.898 423.523 119.286C423.536 119.731 423.552 120.292 423.573 120.98C423.594 122.524 423.623 124.635 423.658 127.212C423.678 132.54 423.705 139.778 423.735 147.776C423.735 161.031 423.655 172.216 423.544 175.592H423.396C423.42 174.726 423.445 174.329 423.471 174.329Z" fill="#DFE5E7"/>
<path d="M431.492 174.329C431.518 174.329 431.542 174.726 431.566 175.592H431.418C431.307 172.216 431.227 161.032 431.227 147.776C431.257 139.778 431.284 132.54 431.304 127.212C431.339 124.636 431.368 122.525 431.389 120.98C431.409 120.292 431.425 119.732 431.439 119.286C431.456 118.898 431.474 118.695 431.492 118.695C431.51 118.695 431.528 118.898 431.545 119.286C431.559 119.731 431.575 120.292 431.595 120.98C431.616 122.524 431.645 124.635 431.679 127.212C431.7 132.54 431.727 139.778 431.757 147.776C431.757 161.031 431.676 172.216 431.566 175.592H431.417C431.442 174.726 431.466 174.329 431.492 174.329Z" fill="#DFE5E7"/>
<path d="M439.506 174.329C439.531 174.329 439.556 174.726 439.58 175.592H439.432C439.321 172.216 439.24 161.031 439.24 147.776C439.27 139.778 439.298 132.539 439.318 127.212C439.353 124.636 439.381 122.525 439.403 120.98C439.423 120.292 439.439 119.732 439.452 119.286C439.469 118.898 439.487 118.695 439.506 118.695C439.524 118.695 439.542 118.898 439.559 119.286C439.572 119.731 439.589 120.292 439.609 120.98C439.63 122.524 439.659 124.635 439.694 127.212C439.713 132.539 439.741 139.778 439.771 147.776C439.771 161.031 439.69 172.215 439.58 175.592H439.432C439.455 174.726 439.48 174.329 439.506 174.329Z" fill="#DFE5E7"/>
<path d="M447.529 174.329C447.555 174.329 447.58 174.726 447.603 175.592H447.455C447.345 172.216 447.264 161.032 447.264 147.776C447.294 139.778 447.321 132.54 447.341 127.212C447.376 124.636 447.405 122.525 447.425 120.98C447.446 120.292 447.462 119.732 447.475 119.286C447.492 118.898 447.51 118.695 447.528 118.695C447.547 118.695 447.565 118.898 447.582 119.286C447.595 119.731 447.612 120.292 447.631 120.98C447.653 122.524 447.681 124.635 447.716 127.212C447.736 132.54 447.763 139.778 447.793 147.776C447.793 161.031 447.712 172.216 447.602 175.592H447.454C447.479 174.726 447.504 174.329 447.529 174.329Z" fill="#DFE5E7"/>
<path d="M455.564 174.329C455.59 174.329 455.615 174.726 455.638 175.592H455.49C455.38 172.216 455.299 161.032 455.299 147.776C455.329 139.778 455.357 132.54 455.376 127.212C455.411 124.636 455.44 122.525 455.46 120.98C455.481 120.292 455.497 119.732 455.51 119.286C455.527 118.898 455.545 118.695 455.564 118.695C455.582 118.695 455.599 118.898 455.617 119.286C455.63 119.731 455.646 120.292 455.667 120.98C455.688 122.524 455.716 124.635 455.751 127.212C455.771 132.54 455.798 139.778 455.829 147.776C455.829 161.031 455.749 172.216 455.638 175.592H455.49C455.515 174.726 455.539 174.329 455.564 174.329Z" fill="#DFE5E7"/>
<path d="M463.568 174.329C463.594 174.329 463.619 174.726 463.642 175.592H463.494C463.384 172.216 463.303 161.032 463.303 147.776C463.333 139.778 463.36 132.54 463.38 127.212C463.415 124.636 463.444 122.525 463.464 120.98C463.485 120.292 463.501 119.732 463.514 119.286C463.532 118.898 463.549 118.695 463.567 118.695C463.586 118.695 463.603 118.898 463.621 119.286C463.634 119.731 463.651 120.292 463.671 120.98C463.692 122.524 463.72 124.635 463.755 127.212C463.775 132.54 463.802 139.778 463.832 147.776C463.832 161.031 463.751 172.216 463.641 175.592H463.493C463.518 174.726 463.543 174.329 463.568 174.329Z" fill="#DFE5E7"/>
<path d="M471.594 174.329C471.619 174.329 471.644 174.726 471.667 175.592H471.52C471.409 172.216 471.328 161.032 471.328 147.776C471.358 139.778 471.386 132.54 471.406 127.212C471.441 124.636 471.469 122.525 471.49 120.98C471.51 120.292 471.526 119.732 471.539 119.286C471.557 118.898 471.575 118.695 471.593 118.695C471.611 118.695 471.629 118.898 471.646 119.286C471.659 119.731 471.675 120.292 471.696 120.98C471.717 122.524 471.746 124.635 471.78 127.212C471.801 132.54 471.828 139.778 471.858 147.776C471.858 161.031 471.776 172.216 471.666 175.592H471.518C471.543 174.726 471.568 174.329 471.594 174.329Z" fill="#DFE5E7"/>
<path d="M479.607 174.329C479.633 174.329 479.658 174.726 479.681 175.592H479.533C479.423 172.216 479.342 161.032 479.342 147.776C479.372 139.778 479.4 132.54 479.419 127.212C479.454 124.636 479.483 122.525 479.504 120.98C479.525 120.292 479.541 119.732 479.554 119.286C479.571 118.898 479.589 118.695 479.607 118.695C479.626 118.695 479.643 118.898 479.661 119.286C479.674 119.731 479.69 120.292 479.71 120.98C479.732 122.524 479.76 124.635 479.794 127.212C479.815 132.54 479.842 139.778 479.872 147.776C479.872 161.031 479.791 172.216 479.68 175.592H479.533C479.557 174.726 479.582 174.329 479.607 174.329Z" fill="#DFE5E7"/>
<path d="M487.635 174.329C487.66 174.329 487.685 174.726 487.708 175.592H487.561C487.45 172.216 487.369 161.032 487.369 147.776C487.399 139.778 487.427 132.54 487.447 127.212C487.482 124.636 487.51 122.525 487.531 120.98C487.551 120.292 487.567 119.732 487.58 119.286C487.598 118.898 487.616 118.695 487.634 118.695C487.652 118.695 487.67 118.898 487.687 119.286C487.7 119.731 487.717 120.292 487.737 120.98C487.758 122.524 487.787 124.635 487.821 127.212C487.841 132.54 487.869 139.778 487.899 147.776C487.899 161.031 487.817 172.216 487.707 175.592H487.559C487.584 174.726 487.609 174.329 487.635 174.329Z" fill="#DFE5E7"/>
<path d="M495.639 174.329C495.664 174.329 495.689 174.726 495.712 175.592H495.565C495.454 172.216 495.373 161.032 495.373 147.776C495.403 139.778 495.431 132.54 495.451 127.212C495.486 124.636 495.514 122.525 495.535 120.98C495.555 120.292 495.571 119.732 495.584 119.286C495.601 118.898 495.619 118.695 495.638 118.695C495.656 118.695 495.674 118.898 495.691 119.286C495.704 119.731 495.72 120.292 495.741 120.98C495.762 122.524 495.791 124.635 495.825 127.212C495.845 132.54 495.873 139.778 495.902 147.776C495.902 161.031 495.821 172.216 495.711 175.592H495.563C495.588 174.726 495.613 174.329 495.639 174.329Z" fill="#DFE5E7"/>
<path d="M477.171 297.372C477.171 297.477 373.27 297.562 245.132 297.562C116.949 297.562 13.0703 297.477 13.0703 297.372C13.0703 297.267 116.949 297.182 245.132 297.182C373.27 297.182 477.171 297.267 477.171 297.372Z" fill="#263238"/>
<path d="M405.003 46.9602H54.2246V221.24H405.003V46.9602Z" fill="white"/>
<path d="M405.003 46.9602H54.2246V68.5826H405.003V46.9602Z" fill="#E0E0E0"/>
<path d="M405.003 221.24C405.002 220.119 404.949 154.432 404.861 46.9602L405.003 47.1013C313.11 47.1145 189.661 47.1313 54.2489 47.1503H54.2241L54.4142 46.9602C54.4105 108.39 54.4069 167.352 54.4032 221.24L54.2241 221.061C258.962 221.166 403.345 221.239 405.003 221.24C403.346 221.241 258.962 221.315 54.2241 221.419H54.0442V221.239C54.0405 167.352 54.0369 108.39 54.0332 46.9594V46.7693H54.2233H54.2482C189.66 46.7883 313.108 46.8059 405.002 46.8183H405.143V46.9594C405.057 154.432 405.003 220.12 405.003 221.24Z" fill="#263238"/>
<path d="M96.3788 89.3215V100.452H94.6778L88.5395 92.915V100.452H86.4883V89.3215H88.19L94.3276 96.8588V89.3215H96.3788Z" fill="#263238"/>
<path d="M106.284 95.4753V100.452H104.408V99.4183C103.931 100.15 103.009 100.564 101.736 100.564C99.7964 100.564 98.5723 99.498 98.5723 98.0194C98.5723 96.6037 99.5266 95.4907 102.102 95.4907H104.297V95.3634C104.297 94.2029 103.597 93.5191 102.182 93.5191C101.228 93.5191 100.242 93.8372 99.6063 94.3623L98.8275 92.9151C99.7335 92.2153 101.053 91.8657 102.421 91.8657C104.869 91.8657 106.284 93.0263 106.284 95.4753ZM104.297 97.7964V96.8106H102.245C100.894 96.8106 100.528 97.3196 100.528 97.9397C100.528 98.6556 101.132 99.1163 102.15 99.1163C103.12 99.1163 103.963 98.6717 104.297 97.7964Z" fill="#263238"/>
<path d="M123.025 95.5865V100.452H121.037V95.8409C121.037 94.3301 120.337 93.5989 119.129 93.5989C117.825 93.5989 116.919 94.4574 116.919 96.143V100.452H114.932V95.8409C114.932 94.3301 114.232 93.5989 113.024 93.5989C111.704 93.5989 110.814 94.4574 110.814 96.143V100.452H108.826V91.9615H110.718V93.0431C111.354 92.2804 112.34 91.8665 113.5 91.8665C114.741 91.8665 115.774 92.3279 116.362 93.2815C117.046 92.4069 118.191 91.8665 119.542 91.8665C121.594 91.8657 123.025 93.0263 123.025 95.5865Z" fill="#263238"/>
<path d="M133.597 96.8425H126.935C127.173 98.0828 128.207 98.8777 129.686 98.8777C130.64 98.8777 131.387 98.5757 131.992 97.9555L133.057 99.1797C132.294 100.086 131.102 100.563 129.638 100.563C126.792 100.563 124.947 98.7343 124.947 96.2063C124.947 93.6783 126.808 91.8655 129.336 91.8655C131.817 91.8655 133.63 93.5986 133.63 96.2539C133.629 96.4133 133.613 96.6517 133.597 96.8425ZM126.919 95.5226H131.736C131.578 94.2984 130.64 93.4553 129.336 93.4553C128.048 93.4553 127.11 94.2823 126.919 95.5226Z" fill="#263238"/>
<path d="M109.01 136.148V137.287H103.527V129.976H108.864V131.115H104.885V133.016H108.415V134.133H104.885V136.149H109.01V136.148Z" fill="#E0E0E0"/>
<path d="M115.889 134.09V137.287H114.583V134.258C114.583 133.266 114.093 132.785 113.257 132.785C112.327 132.785 111.701 133.349 111.701 134.467V137.287H110.395V131.71H111.638V132.43C112.065 131.918 112.745 131.647 113.559 131.647C114.896 131.646 115.889 132.409 115.889 134.09Z" fill="#E0E0E0"/>
<path d="M120.901 136.984C120.587 137.235 120.118 137.36 119.648 137.36C118.426 137.36 117.726 136.712 117.726 135.48V132.796H116.807V131.751H117.726V130.477H119.031V131.751H120.524V132.796H119.031V135.449C119.031 135.992 119.302 136.285 119.804 136.285C120.076 136.285 120.337 136.212 120.535 136.055L120.901 136.984Z" fill="#E0E0E0"/>
<path d="M127.009 134.916H122.633C122.79 135.73 123.469 136.253 124.44 136.253C125.067 136.253 125.558 136.054 125.955 135.647L126.655 136.451C126.153 137.047 125.37 137.36 124.409 137.36C122.54 137.36 121.328 136.159 121.328 134.499C121.328 132.839 122.55 131.648 124.211 131.648C125.84 131.648 127.031 132.786 127.031 134.53C127.031 134.633 127.02 134.79 127.009 134.916ZM122.623 134.049H125.787C125.683 133.245 125.067 132.691 124.211 132.691C123.365 132.691 122.748 133.234 122.623 134.049Z" fill="#E0E0E0"/>
<path d="M131.504 131.646V132.889C131.39 132.868 131.295 132.858 131.202 132.858C130.209 132.858 129.583 133.443 129.583 134.581V137.286H128.277V131.709H129.52V132.524C129.896 131.939 130.574 131.646 131.504 131.646Z" fill="#E0E0E0"/>
<path d="M140.768 131.709L138.156 137.736C137.645 138.999 136.934 139.385 136.005 139.385C135.451 139.385 134.866 139.197 134.512 138.874L135.034 137.913C135.285 138.153 135.64 138.299 135.995 138.299C136.454 138.299 136.726 138.079 136.977 137.526L137.07 137.306L134.637 131.708H135.994L137.748 135.834L139.514 131.708H140.768V131.709Z" fill="#E0E0E0"/>
<path d="M140.963 134.497C140.963 132.827 142.216 131.646 143.93 131.646C145.664 131.646 146.906 132.827 146.906 134.497C146.906 136.168 145.663 137.359 143.93 137.359C142.216 137.36 140.963 136.168 140.963 134.497ZM145.59 134.497C145.59 133.432 144.88 132.753 143.93 132.753C142.989 132.753 142.279 133.433 142.279 134.497C142.279 135.563 142.989 136.242 143.93 136.242C144.88 136.242 145.59 135.563 145.59 134.497Z" fill="#E0E0E0"/>
<path d="M153.555 131.709V137.286H152.312V136.576C151.894 137.088 151.236 137.359 150.516 137.359C149.084 137.359 148.113 136.576 148.113 134.894V131.708H149.419V134.716C149.419 135.729 149.899 136.21 150.724 136.21C151.633 136.21 152.249 135.646 152.249 134.528V131.708H153.555V131.709Z" fill="#E0E0E0"/>
<path d="M158.495 131.646V132.889C158.38 132.868 158.286 132.858 158.192 132.858C157.2 132.858 156.573 133.443 156.573 134.581V137.286H155.268V131.709H156.51V132.524C156.886 131.939 157.565 131.646 158.495 131.646Z" fill="#E0E0E0"/>
<path d="M168.027 134.09V137.287H166.722V134.258C166.722 133.266 166.231 132.785 165.395 132.785C164.466 132.785 163.839 133.349 163.839 134.467V137.287H162.533V131.71H163.776V132.43C164.204 131.918 164.884 131.647 165.698 131.647C167.035 131.646 168.027 132.409 168.027 134.09Z" fill="#E0E0E0"/>
<path d="M174.354 134.018V137.287H173.122V136.608C172.808 137.088 172.202 137.36 171.367 137.36C170.093 137.36 169.289 136.66 169.289 135.689C169.289 134.759 169.916 134.028 171.607 134.028H173.049V133.945C173.049 133.183 172.589 132.733 171.66 132.733C171.033 132.733 170.385 132.942 169.968 133.286L169.456 132.336C170.051 131.877 170.918 131.647 171.816 131.647C173.424 131.646 174.354 132.409 174.354 134.018ZM173.049 135.542V134.895H171.702C170.814 134.895 170.574 135.229 170.574 135.637C170.574 136.107 170.97 136.41 171.639 136.41C172.276 136.409 172.829 136.117 173.049 135.542Z" fill="#E0E0E0"/>
<path d="M185.35 134.09V137.287H184.044V134.258C184.044 133.266 183.584 132.785 182.79 132.785C181.934 132.785 181.339 133.349 181.339 134.456V137.287H180.033V134.258C180.033 133.266 179.573 132.785 178.779 132.785C177.913 132.785 177.328 133.349 177.328 134.456V137.287H176.021V131.71H177.265V132.42C177.682 131.918 178.33 131.647 179.092 131.647C179.907 131.647 180.586 131.95 180.972 132.576C181.421 132.002 182.174 131.647 183.061 131.647C184.41 131.646 185.35 132.409 185.35 134.09Z" fill="#E0E0E0"/>
<path d="M192.289 134.916H187.913C188.069 135.73 188.749 136.253 189.72 136.253C190.346 136.253 190.837 136.054 191.234 135.647L191.934 136.451C191.433 137.047 190.649 137.36 189.688 137.36C187.818 137.36 186.607 136.159 186.607 134.499C186.607 132.839 187.829 131.648 189.489 131.648C191.119 131.648 192.31 132.786 192.31 134.53C192.309 134.633 192.299 134.79 192.289 134.916ZM187.902 134.049H191.067C190.962 133.245 190.346 132.691 189.489 132.691C188.643 132.691 188.028 133.234 187.902 134.049Z" fill="#E0E0E0"/>
<path d="M201.937 134.09V137.287H200.631V134.258C200.631 133.266 200.141 132.785 199.305 132.785C198.375 132.785 197.749 133.349 197.749 134.467V137.287H196.443V129.537H197.749V132.357C198.177 131.898 198.835 131.647 199.608 131.647C200.944 131.646 201.937 132.409 201.937 134.09Z" fill="#E0E0E0"/>
<path d="M208.865 134.916H204.489C204.645 135.73 205.325 136.253 206.296 136.253C206.923 136.253 207.413 136.054 207.81 135.647L208.51 136.451C208.009 137.047 207.225 137.36 206.264 137.36C204.395 137.36 203.184 136.159 203.184 134.499C203.184 132.839 204.406 131.648 206.066 131.648C207.696 131.648 208.886 132.786 208.886 134.53C208.886 134.633 208.875 134.79 208.865 134.916ZM204.479 134.049H207.643C207.538 133.245 206.923 132.691 206.066 132.691C205.22 132.691 204.604 133.234 204.479 134.049Z" fill="#E0E0E0"/>
<path d="M213.366 131.646V132.889C213.251 132.868 213.157 132.858 213.063 132.858C212.071 132.858 211.444 133.443 211.444 134.581V137.286H210.139V131.709H211.381V132.524C211.757 131.939 212.436 131.646 213.366 131.646Z" fill="#E0E0E0"/>
<path d="M219.642 134.916H215.266C215.423 135.73 216.102 136.253 217.073 136.253C217.7 136.253 218.191 136.054 218.588 135.647L219.288 136.451C218.786 137.047 218.003 137.36 217.042 137.36C215.173 137.36 213.961 136.159 213.961 134.499C213.961 132.839 215.183 131.648 216.844 131.648C218.473 131.648 219.663 132.786 219.663 134.53C219.663 134.633 219.653 134.79 219.642 134.916ZM215.256 134.049H218.42C218.316 133.245 217.7 132.691 216.844 132.691C215.998 132.691 215.381 133.234 215.256 134.049Z" fill="#E0E0E0"/>
<path d="M157.688 196.943H95.3603C86.8095 196.943 79.877 190.011 79.877 181.459C79.877 172.908 86.8087 165.976 95.3603 165.976H157.688C166.239 165.976 173.172 172.908 173.172 181.459C173.172 190.011 166.24 196.943 157.688 196.943Z" fill="#92E3A9"/>
<path d="M101.073 124.046H99.877V143.791H101.073V124.046Z" fill="#92E3A9"/>
<path d="M99.8203 181.069C99.8203 178.782 101.572 177.128 103.925 177.128C105.173 177.128 106.245 177.576 106.957 178.409L106.038 179.274C105.479 178.672 104.789 178.376 103.991 178.376C102.403 178.376 101.254 179.492 101.254 181.069C101.254 182.645 102.404 183.762 103.991 183.762C104.79 183.762 105.48 183.467 106.038 182.854L106.957 183.729C106.245 184.562 105.173 185.01 103.913 185.01C101.572 185.01 99.8203 183.357 99.8203 181.069Z" fill="#FAFAFA"/>
<path d="M103.913 185.028C102.771 185.028 101.728 184.631 100.974 183.911C100.218 183.186 99.8008 182.177 99.8008 181.069C99.8008 179.96 100.218 178.951 100.976 178.227C101.731 177.507 102.777 177.11 103.924 177.11C105.178 177.11 106.26 177.567 106.97 178.397L106.982 178.411L106.969 178.423L106.036 179.3L106.023 179.286C105.474 178.695 104.79 178.395 103.99 178.395C103.225 178.395 102.532 178.661 102.039 179.144C101.544 179.63 101.271 180.314 101.271 181.069C101.271 181.824 101.544 182.508 102.039 182.994C102.533 183.477 103.225 183.743 103.99 183.743C104.793 183.743 105.478 183.44 106.023 182.842L106.036 182.827L106.05 182.84L106.981 183.728L106.97 183.742C106.26 184.571 105.174 185.028 103.913 185.028ZM103.924 177.147C102.787 177.147 101.749 177.54 101.002 178.254C100.251 178.972 99.8373 179.971 99.8373 181.07C99.8373 182.167 100.251 183.167 101 183.885C101.747 184.6 102.781 184.992 103.913 184.992C105.157 184.992 106.228 184.545 106.931 183.732L106.037 182.881C105.486 183.478 104.798 183.781 103.99 183.781C102.393 183.781 101.235 182.641 101.235 181.07C101.235 179.499 102.393 178.358 103.99 178.358C104.794 178.358 105.484 178.658 106.037 179.249L106.931 178.409C106.228 177.594 105.161 177.147 103.924 177.147Z" fill="#263238"/>
<path d="M107.498 181.978C107.498 180.227 108.811 178.99 110.607 178.99C112.424 178.99 113.726 180.227 113.726 181.978C113.726 183.73 112.424 184.978 110.607 184.978C108.811 184.977 107.498 183.729 107.498 181.978ZM112.347 181.978C112.347 180.862 111.603 180.151 110.607 180.151C109.622 180.151 108.877 180.862 108.877 181.978C108.877 183.095 109.622 183.806 110.607 183.806C111.603 183.806 112.347 183.095 112.347 181.978Z" fill="#FAFAFA"/>
<path d="M110.605 184.996C108.793 184.996 107.479 183.726 107.479 181.978C107.479 180.236 108.793 178.972 110.605 178.972C111.49 178.972 112.291 179.271 112.859 179.814C113.43 180.359 113.743 181.127 113.743 181.978C113.743 182.83 113.43 183.601 112.859 184.148C112.29 184.694 111.49 184.996 110.605 184.996ZM110.605 179.008C108.815 179.008 107.515 180.257 107.515 181.977C107.515 183.705 108.815 184.958 110.605 184.958C111.48 184.958 112.271 184.661 112.834 184.12C113.397 183.58 113.707 182.819 113.707 181.977C113.707 181.136 113.397 180.376 112.834 179.839C112.272 179.303 111.481 179.008 110.605 179.008ZM110.605 183.824C109.577 183.824 108.858 183.065 108.858 181.978C108.858 180.891 109.576 180.132 110.605 180.132C111.641 180.132 112.364 180.891 112.364 181.978C112.364 183.065 111.641 183.824 110.605 183.824ZM110.605 180.169C109.598 180.169 108.894 180.912 108.894 181.978C108.894 183.043 109.598 183.788 110.605 183.788C111.62 183.788 112.328 183.043 112.328 181.978C112.328 180.912 111.619 180.169 110.605 180.169Z" fill="#263238"/>
<path d="M120.798 181.551V184.9H119.43V181.726C119.43 180.686 118.915 180.183 118.04 180.183C117.065 180.183 116.409 180.774 116.409 181.944V184.9H115.041V179.055H116.343V179.81C116.792 179.274 117.503 178.989 118.357 178.989C119.758 178.99 120.798 179.789 120.798 181.551Z" fill="#FAFAFA"/>
<path d="M120.816 184.919H119.411V181.726C119.411 180.729 118.937 180.202 118.039 180.202C117.015 180.202 116.426 180.836 116.426 181.945V184.919H115.021V179.037H116.36V179.761C116.809 179.251 117.516 178.971 118.356 178.971C119.083 178.971 119.691 179.187 120.115 179.596C120.58 180.044 120.815 180.703 120.815 181.551V184.919H120.816ZM119.448 184.882H120.78V181.551C120.78 179.935 119.896 179.008 118.357 179.008C117.506 179.008 116.796 179.296 116.357 179.821L116.325 179.86V179.074H115.059V184.882H116.39V181.944C116.39 180.83 117.007 180.164 118.039 180.164C118.961 180.164 119.448 180.704 119.448 181.726V184.882Z" fill="#263238"/>
<path d="M126.058 184.583C125.73 184.845 125.237 184.977 124.745 184.977C123.463 184.977 122.731 184.298 122.731 183.007V180.194H121.768V179.099H122.731V177.764H124.099V179.099H125.665V180.194H124.099V182.974C124.099 183.543 124.383 183.849 124.909 183.849C125.194 183.849 125.467 183.773 125.675 183.609L126.058 184.583Z" fill="#FAFAFA"/>
<path d="M124.745 184.996C123.434 184.996 122.713 184.29 122.713 183.007V180.213H121.75V179.081H122.713V177.745H124.118V179.081H125.684V180.213H124.118V182.974C124.118 183.535 124.391 183.831 124.91 183.831C125.207 183.831 125.469 183.75 125.665 183.595L125.684 183.579L125.693 183.602L126.081 184.589L126.07 184.597C125.754 184.85 125.271 184.996 124.745 184.996ZM121.786 180.175H122.749V183.007C122.749 184.266 123.458 184.959 124.745 184.959C125.257 184.959 125.727 184.82 126.037 184.577L125.667 183.638C125.468 183.789 125.206 183.868 124.91 183.868C124.376 183.868 124.081 183.55 124.081 182.973V180.175H125.647V179.117H124.081V177.782H122.75V179.117H121.787L121.786 180.175Z" fill="#263238"/>
<path d="M127 177.271C127 176.811 127.372 176.45 127.875 176.45C128.378 176.45 128.751 176.79 128.751 177.238C128.751 177.72 128.39 178.092 127.875 178.092C127.372 178.092 127 177.731 127 177.271ZM127.186 179.055H128.555V184.9H127.186V179.055Z" fill="#FAFAFA"/>
<path d="M128.572 184.919H127.167V179.037H128.572V184.919ZM127.203 184.882H128.534V179.074H127.203V184.882ZM127.874 178.11C127.364 178.11 126.98 177.749 126.98 177.271C126.98 176.792 127.364 176.431 127.874 176.431C128.384 176.431 128.768 176.779 128.768 177.238C128.768 177.743 128.393 178.11 127.874 178.11ZM127.874 176.468C127.386 176.468 127.017 176.814 127.017 177.271C127.017 177.728 127.386 178.074 127.874 178.074C128.371 178.074 128.732 177.723 128.732 177.238C128.732 176.8 128.363 176.468 127.874 176.468Z" fill="#263238"/>
<path d="M136.114 181.551V184.9H134.745V181.726C134.745 180.686 134.23 180.183 133.355 180.183C132.38 180.183 131.724 180.774 131.724 181.944V184.9H130.355V179.055H131.658V179.81C132.107 179.274 132.818 178.989 133.672 178.989C135.074 178.99 136.114 179.789 136.114 181.551Z" fill="#FAFAFA"/>
<path d="M136.131 184.919H134.726V181.726C134.726 180.729 134.251 180.202 133.354 180.202C132.329 180.202 131.741 180.836 131.741 181.945V184.919H130.336V179.037H131.675V179.761C132.123 179.251 132.83 178.971 133.671 178.971C134.398 178.971 135.007 179.187 135.43 179.596C135.895 180.044 136.131 180.703 136.131 181.551V184.919ZM134.762 184.882H136.093V181.551C136.093 179.935 135.21 179.008 133.671 179.008C132.82 179.008 132.11 179.296 131.671 179.821L131.638 179.86V179.074H130.372V184.882H131.703V181.944C131.703 180.83 132.32 180.164 133.352 180.164C134.274 180.164 134.761 180.704 134.761 181.726L134.762 184.882Z" fill="#263238"/>
<path d="M143.51 179.055V184.9H142.207V184.156C141.769 184.692 141.08 184.976 140.324 184.976C138.825 184.976 137.807 184.156 137.807 182.393V179.055H139.175V182.207C139.175 183.269 139.678 183.773 140.543 183.773C141.495 183.773 142.142 183.182 142.142 182.011V179.056L143.51 179.055Z" fill="#FAFAFA"/>
<path d="M140.323 184.996C139.544 184.996 138.927 184.782 138.489 184.36C138.023 183.911 137.787 183.25 137.787 182.394V179.037H139.192V182.207C139.192 183.22 139.659 183.754 140.542 183.754C141.546 183.754 142.122 183.119 142.122 182.01V179.037H143.527V184.919H142.188V184.206C141.756 184.708 141.08 184.996 140.323 184.996ZM137.824 179.074V182.394C137.824 183.239 138.056 183.892 138.515 184.333C138.945 184.748 139.555 184.958 140.323 184.958C141.089 184.958 141.77 184.662 142.192 184.145L142.224 184.104V184.882H143.49V179.074H142.158V182.011C142.158 183.125 141.554 183.792 140.542 183.792C139.635 183.792 139.155 183.244 139.155 182.208V179.075L137.824 179.074Z" fill="#263238"/>
<path d="M150.785 182.416H146.198C146.363 183.269 147.074 183.817 148.092 183.817C148.749 183.817 149.264 183.609 149.679 183.182L150.413 184.025C149.887 184.649 149.066 184.977 148.059 184.977C146.1 184.977 144.83 183.718 144.83 181.977C144.83 180.237 146.111 178.989 147.851 178.989C149.559 178.989 150.807 180.183 150.807 182.01C150.806 182.121 150.796 182.284 150.785 182.416ZM146.187 181.507H149.504C149.395 180.665 148.748 180.085 147.851 180.085C146.964 180.085 146.318 180.654 146.187 181.507Z" fill="#FAFAFA"/>
<path d="M148.058 184.996C147.102 184.996 146.285 184.701 145.696 184.144C145.125 183.604 144.811 182.834 144.811 181.978C144.811 180.236 146.089 178.972 147.85 178.972C149.601 178.972 150.823 180.221 150.823 182.011C150.823 182.145 150.808 182.34 150.801 182.418L150.8 182.435H146.218C146.391 183.277 147.106 183.799 148.09 183.799C148.736 183.799 149.251 183.593 149.663 183.169L149.677 183.155L149.69 183.17L150.434 184.026L150.424 184.038C149.897 184.664 149.078 184.996 148.058 184.996ZM147.85 179.008C146.111 179.008 144.848 180.257 144.848 181.977C144.848 182.823 145.159 183.583 145.722 184.117C146.304 184.668 147.112 184.958 148.059 184.958C149.061 184.958 149.867 184.635 150.389 184.025L149.679 183.209C149.26 183.63 148.742 183.835 148.093 183.835C147.081 183.835 146.348 183.293 146.181 182.42L146.177 182.398H150.768C150.776 182.312 150.789 182.134 150.789 182.011C150.787 180.243 149.58 179.008 147.85 179.008ZM149.524 181.525H146.165L146.168 181.504C146.302 180.631 146.963 180.066 147.85 180.066C148.737 180.066 149.409 180.644 149.521 181.505L149.524 181.525ZM146.208 181.489H149.483C149.366 180.659 148.713 180.103 147.85 180.103C146.99 180.103 146.347 180.646 146.208 181.489Z" fill="#263238"/>
<path d="M67.0614 60.3983C68.9831 60.3983 70.5409 58.8405 70.5409 56.9189C70.5409 54.9972 68.9831 53.4395 67.0614 53.4395C65.1398 53.4395 63.582 54.9972 63.582 56.9189C63.582 58.8405 65.1398 60.3983 67.0614 60.3983Z" fill="white"/>
<path d="M79.8857 60.3983C81.8073 60.3983 83.3651 58.8405 83.3651 56.9189C83.3651 54.9972 81.8073 53.4395 79.8857 53.4395C77.964 53.4395 76.4062 54.9972 76.4062 56.9189C76.4062 58.8405 77.964 60.3983 79.8857 60.3983Z" fill="white"/>
<path d="M92.704 60.3983C94.6256 60.3983 96.1834 58.8405 96.1834 56.9189C96.1834 54.9972 94.6256 53.4395 92.704 53.4395C90.7824 53.4395 89.2246 54.9972 89.2246 56.9189C89.2246 58.8405 90.7824 60.3983 92.704 60.3983Z" fill="white"/>
<path d="M57.0515 215.92C61.5891 213.579 66.9318 213.274 71.9688 214.107C74.6752 214.555 77.4965 215.364 79.3379 217.396C81.1792 219.429 81.528 223.006 79.4139 224.753C78.1554 225.793 76.4003 225.951 74.7674 225.932C70.8236 225.886 66.4491 225.192 63.2988 227.564C61.5013 228.918 60.3049 231.168 58.1557 231.834C56.0533 232.485 53.681 231.244 52.5666 229.347C51.4521 227.449 51.4148 225.078 51.934 222.939C51.934 222.939 52.481 218.277 57.0515 215.92Z" fill="#455A64"/>
<path d="M46.6478 195.853C49.4222 199.815 54.8146 198.503 57.3149 196.085C59.8151 193.666 60.8718 190.161 61.8334 186.817C64.0317 179.179 66.2474 171.167 64.613 163.389C64.1245 161.063 63.255 158.744 61.6206 157.019C59.9862 155.294 57.4736 154.268 55.1766 154.875C52.4577 155.593 50.7678 158.257 49.5465 160.79C45.9567 168.236 44.0554 176.49 44.0276 184.757C44.0152 188.617 44.47 192.665 46.6478 195.853Z" fill="#455A64"/>
<path d="M39.03 201.539C42.0421 197.963 42.614 192.749 41.2735 188.27C39.9331 183.791 36.9049 179.981 33.4153 176.871C29.323 173.224 24.5134 170.386 19.3426 168.568C17.3074 167.852 15.1611 167.288 13.0141 167.493C10.8664 167.697 8.70397 168.795 7.70285 170.706C6.22201 173.53 7.64216 176.957 9.17783 179.752C11.8836 184.676 14.9769 189.387 18.4204 193.827C21.1905 197.398 24.3642 200.921 28.5866 202.535C32.809 204.149 37.1945 203.96 39.4329 201.032" fill="#455A64"/>
<path d="M46.4551 255.627C46.507 255.63 46.5911 254.988 46.7059 253.827C46.8331 252.516 46.994 250.871 47.1841 248.913C47.413 246.845 47.715 244.385 48.2898 241.705C48.8624 239.032 49.7582 236.136 50.9093 233.198C52.1012 230.278 53.555 227.624 55.253 225.501C56.9394 223.368 58.9014 221.825 60.7449 220.936C62.5826 220.028 64.2309 219.659 65.3695 219.496C66.5184 219.378 67.1619 219.287 67.1626 219.236C67.1633 219.185 66.5184 219.177 65.3381 219.208C64.1688 219.287 62.4525 219.583 60.5153 220.463C58.5723 221.325 56.4911 222.892 54.7221 225.069C52.9385 227.236 51.4321 229.949 50.2197 232.921C49.0489 235.911 48.1655 238.836 47.6185 241.567C47.073 244.293 46.8236 246.781 46.6605 248.866C46.5048 250.953 46.4455 252.642 46.417 253.81C46.3914 254.978 46.4046 255.624 46.4551 255.627Z" fill="#263238"/>
<path d="M46.8053 251.846C46.8309 251.845 46.847 251.557 46.8536 251.01C46.8514 250.383 46.8499 249.592 46.847 248.621C46.8411 246.548 46.8426 243.548 46.953 239.842C47.1366 232.432 47.775 224.457 49.0072 213.213C50.1743 202.64 51.7407 190.336 53.3934 182.336C53.7481 180.517 54.1049 178.88 54.4413 177.446C54.7616 176.009 55.0351 174.771 55.2991 173.768C55.5258 172.825 55.7108 172.056 55.8571 171.445C55.977 170.912 56.0282 170.628 56.0033 170.621C55.9784 170.614 55.879 170.884 55.713 171.404C55.5309 172.006 55.3013 172.763 55.019 173.694C54.7111 174.687 54.396 175.918 54.0362 177.349C53.661 178.776 53.2669 180.41 52.8786 182.227C51.2427 189.475 49.5118 199.606 48.2671 210.877C47.032 222.145 46.4762 232.404 46.4265 239.833C46.3826 243.547 46.4616 246.554 46.5559 248.629C46.6152 249.599 46.6634 250.389 46.7015 251.016C46.7453 251.562 46.7797 251.848 46.8053 251.846Z" fill="#263238"/>
<path d="M46.842 232.06C46.8939 232.057 46.8851 231.171 46.8244 229.564C46.7323 227.96 46.5122 225.642 46.0603 222.802C45.5813 219.969 44.9122 216.605 43.8613 212.951C43.4057 211.28 42.3351 207.276 39.742 201.293C36.3248 193.187 31.6826 186.56 27.6438 182.455C26.6968 181.365 25.6416 180.579 24.7977 179.809C24.3611 179.44 23.975 179.072 23.5816 178.78C23.1867 178.507 22.8181 178.254 22.4773 178.019C21.1479 177.11 20.4034 176.63 20.3764 176.674C20.2572 176.836 23.3534 178.659 27.2635 182.818C31.1576 186.969 35.6703 193.551 39.0597 201.589C40.9501 205.949 42.2679 209.838 43.2024 213.139C44.2825 216.758 45.0006 220.088 45.5425 222.892C46.0581 225.703 46.3564 227.998 46.5363 229.588C46.6848 231.179 46.7908 232.062 46.842 232.06Z" fill="#263238"/>
<path d="M27.7168 266.964L33.6167 297.062H61.4718L66.5783 266.964H27.7168Z" fill="#92E3A9"/>
<path d="M70.7493 256.257H24.3535V266.963H70.7493V256.257Z" fill="#92E3A9"/>
<path d="M65.1588 275.841C65.1661 275.848 65.1134 275.932 65.0023 276.09C64.8692 276.274 64.7047 276.502 64.5021 276.782C64.026 277.416 63.373 278.288 62.5503 279.383L62.4633 279.499L62.3792 279.378C61.1521 277.611 59.5141 275.25 57.5842 272.47H57.8599C56.4339 274.574 54.8449 276.917 53.1395 279.433L52.9918 279.651L52.8265 279.445C51.0846 277.287 49.1928 274.941 47.2279 272.507L47.5504 272.503C47.4531 272.63 47.3478 272.767 47.2425 272.906C45.5065 275.173 43.826 277.367 42.2369 279.442L42.0702 279.66L41.9159 279.434C40.2164 276.929 38.6288 274.589 37.1926 272.473L37.4675 272.487C35.1399 275.249 33.1662 277.592 31.651 279.39L31.5479 279.513L31.4689 279.374C30.7025 278.033 30.0912 276.963 29.648 276.188C29.4579 275.842 29.3036 275.562 29.1807 275.339C29.0776 275.145 29.0293 275.042 29.0381 275.037C29.0469 275.031 29.1134 275.123 29.2334 275.306C29.3694 275.521 29.5398 275.79 29.7504 276.122C30.2155 276.884 30.8575 277.935 31.6619 279.252L31.4799 279.236C32.9702 277.416 34.9125 275.045 37.2028 272.25L37.3469 272.073L37.4778 272.263C38.9264 274.369 40.5287 276.699 42.2428 279.192L41.9218 279.183C43.5072 277.105 45.1832 274.907 46.9156 272.636C47.0209 272.498 47.1262 272.361 47.2235 272.234L47.3829 272.025L47.5467 272.229C49.5058 274.668 51.3918 277.018 53.1293 279.181L52.8156 279.193C54.5385 276.69 56.1429 274.359 57.5828 272.266L57.7224 272.063L57.8592 272.266C59.7481 275.075 61.3518 277.462 62.5525 279.248L62.3821 279.242C63.2377 278.174 63.9171 277.325 64.4122 276.707C64.6323 276.441 64.8114 276.226 64.9555 276.052C65.0827 275.907 65.1515 275.835 65.1588 275.841Z" fill="white"/>
<path d="M67.0704 266.784C67.0704 266.904 58.3265 267.002 47.5431 267.002C36.7553 267.002 28.0137 266.904 28.0137 266.784C28.0137 266.664 36.7553 266.567 47.5431 266.567C58.3265 266.567 67.0704 266.664 67.0704 266.784Z" fill="#263238"/>
<path d="M325.908 210.3L331.571 216.378C331.571 216.378 355.257 256.099 358.641 258.649C362.024 261.2 367.675 264.139 371.066 263.686C374.456 263.234 383.452 257.131 383.452 257.131L375.597 232.996L366.659 230.548L342.529 202.586L325.908 210.3Z" fill="#FFBE9D"/>
<path d="M330.427 215.088C328.416 212.665 323.229 207.686 323.229 207.686L321.044 205.353C320.943 205.54 320.867 205.747 320.801 205.951C320.674 206.338 320.544 206.746 320.245 207.022C319.679 207.546 318.757 207.375 318.084 206.998C316.676 206.208 315.749 204.626 315.748 203.011C315.748 201.459 316.608 199.945 317.923 199.126C318.036 198.732 318.222 198.335 318.524 197.946C320.38 195.565 324.726 195.885 324.726 195.885L324.075 194.96C324.075 194.96 321.113 193.114 316.185 196.239C315.449 196.705 314.562 196.925 313.703 196.78C313.177 196.691 312.667 196.467 312.378 195.977C311.659 194.756 312.337 193.929 315.387 191.936C318.437 189.943 322.035 189.032 324.321 189.879C326.606 190.727 327.445 191.207 327.445 191.207C327.445 191.207 322.064 182.521 321.746 181.958C320.824 180.328 320.78 178.548 321.807 177.826C322.466 177.362 323.637 177.265 324.767 179.13C325.746 180.744 337.877 195.994 337.877 195.994L342.848 203.058L330.427 215.088Z" fill="#FFBE9D"/>
<path d="M341.037 203.33C340.275 204.137 338.929 204.037 337.943 203.529C336.956 203.02 336.171 202.191 335.224 201.612C332.391 199.881 328.519 200.588 325.772 198.723C325.389 198.464 324.998 198.023 325.171 197.593C325.331 197.196 325.85 197.117 326.279 197.1C329.941 196.949 333.604 196.799 337.266 196.647" fill="#FFBE9D"/>
<path d="M337.291 196.647C337.29 196.604 336.865 196.58 336.098 196.574C335.331 196.568 334.223 196.58 332.854 196.608C331.429 196.647 329.812 196.69 328.046 196.739C327.592 196.754 327.129 196.769 326.656 196.786C326.217 196.834 325.622 196.702 325.067 197.225C324.803 197.499 324.792 197.972 324.955 198.259C325.104 198.557 325.32 198.759 325.551 198.933C326.007 199.237 326.475 199.497 326.984 199.692C329.021 200.478 331.055 200.513 332.773 200.946C333.636 201.148 334.426 201.43 335.092 201.823C335.758 202.215 336.325 202.708 336.896 203.108C338.008 203.97 339.274 204.22 340.05 203.997C340.851 203.788 341.088 203.33 341.061 203.33C341.023 203.279 340.733 203.645 340.004 203.758C339.276 203.879 338.196 203.616 337.159 202.751C336.624 202.345 336.072 201.827 335.361 201.379C334.65 200.93 333.807 200.612 332.912 200.385C331.129 199.91 329.097 199.844 327.216 199.11C326.748 198.933 326.31 198.686 325.918 198.429C325.545 198.167 325.345 197.791 325.529 197.629C325.703 197.422 326.209 197.4 326.679 197.385C327.151 197.363 327.614 197.34 328.068 197.317C329.831 197.22 331.448 197.131 332.87 197.052C334.237 196.967 335.342 196.888 336.106 196.818C336.871 196.75 337.293 196.69 337.291 196.647Z" fill="#EB996E"/>
<path d="M324.862 195.86C324.802 195.917 324.45 195.074 323.267 194.528C322.687 194.264 321.909 194.167 321.08 194.351C320.246 194.525 319.387 194.941 318.515 195.446C317.64 195.948 316.786 196.451 315.92 196.73C315.06 197.006 314.221 197.092 313.531 196.931C312.829 196.778 312.397 196.292 312.254 195.94C312.102 195.58 312.112 195.363 312.127 195.361C312.165 195.35 312.212 195.557 312.393 195.866C312.573 196.171 312.963 196.547 313.591 196.651C314.208 196.762 314.996 196.656 315.8 196.377C316.609 196.095 317.431 195.602 318.315 195.094C319.196 194.584 320.106 194.151 321.006 193.986C321.904 193.806 322.775 193.946 323.389 194.27C324.011 194.586 324.396 195.015 324.609 195.327C324.824 195.644 324.882 195.85 324.862 195.86Z" fill="#EB996E"/>
<path d="M321.415 181.324C321.466 181.297 321.862 181.964 322.497 183.043C323.208 184.241 324.056 185.669 324.993 187.247C325.954 188.811 326.824 190.226 327.553 191.414C328.212 192.477 328.619 193.137 328.572 193.171C328.528 193.202 328.038 192.598 327.314 191.572C326.59 190.546 325.638 189.096 324.647 187.457C323.657 185.817 322.816 184.3 322.246 183.182C321.673 182.064 321.367 181.348 321.415 181.324Z" fill="#EB996E"/>
<path d="M324.118 199.025C324.12 199.056 323.891 199.078 323.491 199.137C323.112 199.201 322.475 199.318 322.112 199.889C321.934 200.164 321.928 200.528 322.101 200.888C322.261 201.25 322.561 201.584 322.87 201.966C323.171 202.339 323.516 202.836 323.494 203.458C323.464 204.063 323.105 204.625 322.585 204.957C322.054 205.299 321.405 205.337 320.86 205.197C320.31 205.052 319.83 204.776 319.477 204.376C318.833 203.598 318.445 202.806 318.152 202.122C317.872 201.434 317.735 200.837 317.722 200.416C317.71 199.993 317.801 199.769 317.818 199.775C317.855 199.782 317.82 200.006 317.878 200.401C317.937 200.796 318.11 201.355 318.414 202.007C318.725 202.649 319.146 203.425 319.754 204.126C320.336 204.76 321.507 205.158 322.367 204.616C322.787 204.35 323.073 203.891 323.098 203.44C323.123 202.985 322.865 202.566 322.576 202.196C322.289 201.822 321.97 201.455 321.793 201.02C321.597 200.601 321.62 200.067 321.871 199.734C322.367 199.054 323.089 199.003 323.476 198.98C323.892 198.968 324.117 199 324.118 199.025Z" fill="#EB996E"/>
<path d="M320.844 204.845C320.858 204.832 321.019 204.989 321.095 205.367C321.167 205.732 321.116 206.353 320.627 206.88C320.148 207.394 319.255 207.684 318.357 207.452C317.46 207.228 316.645 206.553 316.107 205.674C315.568 204.79 315.359 203.781 315.435 202.891C315.504 201.994 315.851 201.239 316.232 200.695C316.617 200.146 317.039 199.798 317.347 199.595C317.657 199.393 317.852 199.326 317.863 199.347C317.912 199.409 317.149 199.778 316.471 200.853C316.142 201.385 315.85 202.096 315.807 202.917C315.756 203.734 315.959 204.656 316.452 205.464C316.941 206.268 317.679 206.881 318.451 207.092C319.219 207.31 319.996 207.088 320.425 206.676C320.86 206.261 320.958 205.721 320.937 205.386C320.918 205.04 320.812 204.861 320.844 204.845Z" fill="#EB996E"/>
<path d="M330.403 207.021C330.382 206.991 330.657 206.737 331.244 206.526C331.82 206.316 332.742 206.185 333.729 206.52L333.488 206.784C333.303 206.395 333.125 205.962 332.973 205.503C332.112 202.949 332.458 200.735 332.556 200.767C332.679 200.765 332.525 202.918 333.357 205.375C333.505 205.819 333.671 206.24 333.84 206.621L334.026 207.042L333.598 206.884C332.72 206.561 331.872 206.625 331.312 206.759C330.744 206.893 330.43 207.068 330.403 207.021Z" fill="#EB996E"/>
<path d="M321.169 192.27C321.275 192.26 321.319 193.091 320.752 193.886C320.192 194.686 319.394 194.921 319.368 194.817C319.318 194.711 319.939 194.351 320.422 193.653C320.919 192.963 321.052 192.257 321.169 192.27Z" fill="#EB996E"/>
<path d="M311.796 331.504C311.796 331.504 302.264 333.564 293.753 332.288C285.773 331.091 267.907 332.33 267.914 342.846C267.921 354.576 291.745 351.678 301.041 349.818C310.337 347.959 319.593 346.274 319.593 346.274L311.796 331.504Z" fill="#455A64"/>
<path d="M290.399 346.53C290.276 346.558 289.761 344.73 289.248 342.448C288.735 340.166 288.419 338.293 288.542 338.266C288.665 338.238 289.181 340.066 289.694 342.348C290.206 344.63 290.522 346.503 290.399 346.53Z" fill="#263238"/>
<path d="M293.656 346.686C293.531 346.703 293.171 344.829 292.852 342.501C292.532 340.171 292.375 338.27 292.5 338.253C292.625 338.235 292.985 340.109 293.304 342.438C293.624 344.766 293.782 346.668 293.656 346.686Z" fill="#263238"/>
<path d="M296.793 345.459C296.668 345.474 296.368 343.836 296.122 341.802C295.876 339.767 295.779 338.105 295.904 338.09C296.029 338.075 296.33 339.712 296.575 341.747C296.821 343.782 296.918 345.444 296.793 345.459Z" fill="#263238"/>
<path d="M301.723 344.228C301.612 344.276 300.935 342.908 300.496 341.088C300.051 339.268 300.025 337.742 300.146 337.735C300.277 337.723 300.504 339.2 300.94 340.98C301.369 342.762 301.845 344.179 301.723 344.228Z" fill="#263238"/>
<path d="M302.779 339.941C302.777 339.915 303.218 339.84 304.025 339.858C304.828 339.881 306.008 340.011 307.372 340.513C307.716 340.642 308.074 340.808 308.403 341.068C308.728 341.319 309.036 341.728 309.048 342.23C309.059 343.268 307.92 344.016 306.89 343.798C305.848 343.6 305.056 342.838 304.401 342.027C303.738 341.197 303.259 340.183 302.993 339.094C302.471 336.906 302.859 334.643 304.043 333.02C304.215 332.826 304.453 332.639 304.751 332.595C305.04 332.545 305.352 332.657 305.543 332.842C305.934 333.213 306.071 333.681 306.14 334.121C306.251 334.982 306.19 335.797 306.014 336.506C305.671 337.939 304.956 338.931 304.406 339.515C304.125 339.807 303.883 340.008 303.71 340.132C303.536 340.254 303.441 340.311 303.431 340.299C303.405 340.266 303.763 339.999 304.273 339.397C304.769 338.794 305.413 337.81 305.699 336.436C305.848 335.755 305.885 334.982 305.766 334.177C305.705 333.799 305.553 333.387 305.279 333.144C305.009 332.895 304.623 332.965 304.359 333.298C303.329 334.747 302.93 336.938 303.437 338.987C303.688 340.015 304.136 340.97 304.754 341.751C305.362 342.522 306.112 343.221 306.964 343.384C307.78 343.584 308.686 342.949 308.67 342.238C308.668 341.884 308.458 341.567 308.18 341.339C307.903 341.108 307.576 340.943 307.256 340.813C305.946 340.288 304.801 340.111 304.014 340.035C303.224 339.964 302.781 339.978 302.779 339.941Z" fill="#263238"/>
<path d="M318.65 344.723C318.651 344.731 318.57 344.757 318.41 344.799C318.224 344.846 317.989 344.904 317.695 344.977C317.032 345.129 316.107 345.339 314.931 345.607C312.526 346.135 309.039 346.878 304.705 347.715C300.371 348.545 295.195 349.496 289.391 350.287C286.498 350.675 283.399 351.028 280.191 350.745C278.589 350.628 276.959 350.353 275.371 349.824C274.585 349.541 273.794 349.234 273.058 348.797C272.32 348.359 271.61 347.882 271.026 347.16L271.061 347.199C270.767 346.914 270.459 346.589 270.232 346.204C269.258 344.647 269.227 342.713 269.747 341.071C270.282 339.394 271.476 338.058 272.804 337.076C274.149 336.097 275.646 335.413 277.148 334.924C277.908 334.708 278.648 334.447 279.402 334.276C280.159 334.126 280.898 333.925 281.645 333.822C287.62 332.878 293.054 333.358 297.569 333.359C299.833 333.401 301.878 333.34 303.67 333.23C305.46 333.095 306.994 332.892 308.234 332.653C308.849 332.524 309.397 332.409 309.878 332.308C310.337 332.177 310.732 332.064 311.062 331.971C311.363 331.888 311.604 331.821 311.793 331.77C311.959 331.726 312.046 331.708 312.048 331.715C312.051 331.723 311.97 331.756 311.809 331.813C311.622 331.877 311.385 331.957 311.09 332.058C310.762 332.164 310.37 332.292 309.913 332.439C309.432 332.553 308.884 332.683 308.27 332.828C307.028 333.095 305.488 333.325 303.69 333.485C301.891 333.62 299.836 333.704 297.568 333.683C293.043 333.721 287.612 333.28 281.716 334.237C280.978 334.341 280.251 334.543 279.505 334.694C278.762 334.864 278.036 335.124 277.288 335.337C275.815 335.822 274.361 336.493 273.07 337.437C271.795 338.382 270.673 339.653 270.18 341.211C269.692 342.748 269.735 344.557 270.619 345.961C270.823 346.31 271.102 346.601 271.366 346.859L271.38 346.874L271.401 346.899C271.884 347.499 272.589 347.997 273.285 348.402C273.989 348.821 274.754 349.118 275.515 349.394C277.056 349.91 278.652 350.183 280.227 350.302C283.385 350.585 286.442 350.25 289.337 349.872C295.129 349.107 300.307 348.19 304.646 347.401C308.984 346.604 312.48 345.91 314.895 345.435C316.078 345.202 317.008 345.02 317.675 344.888C317.973 344.833 318.211 344.788 318.399 344.753C318.564 344.726 318.648 344.715 318.65 344.723Z" fill="#263238"/>
<path d="M283.79 350.371C283.722 350.372 283.668 349.438 283.559 347.934C283.451 346.431 283.271 344.358 282.968 342.081C282.661 339.803 282.289 337.756 281.997 336.276C281.706 334.798 281.514 333.882 281.579 333.865C281.636 333.85 281.939 334.738 282.313 336.206C282.686 337.674 283.113 339.727 283.42 342.021C283.727 344.313 283.856 346.406 283.881 347.921C283.907 349.434 283.849 350.37 283.79 350.371Z" fill="#263238"/>
<g opacity="0.4">
<path d="M308.863 332.011L314.904 347.142L319.593 346.274L310.614 331.504L308.863 332.011Z" fill="black"/>
</g>
<path d="M370.16 296.709L384.35 265.052L376.135 237.889C373.643 229.651 374.225 220.788 377.774 212.948L391.623 186.103L403.99 181.694L433.01 177.826C433.524 177.997 434.98 178.083 443.575 180.94C450.798 183.342 456.915 188.261 460.812 194.799L437.368 263.179C437.368 263.179 453.268 297.971 451.275 313.921L370.16 296.709Z" fill="#27DEBF"/>
<path d="M393.946 185.397C393.946 185.397 377.713 188.99 371.795 211.141L364.514 234.727L377.835 235.548L393.946 185.397Z" fill="#27DEBF"/>
<path d="M376.615 236.315C376.604 236.319 376.554 236.206 376.468 235.986C376.387 235.764 376.25 235.442 376.117 235.013C375.861 234.153 375.551 232.881 375.43 231.273C375.17 228.071 375.806 223.527 377.927 219.08C378.455 217.973 379.047 216.92 379.642 215.94C380.227 214.95 380.787 213.992 381.289 213.064C382.307 211.216 383.019 209.456 383.52 207.94C384.02 206.424 384.382 205.18 384.646 204.325C384.77 203.927 384.872 203.602 384.953 203.341C385.027 203.118 385.071 203.001 385.083 203.004C385.094 203.007 385.072 203.129 385.019 203.36C384.953 203.625 384.872 203.956 384.772 204.361C384.547 205.227 384.221 206.481 383.748 208.014C383.274 209.545 382.574 211.342 381.563 213.211C381.065 214.149 380.509 215.113 379.927 216.107C379.331 217.098 378.757 218.126 378.232 219.224C376.136 223.62 375.472 228.091 375.668 231.258C375.756 232.848 376.027 234.113 376.243 234.977C376.488 235.833 376.642 236.304 376.615 236.315Z" fill="#263238"/>
<path d="M336.323 309.695C336.248 309.796 328.633 304.244 319.318 297.297C310 290.346 302.509 284.632 302.585 284.531C302.66 284.43 310.272 289.98 319.591 296.93C328.907 303.878 336.399 309.594 336.323 309.695Z" fill="#455A64"/>
<path d="M449.946 310.741L426.91 291.805C424.37 277.698 411.372 267.156 396.303 268.528C390.624 269.045 385.231 271.256 380.823 274.872L367.469 285.338C346.712 279.677 315.157 270.829 298.941 266.27C292.309 264.405 285.199 265.482 279.417 269.224L279.113 269.421C270.625 274.915 266.494 285.143 268.786 294.991C270.241 301.244 274.137 306.649 279.612 310.003C287.803 315.021 300.489 322.762 311.396 329.285L309.949 330.419L319.588 346.274L339.433 340.156C352.847 338.242 381.17 334.558 381.17 334.558L373.071 329.785L374.925 329.213C390.349 342.354 409.21 348.404 432.56 338.21C444.085 332.809 451.279 319.826 449.946 310.741Z" fill="#263238"/>
<path d="M410.477 308.627C410.482 308.633 410.418 308.692 410.29 308.802C410.139 308.926 409.949 309.083 409.71 309.279C409.169 309.711 408.413 310.314 407.454 311.08C406.959 311.47 406.412 311.903 405.815 312.374C405.217 312.848 404.512 313.288 403.784 313.802C403.048 314.306 402.262 314.845 401.429 315.416C401.01 315.699 400.587 316.001 400.139 316.29C399.682 316.565 399.213 316.848 398.733 317.137C396.806 318.287 394.728 319.604 392.372 320.793C391.203 321.405 390.011 322.071 388.752 322.694C387.482 323.296 386.175 323.915 384.835 324.551C379.44 327.01 373.396 329.484 366.918 331.687C353.973 336.148 342.004 339.36 333.432 341.958C331.283 342.59 329.345 343.182 327.649 343.719C325.949 344.244 324.485 344.697 323.299 345.1C322.132 345.479 321.214 345.777 320.555 345.991C320.261 346.082 320.024 346.155 319.838 346.212C319.676 346.259 319.591 346.28 319.588 346.273C319.585 346.265 319.665 346.23 319.822 346.168C320.004 346.099 320.236 346.013 320.525 345.904C321.177 345.671 322.086 345.345 323.242 344.931C324.42 344.501 325.877 344.023 327.571 343.475C329.261 342.915 331.194 342.3 333.337 341.649C341.891 338.969 353.845 335.709 366.767 331.255C373.235 329.055 379.267 326.6 384.658 324.168C385.997 323.54 387.303 322.928 388.573 322.333C389.832 321.718 391.023 321.061 392.193 320.459C394.55 319.286 396.632 317.99 398.563 316.861C399.045 316.577 399.515 316.3 399.974 316.029C400.424 315.745 400.849 315.449 401.27 315.171C402.107 314.612 402.897 314.084 403.638 313.59C404.371 313.087 405.081 312.659 405.686 312.196C406.29 311.737 406.844 311.317 407.345 310.937C408.326 310.2 409.098 309.621 409.651 309.205C409.901 309.023 410.101 308.878 410.259 308.763C410.399 308.668 410.472 308.621 410.477 308.627Z" fill="#455A64"/>
<path d="M412.189 316.041C412.2 316.07 411.946 316.202 411.473 316.416C411.002 316.632 410.309 316.914 409.44 317.237C407.705 317.884 405.256 318.65 402.49 319.247C399.723 319.84 397.174 320.147 395.327 320.269C394.403 320.332 393.654 320.359 393.136 320.356C392.618 320.355 392.332 320.34 392.33 320.308C392.327 320.238 393.466 320.153 395.298 319.948C397.128 319.744 399.648 319.388 402.395 318.8C405.139 318.209 407.582 317.497 409.335 316.931C411.088 316.367 412.162 315.976 412.189 316.041Z" fill="#455A64"/>
<path d="M377.995 277.537C378.072 277.636 362.903 289.556 344.117 304.156C325.326 318.762 310.034 330.517 309.957 330.418C309.88 330.319 325.046 318.402 343.837 303.796C362.622 289.195 377.917 277.437 377.995 277.537Z" fill="#455A64"/>
<path d="M432.536 328.69C432.519 328.69 432.503 328.52 432.489 328.197C432.479 327.815 432.467 327.348 432.452 326.783C432.44 325.556 432.386 323.781 432.279 321.591C432.07 317.212 431.515 311.17 430.29 304.595C429.053 298.018 427.384 292.185 425.994 288.027C425.302 285.947 424.709 284.272 424.277 283.124C424.086 282.592 423.929 282.152 423.8 281.793C423.696 281.487 423.649 281.322 423.665 281.316C423.681 281.309 423.76 281.461 423.895 281.755C424.048 282.105 424.235 282.533 424.461 283.052C424.951 284.18 425.596 285.839 426.334 287.91C427.814 292.05 429.546 297.895 430.789 304.5C432.019 311.105 432.52 317.181 432.637 321.576C432.699 323.775 432.697 325.554 432.649 326.784C432.626 327.349 432.607 327.816 432.59 328.198C432.572 328.521 432.554 328.69 432.536 328.69Z" fill="#455A64"/>
<path d="M374.034 328.449C374.04 328.443 374.107 328.493 374.231 328.595C374.376 328.719 374.554 328.871 374.774 329.058C375.254 329.459 375.92 330.101 376.841 330.85C378.69 332.338 381.443 334.417 385.169 336.451C388.888 338.481 393.598 340.421 399.062 341.675C399.74 341.857 400.438 341.979 401.145 342.101C401.851 342.223 402.564 342.364 403.288 342.475C404.746 342.627 406.226 342.872 407.751 342.913C410.791 343.136 413.958 343.007 417.164 342.631C417.964 342.52 418.759 342.409 419.549 342.299C420.331 342.14 421.107 341.981 421.878 341.824C423.42 341.513 424.913 341.082 426.364 340.621C429.258 339.671 431.96 338.484 434.385 337.087C439.26 334.321 442.922 330.679 445.256 327.159C447.63 323.642 448.738 320.331 449.27 318.032C449.529 316.876 449.667 315.963 449.741 315.343C449.775 315.057 449.803 314.825 449.826 314.636C449.848 314.476 449.864 314.395 449.873 314.396C449.882 314.396 449.883 314.479 449.878 314.639C449.869 314.83 449.857 315.064 449.842 315.352C449.801 315.979 449.695 316.901 449.463 318.074C448.987 320.403 447.92 323.771 445.555 327.357C443.232 330.946 439.541 334.67 434.619 337.492C432.172 338.916 429.441 340.126 426.519 341.092C425.053 341.562 423.547 342 421.989 342.315C421.21 342.475 420.425 342.635 419.636 342.797C418.838 342.908 418.035 343.021 417.227 343.133C413.989 343.513 410.791 343.64 407.722 343.408C406.183 343.363 404.69 343.112 403.219 342.954C402.488 342.839 401.77 342.695 401.058 342.568C400.345 342.442 399.642 342.315 398.959 342.129C393.454 340.839 388.72 338.847 384.997 336.764C381.267 334.676 378.532 332.54 376.715 330.999C375.81 330.223 375.164 329.557 374.704 329.13C374.499 328.928 374.331 328.764 374.195 328.63C374.082 328.517 374.027 328.455 374.034 328.449Z" fill="#455A64"/>
<path d="M384.934 333.141C380.936 331.009 376.448 332.27 372.622 333.559C370.076 334.418 367.43 335.776 364.844 335.048C362.974 334.521 361.584 333.006 360.155 331.689C354.395 326.376 346.451 323.478 338.611 323.97C336.383 324.11 334.207 325.005 332.694 326.645C328.767 330.898 331.729 336.433 335.238 340.01C341.433 346.323 349.869 350.393 358.667 351.311C365.979 352.075 376.034 351.064 383.45 347.889C388.022 345.932 390.368 340.538 387.969 336.181C387.27 334.912 386.248 333.843 384.934 333.141Z" fill="#455A64"/>
<g opacity="0.4">
<path d="M384.918 336.546C380.92 334.413 376.431 335.674 372.606 336.963C370.06 337.822 367.414 339.181 364.828 338.452C362.958 337.926 361.567 336.411 360.139 335.093C354.378 329.781 346.435 326.883 338.594 327.374C336.367 327.514 334.191 328.41 332.678 330.049C331.808 330.991 331.292 331.998 331.029 333.031C331.611 335.587 333.331 338.083 335.222 340.01C341.417 346.324 349.853 350.393 358.651 351.312C365.963 352.076 376.018 351.065 383.435 347.89C386.184 346.713 388.117 344.292 388.709 341.604C388.554 340.919 388.313 340.24 387.953 339.586C387.253 338.316 386.232 337.246 384.918 336.546Z" fill="black"/>
</g>
<path d="M388.716 341.603C388.642 341.627 388.662 340.626 387.736 339.235C387.271 338.555 386.58 337.789 385.597 337.142C384.629 336.488 383.376 335.922 381.921 335.735C378.953 335.387 375.514 336.636 371.692 337.67C369.803 338.171 367.74 338.935 365.482 338.652C364.379 338.508 363.273 338.143 362.288 337.546C361.305 336.957 360.412 336.23 359.542 335.479C356.249 332.264 352.343 330.252 348.609 328.982C346.74 328.355 344.906 327.942 343.169 327.719C341.431 327.49 339.795 327.462 338.33 327.691C336.867 327.918 335.597 328.399 334.587 328.997C333.582 329.606 332.835 330.311 332.295 330.94C331.234 332.225 330.875 333.104 330.818 333.071C330.818 333.071 331.101 332.162 332.133 330.807C332.66 330.144 333.406 329.395 334.43 328.741C335.458 328.098 336.764 327.574 338.269 327.315C339.773 327.054 341.458 327.063 343.224 327.277C344.993 327.484 346.863 327.888 348.765 328.512C350.67 329.132 352.604 329.978 354.504 331.045C355.444 331.592 356.403 332.16 357.298 332.864C358.188 333.561 359.03 334.326 359.894 335.072C360.756 335.818 361.628 336.526 362.562 337.087C363.489 337.651 364.51 337.989 365.55 338.13C367.642 338.407 369.648 337.692 371.563 337.193C375.366 336.198 378.865 334.951 381.969 335.359C385.049 335.849 387.033 337.7 387.911 339.121C388.362 339.848 388.563 340.49 388.651 340.927C388.725 341.368 388.73 341.602 388.716 341.603Z" fill="#263238"/>
<path d="M388.716 341.603C388.642 341.627 388.662 340.626 387.736 339.235C387.271 338.555 386.58 337.789 385.597 337.142C384.629 336.488 383.376 335.922 381.921 335.735C378.953 335.387 375.514 336.636 371.692 337.67C369.803 338.171 367.74 338.935 365.482 338.652C364.379 338.508 363.273 338.143 362.288 337.546C361.305 336.957 360.412 336.23 359.542 335.479C356.249 332.264 352.343 330.252 348.609 328.982C346.74 328.355 344.906 327.942 343.169 327.719C341.431 327.49 339.795 327.462 338.33 327.691C336.867 327.918 335.597 328.399 334.587 328.997C333.582 329.606 332.835 330.311 332.295 330.94C331.234 332.225 330.875 333.104 330.818 333.071C330.818 333.071 331.101 332.162 332.133 330.807C332.66 330.144 333.406 329.395 334.43 328.741C335.458 328.098 336.764 327.574 338.269 327.315C339.773 327.054 341.458 327.063 343.224 327.277C344.993 327.484 346.863 327.888 348.765 328.512C350.67 329.132 352.604 329.978 354.504 331.045C355.444 331.592 356.403 332.16 357.298 332.864C358.188 333.561 359.03 334.326 359.894 335.072C360.756 335.818 361.628 336.526 362.562 337.087C363.489 337.651 364.51 337.989 365.55 338.13C367.642 338.407 369.648 337.692 371.563 337.193C375.366 336.198 378.865 334.951 381.969 335.359C385.049 335.849 387.033 337.7 387.911 339.121C388.362 339.848 388.563 340.49 388.651 340.927C388.725 341.368 388.73 341.602 388.716 341.603Z" fill="#263238"/>
<path d="M339.13 340.641C339.094 340.581 339.864 340.022 341.177 339.222C342.489 338.422 344.351 337.394 346.474 336.394C348.598 335.397 350.578 334.619 352.031 334.119C353.484 333.618 354.407 333.381 354.429 333.448C354.455 333.522 353.578 333.886 352.167 334.474C350.755 335.062 348.812 335.89 346.703 336.881C344.594 337.873 342.718 338.841 341.364 339.553C340.011 340.264 339.17 340.707 339.13 340.641Z" fill="#263238"/>
<path d="M340.503 344.639C340.438 344.506 343.935 342.682 348.311 340.566C352.69 338.45 356.29 336.842 356.354 336.976C356.418 337.11 352.923 338.933 348.545 341.05C344.168 343.166 340.567 344.773 340.503 344.639Z" fill="#263238"/>
<path d="M357.067 346.373C356.988 346.499 352.727 343.957 347.552 340.696C342.375 337.435 338.244 334.69 338.323 334.565C338.402 334.439 342.662 336.981 347.839 340.242C353.014 343.502 357.146 346.247 357.067 346.373Z" fill="#263238"/>
<path d="M359.463 342.224C359.415 342.284 358.631 341.734 357.377 340.831C356.124 339.927 354.395 338.679 352.46 337.337C350.524 335.995 348.748 334.814 347.463 333.957C346.177 333.1 345.386 332.559 345.425 332.493C345.462 332.432 346.322 332.858 347.663 333.635C349.004 334.412 350.821 335.547 352.766 336.895C354.709 338.243 356.41 339.546 357.608 340.529C358.807 341.513 359.507 342.169 359.463 342.224Z" fill="#263238"/>
<path d="M390.026 177.825C389.939 177.802 390.4 177.116 390.184 175.814C390.072 175.176 389.79 174.414 389.269 173.652C388.747 172.888 387.974 172.144 387.094 171.328C386.214 170.52 385.231 169.55 384.488 168.29C383.74 167.041 383.19 165.551 382.973 163.923C382.75 162.3 382.903 160.523 383.471 158.837C384.018 157.143 384.888 155.54 385.744 153.925C386.606 152.314 387.392 150.725 387.838 149.104C388.298 147.487 388.339 145.858 387.936 144.375C387.125 141.392 385.346 139.04 384.445 136.77C383.454 134.522 383.363 132.417 383.707 131.088C383.868 130.416 384.102 129.929 384.288 129.623C384.475 129.314 384.608 129.178 384.626 129.191C384.698 129.228 384.234 129.849 384.012 131.15C383.778 132.441 383.942 134.401 384.962 136.545C385.889 138.718 387.726 141.01 388.648 144.189C389.104 145.775 389.075 147.599 388.593 149.31C388.129 151.035 387.315 152.681 386.449 154.3C385.589 155.92 384.74 157.482 384.213 159.082C383.667 160.675 383.515 162.303 383.702 163.831C383.885 165.357 384.379 166.767 385.058 167.955C385.734 169.154 386.623 170.081 387.485 170.921C388.339 171.763 389.119 172.564 389.642 173.407C390.163 174.248 390.42 175.08 390.491 175.772C390.559 176.469 390.439 177.012 390.304 177.348C390.174 177.689 390.041 177.834 390.026 177.825Z" fill="#263238"/>
<path d="M431.719 163.355C432.743 165.968 435.536 167.704 438.342 167.712C441.149 167.719 443.848 166.119 445.409 163.787C446.97 161.455 447.437 158.477 446.928 155.717C446.697 154.468 446.276 153.22 446.422 151.958C446.628 150.169 447.93 148.691 448.376 146.946C449.18 143.804 446.883 140.485 443.893 139.228C440.903 137.971 437.472 138.359 434.348 139.231" fill="#263238"/>
<path d="M386.188 127.01C383.306 129.907 384.406 133.708 385.751 136.283C387.096 138.858 388.71 141.468 388.74 144.372C388.772 147.342 387.14 150.041 386.325 152.898C385.298 156.498 385.608 160.464 387.181 163.861C388.366 166.421 390.218 168.626 391.418 171.179C392.618 173.733 393.061 176.947 391.429 179.248C392.985 178.999 394.281 177.816 394.979 176.404C395.677 174.992 395.847 173.374 395.814 171.799C395.691 165.819 392.825 160.01 393.542 154.071C393.959 150.618 395.579 147.304 395.35 143.834C395.121 140.353 393.078 137.302 391.602 134.141C390.126 130.979 389.251 127.037 391.219 124.156" fill="#263238"/>
<path d="M393.266 115.668C389.737 116.124 386.238 117.971 384.532 121.093C382.826 124.216 383.413 128.636 386.329 130.675C389.078 132.598 392.977 131.964 395.801 130.152C397.885 128.816 399.62 126.846 400.376 124.489C401.131 122.131 400.813 119.384 399.281 117.438C397.75 115.493 394.959 114.538 392.642 115.41" fill="#263238"/>
<path d="M390.377 115.306C391.932 111.012 395.749 107.771 400.05 106.238C404.351 104.704 409.085 104.733 413.573 105.578C418.061 106.421 422.358 108.047 426.628 109.664C429.736 110.841 432.913 112.058 435.44 114.218C437.94 116.354 439.647 119.298 440.783 122.385C442.917 128.185 443.006 132.433 440.506 138.086C439.418 140.546 440.304 143.3 439.329 145.807C438.355 148.315 433.829 151.298 435.235 153.592" fill="#263238"/>
<path d="M433 177.826L431.134 122.793C431.049 120.328 429.092 118.338 426.628 118.211L401.107 113.209C392.998 112.793 388.173 123.011 388.101 131.13C388.021 140.151 388.279 151.168 389.707 157.818C392.578 171.19 403.009 172.348 403.009 172.348C403.01 172.321 403.304 177.566 403.578 182.277L403.142 203.005L433 177.826Z" fill="#FFBE9D"/>
<path d="M391.576 140.833C391.593 141.748 392.382 142.488 393.339 142.487C394.293 142.487 395.054 141.747 395.038 140.831C395.02 139.916 394.231 139.175 393.277 139.176C392.321 139.176 391.56 139.917 391.576 140.833Z" fill="#263238"/>
<path d="M390.733 135.849C390.96 136.063 392.218 135.022 394.08 134.927C395.938 134.805 397.356 135.688 397.546 135.449C397.639 135.343 397.399 134.947 396.78 134.547C396.172 134.147 395.15 133.782 393.99 133.849C392.831 133.918 391.879 134.398 391.342 134.865C390.794 135.335 390.622 135.754 390.733 135.849Z" fill="#263238"/>
<path d="M408.823 140.564C408.839 141.479 409.628 142.219 410.584 142.219C411.539 142.219 412.301 141.479 412.283 140.563C412.266 139.648 411.476 138.907 410.522 138.907C409.566 138.907 408.805 139.649 408.823 140.564Z" fill="#263238"/>
<path d="M409.114 136.08C409.341 136.294 410.6 135.253 412.461 135.158C414.319 135.035 415.737 135.919 415.926 135.68C416.02 135.574 415.781 135.178 415.161 134.778C414.553 134.378 413.531 134.013 412.372 134.08C411.213 134.15 410.261 134.629 409.724 135.097C409.177 135.566 409.003 135.984 409.114 136.08Z" fill="#263238"/>
<path d="M403.111 150.251C403.113 150.145 401.946 150.007 400.058 149.869C399.579 149.845 399.124 149.775 399.027 149.456C398.897 149.118 399.068 148.595 399.268 148.03C399.653 146.855 400.056 145.624 400.479 144.335C402.152 139.076 403.337 134.762 403.124 134.696C402.912 134.631 401.383 138.84 399.709 144.099C399.308 145.396 398.924 146.631 398.56 147.813C398.409 148.363 398.133 148.993 398.414 149.692C398.561 150.04 398.925 150.279 399.233 150.345C399.543 150.422 399.81 150.412 400.047 150.414C401.938 150.411 403.11 150.357 403.111 150.251Z" fill="#263238"/>
<path d="M403.016 172.349C403.016 172.349 412.121 172.443 420.819 166.553C420.819 166.553 416.764 176.074 403.196 175.542L403.016 172.349Z" fill="#EB996E"/>
<path d="M407.986 130.676C408.197 131.172 410.042 130.831 412.241 130.976C414.442 131.077 416.238 131.621 416.503 131.152C416.62 130.927 416.288 130.468 415.549 130.017C414.817 129.566 413.665 129.162 412.346 129.087C411.028 129.014 409.838 129.287 409.06 129.654C408.276 130.02 407.894 130.44 407.986 130.676Z" fill="#263238"/>
<path d="M391.187 131.298C391.537 131.703 392.796 131.195 394.336 131.091C395.873 130.933 397.199 131.221 397.476 130.763C397.596 130.541 397.367 130.129 396.776 129.759C396.192 129.391 395.233 129.116 394.176 129.205C393.119 129.296 392.221 129.729 391.708 130.191C391.186 130.655 391.031 131.1 391.187 131.298Z" fill="#263238"/>
<path d="M404.151 154.487C404.731 153.627 405.8 153.116 406.893 153.173C407.651 153.214 408.432 153.536 408.922 154.125C409.413 154.713 409.556 155.579 409.172 156.186C408.739 156.871 407.768 157.075 406.927 156.885C406.086 156.694 405.343 156.187 404.637 155.68C404.442 155.54 404.241 155.394 404.113 155.194C403.985 154.994 403.945 154.726 404.08 154.547" fill="#EB996E"/>
<path d="M408.361 151.267C408.078 151.266 408.176 153.15 406.636 154.575C405.099 156.004 403.079 155.901 403.079 156.165C403.059 156.285 403.546 156.506 404.394 156.484C405.227 156.467 406.427 156.134 407.37 155.263C408.31 154.39 408.674 153.273 408.696 152.496C408.726 151.705 408.49 151.25 408.361 151.267Z" fill="#263238"/>
<path d="M390.153 118.926C391.035 123.158 397.821 123.476 402.012 122.418C405.002 125.904 409.863 127.681 414.397 126.945C415.014 126.845 415.661 126.704 416.248 126.916C416.87 127.141 417.288 127.71 417.713 128.217C419.61 130.483 422.378 132.002 425.309 132.388C426.119 136.617 429.765 140.152 434.017 140.831C434.017 140.831 435.364 140.068 434.569 134.644C433.774 129.221 433.728 117.849 433.728 117.849L418.584 111.974L400.745 109.677C400.745 109.677 388.66 111.764 390.153 118.926Z" fill="#263238"/>
<path d="M440.29 138.71C440.172 138.734 440.258 137.217 439.16 134.971C438.605 133.869 437.712 132.61 436.33 131.583C434.963 130.558 433.1 129.77 430.993 129.678L430.757 129.668L430.685 129.437C430.027 127.321 428.877 125.03 426.845 123.449C424.887 121.897 421.796 121.244 419.39 122.618L418.993 122.845L418.813 122.407C418.751 122.255 418.683 122.091 418.615 121.927C416.996 118.118 413.074 115.837 409.549 115.686C408.654 115.652 407.81 115.745 406.942 115.905C406.081 116.049 405.16 116.181 404.27 115.932C403.37 115.676 402.728 115.063 402.188 114.528C401.648 113.973 401.154 113.484 400.589 113.124C398.295 111.652 395.846 111.852 394.431 112.291C392.962 112.752 392.31 113.372 392.263 113.3C392.245 113.279 392.402 113.129 392.723 112.86C393.065 112.627 393.577 112.265 394.333 111.997C395.78 111.451 398.355 111.118 400.894 112.648C402.189 113.366 403.015 114.896 404.446 115.294C405.882 115.668 407.64 114.829 409.58 114.95C413.379 115.078 417.579 117.475 419.35 121.615C419.424 121.794 419.497 121.974 419.565 122.139L418.988 121.928C421.786 120.352 425.172 121.133 427.315 122.846C429.514 124.591 430.681 127.032 431.332 129.245L431.025 129.003C433.288 129.139 435.247 130.023 436.665 131.147C438.099 132.274 438.99 133.633 439.513 134.803C440.042 135.982 440.223 136.987 440.293 137.665C440.357 138.345 440.319 138.709 440.29 138.71Z" fill="#455A64"/>
<path d="M416.186 125.76C416.2 125.804 415.823 125.984 415.096 126.188C414.37 126.394 413.276 126.572 411.912 126.545C409.23 126.525 405.26 125.374 402.439 122.111L402.936 122.201C402.799 122.272 402.651 122.35 402.503 122.427C400.525 123.396 398.359 123.622 396.492 123.327C394.611 123.033 393.059 122.204 391.955 121.325C390.842 120.437 390.154 119.5 389.757 118.827C389.36 118.148 389.233 117.73 389.275 117.709C389.403 117.618 390.108 119.273 392.296 120.874C393.384 121.651 394.853 122.366 396.599 122.599C398.334 122.834 400.333 122.601 402.151 121.709C402.287 121.638 402.423 121.568 402.548 121.503L402.838 121.352L403.045 121.593C405.668 124.64 409.373 125.829 411.94 125.989C414.561 126.184 416.153 125.608 416.186 125.76Z" fill="#455A64"/>
<path d="M408.148 118.211C408.13 118.446 406.171 118.387 403.908 119.057C401.635 119.697 400.009 120.793 399.869 120.603C399.724 120.457 401.241 118.985 403.686 118.29C406.124 117.574 408.192 118.01 408.148 118.211Z" fill="#455A64"/>
<path d="M403.011 118.057C402.844 118.209 402.123 117.677 401.217 117.101C400.316 116.516 399.532 116.08 399.602 115.865C399.662 115.658 400.647 115.781 401.649 116.429C402.654 117.071 403.174 117.917 403.011 118.057Z" fill="#455A64"/>
<path d="M424.422 124.717C424.349 124.941 422.613 124.483 420.467 124.677C418.318 124.84 416.681 125.579 416.573 125.37C416.451 125.202 418.055 124.067 420.4 123.881C422.744 123.676 424.515 124.531 424.422 124.717Z" fill="#455A64"/>
<path d="M428.561 131.728C428.58 131.931 426.031 132.183 423.044 131.309C420.05 130.456 418.029 128.883 418.154 128.721C418.279 128.519 420.405 129.729 423.266 130.541C426.118 131.38 428.563 131.491 428.561 131.728Z" fill="#455A64"/>
<path d="M438.065 136.372C437.896 136.535 436.571 135.206 434.44 134.603C432.32 133.957 430.488 134.36 430.434 134.13C430.329 133.946 432.285 133.124 434.665 133.838C437.051 134.524 438.252 136.273 438.065 136.372Z" fill="#455A64"/>
<path d="M436.71 117.013C436.645 117.039 436.47 116.573 435.951 115.883C435.429 115.198 434.492 114.339 433.098 113.659C430.319 112.307 425.941 111.465 421.178 111.678C416.392 111.891 412.156 113.05 409.147 113.967C406.133 114.908 404.294 115.594 404.249 115.481C404.229 115.432 404.662 115.195 405.472 114.831C406.282 114.467 407.471 113.971 408.968 113.432C411.955 112.37 416.239 111.099 421.143 110.881C426.036 110.667 430.499 111.607 433.362 113.159C434.792 113.938 435.738 114.928 436.207 115.707C436.675 116.494 436.749 117.004 436.71 117.013Z" fill="#455A64"/>
<path d="M438.211 124.261C438.062 124.322 437.646 122.629 435.919 120.576C434.238 118.525 431.083 116.302 427.1 115.399C423.104 114.506 419.324 114.854 416.652 115.184C413.966 115.533 412.307 115.856 412.281 115.735C412.26 115.641 413.871 115.124 416.567 114.626C419.243 114.151 423.115 113.693 427.278 114.621C431.448 115.564 434.718 117.985 436.36 120.223C437.197 121.338 437.696 122.359 437.942 123.092C438.194 123.823 438.255 124.248 438.211 124.261Z" fill="#455A64"/>
<path d="M388.005 132.742C387.992 132.815 386.756 132.477 385.405 131.02C384.078 129.626 382.754 126.888 383.371 123.828C384.036 120.777 386.351 118.804 388.125 118.061C389.948 117.27 391.216 117.458 391.199 117.53C391.218 117.675 390.005 117.703 388.373 118.57C386.771 119.39 384.742 121.27 384.152 123.993C383.598 126.722 384.699 129.259 385.836 130.654C386.982 132.104 388.081 132.617 388.005 132.742Z" fill="#455A64"/>
<path d="M444.235 150.82C444.16 150.698 445.526 149.976 447.456 148.528C448.399 147.789 449.454 146.792 450.175 145.418C450.907 144.066 451.144 142.287 450.408 140.667C449.713 139.047 448.355 137.842 446.938 137.3C445.497 136.755 444.039 136.797 442.887 137.042C440.547 137.566 439.404 138.695 439.321 138.564C439.29 138.53 439.531 138.223 440.084 137.792C440.642 137.376 441.525 136.825 442.754 136.493C443.968 136.16 445.561 136.04 447.192 136.609C448.814 137.186 450.351 138.514 451.141 140.353C451.988 142.19 451.676 144.312 450.823 145.766C449.99 147.262 448.811 148.275 447.791 148.983C446.76 149.691 445.864 150.14 445.243 150.439C444.62 150.733 444.261 150.868 444.235 150.82Z" fill="#263238"/>
<path d="M444.871 150.898C444.921 150.878 445.147 151.29 445.494 152.062C445.838 152.835 446.313 153.968 446.761 155.425C447.199 156.88 447.621 158.679 447.61 160.731C447.599 162.76 447.148 165.085 445.792 167.092C444.426 169.092 442.293 170.367 440.203 170.634C438.086 170.952 436.159 170.035 435.1 168.894C433.993 167.757 433.568 166.471 433.52 165.608C433.464 164.731 433.654 164.271 433.688 164.282C433.76 164.291 433.682 164.762 433.828 165.566C433.963 166.361 434.437 167.503 435.495 168.489C436.527 169.484 438.216 170.222 440.102 169.905C441.961 169.632 443.896 168.454 445.131 166.643C446.371 164.811 446.825 162.65 446.874 160.72C446.926 158.774 446.579 157.021 446.217 155.577C445.447 152.689 444.742 150.945 444.871 150.898Z" fill="#263238"/>
<path d="M423.988 125.653C422.305 129.005 423.593 133.067 425.317 136.397C427.041 139.728 429.242 143.028 429.386 146.776C429.628 153.054 424.018 158.606 424.793 164.84C425.254 168.549 428.22 171.815 431.868 172.63C428.898 170.633 428.628 166.265 429.763 162.871C430.898 159.477 436.392 150.532 437.188 147.042C439.863 135.321 438.721 133.959 434.625 129.838" fill="#263238"/>
<path d="M435.282 134.009C435.291 134.105 434.458 134.297 433.106 134.102C431.77 133.918 429.911 133.248 428.357 131.814C426.802 130.378 425.986 128.579 425.695 127.262C425.392 125.93 425.517 125.084 425.613 125.085C425.742 125.077 425.828 125.891 426.252 127.099C426.666 128.301 427.497 129.902 428.913 131.21C430.33 132.517 431.992 133.217 433.223 133.533C434.461 133.859 435.28 133.88 435.282 134.009Z" fill="#455A64"/>
<path d="M430.405 168.901C430.386 168.923 430.245 168.832 429.987 168.634C429.733 168.434 429.383 168.1 429.001 167.611C428.26 166.64 427.386 164.934 427.415 162.664C427.42 161.542 427.689 160.296 428.327 159.113C428.97 157.937 429.954 156.918 430.936 155.886C431.929 154.856 432.876 153.748 433.471 152.364C434.079 150.994 434.379 149.427 434.309 147.838C434.239 146.245 433.785 144.732 433.025 143.426C432.28 142.107 431.319 140.962 430.406 139.86C428.525 137.69 427.031 135.478 426.155 133.458C425.255 131.44 424.943 129.647 424.889 128.423C424.839 127.192 424.985 126.522 425.025 126.527C425.195 126.498 424.79 129.322 426.682 133.214C427.607 135.152 429.077 137.234 430.985 139.372C431.914 140.465 432.919 141.628 433.724 143.028C434.547 144.415 435.058 146.086 435.129 147.803C435.205 149.521 434.875 151.213 434.207 152.693C433.551 154.191 432.49 155.4 431.482 156.412C430.476 157.437 429.53 158.391 428.92 159.451C428.319 160.506 428.035 161.64 427.996 162.684C427.895 164.795 428.631 166.445 429.263 167.429C429.921 168.419 430.457 168.844 430.405 168.901Z" fill="#455A64"/>
<path d="M436.658 133.568C436.69 133.534 437.02 133.766 437.52 134.294C438.023 134.818 438.65 135.684 439.197 136.874C440.31 139.233 440.808 143.038 439.625 146.88C438.43 150.706 436.215 153.622 434.559 155.557C432.873 157.497 431.686 158.549 431.613 158.481C431.52 158.396 432.559 157.2 434.108 155.191C435.633 153.185 437.703 150.293 438.84 146.64C439.961 142.993 439.585 139.397 438.662 137.1C437.754 134.761 436.534 133.672 436.658 133.568Z" fill="#455A64"/>
<path d="M380.544 233.796L372.993 219.864C372.492 218.939 371.523 218.362 370.472 218.362H316.711C315.647 218.362 314.67 218.952 314.174 219.894L367.467 255.709L391.048 258.416C391.555 257.454 391.571 256.307 391.093 255.331L380.544 233.796Z" fill="#263238"/>
<g opacity="0.3">
<path d="M437.41 265.684C427.965 261.568 417.11 260.97 408.231 255.744C404.837 253.746 401.83 251.121 398.359 249.259C394.888 247.398 390.671 246.352 387.007 247.8C383.344 249.248 380.567 254.748 382.467 258.2C383.194 260.038 386.668 261.763 388.638 261.595C390.608 261.426 392.473 260.614 394.434 260.365C398.646 259.831 402.693 261.91 406.492 263.807C414.674 267.893 423.138 271.416 431.803 274.342C433.827 275.026 435.952 275.686 438.065 275.37C440.178 275.055 442.258 273.46 442.399 271.329C442.576 268.651 439.87 266.756 437.41 265.684Z" fill="black"/>
</g>
<path d="M391.049 258.417L372.194 221.499C371.691 220.514 370.678 219.894 369.572 219.894H313.916L334.651 257.241L391.049 258.417Z" fill="#455A64"/>
<path d="M347.426 233.175C348.203 233.797 349.337 233.672 349.959 232.895C350.582 232.119 350.457 230.984 349.68 230.361C348.903 229.739 347.768 229.864 347.146 230.641C346.523 231.417 346.649 232.552 347.426 233.175Z" fill="#B7CAC9"/>
<path d="M396.397 239.155L390.797 234.83C388.496 231.976 385.028 230.317 381.362 230.317H378.312L376.23 232.659C376.23 232.659 361.295 233.31 360.744 235.152L360.731 235.746L360.723 236.094L373.497 236.953C373.497 236.953 362.63 236.919 361.98 236.943C361.264 236.97 358.947 236.761 358.995 238.037C359.034 239.085 360.274 239.912 362.153 240.186C362.925 240.299 372.338 241.117 372.338 241.117C372.338 241.117 362.455 241.023 361.976 241.02C360.815 241.014 360.962 242.876 361.652 243.11C362.198 243.294 375.468 247.167 375.468 247.167C375.468 247.167 373.237 248.663 371.416 248.533C369.594 248.403 366.471 246.06 365.821 247.167C365.17 248.273 365.3 248.923 365.69 249.184C366.081 249.444 370.374 251.656 371.805 252.046C373.236 252.436 384.921 254.286 384.921 254.286L394.612 253.044L396.397 239.155Z" fill="#FFBE9D"/>
<path d="M371.152 232.838C371.152 232.747 373.498 232.662 376.393 232.646C379.288 232.631 381.635 232.692 381.635 232.782C381.636 232.873 379.29 232.959 376.394 232.974C373.5 232.989 371.153 232.929 371.152 232.838Z" fill="#EB996E"/>
<path d="M396.406 239.155L437.521 246.98L441.645 195.288C441.645 195.288 452.734 185.962 458.599 192.326C464.465 198.688 464.898 206.219 464.522 209.972C464.147 213.724 460.411 257.898 457.312 265.374C452.978 275.826 441.879 275.265 438.779 274.505C435.679 273.745 391.451 252.829 391.451 252.829L396.406 239.155Z" fill="#FFBE9D"/>
<path d="M440.131 195.02C438.683 206.693 435.836 224.553 435.676 236.314C435.676 236.791 463.953 239.155 463.953 239.155C463.953 239.155 465.426 212.525 464.362 204.429C463.153 195.239 456.276 188.905 456.276 188.905H447.403L440.131 195.02Z" fill="#27DEBF"/>
<path d="M463.955 239.155C463.954 239.167 463.756 239.161 463.382 239.135C462.973 239.103 462.427 239.06 461.743 239.006C460.281 238.873 458.229 238.688 455.704 238.459C450.566 237.958 443.51 237.27 435.66 236.504L435.477 236.486L435.489 236.301C435.514 235.939 435.54 235.548 435.566 235.155C436.138 227.025 436.654 219.668 437.031 214.297C437.235 211.657 437.401 209.509 437.519 207.978C437.583 207.26 437.633 206.689 437.671 206.262C437.71 205.87 437.737 205.665 437.75 205.665C437.763 205.666 437.762 205.874 437.748 206.267C437.728 206.696 437.701 207.269 437.667 207.989C437.579 209.521 437.454 211.672 437.301 214.315C436.952 219.688 436.475 227.049 435.947 235.183C435.921 235.575 435.894 235.966 435.87 236.328L435.7 236.126C443.545 236.937 450.596 237.666 455.731 238.197C458.252 238.475 460.3 238.701 461.759 238.862C462.441 238.946 462.984 239.011 463.392 239.061C463.762 239.11 463.957 239.142 463.955 239.155Z" fill="#27DEBF"/>
</svg>
