<svg width="2179" height="1948" viewBox="0 0 2179 1948" fill="none" xmlns="http://www.w3.org/2000/svg">
<g filter="url(#filter0_d_769_902)">
<rect x="4" width="2171" height="1939.72" fill="#0B0C10"/>
</g>
<path d="M1104.36 1695.07C1097.09 1695.01 1089.74 1694.96 1082.52 1694.74L1082.74 1687.36C1089.89 1687.58 1097.2 1687.68 1104.36 1687.69C1111.56 1687.69 1118.9 1687.57 1126.17 1687.33L1126.41 1694.71C1119.05 1694.95 1111.64 1695.07 1104.36 1695.07ZM1038.72 1691.95C1024.22 1690.56 1009.57 1688.68 995.191 1686.35L996.34 1679.07C1010.57 1681.37 1025.06 1683.23 1039.41 1684.61L1038.72 1691.95ZM1170.2 1691.87L1169.5 1684.53C1183.85 1683.14 1198.34 1681.26 1212.57 1678.94L1213.73 1686.22C1199.34 1688.57 1184.7 1690.47 1170.2 1691.87H1170.2ZM952.099 1677.93C937.898 1674.67 923.61 1670.9 909.633 1666.71L911.698 1659.64C925.526 1663.78 939.661 1667.51 953.711 1670.74L952.099 1677.93ZM1256.81 1677.75L1255.19 1670.56C1269.27 1667.31 1283.4 1663.55 1297.19 1659.41L1299.26 1666.48C1285.33 1670.67 1271.04 1674.46 1256.81 1677.75H1256.81ZM867.964 1652.75C854.261 1647.65 840.551 1642.04 827.215 1636.06L830.164 1629.31C843.356 1635.22 856.919 1640.78 870.476 1645.82L867.964 1652.75ZM1340.91 1652.46L1338.39 1645.54C1351.86 1640.51 1365.38 1634.96 1378.56 1629.03L1381.52 1635.78C1368.19 1641.77 1354.53 1647.38 1340.91 1652.46H1340.91ZM787.627 1616.75C774.732 1609.93 761.854 1602.58 749.355 1594.91L753.133 1588.59C765.5 1596.19 778.239 1603.46 790.998 1610.2L787.627 1616.75ZM1421 1616.48L1417.62 1609.94C1430.35 1603.2 1443.06 1595.93 1455.4 1588.34L1459.18 1594.64C1446.71 1602.32 1433.87 1609.66 1421 1616.48H1421ZM712.554 1570.63C700.611 1562.19 688.774 1553.23 677.369 1544.02L681.911 1538.25C693.195 1547.37 704.908 1556.22 716.724 1564.57L712.554 1570.63ZM1495.92 1570.36L1491.74 1564.32C1503.56 1555.96 1515.26 1547.1 1526.51 1537.99L1531.06 1543.76C1519.68 1552.96 1507.86 1561.91 1495.92 1570.36V1570.36ZM643.935 1515.19C633.138 1505.27 622.523 1494.87 612.39 1484.28L617.62 1479.15C627.646 1489.62 638.149 1499.91 648.833 1509.73L643.935 1515.19ZM1564.46 1514.94L1559.55 1509.48C1570.21 1499.67 1580.71 1489.37 1590.75 1478.88L1595.98 1484.01C1585.83 1494.62 1575.22 1505.03 1564.46 1514.94V1514.94ZM582.857 1451.41C573.404 1440.18 564.186 1428.5 555.458 1416.7L561.291 1412.28C569.926 1423.96 579.045 1435.51 588.399 1446.62L582.857 1451.41ZM1625.5 1451.1L1619.96 1446.32C1629.31 1435.2 1638.44 1423.63 1647.07 1411.94L1652.9 1416.36C1644.18 1428.18 1634.96 1439.87 1625.5 1451.1V1451.1ZM530.306 1380.3C522.336 1367.93 514.666 1355.17 507.509 1342.35L513.852 1338.72C520.931 1351.4 528.52 1364.03 536.407 1376.26L530.306 1380.3ZM1678.06 1379.9L1671.96 1375.87C1679.85 1363.61 1687.44 1350.96 1694.52 1338.25L1700.87 1341.88C1693.71 1354.72 1686.04 1367.52 1678.06 1379.9V1379.9ZM487.165 1303.01C480.825 1289.73 474.837 1276.08 469.365 1262.44L476.114 1259.67C481.528 1273.16 487.453 1286.66 493.724 1299.8L487.165 1303.01ZM1721.22 1302.44L1714.66 1299.23C1720.93 1286.07 1726.85 1272.53 1732.27 1258.98L1739.03 1261.74C1733.55 1275.45 1727.56 1289.14 1721.22 1302.44V1302.44ZM454.158 1220.74C449.549 1206.73 445.339 1192.39 441.643 1178.13L448.69 1176.26C452.345 1190.36 456.511 1204.55 461.07 1218.41L454.158 1220.74ZM1754.21 1219.96L1747.29 1217.64C1751.82 1203.8 1755.97 1189.61 1759.62 1175.47L1766.67 1177.34C1762.98 1191.63 1758.79 1205.97 1754.21 1219.96V1219.96ZM431.869 1134.8C429.086 1120.32 426.731 1105.56 424.868 1090.92L432.093 1089.98C433.936 1104.46 436.266 1119.07 439.019 1133.39L431.869 1134.8ZM1776.39 1133.99L1769.24 1132.59C1771.97 1118.27 1774.29 1103.66 1776.12 1089.17L1783.34 1090.1C1781.5 1104.75 1779.16 1119.52 1776.39 1133.99V1133.99ZM420.656 1046.68C419.723 1031.98 419.241 1017.03 419.225 1002.25L426.51 1002.24C426.526 1016.86 427.003 1031.66 427.928 1046.21L420.656 1046.68ZM1787.51 1045.86L1780.23 1045.39C1781.14 1030.85 1781.6 1016.06 1781.6 1001.44L1781.6 999.819H1788.88L1788.89 1001.41C1788.89 1016.22 1788.42 1031.16 1787.51 1045.86ZM427.826 958.287L420.555 957.833C421.458 943.096 422.841 928.208 424.664 913.58L431.892 914.502C430.087 928.979 428.719 943.709 427.826 958.287ZM1780.14 955.865C1779.19 941.28 1777.77 926.554 1775.92 912.099L1783.14 911.148C1785.01 925.758 1786.45 940.639 1787.41 955.382L1780.14 955.865ZM438.715 871.078L431.562 869.684C434.31 855.201 437.565 840.614 441.232 826.328L448.283 828.183C444.654 842.318 441.435 856.749 438.715 871.078ZM1768.93 868.698C1766.16 854.362 1762.89 839.942 1759.21 825.838L1766.26 823.957C1769.97 838.213 1773.28 852.787 1776.08 867.279L1768.93 868.698ZM460.566 786.002L453.647 783.689C458.22 769.668 463.311 755.603 468.78 741.884L475.536 744.648C470.125 758.219 465.089 772.132 460.566 786.002ZM1746.79 783.702C1742.22 769.852 1737.14 755.978 1731.7 742.465L1738.45 739.679C1743.95 753.339 1749.08 767.362 1753.7 781.36L1746.79 783.702ZM493.109 704.366L486.542 701.166C492.862 687.86 499.695 674.583 506.851 661.705L513.201 665.326C506.12 678.065 499.361 691.2 493.109 704.366ZM1714.05 702.353C1707.77 689.251 1700.99 676.165 1693.87 663.458L1700.21 659.819C1707.4 672.661 1714.26 685.889 1720.6 699.136L1714.05 702.353ZM535.719 627.68L529.611 623.655C537.556 611.286 546.007 599.009 554.726 587.167L560.567 591.577C551.94 603.294 543.579 615.44 535.719 627.68ZM1671.27 625.943C1663.39 613.749 1655.01 601.641 1646.35 589.956L1652.17 585.528C1660.92 597.339 1669.4 609.576 1677.37 621.901L1671.27 625.943ZM587.635 557.166L582.085 552.389C591.521 541.145 601.441 530.062 611.568 519.449L616.808 524.576C606.787 535.078 596.973 546.044 587.635 557.166ZM1619.2 555.646C1609.83 544.554 1599.98 533.62 1589.94 523.15L1595.16 518.008C1605.32 528.588 1615.27 539.639 1624.73 550.85L1619.2 555.646ZM647.965 493.938L643.06 488.483C653.84 478.537 665.067 468.824 676.426 459.619L680.979 465.38C669.74 474.488 658.632 484.098 647.965 493.938V493.938ZM1558.69 492.599C1548 482.804 1536.87 473.224 1525.57 464.126L1530.11 458.35C1541.52 467.547 1552.78 477.229 1563.57 487.13L1558.69 492.599ZM715.715 439.014L711.535 432.972C723.456 424.51 735.807 416.33 748.245 408.655L752.036 414.957C739.731 422.55 727.509 430.645 715.715 439.014ZM1490.73 437.84C1478.87 429.479 1466.62 421.412 1454.3 413.862L1458.07 407.549C1470.52 415.178 1482.91 423.332 1494.9 431.783L1490.73 437.84ZM789.786 393.31L786.403 386.774C799.282 379.931 812.558 373.421 825.858 367.423L828.821 374.165C815.662 380.097 802.53 386.539 789.786 393.31ZM1416.41 392.297C1403.61 385.552 1390.43 379.141 1377.22 373.239L1380.16 366.487C1393.51 372.451 1406.84 378.933 1419.77 385.75L1416.41 392.297ZM868.974 357.612L866.445 350.691C880.105 345.572 894.112 340.838 908.079 336.621L910.159 343.693C896.343 347.864 882.487 352.548 868.974 357.612H868.974ZM1336.89 356.774C1323.35 351.757 1309.47 347.124 1295.65 343.005L1297.71 335.925C1311.68 340.088 1325.7 344.773 1339.39 349.846L1336.89 356.774ZM952.145 332.497L950.519 325.305C964.694 322.016 979.185 319.149 993.59 316.78L994.757 324.066C980.504 326.408 966.168 329.243 952.145 332.497ZM1253.63 331.96C1239.58 328.753 1225.23 325.968 1210.98 323.68L1212.13 316.391C1226.53 318.704 1241.03 321.52 1255.23 324.761L1253.63 331.96ZM1037.81 318.418L1037.11 311.075C1051.57 309.654 1066.31 308.683 1080.9 308.191L1081.14 315.566C1066.7 316.053 1052.13 317.013 1037.81 318.418V318.418ZM1167.91 318.189C1153.57 316.833 1138.99 315.925 1124.57 315.491L1124.79 308.115C1139.36 308.555 1154.1 309.472 1168.58 310.843L1167.91 318.189Z" fill="#D0CDE1"/>
<path d="M1104.06 528.622C1222.58 528.622 1318.66 431.328 1318.66 311.311C1318.66 191.293 1222.58 94 1104.06 94C985.539 94 889.459 191.293 889.459 311.311C889.459 431.328 985.539 528.622 1104.06 528.622Z" fill="#2DB2C4"/>
<path d="M977.774 273.422C977.774 279.097 980.761 281.934 986.734 281.934C992.708 281.934 995.694 279.097 995.694 273.422V243.598H1002.86V273.294C1002.86 278.457 1001.5 282.233 998.766 284.622C996.078 286.969 992.046 288.142 986.67 288.142C981.337 288.142 977.326 286.969 974.638 284.622C971.95 282.233 970.606 278.457 970.606 273.294V243.598H977.774V273.422ZM1011.53 301.198V255.438H1018.45V257.422C1021.39 255.63 1024.14 254.734 1026.7 254.734C1030.93 254.734 1034.02 256.036 1035.98 258.638C1037.94 261.198 1038.93 265.529 1038.93 271.63C1038.93 277.689 1037.79 281.956 1035.53 284.43C1033.31 286.905 1029.67 288.142 1024.59 288.142C1022.84 288.142 1020.81 287.95 1018.51 287.566V301.198H1011.53ZM1025.49 260.942C1023.48 260.942 1021.47 261.39 1019.47 262.286L1018.51 262.734V281.614C1020.22 281.956 1022.09 282.126 1024.14 282.126C1027.04 282.126 1029.05 281.294 1030.16 279.63C1031.27 277.966 1031.82 275.129 1031.82 271.118C1031.82 264.334 1029.71 260.942 1025.49 260.942ZM1037.52 249.934V243.598H1069.52V249.934H1057.16V287.438H1050V249.934H1037.52ZM1071.26 258.894C1073.48 256.121 1077.15 254.734 1082.27 254.734C1087.39 254.734 1091.04 256.121 1093.21 258.894C1095.43 261.668 1096.54 265.828 1096.54 271.374C1096.54 276.921 1095.47 281.102 1093.34 283.918C1091.21 286.734 1087.52 288.142 1082.27 288.142C1077.02 288.142 1073.33 286.734 1071.2 283.918C1069.06 281.102 1068 276.921 1068 271.374C1068 265.828 1069.09 261.668 1071.26 258.894ZM1076.51 279.694C1077.49 281.401 1079.41 282.254 1082.27 282.254C1085.13 282.254 1087.05 281.401 1088.03 279.694C1089.01 277.988 1089.5 275.193 1089.5 271.31C1089.5 267.428 1088.97 264.676 1087.9 263.054C1086.88 261.433 1085 260.622 1082.27 260.622C1079.54 260.622 1077.64 261.433 1076.57 263.054C1075.55 264.676 1075.04 267.428 1075.04 271.31C1075.04 275.193 1075.53 277.988 1076.51 279.694ZM1133.53 287.438H1118.37V243.598H1133.53C1140.27 243.598 1144.88 245.305 1147.36 248.718C1149.83 252.132 1151.07 257.486 1151.07 264.782C1151.07 268.494 1150.81 271.652 1150.3 274.254C1149.83 276.814 1148.98 279.14 1147.74 281.23C1145.31 285.369 1140.57 287.438 1133.53 287.438ZM1143.71 264.782C1143.71 259.492 1143.05 255.673 1141.73 253.326C1140.4 250.98 1137.67 249.806 1133.53 249.806H1125.47V281.166H1133.53C1137.76 281.166 1140.57 279.609 1141.98 276.494C1142.66 274.916 1143.11 273.23 1143.33 271.438C1143.58 269.646 1143.71 267.428 1143.71 264.782ZM1182.21 265.294V279.886C1182.26 280.825 1182.49 281.529 1182.92 281.998C1183.39 282.425 1184.09 282.702 1185.03 282.83L1184.84 288.142C1181.17 288.142 1178.33 287.353 1176.33 285.774C1172.91 287.353 1169.48 288.142 1166.02 288.142C1159.66 288.142 1156.49 284.75 1156.49 277.966C1156.49 274.724 1157.34 272.377 1159.05 270.926C1160.79 269.476 1163.46 268.601 1167.05 268.302L1175.3 267.598V265.294C1175.3 263.588 1174.92 262.393 1174.15 261.71C1173.42 261.028 1172.34 260.686 1170.89 260.686C1168.15 260.686 1164.74 260.857 1160.65 261.198L1158.6 261.326L1158.34 256.398C1162.99 255.289 1167.26 254.734 1171.14 254.734C1175.07 254.734 1177.88 255.588 1179.59 257.294C1181.34 258.958 1182.21 261.625 1182.21 265.294ZM1167.88 273.23C1164.93 273.486 1163.46 275.086 1163.46 278.03C1163.46 280.974 1164.76 282.446 1167.37 282.446C1169.5 282.446 1171.76 282.105 1174.15 281.422L1175.3 281.038V272.526L1167.88 273.23ZM1208.19 261.39H1199.35V275.47C1199.35 278.073 1199.55 279.801 1199.93 280.654C1200.31 281.508 1201.3 281.934 1202.87 281.934L1208.12 281.742L1208.44 287.31C1205.58 287.865 1203.41 288.142 1201.91 288.142C1198.29 288.142 1195.79 287.31 1194.43 285.646C1193.1 283.982 1192.44 280.846 1192.44 276.238V261.39H1188.35V255.438H1192.44V246.158H1199.35V255.438H1208.19V261.39ZM1236.69 281.678L1238.48 281.486L1238.61 286.67C1233.75 287.652 1229.44 288.142 1225.68 288.142C1220.95 288.142 1217.54 286.841 1215.44 284.238C1213.4 281.636 1212.37 277.476 1212.37 271.758C1212.37 260.409 1217 254.734 1226.26 254.734C1235.22 254.734 1239.7 259.62 1239.7 269.39L1239.25 274.382H1219.41C1219.46 277.028 1220.03 278.969 1221.14 280.206C1222.25 281.444 1224.32 282.062 1227.35 282.062C1230.38 282.062 1233.49 281.934 1236.69 281.678ZM1232.85 269.006C1232.85 265.849 1232.34 263.652 1231.32 262.414C1230.34 261.134 1228.65 260.494 1226.26 260.494C1223.87 260.494 1222.12 261.156 1221.01 262.478C1219.95 263.801 1219.39 265.977 1219.35 269.006H1232.85ZM974.565 384.438V352.438H981.477V356.278C985.103 353.932 988.73 352.417 992.357 351.734V358.71C988.687 359.436 985.551 360.374 982.949 361.526L981.541 362.102V384.438H974.565ZM1020.22 378.678L1022.02 378.486L1022.14 383.67C1017.28 384.652 1012.97 385.142 1009.22 385.142C1004.48 385.142 1001.07 383.841 998.976 381.238C996.928 378.636 995.904 374.476 995.904 368.758C995.904 357.409 1000.53 351.734 1009.79 351.734C1018.75 351.734 1023.23 356.62 1023.23 366.39L1022.78 371.382H1002.94C1002.99 374.028 1003.56 375.969 1004.67 377.206C1005.78 378.444 1007.85 379.062 1010.88 379.062C1013.91 379.062 1017.02 378.934 1020.22 378.678ZM1016.38 366.006C1016.38 362.849 1015.87 360.652 1014.85 359.414C1013.87 358.134 1012.18 357.494 1009.79 357.494C1007.4 357.494 1005.65 358.156 1004.54 359.478C1003.48 360.801 1002.92 362.977 1002.88 366.006H1016.38ZM1052.15 359.03C1047.11 358.348 1043.47 358.006 1041.2 358.006C1038.94 358.006 1037.36 358.284 1036.47 358.838C1035.61 359.35 1035.19 360.182 1035.19 361.334C1035.19 362.486 1035.66 363.297 1036.6 363.766C1037.58 364.236 1039.84 364.79 1043.38 365.43C1046.96 366.028 1049.5 366.988 1051 368.31C1052.49 369.633 1053.24 371.98 1053.24 375.35C1053.24 378.721 1052.15 381.196 1049.97 382.774C1047.84 384.353 1044.7 385.142 1040.56 385.142C1037.96 385.142 1034.68 384.78 1030.71 384.054L1028.72 383.734L1028.98 377.91C1034.1 378.593 1037.79 378.934 1040.05 378.934C1042.31 378.934 1043.91 378.657 1044.85 378.102C1045.83 377.548 1046.32 376.63 1046.32 375.35C1046.32 374.07 1045.85 373.196 1044.92 372.726C1044.02 372.214 1041.82 371.681 1038.32 371.126C1034.87 370.529 1032.33 369.612 1030.71 368.374C1029.09 367.137 1028.28 364.876 1028.28 361.59C1028.28 358.305 1029.39 355.852 1031.6 354.23C1033.87 352.609 1036.75 351.798 1040.24 351.798C1042.97 351.798 1046.32 352.14 1050.29 352.822L1052.28 353.206L1052.15 359.03ZM1061.67 355.894C1063.89 353.121 1067.56 351.734 1072.68 351.734C1077.8 351.734 1081.44 353.121 1083.62 355.894C1085.84 358.668 1086.95 362.828 1086.95 368.374C1086.95 373.921 1085.88 378.102 1083.75 380.918C1081.61 383.734 1077.92 385.142 1072.68 385.142C1067.43 385.142 1063.74 383.734 1061.6 380.918C1059.47 378.102 1058.4 373.921 1058.4 368.374C1058.4 362.828 1059.49 358.668 1061.67 355.894ZM1066.92 376.694C1067.9 378.401 1069.82 379.254 1072.68 379.254C1075.53 379.254 1077.45 378.401 1078.44 376.694C1079.42 374.988 1079.91 372.193 1079.91 368.31C1079.91 364.428 1079.37 361.676 1078.31 360.054C1077.28 358.433 1075.41 357.622 1072.68 357.622C1069.95 357.622 1068.05 358.433 1066.98 360.054C1065.96 361.676 1065.44 364.428 1065.44 368.31C1065.44 372.193 1065.93 374.988 1066.92 376.694ZM1113.27 352.438H1120.18V384.438H1113.27V382.454C1110.15 384.246 1107.27 385.142 1104.63 385.142C1100.23 385.142 1097.29 383.969 1095.8 381.622C1094.3 379.233 1093.56 375.073 1093.56 369.142V352.438H1100.53V369.206C1100.53 373.046 1100.85 375.628 1101.49 376.95C1102.13 378.273 1103.63 378.934 1105.97 378.934C1108.28 378.934 1110.39 378.508 1112.31 377.654L1113.27 377.27V352.438ZM1128.63 384.438V352.438H1135.54V356.278C1139.17 353.932 1142.79 352.417 1146.42 351.734V358.71C1142.75 359.436 1139.61 360.374 1137.01 361.526L1135.6 362.102V384.438H1128.63ZM1163.47 351.734C1165.73 351.734 1168.4 352.033 1171.47 352.63L1173.07 352.95L1172.81 358.454C1169.44 358.113 1166.95 357.942 1165.33 357.942C1162.08 357.942 1159.91 358.668 1158.8 360.118C1157.69 361.569 1157.13 364.3 1157.13 368.31C1157.13 372.321 1157.67 375.094 1158.73 376.63C1159.8 378.166 1162.02 378.934 1165.39 378.934L1172.88 378.422L1173.07 383.99C1168.76 384.758 1165.52 385.142 1163.34 385.142C1158.48 385.142 1155.04 383.841 1153.04 381.238C1151.08 378.593 1150.09 374.284 1150.09 368.31C1150.09 362.337 1151.14 358.092 1153.23 355.574C1155.32 353.014 1158.73 351.734 1163.47 351.734ZM1202.29 378.678L1204.08 378.486L1204.21 383.67C1199.34 384.652 1195.03 385.142 1191.28 385.142C1186.54 385.142 1183.13 383.841 1181.04 381.238C1178.99 378.636 1177.97 374.476 1177.97 368.758C1177.97 357.409 1182.6 351.734 1191.85 351.734C1200.81 351.734 1205.29 356.62 1205.29 366.39L1204.85 371.382H1185.01C1185.05 374.028 1185.62 375.969 1186.73 377.206C1187.84 378.444 1189.91 379.062 1192.94 379.062C1195.97 379.062 1199.09 378.934 1202.29 378.678ZM1198.45 366.006C1198.45 362.849 1197.93 360.652 1196.91 359.414C1195.93 358.134 1194.24 357.494 1191.85 357.494C1189.46 357.494 1187.72 358.156 1186.61 359.478C1185.54 360.801 1184.98 362.977 1184.94 366.006H1198.45ZM1234.21 359.03C1229.18 358.348 1225.53 358.006 1223.27 358.006C1221 358.006 1219.43 358.284 1218.53 358.838C1217.68 359.35 1217.25 360.182 1217.25 361.334C1217.25 362.486 1217.72 363.297 1218.66 363.766C1219.64 364.236 1221.9 364.79 1225.44 365.43C1229.03 366.028 1231.56 366.988 1233.06 368.31C1234.55 369.633 1235.3 371.98 1235.3 375.35C1235.3 378.721 1234.21 381.196 1232.03 382.774C1229.9 384.353 1226.76 385.142 1222.63 385.142C1220.02 385.142 1216.74 384.78 1212.77 384.054L1210.79 383.734L1211.04 377.91C1216.16 378.593 1219.85 378.934 1222.11 378.934C1224.38 378.934 1225.98 378.657 1226.91 378.102C1227.9 377.548 1228.39 376.63 1228.39 375.35C1228.39 374.07 1227.92 373.196 1226.98 372.726C1226.08 372.214 1223.88 371.681 1220.39 371.126C1216.93 370.529 1214.39 369.612 1212.77 368.374C1211.15 367.137 1210.34 364.876 1210.34 361.59C1210.34 358.305 1211.45 355.852 1213.67 354.23C1215.93 352.609 1218.81 351.798 1222.31 351.798C1225.04 351.798 1228.39 352.14 1232.35 352.822L1234.34 353.206L1234.21 359.03Z" fill="white"/>
<path d="M485.504 988.812C604.025 988.812 700.105 891.519 700.105 771.501C700.105 651.484 604.025 554.19 485.504 554.19C366.983 554.19 270.902 651.484 270.902 771.501C270.902 891.519 366.983 988.812 485.504 988.812Z" fill="#2DB2C4"/>
<path d="M393.379 706.097C387.961 706.097 385.251 707.995 385.251 711.793C385.251 713.755 385.891 715.163 387.171 716.017C388.451 716.827 391.267 717.851 395.619 719.089C400.014 720.283 403.107 721.734 404.899 723.441C406.691 725.105 407.587 727.75 407.587 731.377C407.587 735.985 406.265 739.441 403.619 741.745C401.017 744.006 397.454 745.137 392.931 745.137C389.305 745.137 385.294 744.71 380.899 743.857L378.595 743.409L379.299 737.713C385.059 738.481 389.454 738.865 392.483 738.865C397.774 738.865 400.419 736.518 400.419 731.825C400.419 729.99 399.822 728.646 398.627 727.793C397.433 726.897 394.745 725.937 390.563 724.913C386.382 723.846 383.267 722.395 381.219 720.561C379.171 718.726 378.147 715.825 378.147 711.857C378.147 707.889 379.427 704.902 381.987 702.897C384.59 700.849 388.174 699.825 392.739 699.825C396.025 699.825 399.907 700.209 404.387 700.977L406.627 701.361L406.051 707.121C400.078 706.438 395.854 706.097 393.379 706.097ZM431.212 718.385H422.38V732.465C422.38 735.067 422.572 736.795 422.956 737.649C423.34 738.502 424.321 738.929 425.9 738.929L431.148 738.737L431.468 744.305C428.609 744.859 426.433 745.137 424.94 745.137C421.313 745.137 418.817 744.305 417.452 742.641C416.129 740.977 415.468 737.841 415.468 733.233V718.385H411.372V712.433H415.468V703.153H422.38V712.433H431.212V718.385ZM456.325 712.433H463.237V744.433H456.325V742.449C453.211 744.241 450.331 745.137 447.685 745.137C443.291 745.137 440.347 743.963 438.853 741.617C437.36 739.227 436.613 735.067 436.613 729.137V712.433H443.589V729.201C443.589 733.041 443.909 735.622 444.549 736.945C445.189 738.267 446.683 738.929 449.029 738.929C451.333 738.929 453.445 738.502 455.365 737.649L456.325 737.265V712.433ZM497.795 699.121V744.433H490.883V742.769C487.769 744.347 484.91 745.137 482.307 745.137C478.126 745.137 475.054 743.878 473.091 741.361C471.171 738.843 470.211 734.619 470.211 728.689C470.211 722.758 471.278 718.449 473.411 715.761C475.587 713.073 478.958 711.729 483.523 711.729C485.059 711.729 487.491 712.006 490.819 712.561V699.121H497.795ZM489.731 737.777L490.819 737.329V718.385C488.259 717.958 485.891 717.745 483.715 717.745C479.406 717.745 477.251 721.329 477.251 728.497C477.251 732.422 477.742 735.153 478.723 736.689C479.747 738.182 481.347 738.929 483.523 738.929C485.699 738.929 487.769 738.545 489.731 737.777ZM529.03 738.673L530.822 738.481L530.95 743.665C526.086 744.646 521.777 745.137 518.022 745.137C513.286 745.137 509.873 743.835 507.782 741.233C505.734 738.63 504.71 734.47 504.71 728.753C504.71 717.403 509.339 711.729 518.598 711.729C527.558 711.729 532.038 716.614 532.038 726.385L531.59 731.377H511.75C511.793 734.022 512.369 735.963 513.478 737.201C514.587 738.438 516.657 739.057 519.686 739.057C522.715 739.057 525.83 738.929 529.03 738.673ZM525.19 726.001C525.19 722.843 524.678 720.646 523.654 719.409C522.673 718.129 520.987 717.489 518.598 717.489C516.209 717.489 514.459 718.15 513.35 719.473C512.283 720.795 511.729 722.971 511.686 726.001H525.19ZM545.722 744.433H538.746V712.433H545.658V714.417C548.773 712.625 551.717 711.729 554.49 711.729C558.757 711.729 561.658 712.945 563.194 715.377C564.773 717.766 565.562 721.734 565.562 727.281V744.433H558.65V727.473C558.65 724.017 558.266 721.563 557.498 720.113C556.773 718.662 555.258 717.937 552.954 717.937C550.778 717.937 548.687 718.363 546.682 719.217L545.722 719.601V744.433ZM590.899 718.385H582.067V732.465C582.067 735.067 582.259 736.795 582.643 737.649C583.027 738.502 584.009 738.929 585.587 738.929L590.835 738.737L591.155 744.305C588.297 744.859 586.121 745.137 584.627 745.137C581.001 745.137 578.505 744.305 577.139 742.641C575.817 740.977 575.155 737.841 575.155 733.233V718.385H571.059V712.433H575.155V703.153H582.067V712.433H590.899V718.385ZM330.89 841.433V797.593H343.242L353.034 831.833L362.826 797.593H375.242V841.433H368.074V805.465H367.114L356.746 839.641H349.322L338.954 805.465H337.994V841.433H330.89ZM406.842 835.673L408.634 835.481L408.762 840.665C403.898 841.646 399.589 842.137 395.834 842.137C391.098 842.137 387.685 840.835 385.594 838.233C383.546 835.63 382.522 831.47 382.522 825.753C382.522 814.403 387.152 808.729 396.41 808.729C405.37 808.729 409.85 813.614 409.85 823.385L409.402 828.377H389.562C389.605 831.022 390.181 832.963 391.29 834.201C392.4 835.438 394.469 836.057 397.498 836.057C400.528 836.057 403.642 835.929 406.842 835.673ZM403.002 823.001C403.002 819.843 402.49 817.646 401.466 816.409C400.485 815.129 398.8 814.489 396.41 814.489C394.021 814.489 392.272 815.15 391.162 816.473C390.096 817.795 389.541 819.971 389.498 823.001H403.002ZM423.534 841.433H416.558V809.433H423.47V811.417C426.585 809.625 429.529 808.729 432.302 808.729C436.569 808.729 439.47 809.945 441.006 812.377C442.585 814.766 443.374 818.734 443.374 824.281V841.433H436.462V824.473C436.462 821.017 436.078 818.563 435.31 817.113C434.585 815.662 433.07 814.937 430.766 814.937C428.59 814.937 426.5 815.363 424.494 816.217L423.534 816.601V841.433ZM468.712 815.385H459.88V829.465C459.88 832.067 460.072 833.795 460.456 834.649C460.84 835.502 461.821 835.929 463.4 835.929L468.648 835.737L468.968 841.305C466.109 841.859 463.933 842.137 462.44 842.137C458.813 842.137 456.317 841.305 454.952 839.641C453.629 837.977 452.968 834.841 452.968 830.233V815.385H448.872V809.433H452.968V800.153H459.88V809.433H468.712V815.385ZM476.161 812.889C478.38 810.115 482.049 808.729 487.169 808.729C492.289 808.729 495.937 810.115 498.113 812.889C500.332 815.662 501.441 819.822 501.441 825.369C501.441 830.915 500.375 835.097 498.241 837.913C496.108 840.729 492.417 842.137 487.169 842.137C481.921 842.137 478.231 840.729 476.097 837.913C473.964 835.097 472.897 830.915 472.897 825.369C472.897 819.822 473.985 815.662 476.161 812.889ZM481.409 833.689C482.391 835.395 484.311 836.249 487.169 836.249C490.028 836.249 491.948 835.395 492.929 833.689C493.911 831.982 494.401 829.187 494.401 825.305C494.401 821.422 493.868 818.67 492.801 817.049C491.777 815.427 489.9 814.617 487.169 814.617C484.439 814.617 482.54 815.427 481.473 817.049C480.449 818.67 479.937 821.422 479.937 825.305C479.937 829.187 480.428 831.982 481.409 833.689ZM508.371 841.433V809.433H515.283V813.273C518.91 810.926 522.536 809.411 526.163 808.729V815.705C522.494 816.43 519.358 817.369 516.755 818.521L515.347 819.097V841.433H508.371ZM553.704 816.025C548.669 815.342 545.021 815.001 542.76 815.001C540.499 815.001 538.92 815.278 538.024 815.833C537.171 816.345 536.744 817.177 536.744 818.329C536.744 819.481 537.213 820.291 538.152 820.761C539.133 821.23 541.395 821.785 544.936 822.425C548.52 823.022 551.059 823.982 552.552 825.305C554.045 826.627 554.792 828.974 554.792 832.345C554.792 835.715 553.704 838.19 551.528 839.769C549.395 841.347 546.259 842.137 542.12 842.137C539.517 842.137 536.232 841.774 532.264 841.049L530.28 840.729L530.536 834.905C535.656 835.587 539.347 835.929 541.608 835.929C543.869 835.929 545.469 835.651 546.408 835.097C547.389 834.542 547.88 833.625 547.88 832.345C547.88 831.065 547.411 830.19 546.472 829.721C545.576 829.209 543.379 828.675 539.88 828.121C536.424 827.523 533.885 826.606 532.264 825.369C530.643 824.131 529.832 821.87 529.832 818.585C529.832 815.299 530.941 812.846 533.16 811.225C535.421 809.603 538.301 808.793 541.8 808.793C544.531 808.793 547.88 809.134 551.848 809.817L553.832 810.201L553.704 816.025ZM568.472 841.433H561.496V796.121H568.472V811.097C571.629 809.518 574.552 808.729 577.24 808.729C581.507 808.729 584.408 809.945 585.944 812.377C587.523 814.766 588.312 818.734 588.312 824.281V841.433H581.336V824.473C581.336 821.017 580.973 818.563 580.248 817.113C579.523 815.662 577.987 814.937 575.64 814.937C573.592 814.937 571.544 815.278 569.496 815.961L568.472 816.345V841.433ZM596.433 841.433V809.433H603.409V841.433H596.433ZM596.433 803.993V796.633H603.409V803.993H596.433ZM611.871 855.193V809.433H618.783V811.417C621.727 809.625 624.479 808.729 627.039 808.729C631.263 808.729 634.356 810.03 636.319 812.633C638.282 815.193 639.263 819.523 639.263 825.625C639.263 831.683 638.132 835.95 635.871 838.425C633.652 840.899 630.004 842.137 624.927 842.137C623.178 842.137 621.151 841.945 618.847 841.561V855.193H611.871ZM625.823 814.937C623.818 814.937 621.812 815.385 619.807 816.281L618.847 816.729V835.609C620.554 835.95 622.431 836.121 624.479 836.121C627.38 836.121 629.386 835.289 630.495 833.625C631.604 831.961 632.159 829.123 632.159 825.113C632.159 818.329 630.047 814.937 625.823 814.937Z" fill="white"/>
<path d="M482.345 1602.39C600.867 1602.39 696.947 1505.1 696.947 1385.08C696.947 1265.06 600.867 1167.77 482.345 1167.77C363.824 1167.77 267.744 1265.06 267.744 1385.08C267.744 1505.1 363.824 1602.39 482.345 1602.39Z" fill="#2DB2C4"/>
<path d="M319.559 1375.05C313.159 1375.05 308.807 1373.28 306.503 1369.74C304.241 1366.2 303.111 1360.37 303.111 1352.27C303.111 1344.16 304.263 1338.4 306.567 1334.99C308.871 1331.53 313.201 1329.8 319.559 1329.8C323.356 1329.8 327.537 1330.34 332.103 1331.4L331.847 1337.16C328.007 1336.48 324.167 1336.14 320.327 1336.14C316.487 1336.14 313.884 1337.29 312.519 1339.59C311.153 1341.86 310.471 1346.14 310.471 1352.46C310.471 1358.73 311.132 1363.02 312.455 1365.32C313.777 1367.58 316.359 1368.71 320.199 1368.71C324.039 1368.71 327.921 1368.39 331.847 1367.75L332.039 1373.64C327.644 1374.58 323.484 1375.05 319.559 1375.05ZM339.985 1345.8C342.203 1343.03 345.873 1341.64 350.993 1341.64C356.113 1341.64 359.761 1343.03 361.937 1345.8C364.155 1348.58 365.265 1352.74 365.265 1358.28C365.265 1363.83 364.198 1368.01 362.065 1370.83C359.931 1373.64 356.241 1375.05 350.993 1375.05C345.745 1375.05 342.054 1373.64 339.921 1370.83C337.787 1368.01 336.721 1363.83 336.721 1358.28C336.721 1352.74 337.809 1348.58 339.985 1345.8ZM345.233 1366.6C346.214 1368.31 348.134 1369.16 350.993 1369.16C353.851 1369.16 355.771 1368.31 356.753 1366.6C357.734 1364.9 358.225 1362.1 358.225 1358.22C358.225 1354.34 357.691 1351.58 356.625 1349.96C355.601 1348.34 353.723 1347.53 350.993 1347.53C348.262 1347.53 346.363 1348.34 345.297 1349.96C344.273 1351.58 343.761 1354.34 343.761 1358.22C343.761 1362.1 344.251 1364.9 345.233 1366.6ZM372.578 1374.35V1329.03H379.554V1374.35H372.578ZM388.766 1374.35V1329.03H395.742V1374.35H388.766ZM428.249 1352.2V1366.79C428.292 1367.73 428.526 1368.44 428.953 1368.91C429.422 1369.33 430.126 1369.61 431.065 1369.74L430.873 1375.05C427.204 1375.05 424.366 1374.26 422.361 1372.68C418.948 1374.26 415.513 1375.05 412.057 1375.05C405.7 1375.05 402.521 1371.66 402.521 1364.87C402.521 1361.63 403.374 1359.29 405.081 1357.83C406.83 1356.38 409.497 1355.51 413.081 1355.21L421.337 1354.51V1352.2C421.337 1350.5 420.953 1349.3 420.185 1348.62C419.46 1347.94 418.372 1347.59 416.921 1347.59C414.19 1347.59 410.777 1347.77 406.681 1348.11L404.633 1348.23L404.377 1343.31C409.028 1342.2 413.294 1341.64 417.177 1341.64C421.102 1341.64 423.918 1342.5 425.625 1344.2C427.374 1345.87 428.249 1348.53 428.249 1352.2ZM413.913 1360.14C410.969 1360.39 409.497 1361.99 409.497 1364.94C409.497 1367.88 410.798 1369.35 413.401 1369.35C415.534 1369.35 417.796 1369.01 420.185 1368.33L421.337 1367.95V1359.43L413.913 1360.14ZM451.919 1341.64C456.313 1341.64 459.471 1342.88 461.391 1345.35C463.353 1347.79 464.335 1352.12 464.335 1358.35C464.335 1364.58 463.183 1368.93 460.879 1371.4C458.575 1373.83 454.521 1375.05 448.719 1375.05C446.713 1375.05 443.535 1374.86 439.183 1374.47L437.007 1374.28V1329.03H443.919V1343.56C446.863 1342.28 449.529 1341.64 451.919 1341.64ZM448.719 1368.84C452.132 1368.84 454.393 1368.05 455.503 1366.47C456.655 1364.85 457.231 1362.12 457.231 1358.28C457.231 1354.44 456.74 1351.75 455.759 1350.22C454.82 1348.64 453.263 1347.85 451.087 1347.85C449.039 1347.85 446.991 1348.17 444.943 1348.81L443.919 1349.13V1368.59C446.265 1368.76 447.865 1368.84 448.719 1368.84ZM473.047 1345.8C475.266 1343.03 478.935 1341.64 484.055 1341.64C489.175 1341.64 492.823 1343.03 494.999 1345.8C497.218 1348.58 498.327 1352.74 498.327 1358.28C498.327 1363.83 497.26 1368.01 495.127 1370.83C492.994 1373.64 489.303 1375.05 484.055 1375.05C478.807 1375.05 475.116 1373.64 472.983 1370.83C470.85 1368.01 469.783 1363.83 469.783 1358.28C469.783 1352.74 470.871 1348.58 473.047 1345.8ZM478.295 1366.6C479.276 1368.31 481.196 1369.16 484.055 1369.16C486.914 1369.16 488.834 1368.31 489.815 1366.6C490.796 1364.9 491.287 1362.1 491.287 1358.22C491.287 1354.34 490.754 1351.58 489.687 1349.96C488.663 1348.34 486.786 1347.53 484.055 1347.53C481.324 1347.53 479.426 1348.34 478.359 1349.96C477.335 1351.58 476.823 1354.34 476.823 1358.22C476.823 1362.1 477.314 1364.9 478.295 1366.6ZM505.257 1374.35V1342.35H512.169V1346.19C515.795 1343.84 519.422 1342.33 523.049 1341.64V1348.62C519.379 1349.34 516.243 1350.28 513.641 1351.43L512.233 1352.01V1374.35H505.257ZM552.062 1352.2V1366.79C552.104 1367.73 552.339 1368.44 552.766 1368.91C553.235 1369.33 553.939 1369.61 554.878 1369.74L554.686 1375.05C551.016 1375.05 548.179 1374.26 546.174 1372.68C542.76 1374.26 539.326 1375.05 535.87 1375.05C529.512 1375.05 526.334 1371.66 526.334 1364.87C526.334 1361.63 527.187 1359.29 528.894 1357.83C530.643 1356.38 533.31 1355.51 536.894 1355.21L545.15 1354.51V1352.2C545.15 1350.5 544.766 1349.3 543.998 1348.62C543.272 1347.94 542.184 1347.59 540.734 1347.59C538.003 1347.59 534.59 1347.77 530.494 1348.11L528.446 1348.23L528.19 1343.31C532.84 1342.2 537.107 1341.64 540.99 1341.64C544.915 1341.64 547.731 1342.5 549.438 1344.2C551.187 1345.87 552.062 1348.53 552.062 1352.2ZM537.726 1360.14C534.782 1360.39 533.31 1361.99 533.31 1364.94C533.31 1367.88 534.611 1369.35 537.214 1369.35C539.347 1369.35 541.608 1369.01 543.998 1368.33L545.15 1367.95V1359.43L537.726 1360.14ZM578.035 1348.3H569.203V1362.38C569.203 1364.98 569.395 1366.71 569.779 1367.56C570.163 1368.42 571.144 1368.84 572.723 1368.84L577.971 1368.65L578.291 1374.22C575.432 1374.77 573.256 1375.05 571.763 1375.05C568.136 1375.05 565.64 1374.22 564.275 1372.55C562.952 1370.89 562.291 1367.75 562.291 1363.15V1348.3H558.195V1342.35H562.291V1333.07H569.203V1342.35H578.035V1348.3ZM583.757 1374.35V1342.35H590.733V1374.35H583.757ZM583.757 1336.91V1329.55H590.733V1336.91H583.757ZM596.186 1342.35H603.482L609.626 1368.39H611.674L618.074 1342.35H625.178L616.858 1374.35H604.442L596.186 1342.35ZM652.916 1368.59L654.708 1368.39L654.836 1373.58C649.972 1374.56 645.662 1375.05 641.908 1375.05C637.172 1375.05 633.758 1373.75 631.668 1371.15C629.62 1368.54 628.596 1364.38 628.596 1358.67C628.596 1347.32 633.225 1341.64 642.484 1341.64C651.444 1341.64 655.924 1346.53 655.924 1356.3L655.476 1361.29H635.636C635.678 1363.94 636.254 1365.88 637.364 1367.11C638.473 1368.35 640.542 1368.97 643.572 1368.97C646.601 1368.97 649.716 1368.84 652.916 1368.59ZM649.076 1355.91C649.076 1352.76 648.564 1350.56 647.54 1349.32C646.558 1348.04 644.873 1347.4 642.484 1347.4C640.094 1347.4 638.345 1348.06 637.236 1349.39C636.169 1350.71 635.614 1352.89 635.572 1355.91H649.076ZM390.04 1471.35H365.464V1427.51H372.568V1465.01H390.04V1471.35ZM417.791 1465.59L419.583 1465.39L419.711 1470.58C414.847 1471.56 410.537 1472.05 406.783 1472.05C402.047 1472.05 398.633 1470.75 396.543 1468.15C394.495 1465.54 393.471 1461.38 393.471 1455.67C393.471 1444.32 398.1 1438.64 407.359 1438.64C416.319 1438.64 420.799 1443.53 420.799 1453.3L420.351 1458.29H400.511C400.553 1460.94 401.129 1462.88 402.239 1464.11C403.348 1465.35 405.417 1465.97 408.447 1465.97C411.476 1465.97 414.591 1465.84 417.791 1465.59ZM413.951 1452.91C413.951 1449.76 413.439 1447.56 412.415 1446.32C411.433 1445.04 409.748 1444.4 407.359 1444.4C404.969 1444.4 403.22 1445.06 402.111 1446.39C401.044 1447.71 400.489 1449.89 400.447 1452.91H413.951ZM451.187 1449.2V1463.79C451.229 1464.73 451.464 1465.44 451.891 1465.91C452.36 1466.33 453.064 1466.61 454.003 1466.74L453.811 1472.05C450.141 1472.05 447.304 1471.26 445.299 1469.68C441.885 1471.26 438.451 1472.05 434.995 1472.05C428.637 1472.05 425.459 1468.66 425.459 1461.87C425.459 1458.63 426.312 1456.29 428.019 1454.83C429.768 1453.38 432.435 1452.51 436.019 1452.21L444.275 1451.51V1449.2C444.275 1447.5 443.891 1446.3 443.123 1445.62C442.397 1444.94 441.309 1444.59 439.859 1444.59C437.128 1444.59 433.715 1444.77 429.619 1445.11L427.571 1445.23L427.315 1440.31C431.965 1439.2 436.232 1438.64 440.115 1438.64C444.04 1438.64 446.856 1439.5 448.563 1441.2C450.312 1442.87 451.187 1445.53 451.187 1449.2ZM436.851 1457.14C433.907 1457.39 432.435 1458.99 432.435 1461.94C432.435 1464.88 433.736 1466.35 436.339 1466.35C438.472 1466.35 440.733 1466.01 443.123 1465.33L444.275 1464.95V1456.43L436.851 1457.14ZM459.944 1471.35V1439.35H466.856V1443.19C470.483 1440.84 474.109 1439.33 477.736 1438.64V1445.62C474.067 1446.34 470.931 1447.28 468.328 1448.43L466.92 1449.01V1471.35H459.944ZM490.045 1471.35H483.069V1439.35H489.981V1441.33C493.096 1439.54 496.04 1438.64 498.813 1438.64C503.08 1438.64 505.981 1439.86 507.517 1442.29C509.096 1444.68 509.885 1448.65 509.885 1454.19V1471.35H502.973V1454.39C502.973 1450.93 502.589 1448.48 501.821 1447.03C501.096 1445.58 499.581 1444.85 497.277 1444.85C495.101 1444.85 493.01 1445.28 491.005 1446.13L490.045 1446.51V1471.35ZM518.007 1471.35V1439.35H524.983V1471.35H518.007ZM518.007 1433.91V1426.55H524.983V1433.91H518.007ZM540.42 1471.35H533.444V1439.35H540.356V1441.33C543.471 1439.54 546.415 1438.64 549.188 1438.64C553.455 1438.64 556.356 1439.86 557.892 1442.29C559.471 1444.68 560.26 1448.65 560.26 1454.19V1471.35H553.348V1454.39C553.348 1450.93 552.964 1448.48 552.196 1447.03C551.471 1445.58 549.956 1444.85 547.652 1444.85C545.476 1444.85 543.385 1445.28 541.38 1446.13L540.42 1446.51V1471.35ZM596.35 1475.7C596.35 1482.7 591.294 1486.19 581.182 1486.19C576.318 1486.19 572.712 1485.53 570.366 1484.21C568.019 1482.89 566.846 1480.48 566.846 1476.98C566.846 1475.4 567.23 1474.03 567.998 1472.88C568.766 1471.77 570.003 1470.56 571.71 1469.23C570.302 1468.3 569.598 1466.74 569.598 1464.56C569.598 1463.71 570.174 1462.32 571.326 1460.4L571.902 1459.44C568.83 1457.61 567.294 1454.41 567.294 1449.84C567.294 1446 568.446 1443.19 570.75 1441.39C573.054 1439.6 576.168 1438.71 580.094 1438.71C581.971 1438.71 583.827 1438.92 585.662 1439.35L586.622 1439.54L596.542 1439.28V1444.91L591.23 1444.59C592.382 1446.09 592.958 1447.84 592.958 1449.84C592.958 1454.02 591.891 1456.93 589.758 1458.55C587.667 1460.13 584.382 1460.91 579.902 1460.91C578.792 1460.91 577.854 1460.83 577.086 1460.66C576.488 1462.11 576.19 1463.24 576.19 1464.05C576.19 1464.82 576.574 1465.35 577.342 1465.65C578.152 1465.95 580.072 1466.12 583.102 1466.16C588.179 1466.21 591.656 1466.89 593.534 1468.21C595.411 1469.53 596.35 1472.03 596.35 1475.7ZM573.694 1476.34C573.694 1477.83 574.291 1478.9 575.486 1479.54C576.68 1480.18 578.728 1480.5 581.63 1480.5C586.792 1480.5 589.374 1479.03 589.374 1476.08C589.374 1474.42 588.904 1473.35 587.966 1472.88C587.07 1472.46 585.256 1472.22 582.526 1472.18L576.254 1471.79C575.315 1472.56 574.654 1473.27 574.27 1473.91C573.886 1474.59 573.694 1475.4 573.694 1476.34ZM574.206 1449.84C574.206 1451.81 574.675 1453.26 575.614 1454.19C576.552 1455.09 578.067 1455.54 580.158 1455.54C582.248 1455.54 583.742 1455.09 584.638 1454.19C585.576 1453.26 586.046 1451.81 586.046 1449.84C586.046 1447.88 585.576 1446.45 584.638 1445.55C583.699 1444.62 582.184 1444.15 580.094 1444.15C576.168 1444.15 574.206 1446.05 574.206 1449.84Z" fill="white"/>
<path d="M1104.06 1822.9C1222.58 1822.9 1318.66 1725.61 1318.66 1605.59C1318.66 1485.57 1222.58 1388.28 1104.06 1388.28C985.539 1388.28 889.459 1485.57 889.459 1605.59C889.459 1725.61 985.539 1822.9 1104.06 1822.9Z" fill="#2DB2C4"/>
<path d="M978.153 1584.06H969.193V1597.69H962.089V1553.85H978.153C988.094 1553.85 993.065 1558.76 993.065 1568.57C993.065 1573.61 991.806 1577.45 989.289 1580.09C986.814 1582.74 983.102 1584.06 978.153 1584.06ZM969.193 1577.92H978.089C983.209 1577.92 985.769 1574.8 985.769 1568.57C985.769 1565.59 985.15 1563.41 983.913 1562.05C982.675 1560.68 980.734 1560 978.089 1560H969.193V1577.92ZM999.069 1597.69V1565.69H1005.98V1569.53C1009.61 1567.19 1013.23 1565.67 1016.86 1564.99V1571.97C1013.19 1572.69 1010.06 1573.63 1007.45 1574.78L1006.05 1575.36V1597.69H999.069ZM1023.67 1569.15C1025.89 1566.38 1029.56 1564.99 1034.68 1564.99C1039.8 1564.99 1043.45 1566.38 1045.62 1569.15C1047.84 1571.92 1048.95 1576.08 1048.95 1581.63C1048.95 1587.18 1047.89 1591.36 1045.75 1594.17C1043.62 1596.99 1039.93 1598.4 1034.68 1598.4C1029.43 1598.4 1025.74 1596.99 1023.61 1594.17C1021.47 1591.36 1020.41 1587.18 1020.41 1581.63C1020.41 1576.08 1021.5 1571.92 1023.67 1569.15ZM1028.92 1589.95C1029.9 1591.66 1031.82 1592.51 1034.68 1592.51C1037.54 1592.51 1039.46 1591.66 1040.44 1589.95C1041.42 1588.24 1041.91 1585.45 1041.91 1581.57C1041.91 1577.68 1041.38 1574.93 1040.31 1573.31C1039.29 1571.69 1037.41 1570.88 1034.68 1570.88C1031.95 1570.88 1030.05 1571.69 1028.98 1573.31C1027.96 1574.93 1027.45 1577.68 1027.45 1581.57C1027.45 1585.45 1027.94 1588.24 1028.92 1589.95ZM1081.99 1552.38V1597.69H1075.08V1596.03C1071.97 1597.61 1069.11 1598.4 1066.51 1598.4C1062.32 1598.4 1059.25 1597.14 1057.29 1594.62C1055.37 1592.11 1054.41 1587.88 1054.41 1581.95C1054.41 1576.02 1055.48 1571.71 1057.61 1569.02C1059.79 1566.33 1063.16 1564.99 1067.72 1564.99C1069.26 1564.99 1071.69 1565.27 1075.02 1565.82V1552.38H1081.99ZM1073.93 1591.04L1075.02 1590.59V1571.65C1072.46 1571.22 1070.09 1571.01 1067.91 1571.01C1063.6 1571.01 1061.45 1574.59 1061.45 1581.76C1061.45 1585.68 1061.94 1588.41 1062.92 1589.95C1063.95 1591.44 1065.55 1592.19 1067.72 1592.19C1069.9 1592.19 1071.97 1591.81 1073.93 1591.04ZM1109.84 1565.69H1116.75V1597.69H1109.84V1595.71C1106.72 1597.5 1103.84 1598.4 1101.2 1598.4C1096.8 1598.4 1093.86 1597.23 1092.36 1594.88C1090.87 1592.49 1090.12 1588.33 1090.12 1582.4V1565.69H1097.1V1582.46C1097.1 1586.3 1097.42 1588.88 1098.06 1590.21C1098.7 1591.53 1100.19 1592.19 1102.54 1592.19C1104.84 1592.19 1106.96 1591.76 1108.88 1590.91L1109.84 1590.53V1565.69ZM1137.16 1564.99C1139.42 1564.99 1142.09 1565.29 1145.16 1565.89L1146.76 1566.21L1146.51 1571.71C1143.14 1571.37 1140.64 1571.2 1139.02 1571.2C1135.78 1571.2 1133.6 1571.92 1132.49 1573.37C1131.38 1574.83 1130.83 1577.56 1130.83 1581.57C1130.83 1585.58 1131.36 1588.35 1132.43 1589.89C1133.49 1591.42 1135.71 1592.19 1139.08 1592.19L1146.57 1591.68L1146.76 1597.25C1142.45 1598.01 1139.21 1598.4 1137.03 1598.4C1132.17 1598.4 1128.74 1597.1 1126.73 1594.49C1124.77 1591.85 1123.79 1587.54 1123.79 1581.57C1123.79 1575.59 1124.83 1571.35 1126.92 1568.83C1129.01 1566.27 1132.43 1564.99 1137.16 1564.99ZM1170.72 1571.65H1161.89V1585.73C1161.89 1588.33 1162.08 1590.06 1162.47 1590.91C1162.85 1591.76 1163.83 1592.19 1165.41 1592.19L1170.66 1592L1170.98 1597.57C1168.12 1598.12 1165.94 1598.4 1164.45 1598.4C1160.82 1598.4 1158.33 1597.57 1156.96 1595.9C1155.64 1594.24 1154.98 1591.1 1154.98 1586.49V1571.65H1150.88V1565.69H1154.98V1556.41H1161.89V1565.69H1170.72V1571.65ZM1176.44 1597.69V1565.69H1183.42V1597.69H1176.44ZM1176.44 1560.25V1552.89H1183.42V1560.25H1176.44ZM1188.87 1565.69H1196.17L1202.31 1591.74H1204.36L1210.76 1565.69H1217.87L1209.55 1597.69H1197.13L1188.87 1565.69ZM1245.6 1591.93L1247.4 1591.74L1247.52 1596.93C1242.66 1597.91 1238.35 1598.4 1234.6 1598.4C1229.86 1598.4 1226.45 1597.1 1224.36 1594.49C1222.31 1591.89 1221.28 1587.73 1221.28 1582.01C1221.28 1570.67 1225.91 1564.99 1235.17 1564.99C1244.13 1564.99 1248.61 1569.88 1248.61 1579.65L1248.16 1584.64H1228.32C1228.37 1587.28 1228.94 1589.23 1230.05 1590.46C1231.16 1591.7 1233.23 1592.32 1236.26 1592.32C1239.29 1592.32 1242.4 1592.19 1245.6 1591.93ZM1241.76 1579.26C1241.76 1576.11 1241.25 1573.91 1240.23 1572.67C1239.25 1571.39 1237.56 1570.75 1235.17 1570.75C1232.78 1570.75 1231.03 1571.41 1229.92 1572.73C1228.86 1574.06 1228.3 1576.23 1228.26 1579.26H1241.76ZM1020.86 1685.41C1022.31 1687.93 1025.08 1689.19 1029.18 1689.19C1033.28 1689.19 1036.03 1687.95 1037.44 1685.48C1038.89 1683 1039.61 1678.87 1039.61 1673.06C1039.61 1667.22 1038.87 1662.97 1037.37 1660.33C1035.92 1657.68 1033.19 1656.36 1029.18 1656.36C1025.17 1656.36 1022.42 1657.68 1020.92 1660.33C1019.43 1662.97 1018.68 1667.2 1018.68 1673C1018.68 1678.76 1019.41 1682.9 1020.86 1685.41ZM1043 1690.02C1040.4 1693.61 1035.79 1695.4 1029.18 1695.4C1022.57 1695.4 1017.94 1693.61 1015.29 1690.02C1012.65 1686.4 1011.32 1680.72 1011.32 1673C1011.32 1665.28 1012.65 1659.54 1015.29 1655.78C1017.98 1652.03 1022.61 1650.15 1029.18 1650.15C1035.75 1650.15 1040.36 1652.03 1043 1655.78C1045.65 1659.49 1046.97 1665.23 1046.97 1673C1046.97 1680.76 1045.65 1686.44 1043 1690.02ZM1073.8 1662.69H1080.72V1694.69H1073.8V1692.71C1070.69 1694.5 1067.81 1695.4 1065.16 1695.4C1060.77 1695.4 1057.83 1694.23 1056.33 1691.88C1054.84 1689.49 1054.09 1685.33 1054.09 1679.4V1662.69H1061.07V1679.46C1061.07 1683.3 1061.39 1685.88 1062.03 1687.21C1062.67 1688.53 1064.16 1689.19 1066.51 1689.19C1068.81 1689.19 1070.92 1688.76 1072.84 1687.91L1073.8 1687.53V1662.69ZM1106.38 1668.65H1097.55V1682.73C1097.55 1685.33 1097.74 1687.06 1098.12 1687.91C1098.51 1688.76 1099.49 1689.19 1101.07 1689.19L1106.31 1689L1106.63 1694.57C1103.78 1695.12 1101.6 1695.4 1100.11 1695.4C1096.48 1695.4 1093.98 1694.57 1092.62 1692.9C1091.3 1691.24 1090.63 1688.1 1090.63 1683.49V1668.65H1086.54V1662.69H1090.63V1653.41H1097.55V1662.69H1106.38V1668.65ZM1112.1 1708.45V1662.69H1119.01V1664.68C1121.96 1662.89 1124.71 1661.99 1127.27 1661.99C1131.49 1661.99 1134.59 1663.29 1136.55 1665.89C1138.51 1668.45 1139.49 1672.79 1139.49 1678.89C1139.49 1684.95 1138.36 1689.21 1136.1 1691.69C1133.88 1694.16 1130.23 1695.4 1125.16 1695.4C1123.41 1695.4 1121.38 1695.21 1119.08 1694.82V1708.45H1112.1ZM1126.05 1668.2C1124.05 1668.2 1122.04 1668.65 1120.04 1669.54L1119.08 1669.99V1688.87C1120.78 1689.21 1122.66 1689.38 1124.71 1689.38C1127.61 1689.38 1129.61 1688.55 1130.72 1686.89C1131.83 1685.22 1132.39 1682.39 1132.39 1678.37C1132.39 1671.59 1130.28 1668.2 1126.05 1668.2ZM1165.87 1662.69H1172.78V1694.69H1165.87V1692.71C1162.75 1694.5 1159.87 1695.4 1157.23 1695.4C1152.83 1695.4 1149.89 1694.23 1148.4 1691.88C1146.9 1689.49 1146.16 1685.33 1146.16 1679.4V1662.69H1153.13V1679.46C1153.13 1683.3 1153.45 1685.88 1154.09 1687.21C1154.73 1688.53 1156.22 1689.19 1158.57 1689.19C1160.88 1689.19 1162.99 1688.76 1164.91 1687.91L1165.87 1687.53V1662.69ZM1198.44 1668.65H1189.61V1682.73C1189.61 1685.33 1189.8 1687.06 1190.19 1687.91C1190.57 1688.76 1191.55 1689.19 1193.13 1689.19L1198.38 1689L1198.7 1694.57C1195.84 1695.12 1193.66 1695.4 1192.17 1695.4C1188.54 1695.4 1186.05 1694.57 1184.68 1692.9C1183.36 1691.24 1182.7 1688.1 1182.7 1683.49V1668.65H1178.6V1662.69H1182.7V1653.41H1189.61V1662.69H1198.44V1668.65Z" fill="white"/>
<path d="M1697.37 1564.04C1815.89 1564.04 1911.97 1466.75 1911.97 1346.73C1911.97 1226.72 1815.89 1129.42 1697.37 1129.42C1578.85 1129.42 1482.77 1226.72 1482.77 1346.73C1482.77 1466.75 1578.85 1564.04 1697.37 1564.04Z" fill="#2DB2C4"/>
<path d="M1607.05 1233.66C1601.63 1233.66 1598.92 1235.56 1598.92 1239.36C1598.92 1241.32 1599.56 1242.73 1600.84 1243.58C1602.12 1244.39 1604.94 1245.42 1609.29 1246.66C1613.69 1247.85 1616.78 1249.3 1618.57 1251.01C1620.36 1252.67 1621.26 1255.32 1621.26 1258.94C1621.26 1263.55 1619.94 1267.01 1617.29 1269.31C1614.69 1271.57 1611.13 1272.7 1606.6 1272.7C1602.98 1272.7 1598.97 1272.28 1594.57 1271.42L1592.27 1270.98L1592.97 1265.28C1598.73 1266.05 1603.13 1266.43 1606.16 1266.43C1611.45 1266.43 1614.09 1264.09 1614.09 1259.39C1614.09 1257.56 1613.5 1256.21 1612.3 1255.36C1611.11 1254.46 1608.42 1253.5 1604.24 1252.48C1600.06 1251.41 1596.94 1249.96 1594.89 1248.13C1592.84 1246.29 1591.82 1243.39 1591.82 1239.42C1591.82 1235.46 1593.1 1232.47 1595.66 1230.46C1598.26 1228.42 1601.85 1227.39 1606.41 1227.39C1609.7 1227.39 1613.58 1227.78 1618.06 1228.54L1620.3 1228.93L1619.72 1234.69C1613.75 1234.01 1609.53 1233.66 1607.05 1233.66ZM1644.89 1245.95H1636.05V1260.03C1636.05 1262.63 1636.25 1264.36 1636.63 1265.22C1637.01 1266.07 1637.99 1266.5 1639.57 1266.5L1644.82 1266.3L1645.14 1271.87C1642.28 1272.43 1640.11 1272.7 1638.61 1272.7C1634.99 1272.7 1632.49 1271.87 1631.13 1270.21C1629.8 1268.54 1629.14 1265.41 1629.14 1260.8V1245.95H1625.05V1240H1629.14V1230.72H1636.05V1240H1644.89V1245.95ZM1670 1240H1676.91V1272H1670V1270.02C1666.88 1271.81 1664 1272.7 1661.36 1272.7C1656.96 1272.7 1654.02 1271.53 1652.53 1269.18C1651.03 1266.79 1650.29 1262.63 1650.29 1256.7V1240H1657.26V1256.77C1657.26 1260.61 1657.58 1263.19 1658.22 1264.51C1658.86 1265.83 1660.36 1266.5 1662.7 1266.5C1665.01 1266.5 1667.12 1266.07 1669.04 1265.22L1670 1264.83V1240ZM1711.47 1226.69V1272H1704.56V1270.34C1701.44 1271.91 1698.58 1272.7 1695.98 1272.7C1691.8 1272.7 1688.73 1271.45 1686.76 1268.93C1684.84 1266.41 1683.88 1262.19 1683.88 1256.26C1683.88 1250.33 1684.95 1246.02 1687.08 1243.33C1689.26 1240.64 1692.63 1239.3 1697.2 1239.3C1698.73 1239.3 1701.16 1239.57 1704.49 1240.13V1226.69H1711.47ZM1703.4 1265.34L1704.49 1264.9V1245.95C1701.93 1245.53 1699.56 1245.31 1697.39 1245.31C1693.08 1245.31 1690.92 1248.9 1690.92 1256.06C1690.92 1259.99 1691.42 1262.72 1692.4 1264.26C1693.42 1265.75 1695.02 1266.5 1697.2 1266.5C1699.37 1266.5 1701.44 1266.11 1703.4 1265.34ZM1742.7 1266.24L1744.5 1266.05L1744.62 1271.23C1739.76 1272.21 1735.45 1272.7 1731.7 1272.7C1726.96 1272.7 1723.55 1271.4 1721.46 1268.8C1719.41 1266.2 1718.38 1262.04 1718.38 1256.32C1718.38 1244.97 1723.01 1239.3 1732.27 1239.3C1741.23 1239.3 1745.71 1244.18 1745.71 1253.95L1745.26 1258.94H1725.42C1725.47 1261.59 1726.04 1263.53 1727.15 1264.77C1728.26 1266.01 1730.33 1266.62 1733.36 1266.62C1736.39 1266.62 1739.5 1266.5 1742.7 1266.24ZM1738.86 1253.57C1738.86 1250.41 1738.35 1248.21 1737.33 1246.98C1736.35 1245.7 1734.66 1245.06 1732.27 1245.06C1729.88 1245.06 1728.13 1245.72 1727.02 1247.04C1725.96 1248.36 1725.4 1250.54 1725.36 1253.57H1738.86ZM1759.4 1272H1752.42V1240H1759.33V1241.98C1762.45 1240.19 1765.39 1239.3 1768.16 1239.3C1772.43 1239.3 1775.33 1240.51 1776.87 1242.94C1778.45 1245.33 1779.24 1249.3 1779.24 1254.85V1272H1772.32V1255.04C1772.32 1251.58 1771.94 1249.13 1771.17 1247.68C1770.45 1246.23 1768.93 1245.5 1766.63 1245.5C1764.45 1245.5 1762.36 1245.93 1760.36 1246.78L1759.4 1247.17V1272ZM1804.57 1245.95H1795.74V1260.03C1795.74 1262.63 1795.93 1264.36 1796.32 1265.22C1796.7 1266.07 1797.68 1266.5 1799.26 1266.5L1804.51 1266.3L1804.83 1271.87C1801.97 1272.43 1799.79 1272.7 1798.3 1272.7C1794.67 1272.7 1792.18 1271.87 1790.81 1270.21C1789.49 1268.54 1788.83 1265.41 1788.83 1260.8V1245.95H1784.73V1240H1788.83V1230.72H1795.74V1240H1804.57V1245.95ZM1557.32 1355.37H1548.36V1369H1541.25V1325.16H1557.32C1567.26 1325.16 1572.23 1330.07 1572.23 1339.88C1572.23 1344.91 1570.97 1348.75 1568.45 1351.4C1565.98 1354.05 1562.26 1355.37 1557.32 1355.37ZM1548.36 1349.22H1557.25C1562.37 1349.22 1564.93 1346.11 1564.93 1339.88C1564.93 1336.89 1564.31 1334.72 1563.08 1333.35C1561.84 1331.99 1559.9 1331.3 1557.25 1331.3H1548.36V1349.22ZM1578.23 1369V1337H1585.14V1340.84C1588.77 1338.49 1592.4 1336.98 1596.02 1336.3V1343.27C1592.35 1344 1589.22 1344.94 1586.62 1346.09L1585.21 1346.66V1369H1578.23ZM1623.89 1363.24L1625.68 1363.05L1625.81 1368.23C1620.95 1369.21 1616.64 1369.7 1612.88 1369.7C1608.15 1369.7 1604.73 1368.4 1602.64 1365.8C1600.59 1363.2 1599.57 1359.04 1599.57 1353.32C1599.57 1341.97 1604.2 1336.3 1613.46 1336.3C1622.42 1336.3 1626.9 1341.18 1626.9 1350.95L1626.45 1355.94H1606.61C1606.65 1358.59 1607.23 1360.53 1608.34 1361.77C1609.45 1363.01 1611.52 1363.62 1614.55 1363.62C1617.58 1363.62 1620.69 1363.5 1623.89 1363.24ZM1620.05 1350.57C1620.05 1347.41 1619.54 1345.21 1618.51 1343.98C1617.53 1342.7 1615.85 1342.06 1613.46 1342.06C1611.07 1342.06 1609.32 1342.72 1608.21 1344.04C1607.14 1345.36 1606.59 1347.54 1606.55 1350.57H1620.05ZM1633.61 1382.76V1337H1640.52V1338.98C1643.46 1337.19 1646.21 1336.3 1648.77 1336.3C1653 1336.3 1656.09 1337.6 1658.05 1340.2C1660.02 1342.76 1661 1347.09 1661 1353.19C1661 1359.25 1659.87 1363.52 1657.61 1365.99C1655.39 1368.47 1651.74 1369.7 1646.66 1369.7C1644.91 1369.7 1642.89 1369.51 1640.58 1369.13V1382.76H1633.61ZM1647.56 1342.5C1645.55 1342.5 1643.55 1342.95 1641.54 1343.85L1640.58 1344.3V1363.18C1642.29 1363.52 1644.17 1363.69 1646.21 1363.69C1649.12 1363.69 1651.12 1362.86 1652.23 1361.19C1653.34 1359.53 1653.89 1356.69 1653.89 1352.68C1653.89 1345.9 1651.78 1342.5 1647.56 1342.5ZM1691.66 1346.86V1361.45C1691.7 1362.39 1691.94 1363.09 1692.37 1363.56C1692.83 1363.99 1693.54 1364.26 1694.48 1364.39L1694.29 1369.7C1690.62 1369.7 1687.78 1368.91 1685.77 1367.34C1682.36 1368.91 1678.93 1369.7 1675.47 1369.7C1669.11 1369.7 1665.93 1366.31 1665.93 1359.53C1665.93 1356.29 1666.79 1353.94 1668.49 1352.49C1670.24 1351.04 1672.91 1350.16 1676.49 1349.86L1684.75 1349.16V1346.86C1684.75 1345.15 1684.37 1343.95 1683.6 1343.27C1682.87 1342.59 1681.78 1342.25 1680.33 1342.25C1677.6 1342.25 1674.19 1342.42 1670.09 1342.76L1668.05 1342.89L1667.79 1337.96C1672.44 1336.85 1676.71 1336.3 1680.59 1336.3C1684.51 1336.3 1687.33 1337.15 1689.04 1338.86C1690.79 1340.52 1691.66 1343.19 1691.66 1346.86ZM1677.33 1354.79C1674.38 1355.05 1672.91 1356.65 1672.91 1359.59C1672.91 1362.54 1674.21 1364.01 1676.81 1364.01C1678.95 1364.01 1681.21 1363.67 1683.6 1362.98L1684.75 1362.6V1354.09L1677.33 1354.79ZM1700.42 1369V1337H1707.33V1340.84C1710.96 1338.49 1714.58 1336.98 1718.21 1336.3V1343.27C1714.54 1344 1711.41 1344.94 1708.8 1346.09L1707.4 1346.66V1369H1700.42ZM1747.22 1346.86V1361.45C1747.27 1362.39 1747.5 1363.09 1747.93 1363.56C1748.4 1363.99 1749.1 1364.26 1750.04 1364.39L1749.85 1369.7C1746.18 1369.7 1743.34 1368.91 1741.34 1367.34C1737.92 1368.91 1734.49 1369.7 1731.03 1369.7C1724.67 1369.7 1721.5 1366.31 1721.5 1359.53C1721.5 1356.29 1722.35 1353.94 1724.06 1352.49C1725.81 1351.04 1728.47 1350.16 1732.06 1349.86L1740.31 1349.16V1346.86C1740.31 1345.15 1739.93 1343.95 1739.16 1343.27C1738.43 1342.59 1737.35 1342.25 1735.9 1342.25C1733.17 1342.25 1729.75 1342.42 1725.66 1342.76L1723.61 1342.89L1723.35 1337.96C1728 1336.85 1732.27 1336.3 1736.15 1336.3C1740.08 1336.3 1742.89 1337.15 1744.6 1338.86C1746.35 1340.52 1747.22 1343.19 1747.22 1346.86ZM1732.89 1354.79C1729.94 1355.05 1728.47 1356.65 1728.47 1359.59C1728.47 1362.54 1729.77 1364.01 1732.38 1364.01C1734.51 1364.01 1736.77 1363.67 1739.16 1362.98L1740.31 1362.6V1354.09L1732.89 1354.79ZM1773.2 1342.95H1764.37V1357.03C1764.37 1359.63 1764.56 1361.36 1764.94 1362.22C1765.33 1363.07 1766.31 1363.5 1767.89 1363.5L1773.13 1363.3L1773.45 1368.87C1770.59 1369.43 1768.42 1369.7 1766.93 1369.7C1763.3 1369.7 1760.8 1368.87 1759.44 1367.21C1758.11 1365.54 1757.45 1362.41 1757.45 1357.8V1342.95H1753.36V1337H1757.45V1327.72H1764.37V1337H1773.2V1342.95ZM1778.92 1369V1337H1785.9V1369H1778.92ZM1778.92 1331.56V1324.2H1785.9V1331.56H1778.92ZM1796.08 1340.46C1798.3 1337.68 1801.97 1336.3 1807.09 1336.3C1812.21 1336.3 1815.86 1337.68 1818.04 1340.46C1820.26 1343.23 1821.36 1347.39 1821.36 1352.94C1821.36 1358.48 1820.3 1362.66 1818.16 1365.48C1816.03 1368.3 1812.34 1369.7 1807.09 1369.7C1801.84 1369.7 1798.15 1368.3 1796.02 1365.48C1793.89 1362.66 1792.82 1358.48 1792.82 1352.94C1792.82 1347.39 1793.91 1343.23 1796.08 1340.46ZM1801.33 1361.26C1802.31 1362.96 1804.23 1363.82 1807.09 1363.82C1809.95 1363.82 1811.87 1362.96 1812.85 1361.26C1813.83 1359.55 1814.32 1356.75 1814.32 1352.87C1814.32 1348.99 1813.79 1346.24 1812.72 1344.62C1811.7 1342.99 1809.82 1342.18 1807.09 1342.18C1804.36 1342.18 1802.46 1342.99 1801.4 1344.62C1800.37 1346.24 1799.86 1348.99 1799.86 1352.87C1799.86 1356.75 1800.35 1359.55 1801.33 1361.26ZM1835.27 1369H1828.29V1337H1835.21V1338.98C1838.32 1337.19 1841.26 1336.3 1844.04 1336.3C1848.3 1336.3 1851.21 1337.51 1852.74 1339.94C1854.32 1342.33 1855.11 1346.3 1855.11 1351.85V1369H1848.2V1352.04C1848.2 1348.58 1847.81 1346.13 1847.05 1344.68C1846.32 1343.23 1844.81 1342.5 1842.5 1342.5C1840.33 1342.5 1838.24 1342.93 1836.23 1343.78L1835.27 1344.17V1369ZM1658.03 1452.37H1649.07V1466H1641.97V1422.16H1658.03C1667.98 1422.16 1672.95 1427.07 1672.95 1436.88C1672.95 1441.91 1671.69 1445.75 1669.17 1448.4C1666.7 1451.05 1662.98 1452.37 1658.03 1452.37ZM1649.07 1446.22H1657.97C1663.09 1446.22 1665.65 1443.11 1665.65 1436.88C1665.65 1433.89 1665.03 1431.72 1663.79 1430.35C1662.56 1428.99 1660.62 1428.3 1657.97 1428.3H1649.07V1446.22ZM1679.33 1466V1420.69H1686.31V1466H1679.33ZM1718.82 1443.86V1458.45C1718.86 1459.39 1719.1 1460.09 1719.52 1460.56C1719.99 1460.99 1720.7 1461.26 1721.63 1461.39L1721.44 1466.7C1717.77 1466.7 1714.94 1465.91 1712.93 1464.34C1709.52 1465.91 1706.08 1466.7 1702.63 1466.7C1696.27 1466.7 1693.09 1463.31 1693.09 1456.53C1693.09 1453.29 1693.94 1450.94 1695.65 1449.49C1697.4 1448.04 1700.07 1447.16 1703.65 1446.86L1711.91 1446.16V1443.86C1711.91 1442.15 1711.52 1440.95 1710.75 1440.27C1710.03 1439.59 1708.94 1439.25 1707.49 1439.25C1704.76 1439.25 1701.35 1439.42 1697.25 1439.76L1695.2 1439.89L1694.95 1434.96C1699.6 1433.85 1703.86 1433.3 1707.75 1433.3C1711.67 1433.3 1714.49 1434.15 1716.19 1435.86C1717.94 1437.52 1718.82 1440.19 1718.82 1443.86ZM1704.48 1451.79C1701.54 1452.05 1700.07 1453.65 1700.07 1456.59C1700.07 1459.54 1701.37 1461.01 1703.97 1461.01C1706.1 1461.01 1708.36 1460.67 1710.75 1459.98L1711.91 1459.6V1451.09L1704.48 1451.79ZM1734.55 1466H1727.58V1434H1734.49V1435.98C1737.6 1434.19 1740.55 1433.3 1743.32 1433.3C1747.59 1433.3 1750.49 1434.51 1752.02 1436.94C1753.6 1439.33 1754.39 1443.3 1754.39 1448.85V1466H1747.48V1449.04C1747.48 1445.58 1747.1 1443.13 1746.33 1441.68C1745.6 1440.23 1744.09 1439.5 1741.78 1439.5C1739.61 1439.5 1737.52 1439.93 1735.51 1440.78L1734.55 1441.17V1466Z" fill="white"/>
<path d="M1672.12 928.088C1790.64 928.088 1886.72 830.794 1886.72 710.777C1886.72 590.759 1790.64 493.466 1672.12 493.466C1553.6 493.466 1457.52 590.759 1457.52 710.777C1457.52 830.794 1553.6 928.088 1672.12 928.088Z" fill="#2DB2C4"/>
<path d="M1528.07 635V591.16H1535.17V635H1528.07ZM1551.4 635H1544.42V603H1551.33V604.984C1554.45 603.192 1557.39 602.296 1560.17 602.296C1564.43 602.296 1567.33 603.512 1568.87 605.944C1570.45 608.333 1571.24 612.301 1571.24 617.848V635H1564.33V618.04C1564.33 614.584 1563.94 612.131 1563.17 610.68C1562.45 609.229 1560.93 608.504 1558.63 608.504C1556.45 608.504 1554.36 608.931 1552.36 609.784L1551.4 610.168V635ZM1596.58 608.952H1587.74V623.032C1587.74 625.635 1587.94 627.363 1588.32 628.216C1588.7 629.069 1589.68 629.496 1591.26 629.496L1596.51 629.304L1596.83 634.872C1593.97 635.427 1591.8 635.704 1590.3 635.704C1586.68 635.704 1584.18 634.872 1582.82 633.208C1581.49 631.544 1580.83 628.408 1580.83 623.8V608.952H1576.74V603H1580.83V593.72H1587.74V603H1596.58V608.952ZM1625.08 629.24L1626.87 629.048L1627 634.232C1622.14 635.213 1617.83 635.704 1614.07 635.704C1609.34 635.704 1605.92 634.403 1603.83 631.8C1601.78 629.197 1600.76 625.037 1600.76 619.32C1600.76 607.971 1605.39 602.296 1614.65 602.296C1623.61 602.296 1628.09 607.181 1628.09 616.952L1627.64 621.944H1607.8C1607.84 624.589 1608.42 626.531 1609.53 627.768C1610.64 629.005 1612.71 629.624 1615.74 629.624C1618.77 629.624 1621.88 629.496 1625.08 629.24ZM1621.24 616.568C1621.24 613.411 1620.73 611.213 1619.7 609.976C1618.72 608.696 1617.04 608.056 1614.65 608.056C1612.26 608.056 1610.51 608.717 1609.4 610.04C1608.33 611.363 1607.78 613.539 1607.74 616.568H1621.24ZM1634.8 635V603H1641.71V606.84C1645.34 604.493 1648.96 602.979 1652.59 602.296V609.272C1648.92 609.997 1645.78 610.936 1643.18 612.088L1641.77 612.664V635H1634.8ZM1681.6 612.856V627.448C1681.64 628.387 1681.88 629.091 1682.31 629.56C1682.78 629.987 1683.48 630.264 1684.42 630.392L1684.23 635.704C1680.56 635.704 1677.72 634.915 1675.71 633.336C1672.3 634.915 1668.87 635.704 1665.41 635.704C1659.05 635.704 1655.87 632.312 1655.87 625.528C1655.87 622.285 1656.73 619.939 1658.43 618.488C1660.18 617.037 1662.85 616.163 1666.43 615.864L1674.69 615.16V612.856C1674.69 611.149 1674.31 609.955 1673.54 609.272C1672.81 608.589 1671.72 608.248 1670.27 608.248C1667.54 608.248 1664.13 608.419 1660.03 608.76L1657.99 608.888L1657.73 603.96C1662.38 602.851 1666.65 602.296 1670.53 602.296C1674.46 602.296 1677.27 603.149 1678.98 604.856C1680.73 606.52 1681.6 609.187 1681.6 612.856ZM1667.27 620.792C1664.32 621.048 1662.85 622.648 1662.85 625.592C1662.85 628.536 1664.15 630.008 1666.75 630.008C1668.89 630.008 1671.15 629.667 1673.54 628.984L1674.69 628.6V620.088L1667.27 620.792ZM1702.33 602.296C1704.59 602.296 1707.26 602.595 1710.33 603.192L1711.93 603.512L1711.67 609.016C1708.3 608.675 1705.8 608.504 1704.18 608.504C1700.94 608.504 1698.76 609.229 1697.66 610.68C1696.55 612.131 1695.99 614.861 1695.99 618.872C1695.99 622.883 1696.52 625.656 1697.59 627.192C1698.66 628.728 1700.88 629.496 1704.25 629.496L1711.74 628.984L1711.93 634.552C1707.62 635.32 1704.38 635.704 1702.2 635.704C1697.34 635.704 1693.9 634.403 1691.9 631.8C1689.93 629.155 1688.95 624.845 1688.95 618.872C1688.95 612.899 1690 608.653 1692.09 606.136C1694.18 603.576 1697.59 602.296 1702.33 602.296ZM1735.89 608.952H1727.06V623.032C1727.06 625.635 1727.25 627.363 1727.63 628.216C1728.02 629.069 1729 629.496 1730.58 629.496L1735.82 629.304L1736.14 634.872C1733.29 635.427 1731.11 635.704 1729.62 635.704C1725.99 635.704 1723.49 634.872 1722.13 633.208C1720.81 631.544 1720.14 628.408 1720.14 623.8V608.952H1716.05V603H1720.14V593.72H1727.06V603H1735.89V608.952ZM1741.61 635V603H1748.59V635H1741.61ZM1741.61 597.56V590.2H1748.59V597.56H1741.61ZM1758.77 606.456C1760.99 603.683 1764.66 602.296 1769.78 602.296C1774.9 602.296 1778.55 603.683 1780.73 606.456C1782.95 609.229 1784.05 613.389 1784.05 618.936C1784.05 624.483 1782.99 628.664 1780.85 631.48C1778.72 634.296 1775.03 635.704 1769.78 635.704C1764.53 635.704 1760.84 634.296 1758.71 631.48C1756.58 628.664 1755.51 624.483 1755.51 618.936C1755.51 613.389 1756.6 609.229 1758.77 606.456ZM1764.02 627.256C1765 628.963 1766.92 629.816 1769.78 629.816C1772.64 629.816 1774.56 628.963 1775.54 627.256C1776.52 625.549 1777.01 622.755 1777.01 618.872C1777.01 614.989 1776.48 612.237 1775.41 610.616C1774.39 608.995 1772.51 608.184 1769.78 608.184C1767.05 608.184 1765.15 608.995 1764.09 610.616C1763.06 612.237 1762.55 614.989 1762.55 618.872C1762.55 622.755 1763.04 625.549 1764.02 627.256ZM1797.96 635H1790.98V603H1797.9V604.984C1801.01 603.192 1803.96 602.296 1806.73 602.296C1811 602.296 1813.9 603.512 1815.43 605.944C1817.01 608.333 1817.8 612.301 1817.8 617.848V635H1810.89V618.04C1810.89 614.584 1810.5 612.131 1809.74 610.68C1809.01 609.229 1807.5 608.504 1805.19 608.504C1803.02 608.504 1800.93 608.931 1798.92 609.784L1797.96 610.168V635ZM1498.77 700H1505.62L1510.67 726.048H1511.95L1518.03 700.64H1525.2L1531.28 726.048H1532.56L1537.55 700H1544.47L1537.68 732H1526.61L1521.62 710.048L1516.63 732H1505.55L1498.77 700ZM1550.39 732V700H1557.37V732H1550.39ZM1550.39 694.56V687.2H1557.37V694.56H1550.39ZM1583.04 705.952H1574.21V720.032C1574.21 722.635 1574.4 724.363 1574.79 725.216C1575.17 726.069 1576.15 726.496 1577.73 726.496L1582.98 726.304L1583.3 731.872C1580.44 732.427 1578.27 732.704 1576.77 732.704C1573.15 732.704 1570.65 731.872 1569.28 730.208C1567.96 728.544 1567.3 725.408 1567.3 720.8V705.952H1563.2V700H1567.3V690.72H1574.21V700H1583.04V705.952ZM1595.74 732H1588.77V686.688H1595.74V701.664C1598.9 700.085 1601.82 699.296 1604.51 699.296C1608.78 699.296 1611.68 700.512 1613.21 702.944C1614.79 705.333 1615.58 709.301 1615.58 714.848V732H1608.61V715.04C1608.61 711.584 1608.24 709.131 1607.52 707.68C1606.79 706.229 1605.26 705.504 1602.91 705.504C1600.86 705.504 1598.81 705.845 1596.77 706.528L1595.74 706.912V732ZM1638.6 732V688.16H1650.95L1660.74 722.4L1670.53 688.16H1682.95V732H1675.78V696.032H1674.82L1664.45 730.208H1657.03L1646.66 696.032H1645.7V732H1638.6ZM1689.2 732L1700.01 688.16H1714.16L1725.04 732H1717.87L1715.5 722.592H1698.67L1696.3 732H1689.2ZM1705.52 694.112L1700.08 716.32H1714.09L1708.72 694.112H1705.52ZM1727.51 732L1738.33 688.16H1752.47L1763.35 732H1756.18L1753.81 722.592H1736.98L1734.61 732H1727.51ZM1743.83 694.112L1738.39 716.32H1752.41L1747.03 694.112H1743.83ZM1769.6 732V688.16H1782.01L1795.33 725.728H1796.29V688.16H1803.39V732H1791.23L1777.6 694.368H1776.7V732H1769.6ZM1831.33 715.232V708.96H1843.81V731.232C1842.66 731.531 1840.31 731.851 1836.77 732.192C1833.27 732.533 1830.73 732.704 1829.15 732.704C1822.5 732.704 1817.91 730.869 1815.39 727.2C1812.88 723.531 1811.62 717.792 1811.62 709.984C1811.62 702.133 1812.9 696.416 1815.46 692.832C1818.06 689.248 1822.54 687.456 1828.9 687.456C1832.65 687.456 1836.88 687.883 1841.57 688.736L1843.81 689.184L1843.55 694.816C1838.39 694.133 1833.76 693.792 1829.66 693.792C1825.57 693.792 1822.75 694.944 1821.22 697.248C1819.72 699.552 1818.98 703.819 1818.98 710.048C1818.98 716.277 1819.68 720.587 1821.09 722.976C1822.54 725.323 1825.44 726.496 1829.79 726.496C1832.91 726.496 1835.23 726.304 1836.77 725.92V715.232H1831.33ZM1551.36 823.24L1553.15 823.048L1553.28 828.232C1548.42 829.213 1544.11 829.704 1540.35 829.704C1535.62 829.704 1532.2 828.403 1530.11 825.8C1528.07 823.197 1527.04 819.037 1527.04 813.32C1527.04 801.971 1531.67 796.296 1540.93 796.296C1549.89 796.296 1554.37 801.181 1554.37 810.952L1553.92 815.944H1534.08C1534.12 818.589 1534.7 820.531 1535.81 821.768C1536.92 823.005 1538.99 823.624 1542.02 823.624C1545.05 823.624 1548.16 823.496 1551.36 823.24ZM1547.52 810.568C1547.52 807.411 1547.01 805.213 1545.99 803.976C1545 802.696 1543.32 802.056 1540.93 802.056C1538.54 802.056 1536.79 802.717 1535.68 804.04C1534.62 805.363 1534.06 807.539 1534.02 810.568H1547.52ZM1568.05 829H1561.08V797H1567.99V798.984C1571.02 797.192 1573.79 796.296 1576.31 796.296C1580.02 796.296 1582.73 797.341 1584.44 799.432C1588.32 797.341 1592.18 796.296 1596.02 796.296C1599.86 796.296 1602.57 797.491 1604.15 799.88C1605.73 802.227 1606.52 806.216 1606.52 811.848V829H1599.61V812.04C1599.61 808.584 1599.24 806.131 1598.52 804.68C1597.84 803.229 1596.38 802.504 1594.17 802.504C1592.25 802.504 1590.18 802.931 1587.96 803.784L1586.87 804.232C1587.21 805.085 1587.38 807.816 1587.38 812.424V829H1580.47V812.552C1580.47 808.755 1580.13 806.131 1579.45 804.68C1578.76 803.229 1577.27 802.504 1574.97 802.504C1572.83 802.504 1570.85 802.931 1569.01 803.784L1568.05 804.168V829ZM1614.7 842.76V797H1621.62V798.984C1624.56 797.192 1627.31 796.296 1629.87 796.296C1634.1 796.296 1637.19 797.597 1639.15 800.2C1641.11 802.76 1642.1 807.091 1642.1 813.192C1642.1 819.251 1640.96 823.517 1638.7 825.992C1636.48 828.467 1632.84 829.704 1627.76 829.704C1626.01 829.704 1623.98 829.512 1621.68 829.128V842.76H1614.7ZM1628.66 802.504C1626.65 802.504 1624.64 802.952 1622.64 803.848L1621.68 804.296V823.176C1623.39 823.517 1625.26 823.688 1627.31 823.688C1630.21 823.688 1632.22 822.856 1633.33 821.192C1634.44 819.528 1634.99 816.691 1634.99 812.68C1634.99 805.896 1632.88 802.504 1628.66 802.504ZM1649.46 829V783.688H1656.44V829H1649.46ZM1666.99 800.456C1669.21 797.683 1672.88 796.296 1678 796.296C1683.12 796.296 1686.77 797.683 1688.95 800.456C1691.16 803.229 1692.27 807.389 1692.27 812.936C1692.27 818.483 1691.21 822.664 1689.07 825.48C1686.94 828.296 1683.25 829.704 1678 829.704C1672.75 829.704 1669.06 828.296 1666.93 825.48C1664.8 822.664 1663.73 818.483 1663.73 812.936C1663.73 807.389 1664.82 803.229 1666.99 800.456ZM1672.24 821.256C1673.22 822.963 1675.14 823.816 1678 823.816C1680.86 823.816 1682.78 822.963 1683.76 821.256C1684.74 819.549 1685.23 816.755 1685.23 812.872C1685.23 808.989 1684.7 806.237 1683.63 804.616C1682.61 802.995 1680.73 802.184 1678 802.184C1675.27 802.184 1673.37 802.995 1672.31 804.616C1671.28 806.237 1670.77 808.989 1670.77 812.872C1670.77 816.755 1671.26 819.549 1672.24 821.256ZM1695.7 797H1702.54L1709.33 823.048H1711.06L1717.84 797H1724.75L1712.59 842.76H1705.74L1709.58 829H1704.08L1695.7 797ZM1752.36 823.24L1754.15 823.048L1754.28 828.232C1749.42 829.213 1745.11 829.704 1741.35 829.704C1736.62 829.704 1733.2 828.403 1731.11 825.8C1729.07 823.197 1728.04 819.037 1728.04 813.32C1728.04 801.971 1732.67 796.296 1741.93 796.296C1750.89 796.296 1755.37 801.181 1755.37 810.952L1754.92 815.944H1735.08C1735.12 818.589 1735.7 820.531 1736.81 821.768C1737.92 823.005 1739.99 823.624 1743.02 823.624C1746.05 823.624 1749.16 823.496 1752.36 823.24ZM1748.52 810.568C1748.52 807.411 1748.01 805.213 1746.99 803.976C1746 802.696 1744.32 802.056 1741.93 802.056C1739.54 802.056 1737.79 802.717 1736.68 804.04C1735.62 805.363 1735.06 807.539 1735.02 810.568H1748.52ZM1784.86 823.24L1786.65 823.048L1786.78 828.232C1781.92 829.213 1777.61 829.704 1773.85 829.704C1769.12 829.704 1765.7 828.403 1763.61 825.8C1761.57 823.197 1760.54 819.037 1760.54 813.32C1760.54 801.971 1765.17 796.296 1774.43 796.296C1783.39 796.296 1787.87 801.181 1787.87 810.952L1787.42 815.944H1767.58C1767.62 818.589 1768.2 820.531 1769.31 821.768C1770.42 823.005 1772.49 823.624 1775.52 823.624C1778.55 823.624 1781.66 823.496 1784.86 823.24ZM1781.02 810.568C1781.02 807.411 1780.51 805.213 1779.49 803.976C1778.5 802.696 1776.82 802.056 1774.43 802.056C1772.04 802.056 1770.29 802.717 1769.18 804.04C1768.12 805.363 1767.56 807.539 1767.52 810.568H1781.02ZM1816.79 803.592C1811.75 802.909 1808.1 802.568 1805.84 802.568C1803.58 802.568 1802 802.845 1801.11 803.4C1800.25 803.912 1799.83 804.744 1799.83 805.896C1799.83 807.048 1800.3 807.859 1801.23 808.328C1802.22 808.797 1804.48 809.352 1808.02 809.992C1811.6 810.589 1814.14 811.549 1815.63 812.872C1817.13 814.195 1817.87 816.541 1817.87 819.912C1817.87 823.283 1816.79 825.757 1814.61 827.336C1812.48 828.915 1809.34 829.704 1805.2 829.704C1802.6 829.704 1799.31 829.341 1795.35 828.616L1793.36 828.296L1793.62 822.472C1798.74 823.155 1802.43 823.496 1804.69 823.496C1806.95 823.496 1808.55 823.219 1809.49 822.664C1810.47 822.109 1810.96 821.192 1810.96 819.912C1810.96 818.632 1810.49 817.757 1809.55 817.288C1808.66 816.776 1806.46 816.243 1802.96 815.688C1799.51 815.091 1796.97 814.173 1795.35 812.936C1793.72 811.699 1792.91 809.437 1792.91 806.152C1792.91 802.867 1794.02 800.413 1796.24 798.792C1798.5 797.171 1801.38 796.36 1804.88 796.36C1807.61 796.36 1810.96 796.701 1814.93 797.384L1816.91 797.768L1816.79 803.592Z" fill="white"/>
<defs>
<filter id="filter0_d_769_902" x="0" y="0" width="2179" height="1947.72" filterUnits="userSpaceOnUse" color-interpolation-filters="sRGB">
<feFlood flood-opacity="0" result="BackgroundImageFix"/>
<feColorMatrix in="SourceAlpha" type="matrix" values="0 0 0 0 0 0 0 0 0 0 0 0 0 0 0 0 0 0 127 0" result="hardAlpha"/>
<feOffset dy="4"/>
<feGaussianBlur stdDeviation="2"/>
<feComposite in2="hardAlpha" operator="out"/>
<feColorMatrix type="matrix" values="0 0 0 0 0 0 0 0 0 0 0 0 0 0 0 0 0 0 0.25 0"/>
<feBlend mode="normal" in2="BackgroundImageFix" result="effect1_dropShadow_769_902"/>
<feBlend mode="normal" in="SourceGraphic" in2="effect1_dropShadow_769_902" result="shape"/>
</filter>
</defs>
</svg>
