<svg width="24" height="24" viewBox="0 0 24 24" fill="none" xmlns="http://www.w3.org/2000/svg">
<g id="Download pdf" clip-path="url(#clip0_439_9822)">
<path id="Union" fill-rule="evenodd" clip-rule="evenodd" d="M12.8505 0.274687L18.4749 5.89913C18.6495 6.07298 18.75 6.31636 18.75 6.56245V14.0625C18.75 14.5803 18.3303 15 17.8125 15C17.2947 15 16.875 14.5803 16.875 14.0625V7.5H14.0625C12.5117 7.5 11.25 6.23831 11.25 4.6875V1.875H2.8125C2.29556 1.875 1.875 2.29556 1.875 2.8125V21.1875C1.875 21.7044 2.29556 22.125 2.8125 22.125H4.6875C5.20528 22.125 5.625 22.5447 5.625 23.0625C5.625 23.5803 5.20528 24 4.6875 24H2.8125C1.26169 24 0 22.7383 0 21.1875V2.8125C0 1.26169 1.26169 0 2.8125 0H12.1875C12.5628 0 12.7999 0.226547 12.8435 0.268264C12.8473 0.2719 12.8497 0.274131 12.8505 0.274687ZM13.125 4.6875C13.125 5.20444 13.5456 5.625 14.0625 5.625H15.5492L13.125 3.20081V4.6875ZM10.0379 14.7254L11.9129 12.8504C12.279 12.4843 12.279 11.8907 11.9129 11.5246C11.5468 11.1585 10.9532 11.1585 10.5871 11.5246L10.3125 11.7992V8.4375C10.3125 7.91972 9.89278 7.5 9.37499 7.5C8.85721 7.5 8.43749 7.91972 8.43749 8.4375V11.7992L8.1629 11.5246C7.79676 11.1585 7.20318 11.1585 6.83709 11.5246C6.47099 11.8907 6.47095 12.4843 6.83709 12.8504L8.71204 14.7254C9.0772 15.0907 9.67349 15.09 10.0379 14.7254ZM8.0625 16.5H9.9375C11.2298 16.5 12.2812 17.5514 12.2812 18.8438C12.2812 20.1361 11.2298 21.1875 9.9375 21.1875H9V23.0625C9 23.5803 8.58028 24 8.0625 24C7.54472 24 7.125 23.5803 7.125 23.0625V17.4375C7.125 16.9197 7.54472 16.5 8.0625 16.5ZM9 19.3125H9.9375C10.196 19.3125 10.4062 19.1022 10.4062 18.8438C10.4062 18.5853 10.196 18.375 9.9375 18.375H9V19.3125ZM15.5625 16.5H14.1562C13.6385 16.5 13.2188 16.9197 13.2188 17.4375V23.0625C13.2188 23.5803 13.6385 24 14.1562 24H15.5625C17.1133 24 18.375 22.7383 18.375 21.1875V19.3125C18.375 17.7617 17.1133 16.5 15.5625 16.5ZM16.5 21.1875C16.5 21.7044 16.0794 22.125 15.5625 22.125H15.0938V18.375H15.5625C16.0794 18.375 16.5 18.7956 16.5 19.3125V21.1875ZM23.0625 16.5H20.25C19.7322 16.5 19.3125 16.9197 19.3125 17.4375V23.0625C19.3125 23.5803 19.7322 24 20.25 24C20.7678 24 21.1875 23.5803 21.1875 23.0625V21.1875H22.125C22.6428 21.1875 23.0625 20.7678 23.0625 20.25C23.0625 19.7322 22.6428 19.3125 22.125 19.3125H21.1875V18.375H23.0625C23.5803 18.375 24 17.9553 24 17.4375C24 16.9197 23.5803 16.5 23.0625 16.5Z" fill="#727885"/>
</g>
<defs>
<clipPath id="clip0_439_9822">
<rect width="24" height="24" fill="white"/>
</clipPath>
</defs>
</svg>
