<svg width="20" height="20" viewBox="0 0 20 20" fill="none" xmlns="http://www.w3.org/2000/svg">
<path fill-rule="evenodd" clip-rule="evenodd" d="M16.6227 1.33333H13.6667V0.666667C13.6667 0.489856 13.5964 0.320286 13.4714 0.195262C13.3464 0.0702379 13.1768 0 13 0H6.33333C6.15652 0 5.98695 0.0702379 5.86193 0.195262C5.7369 0.320286 5.66667 0.489856 5.66667 0.666667V1.33333H2.71067C2.25713 1.33386 1.82232 1.51426 1.50163 1.83496C1.18093 2.15566 1.00053 2.59047 1 3.044V18.2893C1.00053 18.7429 1.18093 19.1777 1.50163 19.4984C1.82232 19.8191 2.25713 19.9995 2.71067 20H16.6227C17.0762 19.9995 17.511 19.8191 17.8317 19.4984C18.1524 19.1777 18.3328 18.7429 18.3333 18.2893V3.044C18.3328 2.59047 18.1524 2.15566 17.8317 1.83496C17.511 1.51426 17.0762 1.33386 16.6227 1.33333ZM7 1.33333H12.3333V2.66667H7V1.33333ZM17 18.2893C16.9998 18.3894 16.96 18.4852 16.8893 18.556C16.8186 18.6267 16.7227 18.6665 16.6227 18.6667H2.71067C2.61065 18.6665 2.51477 18.6267 2.44405 18.556C2.37332 18.4852 2.33351 18.3894 2.33333 18.2893V3.044C2.33351 2.94398 2.37332 2.84811 2.44405 2.77738C2.51477 2.70665 2.61065 2.66684 2.71067 2.66667H5.66667V3.33333C5.66667 3.51014 5.7369 3.67971 5.86193 3.80474C5.98695 3.92976 6.15652 4 6.33333 4H13C13.1768 4 13.3464 3.92976 13.4714 3.80474C13.5964 3.67971 13.6667 3.51014 13.6667 3.33333V2.66667H16.6227C16.7227 2.66684 16.8186 2.70665 16.8893 2.77738C16.96 2.84811 16.9998 2.94398 17 3.044V18.2893ZM7.19533 5.52867L5.66666 7.05733L4.80466 6.19533C4.74316 6.13166 4.6696 6.08087 4.58826 6.04593C4.50693 6.01099 4.41945 5.9926 4.33093 5.99183C4.24241 5.99106 4.15462 6.00793 4.07269 6.04145C3.99076 6.07497 3.91632 6.12447 3.85373 6.18707C3.79113 6.24966 3.74163 6.3241 3.70811 6.40603C3.67459 6.48796 3.65772 6.57575 3.65849 6.66427C3.65926 6.75278 3.67765 6.84026 3.71259 6.9216C3.74753 7.00294 3.79832 7.0765 3.86199 7.138L5.19533 8.47133C5.32034 8.59631 5.48988 8.66652 5.66666 8.66652C5.84343 8.66652 6.01297 8.59631 6.13799 8.47133L8.13799 6.47133C8.25943 6.3456 8.32663 6.1772 8.32511 6.0024C8.32359 5.8276 8.25348 5.66039 8.12987 5.53679C8.00627 5.41318 7.83906 5.34307 7.66426 5.34155C7.48946 5.34003 7.32106 5.40723 7.19533 5.52867ZM10.3333 6.66667H15C15.1768 6.66667 15.3464 6.7369 15.4714 6.86193C15.5964 6.98695 15.6667 7.15652 15.6667 7.33333C15.6667 7.51014 15.5964 7.67971 15.4714 7.80474C15.3464 7.92976 15.1768 8 15 8H10.3333C10.1565 8 9.98696 7.92976 9.86193 7.80474C9.73691 7.67971 9.66667 7.51014 9.66667 7.33333C9.66667 7.15652 9.73691 6.98695 9.86193 6.86193C9.98696 6.7369 10.1565 6.66667 10.3333 6.66667ZM7.19533 9.52867L5.66666 11.0573L4.80466 10.1953C4.74316 10.1317 4.6696 10.0809 4.58826 10.0459C4.50693 10.011 4.41945 9.9926 4.33093 9.99183C4.24241 9.99107 4.15462 10.0079 4.07269 10.0415C3.99076 10.075 3.91632 10.1245 3.85373 10.1871C3.79113 10.2497 3.74163 10.3241 3.70811 10.406C3.67459 10.488 3.65772 10.5757 3.65849 10.6643C3.65926 10.7528 3.67765 10.8403 3.71259 10.9216C3.74753 11.0029 3.79832 11.0765 3.86199 11.138L5.19533 12.4713C5.32034 12.5963 5.48988 12.6665 5.66666 12.6665C5.84343 12.6665 6.01297 12.5963 6.13799 12.4713L8.13799 10.4713C8.25943 10.3456 8.32663 10.1772 8.32511 10.0024C8.32359 9.8276 8.25348 9.66039 8.12987 9.53679C8.00627 9.41318 7.83906 9.34307 7.66426 9.34155C7.48946 9.34003 7.32106 9.40723 7.19533 9.52867ZM10.3333 10.6667H15C15.1768 10.6667 15.3464 10.7369 15.4714 10.8619C15.5964 10.9869 15.6667 11.1565 15.6667 11.3333C15.6667 11.5101 15.5964 11.6797 15.4714 11.8047C15.3464 11.9298 15.1768 12 15 12H10.3333C10.1565 12 9.98696 11.9298 9.86193 11.8047C9.73691 11.6797 9.66667 11.5101 9.66667 11.3333C9.66667 11.1565 9.73691 10.9869 9.86193 10.8619C9.98696 10.7369 10.1565 10.6667 10.3333 10.6667ZM7.19533 13.5287L5.66666 15.0573L4.80466 14.1953C4.74316 14.1317 4.6696 14.0809 4.58826 14.0459C4.50693 14.011 4.41945 13.9926 4.33093 13.9918C4.24241 13.9911 4.15462 14.0079 4.07269 14.0415C3.99076 14.075 3.91632 14.1245 3.85373 14.1871C3.79113 14.2497 3.74163 14.3241 3.70811 14.406C3.67459 14.488 3.65772 14.5757 3.65849 14.6643C3.65926 14.7528 3.67765 14.8403 3.71259 14.9216C3.74753 15.0029 3.79832 15.0765 3.86199 15.138L5.19533 16.4713C5.32034 16.5963 5.48988 16.6665 5.66666 16.6665C5.84343 16.6665 6.01297 16.5963 6.13799 16.4713L8.13799 14.4713C8.25943 14.3456 8.32663 14.1772 8.32511 14.0024C8.32359 13.8276 8.25348 13.6604 8.12987 13.5368C8.00627 13.4132 7.83906 13.3431 7.66426 13.3416C7.48946 13.34 7.32106 13.4072 7.19533 13.5287ZM10.3333 14.6667H15C15.1768 14.6667 15.3464 14.7369 15.4714 14.8619C15.5964 14.987 15.6667 15.1565 15.6667 15.3333C15.6667 15.5101 15.5964 15.6797 15.4714 15.8047C15.3464 15.9298 15.1768 16 15 16H10.3333C10.1565 16 9.98696 15.9298 9.86193 15.8047C9.73691 15.6797 9.66667 15.5101 9.66667 15.3333C9.66667 15.1565 9.73691 14.987 9.86193 14.8619C9.98696 14.7369 10.1565 14.6667 10.3333 14.6667Z" fill="#595F6E"/>
</svg>
