<svg width="30" height="30" viewBox="0 0 30 30" fill="none" xmlns="http://www.w3.org/2000/svg">
<g id="Upload" clip-path="url(#clip0_439_9743)">
<path id="Union" fill-rule="evenodd" clip-rule="evenodd" d="M20.8232 6.43395V0H4.38428C3.89889 0 3.50537 0.393516 3.50537 0.878906V6.79729H13.3229C15.9843 6.79729 18.1494 8.96244 18.1494 11.6238V21.8244C18.1494 24.4857 15.9843 26.651 13.3229 26.651H3.50543V29.1211C3.50543 29.6065 3.89895 30 4.38434 30H29.1207C29.6061 30 29.9997 29.6065 29.9997 29.1211V9.07066H23.4593C22.0057 9.07066 20.8232 7.88783 20.8232 6.43395ZM23.4604 7.31285H30.0007L22.582 0V6.43395C22.582 6.91858 22.976 7.31285 23.4604 7.31285ZM16.4506 11.6238V21.8244C16.4506 23.5516 15.0505 24.9517 13.3233 24.9517H3.12732C1.40016 24.9517 0 23.5516 0 21.8244V11.6238C0 9.89666 1.40016 8.49651 3.12732 8.49651H13.3233C15.0505 8.49651 16.4506 9.89666 16.4506 11.6238ZM10.3128 15.8184C10.656 16.1616 11.2126 16.1616 11.5557 15.8184C11.899 15.4751 11.899 14.9187 11.5557 14.5754L8.84672 11.8665C8.51947 11.526 7.93102 11.526 7.60377 11.8665L4.89486 14.5754C4.55162 14.9187 4.55162 15.4751 4.89486 15.8184C5.23811 16.1616 5.79463 16.1616 6.13781 15.8184L7.34637 14.6098V20.9928C7.39236 22.158 9.05772 22.1589 9.10418 20.9928V14.6098L10.3128 15.8184Z" fill="#118EDE"/>
</g>
<defs>
<clipPath id="clip0_439_9743">
<rect width="30" height="30" fill="white"/>
</clipPath>
</defs>
</svg>
