<svg class="icon" width="15" height="15" viewBox="0 0 29 29" xmlns="http://www.w3.org/2000/svg">
  <path class="fill-color" d="M20.2287 18.2185L19.4957 18.9652C19.4957 18.9652 17.7509 20.7371 12.9901 15.8975C8.22927 11.0579 9.97409 9.28604 9.97409 9.28604L10.4365 8.81468C11.5739 7.65728 11.6819 5.79985 10.6878 4.44333L8.65782 1.66962C7.42694 -0.0104778 5.05057 -0.231378 3.64086 1.20137L1.11304 3.76973C0.415432 4.48066 -0.0517872 5.40005 0.0046013 6.4221C0.1496 9.03558 1.30637 14.6561 7.75722 21.2163C14.5996 28.17 21.0198 28.4469 23.6443 28.1964C24.4756 28.1186 25.1974 27.6846 25.779 27.0935L28.0667 24.7662C29.6134 23.195 29.1784 20.5038 27.2 19.4055L24.1228 17.6943C22.8242 16.974 21.2437 17.1856 20.2287 18.217" fill="currentColor"/>
</svg>
