<svg width="150" height="48" viewBox="0 0 165 48" fill="none" xmlns="http://www.w3.org/2000/svg">
<path d="M15.7144 33.4294C24.3931 33.4294 31.4287 26.3939 31.4287 17.7151C31.4287 16.7315 31.3383 15.769 31.1654 14.8355C30.2319 14.6626 29.2694 14.5723 28.2858 14.5723C19.6071 14.5723 12.5715 21.6078 12.5715 30.2866C12.5715 31.2701 12.6619 32.2326 12.8348 33.1662C13.7683 33.339 14.7308 33.4294 15.7144 33.4294Z" fill="#475467"/>
<path opacity="0.8" fill-rule="evenodd" clip-rule="evenodd" d="M12.8347 33.1653C5.53118 31.8127 0 25.4095 0 17.7143C0 9.03553 7.03553 2 15.7143 2C23.4095 2 29.8128 7.53118 31.1653 14.8347C30.2318 14.6618 29.2693 14.5714 28.2857 14.5714C19.607 14.5714 12.5714 21.607 12.5714 30.2857C12.5714 31.2693 12.6618 32.2318 12.8347 33.1653Z" fill="#475467"/>
<path opacity="0.6" fill-rule="evenodd" clip-rule="evenodd" d="M15.7143 33.4279C24.3931 33.4279 31.4286 26.3923 31.4286 17.7136C31.4286 16.73 31.3382 15.7675 31.1654 14.834C38.4689 16.1866 44 22.5898 44 30.285C44 38.9638 36.9645 45.9993 28.2858 45.9993C20.5906 45.9993 14.1873 40.4681 12.8347 33.1646C13.7682 33.3375 14.7307 33.4279 15.7143 33.4279Z" fill="#475467"/>
<path d="M67.55 34.2405C72.92 34.2405 76.79 31.2105 77.18 26.7105H72.68C72.32 28.8705 70.25 30.3405 67.55 30.3405C64.16 30.3405 61.55 28.0005 61.55 23.5005C61.55 19.0005 64.16 16.6305 67.55 16.6305C70.19 16.6305 72.26 18.1005 72.56 20.2905H77.27C76.7 15.7605 72.83 12.7605 67.55 12.7605C61.94 12.7605 57.02 16.4205 57.02 23.5005C57.02 30.5805 61.85 34.2405 67.55 34.2405Z" fill="#475467"/>
<path d="M85.5313 18.6405C81.3913 18.6405 78.9313 21.0705 78.7513 24.1005H82.4713C82.5313 22.8405 83.4613 21.7005 85.2913 21.7005C87.0013 21.7005 87.9913 22.5705 87.9913 23.8305C87.9913 24.4605 87.6013 24.9405 86.8513 24.9405H84.3013C81.0013 24.9405 78.7813 26.7405 78.7813 29.7105C78.7813 32.2905 80.7913 34.2405 83.7313 34.2405C85.8013 34.2405 87.4813 33.3105 87.9913 31.9005V34.0005H92.1313V24.2805C92.1313 20.8605 89.3413 18.6405 85.5313 18.6405ZM84.7813 31.2105C83.6113 31.2105 82.7713 30.5205 82.7713 29.5305C82.7713 28.3605 83.6713 27.5805 84.9313 27.5805H87.9913V27.7905C87.9913 29.7105 86.8213 31.2105 84.7813 31.2105Z" fill="#475467"/>
<path d="M94.9337 40.1205H99.1037V32.6505C99.9137 33.6705 101.384 34.2405 103.094 34.2405C107.444 34.2405 110.384 31.1505 110.384 26.4405C110.384 21.7305 107.684 18.6405 103.454 18.6405C101.504 18.6405 100.004 19.3605 99.1037 20.5305V18.8805H94.9337V40.1205ZM102.584 30.6405C100.334 30.6405 98.8637 28.9605 98.8637 26.4405C98.8637 23.8905 100.334 22.2105 102.584 22.2105C104.774 22.2105 106.274 23.8905 106.274 26.4405C106.274 28.9605 104.774 30.6405 102.584 30.6405Z" fill="#475467"/>
<path d="M117.726 34.2405C121.266 34.2405 123.606 32.3505 123.606 29.4705C123.606 22.6305 115.326 26.1405 115.326 23.0505C115.326 22.0905 116.136 21.5805 117.306 21.5805C118.446 21.5805 119.616 22.2705 119.796 23.5605H123.426C123.276 20.5905 120.816 18.6405 117.186 18.6405C114.096 18.6405 111.786 20.5305 111.786 23.2005C111.786 29.5605 119.916 26.5305 119.916 29.6205C119.916 30.4605 119.016 31.0905 117.726 31.0905C116.166 31.0905 115.116 30.2505 114.966 28.9005H111.366C111.516 32.1705 114.036 34.2405 117.726 34.2405Z" fill="#475467"/>
<path d="M140.076 18.8805H135.876V27.1605C135.876 29.0805 134.586 30.5205 132.756 30.5205C131.046 30.5205 129.846 29.2005 129.846 27.3705V18.8805H125.676V28.3005C125.676 31.7505 127.896 34.2405 131.286 34.2405C133.356 34.2405 135.036 33.3405 135.876 31.9005V34.0005H140.076V18.8805Z" fill="#475467"/>
<path d="M143.077 34.0005H147.247V12.3105H143.077V34.0005Z" fill="#475467"/>
<path d="M160.352 28.8705C160.022 30.1605 158.912 30.8205 157.232 30.8205C155.132 30.8205 153.782 29.5005 153.482 27.3705H164.342C164.372 27.0405 164.402 26.5905 164.402 26.0205C164.402 22.5705 162.272 18.6405 156.932 18.6405C151.802 18.6405 149.462 22.5705 149.462 26.4105C149.462 30.2205 152.102 34.2405 157.232 34.2405C160.952 34.2405 163.832 32.1405 164.432 28.8705H160.352ZM156.932 21.7005C158.942 21.7005 160.112 23.0505 160.232 24.7305H153.542C153.902 22.6305 155.042 21.7005 156.932 21.7005Z" fill="#475467"/>
</svg>
