<svg width="150" height="48" viewBox="0 0 199 48" fill="none" xmlns="http://www.w3.org/2000/svg">
<path d="M11.8322 4.48478L16.9807 23.6992V2.57447C17.389 2.4792 17.8016 2.3953 18.2182 2.32312V23.7012L24.009 2.08984C24.4263 2.12762 24.8402 2.17706 25.2505 2.23781L19.4131 24.0232L31.0163 3.92588C31.3943 4.09593 31.7666 4.27635 32.1329 4.46677L20.4865 24.6391L37.1133 8.01225C37.4131 8.29572 37.7048 8.58754 37.9883 8.88733L21.359 25.5166L41.5337 13.8687C41.7241 14.2351 41.9045 14.6074 42.0745 14.9855L21.9821 26.5858L43.7616 20.75C43.8223 21.1603 43.8717 21.5742 43.9095 21.9915L22.2984 27.7822L43.6759 27.7822C43.6037 28.1988 43.5198 28.6114 43.4245 29.0197L22.2951 29.0197L41.5133 34.1692C41.3159 34.5471 41.1079 34.9186 40.8896 35.2832L21.9803 30.2165L37.7739 39.3349C37.4749 39.6424 37.167 39.9412 36.8506 40.2308L21.3629 31.289L33.0822 43.0083C32.7115 43.2248 32.3339 43.4309 31.9498 43.626L20.4866 32.1628L27.9974 45.1719C27.5862 45.2882 27.1701 45.3928 26.7495 45.4853L19.4138 32.7796L22.9506 45.9792C22.6354 45.9926 22.3184 45.9993 21.9999 45.9993C21.8911 45.9993 21.7826 45.9985 21.6742 45.997L18.2182 33.0989V45.6755C17.8016 45.6034 17.389 45.5195 16.9807 45.4242V33.101L13.9334 44.4735C13.5448 44.3203 13.1615 44.1563 12.784 43.9819L15.7849 32.7824L10.1516 42.5395C9.80287 42.3162 9.46083 42.0833 9.12588 41.8412L14.7149 32.1607L6.88786 39.9878C6.58808 39.7043 6.29626 39.4125 6.01278 39.1127L13.8373 31.2882L4.15967 36.8756C3.91751 36.5407 3.68456 36.1987 3.46117 35.8499L13.2229 30.214L2.01788 33.2163C1.84348 32.8389 1.67945 32.4556 1.52617 32.0669L12.8987 29.0197L0.575287 29.0197C0.479997 28.6114 0.396075 28.1988 0.323872 27.7822L12.8954 27.7822L0.00227558 24.3275C0.000678993 24.2183 -0.00012207 24.1089 -0.00012207 23.9993C-0.00012207 23.6816 0.00661242 23.3655 0.0199464 23.0511L13.2211 26.5883L0.5135 19.2516C0.60603 18.8309 0.710598 18.4148 0.826825 18.0035L13.8413 25.5174L2.37322 14.0494C2.56832 13.6653 2.77437 13.2877 2.99095 12.917L14.715 24.6411L5.76964 9.14722C6.0593 8.83086 6.35809 8.52299 6.66558 8.22404L15.7857 24.0205L10.7182 5.10831C11.0828 4.89008 11.4543 4.6821 11.8322 4.48478Z" fill="#475467"/>
<path d="M57.848 33.9094H62.636V25.5934H72.184V21.3654H62.636V17.8094H72.8V13.6094H57.848V33.9094Z" fill="#475467"/>
<path d="M80.9377 21.9814C82.7577 21.9814 84.2137 23.1014 84.2137 26.3214C84.2137 29.4854 82.8137 30.6894 80.9377 30.6894C79.0617 30.6894 77.6617 29.4854 77.6617 26.3214C77.6617 23.1014 79.1177 21.9814 80.9377 21.9814ZM80.9377 18.3974C76.7657 18.3974 72.9577 20.8614 72.9577 26.3214C72.9577 31.7814 76.7657 34.2734 80.9377 34.2734C85.1097 34.2734 88.9177 31.7814 88.9177 26.3214C88.9177 20.8614 85.1097 18.3974 80.9377 18.3974Z" fill="#475467"/>
<path d="M97.7891 18.3974C93.2251 18.3974 90.0891 21.5054 90.0891 26.2934C90.0891 31.0814 92.8331 34.2734 97.7891 34.2734C100.813 34.2734 104.425 32.8454 105.461 28.3654H101.149C100.813 29.7934 99.7771 30.6894 98.0691 30.6894C96.4171 30.6894 94.7931 29.5974 94.7931 26.3214C94.7931 23.1014 96.4171 21.9814 98.0691 21.9814C99.4411 21.9814 100.533 22.5974 100.953 24.3614H105.265C104.369 19.8254 100.925 18.3974 97.7891 18.3974Z" fill="#475467"/>
<path d="M116.317 24.5014C110.465 24.9494 106.293 26.1534 106.293 29.8494C106.293 32.5934 108.645 34.2734 111.501 34.2734C113.657 34.2734 115.449 33.6854 116.569 32.0894L116.625 33.9094H121.161C120.937 32.9574 120.825 31.1934 120.825 29.5414V27.9734L120.881 24.6974C120.965 20.1334 118.501 18.3694 114.161 18.3694C109.681 18.3694 106.993 20.8894 106.769 23.7174H111.081C111.277 22.2614 112.285 21.5054 113.769 21.5054C115.449 21.5054 116.317 22.1214 116.317 23.9134V24.5014ZM116.429 27.5814C116.429 30.3534 115.029 31.1374 113.181 31.1374C111.977 31.1374 111.053 30.4934 111.053 29.5134C111.053 27.8894 113.209 27.5254 116.429 27.2174V27.5814Z" fill="#475467"/>
<path d="M127.872 13.6094H123.252V33.9094H127.872V13.6094Z" fill="#475467"/>
<path d="M130.818 13.6094V33.9094H135.606V26.8814H138.63C143.894 26.8814 147.842 25.5654 147.842 20.2174C147.842 14.8974 143.894 13.6094 138.63 13.6094H130.818ZM138.77 17.6414C141.01 17.6414 142.774 18.0894 142.774 20.2174C142.774 22.3454 141.01 22.8494 138.77 22.8494H135.606V17.6414H138.77Z" fill="#475467"/>
<path d="M155.958 21.9814C157.778 21.9814 159.234 23.1014 159.234 26.3214C159.234 29.4854 157.834 30.6894 155.958 30.6894C154.082 30.6894 152.682 29.4854 152.682 26.3214C152.682 23.1014 154.138 21.9814 155.958 21.9814ZM155.958 18.3974C151.786 18.3974 147.978 20.8614 147.978 26.3214C147.978 31.7814 151.786 34.2734 155.958 34.2734C160.13 34.2734 163.938 31.7814 163.938 26.3214C163.938 20.8614 160.13 18.3974 155.958 18.3974Z" fill="#475467"/>
<path d="M165.787 18.8454V33.9094H170.435V18.8454H165.787ZM165.787 13.6094V17.3054H170.407V13.6094H165.787Z" fill="#475467"/>
<path d="M177.804 18.8454H173.184V33.9094H177.804V26.1814C177.804 23.3814 178.616 22.0934 180.604 22.0934C182.844 22.0934 182.928 23.8574 182.928 26.0134V33.9094H187.548V24.8654C187.548 20.7774 186.344 18.5094 182.48 18.5094C180.1 18.5094 178.476 19.7134 177.804 20.8334V18.8454Z" fill="#475467"/>
<path d="M190.742 18.8454H188.362V22.1214H190.742V29.6814C190.742 33.1814 192.002 33.9094 195.726 33.9094H198.666V30.5774H197.35C195.81 30.5774 195.362 30.2974 195.362 28.8694V22.1214H198.666V18.8454H195.362V14.7294H190.742V18.8454Z" fill="#475467"/>
</svg>
