<svg width="150" height="48" viewBox="0 0 175 48" fill="none" xmlns="http://www.w3.org/2000/svg">
<path d="M14.778 19.4497C20.5389 16.6945 25.0474 12.019 27.6357 6.17457C25.9658 4.42125 23.7951 3.16888 21.4573 2.41746L20.2049 2C20.1214 2.16698 20.0379 2.41747 20.0379 2.58445C18.0342 8.26187 13.9431 12.8539 8.43264 15.4421C4.59203 17.2789 1.75332 20.6186 0.417457 24.6262L0 25.8786C0.166983 25.962 0.417461 26.0455 0.584444 26.0455C2.17078 26.63 3.75712 27.3814 5.25996 28.2998C7.34725 24.5427 10.6869 21.37 14.778 19.4497Z" fill="#475467"/>
<path opacity="0.8" d="M38.9906 19.7832C35.9014 24.4587 31.6433 28.2158 26.3834 30.7206C22.1253 32.7244 18.8691 36.4815 17.3663 40.99L16.9488 42.4094C18.5352 43.8287 20.4555 44.9141 22.5427 45.5821L23.7951 45.9995C23.8786 45.8326 23.9621 45.5821 23.9621 45.4151C25.9659 39.7377 30.057 35.1456 35.5674 32.5574C39.408 30.7206 42.3302 27.3809 43.5826 23.3734L44 22.121C42.2467 21.62 40.5769 20.7851 38.9906 19.7832Z" fill="#475467"/>
<path opacity="0.9" d="M13.6092 38.0683C15.6964 33.0588 19.5371 28.9677 24.463 26.63C28.9716 24.4592 32.7287 21.1195 35.3169 17.0285C33.3966 15.1916 31.8103 13.1044 30.6414 10.5996C27.5522 16.277 22.7097 20.8691 16.7818 23.7078C13.3587 25.2941 10.6035 28.0493 8.93364 31.389C10.7705 33.1423 12.2733 35.3131 13.4422 37.7343C13.4422 37.7343 13.5257 37.9013 13.6092 38.0683Z" fill="#475467"/>
<path d="M53.95 34.0005H68.02V30.1005H58.48V13.0005H53.95V34.0005Z" fill="#475467"/>
<path d="M82.7198 18.8805H78.5198V27.1605C78.5198 29.0805 77.2298 30.5205 75.3998 30.5205C73.6898 30.5205 72.4898 29.2005 72.4898 27.3705V18.8805H68.3198V28.3005C68.3198 31.7505 70.5398 34.2405 73.9298 34.2405C75.9998 34.2405 77.6798 33.3405 78.5198 31.9005V34.0005H82.7198V18.8805Z" fill="#475467"/>
<path d="M84.28 34.0005H88.48V25.4205C88.48 23.4705 89.59 22.1805 91.33 22.1805C92.95 22.1805 93.97 23.4705 93.97 25.4205V34.0005H98.17V25.4205C98.17 23.4705 99.28 22.1805 101.02 22.1805C102.64 22.1805 103.69 23.4705 103.69 25.4205V34.0005H107.86V24.1005C107.86 21.0705 105.73 18.6405 102.43 18.6405C100 18.6405 98.11 19.9305 97.39 21.4005C96.67 19.6005 95.14 18.6405 92.77 18.6405C90.73 18.6405 89.29 19.6305 88.48 21.0105V18.8805H84.28V34.0005Z" fill="#475467"/>
<path d="M109.291 12.3105V16.7205H113.731V12.3105H109.291ZM109.411 34.0005H113.611V18.8805H109.411V34.0005Z" fill="#475467"/>
<path d="M115.176 34.0005H119.376V25.7205C119.376 23.7705 120.666 22.3605 122.496 22.3605C124.236 22.3605 125.406 23.6805 125.406 25.5105V34.0005H129.606V24.5805C129.606 21.1005 127.386 18.6405 123.966 18.6405C121.896 18.6405 120.216 19.5105 119.376 20.9805V18.8805H115.176V34.0005Z" fill="#475467"/>
<path d="M138.367 34.2405C143.017 34.2405 146.347 30.9405 146.347 26.4405C146.347 21.9405 143.017 18.6405 138.367 18.6405C133.717 18.6405 130.387 21.9405 130.387 26.4405C130.387 30.9405 133.717 34.2405 138.367 34.2405ZM138.367 30.6405C136.117 30.6405 134.587 28.9305 134.587 26.4405C134.587 23.9205 136.117 22.2105 138.367 22.2105C140.617 22.2105 142.147 23.9205 142.147 26.4405C142.147 28.9305 140.617 30.6405 138.367 30.6405Z" fill="#475467"/>
<path d="M161.558 18.8805H157.358V27.1605C157.358 29.0805 156.068 30.5205 154.238 30.5205C152.528 30.5205 151.328 29.2005 151.328 27.3705V18.8805H147.158V28.3005C147.158 31.7505 149.378 34.2405 152.768 34.2405C154.838 34.2405 156.518 33.3405 157.358 31.9005V34.0005H161.558V18.8805Z" fill="#475467"/>
<path d="M168.638 34.2405C172.178 34.2405 174.518 32.3505 174.518 29.4705C174.518 22.6305 166.238 26.1405 166.238 23.0505C166.238 22.0905 167.048 21.5805 168.218 21.5805C169.358 21.5805 170.528 22.2705 170.708 23.5605H174.338C174.188 20.5905 171.728 18.6405 168.098 18.6405C165.008 18.6405 162.698 20.5305 162.698 23.2005C162.698 29.5605 170.828 26.5305 170.828 29.6205C170.828 30.4605 169.928 31.0905 168.638 31.0905C167.078 31.0905 166.028 30.2505 165.878 28.9005H162.278C162.428 32.1705 164.948 34.2405 168.638 34.2405Z" fill="#475467"/>
</svg>
