<svg width="150" height="48" viewBox="0 0 166 48" fill="none" xmlns="http://www.w3.org/2000/svg">
<circle cx="22" cy="24.25" r="20.5" stroke="#475467" stroke-width="3"/>
<path d="M30.1317 32.3824C25.9923 36.5218 21.3028 39.224 17.1264 40.2979C12.9123 41.3816 9.51571 40.7578 7.5043 38.7464C5.4929 36.735 4.86911 33.3383 5.95273 29.1243C7.02666 24.9479 9.72887 20.2584 13.8683 16.119C18.0077 11.9796 22.6972 9.27735 26.8736 8.20343C31.0876 7.11981 34.4843 7.74359 36.4957 9.755C38.5071 11.7664 39.1309 15.163 38.0473 19.3771C36.9733 23.5535 34.2711 28.243 30.1317 32.3824Z" stroke="#475467" stroke-width="3"/>
<path d="M30.1315 16.119C34.2709 20.2583 36.9731 24.9479 38.0471 29.1242C39.1307 33.3383 38.5069 36.735 36.4955 38.7464C34.4841 40.7578 31.0875 41.3816 26.8734 40.2979C22.697 39.224 18.0075 36.5218 13.8681 32.3824C9.72868 28.243 7.02647 23.5535 5.95254 19.3771C4.86892 15.163 5.49271 11.7664 7.50412 9.75499C9.51552 7.74358 12.9122 7.1198 17.1262 8.20342C21.3026 9.27734 25.9921 11.9796 30.1315 16.119Z" stroke="#475467" stroke-width="3"/>
<path d="M62.85 34.2405C67.56 34.2405 70.74 31.7805 70.74 27.8505C70.74 19.5405 59.7 23.0805 59.7 18.7005C59.7 17.4705 60.81 16.6305 62.58 16.6305C64.59 16.6305 65.85 17.7105 66 19.3605H70.29C70.17 15.3705 67.11 12.7605 62.58 12.7605C58.32 12.7605 55.32 15.2205 55.32 18.7005C55.32 26.9505 66.21 23.8005 66.21 27.9105C66.21 29.5005 64.86 30.3405 62.85 30.3405C60.63 30.3405 59.22 28.9905 59.04 26.8605H54.72C54.9 31.3305 58.08 34.2405 62.85 34.2405Z" fill="#475467"/>
<path d="M71.7602 40.1205H75.9302V32.6505C76.7402 33.6705 78.2102 34.2405 79.9202 34.2405C84.2702 34.2405 87.2102 31.1505 87.2102 26.4405C87.2102 21.7305 84.5102 18.6405 80.2802 18.6405C78.3302 18.6405 76.8302 19.3605 75.9302 20.5305V18.8805H71.7602V40.1205ZM79.4102 30.6405C77.1602 30.6405 75.6902 28.9605 75.6902 26.4405C75.6902 23.8905 77.1602 22.2105 79.4102 22.2105C81.6002 22.2105 83.1002 23.8905 83.1002 26.4405C83.1002 28.9605 81.6002 30.6405 79.4102 30.6405Z" fill="#475467"/>
<path d="M88.2192 34.0005H92.3892V25.7205C92.3892 23.7705 93.6792 22.3605 95.5092 22.3605C97.2492 22.3605 98.4492 23.6805 98.4492 25.5105V34.0005H102.619V24.5805C102.619 21.1005 100.399 18.6405 97.0092 18.6405C94.9092 18.6405 93.2592 19.5105 92.3892 20.9805V12.3105H88.2192V34.0005Z" fill="#475467"/>
<path d="M114.285 28.8705C113.955 30.1605 112.845 30.8205 111.165 30.8205C109.065 30.8205 107.715 29.5005 107.415 27.3705H118.275C118.305 27.0405 118.335 26.5905 118.335 26.0205C118.335 22.5705 116.205 18.6405 110.865 18.6405C105.735 18.6405 103.395 22.5705 103.395 26.4105C103.395 30.2205 106.035 34.2405 111.165 34.2405C114.885 34.2405 117.765 32.1405 118.365 28.8705H114.285ZM110.865 21.7005C112.875 21.7005 114.045 23.0505 114.165 24.7305H107.475C107.835 22.6305 108.975 21.7005 110.865 21.7005Z" fill="#475467"/>
<path d="M129.271 22.3605V18.8805H127.119C125.289 18.8805 124.149 19.5105 123.339 21.4005V18.8805H119.139V34.0005H123.339V26.6505C123.339 24.0705 124.269 22.3605 126.339 22.3605H129.271Z" fill="#475467"/>
<path d="M143.671 18.8805H139.471V27.1605C139.471 29.0805 138.181 30.5205 136.351 30.5205C134.641 30.5205 133.441 29.2005 133.441 27.3705V18.8805H129.271V28.3005C129.271 31.7505 131.491 34.2405 134.881 34.2405C136.951 34.2405 138.631 33.3405 139.471 31.9005V34.0005H143.671V18.8805Z" fill="#475467"/>
<path d="M145.471 34.0005H149.641V12.3105H145.471V34.0005Z" fill="#475467"/>
<path d="M161.546 28.8705C161.216 30.1605 160.106 30.8205 158.426 30.8205C156.326 30.8205 154.976 29.5005 154.676 27.3705H165.536C165.566 27.0405 165.596 26.5905 165.596 26.0205C165.596 22.5705 163.466 18.6405 158.126 18.6405C152.996 18.6405 150.656 22.5705 150.656 26.4105C150.656 30.2205 153.296 34.2405 158.426 34.2405C162.146 34.2405 165.026 32.1405 165.626 28.8705H161.546ZM158.126 21.7005C160.136 21.7005 161.306 23.0505 161.426 24.7305H154.736C155.096 22.6305 156.236 21.7005 158.126 21.7005Z" fill="#475467"/>
</svg>
