<svg width="24" height="25" viewBox="0 0 24 25" fill="none" xmlns="http://www.w3.org/2000/svg">
<g clip-path="url(#clip0_4485_43559)">
<path d="M16 3.87109C17.3261 3.87109 18.5979 4.39788 19.5355 5.33556C20.4732 6.27324 21 7.54501 21 8.87109V16.8711C21 18.1972 20.4732 19.4689 19.5355 20.4066C18.5979 21.3443 17.3261 21.8711 16 21.8711H8C6.67392 21.8711 5.40215 21.3443 4.46447 20.4066C3.52678 19.4689 3 18.1972 3 16.8711V8.87109C3 7.54501 3.52678 6.27324 4.46447 5.33556C5.40215 4.39788 6.67392 3.87109 8 3.87109H16ZM12 8.87109C10.9391 8.87109 9.92172 9.29252 9.17157 10.0427C8.42143 10.7928 8 11.8102 8 12.8711C8 13.932 8.42143 14.9494 9.17157 15.6995C9.92172 16.4497 10.9391 16.8711 12 16.8711C13.0609 16.8711 14.0783 16.4497 14.8284 15.6995C15.5786 14.9494 16 13.932 16 12.8711C16 11.8102 15.5786 10.7928 14.8284 10.0427C14.0783 9.29252 13.0609 8.87109 12 8.87109ZM12 10.8711C12.5304 10.8711 13.0391 11.0818 13.4142 11.4569C13.7893 11.832 14 12.3407 14 12.8711C14 13.4015 13.7893 13.9102 13.4142 14.2853C13.0391 14.6604 12.5304 14.8711 12 14.8711C11.4696 14.8711 10.9609 14.6604 10.5858 14.2853C10.2107 13.9102 10 13.4015 10 12.8711C10 12.3407 10.2107 11.832 10.5858 11.4569C10.9609 11.0818 11.4696 10.8711 12 10.8711ZM16.5 7.37109C16.2348 7.37109 15.9804 7.47645 15.7929 7.66399C15.6054 7.85152 15.5 8.10588 15.5 8.37109C15.5 8.63631 15.6054 8.89066 15.7929 9.0782C15.9804 9.26574 16.2348 9.37109 16.5 9.37109C16.7652 9.37109 17.0196 9.26574 17.2071 9.0782C17.3946 8.89066 17.5 8.63631 17.5 8.37109C17.5 8.10588 17.3946 7.85152 17.2071 7.66399C17.0196 7.47645 16.7652 7.37109 16.5 7.37109Z" fill="#2DB2C4"/>
</g>
<defs>
<clipPath id="clip0_4485_43559">
<rect width="24" height="24" fill="white" transform="translate(0 0.871094)"/>
</clipPath>
</defs>
</svg>
