<svg width="24" height="25" viewBox="0 0 24 25" fill="none" xmlns="http://www.w3.org/2000/svg">
<path d="M20.625 3.49609H3.375C2.96016 3.49609 2.625 3.83125 2.625 4.24609V21.4961C2.625 21.9109 2.96016 22.2461 3.375 22.2461H20.625C21.0398 22.2461 21.375 21.9109 21.375 21.4961V4.24609C21.375 3.83125 21.0398 3.49609 20.625 3.49609ZM8.18672 19.4734H5.40469V10.525H8.18672V19.4734ZM6.79688 9.30156C6.47795 9.30156 6.16619 9.20699 5.90102 9.02981C5.63584 8.85262 5.42917 8.60079 5.30712 8.30614C5.18507 8.01149 5.15314 7.68727 5.21536 7.37448C5.27758 7.06168 5.43115 6.77436 5.65667 6.54885C5.88218 6.32334 6.1695 6.16976 6.48229 6.10755C6.79509 6.04533 7.11931 6.07726 7.41395 6.19931C7.7086 6.32135 7.96044 6.52803 8.13762 6.79321C8.3148 7.05838 8.40937 7.37014 8.40937 7.68906C8.40703 8.57969 7.68516 9.30156 6.79688 9.30156ZM18.6023 19.4734H15.8227V15.1211C15.8227 14.0828 15.8039 12.7492 14.3766 12.7492C12.9305 12.7492 12.7078 13.8789 12.7078 15.0461V19.4734H9.93047V10.525H12.5977V11.7484H12.6352C13.0055 11.0453 13.9125 10.3023 15.2672 10.3023C18.0844 10.3023 18.6023 12.1562 18.6023 14.5656V19.4734Z" fill="#2DB2C4"/>
</svg>
