<svg width="24" height="25" viewBox="0 0 24 25" fill="none" xmlns="http://www.w3.org/2000/svg">
<path d="M12.244 4.87109C12.778 4.87409 14.114 4.88709 15.534 4.94409L16.038 4.96609C17.467 5.03309 18.895 5.14909 19.604 5.34609C20.549 5.61209 21.291 6.38609 21.542 7.36809C21.942 8.92809 21.992 11.9701 21.998 12.7071L21.999 12.8591V13.0331C21.992 13.7701 21.942 16.8131 21.542 18.3721C21.288 19.3571 20.545 20.1321 19.604 20.3941C18.895 20.5911 17.467 20.7071 16.038 20.7741L15.534 20.7971C14.114 20.8531 12.778 20.8671 12.244 20.8691L12.009 20.8701H11.754C10.624 20.8631 5.898 20.8121 4.394 20.3941C3.45 20.1281 2.707 19.3541 2.456 18.3721C2.056 16.8121 2.006 13.7701 2 13.0331V12.7071C2.006 11.9701 2.056 8.92709 2.456 7.36809C2.71 6.38309 3.453 5.60809 4.395 5.34709C5.898 4.92809 10.625 4.87709 11.755 4.87109H12.244ZM9.999 9.37109V16.3711L15.999 12.8711L9.999 9.37109Z" fill="#2DB2C4"/>
</svg>
