<svg width="34" height="34" viewBox="0 0 34 34" fill="none" xmlns="http://www.w3.org/2000/svg">
<path fill-rule="evenodd" clip-rule="evenodd" d="M16.3907 17.2986C20.063 17.2986 23.04 14.3216 23.04 10.6493C23.04 6.97699 20.063 4 16.3907 4C12.7183 4 9.74135 6.97699 9.74135 10.6493C9.74135 14.3216 12.7183 17.2986 16.3907 17.2986ZM19.4338 24.5597H18.2041C17.7036 24.5597 17.2974 24.1535 17.2974 23.6529C17.2974 23.1524 17.7036 22.7462 18.2041 22.7462H19.4338C19.5447 22.2295 19.7485 21.7471 20.0266 21.3173L19.1568 20.4468C18.8026 20.0937 18.8026 19.5183 19.1568 19.1653C19.5098 18.811 20.0853 18.811 20.4383 19.1653L21.3089 20.0351C21.7387 19.757 22.2211 19.5533 22.7377 19.4424V18.2126C22.7377 17.7121 23.144 17.3059 23.6445 17.3059C24.145 17.3059 24.5512 17.7121 24.5512 18.2126V19.4424C25.0678 19.5533 25.5503 19.7569 25.9801 20.035L26.8506 19.1653C27.2036 18.811 27.7791 18.811 28.1321 19.1653C28.4863 19.5183 28.4863 20.0937 28.1321 20.4468L27.2627 21.3169C27.5412 21.7468 27.7451 22.2293 27.8561 22.7462H29.0847C29.5853 22.7462 29.9915 23.1524 29.9915 23.6529C29.9915 24.1535 29.5853 24.5597 29.0847 24.5597H27.8561C27.7451 25.0765 27.5412 25.5591 27.2629 25.9891L28.1321 26.8591C28.4863 27.2121 28.4863 27.7876 28.1321 28.1406C27.7791 28.4948 27.2036 28.4948 26.8506 28.1406L25.9806 27.2713C25.5507 27.5497 25.0681 27.7536 24.5512 27.8646V29.0933C24.5512 29.5938 24.145 30 23.6445 30C23.144 30 22.7377 29.5938 22.7377 29.0933V27.8646C22.2209 27.7536 21.7383 27.5497 21.3084 27.2712L20.4383 28.1406C20.0853 28.4948 19.5098 28.4948 19.1568 28.1406C18.8026 27.7876 18.8026 27.2121 19.1568 26.8591L20.0265 25.9886C19.7484 25.5588 19.5447 25.0763 19.4338 24.5597ZM21.1503 23.6444C21.1526 22.9626 21.4295 22.3449 21.8761 21.8959L21.8818 21.8903L21.887 21.885C22.3381 21.437 22.9593 21.16 23.6444 21.16H23.6464C25.0213 21.1611 26.1385 22.2778 26.1385 23.6529C26.1385 24.3328 25.8654 24.9497 25.4232 25.4L25.4071 25.4156L25.3915 25.4317C24.9498 25.8655 24.3477 26.1365 23.6832 26.1467C23.6704 26.1461 23.6575 26.1458 23.6445 26.1458C23.631 26.1458 23.6175 26.1461 23.6042 26.1467C22.9409 26.1362 22.34 25.8658 21.8988 25.4331C21.8932 25.4272 21.8875 25.4213 21.8818 25.4156C21.876 25.4098 21.8702 25.4042 21.8643 25.3986C21.4251 24.9508 21.1531 24.3383 21.1503 23.6632L21.1504 23.6529L21.1503 23.6444ZM18.302 26.0043C17.5392 26.766 17.4811 27.9689 18.1267 28.7983H6.05402C5.50878 28.7983 4.9865 28.5819 4.60084 28.1962C4.21518 27.8117 3.99878 27.2883 3.99878 26.743V24.99C3.99878 23.4583 4.92726 21.999 6.61135 20.8505C8.81892 19.3454 12.3745 18.3407 16.3907 18.3407C17.0084 18.3407 17.6153 18.3649 18.2077 18.4108C17.4775 19.2414 17.509 20.5096 18.302 21.3015L18.5366 21.5372H18.2041C17.0363 21.5372 16.0884 22.4851 16.0884 23.6529C16.0884 24.8208 17.0363 25.7686 18.2041 25.7686H18.5366L18.302 26.0043Z" fill="#595F6E"/>
</svg>
