<svg width="30" height="30" viewBox="0 0 30 30" fill="none" xmlns="http://www.w3.org/2000/svg">
<circle cx="15" cy="15" r="15" fill="white" fill-opacity="0.1"/>
<path fill-rule="evenodd" clip-rule="evenodd" d="M14.6343 15.1791C16.8377 15.1791 18.6239 13.3929 18.6239 11.1895C18.6239 8.98615 16.8377 7.19995 14.6343 7.19995C12.431 7.19995 10.6448 8.98615 10.6448 11.1895C10.6448 13.3929 12.431 15.1791 14.6343 15.1791ZM16.4603 19.5358H15.7224C15.4221 19.5358 15.1784 19.292 15.1784 18.9917C15.1784 18.6914 15.4221 18.4477 15.7224 18.4477H16.4603C16.5268 18.1377 16.649 17.8482 16.8159 17.5904L16.294 17.068C16.0815 16.8562 16.0815 16.5109 16.294 16.2991C16.5058 16.0866 16.8511 16.0866 17.0629 16.2991L17.5853 16.821C17.8431 16.6541 18.1326 16.5319 18.4426 16.4654V15.7275C18.4426 15.4272 18.6863 15.1835 18.9866 15.1835C19.2869 15.1835 19.5307 15.4272 19.5307 15.7275V16.4654C19.8407 16.5319 20.1301 16.6541 20.388 16.821L20.9103 16.2991C21.1221 16.0866 21.4674 16.0866 21.6792 16.2991C21.8918 16.5109 21.8918 16.8562 21.6792 17.068L21.1576 17.5901C21.3247 17.848 21.447 18.1376 21.5136 18.4477H22.2508C22.5511 18.4477 22.7948 18.6914 22.7948 18.9917C22.7948 19.292 22.5511 19.5358 22.2508 19.5358H21.5136C21.447 19.8459 21.3247 20.1354 21.1577 20.3934L21.6792 20.9154C21.8918 21.1272 21.8918 21.4725 21.6792 21.6843C21.4674 21.8968 21.1221 21.8968 20.9103 21.6843L20.3883 21.1628C20.1303 21.3298 19.8408 21.4521 19.5307 21.5187V22.2559C19.5307 22.5562 19.2869 22.7999 18.9866 22.7999C18.6863 22.7999 18.4426 22.5562 18.4426 22.2559V21.5187C18.1325 21.4521 17.8429 21.3298 17.585 21.1627L17.0629 21.6843C16.8511 21.8968 16.5058 21.8968 16.294 21.6843C16.0815 21.4725 16.0815 21.1272 16.294 20.9154L16.8159 20.3931C16.649 20.1352 16.5268 19.8458 16.4603 19.5358ZM15.7812 20.4026C15.3235 20.8595 15.2886 21.5813 15.676 22.0789H8.43236C8.10522 22.0789 7.79185 21.9491 7.56046 21.7177C7.32906 21.487 7.19922 21.1729 7.19922 20.8458V19.794C7.19922 18.8749 7.75631 17.9994 8.76676 17.3103C10.0913 16.4072 12.2246 15.8044 14.6343 15.8044C15.005 15.8044 15.3692 15.8189 15.7246 15.8465C15.2865 16.3448 15.3053 17.1057 15.7812 17.5808L15.9219 17.7223H15.7224C15.0217 17.7223 14.453 18.291 14.453 18.9917C14.453 19.6924 15.0217 20.2611 15.7224 20.2611H15.9219L15.7812 20.4026Z" fill="white"/>
</svg>
