<svg width="18" height="18" viewBox="0 0 18 18" fill="none" xmlns="http://www.w3.org/2000/svg">
<path d="M0.358201 2.08637C-0.11908 1.60909 -0.11908 0.835251 0.3582 0.357965C0.83548 -0.119322 1.6093 -0.119322 2.08658 0.357965L17.642 15.9136C18.1193 16.3909 18.1193 17.1647 17.642 17.642C17.1648 18.1193 16.3909 18.1193 15.9137 17.642L0.358201 2.08637Z" fill="white"/>
<path d="M17.6418 2.08637C18.1191 1.60909 18.1191 0.835251 17.6418 0.357965C17.1645 -0.119322 16.3907 -0.119322 15.9134 0.357965L0.35796 15.9136C-0.11932 16.3909 -0.11932 17.1647 0.35796 17.642C0.83524 18.1193 1.60906 18.1193 2.08634 17.642L17.6418 2.08637Z" fill="white"/>
</svg>
