<svg width="50" height="50" viewBox="0 0 50 50" fill="none" xmlns="http://www.w3.org/2000/svg">
<circle cx="25" cy="25" r="25" fill="#595F6E" fill-opacity="0.1"/>
<g clip-path="url(#clip0_455_6954)">
<path fill-rule="evenodd" clip-rule="evenodd" d="M30.3204 21.6797H30.5196C30.6524 21.6797 30.7852 21.6133 30.8516 21.5469L33.4415 18.8242H37.8907C39.0196 18.8242 39.8829 17.9609 39.8829 16.7656V10.0586C39.8829 8.92969 39.0196 8 37.8907 8H29.5235C28.3946 8 27.5313 8.92969 27.5313 10.0586V16.832C27.5313 17.9609 28.3946 18.8906 29.5235 18.8906H30.0547V21.2148C30.0547 21.4141 30.1212 21.5469 30.3204 21.6797ZM29.7227 15.5703H30.586C30.8516 15.5703 31.0508 15.3711 31.0508 15.1055C31.0508 14.7734 30.8516 14.5742 30.586 14.5742H29.7227C29.3907 14.5742 29.1915 14.7734 29.1915 15.1055C29.1915 15.3711 29.3907 15.5703 29.7227 15.5703ZM32.1133 15.5703H32.9766C33.2422 15.5703 33.4415 15.3711 33.4415 15.1055C33.4415 14.7734 33.2422 14.5742 32.9766 14.5742H32.1133C31.8477 14.5742 31.5821 14.7734 31.5821 15.1055C31.5821 15.3711 31.8477 15.5703 32.1133 15.5703ZM34.504 15.5703H35.3008C35.5665 15.5703 35.8321 15.3711 35.8321 15.1055C35.8321 14.7734 35.6329 14.5742 35.3008 14.5742H34.504C34.1719 14.5742 33.9727 14.7734 33.9727 15.1055C33.9727 15.3711 34.1719 15.5703 34.504 15.5703ZM36.8282 15.5703H37.6915C37.9571 15.5703 38.2227 15.3711 38.2227 15.1055C38.2227 14.7734 37.9571 14.5742 37.6915 14.5742H36.8282C36.5626 14.5742 36.3633 14.7734 36.3633 15.1055C36.3633 15.3711 36.5626 15.5703 36.8282 15.5703ZM29.7227 12.4492H30.586C30.8516 12.4492 31.0508 12.25 31.0508 11.9844C31.0508 11.7188 30.8516 11.5195 30.586 11.5195H29.7227C29.3907 11.5195 29.1915 11.7188 29.1915 11.9844C29.1915 12.25 29.3907 12.4492 29.7227 12.4492ZM32.1133 12.4492H32.9766C33.2422 12.4492 33.4415 12.25 33.4415 11.9844C33.4415 11.7188 33.2422 11.5195 32.9766 11.5195H32.1133C31.8477 11.5195 31.5821 11.7188 31.5821 11.9844C31.5821 12.25 31.8477 12.4492 32.1133 12.4492ZM34.504 12.4492H35.3008C35.5665 12.4492 35.8321 12.25 35.8321 11.9844C35.8321 11.7188 35.6329 11.5195 35.3008 11.5195H34.504C34.1719 11.5195 33.9727 11.7188 33.9727 11.9844C33.9727 12.25 34.1719 12.4492 34.504 12.4492ZM36.8282 12.4492H37.6915C37.9571 12.4492 38.2227 12.25 38.2227 11.9844C38.2227 11.7188 37.9571 11.5195 37.6915 11.5195H36.8282C36.5626 11.5195 36.3633 11.7188 36.3633 11.9844C36.3633 12.25 36.5626 12.4492 36.8282 12.4492ZM22.8828 24.0039C20.4257 24.0039 18.4335 22.0117 18.4335 19.5547C18.4335 17.0977 20.4257 15.1055 22.8828 15.1055C25.3398 15.1055 27.332 17.0977 27.332 19.5547C27.332 21.9453 25.3398 24.0039 22.8828 24.0039ZM28.2617 30.5781V31.7734H31.3828C30.5859 27.7891 27 24.7344 22.8828 24.7344C18.7656 24.7344 15.1796 27.7891 14.4492 31.7734H17.5703V30.5781C17.5703 30.3125 17.7695 30.1133 18.0351 30.1133C18.3671 30.1133 18.5664 30.3125 18.5664 30.5781V31.7734H27.2656V30.5781C27.2656 30.3125 27.4648 30.1133 27.7304 30.1133C27.9961 30.1133 28.2617 30.3125 28.2617 30.5781ZM10.4648 36.5547H35.3008C35.5664 36.5547 35.7656 36.3555 35.832 36.0899V33.2344C35.832 32.9024 35.6328 32.7031 35.3008 32.7031H10.4648C10.1992 32.7031 10 32.9024 10 33.2344V36.0899C10 36.3555 10.1992 36.5547 10.4648 36.5547ZM14.914 41.4688C14.914 41.8008 15.1133 42 15.3789 42C15.6445 42 15.9101 41.8008 15.9101 41.5352V37.4844H14.914V41.4688ZM30.3867 42C30.1211 42 29.8555 41.8008 29.8555 41.4688V37.4844H30.8516V41.5352C30.8516 41.8008 30.6523 42 30.3867 42Z" fill="#595F6E"/>
</g>
<defs>
<clipPath id="clip0_455_6954">
<rect width="34" height="34" fill="white" transform="translate(8 8)"/>
</clipPath>
</defs>
</svg>
