<svg width="50" height="50" viewBox="0 0 50 50" fill="none" xmlns="http://www.w3.org/2000/svg">
<circle cx="25" cy="25" r="25" fill="#595F6E" fill-opacity="0.1"/>
<path d="M25 11C17.2804 11 11 17.2804 11 25C11 32.7196 17.2804 39 25 39C32.7196 39 39 32.7196 39 25C39 17.2804 32.7196 11 25 11ZM18.2121 27.1212C17.0425 27.1212 16.0909 26.1696 16.0909 25C16.0909 23.8304 17.0425 22.8788 18.2121 22.8788C19.3818 22.8788 20.3333 23.8304 20.3333 25C20.3333 26.1696 19.3818 27.1212 18.2121 27.1212ZM25 27.1212C23.8304 27.1212 22.8788 26.1696 22.8788 25C22.8788 23.8304 23.8304 22.8788 25 22.8788C26.1696 22.8788 27.1212 23.8304 27.1212 25C27.1212 26.1696 26.1696 27.1212 25 27.1212ZM31.7879 27.1212C30.6182 27.1212 29.6667 26.1696 29.6667 25C29.6667 23.8304 30.6182 22.8788 31.7879 22.8788C32.9575 22.8788 33.9091 23.8304 33.9091 25C33.9091 26.1696 32.9575 27.1212 31.7879 27.1212Z" fill="#59606F"/>
</svg>
