<svg width="50" height="50" viewBox="0 0 50 50" fill="none" xmlns="http://www.w3.org/2000/svg">
<circle cx="25" cy="25" r="25" fill="#595F6E" fill-opacity="0.1"/>
<g clip-path="url(#clip0_455_6946)">
<path fill-rule="evenodd" clip-rule="evenodd" d="M17.4584 13.0408C19.8748 11.4279 22.6735 10.6721 25.4436 10.7644C28.2138 10.8553 30.9549 11.7913 33.2595 13.5596C35.6035 15.357 37.2298 17.8188 38.0198 20.5257C38.3936 20.537 38.8293 20.5794 39.2307 20.6951C40.1892 20.9701 41.0195 21.7367 41.5769 22.9438C42.1321 24.1508 42.376 25.7412 42.1252 27.3857C41.8766 29.025 41.1845 30.3759 40.3183 31.2153C39.4499 32.0542 38.4572 32.3725 37.494 32.1226L36.3103 31.8086C34.4241 34.6528 31.5275 36.6923 28.209 37.5022V37.8786C28.209 38.6344 27.6027 39.2433 26.8469 39.2433H23.1521C22.3959 39.2433 21.7869 38.6344 21.7869 37.8786V37.1588C21.7869 36.4035 22.3959 35.7945 23.1521 35.7945H26.0825C30.4833 35.3818 34.2864 32.4739 35.8205 28.2758L36.5082 23.6922C36.3255 20.4032 34.742 17.2701 32.0148 15.179C28.0943 12.1694 22.7055 11.9935 18.5954 14.739C15.5246 16.7919 13.6887 20.1303 13.4903 23.6766L14.4739 30.2291C14.677 31.5808 13.9576 31.8125 12.5067 32.1222C11.5322 32.327 10.5513 32.0542 9.68244 31.2148C8.81622 30.3759 8.12368 29.0246 7.87551 27.3853C7.62561 25.7408 7.86252 24.1478 8.42426 22.9433C8.85737 22.0191 9.8206 20.9697 11.1013 20.6063C11.4443 20.5093 11.7332 20.4963 11.9744 20.5257C12.848 17.5321 14.7446 14.8542 17.4584 13.0408ZM31.5388 24.3237C31.5366 23.3444 30.7449 22.5527 29.7682 22.5527C28.7894 22.5527 27.9951 23.3448 27.9951 24.3237C27.9951 25.3003 28.789 26.0942 29.7682 26.0942C30.7449 26.0942 31.5366 25.3003 31.5388 24.3237ZM26.7702 24.3237C26.7702 23.3444 25.9785 22.5527 24.9997 22.5527C24.02 22.5527 23.2283 23.3448 23.2283 24.3237C23.2283 25.3003 24.02 26.0942 24.9997 26.0942C25.9785 26.0942 26.7702 25.3003 26.7702 24.3237ZM22.0035 24.3237C22.0035 23.3444 21.2096 22.5527 20.2329 22.5527C19.2541 22.5527 18.4619 23.3448 18.4619 24.3237C18.4619 25.3003 19.2541 26.0942 20.2329 26.0942C21.2096 26.0942 22.0035 25.3003 22.0035 24.3237ZM15.6221 24.3237C15.6221 18.9934 19.8067 14.9465 24.9997 14.9465C30.1944 14.9465 34.3765 18.9934 34.3765 24.3237C34.3765 29.6565 30.1944 33.7009 24.9997 33.7009C23.6389 33.7009 22.3513 33.4215 21.1871 32.9161L18.7374 34.2825C17.9955 34.6957 17.4229 34.1405 17.6074 33.315L18.167 30.8064C16.5901 29.1463 15.6221 26.8838 15.6221 24.3237Z" fill="#595F6E"/>
</g>
<defs>
<clipPath id="clip0_455_6946">
<rect width="34" height="34" fill="white" transform="translate(8 8)"/>
</clipPath>
</defs>
</svg>
