<svg width="20" height="20" viewBox="0 0 32 32" fill="none" xmlns="http://www.w3.org/2000/svg">
<g clip-path="url(#clip0_4308_8704)">
<path d="M15.1651 31.9673C9.58775 31.6873 4.49042 28.4659 1.88642 23.5046C-0.909582 18.3606 -0.608248 11.6859 2.86242 6.89926C6.33042 1.78193 12.6624 -0.932737 19.0411 0.304596C25.1518 1.44726 30.1757 6.2966 31.5184 12.1859C33.0144 17.9779 30.9544 24.4166 26.2851 28.2393C23.2331 30.8433 19.2251 32.1806 15.1651 31.9686V31.9673ZM25.4384 21.2339C24.0317 20.3908 22.6224 19.5522 21.2104 18.7179C20.0064 20.6953 17.3638 21.7153 15.1171 20.9379C12.4184 20.0859 10.5918 16.9553 11.7998 14.0926C12.8678 11.4139 15.5197 10.4833 17.6091 10.8073C19.0171 11.0731 20.2692 11.8698 21.1064 13.0326C22.5424 12.1913 23.9438 11.4086 25.3371 10.5593C22.6304 6.40193 17.1357 4.83393 12.4624 6.88726C8.28908 8.7846 5.94242 13.1273 6.61175 17.4459C7.33175 22.2433 11.5851 26.0939 16.8997 25.9846C18.6065 25.9689 20.2822 25.5258 21.7737 24.696C23.2652 23.8661 24.5252 22.6759 25.4384 21.2339Z" fill="#777777"/>
</g>
<defs>
<clipPath id="clip0_4308_8704">
<rect width="32" height="32" fill="white"/>
</clipPath>
</defs>
</svg>
