<svg width="20" height="20" viewBox="0 0 26 28" fill="none" xmlns="http://www.w3.org/2000/svg">
<path d="M18.1107 0.667994H9.90133C7.87329 0.669613 5.92464 1.45639 4.46401 2.86333C3.00337 4.27027 2.1442 6.1881 2.06667 8.21466H1C0.734783 8.21466 0.480429 8.32002 0.292893 8.50755C0.105357 8.69509 0 8.94944 0 9.21466C0 9.47988 0.105357 9.73423 0.292893 9.92177C0.480429 10.1093 0.734783 10.2147 1 10.2147H2.05333V17.8013H1.04C0.774783 17.8013 0.52043 17.9067 0.332893 18.0942C0.145357 18.2818 0.04 18.5361 0.04 18.8013C0.04 19.0665 0.145357 19.3209 0.332893 19.5084C0.52043 19.696 0.774783 19.8013 1.04 19.8013H2.10667C2.18625 21.826 3.04649 23.7412 4.50705 25.1456C5.96762 26.55 7.91512 27.3345 9.94133 27.3347H18.1507C19.1818 27.3348 20.2029 27.1318 21.1556 26.7371C22.1083 26.3425 22.9738 25.764 23.7028 25.0346C24.4318 24.3053 25.0098 23.4394 25.404 22.4866C25.7982 21.5337 26.0007 20.5125 26 19.4813V8.52133C25.9979 7.48757 25.7921 6.46436 25.3945 5.51015C24.9968 4.55594 24.415 3.68944 23.6824 2.96013C22.9498 2.23083 22.0806 1.65303 21.1246 1.25973C20.1686 0.866441 19.1444 0.665365 18.1107 0.667994ZM14.5387 5.90799C15.1502 5.90762 15.7543 6.0431 16.3071 6.30464C16.8599 6.56618 17.3477 6.94725 17.7353 7.42032C18.1229 7.89339 18.4006 8.44664 18.5483 9.04011C18.696 9.63358 18.71 10.2524 18.5893 10.852C18.4692 11.4512 18.2177 12.0164 17.8529 12.5067C17.4881 12.9971 17.0191 13.4004 16.4797 13.6877C15.9403 13.975 15.3439 14.1391 14.7334 14.1682C14.1229 14.1973 13.5136 14.0907 12.9493 13.856C12.322 13.5947 11.7687 13.1827 11.3386 12.6565C10.9085 12.1303 10.6149 11.5061 10.4837 10.8393C10.3525 10.1725 10.3878 9.48356 10.5864 8.83363C10.7851 8.18371 11.141 7.59282 11.6227 7.11333C12.3968 6.34139 13.4454 5.90793 14.5387 5.90799ZM19.204 21.3347C18.9388 21.3347 18.6844 21.2293 18.4969 21.0418C18.3094 20.8542 18.204 20.5999 18.204 20.3347C18.204 18.7213 16.1907 17.3347 14.5387 17.3347C12.8867 17.3347 10.888 18.668 10.888 20.3347C10.888 20.5999 10.7826 20.8542 10.5951 21.0418C10.4076 21.2293 10.1532 21.3347 9.888 21.3347C9.62278 21.3347 9.36843 21.2293 9.18089 21.0418C8.99336 20.8542 8.888 20.5999 8.888 20.3347C8.888 17.468 11.8747 15.3347 14.5387 15.3347C17.2053 15.3347 20.2027 17.468 20.2027 20.3347C20.1992 20.5988 20.0927 20.8512 19.906 21.0379C19.7192 21.2247 19.4681 21.3312 19.204 21.3347Z" fill="#777777"/>
</svg>
