<svg width="10" height="10" viewBox="0 0 12 13" fill="none" xmlns="http://www.w3.org/2000/svg">
<path d="M6.7101 12.0826L11.7101 7.27876C11.8011 7.18739 11.8725 7.07964 11.9201 6.96171C12.0201 6.7278 12.0201 6.46544 11.9201 6.23153C11.8725 6.11359 11.8011 6.00585 11.7101 5.91448L6.7101 1.11068C6.61687 1.0211 6.50618 0.950038 6.38435 0.901558C6.26253 0.853078 6.13196 0.828125 6.0001 0.828125C5.7338 0.828125 5.47841 0.929762 5.2901 1.11068C5.1018 1.29159 4.99601 1.53696 4.99601 1.79282C4.99601 2.04867 5.1018 2.29404 5.2901 2.47496L8.5901 5.63586L1.0001 5.63586C0.734887 5.63586 0.480533 5.73708 0.292996 5.91726C0.10546 6.09744 0.000103951 6.34181 0.000103951 6.59662C0.000103951 6.85143 0.10546 7.0958 0.292996 7.27598C0.480533 7.45616 0.734887 7.55738 1.0001 7.55738L8.5901 7.55738L5.2901 10.7183C5.19637 10.8076 5.12198 10.9139 5.07121 11.0309C5.02044 11.148 4.99431 11.2736 4.99431 11.4004C4.99431 11.5273 5.02044 11.6528 5.07121 11.7699C5.12198 11.887 5.19637 11.9932 5.2901 12.0826C5.38307 12.1726 5.49367 12.2441 5.61553 12.2929C5.73739 12.3416 5.86809 12.3667 6.0001 12.3667C6.13212 12.3667 6.26282 12.3416 6.38468 12.2929C6.50654 12.2441 6.61714 12.1726 6.7101 12.0826Z" fill="white"/>
</svg>
