<svg width="22" height="25" viewBox="0 0 22 25" fill="none" xmlns="http://www.w3.org/2000/svg">
<path d="M10.8388 4.02798C8.79419 4.02798 6.79547 4.63428 5.09542 5.77022C3.39538 6.90615 2.07035 8.5207 1.2879 10.4097C0.505456 12.2987 0.300732 14.3773 0.69962 16.3826C1.09851 18.388 2.08309 20.23 3.52886 21.6758C4.97464 23.1215 6.81666 24.1061 8.82201 24.505C10.8274 24.9039 12.9059 24.6992 14.7949 23.9167C16.6839 23.1343 18.2985 21.8093 19.4344 20.1092C20.5704 18.4092 21.1767 16.4104 21.1767 14.3658C21.1735 11.625 20.0834 8.99736 18.1453 7.05932C16.2073 5.12128 13.5796 4.03111 10.8388 4.02798ZM15.7558 10.6679L11.4483 14.9753C11.3683 15.0554 11.2733 15.1188 11.1687 15.1622C11.0641 15.2055 10.952 15.2278 10.8388 15.2278C10.7256 15.2278 10.6135 15.2055 10.509 15.1622C10.4044 15.1188 10.3094 15.0554 10.2293 14.9753C10.1493 14.8953 10.0858 14.8003 10.0425 14.6957C9.99915 14.5911 9.97685 14.479 9.97685 14.3658C9.97685 14.2526 9.99915 14.1405 10.0425 14.036C10.0858 13.9314 10.1493 13.8364 10.2293 13.7563L14.5367 9.44888C14.6168 9.36884 14.7118 9.30535 14.8164 9.26203C14.921 9.21871 15.0331 9.19642 15.1462 9.19642C15.2594 9.19642 15.3715 9.21871 15.4761 9.26203C15.5807 9.30535 15.6757 9.36884 15.7558 9.44888C15.8358 9.52892 15.8993 9.62394 15.9426 9.72852C15.9859 9.8331 16.0082 9.94519 16.0082 10.0584C16.0082 10.1716 15.9859 10.2837 15.9426 10.3882C15.8993 10.4928 15.8358 10.5878 15.7558 10.6679ZM7.39287 1.44352C7.39287 1.21504 7.48364 0.995915 7.6452 0.834355C7.80676 0.672795 8.02588 0.582031 8.25436 0.582031H13.4233C13.6518 0.582031 13.8709 0.672795 14.0324 0.834355C14.194 0.995915 14.2848 1.21504 14.2848 1.44352C14.2848 1.672 14.194 1.89112 14.0324 2.05268C13.8709 2.21424 13.6518 2.305 13.4233 2.305H8.25436C8.02588 2.305 7.80676 2.21424 7.6452 2.05268C7.48364 1.89112 7.39287 1.672 7.39287 1.44352Z" fill="#2DB2C4"/>
</svg>
