<svg width="10" height="16" viewBox="0 0 16 16" fill="none" xmlns="http://www.w3.org/2000/svg">
<g clip-path="url(#clip0_4345_1365)">
<path fill-rule="evenodd" clip-rule="evenodd" d="M0.937258 1.07007C1.53737 0.469954 2.35131 0.132812 3.2 0.132812C4.04869 0.132812 4.86263 0.469954 5.46274 1.07007C6.06286 1.67019 6.4 2.48412 6.4 3.33281V4.93281H9.6V3.33281C9.6 2.48412 9.93714 1.67019 10.5373 1.07007C11.1374 0.469954 11.9513 0.132812 12.8 0.132812C13.6487 0.132812 14.4626 0.469954 15.0627 1.07007C15.6629 1.67019 16 2.48412 16 3.33281C16 4.1815 15.6629 4.99544 15.0627 5.59555C14.4626 6.19567 13.6487 6.53281 12.8 6.53281H11.2V9.73281H12.8C13.6487 9.73281 14.4626 10.07 15.0627 10.6701C15.6629 11.2702 16 12.0841 16 12.9328C16 13.7815 15.6629 14.5954 15.0627 15.1956C14.4626 15.7957 13.6487 16.1328 12.8 16.1328C11.9513 16.1328 11.1374 15.7957 10.5373 15.1956C9.93714 14.5954 9.6 13.7815 9.6 12.9328V11.3328H6.4V12.9328C6.4 13.7815 6.06286 14.5954 5.46274 15.1956C4.86263 15.7957 4.04869 16.1328 3.2 16.1328C2.35131 16.1328 1.53737 15.7957 0.937258 15.1956C0.337142 14.5954 0 13.7815 0 12.9328C0 12.0841 0.337142 11.2702 0.937258 10.6701C1.53737 10.07 2.35131 9.73281 3.2 9.73281H4.8V6.53281H3.2C2.35131 6.53281 1.53737 6.19567 0.937258 5.59555C0.337142 4.99544 0 4.18151 0 3.33281C0 2.48412 0.337142 1.67019 0.937258 1.07007ZM4.8 4.93281V3.33281C4.8 2.90847 4.63143 2.5015 4.33137 2.20144C4.03131 1.90138 3.62435 1.73281 3.2 1.73281C2.77565 1.73281 2.36869 1.90138 2.06863 2.20144C1.76857 2.5015 1.6 2.90847 1.6 3.33281C1.6 3.75716 1.76857 4.16413 2.06863 4.46418C2.36869 4.76424 2.77565 4.93281 3.2 4.93281H4.8ZM6.4 6.53281V9.73281H9.6V6.53281H6.4ZM4.8 11.3328H3.2C2.77565 11.3328 2.36869 11.5014 2.06863 11.8014C1.76857 12.1015 1.6 12.5085 1.6 12.9328C1.6 13.3572 1.76857 13.7641 2.06863 14.0642C2.36869 14.3642 2.77565 14.5328 3.2 14.5328C3.62435 14.5328 4.03131 14.3642 4.33137 14.0642C4.63143 13.7641 4.8 13.3572 4.8 12.9328V11.3328ZM11.2 11.3328V12.9328C11.2 13.3572 11.3686 13.7641 11.6686 14.0642C11.9687 14.3642 12.3757 14.5328 12.8 14.5328C13.2243 14.5328 13.6313 14.3642 13.9314 14.0642C14.2314 13.7641 14.4 13.3572 14.4 12.9328C14.4 12.5085 14.2314 12.1015 13.9314 11.8014C13.6313 11.5014 13.2243 11.3328 12.8 11.3328H11.2ZM11.2 4.93281H12.8C13.2243 4.93281 13.6313 4.76424 13.9314 4.46418C14.2314 4.16413 14.4 3.75716 14.4 3.33281C14.4 2.90847 14.2314 2.5015 13.9314 2.20144C13.6313 1.90138 13.2243 1.73281 12.8 1.73281C12.3757 1.73281 11.9687 1.90138 11.6686 2.20144C11.3686 2.5015 11.2 2.90847 11.2 3.33281V4.93281Z" fill="#777777"/>
</g>
<defs>
<clipPath id="clip0_4345_1365">
<rect width="16" height="16" fill="white"/>
</clipPath>
</defs>
</svg>
