<svg width="10" height="16" viewBox="0 0 16 16" fill="none" xmlns="http://www.w3.org/2000/svg">
<g clip-path="url(#clip0_4345_1371)">
<path fill-rule="evenodd" clip-rule="evenodd" d="M5.96187 1.51743C6.309 1.1703 6.309 0.607482 5.96187 0.26035C5.61474 -0.0867832 5.05193 -0.0867832 4.70479 0.26035L0.26035 4.70479C-0.0867832 5.05193 -0.0867832 5.61474 0.26035 5.96187L4.70479 10.4063C5.05193 10.7535 5.61474 10.7535 5.96187 10.4063C6.309 10.0592 6.309 9.49637 5.96187 9.14924L3.03572 6.22309H11.5553C12.2626 6.22309 12.9409 6.50404 13.441 7.00414C13.9411 7.50424 14.222 8.18251 14.222 8.88976V15.112C14.222 15.6029 14.62 16.0009 15.1109 16.0009C15.6018 16.0009 15.9998 15.6029 15.9998 15.112V8.88976C15.9998 7.71102 15.5315 6.58055 14.698 5.74706C13.8645 4.91357 12.7341 4.44531 11.5553 4.44531H3.03399L5.96187 1.51743Z" fill="#777777"/>
</g>
<defs>
<clipPath id="clip0_4345_1371">
<rect width="16" height="16" fill="white"/>
</clipPath>
</defs>
</svg>
