<svg width="10" height="14" viewBox="0 0 16 14" fill="none" xmlns="http://www.w3.org/2000/svg">
<path d="M10.9406 13.6693H9.96017V11.7085H10.9406C11.4812 11.7085 11.921 11.2687 11.921 10.7281V8.96339C11.921 8.21079 12.2051 7.52334 12.6717 7.0026C12.2051 6.48187 11.921 5.79442 11.921 5.04182V3.27711C11.921 2.73653 11.4812 2.29672 10.9406 2.29672H9.96017V0.335938H10.9406C12.5623 0.335938 13.8817 1.65535 13.8817 3.27711V5.04182C13.8817 5.58241 14.3215 6.02221 14.8621 6.02221H15.8425V7.983H14.8621C14.3215 7.983 13.8817 8.4228 13.8817 8.96339V10.7281C13.8817 12.3499 12.5623 13.6693 10.9406 13.6693ZM6.0386 13.6693H5.05821C3.43645 13.6693 2.11703 12.3499 2.11703 10.7281V8.96339C2.11703 8.4228 1.67723 7.983 1.13664 7.983H0.15625V6.02221H1.13664C1.67723 6.02221 2.11703 5.58241 2.11703 5.04182V3.27711C2.11703 1.65535 3.43645 0.335938 5.05821 0.335938H6.0386V2.29672H5.05821C4.51762 2.29672 4.07782 2.73653 4.07782 3.27711V5.04182C4.07782 5.79442 3.7937 6.48187 3.32708 7.0026C3.7937 7.52334 4.07782 8.21079 4.07782 8.96339V10.7281C4.07782 11.2687 4.51762 11.7085 5.05821 11.7085H6.0386V13.6693Z" fill="#777777"/>
</svg>
