<svg width="10" height="16" viewBox="0 0 16 16" fill="none" xmlns="http://www.w3.org/2000/svg">
<g clip-path="url(#clip0_4345_1375)">
<path fill-rule="evenodd" clip-rule="evenodd" d="M9.59987 0.8C9.59987 0.358172 9.95804 0 10.3999 0H15.1999C15.6417 0 15.9999 0.358172 15.9999 0.8V5.6C15.9999 6.04183 15.6417 6.4 15.1999 6.4C14.758 6.4 14.3999 6.04183 14.3999 5.6V2.75879L10.0138 7.14485C9.73611 7.42255 9.28586 7.42255 9.00815 7.14485C8.73044 6.86714 8.73044 6.41689 9.00815 6.13918L13.5473 1.6H10.3999C9.95804 1.6 9.59987 1.24183 9.59987 0.8ZM6.99172 9.1614C7.26943 9.43911 7.26943 9.88936 6.99172 10.1671L2.76113 14.3977H5.6C6.04183 14.3977 6.4 14.7558 6.4 15.1977C6.4 15.6395 6.04183 15.9977 5.6 15.9977H0.8C0.358172 15.9977 0 15.6395 0 15.1977V10.3977C0 9.95583 0.358172 9.59766 0.8 9.59766C1.24183 9.59766 1.6 9.95583 1.6 10.3977V13.5475L5.98606 9.1614C6.26376 8.8837 6.71401 8.8837 6.99172 9.1614Z" fill="#777777"/>
</g>
<defs>
<clipPath id="clip0_4345_1375">
<rect width="16" height="16" fill="white"/>
</clipPath>
</defs>
</svg>
