<svg width="10" height="16" viewBox="0 0 14 16" fill="none" xmlns="http://www.w3.org/2000/svg">
<path fill-rule="evenodd" clip-rule="evenodd" d="M2.71094 1.73281C2.48992 1.73281 2.27796 1.8171 2.12168 1.96713C1.9654 2.11716 1.8776 2.32064 1.8776 2.53281V13.7783L6.39324 10.6818C6.68299 10.4831 7.07222 10.4831 7.36197 10.6818L11.8776 13.7783V2.53281C11.8776 2.32064 11.7898 2.11716 11.6335 1.96713C11.4772 1.8171 11.2653 1.73281 11.0443 1.73281H2.71094ZM0.94317 0.835756C1.41201 0.385669 2.0479 0.132812 2.71094 0.132812H11.0443C11.7073 0.132812 12.3432 0.385669 12.812 0.835756C13.2809 1.28584 13.5443 1.89629 13.5443 2.53281V15.3328C13.5443 15.6325 13.3698 15.907 13.0923 16.0441C12.8147 16.1813 12.4806 16.158 12.2266 15.9838L6.8776 12.3159L1.52864 15.9838C1.27462 16.158 0.940512 16.1813 0.662953 16.0441C0.385394 15.907 0.210938 15.6325 0.210938 15.3328V2.53281C0.210938 1.89629 0.474329 1.28584 0.94317 0.835756Z" fill="#777777"/>
</svg>
