<svg width="31" height="31" viewBox="0 0 31 31" fill="none" xmlns="http://www.w3.org/2000/svg">
<path d="M10.5 24.75L7.33333 29.5M20 24.75L23.1667 29.5M7.33333 18.4167H23.1667M8.91667 18.4167V13.6667M15.25 18.4167V5.75M21.5833 18.4167V10.5M6.06667 24.75H24.4333C26.2068 24.75 27.0937 24.75 27.771 24.4048C28.3668 24.1013 28.8513 23.6168 29.1548 23.021C29.5 22.3437 29.5 21.4568 29.5 19.6833V6.06667C29.5 4.29317 29.5 3.40641 29.1548 2.72903C28.8513 2.13318 28.3668 1.64874 27.771 1.34515C27.0937 1 26.2068 1 24.4333 1H6.06667C4.29317 1 3.40641 1 2.72903 1.34515C2.13318 1.64874 1.64874 2.13318 1.34515 2.72903C1 3.40641 1 4.29316 1 6.06667V19.6833C1 21.4568 1 22.3437 1.34515 23.021C1.64874 23.6168 2.13318 24.1013 2.72903 24.4048C3.40641 24.75 4.29316 24.75 6.06667 24.75Z" stroke="white" stroke-width="2" stroke-linecap="round" stroke-linejoin="round"/>
</svg>
