<svg width="32" height="28" viewBox="0 0 32 28" fill="none" xmlns="http://www.w3.org/2000/svg">
<path d="M9.40878 22.4338H22.5911C23.8201 22.4338 21.5543 17.0394 21.5543 17.0394C21.4201 16.7185 21.0973 16.5127 20.7886 16.3863L18.7041 15.4265L17.7026 14.582L16.0933 16.1825H16.0921L16.7864 20.8247C16.7887 20.8409 16.7849 20.8569 16.7753 20.8701L16.0493 21.8638C16.0376 21.8796 16.0192 21.8889 15.9995 21.8889C15.9799 21.8889 15.9615 21.8796 15.95 21.8638L15.2239 20.8701C15.2143 20.8569 15.2103 20.8409 15.2129 20.8247L15.9071 16.1825H15.906L14.2969 14.582L13.2954 15.4265L11.211 16.3863C10.9026 16.5127 10.5994 16.7049 10.4452 17.0394C10.4452 17.0394 8.17982 22.4338 9.40878 22.4338Z" fill="white"/>
<path d="M16 15.0121C17.59 15.0121 19.7229 13.0256 19.7591 9.69472C19.7821 7.38325 18.6813 6 16 6C13.3186 6 12.2174 7.38325 12.2409 9.69472C12.277 13.0256 14.1392 15.0121 16 15.0121ZM15.2443 10.623C17.1882 10.83 18.8832 8.11119 18.8557 10.5455C18.8392 12.0027 17.4875 14.2032 16.0003 14.2032C14.4393 14.2032 13.3621 12.3744 13.1447 10.5463C12.9092 8.56373 16.5482 9.01554 15.2443 10.623Z" fill="white"/>
<rect x="0.75" y="0.75" width="30.5" height="21.5" rx="3.25" stroke="white" stroke-width="1.5"/>
<path d="M0 25.7289C0 26.1758 0.362179 26.538 0.808934 26.538H8.59775V24.9199H0.808934C0.362179 24.9199 0 25.2822 0 25.7289Z" fill="white"/>
<path d="M31.1911 24.9199H11.7275V26.5381H31.1911C31.6379 26.5381 32.0001 26.1758 32.0001 25.729C32.0001 25.2821 31.6379 24.9199 31.1911 24.9199Z" fill="white"/>
<path d="M10.1628 24.0723C9.62637 24.0723 9.18994 24.5088 9.18994 25.0452V26.4132C9.18994 26.9497 9.62637 27.3862 10.1628 27.3862C10.6992 27.3862 11.1356 26.9497 11.1356 26.4132V25.0452C11.1356 24.5088 10.6992 24.0723 10.1628 24.0723Z" fill="white"/>
</svg>
