<svg width="32" height="32" viewBox="0 0 32 32" fill="none" xmlns="http://www.w3.org/2000/svg">
<path d="M31.1389 19.0312H30.9668V9.63452C30.9666 8.6909 30.1988 7.92318 29.2552 7.92311H24.4356C26.4582 7.74231 28.0492 6.03888 28.0492 3.96992C28.0493 1.78089 26.2684 0 24.0794 0C21.8903 0 20.1095 1.78089 20.1095 3.96992C20.1095 6.03882 21.7005 7.74225 23.7231 7.92311L18.9034 7.92305C17.9597 7.92305 17.1919 8.69083 17.1918 9.63459V19.0312H14.7748C15.0865 18.7211 15.2798 18.292 15.2798 17.8186V9.63452C15.2795 8.6909 14.5117 7.92318 13.5681 7.92311H8.74849C10.7711 7.74231 12.3622 6.03888 12.3622 3.96992C12.3623 1.78089 10.5814 0 8.39245 0C6.20335 0 4.42246 1.78089 4.42246 3.96992C4.42246 6.03882 6.01346 7.74225 8.03614 7.92311L3.21639 7.92305C2.27271 7.92305 1.50486 8.69083 1.50486 9.63459V17.8184C1.50486 18.2919 1.69821 18.7211 2.01 19.0312H0.874535C0.405209 19.0312 0.0247803 19.4117 0.0247803 19.881C0.0247803 20.3503 0.405209 20.7307 0.874535 20.7307H3.28522V29.7304C3.28522 30.9819 4.30336 32 5.55485 32H6.05189C7.22325 32 8.15386 31.1105 8.31486 29.8369C8.3361 29.6689 8.36205 29.4693 8.39166 29.2458C8.42206 29.4726 8.44866 29.6735 8.47023 29.8397C8.63515 31.1117 9.56557 32 10.7328 32H11.2298C12.4813 32 13.4996 30.9819 13.4996 29.7304V20.7307H31.139C31.6083 20.7307 31.9888 20.3503 31.9888 19.881C31.9886 19.4117 31.6082 19.0312 31.1389 19.0312ZM21.809 3.96992C21.809 2.71804 22.8275 1.69951 24.0794 1.69951C25.3313 1.69951 26.3497 2.71804 26.3497 3.96992C26.3497 5.22187 25.3313 6.24034 24.0794 6.24034C22.8275 6.24034 21.809 5.22187 21.809 3.96992ZM6.12197 3.96992C6.12197 2.71804 7.1405 1.69951 8.39245 1.69951C9.64433 1.69951 10.6628 2.71804 10.6628 3.96992C10.6628 5.22187 9.64433 6.24034 8.39245 6.24034C7.1405 6.24034 6.12197 5.22187 6.12197 3.96992ZM18.8914 9.63465C18.8914 9.62798 18.8968 9.62256 18.9035 9.62256L22.5145 9.62262L23.1788 10.4551L22.3433 15.4233C22.301 15.6745 22.3737 15.9314 22.5413 16.1232L23.4394 17.1515C23.6007 17.3362 23.8341 17.4422 24.0793 17.4422C24.3246 17.4422 24.5579 17.3362 24.7193 17.1515L25.6174 16.1234C25.785 15.9315 25.8577 15.6746 25.8154 15.4234L24.9799 10.4551L25.6443 9.62269L29.2551 9.62275C29.2618 9.62275 29.2673 9.62831 29.2673 9.63491V19.0312H18.8914V9.63465ZM11.8 18.6804V29.7304C11.8 30.0448 11.5441 30.3005 11.2297 30.3005H10.7327C10.3466 30.3005 10.1882 29.8734 10.1555 29.621C9.9424 27.9782 9.24083 22.9784 9.23377 22.9281C9.17487 22.5087 8.81628 22.1967 8.39277 22.1964C8.39258 22.1964 8.39245 22.1964 8.39225 22.1964C7.96901 22.1964 7.61028 22.508 7.55086 22.927C7.54387 22.9767 6.84465 27.9148 6.62862 29.6238C6.59685 29.8751 6.43958 30.3005 6.05176 30.3005H5.55472C5.24031 30.3005 4.9846 30.0447 4.9846 29.7304V18.6804C4.9846 18.211 4.60417 17.8306 4.13485 17.8306H3.21646C3.20973 17.8306 3.20424 17.8252 3.20424 17.8184V9.63465C3.20424 9.62798 3.20966 9.62256 3.21633 9.62256L13.5681 9.62262C13.5748 9.62262 13.5803 9.62818 13.5803 9.63478V17.8186C13.5803 17.8252 13.5749 17.8307 13.5682 17.8307H12.6497C12.1805 17.8306 11.8 18.211 11.8 18.6804Z" fill="white"/>
</svg>
