<svg width="32" height="21" viewBox="0 0 32 21" fill="none" xmlns="http://www.w3.org/2000/svg">
<path d="M8.34365 14.2685C9.03528 14.9829 9.02818 16.1336 8.32936 16.8389C7.98 17.1897 7.52894 17.3642 7.07621 17.3642C6.61629 17.3642 6.15638 17.1843 5.80877 16.8243L0.587501 11.4381C0.396733 11.2618 0.241646 11.0436 0.138281 10.7927C-0.138053 10.1147 0.00633923 9.33485 0.512631 8.81309L5.81061 3.3595C6.50048 2.64687 7.62888 2.63962 8.3312 3.3468C9.02818 4.05398 9.03537 5.20469 8.34365 5.91911L4.29173 10.0874L8.34365 14.2685ZM15.9893 21C15.0036 21 14.2067 20.1856 14.2067 19.1822C14.2067 18.1787 15.0036 17.3643 15.9893 17.3643C16.9733 17.3643 17.7719 18.1787 17.7719 19.1822C17.7719 20.1856 16.9733 21 15.9893 21ZM19.3371 9.27477C18.3424 10.1382 17.7719 11.4416 17.7719 12.8505V13.2105C17.7719 14.2139 16.9733 15.0283 15.9893 15.0283C15.0036 15.0283 14.2067 14.2139 14.2067 13.2105V12.8505C14.2067 10.3746 15.2335 8.06408 17.0251 6.50801C17.3816 6.19716 17.5866 5.74451 17.5866 5.26638C17.5866 4.41383 16.8236 3.63576 15.9893 3.63576C15.1069 3.63576 14.3903 4.36833 14.3903 5.26638C14.3903 6.26984 13.5935 7.08422 12.6077 7.08422C11.622 7.08422 10.8251 6.26984 10.8251 5.26638C10.8251 2.36141 13.1425 0 15.9894 0C18.7881 0 21.1519 2.41228 21.1519 5.26638C21.1518 6.81154 20.4905 8.2731 19.3371 9.27477ZM31.4857 11.3744L26.1663 16.828C25.8169 17.1861 25.3588 17.3642 24.9025 17.3642C24.4479 17.3642 23.9933 17.1879 23.6457 16.8352C22.9469 16.1263 22.9434 14.9756 23.6386 14.2648L27.703 10.0965L23.6368 5.92081C22.9433 5.20639 22.9469 4.05568 23.6475 3.34851C24.3409 2.64133 25.4728 2.64499 26.1681 3.35762L31.4036 8.74032C31.5979 8.91663 31.7566 9.14022 31.8618 9.39475C32.1381 10.0728 31.9937 10.8545 31.4857 11.3744Z" fill="white"/>
</svg>
