<svg width="16" height="16" viewBox="0 0 16 16" fill="none" xmlns="http://www.w3.org/2000/svg">
<g clip-path="url(#clip0_380_3030)">
<path fill-rule="evenodd" clip-rule="evenodd" d="M3.70996 1.72994C3.48895 1.72994 3.27699 1.81423 3.12071 1.96426C2.96442 2.11429 2.87663 2.31777 2.87663 2.52994V13.7754L7.39226 10.679C7.68201 10.4803 8.07124 10.4803 8.36099 10.679L12.8766 13.7754V2.52994C12.8766 2.31777 12.7888 2.11429 12.6325 1.96426C12.4763 1.81423 12.2643 1.72994 12.0433 1.72994H3.70996ZM1.94219 0.832887C2.41103 0.3828 3.04692 0.129944 3.70996 0.129944H12.0433C12.7063 0.129944 13.3422 0.3828 13.8111 0.832887C14.2799 1.28297 14.5433 1.89342 14.5433 2.52994V15.3299C14.5433 15.6296 14.3688 15.9042 14.0913 16.0413C13.8137 16.1784 13.4796 16.1551 13.2256 15.9809L7.87663 12.3131L2.52766 15.9809C2.27365 16.1551 1.93954 16.1784 1.66198 16.0413C1.38442 15.9042 1.20996 15.6296 1.20996 15.3299V2.52994C1.20996 1.89342 1.47335 1.28297 1.94219 0.832887Z" fill="#808792"/>
</g>
<defs>
<clipPath id="clip0_380_3030">
<rect width="16" height="16" fill="white"/>
</clipPath>
</defs>
</svg>
