<svg width="20" height="20" viewBox="0 0 20 20" fill="none" xmlns="http://www.w3.org/2000/svg">
<g clip-path="url(#clip0_395_2533)">
<path fill-rule="evenodd" clip-rule="evenodd" d="M16.3247 0.802951C16.8219 0.00427986 17.8729 -0.239248 18.6715 0.257402C19.4702 0.754375 19.7153 1.80464 19.2175 2.60419L11.0805 15.6788C10.7785 16.1643 10.2525 16.4657 9.68083 16.4816C9.66551 16.4823 9.64947 16.4823 9.63419 16.4823C9.07973 16.4823 8.55869 16.212 8.23902 15.7569L4.48987 10.4101C3.94944 9.63929 4.13657 8.57714 4.90654 8.03663C5.67667 7.4968 6.74036 7.68325 7.2801 8.45338L9.54966 11.69L16.3247 0.802951ZM17.1649 10.6577C17.1649 10.0353 17.0784 9.43365 16.9306 8.85665L18.2985 6.65954C18.8761 7.87359 19.2095 9.22591 19.2095 10.6577C19.2095 15.8087 15.0183 20 9.8674 20C4.71574 20 0.524414 15.8087 0.524414 10.6577C0.524414 5.50616 4.71574 1.31483 9.8674 1.31483C11.289 1.31483 12.6323 1.64366 13.8396 2.21408L12.7547 3.958C11.8682 3.57463 10.893 3.35944 9.8674 3.35944C5.84337 3.35944 2.56927 6.6335 2.56927 10.6577C2.56927 14.682 5.84337 17.9552 9.8674 17.9552C13.8915 17.9552 17.1649 14.682 17.1649 10.6577Z" fill="#35C69D"/>
</g>
<defs>
<clipPath id="clip0_395_2533">
<rect width="20" height="20" fill="white"/>
</clipPath>
</defs>
</svg>
