<svg width="24" height="25" viewBox="0 0 24 25" fill="none" xmlns="http://www.w3.org/2000/svg">
<g clip-path="url(#clip0_391_6883)">
<path fill-rule="evenodd" clip-rule="evenodd" d="M2.25974 12.0953C2.25974 6.71587 6.62066 2.35496 12.0001 2.35496C17.3796 2.35496 21.7405 6.71587 21.7405 12.0953C21.7405 17.4748 17.3796 21.8357 12.0001 21.8357C6.62066 21.8357 2.25974 17.4748 2.25974 12.0953ZM12.0001 0.19043C5.42522 0.19043 0.0952148 5.52044 0.0952148 12.0953C0.0952148 18.6702 5.42522 24.0002 12.0001 24.0002C18.575 24.0002 23.905 18.6702 23.905 12.0953C23.905 5.52044 18.575 0.19043 12.0001 0.19043ZM13.0824 5.60175C13.0824 5.00403 12.5978 4.51949 12.0001 4.51949C11.4024 4.51949 10.9179 5.00403 10.9179 5.60175V12.0953C10.9179 12.5053 11.1495 12.88 11.5161 13.0633L15.8452 15.2279C16.3798 15.4952 17.0299 15.2785 17.2972 14.7439C17.5645 14.2093 17.3478 13.5592 16.8132 13.2919L13.0824 11.4265V5.60175Z" fill="#727885"/>
</g>
<defs>
<clipPath id="clip0_391_6883">
<rect width="24" height="24" fill="white" transform="translate(0 0.0952148)"/>
</clipPath>
</defs>
</svg>
