<svg width="16" height="16" viewBox="0 0 16 16" fill="none" xmlns="http://www.w3.org/2000/svg">
<g clip-path="url(#clip0_380_3037)">
<path fill-rule="evenodd" clip-rule="evenodd" d="M0.937258 1.0672C1.53737 0.467086 2.35131 0.129944 3.2 0.129944C4.04869 0.129944 4.86263 0.467086 5.46274 1.0672C6.06286 1.66732 6.4 2.48125 6.4 3.32994V4.92994H9.6V3.32994C9.6 2.48125 9.93714 1.66732 10.5373 1.0672C11.1374 0.467086 11.9513 0.129944 12.8 0.129944C13.6487 0.129944 14.4626 0.467086 15.0627 1.0672C15.6629 1.66732 16 2.48125 16 3.32994C16 4.17864 15.6629 4.99257 15.0627 5.59269C14.4626 6.1928 13.6487 6.52994 12.8 6.52994H11.2V9.72994H12.8C13.6487 9.72994 14.4626 10.0671 15.0627 10.6672C15.6629 11.2673 16 12.0813 16 12.9299C16 13.7786 15.6629 14.5926 15.0627 15.1927C14.4626 15.7928 13.6487 16.1299 12.8 16.1299C11.9513 16.1299 11.1374 15.7928 10.5373 15.1927C9.93714 14.5926 9.6 13.7786 9.6 12.9299V11.3299H6.4V12.9299C6.4 13.7786 6.06286 14.5926 5.46274 15.1927C4.86263 15.7928 4.04869 16.1299 3.2 16.1299C2.35131 16.1299 1.53737 15.7928 0.937258 15.1927C0.337142 14.5926 0 13.7786 0 12.9299C0 12.0813 0.337142 11.2673 0.937258 10.6672C1.53737 10.0671 2.35131 9.72994 3.2 9.72994H4.8V6.52994H3.2C2.35131 6.52994 1.53737 6.1928 0.937258 5.59269C0.337142 4.99257 0 4.17864 0 3.32994C0 2.48125 0.337142 1.66732 0.937258 1.0672ZM4.8 4.92994V3.32994C4.8 2.9056 4.63143 2.49863 4.33137 2.19857C4.03131 1.89851 3.62435 1.72994 3.2 1.72994C2.77565 1.72994 2.36869 1.89851 2.06863 2.19857C1.76857 2.49863 1.6 2.9056 1.6 3.32994C1.6 3.75429 1.76857 4.16126 2.06863 4.46132C2.36869 4.76137 2.77565 4.92994 3.2 4.92994H4.8ZM6.4 6.52994V9.72994H9.6V6.52994H6.4ZM4.8 11.3299H3.2C2.77565 11.3299 2.36869 11.4985 2.06863 11.7986C1.76857 12.0986 1.6 12.5056 1.6 12.9299C1.6 13.3543 1.76857 13.7613 2.06863 14.0613C2.36869 14.3614 2.77565 14.5299 3.2 14.5299C3.62435 14.5299 4.03131 14.3614 4.33137 14.0613C4.63143 13.7613 4.8 13.3543 4.8 12.9299V11.3299ZM11.2 11.3299V12.9299C11.2 13.3543 11.3686 13.7613 11.6686 14.0613C11.9687 14.3614 12.3757 14.5299 12.8 14.5299C13.2243 14.5299 13.6313 14.3614 13.9314 14.0613C14.2314 13.7613 14.4 13.3543 14.4 12.9299C14.4 12.5056 14.2314 12.0986 13.9314 11.7986C13.6313 11.4985 13.2243 11.3299 12.8 11.3299H11.2ZM11.2 4.92994H12.8C13.2243 4.92994 13.6313 4.76137 13.9314 4.46132C14.2314 4.16126 14.4 3.75429 14.4 3.32994C14.4 2.9056 14.2314 2.49863 13.9314 2.19857C13.6313 1.89851 13.2243 1.72994 12.8 1.72994C12.3757 1.72994 11.9687 1.89851 11.6686 2.19857C11.3686 2.49863 11.2 2.9056 11.2 3.32994V4.92994Z" fill="#808792"/>
</g>
<defs>
<clipPath id="clip0_380_3037">
<rect width="16" height="16" fill="white"/>
</clipPath>
</defs>
</svg>
