<svg width="16" height="16" viewBox="0 0 16 16" fill="none" xmlns="http://www.w3.org/2000/svg">
<g clip-path="url(#clip0_380_3042)">
<path fill-rule="evenodd" clip-rule="evenodd" d="M5.96187 1.51743C6.309 1.1703 6.309 0.607482 5.96187 0.26035C5.61474 -0.0867832 5.05193 -0.0867832 4.70479 0.26035L0.26035 4.70479C-0.0867832 5.05193 -0.0867832 5.61474 0.26035 5.96187L4.70479 10.4063C5.05193 10.7535 5.61474 10.7535 5.96187 10.4063C6.309 10.0592 6.309 9.49637 5.96187 9.14924L3.03486 6.22222H11.5556C12.2628 6.22222 12.9411 6.50317 13.4412 7.00327C13.9413 7.50337 14.2222 8.18165 14.2222 8.88889V15.1111C14.2222 15.602 14.6202 16 15.1111 16C15.602 16 16 15.602 16 15.1111V8.88889C16 7.71015 15.5317 6.57969 14.6983 5.74619C13.8648 4.9127 12.7343 4.44444 11.5556 4.44444H3.03486L5.96187 1.51743Z" fill="#808792"/>
</g>
<defs>
<clipPath id="clip0_380_3042">
<rect width="16" height="16" fill="white"/>
</clipPath>
</defs>
</svg>
