<svg width="16" height="16" viewBox="0 0 16 16" fill="none" xmlns="http://www.w3.org/2000/svg">
<path d="M10.9415 14.6667H9.96115V12.7059H10.9415C11.4821 12.7059 11.9219 12.2661 11.9219 11.7255V9.96079C11.9219 9.2082 12.2061 8.52075 12.6727 8.00001C12.2061 7.47927 11.9219 6.79182 11.9219 6.03923V4.27452C11.9219 3.73393 11.4821 3.29413 10.9415 3.29413H9.96115V1.33334H10.9415C12.5633 1.33334 13.8827 2.65276 13.8827 4.27452V6.03923C13.8827 6.57981 14.3225 7.01962 14.8631 7.01962H15.8435V8.9804H14.8631C14.3225 8.9804 13.8827 9.42021 13.8827 9.96079V11.7255C13.8827 13.3473 12.5633 14.6667 10.9415 14.6667ZM6.03958 14.6667H5.05919C3.43742 14.6667 2.11801 13.3473 2.11801 11.7255V9.96079C2.11801 9.42021 1.67821 8.9804 1.13762 8.9804H0.157227V7.01962H1.13762C1.67821 7.01962 2.11801 6.57981 2.11801 6.03923V4.27452C2.11801 2.65276 3.43742 1.33334 5.05919 1.33334H6.03958V3.29413H5.05919C4.5186 3.29413 4.0788 3.73393 4.0788 4.27452V6.03923C4.0788 6.79182 3.79468 7.47927 3.32806 8.00001C3.79468 8.52075 4.0788 9.2082 4.0788 9.96079V11.7255C4.0788 12.2661 4.5186 12.7059 5.05919 12.7059H6.03958V14.6667Z" fill="#808792"/>
</svg>
