<svg width="36" height="36" viewBox="0 0 36 36" fill="none" xmlns="http://www.w3.org/2000/svg">
<rect width="36" height="36" rx="18" fill="#35C69D"/>
<g clip-path="url(#clip0_373_4803)">
<path d="M18.8 10.8C18.8 10.3582 18.4418 10 18 10C17.5582 10 17.2 10.3582 17.2 10.8V18.4686L14.5657 15.8343C14.2533 15.5219 13.7467 15.5219 13.4343 15.8343C13.1219 16.1467 13.1219 16.6533 13.4343 16.9657L17.4337 20.9651C17.4357 20.967 17.4376 20.969 17.4396 20.9709C17.515 21.045 17.6016 21.1011 17.6938 21.1393C17.7874 21.1781 17.89 21.1997 17.9976 21.2L18 21.2L18.0024 21.2C18.2197 21.1994 18.4166 21.1121 18.5604 20.9709C18.5624 20.969 18.5643 20.967 18.5663 20.9651L22.5657 16.9657C22.8781 16.6533 22.8781 16.1467 22.5657 15.8343C22.2533 15.5219 21.7467 15.5219 21.4343 15.8343L18.8 18.4686V10.8Z" fill="white"/>
<path d="M10.8 19.6C11.2418 19.6 11.6 19.9582 11.6 20.4V23.6C11.6 23.8122 11.6843 24.0157 11.8343 24.1657C11.9843 24.3157 12.1878 24.4 12.4 24.4H23.6C23.8122 24.4 24.0157 24.3157 24.1657 24.1657C24.3157 24.0157 24.4 23.8122 24.4 23.6V20.4C24.4 19.9582 24.7582 19.6 25.2 19.6C25.6418 19.6 26 19.9582 26 20.4V23.6C26 24.2365 25.7471 24.847 25.2971 25.2971C24.847 25.7471 24.2365 26 23.6 26H12.4C11.7635 26 11.153 25.7471 10.7029 25.2971C10.2529 24.847 10 24.2365 10 23.6V20.4C10 19.9582 10.3582 19.6 10.8 19.6Z" fill="white"/>
</g>
<defs>
<clipPath id="clip0_373_4803">
<rect width="16" height="16" fill="white" transform="translate(10 10)"/>
</clipPath>
</defs>
</svg>
