<svg width="14" height="14" viewBox="0 0 14 14" fill="none" xmlns="http://www.w3.org/2000/svg">
<g clip-path="url(#clip0_378_2821)">
<path d="M12.0222 1.31191C11.297 0.876804 10.5239 0.665283 9.65872 0.665283C8.62356 0.665283 7.60743 0.970094 6.62477 1.26487C5.6648 1.55284 4.75806 1.82483 3.86056 1.8249C3.26054 1.8249 2.71689 1.69788 2.20712 1.43792V1.13408C2.20712 0.875179 1.99723 0.665283 1.73833 0.665283C1.47943 0.665283 1.26953 0.875179 1.26953 1.13408V13.5311C1.26953 13.79 1.47943 13.9999 1.73833 13.9999C1.99723 13.9999 2.20712 13.79 2.20712 13.5311V8.83648C2.72489 9.0365 3.27135 9.13486 3.8606 9.13486C4.89573 9.13486 5.91176 8.83005 6.89436 8.53527C7.85439 8.24727 8.7612 7.97524 9.65872 7.97524C10.3492 7.97524 10.9644 8.14304 11.5398 8.48826C11.6846 8.57515 11.8649 8.57746 12.012 8.49423C12.1589 8.41101 12.2498 8.25518 12.2498 8.08629V1.71389C12.2498 1.54921 12.1634 1.3966 12.0222 1.31191ZM6.62499 7.63724C5.66493 7.92524 4.75812 8.19727 3.86063 8.19727C3.26038 8.19727 2.71695 8.07044 2.20715 7.81048V2.4644C2.72483 2.66438 3.27119 2.76252 3.86025 2.76249C4.89529 2.76242 5.9117 2.45764 6.8942 2.1629C7.85427 1.8749 8.76117 1.60287 9.65872 1.60287C10.259 1.60287 10.8024 1.7297 11.3122 1.98963V7.33578C10.7944 7.13576 10.2479 7.03765 9.65872 7.03765C8.62362 7.03765 7.60755 7.34246 6.62499 7.63724Z" fill="#808792" stroke="#808792" stroke-width="0.4"/>
</g>
<defs>
<clipPath id="clip0_378_2821">
<rect width="14" height="14" fill="white"/>
</clipPath>
</defs>
</svg>
