<svg width="16" height="16" viewBox="0 0 16 16" fill="none" xmlns="http://www.w3.org/2000/svg">
<g clip-path="url(#clip0_380_3098)">
<path fill-rule="evenodd" clip-rule="evenodd" d="M2.50725 1.72285C2.07391 1.72285 1.72261 2.07415 1.72261 2.5075V4.86143H5.64583H14.2769V2.5075C14.2769 2.07415 13.9256 1.72285 13.4923 1.72285H2.50725ZM4.86119 6.43072H1.72261V13.4925C1.72261 13.9259 2.07391 14.2772 2.50725 14.2772H4.86119V6.43072ZM6.43048 14.2772V6.43072H14.2769V13.4925C14.2769 13.9259 13.9256 14.2772 13.4923 14.2772H6.43048ZM5.64583 15.8465H2.50725C1.20721 15.8465 0.15332 14.7926 0.15332 13.4925V5.64608V2.5075C0.15332 1.20746 1.20721 0.153564 2.50725 0.153564H13.4923C14.7923 0.153564 15.8462 1.20746 15.8462 2.5075V5.64608V13.4925C15.8462 14.7926 14.7923 15.8465 13.4923 15.8465H5.64583Z" fill="#808792"/>
</g>
<defs>
<clipPath id="clip0_380_3098">
<rect width="16" height="16" fill="white"/>
</clipPath>
</defs>
</svg>
