<svg width="16" height="16" viewBox="0 0 16 16" fill="none" xmlns="http://www.w3.org/2000/svg">
<g clip-path="url(#clip0_380_3128)">
<path fill-rule="evenodd" clip-rule="evenodd" d="M9.81605 1.02942C9.3588 0.906899 8.8888 1.17825 8.76628 1.6355L5.36472 14.3303C5.2422 14.7876 5.51355 15.2575 5.9708 15.3801C6.42805 15.5026 6.89805 15.2312 7.02056 14.774L10.4221 2.07918C10.5446 1.62193 10.2733 1.15194 9.81605 1.02942ZM3.84979 4.41507C3.52102 4.14163 3.03288 4.18654 2.75954 4.5153L0.178939 7.61863C-0.0600243 7.90601 -0.0596115 8.32303 0.179971 8.60989L2.76057 11.7C2.9137 11.8834 3.13367 11.978 3.35519 11.978C3.53021 11.978 3.70621 11.9189 3.85103 11.798C4.17923 11.524 4.2231 11.0357 3.94904 10.7076L1.78201 8.11266L3.95007 5.50538C4.22341 5.17656 4.17851 4.68841 3.84979 4.41507ZM15.8199 7.6041L13.2393 4.51404C12.9652 4.18584 12.477 4.14202 12.1488 4.41608C11.8206 4.69014 11.7768 5.17839 12.0509 5.50654L14.2179 8.10143L12.0498 10.7087C11.7765 11.0375 11.8214 11.5256 12.1501 11.799C12.2947 11.9193 12.4702 11.9779 12.6447 11.9779C12.8668 11.9779 13.0872 11.8828 13.2403 11.6987L15.8209 8.59536C16.0599 8.30793 16.0595 7.89091 15.8199 7.6041Z" fill="#808792"/>
</g>
<defs>
<clipPath id="clip0_380_3128">
<rect width="16" height="16" fill="white"/>
</clipPath>
</defs>
</svg>
