<svg width="40" height="40" viewBox="0 0 40 40" fill="none" xmlns="http://www.w3.org/2000/svg">
<g clip-path="url(#clip0_373_5108)">
<path fill-rule="evenodd" clip-rule="evenodd" d="M14.8149 5.64789C16.1901 4.27262 18.0554 3.5 20.0003 3.5C21.9452 3.5 23.8105 4.27262 25.1858 5.64789C26.561 7.02315 27.3337 8.88842 27.3337 10.8333V16.3333H12.667V10.8333C12.667 8.88842 13.4396 7.02315 14.8149 5.64789ZM10.8363 20C10.8354 20 10.8345 20 10.8337 20C10.8328 20 10.8319 20 10.831 20H7.16699C6.15447 20 5.33366 20.8208 5.33366 21.8333V34.6667C5.33366 35.6792 6.15447 36.5 7.16699 36.5H32.8337C33.8462 36.5 34.667 35.6792 34.667 34.6667V21.8333C34.667 20.8208 33.8462 20 32.8337 20H29.1697C29.1688 20 29.1679 20 29.167 20C29.1661 20 29.1652 20 29.1643 20H10.8363ZM31.0003 16.3333V10.8333C31.0003 7.91595 29.8414 5.11806 27.7785 3.05516C25.7156 0.992261 22.9177 -0.166664 20.0003 -0.166664C17.0829 -0.166664 14.2851 0.992261 12.2222 3.05516C10.1593 5.11806 9.00033 7.91595 9.00033 10.8333V16.3333H7.16699C4.12943 16.3333 1.66699 18.7958 1.66699 21.8333V34.6667C1.66699 37.7042 4.12943 40.1667 7.16699 40.1667H32.8337C35.8712 40.1667 38.3337 37.7042 38.3337 34.6667V21.8333C38.3337 18.7958 35.8712 16.3333 32.8337 16.3333H31.0003Z" fill="#3C4250"/>
</g>
<defs>
<clipPath id="clip0_373_5108">
<rect width="40" height="40" fill="white"/>
</clipPath>
</defs>
</svg>
