<svg width="16" height="16" viewBox="0 0 16 16" fill="none" xmlns="http://www.w3.org/2000/svg">
<g clip-path="url(#clip0_380_3045)">
<path fill-rule="evenodd" clip-rule="evenodd" d="M9.59987 0.8C9.59987 0.358172 9.95804 0 10.3999 0H15.1999C15.6417 0 15.9999 0.358172 15.9999 0.8V5.6C15.9999 6.04183 15.6417 6.4 15.1999 6.4C14.758 6.4 14.3999 6.04183 14.3999 5.6V2.76158L10.0138 7.14764C9.73611 7.42535 9.28586 7.42535 9.00815 7.14764C8.73044 6.86994 8.73044 6.41968 9.00815 6.14198L13.5501 1.6H10.3999C9.95804 1.6 9.59987 1.24183 9.59987 0.8ZM6.99172 9.1642C7.26943 9.4419 7.26943 9.89215 6.99172 10.1699L2.76158 14.4H5.6C6.04183 14.4 6.4 14.7582 6.4 15.2C6.4 15.6418 6.04183 16 5.6 16H0.8C0.358172 16 0 15.6418 0 15.2V10.4C0 9.95817 0.358172 9.6 0.8 9.6C1.24183 9.6 1.6 9.95817 1.6 10.4V13.5503L5.98606 9.1642C6.26376 8.88649 6.71401 8.88649 6.99172 9.1642Z" fill="#808792"/>
</g>
<defs>
<clipPath id="clip0_380_3045">
<rect width="16" height="16" fill="white"/>
</clipPath>
</defs>
</svg>
