<svg width="14" height="14" viewBox="0 0 14 14" fill="none" xmlns="http://www.w3.org/2000/svg">
<g clip-path="url(#clip0_378_2787)">
<path fill-rule="evenodd" clip-rule="evenodd" d="M10.6745 1.48726C9.9979 1.48726 9.44942 2.03574 9.44942 2.71232C9.44942 2.92505 9.50364 3.12511 9.59902 3.29945C9.60526 3.30891 9.61128 3.3186 9.61707 3.32851C9.62281 3.33835 9.62824 3.34828 9.63338 3.3583C9.84954 3.70594 10.235 3.93738 10.6745 3.93738C11.3511 3.93738 11.8995 3.3889 11.8995 2.71232C11.8995 2.03574 11.3511 1.48726 10.6745 1.48726ZM8.93371 4.4365C9.37774 4.88477 9.99368 5.16243 10.6745 5.16243C12.0276 5.16243 13.1246 4.06548 13.1246 2.71232C13.1246 1.35916 12.0276 0.262207 10.6745 0.262207C9.32132 0.262207 8.22436 1.35916 8.22436 2.71232C8.22436 2.94326 8.25631 3.16673 8.31604 3.37856L5.06491 5.27584C4.62089 4.82757 4.00494 4.5499 3.32414 4.5499C1.97098 4.5499 0.874023 5.64685 0.874023 7.00001C0.874023 8.35317 1.97098 9.45012 3.32414 9.45012C4.00506 9.45012 4.62111 9.17235 5.06515 8.72394L8.31681 10.6188C8.25659 10.8314 8.22436 11.0558 8.22436 11.2877C8.22436 12.6409 9.32132 13.7378 10.6745 13.7378C12.0276 13.7378 13.1246 12.6409 13.1246 11.2877C13.1246 9.93457 12.0276 8.83761 10.6745 8.83761C9.9947 8.83761 9.37959 9.11445 8.93572 9.56153L5.68268 7.66591C5.74234 7.45418 5.77425 7.23082 5.77425 7.00001C5.77425 6.76908 5.7423 6.54561 5.68258 6.33379L8.93371 4.4365ZM4.36524 6.35403C4.37037 6.36405 4.37581 6.37399 4.38156 6.38384C4.38734 6.39375 4.39336 6.40344 4.39961 6.4129C4.49498 6.58723 4.54919 6.78729 4.54919 7.00001C4.54919 7.21277 4.49496 7.41285 4.39956 7.5872C4.39326 7.59675 4.38719 7.60653 4.38136 7.61654C4.37571 7.62624 4.37035 7.63604 4.36528 7.64591C4.14913 7.9936 3.76366 8.22507 3.32414 8.22507C2.64756 8.22507 2.09908 7.67659 2.09908 7.00001C2.09908 6.32343 2.64756 5.77495 3.32414 5.77495C3.76363 5.77495 4.14907 6.00639 4.36524 6.35403ZM9.44942 11.2877C9.44942 11.0886 9.49695 10.9005 9.58129 10.7342C9.59641 10.7144 9.61049 10.6933 9.62339 10.6712C9.63575 10.65 9.6467 10.6283 9.65626 10.6063C9.8761 10.2785 10.2501 10.0627 10.6745 10.0627C11.3511 10.0627 11.8995 10.6111 11.8995 11.2877C11.8995 11.9643 11.3511 12.5128 10.6745 12.5128C9.9979 12.5128 9.44942 11.9643 9.44942 11.2877Z" fill="#808792"/>
</g>
<defs>
<clipPath id="clip0_378_2787">
<rect width="14" height="14" fill="white"/>
</clipPath>
</defs>
</svg>
