<svg width="14" height="14" viewBox="0 0 14 14" fill="none" xmlns="http://www.w3.org/2000/svg">
<g clip-path="url(#clip0_378_2785)">
<path fill-rule="evenodd" clip-rule="evenodd" d="M7 0C7.24221 0 7.46342 0.134917 7.57063 0.348029L9.38907 3.96277L13.4557 4.54599C13.6953 4.58036 13.8943 4.7452 13.969 4.97124C14.0436 5.19728 13.9811 5.44533 13.8076 5.61113L10.8656 8.42283L11.5599 12.395C11.6009 12.6293 11.5027 12.8661 11.3067 13.0058C11.1107 13.1455 10.8509 13.1639 10.6365 13.0532L7 11.1768L3.36348 13.0532C3.14908 13.1639 2.88926 13.1455 2.69327 13.0058C2.49729 12.8661 2.39913 12.6293 2.44008 12.395L3.13441 8.42283L0.19237 5.61113C0.0188861 5.44533 -0.043651 5.19728 0.0310437 4.97124C0.105738 4.7452 0.304716 4.58036 0.544345 4.54599L4.61093 3.96277L6.42937 0.348029C6.53658 0.134917 6.75779 0 7 0ZM7 2.0351L5.60427 4.80956C5.51166 4.99366 5.33272 5.12133 5.12568 5.15102L2.00355 5.59879L4.2622 7.75739C4.4123 7.90084 4.48081 8.1076 4.44539 8.31024L3.91249 11.359L6.7038 9.91863C6.88923 9.82295 7.11077 9.82295 7.2962 9.91863L10.0875 11.359L9.55461 8.31024C9.51919 8.1076 9.5877 7.90084 9.7378 7.75739L11.9965 5.59879L8.87432 5.15102C8.66728 5.12133 8.48834 4.99366 8.39573 4.80956L7 2.0351Z" fill="#808792"/>
</g>
<defs>
<clipPath id="clip0_378_2785">
<rect width="14" height="14" fill="white"/>
</clipPath>
</defs>
</svg>
