<svg width="14" height="14" viewBox="0 0 14 14" fill="none" xmlns="http://www.w3.org/2000/svg">
<g clip-path="url(#clip0_378_2783)">
<path fill-rule="evenodd" clip-rule="evenodd" d="M5.86675 0.37791C5.97038 0.148102 6.20161 0 6.45678 0C7.14175 0 7.79868 0.268179 8.28303 0.745542C8.76738 1.2229 9.03949 1.87035 9.03949 2.54544V4.45452H12.045C12.3245 4.45197 12.6011 4.50903 12.8561 4.62181C13.1123 4.73513 13.3404 4.90199 13.5247 5.11082C13.7089 5.31965 13.8449 5.56547 13.9232 5.83125C14.0015 6.09702 14.0202 6.37639 13.9781 6.65L13.087 12.3772C13.087 12.3773 13.0871 12.377 13.087 12.3772C13.0169 12.8322 12.7823 13.2474 12.4264 13.5455C12.0715 13.8429 11.6197 14.0042 11.154 13.9999H1.93703C1.4233 13.9999 0.930608 13.7988 0.567344 13.4408C0.20408 13.0827 0 12.5972 0 12.0908V7.63632C0 7.13 0.20408 6.64442 0.567344 6.2864C0.930608 5.92837 1.4233 5.72724 1.93703 5.72724H3.45446L5.86675 0.37791ZM3.22839 6.99996H1.93703C1.76579 6.99996 1.60156 7.067 1.48047 7.18634C1.35938 7.30568 1.29136 7.46755 1.29136 7.63632V12.0908C1.29136 12.2596 1.35938 12.4215 1.48047 12.5408C1.60156 12.6602 1.76579 12.7272 1.93703 12.7272H3.22839V6.99996ZM4.51974 12.7272H11.1646C11.3203 12.7289 11.4714 12.6752 11.5901 12.5758C11.7087 12.4764 11.7869 12.3381 11.8103 12.1863L12.7013 6.45901C12.7013 6.4591 12.7013 6.45893 12.7013 6.45901C12.7153 6.36789 12.7091 6.2746 12.683 6.18609C12.6569 6.0975 12.6116 6.01556 12.5502 5.94595C12.4888 5.87634 12.4127 5.82072 12.3273 5.78295C12.242 5.74518 12.1492 5.72615 12.0557 5.7272L12.0483 5.72728L8.39381 5.72724C8.03721 5.72724 7.74813 5.44233 7.74813 5.09088V2.54544C7.74813 2.20789 7.61208 1.88417 7.3699 1.64549C7.22279 1.5005 7.04383 1.39411 6.84924 1.33292L4.51974 6.49864V12.7272Z" fill="#808792"/>
</g>
<defs>
<clipPath id="clip0_378_2783">
<rect width="14" height="14" fill="white"/>
</clipPath>
</defs>
</svg>
