<svg width="149" height="102" viewBox="0 0 149 102" fill="none" xmlns="http://www.w3.org/2000/svg">
<g opacity="0.5">
<path d="M68.3547 85.0084C63.9891 85.0084 59.6414 85.1223 55.2759 85.6159C53.6298 85.8057 52.0196 86.2233 50.3735 86.3942C47.0994 86.7359 43.861 87.3623 40.5689 87.6471C37.903 87.8938 35.2372 88.0267 32.5892 88.3115C30.1023 88.5962 27.3649 88.5393 24.8958 88.0647C23.0709 87.742 21.228 87.5522 19.4388 87.0017C17.435 86.3942 15.2522 85.9576 13.1589 85.9766C10.1888 85.9955 7.27251 85.9955 4.42773 87.0776C3.4258 87.4572 2.19127 88.0647 1.43982 88.862C-0.313561 90.6654 -0.546153 95.2023 1.18934 97.0816C4.12357 100.233 10.3678 101.486 14.4829 101.543C18.9737 101.6 23.3392 101.258 27.8479 101.049C32.0346 100.859 36.2212 100.593 40.4079 100.612C48.9601 100.631 57.5302 100.612 66.0824 100.005C74.1158 99.4545 82.167 99.6443 90.2183 99.6443C98.4664 99.6443 106.661 99.7203 114.855 100.859C118.416 101.353 122.065 101.524 125.644 101.865C128.864 102.188 131.96 101.865 135.144 101.581C137.846 101.334 140.512 100.612 142.945 99.3976C144.877 98.4484 148.33 95.4681 148.921 93.1711C150.585 86.7549 125.501 86.9257 121.654 86.9257C117.342 86.9447 113.012 87.0966 108.7 86.9257C106.893 86.8498 105.104 86.4891 103.333 86.0905C101.579 85.6728 99.8082 85.7867 98.0191 85.6159C90.5761 84.9135 83.1153 85.0084 75.6545 85.0084C73.2212 85.0084 70.7879 84.9895 68.3547 85.0084Z" fill="#A4C8C4"/>
</g>
<path d="M119.432 64.9654L119.462 65.8806L117.857 66.4657L116.927 65.7605V64.7103L117.827 64.6503L117.857 64.4252L118.142 64.2452L119.432 64.9654Z" fill="#E1CFB5"/>
<path d="M86.6792 72.1371L87.0243 80.119L86.0191 93.6822L84.5037 93.7872L82.6733 81.4693L80.1377 71.0418L86.6792 72.1371Z" fill="#353A85"/>
<path d="M84.5789 94.8074H86.8445L86.9495 94.0572L86.1243 93.5021L84.5039 93.6071L84.5789 94.8074Z" fill="#292949"/>
<path d="M75.9951 69.7665L75.665 75.7979L76.6403 93.7271L78.1556 93.8022L80.4212 82.0394L82.4166 69.1513L75.9951 69.7665Z" fill="#353A85"/>
<path d="M78.0956 94.8674L75.8901 94.9574L75.665 94.3273L76.5202 93.5471L78.1556 93.6221L78.0956 94.8674Z" fill="#292949"/>
<path d="M84.7723 51.5522L80.0612 51.042C80.0612 51.042 77.4355 51.3271 75.6651 57.5536C74.6749 61.0194 74.3748 66.4807 74.2998 70.6367C74.4048 71.2368 75.05 73.8324 77.7956 73.3973C82.4917 72.6321 84.9823 71.882 87.0378 72.2571C88.7782 72.6322 88.6282 70.2316 88.4331 68.4011L87.743 62.7448L84.7723 51.5522Z" fill="#D67086"/>
<path d="M83.8715 45.6858C82.6712 45.4157 81.456 45.1757 80.2707 45.4157C80.0006 45.4757 79.7306 45.5657 79.5805 45.7908C79.5355 45.8658 79.5055 45.9708 79.4755 46.0759C79.1754 47.1861 78.7853 48.8365 79.5205 49.8718C79.6705 50.0668 79.8506 50.2168 80.0606 50.3519C80.3307 50.5169 80.6308 50.6369 80.9308 50.697C80.8708 50.977 80.7858 51.2471 80.6758 51.5072C80.9458 51.9123 82.2061 51.9573 82.4462 51.5672C82.4562 51.2271 82.4712 50.887 82.4912 50.5469C82.6412 50.4869 82.7863 50.4119 82.9263 50.3219C83.4664 49.9618 83.8265 49.4217 84.0366 48.8065C84.2616 48.1464 84.5767 47.5312 84.7867 46.8561C84.8618 46.601 84.9218 46.3309 84.7867 46.1059C84.6517 45.8658 84.3516 45.7908 84.0966 45.7308C84.0166 45.7108 83.9415 45.6958 83.8715 45.6858Z" fill="#C17E72"/>
<path d="M84.3817 48.7765C84.9518 48.1914 85.627 47.3662 85.672 46.631C85.717 46.0158 85.642 45.1756 85.2969 44.6355C84.9668 44.1404 84.1416 43.8703 83.6465 43.5853C83.1864 43.3052 82.7263 43.0301 82.2662 42.7601C82.1612 42.7001 82.0711 42.655 81.9511 42.625C81.8311 42.61 81.6961 42.64 81.561 42.67C80.4708 42.9601 79.3805 43.2452 78.2902 43.5253C78.0802 43.5703 77.8401 43.6603 77.7651 43.8553C77.7051 43.9754 77.7351 44.1254 77.7651 44.2454C77.8851 44.8156 78.1252 45.4007 78.1852 45.9708C78.2752 46.4209 78.2602 46.826 78.5903 47.1711C78.9054 47.4712 79.3255 47.6512 79.5655 48.0263C79.7606 48.3114 79.8206 48.6415 79.9706 48.9415C80.6008 50.2919 83.1964 49.9318 84.0966 49.0616C84.1866 48.9715 84.2817 48.8765 84.3817 48.7765Z" fill="#353A85"/>
<path d="M83.7832 51.9573L87.024 48.4464L86.2588 38.9642L87.6841 38.334L90.6698 47.8763L89.6196 50.817L85.2685 56.6684L83.7832 51.9573Z" fill="#D67086"/>
<path d="M87.3696 38.4691C87.3696 38.4691 87.3696 37.6139 87.3696 37.5989C87.3696 37.2838 86.5744 36.5486 86.3794 36.2785C86.2594 36.1285 85.7342 36.9537 85.7192 37.0887C85.7042 37.3288 86.0493 37.8239 86.1393 38.064L85.8543 38.4691L86.2594 38.9642L87.3696 38.4691Z" fill="#C17E72"/>
<path d="M77.9761 52.6774L74.3153 49.6317L73.8351 40.1194L72.3498 39.6843L70.6094 49.5417L72.0497 52.3173L77.1059 57.5386L77.9761 52.6774Z" fill="#D67086"/>
<path d="M72.6659 39.7744C72.6659 39.7744 72.5459 38.9342 72.5459 38.9192C72.5159 38.6041 73.206 37.7639 73.3711 37.4788C73.4611 37.3138 74.1062 38.064 74.1212 38.199C74.1663 38.424 73.8962 38.9642 73.8362 39.2192L74.1663 39.5793L73.8362 40.1194L72.6659 39.7744Z" fill="#C17E72"/>
<path d="M20.3789 46.7661C19.7938 46.466 19.2386 46.1059 18.7285 45.6858C18.5635 45.5508 18.3834 45.3557 18.4434 45.1457C18.5035 44.9206 18.8185 44.8606 19.0736 44.8906C19.5237 44.9206 19.9888 45.0556 20.3939 45.2807C20.4989 45.2507 20.3639 45.0857 20.4089 44.9956C20.4239 44.9506 20.4839 44.9356 20.5289 44.9206C21.1891 44.8906 21.4592 45.7908 21.6842 46.2259C21.2191 46.466 20.739 46.481 20.3189 46.8561L20.3789 46.7661Z" fill="#EFBFA5"/>
<path d="M48.8248 57.5086C48.8248 57.5086 49.68 57.6286 49.695 57.6286C50.0101 57.6737 51.3754 56.9835 51.6605 56.8185C51.8256 56.7284 50.5653 56.0983 50.4302 56.0683C50.2052 56.0233 49.665 56.2783 49.41 56.3383L49.0499 55.9933L48.5098 56.3233L48.8248 57.5086Z" fill="#EFBFA5"/>
<path d="M27.7763 92.887L27.6562 93.8172L29.3967 94.9875L30.4469 94.1773L29.6367 93.1271L27.8963 91.9718L27.7763 92.887Z" fill="#292949"/>
<path d="M27.7173 92.5869L29.0676 80.7341L27.4473 67.456L27.8074 64.6353L35.0241 64.3653L35.2791 68.9563L34.0638 80.7491L29.5178 93.1871L27.7173 92.5869Z" fill="#292949"/>
<path d="M36.1641 51.5072L39.4048 53.3977L41.9704 57.0135L48.8271 56.0083L49.0371 57.8987L41.2653 60.4943L37.2743 59.009L36.1641 51.5072Z" fill="#BABCBE"/>
<path d="M40.3067 65.6856L40.3367 77.6434L37.9212 93.052L36.1808 93.037L35.2355 78.7987L33 64.5453L40.3067 65.6856Z" fill="#292949"/>
<path d="M36.1953 93.7572L38.0558 94.7174L39.001 93.7872L38.0708 92.842L36.1953 92.827V93.7572Z" fill="#292949"/>
<path d="M26.6963 69.7515C26.7113 69.2414 26.7413 68.8063 26.7563 68.6563C26.7863 67.2609 26.9063 65.8656 27.0864 64.4853C27.2364 63.255 27.4315 60.1793 27.6565 58.949C27.8216 57.9437 28.4367 55.4081 28.8718 54.4629C29.9671 52.1224 29.637 51.8973 34.4381 51.2071C36.5386 50.9071 37.0487 52.2124 38.7741 53.7277C38.9392 53.8778 38.9242 54.763 38.9692 55.003C39.0392 55.4131 39.1142 55.8232 39.1942 56.2333C39.2643 56.5534 39.3393 56.8735 39.4193 57.1936C39.4193 57.1936 40.8596 63.7801 41.8199 65.1754C42.7801 66.5858 44.7606 68.5362 41.4448 69.7215C40.8596 69.9166 40.2745 70.0966 39.6594 70.1866C39.6594 70.1866 36.9587 69.8866 35.5784 69.9016C34.2881 69.9166 32.9978 70.0366 31.7525 70.2616C30.8973 70.3967 30.0421 70.6067 29.2919 70.9968C28.5717 71.3719 28.0616 71.927 27.3264 72.3171C27.2514 72.3471 27.1764 72.3921 27.1014 72.3771C26.6813 72.3171 26.6663 70.8468 26.6963 69.7515Z" fill="#BABCBE"/>
<path d="M34.0034 51.8073C33.8084 52.0023 33.2682 52.2124 32.6381 52.1674C32.503 52.1524 32.398 52.0623 32.353 51.9423C32.253 51.5922 32.178 51.2371 32.128 50.8771C31.6478 50.8621 31.0777 50.787 30.8677 50.3669C30.8076 50.2319 30.7926 50.0819 30.7626 49.9318C30.6826 49.3117 30.6076 48.6965 30.5376 48.0864C30.5076 47.8764 30.4776 47.6513 30.5376 47.4563C30.6276 47.0812 30.9727 46.8411 31.3028 46.6761C32.158 46.241 33.1932 46.1359 34.0784 46.511C34.3185 46.6011 34.5435 46.7361 34.6936 46.9461C34.9336 47.2612 34.9486 47.6813 34.9636 48.0714C34.9836 48.4315 34.9986 48.7966 35.0086 49.1667C35.0386 49.5718 35.0236 50.0669 34.6936 50.3219C34.5135 50.457 34.2735 50.502 34.1384 50.682C33.8834 50.9671 34.0634 51.4322 34.0034 51.8073Z" fill="#EFBFA5"/>
<path d="M37.4245 44.4106C37.4745 44.2305 37.5295 44.0605 37.5895 43.9004C37.7395 43.5404 37.9496 43.2103 38.0396 42.8352C38.1296 42.4601 38.0546 42.01 37.7395 41.7849C37.5445 41.6499 37.2744 41.6199 37.0344 41.6349C36.2092 41.6349 35.399 41.875 34.7088 42.2951C34.0337 42.7002 33.4935 43.2103 32.6833 43.1503C31.9182 43.1053 31.453 43.3603 30.8229 43.8404C30.1327 44.3505 29.1275 44.7406 28.5424 45.3408C28.3023 45.5808 28.1523 45.9109 28.0472 46.241C27.7172 47.4113 28.1223 48.7466 29.0525 49.5268C29.2625 49.7068 29.4876 49.8569 29.7276 49.9919C30.2078 50.277 30.7929 50.622 31.333 50.622C31.213 50.1719 30.3728 48.8816 30.5978 48.4165C30.9729 47.6663 32.2632 47.4863 32.9834 47.4263C33.7636 47.3513 34.5888 47.6663 35.354 47.5613C35.9091 47.4713 36.4942 47.0062 36.8693 46.6011C37.3194 46.091 37.2744 45.0407 37.4245 44.4106Z" fill="#292949"/>
<path d="M30.237 52.2424L26.4561 53.2176L21.8951 46.1359L19.9746 46.646L23.1704 56.8484L30.5521 57.7337L30.237 52.2424Z" fill="#BABCBE"/>
<path d="M122.298 91.5218C122.463 91.3417 122.658 91.2367 122.868 91.2817C123.093 91.3117 123.273 91.4467 123.363 91.6418C123.423 91.7768 123.438 91.9118 123.438 92.0619C123.513 92.797 123.498 94.5375 122.523 94.7925C122.118 94.8975 121.773 94.5975 121.667 94.2374C121.487 93.6823 121.743 92.1369 122.298 91.5218Z" fill="#292949"/>
<path d="M121.952 80.434L121.997 84.9201C121.937 86.9156 122.252 88.911 122.192 90.9065C122.177 91.3566 122.057 91.8517 122.177 92.3018C122.282 92.7369 122.642 92.8269 123.017 92.6019C123.513 92.3018 123.438 91.5967 123.513 91.0865C123.738 89.6762 124.008 88.2659 124.248 86.8555C124.368 86.1654 124.128 85.2051 124.173 84.5L124.893 80.7491L121.952 80.434Z" fill="#F4C7B3"/>
<path d="M127.069 73.2024L125.119 81.8594L124.699 90.0514L121.608 89.9764L120.768 67.0809L126.769 67.201L127.069 73.2024Z" fill="#292949"/>
<path d="M117.872 91.3567C118.052 91.1917 118.247 91.1017 118.457 91.1467C118.667 91.1917 118.847 91.3417 118.922 91.5368C118.982 91.6718 118.982 91.8219 118.997 91.9719C119.027 92.7071 118.937 94.4475 117.962 94.6425C117.542 94.7325 117.212 94.4175 117.122 94.0424C116.987 93.4723 117.287 91.9419 117.872 91.3567Z" fill="#292949"/>
<path d="M119.506 81.0643L119.236 85.5504C119.221 86.7806 119.056 88.0259 118.921 89.2562C118.801 90.3965 118.996 91.5968 118.396 92.647C118.201 92.9621 117.825 93.1872 117.555 92.7821C117.345 92.482 117.465 91.9719 117.435 91.6268C117.27 90.2015 117.075 88.7911 116.91 87.3808C116.82 86.6756 117.105 85.7304 117.09 85.0252L116.535 81.2443L119.506 81.0643Z" fill="#F4C7B3"/>
<path d="M115.59 72.6623L115.335 81.0792L116.655 89.5863L119.806 89.6763L119.656 80.4791L121.321 72.8423L121.892 67.8461L116.895 67.261L115.59 72.6623Z" fill="#292949"/>
<path d="M119.536 50.0368L124.907 49.9168L128.028 55.7082L126.918 61.1395L126.723 67.651L119.056 67.756L116.535 67.3359L117.195 60.3893L116.82 51.1171L119.536 50.0368Z" fill="#8CABEF"/>
<path d="M120.241 45.0258C121.306 42.7602 124.292 43.9755 124.712 46.136C124.982 47.5314 123.737 49.1967 122.282 49.4368C122.282 49.4818 122.117 49.9469 122.117 49.9769C122.087 50.202 122.042 50.412 121.982 50.6221C121.967 50.7121 120.751 50.337 120.616 50.292C120.571 50.277 120.526 50.262 120.496 50.217C120.451 50.142 120.706 49.5118 120.721 49.4218C120.751 49.3218 120.776 49.2218 120.796 49.1217C120.136 48.7016 119.776 47.9364 119.731 47.1863C119.686 46.4361 119.926 45.7009 120.241 45.0258Z" fill="#F4C7B3"/>
<path d="M122.492 43.1203C122.642 43.3004 122.672 43.5554 122.702 43.7805C122.717 43.9155 122.717 44.0656 122.687 44.1856C122.507 44.7107 121.982 44.6207 121.562 44.7557C121.037 44.9058 120.557 45.2508 120.227 45.6709C119.702 46.3311 119.807 47.2463 119.897 48.0415C119.942 48.3266 120.017 48.7467 119.777 48.9567C119.537 49.1818 119.041 49.0917 118.801 48.9417C118.576 48.7917 118.411 48.5666 118.156 48.4916C117.886 48.4166 117.511 48.4916 117.406 48.2365C117.376 48.1615 117.391 48.0715 117.346 48.0115C117.211 47.7714 116.821 47.9815 116.611 47.8164C116.491 47.6964 116.521 47.5014 116.581 47.3513C116.641 47.2013 116.731 47.0363 116.716 46.8862C116.716 46.7362 116.626 46.6162 116.566 46.4811C116.476 46.2261 116.551 45.911 116.761 45.7159C117.136 45.3559 117.781 45.5059 118.186 45.1758C118.396 45.0108 118.486 44.7407 118.591 44.4857C118.696 44.2306 118.801 43.9605 119.026 43.8105C119.296 43.6155 119.657 43.6905 119.927 43.4654C120.077 43.3304 120.197 43.1353 120.377 43.0303C120.602 42.8803 121.037 42.7903 121.307 42.7302C121.742 42.6252 122.207 42.7753 122.492 43.1203Z" fill="#292949"/>
<path d="M124.038 47.0663C123.978 47.8465 123.498 48.6416 123.783 49.3618C124.068 50.082 124.953 50.292 125.703 50.4121C125.838 50.4421 127.429 50.7421 127.429 50.7121C127.609 50.187 127.789 49.6619 128.134 49.2118C128.464 48.7767 128.974 48.4316 129.514 48.4616C129.364 48.4166 129.304 48.2215 129.334 48.0565C129.379 47.9065 129.469 47.7714 129.529 47.6214C129.694 47.2463 129.634 46.7962 129.364 46.4961C128.854 45.911 127.804 46.016 127.384 45.3559C127.114 44.9508 127.219 44.4106 127.114 43.9305C126.904 43.0003 125.943 42.7152 125.253 42.2351C124.533 41.725 123.828 41.4099 122.928 41.4699C121.802 41.53 120.872 42.5652 121.172 43.6605C121.577 45.0708 123.768 45.1908 124.023 46.6162C124.053 46.7662 124.058 46.9162 124.038 47.0663Z" fill="#292949"/>
<path d="M123.319 50.0068L121.654 52.3624L120.874 52.3024L119.568 49.9168L123.319 50.0068Z" fill="#F9F9F9"/>
<path d="M119.566 49.9168L116.535 50.0819C116.535 50.0819 113.13 51.7473 112.904 51.6272C112.679 51.4922 109.004 44.1405 109.004 44.1405L107.203 44.7256L109.454 53.1426L111.629 55.3931L117.781 54.3729L119.566 49.9168Z" fill="#8CABEF"/>
<path d="M107.474 44.6206C107.474 44.6206 107.009 43.9004 106.994 43.9004C106.814 43.6304 107.069 42.5651 107.084 42.235C107.099 42.055 107.999 42.4451 108.089 42.5501C108.224 42.7301 108.224 43.3453 108.284 43.5853L108.749 43.7654L108.689 44.3955L107.474 44.6206Z" fill="#F4C7B3"/>
<path d="M43.784 22.8053L34.3018 18.5293V7.12662L43.784 11.4026V22.8053Z" fill="#373F8C"/>
<path d="M43.7852 22.8053L53.2524 18.5293V7.12662L43.7852 11.4026V22.8053Z" fill="#333A7F"/>
<path d="M34.3018 7.1266L43.784 11.4026L53.2512 7.1266L43.784 3.24068L34.3018 7.1266Z" fill="#3F4991"/>
<path d="M119.461 16.4439L111.494 12.843V3.27074L119.461 6.87159V16.4439Z" fill="#5D66D3"/>
<path d="M119.461 16.4439L127.428 12.843V3.27075L119.461 6.8716V16.4439Z" fill="#474EBB"/>
<path d="M111.494 3.27077L119.461 6.87163L127.428 3.27077L119.461 0L111.494 3.27077Z" fill="#717DDB"/>
<path d="M71.2857 25.536L70.1604 25.0259L70.3555 24.5908L71.4807 25.1009L71.2857 25.536ZM69.2902 24.6358L67.9849 24.0507L68.195 23.6156L69.5003 24.2007L69.2902 24.6358ZM67.1147 23.6456L65.8094 23.0605L66.0044 22.6254L67.3097 23.2105L67.1147 23.6456ZM64.9392 22.6704L63.6339 22.0702L63.8289 21.6351L65.1342 22.2353L64.9392 22.6704ZM62.7637 21.6801L61.4584 21.095L61.6534 20.6599L62.9587 21.245L62.7637 21.6801ZM60.5882 20.7049L59.2828 20.1048L59.4779 19.6697L60.7832 20.2698L60.5882 20.7049ZM58.4126 19.7147L57.1073 19.1295L57.3174 18.6944L58.6227 19.2796L58.4126 19.7147ZM56.2371 18.7244L54.9318 18.1393L55.1269 17.7042L56.4322 18.2893L56.2371 18.7244ZM54.0616 17.7492L52.7563 17.1491L52.9514 16.714L54.2567 17.3141L54.0616 17.7492ZM51.8861 16.759L50.5808 16.1738L50.7758 15.7387L52.0811 16.3239L51.8861 16.759ZM49.7106 15.7687L48.4053 15.1836L48.6003 14.7485L49.9056 15.3336L49.7106 15.7687Z" fill="#D67086"/>
<path d="M24.58 25.581L24.2949 25.1909L24.8801 24.7558L25.1651 25.1309L24.58 25.581ZM25.9453 24.5758L25.6602 24.2007L26.8155 23.3455L27.1006 23.7356L25.9453 24.5758ZM27.8508 23.1504L27.5657 22.7604L28.721 21.9051L29.006 22.2952L27.8508 23.1504ZM29.7712 21.7251L29.4862 21.35L30.6414 20.4948L30.9265 20.8699L29.7712 21.7251ZM31.6767 20.3148L31.3916 19.9247L32.5469 19.0695L32.8319 19.4596L31.6767 20.3148ZM33.5971 18.8894L33.3121 18.5143L34.4673 17.6591L34.7524 18.0342L33.5971 18.8894ZM35.5026 17.4791L35.2175 17.089L36.3728 16.2338L36.6578 16.6239L35.5026 17.4791ZM37.423 16.0538L37.138 15.6637L38.2932 14.8235L38.5783 15.1986L37.423 16.0538Z" fill="#D67086"/>
<path d="M21.2335 39.6094L13.2666 36.0235V26.4362L21.2335 30.0371V39.6094Z" fill="#5D66D3"/>
<path d="M21.2344 39.6093L29.2013 36.0235V26.4362L21.2344 30.0371V39.6093Z" fill="#474EBB"/>
<path d="M13.2666 26.4363L21.2335 30.0371L29.2004 26.4363L21.2335 23.1655L13.2666 26.4363Z" fill="#717DDB"/>
<path d="M70.9105 27.7716L70.7305 27.3215L70.7755 27.3065L70.9405 27.7566L70.9105 27.7716ZM71.8407 27.3965L71.6607 26.9614L72.996 26.4363L73.176 26.8714L71.8407 27.3965ZM74.0613 26.5113L73.8812 26.0762L75.2165 25.551L75.3816 25.9861L74.0613 26.5113ZM76.2818 25.6261L76.1017 25.191L77.4371 24.6658L77.6171 25.1009L76.2818 25.6261ZM78.5023 24.7409L78.3223 24.3057L79.6576 23.7806L79.8226 24.2157L78.5023 24.7409ZM80.7228 23.8556L80.5578 23.4205L81.8781 22.8954L82.0581 23.3305L80.7228 23.8556ZM82.9434 22.9704L82.7633 22.5353L84.0986 22.0102L84.2787 22.4453L82.9434 22.9704ZM85.1489 22.0852L84.9838 21.6501L86.3042 21.125L86.4842 21.5601L85.1489 22.0852ZM87.3694 21.2L87.1894 20.7649L88.5247 20.2398L88.7047 20.6749L87.3694 21.2ZM89.5899 20.3148L89.4099 19.8797L90.7452 19.3546L90.9102 19.7897L89.5899 20.3148ZM91.8105 19.4296L91.6304 18.9945L92.9657 18.4694L93.1458 18.9045L91.8105 19.4296ZM94.031 18.5444L93.8509 18.1093L95.1863 17.5842L95.3513 18.0193L94.031 18.5444ZM96.2515 17.6592L96.0865 17.2241L97.4068 16.6989L97.5868 17.1341L96.2515 17.6592ZM98.472 16.774L98.292 16.3389L99.6273 15.8137L99.8073 16.2488L98.472 16.774ZM100.678 15.8888L100.513 15.4537L101.833 14.9285L102.013 15.3636L100.678 15.8888ZM102.898 15.0035L102.718 14.5684L104.053 14.0433L104.233 14.4784L102.898 15.0035ZM105.119 14.1183L104.939 13.6832L106.274 13.1581L106.439 13.5932L105.119 14.1183ZM107.339 13.2331L107.159 12.798L108.494 12.2729L108.674 12.708L107.339 13.2331ZM109.56 12.3479L109.38 11.9128L110.715 11.3877L110.88 11.8228L109.56 12.3479ZM111.78 11.4777L111.615 11.0276L112.935 10.5025L113.115 10.9376L111.78 11.4777ZM114.001 10.6075L113.821 10.1574L115.156 9.63228L115.336 10.0674L114.001 10.6075Z" fill="#D67086"/>
<path d="M78.8919 40.8996L62.748 33.6079V14.1933L78.8919 21.485V40.8996Z" fill="#5D66D3"/>
<path d="M78.8926 40.8996L95.0364 33.6079V14.1933L78.8926 21.485V40.8996Z" fill="#474EBB"/>
<path d="M62.748 14.1933L78.8919 21.4851L95.0357 14.1933L78.8919 7.57677L62.748 14.1933Z" fill="#717DDB"/>
<path d="M105.599 36.1585L104.294 35.5734L104.489 35.1383L105.794 35.7234L105.599 36.1585ZM103.423 35.1833L102.118 34.5982L102.313 34.1631L103.618 34.7482L103.423 35.1833ZM101.248 34.2081L99.9425 33.6229L100.138 33.1878L101.443 33.773L101.248 34.2081ZM99.0573 33.2328L97.7519 32.6477L97.947 32.2126L99.2523 32.7977L99.0573 33.2328ZM96.8817 32.2576L95.5764 31.6725L95.7715 31.2374L97.0768 31.8225L96.8817 32.2576ZM94.7062 31.2824L93.4009 30.6973L93.596 30.2621L94.9013 30.8473L94.7062 31.2824ZM92.5307 30.3072L91.2254 29.707L91.4204 29.2719L92.7258 29.8571L92.5307 30.3072ZM90.3552 29.3319L89.0499 28.7468L89.2449 28.3117L90.5502 28.8968L90.3552 29.3319ZM88.1647 28.3567L86.8594 27.7716L87.0544 27.3365L88.3597 27.9216L88.1647 28.3567Z" fill="#D67086"/>
<path d="M57.7219 36.3236L57.4668 35.9185L58.6671 35.1383L58.9221 35.5434L57.7219 36.3236ZM59.7323 35.0183L59.4773 34.6282L60.6776 33.848L60.9326 34.2381L59.7323 35.0183ZM61.7278 33.728L61.4727 33.3229L62.673 32.5427L62.9431 32.9478L61.7278 33.728ZM63.7233 32.4227L63.4682 32.0326L64.6685 31.2524L64.9236 31.6425L63.7233 32.4227ZM65.7338 31.1324L65.4637 30.7273L66.664 29.9471L66.934 30.3522L65.7338 31.1324ZM67.7292 29.8271L67.4742 29.437L68.6745 28.6568L68.9295 29.0469L67.7292 29.8271ZM69.7397 28.5368L69.4696 28.1317L70.6849 27.3515L70.94 27.7566L69.7397 28.5368Z" fill="#D67086"/>
<path d="M52.2008 56.8184L41.1582 51.8222V38.5441L52.2008 43.5403V56.8184Z" fill="#5D66D3"/>
<path d="M52.2002 56.8184L63.2428 51.8222V38.5441L52.2002 43.5403V56.8184Z" fill="#474EBB"/>
<path d="M41.1582 38.5441L52.2008 43.5403L63.2434 38.5441L52.2008 34.0131L41.1582 38.5441Z" fill="#717DDB"/>
<path d="M111.763 45.3257L100.721 40.3295V27.0514L111.763 32.0475V45.3257Z" fill="#373F8C"/>
<path d="M111.764 45.3257L122.806 40.3295V27.0513L111.764 32.0475V45.3257Z" fill="#333A7F"/>
<path d="M100.721 27.0514L111.763 32.0475L122.806 27.0514L111.763 22.5203L100.721 27.0514Z" fill="#3F4991"/>
<path d="M121.593 65.5505C121.278 65.8806 120.828 66.1656 120.362 66.1056C120.172 66.0856 119.987 66.0506 119.807 66.0006C119.672 65.9706 119.522 65.9406 119.402 65.8356C119.297 65.7455 119.222 65.5805 119.267 65.4455C119.342 65.2354 119.582 65.1904 119.762 65.0854C119.987 64.9503 120.122 64.6953 120.302 64.5002C120.693 64.0501 121.233 64.0051 121.743 63.7801C121.773 63.7651 122.043 64.0801 122.073 64.1101C122.253 64.3202 122.268 64.3652 122.163 64.6203C122.043 64.9503 121.848 65.2954 121.593 65.5505Z" fill="#F4C7B3"/>
<path d="M125.089 50.3069L129.455 56.9685L128.809 60.6593L122.043 65.3555L120.768 64.2452L125.284 58.5288L125.119 54.913L125.089 50.3069Z" fill="#8CABEF"/>
</svg>
