<svg width="154" height="104" viewBox="0 0 154 104" fill="none" xmlns="http://www.w3.org/2000/svg">
<path d="M24.1794 102.478C60.8266 102.447 97.4749 102.417 134.124 102.387C139.717 96.1236 151.837 80.6844 153.559 58.2884C153.998 52.5788 156.286 22.8011 137.66 9.99194C128.518 3.70406 117.796 3.89218 108.323 4.05242C91.5383 4.34504 90.5271 9.86305 74.1468 10.9116C54.3426 12.1831 49.4647 4.52271 34.6778 8.74481C23.1195 12.0473 15.923 19.6345 13.6916 22.0451C-1.38475 38.3379 -4.37282 64.9002 6.53694 84.3038C11.8541 93.7583 19.2981 99.4226 24.1794 102.478Z" fill="#D3F2FF"/>
<path fill-rule="evenodd" clip-rule="evenodd" d="M116.67 12.4339L116.673 12.4548C116.746 12.9111 116.774 13.3814 116.75 13.8448L115.843 13.7995C115.823 14.207 115.76 14.6077 115.655 14.9909L116.537 15.2243C116.419 15.6736 116.251 16.1126 116.039 16.5306L115.226 16.1195C115.042 16.4783 114.825 16.8197 114.571 17.1333L115.282 17.7011C114.989 18.0669 114.658 18.3978 114.299 18.6939L113.72 17.9867C113.41 18.241 113.072 18.464 112.712 18.6486L113.127 19.4568C112.712 19.6693 112.273 19.84 111.823 19.9619L111.586 19.0841C111.393 19.1375 111.196 19.1804 110.993 19.213C110.791 19.2455 110.591 19.2675 110.394 19.2791L110.446 20.1849C109.979 20.2127 109.508 20.1884 109.048 20.1187L109.187 19.2199C108.786 19.1572 108.396 19.0527 108.023 18.9099L107.695 19.7599C107.263 19.5962 106.841 19.3837 106.45 19.1294L106.945 18.363C106.604 18.147 106.29 17.8927 106.004 17.607L105.363 18.255C105.028 17.9275 104.731 17.5652 104.477 17.1751L105.241 16.6769C105.021 16.3425 104.833 15.9837 104.686 15.604L103.839 15.9314C103.672 15.4995 103.546 15.0466 103.473 14.5868L104.369 14.4404C104.369 14.4381 104.369 14.4358 104.369 14.4335C104.303 14.0294 104.282 13.6288 104.299 13.2351L103.393 13.1933C103.413 12.7265 103.487 12.2632 103.605 11.8103L104.487 12.0437C104.589 11.6501 104.735 11.2739 104.916 10.9151L104.1 10.504C104.313 10.0894 104.568 9.6958 104.857 9.33002L105.568 9.90133C105.819 9.58781 106.105 9.30215 106.419 9.04437L105.84 8.34069C106.203 8.04458 106.597 7.78679 107.012 7.5743L107.427 8.38249C107.779 8.20134 108.155 8.05155 108.553 7.94356L108.312 7.06918C108.759 6.94725 109.229 6.87061 109.693 6.84274L109.745 7.74848C110.153 7.72757 110.558 7.74847 110.948 7.8077L111.088 6.90893C111.548 6.9786 112.005 7.10053 112.44 7.26426L112.116 8.11773C112.496 8.26056 112.855 8.44171 113.194 8.66117L113.689 7.89479C114.079 8.1456 114.445 8.44171 114.777 8.76917L114.135 9.41363C114.421 9.6958 114.679 10.0093 114.902 10.3472L115.662 9.84908C115.92 10.2358 116.136 10.6538 116.304 11.0892L115.456 11.4202C115.599 11.7894 115.707 12.1761 115.774 12.5837L116.67 12.4339ZM113.051 13.0331C112.786 11.3923 111.234 10.2741 109.592 10.5388C107.95 10.8036 106.83 12.3503 107.095 13.9911C107.36 15.6318 108.908 16.7535 110.551 16.4888C112.193 16.224 113.316 14.6738 113.051 13.0331Z" fill="#7FADCE"/>
<path fill-rule="evenodd" clip-rule="evenodd" d="M19.9503 81.0501L19.9538 81.0675C20.0131 81.4473 20.0375 81.8374 20.0166 82.2206L19.2634 82.1858C19.246 82.5237 19.1937 82.8546 19.1065 83.1751L19.8387 83.3702C19.7411 83.7429 19.6017 84.1087 19.4238 84.4536L18.7509 84.1122C18.5975 84.4118 18.4162 84.694 18.207 84.9552L18.7962 85.429C18.5522 85.7321 18.2767 86.0073 17.9769 86.2511L17.4992 85.6659C17.2412 85.8749 16.9623 86.0595 16.6589 86.2163L17.0076 86.8886C16.6624 87.0628 16.2963 87.2056 15.9232 87.3066L15.7245 86.5786C15.5641 86.6227 15.4002 86.6575 15.2329 86.6831C15.0655 86.711 14.8993 86.7295 14.7343 86.7388L14.7761 87.4913C14.3891 87.5122 13.9986 87.4948 13.6151 87.4355L13.7336 86.6901C13.3989 86.6378 13.0746 86.5507 12.7643 86.4323L12.4924 87.1394C12.1297 87.0001 11.7811 86.8259 11.4568 86.6134L11.8682 85.9794C11.5858 85.7983 11.3243 85.5858 11.0837 85.3524L10.5503 85.8888C10.2748 85.6171 10.0308 85.314 9.81809 84.9901L10.4492 84.5755C10.2679 84.2968 10.1145 84.0007 9.99242 83.6837L9.28462 83.9589C9.14516 83.5966 9.04405 83.2204 8.98129 82.8372L9.72743 82.7188C9.72743 82.7164 9.72743 82.7141 9.72743 82.7118C9.67164 82.3774 9.65421 82.0429 9.67164 81.7155L8.91504 81.6807C8.93247 81.294 8.99523 80.9073 9.09286 80.5311L9.82506 80.7262C9.91222 80.3987 10.0308 80.0852 10.1807 79.7891L9.50429 79.4477C9.67862 79.1028 9.8913 78.7753 10.1354 78.4723L10.7246 78.946C10.9338 78.6848 11.1709 78.4479 11.4324 78.2354L10.9513 77.6467C11.2511 77.4028 11.5788 77.1868 11.924 77.0127L12.2692 77.685C12.5621 77.5317 12.8759 77.4098 13.2036 77.3192L13.0049 76.5911C13.378 76.4901 13.765 76.4274 14.152 76.4065L14.1938 77.159C14.5355 77.1381 14.8703 77.1555 15.198 77.2077L15.3096 76.4588C15.6931 76.518 16.0732 76.619 16.4358 76.7549L16.1673 77.462C16.4811 77.584 16.7809 77.7337 17.0634 77.9149L17.4713 77.2774C17.7991 77.4864 18.1024 77.7303 18.3778 78.002L17.8444 78.5419C18.0815 78.7753 18.2942 79.0366 18.479 79.3153L19.1135 78.9008C19.3262 79.2247 19.504 79.5731 19.647 79.9319L18.9427 80.2071C19.0612 80.5137 19.1519 80.8376 19.2042 81.1755L19.9503 81.0501ZM16.9413 81.5483C16.7217 80.1827 15.4351 79.2526 14.0683 79.4721C12.705 79.695 11.7741 80.9805 11.9938 82.346C12.2134 83.7081 13.5035 84.6382 14.8668 84.4188C16.2301 84.1993 17.1645 82.9104 16.9413 81.5483Z" fill="#7FADCE"/>
<path fill-rule="evenodd" clip-rule="evenodd" d="M145.244 69.8295L145.247 69.8469C145.327 70.3451 145.355 70.8502 145.331 71.3518L144.347 71.303C144.327 71.742 144.257 72.1739 144.145 72.592L145.097 72.8428C144.968 73.327 144.787 73.8043 144.56 74.2536L143.682 73.8077C143.483 74.1979 143.249 74.5637 142.974 74.9016L143.741 75.5182C143.427 75.9118 143.068 76.2706 142.677 76.5911L142.057 75.8282C141.722 76.0999 141.356 76.3403 140.965 76.5424L141.415 77.4167C140.969 77.6467 140.495 77.8278 140.007 77.9602L139.749 77.0126C139.539 77.0707 139.326 77.1171 139.107 77.152C138.891 77.1868 138.676 77.21 138.462 77.2217L138.518 78.2005C138.012 78.2284 137.507 78.204 137.008 78.1274L137.158 77.1589C136.726 77.0893 136.304 76.9778 135.899 76.821L135.547 77.7407C135.076 77.563 134.627 77.3331 134.201 77.0614L134.735 76.2358C134.369 75.9989 134.027 75.7237 133.717 75.4172L133.026 76.1174C132.667 75.762 132.346 75.3684 132.071 74.9504L132.894 74.4104C132.657 74.0481 132.454 73.6614 132.294 73.2539L131.381 73.6057C131.199 73.1389 131.067 72.6512 130.983 72.153L131.952 71.9928C131.952 71.9905 131.952 71.9881 131.952 71.9858C131.879 71.5504 131.858 71.1184 131.879 70.6934L130.899 70.6446C130.92 70.143 131.001 69.6414 131.13 69.1537L132.078 69.4045C132.193 68.983 132.346 68.5754 132.545 68.1887L131.663 67.7428C131.893 67.2969 132.165 66.8684 132.482 66.4748L133.249 67.0914C133.521 66.7535 133.828 66.4434 134.166 66.1648L133.542 65.4053C133.933 65.0848 134.358 64.8062 134.808 64.5762L135.258 65.4506C135.638 65.2555 136.046 65.0953 136.471 64.9768L136.213 64.0328C136.698 63.9004 137.203 63.8168 137.702 63.7889L137.761 64.7678C138.2 64.7434 138.636 64.7643 139.062 64.8305L139.212 63.8586C139.71 63.9353 140.202 64.0641 140.673 64.2453L140.324 65.165C140.732 65.3182 141.122 65.5168 141.488 65.7502L142.022 64.9246C142.444 65.1963 142.841 65.5133 143.197 65.8652L142.507 66.5654C142.813 66.8719 143.092 67.2098 143.333 67.5721L144.156 67.0322C144.431 67.4537 144.665 67.9065 144.846 68.3768L143.929 68.7322C144.086 69.1293 144.205 69.5508 144.274 69.9897L145.244 69.8295ZM141.331 70.4774C141.046 68.7043 139.372 67.4955 137.597 67.7811C135.823 68.0668 134.613 69.7424 134.899 71.5121C135.185 73.2852 136.862 74.494 138.633 74.2084C140.408 73.9227 141.617 72.2471 141.331 70.4774Z" fill="#7FADCE"/>
<g filter="url(#filter0_d_374_7877)">
<path d="M32.5336 4.32068H58.2721C58.8823 4.32068 59.3809 4.81535 59.3809 5.42846V20.6204C59.3809 21.2335 58.8823 21.7282 58.2721 21.7282H32.5336C31.9199 21.7282 31.4248 21.2335 31.4248 20.6204V5.42846C31.4248 4.81535 31.9199 4.32068 32.5336 4.32068Z" fill="white"/>
</g>
<g opacity="0.5">
<path d="M34.8346 7.47332H34.0605V6.92989H34.8346V7.47332Z" fill="#294A9F"/>
<path d="M40.6962 7.47328H36.8574V6.92984H40.6962V7.47328Z" fill="#294A9F"/>
<path d="M34.8346 9.29172H34.0605V8.7448H34.8346V9.29172Z" fill="#294A9F"/>
<path d="M46.8968 9.29169H38.3057V8.74477H46.8968V9.29169Z" fill="#294A9F"/>
<path d="M49.3048 9.29172H47.7881V8.7448H49.3048V9.29172Z" fill="#294A9F"/>
<path d="M53.0083 9.29169H51.4951V8.74477H53.0083V9.29169Z" fill="#294A9F"/>
<path d="M56.9439 9.29172H53.6455V8.7448H56.9439V9.29172Z" fill="#294A9F"/>
<path d="M50.6543 9.29172H50.2812V8.7448H50.6543V9.29172Z" fill="#294A9F"/>
<path d="M34.8346 12.9216H34.0605V12.3747H34.8346V12.9216Z" fill="#294A9F"/>
<path d="M34.8346 12.9216H34.0605V12.3747H34.8346V12.9216Z" fill="#294A9F"/>
<path d="M45.8041 12.9216H43.0322V12.3747H45.8041V12.9216Z" fill="#294A9F"/>
<path d="M34.8346 14.7366H34.0605V14.1931H34.8346V14.7366Z" fill="#294A9F"/>
<path d="M38.7786 14.7366H36.8574V14.1931H38.7786V14.7366Z" fill="#294A9F"/>
<path d="M42.2582 14.7366H39.7373V14.1931H42.2582V14.7366Z" fill="#294A9F"/>
<path d="M43.4995 14.7366H42.9033V14.1931H43.4995V14.7366Z" fill="#294A9F"/>
<path d="M51.0826 14.7366H44.2871V14.1931H51.0826V14.7366Z" fill="#294A9F"/>
<path d="M34.8346 18.3699H34.0605V17.823H34.8346V18.3699Z" fill="#294A9F"/>
<path d="M44.9885 18.3699H42.499V17.823H44.9885V18.3699Z" fill="#294A9F"/>
<path d="M46.896 18.3699H45.8047V17.823H46.896V18.3699Z" fill="#294A9F"/>
<path d="M34.8346 20.1849H34.0605V19.6415H34.8346V20.1849Z" fill="#294A9F"/>
<path d="M34.8346 20.1849H34.0605V19.6415H34.8346V20.1849Z" fill="#294A9F"/>
</g>
<path d="M55.3574 35.5893C55.3574 34.4885 54.5137 33.5967 53.4781 33.5967H9.18009C8.14107 33.5967 7.30078 34.4885 7.30078 35.5893V38.7942H55.3574V35.5893Z" fill="#61616B"/>
<path d="M21.5543 38.7942H7.30078V69.1746C7.30078 71.0244 8.80004 72.5223 10.6515 72.5223H52.0033C53.8547 72.5223 55.3574 71.0244 55.3574 69.1746V68.9168V38.7942H21.5543Z" fill="white"/>
<path fill-rule="evenodd" clip-rule="evenodd" d="M37.0212 42.877V51.4884C37.0212 51.5059 37.0351 51.5163 37.0491 51.5163H51.2816C51.2956 51.5163 51.306 51.5059 51.306 51.4884V42.877C51.306 42.8596 51.2956 42.8492 51.2816 42.8492H37.0491C37.0351 42.8492 37.0212 42.8596 37.0212 42.877ZM27.8443 66.123H34.9327C34.9466 66.123 34.9606 66.1091 34.9606 66.0951V42.877C34.9606 42.8596 34.9466 42.8492 34.9327 42.8492H27.8443C27.8269 42.8492 27.8164 42.8596 27.8164 42.877V66.0951C27.8164 66.1091 27.8269 66.123 27.8443 66.123ZM37.0491 66.123H51.2816C51.2956 66.123 51.306 66.1091 51.306 66.0951V53.4985C51.306 53.4845 51.2956 53.4706 51.2816 53.4706H37.0491C37.0351 53.4706 37.0212 53.4845 37.0212 53.4985V66.0951C37.0212 66.1091 37.0351 66.123 37.0491 66.123Z" fill="#E7E7E8"/>
<path d="M10.885 66.123H25.5325C25.5674 66.123 25.5953 66.0951 25.5953 66.0568V42.8422C25.5953 42.8074 25.5674 42.7795 25.5325 42.7795H10.885C10.8502 42.7795 10.8223 42.8074 10.8223 42.8422V66.0568C10.8223 66.0951 10.8502 66.123 10.885 66.123Z" fill="#E0E1F5"/>
<path d="M146.578 19.0214C146.578 17.8858 145.626 16.9696 144.455 16.9696H94.449C93.2775 16.9696 92.3291 17.8858 92.3291 19.0214V22.3204H146.578V19.0214Z" fill="#61616B"/>
<path d="M146.578 22.3204V53.2024C146.578 54.7561 145.253 56.0136 143.618 56.0136H95.2858C93.654 56.0136 92.3291 54.7561 92.3291 53.2024V22.3204H146.578Z" fill="white"/>
<path d="M112.618 26.5495H104.976V24.9958H112.618V26.5495Z" fill="#FFE074"/>
<path fill-rule="evenodd" clip-rule="evenodd" d="M119.336 24.9958H114.755V26.5495H119.336V24.9958ZM140.204 24.9958H134.967V26.5495H140.204V24.9958ZM122.666 24.9958H121.282V26.5529H122.666V24.9958ZM133.869 24.9958H123.827V26.5495H133.869V24.9958Z" fill="white"/>
<path d="M112.618 48.1407H104.976V46.587H112.618V48.1407Z" fill="#FFE074"/>
<path fill-rule="evenodd" clip-rule="evenodd" d="M108.417 51.2237H104.976V49.67H108.417V51.2237ZM112.479 51.2237H109.038V49.67H112.479V51.2237Z" fill="white"/>
<path fill-rule="evenodd" clip-rule="evenodd" d="M119.336 46.587H114.755V48.1407H119.336V46.587ZM122.666 46.587H121.282V48.1407H122.666V46.587ZM133.869 46.587H123.827V48.1407H133.869V46.587Z" fill="#61616B"/>
<path fill-rule="evenodd" clip-rule="evenodd" d="M128.496 29.6359H120.515V28.0822H128.496V29.6359ZM131.714 29.6359H129.587V28.0788H131.714V29.6359Z" fill="#61616B"/>
<path d="M119.337 29.6359H107.649V28.0822H119.337V29.6359Z" fill="#FFE074"/>
<path fill-rule="evenodd" clip-rule="evenodd" d="M131.631 41.9713H123.65V40.4176H131.631V41.9713ZM137.259 41.9713H132.723V40.4176H137.259V41.9713Z" fill="#61616B"/>
<path d="M122.374 41.9713H107.649V40.4176H122.374V41.9713Z" fill="#FFE074"/>
<path fill-rule="evenodd" clip-rule="evenodd" d="M128.496 35.8019H120.515V34.2482H128.496V35.8019ZM119.337 35.8019H114.508V34.2482H119.337V35.8019Z" fill="#61616B"/>
<path fill-rule="evenodd" clip-rule="evenodd" d="M100.631 26.5495H97.8936V24.9958H100.631V26.5495ZM100.631 29.6359H97.8936V28.0787H100.631V29.6359ZM100.631 32.7224H97.8936V31.1687H100.631V32.7224ZM100.631 35.8053H97.8936V34.2517H100.631V35.8053ZM100.631 38.8883H97.8936V37.3346H100.631V38.8883ZM100.631 41.9748H97.8936V40.4176H100.631V41.9748ZM100.631 45.0612H97.8936V43.5076H100.631V45.0612ZM100.631 48.1442H97.8936V46.5905H100.631V48.1442ZM100.631 51.2272H97.8936V49.6735H100.631V51.2272Z" fill="#61616B"/>
<path d="M113.493 31.1652H110.756V32.7189H113.493V31.1652Z" fill="#FFE074"/>
<path d="M115.875 31.1652H114.508V32.7189H115.875V31.1652Z" fill="#FFE074"/>
<path d="M121.638 37.3347H117.956V38.8883H121.638V37.3347Z" fill="#61616B"/>
<path d="M123.266 31.1652H117.046V32.7189H123.266V31.1652Z" fill="#61616B"/>
<path d="M113.493 43.5006H110.756V45.0543H113.493V43.5006Z" fill="#FFE074"/>
<path fill-rule="evenodd" clip-rule="evenodd" d="M96.5475 19.6833C96.1744 19.6833 95.8711 19.3803 95.8711 19.0075C95.8711 18.6348 96.1744 18.3317 96.5475 18.3317C96.9206 18.3317 97.2239 18.6348 97.2239 19.0075C97.2239 19.3803 96.9206 19.6833 96.5475 19.6833ZM96.5475 18.5895C96.3174 18.5895 96.1326 18.7776 96.1326 19.0075C96.1326 19.2374 96.3174 19.4221 96.5475 19.4221C96.7776 19.4221 96.9624 19.2374 96.9624 19.0075C96.9624 18.7776 96.7776 18.5895 96.5475 18.5895Z" fill="white"/>
<path fill-rule="evenodd" clip-rule="evenodd" d="M98.5807 19.6834C98.2076 19.6834 97.9043 19.3803 97.9043 19.0075C97.9043 18.6348 98.2076 18.3317 98.5807 18.3317C98.9538 18.3317 99.2606 18.6348 99.2606 19.0075C99.2606 19.3803 98.9538 19.6834 98.5807 19.6834ZM98.5807 18.5895C98.3506 18.5895 98.1658 18.7776 98.1658 19.0075C98.1658 19.2375 98.3506 19.4221 98.5807 19.4221C98.8108 19.4221 98.9991 19.2375 98.9991 19.0075C98.9991 18.7776 98.8108 18.5895 98.5807 18.5895Z" fill="white"/>
<path fill-rule="evenodd" clip-rule="evenodd" d="M100.613 19.6833C100.24 19.6833 99.9365 19.3803 99.9365 19.0075C99.9365 18.6348 100.24 18.3317 100.613 18.3317C100.989 18.3317 101.293 18.6348 101.293 19.0075C101.293 19.3803 100.989 19.6833 100.613 19.6833ZM100.613 18.5895C100.386 18.5895 100.198 18.7776 100.198 19.0075C100.198 19.2374 100.386 19.4221 100.613 19.4221C100.843 19.4221 101.031 19.2374 101.031 19.0075C101.031 18.7776 100.843 18.5895 100.613 18.5895Z" fill="white"/>
<path d="M72.4826 94.023L72.9533 101.485C72.9533 101.485 49.8367 101.725 47.1311 101.485C44.4289 101.244 38.8398 101.649 39.7777 95.4687C40.2101 92.6087 45.4331 69.2303 47.8912 65.3775C49.638 62.6463 56.6985 60.1556 61.4508 58.9398C61.6007 58.9015 61.7507 58.8631 61.9006 58.8283C63.6335 58.3998 65.0037 58.156 65.5965 58.156C67.8105 58.156 75.5613 55.9683 78.5111 56.449C78.7586 56.4908 79.0759 56.5535 79.4559 56.6337C79.6233 56.672 79.8081 56.7138 79.9999 56.7556C84.4802 57.7902 94.7624 60.8279 95.8432 62.7299C97.074 64.8967 105.188 92.8177 105.188 92.8177L72.4826 94.023Z" fill="#468AF8"/>
<path d="M57.623 79.4372V79.0192L85.6209 78.9774V79.3954L57.623 79.4372Z" fill="white"/>
<path d="M84.9956 81.8897V82.3077H56.7676L56.8303 81.8897H84.9956Z" fill="white"/>
<path d="M84.3725 84.802V85.2165H56.3223L56.3885 84.802H84.3725Z" fill="white"/>
<path opacity="0.9" d="M60.2404 89.1564H55.7217L56.3214 85.2165L56.3876 84.8019L56.7677 82.3077L56.8304 81.8896L58.0717 73.7694C57.7126 77.1729 57.6115 79.8239 57.6742 81.8896C57.6789 82.0313 57.6835 82.1707 57.6882 82.3077C57.73 83.2657 57.8067 84.0913 57.9113 84.8019C57.9322 84.9448 57.9531 85.0841 57.9775 85.2165C58.6017 88.8568 59.9405 89.1425 60.2404 89.1564Z" fill="#182051"/>
<path opacity="0.9" d="M60.304 89.1564C60.304 89.1564 60.2831 89.1599 60.2412 89.1564H60.304Z" fill="#182051"/>
<path d="M79.8183 62.2806C78.6224 64.4195 76.1364 65.9035 73.3331 66.1578C73.0193 66.1891 72.6985 66.2031 72.3743 66.2031C70.352 66.2031 68.1519 65.6457 65.8228 64.5414C64.6966 64.0119 63.2845 63.2385 62.3501 61.9879C61.6563 61.0508 61.3425 59.9465 61.4505 58.9398C61.6005 58.9015 61.7504 58.8632 61.9003 58.8283C61.7399 59.8699 62.1304 60.9707 62.6953 61.7301C63.5704 62.9076 64.9233 63.6461 66.0076 64.1582C68.6366 65.4018 71.0877 65.9313 73.2947 65.7328C75.9585 65.4924 78.3155 64.0885 79.4452 62.0681C80.404 60.3611 80.3517 58.2013 79.4557 56.6337C79.623 56.672 79.8078 56.7138 79.9996 56.7556C80.7945 58.4138 80.7841 60.5597 79.8183 62.2806Z" fill="white"/>
<path d="M51.193 91.5148L51.0117 91.3999C52.0229 89.7974 53.9719 88.8116 55.8686 88.9544L55.8512 89.1704C54.0381 89.0345 52.1623 89.9751 51.193 91.5148Z" fill="#182051"/>
<path d="M49.9947 88.1393L49.9912 87.9233L54.3426 87.8884L54.3461 88.1044L49.9947 88.1393Z" fill="#182051"/>
<path d="M58.0832 71.2891C57.8287 68.9272 56.0714 66.7639 53.8086 66.0324L53.8748 65.8303C56.2144 66.5863 58.0344 68.8227 58.2959 71.2682L58.0832 71.2891Z" fill="#182051"/>
<path d="M90.7771 68.443L90.5645 68.4256C90.7214 66.4748 92.0254 64.6285 93.814 63.8307L93.9012 64.0293C92.1857 64.7957 90.9305 66.5688 90.7771 68.443Z" fill="#182051"/>
<path d="M82.8596 29.3398C82.9293 30.5486 82.1971 31.7679 81.0919 32.273C81.2767 32.1894 81.7369 33.4713 81.7683 33.6072C81.8938 34.1402 81.8903 34.7045 81.7578 35.234C81.4963 36.2826 80.6003 37.2998 79.4671 37.3764C78.1143 37.467 77.5913 36.2164 76.622 35.5301C75.5864 34.7986 74.3731 34.3178 73.1109 34.1541C71.2944 33.9172 69.3976 34.3527 67.8635 35.3525C66.8942 35.983 66.0783 36.8225 65.1578 37.5332C64.5058 38.0383 62.6962 39.3098 61.849 38.749C61.3957 38.4459 61.0331 37.5854 60.8065 37.1082C60.6356 36.7529 60.4927 36.3801 60.3741 36.0004C60.3021 35.7728 60.2416 35.5417 60.1928 35.3072C60.0394 34.5965 59.9836 33.8685 60.029 33.1474C60.0638 32.6213 60.1545 32.0779 60.4508 31.6425C60.7472 31.207 61.2946 30.9074 61.8037 31.0293C61.7758 29.183 62.8183 27.3611 64.4187 26.4449C66.0225 25.5253 68.1215 25.5531 69.7009 26.5076C69.6626 25.0341 70.5238 23.6302 71.7232 22.7732C72.9261 21.9198 74.4254 21.561 75.8967 21.5157C77.3577 21.4704 78.9057 21.7491 80.0075 22.7036C80.6526 23.2609 81.0814 24.0935 81.1651 24.9296C81.2244 25.5288 81.1093 26.1314 80.7641 26.6331C81.9182 27.0058 82.7899 28.131 82.8596 29.3398Z" fill="#1C1E33"/>
<path opacity="0.1" d="M81.1651 24.9296C81.0326 24.7659 80.8687 24.6265 80.6735 24.515C80.0668 24.1771 79.3102 23.9402 78.6163 23.9298C77.1136 23.9089 75.6039 24.1353 74.1848 24.6265C72.7622 25.1177 71.4547 26.1732 71.0468 27.6189C69.2512 27.2148 67.3126 27.0894 65.6216 27.821C63.9305 28.549 62.5916 30.3117 62.8253 32.1336C61.2981 32.7258 60.2905 34.384 60.3741 36.0004C60.3021 35.7728 60.2416 35.5417 60.1928 35.3072C60.0394 34.5965 59.9836 33.8685 60.029 33.1474C60.0638 32.6213 60.1545 32.0779 60.4508 31.6425C60.7472 31.207 61.2946 30.9074 61.8037 31.0293C61.7758 29.183 62.8183 27.3611 64.4187 26.4449C66.0225 25.5253 68.1215 25.5531 69.7009 26.5076C69.6626 25.0341 70.5238 23.6302 71.7232 22.7732C72.9261 21.9198 74.4254 21.561 75.8967 21.5157C77.3577 21.4704 78.9057 21.7491 80.0075 22.7036C80.6526 23.2609 81.0814 24.0935 81.1651 24.9296Z" fill="white"/>
<path fill-rule="evenodd" clip-rule="evenodd" d="M63.1042 35.1609C63.0798 35.1644 63.0554 35.147 63.0484 35.1226C63.0449 35.0982 63.0588 35.0738 63.0867 35.0668C64.199 34.823 65.102 33.8267 65.2345 32.698C65.2368 32.6701 65.2392 32.6423 65.2415 32.6144C65.0846 32.6214 64.9451 32.6144 64.8231 32.583C64.5581 32.5169 64.4012 32.3496 64.3698 32.0988C64.3559 31.9839 64.4151 31.8794 64.5337 31.8167C64.6906 31.7365 64.9521 31.733 65.109 31.8724C65.2624 32.0083 65.3426 32.2277 65.3426 32.5099C66.0574 32.4333 67.0301 31.9874 67.588 31.4718C67.466 31.4265 67.3474 31.3673 67.2428 31.2906C66.9709 31.0921 66.807 30.8273 66.7965 30.5556C66.7861 30.2665 67.0023 29.9355 67.3265 29.9216C67.6229 29.9076 67.8565 30.162 67.9332 30.4197C68.0238 30.7158 68.0831 31.0189 67.9262 31.2384C67.8821 31.3011 67.8298 31.3638 67.7693 31.4265C68.1563 31.5206 68.5852 31.4578 68.9164 31.2314C69.3906 30.9074 69.6277 30.2734 69.4848 29.7161C69.4778 29.6917 69.4917 29.6673 69.5196 29.6603C69.5405 29.6533 69.5684 29.6673 69.5754 29.6952C69.7323 30.2874 69.4778 30.9667 68.9722 31.3115C68.6026 31.5624 68.118 31.6251 67.6926 31.5066C67.1208 32.0501 66.0922 32.5238 65.3391 32.6039C65.3368 32.6388 65.3333 32.6736 65.3287 32.7085C65.1927 33.8789 64.2582 34.9101 63.1076 35.1609C63.1053 35.1609 63.1042 35.1609 63.1042 35.1609ZM64.708 31.8619C64.6592 31.8689 64.6139 31.8828 64.579 31.9037C64.5197 31.9351 64.4535 31.9908 64.4674 32.0884C64.4919 32.2974 64.6209 32.4333 64.8475 32.4925C64.9626 32.5203 65.095 32.5273 65.245 32.5203C65.245 32.3113 65.2031 32.0849 65.0427 31.9421C64.9591 31.8654 64.8231 31.8445 64.708 31.8619ZM67.2916 30.0226C67.0511 30.0574 66.8872 30.3222 66.8942 30.5521C66.9011 30.7925 67.0511 31.0328 67.2986 31.2105C67.4102 31.2941 67.5322 31.3533 67.6647 31.3986C67.7344 31.3266 67.796 31.2546 67.8495 31.1826C67.982 30.9945 67.9227 30.7193 67.8425 30.4476C67.7763 30.2316 67.5741 30.0087 67.33 30.0156C67.316 30.018 67.3033 30.0203 67.2916 30.0226Z" fill="black"/>
<path fill-rule="evenodd" clip-rule="evenodd" d="M76.1577 31.207C76.0148 31.2314 75.8648 31.2418 75.7114 31.2348C75.2303 31.2139 74.7944 31.0049 74.5399 30.681C73.6403 30.6426 72.7617 30.0957 72.3328 29.3015C72.3224 29.2771 72.3293 29.2492 72.3538 29.2353C72.3782 29.2248 72.4061 29.2318 72.42 29.2562C72.8175 29.9982 73.6299 30.5172 74.4702 30.5799C74.1982 30.141 74.2854 29.5349 74.6654 29.2562C74.8711 29.1029 75.1605 29.075 75.4255 29.1795C75.6591 29.2701 75.816 29.4478 75.8578 29.6638C75.9101 29.9529 75.7602 30.2734 75.4848 30.465C75.2721 30.6078 75.0001 30.681 74.6689 30.6844C74.9095 30.9492 75.293 31.1199 75.7149 31.1373C76.2135 31.1582 76.6946 30.9875 77.0573 30.8342C77.2874 30.7367 77.521 30.6252 77.7128 30.465C77.6012 30.4092 77.5001 30.343 77.4059 30.2629C77.2002 30.0922 77.0608 29.831 77.0468 29.601C77.0363 29.4478 77.0817 29.3119 77.1793 29.2074C77.2839 29.0959 77.4443 29.0437 77.6186 29.0646C77.8243 29.089 78.0091 29.2109 78.0998 29.3816C78.2811 29.716 78.1521 30.1166 77.9464 30.3674C77.9254 30.3907 77.9045 30.4127 77.8836 30.4336C78.1312 30.5277 78.4136 30.5625 78.696 30.5242C79.1527 30.465 79.5607 30.2351 79.8013 29.8902C80.0418 29.5453 80.122 29.089 80.0209 28.6361C79.9198 28.1832 79.6548 27.8035 79.2922 27.5945C79.2678 27.5806 79.2608 27.5527 79.2713 27.5283C79.2852 27.5074 79.3166 27.497 79.3375 27.5109C79.7246 27.7338 80.0105 28.1379 80.1151 28.6152C80.2232 29.0959 80.136 29.5801 79.8815 29.9459C79.6234 30.3117 79.1946 30.5555 78.7099 30.6182C78.3927 30.6601 78.0823 30.6217 77.8104 30.5068C77.6012 30.6949 77.3467 30.8168 77.0956 30.9248C76.8306 31.0328 76.5064 31.1547 76.1577 31.207ZM77.4722 29.1621C77.385 29.1726 77.3048 29.2144 77.249 29.2736C77.1723 29.3572 77.134 29.4652 77.1409 29.5941C77.1549 29.7996 77.2839 30.033 77.4687 30.1898C77.5628 30.2734 77.6709 30.3396 77.7895 30.3953C77.8173 30.3674 77.8441 30.3372 77.8697 30.3047C78.051 30.0887 78.1765 29.7195 78.0161 29.4269C77.9394 29.2875 77.779 29.183 77.6082 29.1586C77.5593 29.154 77.514 29.1551 77.4722 29.1621ZM74.5887 30.5869C74.6003 30.5869 74.6108 30.5869 74.6201 30.5869C74.9548 30.5904 75.2268 30.5242 75.429 30.3849C75.6765 30.2176 75.809 29.9355 75.7637 29.6847C75.7288 29.5 75.5929 29.3467 75.3906 29.2666C75.1605 29.176 74.899 29.2039 74.7212 29.3328C74.3795 29.5836 74.3028 30.134 74.5538 30.5346C74.5655 30.5532 74.5771 30.5706 74.5887 30.5869Z" fill="black"/>
<path d="M82.1691 39.9194C81.9425 40.6475 81.5171 41.4069 80.8163 42.0758C80.8163 42.0758 80.8128 42.2569 80.7919 42.5705C80.7012 44.145 80.234 49.0395 78.0479 50.6733L78.2327 58.2327C78.2327 58.2327 78.8742 62.4164 73.9859 63.5521C69.0976 64.6912 66.1618 62.73 63.7246 59.8351L63.9129 44.8627C63.9129 44.8627 61.4374 45.2424 60.2973 42.8875C59.1571 40.5326 60.1404 38.0453 61.9988 38.735L61.9325 38.2961C61.8314 37.6516 61.7338 37.0246 61.7338 37.0246C61.7338 37.0246 63.9199 36.7912 65.2762 35.6207C65.8027 35.1678 66.2037 34.5721 66.3013 33.7953C66.3013 33.7953 70.3284 33.3738 70.6526 30.4023C70.6526 30.4023 76.1372 34.4258 79.8574 30.7437C79.8574 30.7437 80.4397 32.0152 80.5129 33.757C80.5687 35.1156 80.628 37.0455 80.628 37.0455C80.628 37.0455 81.9006 36.4637 82.2388 37.3834C82.4376 37.9233 82.4968 38.8883 82.1691 39.9194Z" fill="#FF9E79"/>
<path opacity="0.6" d="M68.3438 49.6317C68.3438 49.6317 73.755 54.4425 78.0471 50.6733L78.1099 53.286C78.1099 53.286 73.2007 55.8917 68.3438 49.6317Z" fill="#602929"/>
<path d="M65.2102 40.2155C64.9382 40.3201 64.4919 40.4315 64.2234 40.5326C63.3134 39.7 62.6579 39.2158 61.9989 38.735C61.8978 38.0906 61.7061 36.833 61.7061 36.833C61.7061 36.833 63.9201 36.7912 65.2764 35.6207C64.7464 37.1256 64.5895 38.6584 65.2102 40.2155Z" fill="#4D5060"/>
<path d="M67.6964 36.8643C67.6964 36.8643 70.9459 34.8578 72.7241 35.6172C73.6098 35.9934 73.1704 36.7633 72.7485 36.833C72.3232 36.8992 70.9215 36.8643 70.2556 37.0594C69.5896 37.2545 68.0729 37.5889 67.8881 37.5297C67.7068 37.474 67.3965 37.1744 67.6964 36.8643Z" fill="#1C1E33"/>
<path d="M75.8197 36.3104C75.6035 36.3209 75.3385 36.3069 75.2304 36.1188C75.1049 35.8994 75.2967 35.6311 75.5024 35.4848C75.987 35.1365 76.6077 35.0076 77.2039 35.0389C77.8001 35.0703 78.3789 35.2514 78.9333 35.4709C79.1599 35.5614 79.4249 35.7321 79.3796 35.969C79.3307 36.2094 79.0204 36.2651 78.7764 36.2686C77.7862 36.2826 76.8134 36.2512 75.8197 36.3104Z" fill="#1C1E33"/>
<path opacity="0.6" d="M74.3515 42.4798C74.3062 42.4868 74.2573 42.4589 74.2434 42.4102C74.2329 42.3579 74.2608 42.3057 74.3131 42.2917C74.9163 42.1315 75.4672 41.811 75.903 41.3581C75.9274 41.3338 75.9309 41.2954 75.917 41.2641C75.394 40.1075 75.0209 38.8848 74.8082 37.6342C74.7978 37.5784 74.8361 37.5297 74.8884 37.5227C74.9477 37.5157 74.9895 37.5471 74.9965 37.5993C75.2057 38.836 75.5753 40.0413 76.0913 41.184C76.1401 41.2885 76.1192 41.4104 76.0425 41.494C75.5823 41.9678 75 42.3092 74.3619 42.4764C74.3596 42.4787 74.3561 42.4798 74.3515 42.4798Z" fill="#602929"/>
<path opacity="0.3" d="M71.4473 42.0653C71.4752 43.0198 70.4187 43.8245 69.0903 43.8594C67.7619 43.8942 66.6636 43.1487 66.6392 42.1942C66.6113 41.2397 67.6678 40.435 68.9962 40.4002C70.3246 40.3653 71.4229 41.1108 71.4473 42.0653Z" fill="#CC4C46"/>
<path opacity="0.3" d="M80.8157 42.0758C80.8227 42.2012 80.8123 42.2569 80.7913 42.5705C80.7448 42.5937 80.696 42.6146 80.6449 42.6332C79.3932 43.1313 78.0927 42.8143 77.7405 41.926C77.3849 41.0377 78.1136 39.916 79.3688 39.4178C79.7628 39.261 80.1637 39.1844 80.5368 39.1809C80.5368 39.1809 80.7878 41.3512 80.8157 42.0758Z" fill="#CC4C46"/>
<path opacity="0.6" d="M62.797 41.7204C62.7552 41.7274 62.7133 41.7065 62.6959 41.6647C62.4553 41.1143 62.0892 40.6196 61.636 40.2294C61.3954 40.0204 61.2001 39.9368 61.0223 39.9577C61.02 39.96 61.0177 39.9612 61.0153 39.9612C60.8724 39.9821 60.7294 40.0831 60.6283 40.2399C60.5342 40.3897 60.4784 40.5673 60.4296 40.752C60.4156 40.8042 60.3633 40.8356 60.311 40.8216C60.2587 40.8077 60.2308 40.7555 60.2448 40.7032C60.2971 40.5012 60.3564 40.3096 60.4679 40.1354C60.6004 39.9298 60.7922 39.794 60.9979 39.7696C61.3082 39.7278 61.5837 39.9264 61.7615 40.0831C62.2392 40.4907 62.6227 41.0132 62.8702 41.588C62.8946 41.6368 62.8702 41.6925 62.8214 41.7134C62.8145 41.7181 62.8063 41.7204 62.797 41.7204Z" fill="#602929"/>
<path opacity="0.6" d="M61.3533 42.5286C61.3184 42.5356 61.2801 42.5216 61.2591 42.4868C60.7954 41.7726 60.7989 40.7729 61.2626 40.0587C61.2905 40.0134 61.3498 39.9995 61.3951 40.0309C61.4404 40.0587 61.4509 40.1179 61.423 40.1632C61.0011 40.8147 60.9976 41.7274 61.4195 42.3823C61.4474 42.4276 61.437 42.4868 61.3916 42.5147C61.38 42.5239 61.3672 42.5286 61.3533 42.5286Z" fill="#602929"/>
<path d="M71.852 39.5154C71.9043 40.2051 71.6428 40.7834 71.2732 40.8112C70.9001 40.8391 70.5584 40.3026 70.5096 39.6129C70.4573 38.9266 70.7188 38.3449 71.0884 38.317C71.4614 38.2926 71.8031 38.8256 71.852 39.5154Z" fill="#1C1E33"/>
<path d="M71.6111 39.2053C71.6285 39.3133 71.6006 39.4039 71.5448 39.4109C71.4925 39.4178 71.4368 39.3412 71.4228 39.2367C71.4054 39.1322 71.4368 39.0381 71.4891 39.0312C71.5414 39.0242 71.5971 39.1008 71.6111 39.2053Z" fill="white"/>
<path d="M71.5237 39.9021C71.5656 40.1633 71.4679 40.3967 71.311 40.4211C71.1541 40.4455 70.9938 40.2504 70.9519 39.9892C70.9136 39.7279 71.0077 39.4945 71.1646 39.4701C71.325 39.4457 71.4854 39.6373 71.5237 39.9021Z" fill="black"/>
<path d="M77.9391 38.5818C77.9914 39.2715 77.7299 39.8498 77.3603 39.8776C76.9907 39.9055 76.649 39.369 76.5967 38.6828C76.5479 37.993 76.8059 37.4113 77.1755 37.3834C77.5486 37.359 77.8903 37.8955 77.9391 38.5818Z" fill="#1C1E33"/>
<path d="M77.7295 38.4633C77.747 38.5678 77.7156 38.6619 77.6633 38.6688C77.611 38.6758 77.5552 38.5992 77.5378 38.4946C77.5238 38.3867 77.5517 38.2961 77.604 38.2891C77.6563 38.2787 77.7121 38.3588 77.7295 38.4633Z" fill="white"/>
<path d="M77.6115 38.9684C77.6533 39.2297 77.5592 39.4631 77.3988 39.4875C77.2419 39.5119 77.0815 39.3168 77.0431 39.0555C77.0013 38.7942 77.0954 38.5608 77.2558 38.5365C77.4127 38.5121 77.5731 38.7071 77.6115 38.9684Z" fill="black"/>
<path opacity="0.6" d="M81.8662 37.6829C81.3537 37.6829 80.9039 38.1358 80.9004 38.6444C80.9004 38.6967 80.9422 38.7419 80.9945 38.7419C80.9992 38.7419 81.005 38.7419 81.012 38.7419C81.0573 38.735 81.0922 38.6932 81.0922 38.6444C81.0922 38.4249 81.2072 38.2159 81.3746 38.0696C81.7337 38.5852 81.8104 39.2889 81.5663 39.8671C81.5454 39.9159 81.5698 39.9751 81.6186 39.9926C81.6349 39.9995 81.6512 40.0018 81.6675 39.9995C81.7023 39.996 81.7302 39.9751 81.7442 39.9438C82.0126 39.3063 81.929 38.5294 81.535 37.9616C81.6361 37.9094 81.7511 37.8745 81.8662 37.8745C81.922 37.8745 81.9638 37.8327 81.9603 37.777C81.9603 37.7247 81.9185 37.6829 81.8662 37.6829Z" fill="#602929"/>
<path fill-rule="evenodd" clip-rule="evenodd" d="M81.6317 38.5469C81.7712 39.4491 80.5439 40.3618 78.8389 40.6231C77.1374 40.8844 75.6905 40.3827 75.5545 39.477C75.5475 39.4387 75.5475 39.4004 75.5475 39.3621C75.279 39.2123 74.9478 39.1565 74.6445 39.2157C74.3237 39.2785 74.0238 39.477 73.8356 39.7487C73.9646 40.651 72.6989 41.5672 70.9451 41.8354C69.1844 42.1036 67.699 41.609 67.5596 40.7032C67.5212 40.442 67.6014 40.1807 67.7723 39.9334L62.0576 38.7176L62.096 38.533L67.9013 39.7731C68.3789 39.2332 69.3099 38.7838 70.45 38.6096C72.0643 38.3623 73.4451 38.7629 73.7693 39.5293C73.9855 39.275 74.2819 39.0973 74.6096 39.0311C74.9304 38.9684 75.2686 39.0137 75.5615 39.16C75.7114 38.3692 76.8411 37.6307 78.3473 37.4008C80.0523 37.1395 81.4958 37.6447 81.6317 38.5469ZM73.6508 39.7696C73.5287 38.9823 72.1062 38.5434 70.4779 38.7942C68.8496 39.0451 67.6258 39.8881 67.7444 40.6754C67.8664 41.4627 69.289 41.9016 70.9172 41.6508C72.5455 41.4 73.7693 40.5569 73.6508 39.7696ZM81.4504 38.5748C81.3319 37.7875 79.9512 37.3416 78.3752 37.5819C76.9247 37.8049 75.8125 38.5295 75.7323 39.2575C75.7323 39.2575 75.7335 39.2575 75.7358 39.2575H75.7323C75.7253 39.3237 75.7253 39.3864 75.7358 39.4491C75.8543 40.2399 77.2351 40.6858 78.8145 40.442C80.3905 40.2016 81.5725 39.3621 81.4504 38.5748Z" fill="white"/>
<path opacity="0.6" d="M74.7222 45.5211C74.004 45.5211 73.2927 45.326 72.7 44.9254C72.6477 44.8871 72.6337 44.8139 72.6686 44.7582C72.707 44.7024 72.7837 44.6885 72.836 44.7268C74.0946 45.5803 75.9495 45.4375 77.0618 44.4028C77.1106 44.3541 77.1873 44.3575 77.2326 44.4063C77.278 44.4551 77.2745 44.5317 77.2257 44.577C76.5562 45.2006 75.6392 45.5211 74.7222 45.5211Z" fill="#602929"/>
<path opacity="0.6" d="M75.1467 46.5348C74.9027 46.5348 74.6586 46.4825 74.4355 46.3745C74.3762 46.3467 74.3518 46.2735 74.3797 46.2143C74.4111 46.1551 74.4808 46.1307 74.5435 46.1586C75.084 46.4198 75.7987 46.2874 76.2067 45.845C76.252 45.7963 76.3252 45.7928 76.374 45.8381C76.4263 45.8833 76.4263 45.96 76.381 46.0088C76.0672 46.3502 75.607 46.5348 75.1467 46.5348Z" fill="#602929"/>
<path d="M107.587 101.593H65.3675C63.4289 101.593 61.9296 99.8929 62.1772 97.9734L65.4372 72.4283C65.6394 70.8223 67.0062 69.6205 68.6275 69.6205H110.847C112.786 69.6205 114.282 71.3205 114.038 73.2399L110.778 98.7851C110.572 100.388 109.205 101.593 107.587 101.593Z" fill="#6D6D78"/>
<path d="M92.7975 85.6067C92.7975 87.2091 91.497 88.5085 89.8966 88.5085C88.2927 88.5085 86.9922 87.2091 86.9922 85.6067C86.9922 84.0077 88.2927 82.7083 89.8966 82.7083C91.497 82.7083 92.7975 84.0077 92.7975 85.6067Z" fill="white"/>
<path d="M52.0873 99.5201H65.9258V101.593H50.1069C50.0824 101.593 50.0615 101.572 50.0615 101.544C50.0615 100.426 50.9681 99.5201 52.0873 99.5201Z" fill="#6D6D78"/>
<path d="M129.306 84.7567C129.306 88.0034 126.974 87.9023 125.15 87.9023C122.657 87.9023 120.994 87.3589 120.994 84.7567C120.994 80.8411 122.326 77.6676 125.15 77.6676C127.444 77.6676 129.306 80.8411 129.306 84.7567Z" fill="#7BBE79"/>
<path d="M123.435 81.0362L122.657 80.2594L122.835 80.0817L123.613 80.8551L123.435 81.0362Z" fill="#40592F"/>
<path d="M127.671 82.4749L127.619 82.2311L128.585 82.022L128.637 82.2694L127.671 82.4749Z" fill="#40592F"/>
<path d="M125.572 85.5579L125.478 84.7079L125.729 84.68L125.823 85.53L125.572 85.5579Z" fill="#40592F"/>
<path d="M122.577 84.1296L121.914 83.5618L122.078 83.3737L122.74 83.938L122.577 84.1296Z" fill="#40592F"/>
<path d="M125.897 78.7823L125.656 78.7126L125.845 78.0542L126.085 78.1239L125.897 78.7823Z" fill="#40592F"/>
<path d="M123.874 78.1622L123.497 77.5944L123.706 77.4551L124.083 78.0194L123.874 78.1622Z" fill="#40592F"/>
<path d="M129.111 84.5964L129.034 84.3595L129.798 84.1018L129.878 84.3421L129.111 84.5964Z" fill="#40592F"/>
<path d="M128.047 80.0503L127.849 79.9005L128.267 79.3431L128.466 79.4929L128.047 80.0503Z" fill="#40592F"/>
<path d="M121.531 81.604L120.771 81.0466L120.917 80.8446L121.681 81.402L121.531 81.604Z" fill="#40592F"/>
<path d="M123.661 87.1812L122.859 86.9548L122.929 86.711L123.731 86.9409L123.661 87.1812Z" fill="#40592F"/>
<path d="M125.426 82.555L125.182 82.4923L125.318 81.9524L125.562 82.0151L125.426 82.555Z" fill="#40592F"/>
<path d="M127.734 87.0941L127.595 86.8851L128.065 86.5716L128.208 86.7806L127.734 87.0941Z" fill="#40592F"/>
<path d="M123.135 77.7825C123.135 78.8415 122.193 79.695 121.032 79.695C119.871 79.695 119.24 78.7231 119.24 77.6676C119.24 76.6085 119.829 75.2918 120.994 75.2918C122.155 75.2918 123.135 76.727 123.135 77.7825Z" fill="#7BBE79"/>
<path d="M119.631 76.8907L119.258 76.5807L119.418 76.3891L119.791 76.6991L119.631 76.8907Z" fill="#40592F"/>
<path d="M121.067 75.6645H120.812V75.1907H121.067V75.6645Z" fill="#40592F"/>
<path d="M122.424 76.9012L122.291 76.6887L122.748 76.403L122.88 76.6155L122.424 76.9012Z" fill="#40592F"/>
<path d="M121.187 78.0438L121.113 77.6014L121.364 77.5631L121.434 78.002L121.187 78.0438Z" fill="#40592F"/>
<path d="M120.279 79.1934L119.791 79.0296L119.871 78.7927L120.359 78.9565L120.279 79.1934Z" fill="#40592F"/>
<path d="M132.605 87.7874V97.517C132.605 99.8336 130.722 101.711 128.407 101.711H122.277C121.838 101.711 121.412 101.642 121.011 101.52C119.313 100.98 118.079 99.3947 118.079 97.517V87.7874H132.605Z" fill="#468AF8"/>
<path d="M132.601 91.7378H118.079V90.9923H132.601V91.7378Z" fill="white"/>
<path d="M34.0114 86.8747L32.6481 101.694C32.6376 101.816 32.5226 101.906 32.3901 101.906H22.997C22.8645 101.906 22.7529 101.816 22.739 101.697L22.5542 99.8162L21.2781 86.9688C21.2606 86.8364 21.3792 86.7214 21.5291 86.7145L31.3894 86.6413L33.7499 86.6239C33.9068 86.6239 34.0253 86.7389 34.0114 86.8747Z" fill="#FFE074"/>
<path d="M34.0109 86.8747L32.6476 101.694C32.6371 101.816 32.5221 101.906 32.3896 101.906H22.9965C22.864 101.906 22.7525 101.816 22.7385 101.697L22.5537 99.8162C23.3975 99.3355 24.3249 99.0046 25.1966 98.5691C26.9399 97.6878 28.4148 96.3187 29.4922 94.6954C30.437 93.2741 31.2669 91.6646 31.3575 89.9542C31.4168 88.7907 31.4412 87.5888 31.3889 86.6413L33.7494 86.6239C33.9063 86.6239 34.0248 86.7389 34.0109 86.8747Z" fill="#FFE074"/>
<path d="M31.6857 98.5761C31.48 98.5761 31.2883 98.4332 31.2325 98.2242C31.1662 97.9734 31.3161 97.7156 31.5672 97.6529C33.1257 97.2418 34.3705 95.723 34.4646 94.1171C34.5553 92.5111 33.4953 90.8599 31.9926 90.2747C31.752 90.1806 31.6334 89.9089 31.7276 89.6685C31.8217 89.4247 32.0937 89.3062 32.3342 89.4003C34.2275 90.1388 35.5176 92.1454 35.399 94.1728C35.284 96.2003 33.7708 98.0431 31.8078 98.5586C31.7659 98.5703 31.7252 98.5761 31.6857 98.5761Z" fill="#FCA323"/>
<path d="M141.666 104H12.2135C11.5127 104 10.9443 103.432 10.9443 102.732C10.9443 102.032 11.5127 101.467 12.2135 101.467H141.666C142.367 101.467 142.935 102.032 142.935 102.732C142.935 103.432 142.367 104 141.666 104Z" fill="#3E3E45"/>
<defs>
<filter id="filter0_d_374_7877" x="27.4248" y="0.320679" width="35.9561" height="25.4075" filterUnits="userSpaceOnUse" color-interpolation-filters="sRGB">
<feFlood flood-opacity="0" result="BackgroundImageFix"/>
<feColorMatrix in="SourceAlpha" type="matrix" values="0 0 0 0 0 0 0 0 0 0 0 0 0 0 0 0 0 0 127 0" result="hardAlpha"/>
<feOffset/>
<feGaussianBlur stdDeviation="2"/>
<feComposite in2="hardAlpha" operator="out"/>
<feColorMatrix type="matrix" values="0 0 0 0 0 0 0 0 0 0 0 0 0 0 0 0 0 0 0.1 0"/>
<feBlend mode="normal" in2="BackgroundImageFix" result="effect1_dropShadow_374_7877"/>
<feBlend mode="normal" in="SourceGraphic" in2="effect1_dropShadow_374_7877" result="shape"/>
</filter>
</defs>
</svg>
