<svg width="60" height="60" viewBox="0 0 94 94" fill="none" xmlns="http://www.w3.org/2000/svg">
<g clip-path="url(#clip0_4475_1914)">
<rect width="94" height="94" rx="47" fill="white"/>
<path d="M-36.9981 146.29C-36.9981 146.29 -37.8223 96.9918 -4.688 78.3753C7.57087 71.488 22.2408 70.5535 36.533 71.1642C46.5869 71.5959 56.3464 71.2942 65.4068 76.7148C78.2765 84.414 89.3065 97.681 96.1325 118.029L102.326 155.002L-36.9981 146.29Z" fill="#2DB2C4"/>
<path d="M33.1456 43.4066L25.6132 67.8483C25.6132 67.8483 7.28127 70.8038 -1.27148 77.2178C-1.27148 77.2178 13.0698 71.6108 21.7771 77.62C30.4868 83.6293 52.2991 85.8956 64.8352 78.1032C64.8352 78.1032 47.5384 70.6567 47.4084 70.1808C47.1876 69.3886 48.1 67.1541 48.1 67.1541C48.1 67.1541 50.1309 68.405 52.8535 69.1237C54.8893 69.6633 56.5424 68.199 57.4426 66.2883C59.4931 61.9298 60.8495 56.1609 60.8495 56.1609L64.0577 55.3637C63.6628 50.6054 62.5443 48.29 63.4175 43.9241C64.1337 40.3382 66.8464 39.6833 66.8464 31.182L43.5428 22.6562L33.1505 33.441C33.1505 33.441 32.1056 31.4837 29.4934 32.3201C26.8812 33.1565 26.4594 44.5888 29.3021 45.1186C31.257 45.4816 33.1456 43.4066 33.1456 43.4066Z" fill="white"/>
<path d="M11.424 74.4762C15.0443 74.4762 18.8436 75.1777 21.9733 77.3385C26.2705 80.3039 33.901 82.3569 41.8848 82.6954C50.5945 83.0657 58.4409 81.4543 64.0871 78.1553C62.7405 77.5716 59.3729 76.1146 56.0322 74.6332C47.2023 70.7259 47.1435 70.515 47.0772 70.2746C46.8369 69.4137 47.6217 67.4147 47.7812 67.0247C47.8204 66.9315 47.8965 66.8579 47.9921 66.8285C48.0902 66.7966 48.1932 66.8089 48.2791 66.8628C48.2987 66.8751 50.3026 68.0966 52.9393 68.7931C55.37 69.4358 56.7607 66.9266 57.1311 66.1442C59.1423 61.8666 60.5012 56.1418 60.5134 56.083C60.5453 55.9579 60.641 55.8598 60.7661 55.8303L63.6898 55.1019C63.5622 53.6964 63.3709 52.4872 63.1992 51.408C62.8117 48.9724 62.4781 46.868 63.0815 43.8584C63.3341 42.5879 63.8296 41.6706 64.352 40.6993C65.3454 38.8548 66.4687 36.77 66.5006 31.423L43.636 23.0542L33.3982 33.6795C33.3222 33.7604 33.2118 33.7972 33.1039 33.7801C32.996 33.7678 32.9003 33.7016 32.8488 33.6035C32.812 33.5348 31.8922 31.9135 29.5965 32.6493C28.3823 33.0369 27.4895 36.7798 27.7225 40.4982C27.8771 42.9436 28.5221 44.6261 29.3659 44.7831C31.1123 45.1069 32.8733 43.1962 32.8905 43.1766C33.0009 43.0588 33.175 43.0294 33.3148 43.1103C33.4546 43.1888 33.5209 43.3532 33.4718 43.5077L25.9418 67.9494C25.9026 68.0745 25.7971 68.1652 25.6671 68.1873C25.5004 68.2143 10.0455 70.7553 1.06355 76.0803C3.45989 75.3763 7.32543 74.4762 11.424 74.4762ZM44.3792 83.4435C35.1716 83.4435 26.2828 81.1452 21.5833 77.9027C13.1287 72.0676 -1.00412 77.4833 -1.14638 77.5372C-1.30581 77.5985 -1.48732 77.5348 -1.57071 77.3851C-1.6541 77.2331 -1.61486 77.0467 -1.47751 76.9436C6.54791 70.9246 23.2733 67.9028 25.3483 67.5447L32.4588 44.4692C31.6739 45.0529 30.4843 45.6882 29.2383 45.4552C27.5141 45.1363 27.1241 41.9134 27.0382 40.5423C26.8445 37.4616 27.4552 32.6126 29.388 31.9945C31.4875 31.3224 32.6918 32.3231 33.1873 32.9093L43.2951 22.4189C43.3907 22.3208 43.533 22.2865 43.6605 22.3331L66.9642 30.8613C67.0991 30.9103 67.1898 31.0403 67.1898 31.1826C67.1898 36.8828 66.0027 39.0829 64.9578 41.0231C64.4354 41.9894 63.9865 42.8234 63.7535 43.9933C63.1747 46.8827 63.4837 48.8326 63.8762 51.3001C64.0626 52.4627 64.271 53.7823 64.3986 55.3349C64.4133 55.5041 64.3054 55.6562 64.1411 55.6979L61.134 56.446C60.8691 57.5154 59.5789 62.5558 57.7516 66.436C56.8735 68.3026 55.1027 70.0759 52.7652 69.4578C50.6583 68.8986 48.9781 68.0426 48.2742 67.6502C47.97 68.4743 47.6634 69.5412 47.7223 70.0073C48.7083 70.6891 58.4899 74.9962 64.9725 77.7898C65.0878 77.8389 65.1688 77.9517 65.1786 78.0793C65.1859 78.2068 65.1246 78.3295 65.0167 78.3957C59.238 81.9865 51.7056 83.4435 44.3792 83.4435Z" fill="black"/>
<path d="M33.1458 33.8703C33.1458 33.8703 36.7219 33.6986 36.6557 36.8332C36.5919 39.9678 34.6444 45.3516 37.8232 47.2991C41.002 49.2441 42.9495 40.684 42.9495 38.1528C42.9495 35.6215 45.4758 28.7514 50.3764 29.3645C55.7847 30.0415 58.5588 33.8801 66.8467 33.0805C68.0951 32.9627 72.6548 32.5212 73.967 29.6049C74.8868 27.5495 73.7757 25.2169 73.295 24.2481C72.5223 22.6832 70.0524 18.6803 57.8917 15.0061C49.2481 12.3939 44.9264 11.0891 41.392 12.7177C35.4391 15.4672 32.3658 24.0617 33.1458 33.8703Z" fill="black"/>
<path d="M48.1004 67.1537L41.9146 63.4034C40.6637 62.6455 39.7488 61.4388 39.3514 60.0309L38.2158 55.9961L48.1004 67.1537Z" fill="white"/>
<path d="M48.1003 67.4975C48.039 67.4975 47.9777 67.4803 47.9213 67.446L41.7379 63.6982C40.406 62.8912 39.4421 61.6231 39.0202 60.1245L37.8871 56.0897C37.8356 55.9058 37.941 55.7169 38.125 55.6654C38.3065 55.6139 38.4954 55.7194 38.5469 55.9033L39.6825 59.9381C40.0553 61.2675 40.9138 62.3958 42.0935 63.1095L48.2769 66.8598C48.4388 66.9579 48.4928 67.1688 48.3922 67.3307C48.3284 67.4386 48.2156 67.4975 48.1003 67.4975Z" fill="black"/>
<path d="M52.2652 59.3359C52.2357 59.3359 52.2088 59.3334 52.1793 59.326L45.991 57.744C41.3357 56.839 37.4922 53.3634 36.8668 49.4856L36.2855 45.8874C36.256 45.701 36.3836 45.5244 36.57 45.4925C36.7564 45.4631 36.933 45.5906 36.9624 45.777L37.5437 49.3752C38.125 52.9808 41.7404 56.2184 46.1406 57.0744L52.3486 58.6589C52.5325 58.708 52.6429 58.8944 52.5963 59.0783C52.5571 59.2328 52.4172 59.3359 52.2652 59.3359Z" fill="#2DB2C4"/>
<path d="M54.7989 60.0529C55.3532 59.1159 55.027 57.8945 54.0729 57.3303C53.1163 56.7662 51.8899 57.0703 51.3356 58.0097C50.7813 58.9492 51.1075 60.1657 52.0616 60.7323C53.0182 61.2964 54.2446 60.9923 54.7989 60.0529Z" fill="#2DB2C4"/>
<path d="M40.9899 30.3638C40.801 30.3638 40.6465 30.2117 40.6465 30.0204C40.6465 21.7693 47.3597 15.0586 55.6107 15.0586H57.3792C58.7969 15.0586 60.1999 15.2573 61.5464 15.6473C61.7304 15.6988 61.8334 15.8901 61.7819 16.0716C61.7279 16.2531 61.5366 16.3586 61.3551 16.3046C60.0699 15.9342 58.7331 15.7454 57.3792 15.7454H55.6107C47.7374 15.7454 41.3333 22.1495 41.3333 30.0204C41.3333 30.2117 41.1787 30.3638 40.9899 30.3638Z" fill="#2DB2C4"/>
<path d="M44.9138 39.6392C44.4772 45.7146 39.6453 50.316 34.1241 49.9187C28.6005 49.5213 24.4774 44.2749 24.914 38.1994C25.3506 32.1264 30.1826 27.525 35.7062 27.9224C41.2298 28.3197 45.3528 33.5661 44.9138 39.6392Z" fill="#2DB2C4"/>
<path d="M35.0442 28.2415C29.9891 28.2415 25.6624 32.5829 25.2577 38.2243C24.8334 44.1011 28.8216 49.193 34.1465 49.5756C36.7243 49.7596 39.2212 48.8324 41.1884 46.9585C43.1653 45.0748 44.3671 42.4675 44.5732 39.615C44.7767 36.7624 43.9624 34.0104 42.2749 31.8643C40.5972 29.7279 38.2549 28.45 35.6819 28.2636C35.4685 28.2489 35.2551 28.2415 35.0442 28.2415ZM34.794 50.2845C34.561 50.2845 34.3305 50.2771 34.0974 50.2599C28.3948 49.8503 24.1221 44.4297 24.5709 38.1752C25.0222 31.9231 30.0259 27.1697 35.731 27.5793C38.5001 27.778 41.0142 29.1491 42.8145 31.4399C44.6075 33.721 45.4733 36.6422 45.2575 39.664C45.0392 42.6883 43.7638 45.455 41.6617 47.454C39.7314 49.296 37.313 50.2845 34.794 50.2845Z" fill="black"/>
<path d="M41.9264 39.3255C41.6174 43.635 38.1884 46.8996 34.2714 46.6175C30.3519 46.3354 27.4282 42.6146 27.7373 38.3051C28.0488 33.9956 31.4753 30.731 35.3948 31.0131C39.3118 31.2951 42.2379 35.016 41.9264 39.3255Z" fill="#C9F1F6"/>
</g>
<rect x="0.5" y="0.5" width="93" height="93" rx="46.5" stroke="black"/>
<defs>
<clipPath id="clip0_4475_1914">
<rect width="94" height="94" rx="47" fill="white"/>
</clipPath>
</defs>
</svg>
