<svg width="15" height="15" viewBox="0 0 28 30" fill="none" xmlns="http://www.w3.org/2000/svg">
<path d="M27 7.22222C27 10.66 21.1789 13.4444 14 13.4444C6.82111 13.4444 1 10.66 1 7.22222M27 7.22222C27 3.78444 21.1789 1 14 1C6.82111 1 1 3.78444 1 7.22222M27 7.22222V15M1 7.22222V15M27 15C27 18.4378 21.1789 21.2222 14 21.2222C6.82111 21.2222 1 18.4378 1 15M27 15V22.7778C27 26.2156 21.1789 29 14 29C6.82111 29 1 26.2156 1 22.7778V15" stroke="#777777" stroke-width="2" stroke-linecap="round" stroke-linejoin="round"/>
</svg>
