<svg width="15" height="15" viewBox="0 0 26 26" fill="none" xmlns="http://www.w3.org/2000/svg">
<path d="M19.0466 14.8132C19.3673 14.8132 19.6749 14.6858 19.9017 14.459C20.1285 14.2322 20.256 13.9246 20.256 13.6039C20.256 13.2831 20.1285 12.9755 19.9017 12.7487C19.6749 12.5219 19.3673 12.3945 19.0466 12.3945C18.7259 12.3945 18.4182 12.5219 18.1915 12.7487C17.9647 12.9755 17.8372 13.2831 17.8372 13.6039C17.8372 13.9246 17.9647 14.2322 18.1915 14.459C18.4182 14.6858 18.7259 14.8132 19.0466 14.8132ZM19.0466 19.6507C19.3673 19.6507 19.6749 19.5233 19.9017 19.2965C20.1285 19.0697 20.256 18.7621 20.256 18.4413C20.256 18.1206 20.1285 17.813 19.9017 17.5862C19.6749 17.3594 19.3673 17.232 19.0466 17.232C18.7259 17.232 18.4182 17.3594 18.1915 17.5862C17.9647 17.813 17.8372 18.1206 17.8372 18.4413C17.8372 18.7621 17.9647 19.0697 18.1915 19.2965C18.4182 19.5233 18.7259 19.6507 19.0466 19.6507ZM14.2092 13.6039C14.2092 13.9246 14.0817 14.2322 13.8549 14.459C13.6282 14.6858 13.3205 14.8132 12.9998 14.8132C12.6791 14.8132 12.3715 14.6858 12.1447 14.459C11.9179 14.2322 11.7904 13.9246 11.7904 13.6039C11.7904 13.2831 11.9179 12.9755 12.1447 12.7487C12.3715 12.5219 12.6791 12.3945 12.9998 12.3945C13.3205 12.3945 13.6282 12.5219 13.8549 12.7487C14.0817 12.9755 14.2092 13.2831 14.2092 13.6039ZM14.2092 18.4413C14.2092 18.7621 14.0817 19.0697 13.8549 19.2965C13.6282 19.5233 13.3205 19.6507 12.9998 19.6507C12.6791 19.6507 12.3715 19.5233 12.1447 19.2965C11.9179 19.0697 11.7904 18.7621 11.7904 18.4413C11.7904 18.1206 11.9179 17.813 12.1447 17.5862C12.3715 17.3594 12.6791 17.232 12.9998 17.232C13.3205 17.232 13.6282 17.3594 13.8549 17.5862C14.0817 17.813 14.2092 18.1206 14.2092 18.4413ZM6.95301 14.8132C7.27375 14.8132 7.58136 14.6858 7.80816 14.459C8.03496 14.2322 8.16237 13.9246 8.16237 13.6039C8.16237 13.2831 8.03496 12.9755 7.80816 12.7487C7.58136 12.5219 7.27375 12.3945 6.95301 12.3945C6.63227 12.3945 6.32466 12.5219 6.09787 12.7487C5.87107 12.9755 5.74365 13.2831 5.74365 13.6039C5.74365 13.9246 5.87107 14.2322 6.09787 14.459C6.32466 14.6858 6.63227 14.8132 6.95301 14.8132ZM6.95301 19.6507C7.27375 19.6507 7.58136 19.5233 7.80816 19.2965C8.03496 19.0697 8.16237 18.7621 8.16237 18.4413C8.16237 18.1206 8.03496 17.813 7.80816 17.5862C7.58136 17.3594 7.27375 17.232 6.95301 17.232C6.63227 17.232 6.32466 17.3594 6.09787 17.5862C5.87107 17.813 5.74365 18.1206 5.74365 18.4413C5.74365 18.7621 5.87107 19.0697 6.09787 19.2965C6.32466 19.5233 6.63227 19.6507 6.95301 19.6507Z" fill="#777777"/>
<path fill-rule="evenodd" clip-rule="evenodd" d="M6.9526 0C7.19316 0 7.42386 0.0955607 7.59396 0.26566C7.76406 0.435759 7.85962 0.666463 7.85962 0.907019V1.82976C8.66022 1.81404 9.54184 1.81404 10.5117 1.81404H15.4858C16.457 1.81404 17.3386 1.81404 18.1392 1.82976V0.907019C18.1392 0.666463 18.2347 0.435759 18.4048 0.26566C18.5749 0.0955607 18.8056 0 19.0462 0C19.2867 0 19.5175 0.0955607 19.6875 0.26566C19.8576 0.435759 19.9532 0.666463 19.9532 0.907019V1.90716C20.2676 1.93135 20.5651 1.96158 20.8469 1.99907C22.2643 2.19015 23.412 2.59166 24.3178 3.49626C25.2224 4.40206 25.6239 5.54975 25.815 6.96711C26 8.34578 26 10.1054 26 12.3282V14.8824C26 17.1052 26 18.866 25.815 20.2435C25.6239 21.6608 25.2224 22.8085 24.3178 23.7143C23.412 24.6189 22.2643 25.0204 20.8469 25.2115C19.4683 25.3965 17.7086 25.3965 15.4858 25.3965H10.5142C8.29136 25.3965 6.53054 25.3965 5.15308 25.2115C3.73571 25.0204 2.58803 24.6189 1.68222 23.7143C0.777617 22.8085 0.376111 21.6608 0.185032 20.2435C0 18.8648 0 17.1052 0 14.8824V12.3282C0 10.1054 0 8.34457 0.185032 6.96711C0.376111 5.54975 0.777617 4.40206 1.68222 3.49626C2.58803 2.59166 3.73571 2.19015 5.15308 1.99907C5.43486 1.96158 5.73357 1.93135 6.04679 1.90716V0.907019C6.04679 0.666672 6.14219 0.436151 6.31203 0.266087C6.48186 0.0960226 6.71226 0.000320463 6.9526 0ZM5.39253 3.79739C4.17712 3.96065 3.4757 4.26783 2.96414 4.77939C2.45258 5.29094 2.1454 5.99237 1.98214 7.20899C1.95432 7.41458 1.93135 7.63226 1.912 7.86083H24.0868C24.0674 7.63105 24.0445 7.41458 24.0167 7.20778C23.8534 5.99237 23.5462 5.29094 23.0347 4.77939C22.5231 4.26783 21.8217 3.96065 20.6051 3.79739C19.363 3.63049 17.7244 3.62808 15.4181 3.62808H10.5807C8.27443 3.62808 6.63696 3.63049 5.39253 3.79739ZM1.81283 12.3959C1.81283 11.3631 1.81283 10.4646 1.82855 9.67487H24.1702C24.186 10.4646 24.186 11.3631 24.186 12.3959V14.8146C24.186 17.1209 24.1835 18.7596 24.0167 20.0028C23.8534 21.2182 23.5462 21.9196 23.0347 22.4312C22.5231 22.9427 21.8217 23.2499 20.6051 23.4132C19.363 23.5801 17.7244 23.5825 15.4181 23.5825H10.5807C8.27443 23.5825 6.63696 23.5801 5.39253 23.4132C4.17712 23.2499 3.4757 22.9427 2.96414 22.4312C2.45258 21.9196 2.1454 21.2182 1.98214 20.0016C1.81525 18.7596 1.81283 17.1209 1.81283 14.8146V12.3959Z" fill="#777777"/>
</svg>
