<svg width="15" height="15" viewBox="0 0 16 19" fill="none" xmlns="http://www.w3.org/2000/svg">
<path d="M5.49984 2.4987V0.832031H10.4998V2.4987H5.49984ZM6.33317 12.2904L5.4165 10.457C5.34706 10.3043 5.24289 10.1895 5.104 10.1129C4.96511 10.0362 4.81928 9.99814 4.6665 9.9987H0.541504C0.749837 8.1237 1.56234 6.54398 2.979 5.25953C4.39567 3.97509 6.06928 3.33259 7.99984 3.33203C8.86095 3.33203 9.68734 3.47092 10.479 3.7487C11.2707 4.02648 12.0137 4.42925 12.7082 4.95703L13.8748 3.79036L15.0415 4.95703L13.8748 6.1237C14.3193 6.70703 14.6734 7.32175 14.9373 7.96786C15.2012 8.61398 15.3748 9.29092 15.4582 9.9987H11.854L10.4165 7.1237C10.2637 6.80425 10.0137 6.64453 9.6665 6.64453C9.31928 6.64453 9.06928 6.80425 8.9165 7.1237L6.33317 12.2904ZM7.99984 18.332C6.06928 18.332 4.39567 17.6898 2.979 16.4054C1.56234 15.1209 0.749837 13.5409 0.541504 11.6654H4.14567L5.58317 14.5404C5.73595 14.8598 5.98595 15.0195 6.33317 15.0195C6.68039 15.0195 6.93039 14.8598 7.08317 14.5404L9.6665 9.3737L10.5832 11.207C10.6526 11.3598 10.7568 11.4745 10.8957 11.5512C11.0346 11.6279 11.1804 11.6659 11.3332 11.6654H15.4582C15.2498 13.5404 14.4373 15.1201 13.0207 16.4045C11.604 17.689 9.93039 18.3315 7.99984 18.332Z" fill="#777777"/>
</svg>
