<svg width="20" height="14" viewBox="0 0 20 14" fill="none" xmlns="http://www.w3.org/2000/svg">
<path d="M9.99951 0.125C16.2495 0.125 19.9995 7 19.9995 7C19.9995 7 16.2495 13.875 9.99951 13.875C3.74951 13.875 -0.000488281 7 -0.000488281 7C-0.000488281 7 3.74951 0.125 9.99951 0.125ZM9.99951 1.375C5.59951 1.375 2.49701 5.43875 1.46826 7C2.49576 8.56 5.59826 12.625 9.99951 12.625C14.3995 12.625 17.502 8.56125 18.5308 7C17.5033 5.44 14.4008 1.375 9.99951 1.375ZM9.99951 2.625C11.1598 2.625 12.2726 3.08594 13.0931 3.90641C13.9136 4.72688 14.3745 5.83968 14.3745 7C14.3745 8.16032 13.9136 9.27312 13.0931 10.0936C12.2726 10.9141 11.1598 11.375 9.99951 11.375C8.83919 11.375 7.72639 10.9141 6.90592 10.0936C6.08545 9.27312 5.62451 8.16032 5.62451 7C5.62451 5.83968 6.08545 4.72688 6.90592 3.90641C7.72639 3.08594 8.83919 2.625 9.99951 2.625ZM9.99951 3.875C9.17101 3.87599 8.37674 4.20555 7.7909 4.79139C7.20506 5.37722 6.8755 6.1715 6.87451 7C6.87451 8.7225 8.27576 10.125 9.99951 10.125C11.7233 10.125 13.1245 8.7225 13.1245 7C13.1245 5.2775 11.7233 3.875 9.99951 3.875Z" fill="#2DB2C4"/>
</svg>
