<svg width="14" height="18" viewBox="0 0 14 18" fill="none" xmlns="http://www.w3.org/2000/svg">
<path d="M11.3752 0.667969C11.6761 0.667969 11.9741 0.727244 12.2522 0.842411C12.5302 0.957579 12.7828 1.12638 12.9956 1.33918C13.2084 1.55198 13.3772 1.80461 13.4924 2.08265C13.6076 2.36069 13.6669 2.65869 13.6669 2.95964V15.043C13.6669 15.3439 13.6076 15.6419 13.4924 15.92C13.3772 16.198 13.2084 16.4506 12.9956 16.6634C12.7828 16.8762 12.5302 17.045 12.2522 17.1602C11.9741 17.2754 11.6761 17.3346 11.3752 17.3346H2.62519C2.32418 17.3346 2.02611 17.2753 1.74802 17.1601C1.46993 17.0449 1.21726 16.876 1.00445 16.6631C0.791634 16.4502 0.622848 16.1975 0.50773 15.9194C0.392612 15.6412 0.333417 15.3432 0.333527 15.0421V2.95964C0.333527 2.35185 0.574969 1.76895 1.00474 1.33918C1.43451 0.909412 2.01741 0.667969 2.62519 0.667969H2.86769V7.4738C2.86769 8.09714 3.52603 8.3188 3.96686 8.09047L4.04186 8.04464L5.78603 7.04713L7.56936 8.07214C7.94103 8.3288 8.62019 8.15547 8.69436 7.58047L8.70103 7.4738V0.667969H11.3752ZM7.45103 0.667969V6.56464L6.10019 5.78797C5.99549 5.74216 5.88196 5.72006 5.76773 5.72323C5.65349 5.7264 5.54136 5.75476 5.43936 5.8063L5.35019 5.8588L4.11769 6.5638V0.667969H7.45103Z" fill="#777777"/>
</svg>
