<svg width="12" height="14" viewBox="0 0 12 14" fill="none" xmlns="http://www.w3.org/2000/svg">
<path d="M11.0222 1.31069C10.297 0.875583 9.52393 0.664062 8.65872 0.664062C7.62356 0.664062 6.60743 0.968873 5.62477 1.26365C4.6648 1.55162 3.75806 1.82361 2.86056 1.82368C2.26054 1.82368 1.71689 1.69666 1.20712 1.4367V1.13286C1.20712 0.873958 0.997227 0.664062 0.738327 0.664062C0.479427 0.664062 0.269531 0.873958 0.269531 1.13286V13.5299C0.269531 13.7888 0.479427 13.9987 0.738327 13.9987C0.997227 13.9987 1.20712 13.7888 1.20712 13.5299V8.83526C1.72489 9.03528 2.27135 9.13364 2.8606 9.13364C3.89573 9.13364 4.91176 8.82883 5.89436 8.53405C6.85439 8.24605 7.7612 7.97402 8.65872 7.97402C9.34916 7.97402 9.96444 8.14182 10.5398 8.48704C10.6846 8.57393 10.8649 8.57624 11.012 8.49301C11.1589 8.40979 11.2498 8.25396 11.2498 8.08507V1.71266C11.2498 1.54799 11.1634 1.39538 11.0222 1.31069ZM5.62499 7.63602C4.66493 7.92402 3.75812 8.19605 2.86063 8.19605C2.26038 8.19605 1.71695 8.06922 1.20715 7.80926V2.46318C1.72483 2.66316 2.27119 2.7613 2.86025 2.76127C3.89529 2.7612 4.9117 2.45642 5.8942 2.16168C6.85427 1.87368 7.76117 1.60165 8.65872 1.60165C9.25897 1.60165 9.8024 1.72848 10.3122 1.98841V7.33456C9.79443 7.13454 9.24794 7.03643 8.65872 7.03643C7.62362 7.03643 6.60755 7.34124 5.62499 7.63602Z" fill="#808792" stroke="#808792" stroke-width="0.4"/>
</svg>
