<svg width="207" height="61" viewBox="0 0 207 61" fill="none" xmlns="http://www.w3.org/2000/svg">
<path d="M60.1276 27.1873V1.41016H64.0165L72.9408 19.6688L81.8646 1.41016H85.753V27.1873H81.7203V10.6652L73.8 27.1875H72.0797L64.1779 10.6652V27.1875L60.1276 27.1873Z" fill="#2DB2C4"/>
<path d="M93.4946 27.1873L101.63 1.41016H107.956L116.092 27.1873H111.647L104.265 4.05971H105.232L97.9391 27.1866L93.4946 27.1873ZM98.0322 21.6024V17.5741H111.575V21.6024H98.0322Z" fill="#2DB2C4"/>
<path d="M123.169 27.1873L131.305 1.41016H137.631L145.767 27.1873H141.322L133.94 4.05971H134.907L127.614 27.1873H123.169ZM127.705 21.6024V17.5741H141.253V21.6024H127.705Z" fill="#2DB2C4"/>
<path d="M153.508 27.1873V1.41016H157.88L169.851 19.5791V1.41083H174.223V27.188H169.851L157.88 9.01942V27.1884L153.508 27.1873Z" fill="#2DB2C4"/>
<path d="M194.4 27.7233C192.79 27.735 191.193 27.4343 189.697 26.8377C188.242 26.2525 186.929 25.3646 185.845 24.2331C184.7 23.0215 183.819 21.586 183.257 20.0171C182.607 18.1816 182.292 16.2447 182.325 14.2981C182.325 11.4827 182.851 9.07512 183.902 7.07538C184.873 5.16173 186.371 3.56551 188.22 2.47531C190.099 1.39412 192.235 0.840291 194.402 0.872416C197.581 0.872416 200.099 1.60955 201.956 3.08382C203.813 4.55809 205.071 6.6256 205.728 9.28635L201.318 9.98448C200.894 8.55579 200.059 7.2829 198.917 6.32342C197.807 5.41036 196.391 4.95323 194.67 4.95204C192.937 4.92802 191.497 5.30398 190.351 6.07989C189.179 6.88785 188.277 8.02911 187.763 9.35551C187.154 10.93 186.859 12.6083 186.894 14.2959C186.894 16.181 187.181 17.819 187.755 19.2098C188.27 20.5279 189.172 21.6597 190.343 22.4569C191.495 23.2313 192.938 23.6312 194.671 23.6564C195.852 23.6941 197.025 23.4518 198.094 22.9493C199.085 22.455 199.917 21.6919 200.495 20.7475C201.166 19.6159 201.593 18.3566 201.749 17.0504H197.198V13.6698H206.337C206.361 13.8611 206.378 14.1411 206.391 14.5116C206.403 14.8821 206.409 15.1025 206.409 15.173C206.409 17.6072 205.927 19.7703 204.964 21.6623C204.042 23.5098 202.61 25.0551 200.838 26.1158C199.044 27.1875 196.898 27.7233 194.4 27.7233Z" fill="#2DB2C4"/>
<path d="M70.4319 60.872C67.864 60.872 65.7076 60.3024 63.9628 59.1632C62.207 58.0111 60.8345 56.3627 60.0203 54.4283C59.1375 52.411 58.6962 50.0837 58.6962 47.4467C58.6962 44.8097 59.1375 42.4829 60.0203 40.4662C60.8342 38.5317 62.2068 36.8832 63.9628 35.7314C65.7084 34.5917 67.8647 34.0218 70.4319 34.0215C73.4302 34.0215 75.8646 34.7973 77.7348 36.349C79.6051 37.9007 80.8736 39.977 81.5402 42.578L79.4083 43.0975C78.8591 40.9378 77.8349 39.2222 76.3357 37.9508C74.8365 36.6793 72.8683 36.044 70.431 36.0447C68.3164 36.0447 66.5575 36.528 65.1542 37.4944C63.7227 38.4957 62.6191 39.8971 61.9821 41.5227C61.2711 43.241 60.9099 45.2159 60.8986 47.4474C60.8746 49.6792 61.2181 51.6512 61.9291 53.3635C62.5736 54.9923 63.6865 56.3939 65.1274 57.3917C66.5491 58.3645 68.3173 58.8507 70.4319 58.8503C72.8689 58.8503 74.8371 58.212 76.3366 56.9353C77.8361 55.6587 78.8603 53.9462 79.4092 51.7977L81.5411 52.3172C80.8731 54.919 79.604 56.9953 77.7337 58.5462C75.8634 60.0972 73.4295 60.8724 70.4319 60.872Z" fill="#B5B5B5"/>
<path d="M82.4745 60.3357L91.6138 34.5586H94.1761L103.315 60.3357H101.129L92.3479 35.633H93.3875L84.6596 60.3357H82.4745ZM86.2555 53.8554V51.9047H99.516V53.8554H86.2555Z" fill="#B5B5B5"/>
<path d="M106.037 60.3351V34.5586H115.767C116.018 34.5586 116.29 34.5674 116.582 34.5851C116.892 34.6053 117.2 34.6442 117.505 34.7016C118.714 34.8706 119.859 35.3484 120.829 36.0888C121.751 36.8064 122.481 37.7412 122.953 38.8095C123.452 39.9461 123.702 41.1759 123.688 42.4169C123.726 44.1907 123.192 45.9297 122.164 47.3767C121.149 48.7855 119.627 49.7474 117.917 50.0611L117.326 50.2938H108.099V60.3339L106.037 60.3351ZM108.099 48.2698H115.734C115.949 48.2698 116.197 48.2581 116.477 48.2345C116.758 48.2109 117.041 48.175 117.328 48.1268C118.194 47.968 119 47.5747 119.657 46.9899C120.278 46.4257 120.757 45.7238 121.056 44.9408C121.367 44.1355 121.525 43.279 121.522 42.4156C121.526 41.5557 121.367 40.7028 121.056 39.9013C120.755 39.1217 120.276 38.423 119.657 37.8607C119 37.2759 118.194 36.8826 117.328 36.7237C117.047 36.6652 116.763 36.6234 116.477 36.5987C116.196 36.5747 115.948 36.5627 115.734 36.5627H108.1L108.099 48.2698ZM121.933 60.3351L116.843 49.8452L118.761 48.8784L124.351 60.3351H121.933Z" fill="#B5B5B5"/>
<path d="M127.793 60.3351V34.5586H143.743V36.5632H129.854V46.3549H141.591V48.3613H129.854V58.33H143.742V60.3353L127.793 60.3351Z" fill="#B5B5B5"/>
<path d="M147.541 60.3351V34.5586H163.491V36.5632H149.603V46.3549H161.34V48.3613H149.603V58.33H163.49V60.3353L147.541 60.3351Z" fill="#B5B5B5"/>
<path d="M167.288 60.3351V34.5586H177.018C177.268 34.5586 177.54 34.5674 177.833 34.5851C178.143 34.6053 178.451 34.6442 178.756 34.7016C179.965 34.8709 181.11 35.3486 182.08 36.0888C183.002 36.8062 183.732 37.7411 184.204 38.8095C184.702 39.9463 184.953 41.176 184.939 42.4169C184.977 44.1907 184.443 45.9297 183.415 47.3767C182.399 48.7856 180.877 49.7474 179.168 50.0607L178.577 50.2933H169.348V60.3333L167.288 60.3351ZM169.348 48.2698H176.983C177.198 48.2698 177.445 48.2581 177.727 48.2345C178.008 48.2109 178.292 48.175 178.578 48.1268C179.444 47.9679 180.25 47.5746 180.908 46.9899C181.527 46.4252 182.006 45.7235 182.305 44.9408C182.617 44.1357 182.776 43.2792 182.772 42.4156C182.776 41.5556 182.617 40.7026 182.305 39.9013C182.004 39.1221 181.526 38.4235 180.908 37.8607C180.25 37.276 179.444 36.8827 178.578 36.7237C178.297 36.6652 178.013 36.6235 177.727 36.5987C177.446 36.5747 177.198 36.5627 176.983 36.5627H169.348V48.2698ZM183.183 60.3351L178.094 49.8452L180.011 48.8784L185.601 60.3351H183.183Z" fill="#B5B5B5"/>
<path d="M197.805 60.872C196.171 60.8971 194.548 60.5993 193.029 59.9955C191.677 59.4563 190.473 58.6036 189.516 57.5079C188.58 56.4105 187.941 55.0913 187.662 53.6767L189.777 53.319C190.18 54.9816 191.194 56.4321 192.618 57.3822C194.07 58.3727 195.817 58.8681 197.859 58.8686C199.115 58.8927 200.362 58.6679 201.53 58.2071C202.518 57.8222 203.381 57.175 204.027 56.3356C204.627 55.5193 204.942 54.5284 204.923 53.5156C204.945 52.8406 204.801 52.1704 204.501 51.5647C204.237 51.0599 203.868 50.6175 203.418 50.2671C202.983 49.9318 202.505 49.6551 201.998 49.4442C201.536 49.2495 201.063 49.0793 200.582 48.9345L194.095 46.9995C193.295 46.7733 192.523 46.4582 191.792 46.0603C191.16 45.7166 190.586 45.2758 190.09 44.7539C189.633 44.2633 189.274 43.6894 189.034 43.0636C188.781 42.3882 188.656 41.6717 188.666 40.9507C188.639 39.6522 189.028 38.3792 189.777 37.3174C190.557 36.2475 191.612 35.4084 192.831 34.8889C194.243 34.2876 195.767 33.992 197.302 34.0215C198.874 34.0077 200.432 34.328 201.871 34.9612C203.178 35.5418 204.32 36.437 205.196 37.5665C206.081 38.7348 206.658 40.1076 206.871 41.5576L204.739 41.9339C204.593 40.8067 204.151 39.7381 203.457 38.8369C202.764 37.9484 201.864 37.2419 200.836 36.7783C199.721 36.2787 198.51 36.0282 197.288 36.0444C196.147 36.0112 195.013 36.2247 193.963 36.6702C193.071 37.0446 192.29 37.6427 191.697 38.4066C191.154 39.1153 190.864 39.9852 190.873 40.8777C190.873 41.8322 191.133 42.5927 191.652 43.1594C192.188 43.7371 192.842 44.1923 193.57 44.4939C194.28 44.7985 195.007 45.0613 195.748 45.281L200.945 46.8207C201.434 46.9638 202.02 47.1666 202.7 47.4292C203.417 47.7107 204.092 48.0871 204.708 48.5482C205.389 49.0579 205.949 49.7118 206.347 50.4631C206.784 51.2587 207.002 52.2521 207.001 53.4434C207.019 54.5179 206.793 55.5826 206.339 56.5571C205.899 57.4745 205.248 58.275 204.439 58.8935C203.564 59.558 202.574 60.0557 201.518 60.3614C200.312 60.7129 199.061 60.8849 197.805 60.872Z" fill="#B5B5B5"/>
<path d="M43.8999 18.319C46.1041 19.7869 48.8307 22.4585 50.2995 24.5544L51.1127 25.7332L47.703 27.5672L44.3187 29.3749L43.6105 28.3532C42.3516 26.5454 39.9122 24.5278 37.7354 23.48L35.6634 22.5107L38.4688 19.6813C40.0162 18.1355 41.3802 16.8789 41.5111 16.8789C41.642 16.8789 42.7196 17.533 43.8999 18.319ZM17.9341 42.2128C18.6945 44.8115 20.0916 47.1798 21.9988 49.1034C24.9363 52.0377 27.7165 53.2954 31.2834 53.2954C35.9256 53.2954 39.755 51.2781 42.7187 47.2957L44.0827 45.4617L45.2892 45.9332C45.9712 46.1952 47.7284 46.8502 49.2235 47.4011L51.8988 48.3966L51.4792 49.0779C47.44 55.3918 42.2732 59.1647 35.8473 60.4747C33.3556 60.9987 29.0019 60.9987 26.6676 60.501C24.4078 60.001 22.2399 59.1525 20.2417 57.9858C18.4843 56.9378 15.2846 54.0035 13.9994 52.2476C12.7405 50.5184 11.1143 47.2174 10.5635 45.2262L10.1182 43.5757L13.6327 39.9865L17.1473 36.397L17.3309 38.5453C17.4274 39.7827 17.6291 41.0096 17.9341 42.2128Z" fill="#B5B5B5"/>
<path d="M39.4208 16.4597C37.2702 18.6342 32.4703 23.7694 28.7198 27.8303L21.9269 35.271L14.8978 28.1971L7.86871 21.1232V41.8992L4.14421 45.6197C2.07221 47.6894 0.314604 49.3661 0.209958 49.3661C0.078817 49.3661 0 38.5195 0 25.2364C0 9.98828 0.104871 1.15911 0.262285 1.2116C0.393426 1.23785 5.00965 6.05855 10.4911 11.901C15.999 17.7434 20.825 22.8261 21.2184 23.2454L21.9267 23.9793L32.5226 12.4254L43.1453 0.871094L43.2239 6.6873L43.2765 12.5035L39.4208 16.4597Z" fill="url(#paint0_linear_4485_43517)"/>
<defs>
<linearGradient id="paint0_linear_4485_43517" x1="21.6382" y1="0.871094" x2="21.6382" y2="49.3661" gradientUnits="userSpaceOnUse">
<stop stop-color="#04B3D6"/>
<stop offset="1" stop-color="#77D0D2"/>
</linearGradient>
</defs>
</svg>
