<svg width="60" height="60" viewBox="0 0 94 94" fill="none" xmlns="http://www.w3.org/2000/svg">
<g clip-path="url(#clip0_4392_845)">
<rect width="94" height="94" rx="47" fill="white"/>
<path d="M56.0455 12.8584C57.3551 13.2364 58.6201 13.7573 59.8226 14.4359C73.1121 21.9393 64.7485 39.3184 71.103 50.5751C76.5498 60.2275 73.6568 67.85 66.4033 75.4963C62.2037 79.9222 58.2659 83.598 56.9801 89.8008C56.242 93.3754 56.0693 97.0602 55.1288 100.587C50.4857 117.996 30.2373 123.404 14.4417 119.624C7.3728 117.931 0.780122 114.365 -4.56248 109.451C-10.7385 103.778 -18.5693 94.0421 -11.6879 85.9374C-9.45862 83.3152 -6.35426 81.6008 -3.2112 80.196C2.25938 77.7524 11.6469 75.2493 13.4268 68.5851C14.7632 63.564 10.9117 58.3018 13.6946 53.4235C15.8704 49.6107 20.7754 48.447 23.1149 44.7295C25.1388 41.515 24.6864 37.3867 24.612 33.5919C24.2013 12.5429 42.9167 9.08435 56.0455 12.8584Z" fill="black"/>
<mask id="mask0_4392_845" style="mask-type:luminance" maskUnits="userSpaceOnUse" x="-2" y="77" width="17" height="39">
<path d="M-1.5188 77.0898H14.8751V115.949H-1.5188V77.0898Z" fill="white"/>
</mask>
<g mask="url(#mask0_4392_845)">
<mask id="mask1_4392_845" style="mask-type:luminance" maskUnits="userSpaceOnUse" x="-64" y="-2" width="223" height="222">
<path d="M101.154 217.46L94.3116 163.275L136.6 150.732L158.521 51.9879C149.767 -1.87263 75.5395 -1.04223 74.5067 -1.04223L-29.8273 22.1616C-30.8631 22.1616 -31.5923 22.998 -31.4643 24.0308L-63.6687 36.8709V119.689L-26.7378 158.328L-12.9125 170.93L-7.03714 217.46C-6.90617 218.493 -5.96266 219.329 -4.92986 219.329H99.5202C100.553 219.329 101.285 218.493 101.154 217.46Z" fill="white"/>
</mask>
<g mask="url(#mask1_4392_845)">
<path d="M0.0227712 112.669C0.0227712 112.669 -4.59062 81.7173 2.21041 77.2021C2.56758 76.967 7.13036 78.5623 10.7229 82.9703C14.1159 87.1343 14.7558 97.9742 14.7558 97.9742L13.482 115.835L0.0227712 112.669Z" fill="#C9F1F6"/>
</g>
</g>
<mask id="mask2_4392_845" style="mask-type:luminance" maskUnits="userSpaceOnUse" x="2" y="74" width="88" height="93">
<path d="M2.15356 74.8047H89.9151V167.001H2.15356V74.8047Z" fill="white"/>
</mask>
<g mask="url(#mask2_4392_845)">
<mask id="mask3_4392_845" style="mask-type:luminance" maskUnits="userSpaceOnUse" x="-64" y="-2" width="223" height="222">
<path d="M101.154 217.464L94.3116 163.279L136.6 150.736L158.521 51.9918C149.767 -1.86873 75.5395 -1.03832 74.5067 -1.03832L-29.8273 22.1655C-30.8631 22.1655 -31.5923 23.0019 -31.4643 24.0347L-63.6687 36.8748V119.693L-26.7378 158.332L-12.9125 170.934L-7.03714 217.464C-6.90617 218.496 -5.96266 219.333 -4.92986 219.333H99.5202C100.553 219.333 101.285 218.496 101.154 217.464Z" fill="white"/>
</mask>
<g mask="url(#mask3_4392_845)">
<path d="M89.6324 147.824C89.2455 145.189 88.9419 142.546 88.8199 139.885L87.4299 109.967L87.3406 76.185C57.6572 72.7205 2.21021 77.203 2.21021 77.203C6.56465 78.209 8.39214 97.3173 11.2822 110.476C11.2822 110.476 8.52608 142.082 8.16892 155.375C7.81175 168.667 23.274 163.503 53.0497 166.524C67.7025 168.012 92.4004 166.712 89.6324 147.824Z" fill="#2DB2C4"/>
</g>
</g>
<mask id="mask4_4392_845" style="mask-type:luminance" maskUnits="userSpaceOnUse" x="27" y="53" width="40" height="37">
<path d="M27.9763 53.1484H66.3924V89.1477H27.9763V53.1484Z" fill="white"/>
</mask>
<g mask="url(#mask4_4392_845)">
<mask id="mask5_4392_845" style="mask-type:luminance" maskUnits="userSpaceOnUse" x="-64" y="-2" width="223" height="222">
<path d="M101.154 217.464L94.3113 163.279L136.6 150.736L158.521 51.9918C149.767 -1.86873 75.5393 -1.03832 74.5065 -1.03832L-29.8275 22.1655C-30.8633 22.1655 -31.5925 23.0019 -31.4645 24.0347L-63.6689 36.8748V119.693L-26.738 158.332L-12.9128 170.934L-7.03738 217.464C-6.90642 218.496 -5.96291 219.333 -4.9301 219.333H99.52C100.553 219.333 101.285 218.496 101.154 217.464Z" fill="white"/>
</mask>
<g mask="url(#mask5_4392_845)">
<path d="M41.0606 53.2422L38.3373 74.0203L28.0747 75.571C28.0747 75.571 32.0035 88.039 45.5877 88.9617C59.1749 89.8844 65.5979 80.3897 66.3599 75.3835L56.7045 74.0233L55.0615 53.8553L41.0606 53.2422Z" fill="white"/>
</g>
</g>
<mask id="mask6_4392_845" style="mask-type:luminance" maskUnits="userSpaceOnUse" x="27" y="52" width="40" height="38">
<path d="M27.5989 52.7656H66.899V89.5209H27.5989V52.7656Z" fill="white"/>
</mask>
<g mask="url(#mask6_4392_845)">
<mask id="mask7_4392_845" style="mask-type:luminance" maskUnits="userSpaceOnUse" x="-64" y="-2" width="223" height="222">
<path d="M101.154 217.46L94.3116 163.275L136.6 150.732L158.521 51.9879C149.767 -1.87263 75.5395 -1.04223 74.5067 -1.04223L-29.8273 22.1616C-30.8631 22.1616 -31.5923 22.998 -31.4643 24.0308L-63.6687 36.8709V119.689L-26.7378 158.328L-12.9125 170.93L-7.03714 217.46C-6.90617 218.493 -5.96266 219.329 -4.92986 219.329H99.5202C100.553 219.329 101.285 218.493 101.154 217.46Z" fill="white"/>
</mask>
<g mask="url(#mask7_4392_845)">
<path d="M28.641 75.9034C29.519 78.1387 33.9598 87.7524 45.6182 88.5441C58.7798 89.437 64.8933 80.4037 65.8755 75.7308L56.6457 74.4331C56.4523 74.4033 56.3034 74.2486 56.2886 74.0521L54.6754 54.2532L41.4245 53.6729L38.7488 74.07C38.7249 74.2545 38.5821 74.4004 38.4005 74.4271L28.641 75.9034ZM47.4041 89.437C46.8088 89.437 46.1927 89.4162 45.5617 89.3745C31.8525 88.4429 27.7183 75.8201 27.6766 75.6921C27.6409 75.576 27.6558 75.451 27.7213 75.3468C27.7838 75.2427 27.8909 75.1712 28.013 75.1564L37.963 73.6533L40.6477 53.1847C40.6774 52.9704 40.862 52.8157 41.0793 52.8246L55.0801 53.4347C55.2885 53.4466 55.4611 53.6104 55.476 53.8187L57.0922 73.6533L66.4202 74.9659C66.5303 74.9837 66.6285 75.0403 66.694 75.1296C66.7624 75.2189 66.7922 75.332 66.7743 75.4421C66.4172 77.7815 64.7058 81.6121 61.0537 84.7105C58.4435 86.925 54.0206 89.437 47.4041 89.437Z" fill="black"/>
</g>
</g>
<mask id="mask8_4392_845" style="mask-type:luminance" maskUnits="userSpaceOnUse" x="31" y="25" width="33" height="35">
<path d="M31.126 25.0781H63.7501V59.4404H31.126V25.0781Z" fill="white"/>
</mask>
<g mask="url(#mask8_4392_845)">
<mask id="mask9_4392_845" style="mask-type:luminance" maskUnits="userSpaceOnUse" x="-64" y="-2" width="223" height="222">
<path d="M101.154 217.46L94.3116 163.275L136.6 150.732L158.521 51.9879C149.767 -1.87263 75.5395 -1.04223 74.5067 -1.04223L-29.8273 22.1616C-30.8631 22.1616 -31.5923 22.998 -31.4643 24.0308L-63.6687 36.8709V119.689L-26.7378 158.328L-12.9125 170.93L-7.03714 217.46C-6.90617 218.493 -5.96266 219.329 -4.92986 219.329H99.5202C100.553 219.329 101.285 218.493 101.154 217.46Z" fill="white"/>
</mask>
<g mask="url(#mask9_4392_845)">
<path d="M62.1221 37.522C61.5744 37.3851 60.994 37.5756 60.4493 38.0071C60.4374 37.8881 60.4285 37.769 60.4166 37.653V25.1016C46.2371 35.3939 43.606 28.8131 34.6441 31.7597C34.6441 31.7597 34.5489 37.5934 34.5221 38.0012C33.9774 37.5756 33.4 37.3851 32.8583 37.522C31.4773 37.8673 30.8612 40.162 31.4832 42.6414C32.0874 45.0403 34.5191 47.7101 35.927 47.5732C38.0938 53.901 42.4571 59.3567 47.4902 59.3567C52.5203 59.3567 56.8836 53.901 59.0504 47.5732C60.4553 47.7101 62.8929 45.0403 63.4942 42.6414C64.1162 40.162 63.5031 37.8673 62.1221 37.522Z" fill="white"/>
</g>
</g>
<mask id="mask10_4392_845" style="mask-type:luminance" maskUnits="userSpaceOnUse" x="30" y="24" width="35" height="36">
<path d="M30.7476 24.5742H64.2527V59.8175H30.7476V24.5742Z" fill="white"/>
</mask>
<g mask="url(#mask10_4392_845)">
<mask id="mask11_4392_845" style="mask-type:luminance" maskUnits="userSpaceOnUse" x="-64" y="-2" width="223" height="222">
<path d="M101.154 217.456L94.3113 163.271L136.6 150.728L158.521 51.984C149.767 -1.87654 75.5393 -1.04613 74.5065 -1.04613L-29.8275 22.1577C-30.8633 22.1577 -31.5925 22.9941 -31.4645 24.0269L-63.6689 36.867V119.685L-26.738 158.324L-12.9128 170.926L-7.03738 217.456C-6.90642 218.489 -5.96291 219.325 -4.9301 219.325H99.52C100.553 219.325 101.285 218.489 101.154 217.456Z" fill="white"/>
</mask>
<g mask="url(#mask11_4392_845)">
<path d="M35.9295 47.1529C36.1051 47.1529 36.2628 47.266 36.3224 47.4356C38.1379 52.7395 42.1501 58.9363 47.4868 58.9363C52.8234 58.9363 56.8385 52.7395 58.6541 47.4356C58.7166 47.2541 58.8952 47.138 59.0887 47.1558C59.1125 47.1588 59.1393 47.1588 59.1661 47.1588C60.309 47.1588 62.5205 44.8015 63.086 42.5365C63.6455 40.3221 63.1544 38.2088 62.0174 37.9231C61.5174 37.7981 61.0293 38.0749 60.7078 38.3309C60.5858 38.4261 60.4221 38.4469 60.2822 38.3874C60.1393 38.3249 60.0441 38.191 60.0322 38.0392L60.0262 37.9677C60.0203 37.8755 60.0114 37.7832 60.0024 37.6939C59.9995 37.679 59.9995 37.6642 59.9995 37.6493V25.9104C51.2519 32.0924 46.8945 31.7739 42.674 31.4644C40.3048 31.2917 38.0665 31.1251 35.0544 32.0626C35.0366 33.271 34.9622 37.6612 34.9354 38.0273C34.9235 38.1791 34.8312 38.316 34.6883 38.3785C34.5484 38.441 34.3847 38.4202 34.2627 38.3249C33.9413 38.0719 33.4531 37.8011 32.9561 37.9231C32.4441 38.0511 32.0393 38.572 31.8221 39.3875C31.581 40.2863 31.6048 41.4055 31.8876 42.5365C32.4679 44.8521 34.7776 47.266 35.8878 47.1558C35.8997 47.1558 35.9146 47.1529 35.9295 47.1529ZM47.4868 59.7697C41.8078 59.7697 37.5784 53.4836 35.6289 47.9803C33.8966 47.7809 31.6405 44.9801 31.081 42.7419C30.7625 41.4709 30.7387 40.203 31.0155 39.1702C31.3161 38.0511 31.9352 37.3219 32.7567 37.1165C33.1972 37.0064 33.6615 37.057 34.1258 37.2653C34.1556 35.914 34.2062 33.018 34.227 31.7501C34.23 31.5715 34.3431 31.4167 34.5127 31.3632C37.8225 30.2738 40.3226 30.4554 42.7365 30.631C46.9123 30.9375 51.2281 31.253 60.1721 24.7616C60.3001 24.6723 60.4667 24.6574 60.6066 24.7288C60.7465 24.8002 60.8328 24.9431 60.8328 25.1009V37.2743C61.3001 37.06 61.7734 37.0034 62.2228 37.1165C63.8479 37.5243 64.5831 39.9947 63.8955 42.7419C63.336 44.9801 61.0799 47.7809 59.3476 47.9803C57.3981 53.4836 53.1687 59.7697 47.4868 59.7697Z" fill="black"/>
</g>
</g>
<mask id="mask12_4392_845" style="mask-type:luminance" maskUnits="userSpaceOnUse" x="33" y="44" width="13" height="12">
<path d="M33.644 44.207H45.1061V55.6601H33.644V44.207Z" fill="white"/>
</mask>
<g mask="url(#mask12_4392_845)">
<mask id="mask13_4392_845" style="mask-type:luminance" maskUnits="userSpaceOnUse" x="-64" y="-2" width="223" height="222">
<path d="M101.154 217.456L94.3116 163.271L136.6 150.728L158.521 51.984C149.767 -1.87654 75.5395 -1.04613 74.5067 -1.04613L-29.8273 22.1577C-30.8631 22.1577 -31.5923 22.9941 -31.4643 24.0269L-63.6687 36.867V119.685L-26.7378 158.324L-12.9125 170.926L-7.03714 217.456C-6.90617 218.489 -5.96266 219.325 -4.92986 219.325H99.5202C100.553 219.325 101.285 218.489 101.154 217.456Z" fill="white"/>
</mask>
<g mask="url(#mask13_4392_845)">
<path d="M44.6687 55.6333C44.6419 55.6333 44.6122 55.6303 44.5824 55.6244L40.1148 54.7166C36.6087 54.2701 33.9597 51.386 33.8168 47.856L33.6859 44.6534C33.6769 44.4213 33.8555 44.2278 34.0847 44.2189C34.3258 44.2129 34.5103 44.3886 34.5193 44.6177L34.6502 47.8233C34.7752 50.9485 37.1266 53.5022 40.2339 53.8951C40.2428 53.8951 40.2547 53.8981 40.2637 53.8981L44.7491 54.8089C44.9753 54.8565 45.1211 55.0738 45.0765 55.3C45.0348 55.4964 44.8622 55.6333 44.6687 55.6333Z" fill="#2DB2C4"/>
</g>
</g>
<mask id="mask14_4392_845" style="mask-type:luminance" maskUnits="userSpaceOnUse" x="43" y="53" width="5" height="5">
<path d="M43.4692 53.2734H47.3742V57.1755H43.4692V53.2734Z" fill="white"/>
</mask>
<g mask="url(#mask14_4392_845)">
<mask id="mask15_4392_845" style="mask-type:luminance" maskUnits="userSpaceOnUse" x="-64" y="-2" width="223" height="222">
<path d="M101.154 217.464L94.3118 163.279L136.6 150.736L158.521 51.9918C149.768 -1.86873 75.5398 -1.03832 74.507 -1.03832L-29.827 22.1655C-30.8628 22.1655 -31.592 23.0019 -31.464 24.0347L-63.6685 36.8748V119.693L-26.7375 158.332L-12.9123 170.934L-7.03689 217.464C-6.90593 218.496 -5.96242 219.333 -4.92962 219.333H99.5205C100.553 219.333 101.285 218.496 101.154 217.464Z" fill="white"/>
</mask>
<g mask="url(#mask15_4392_845)">
<path d="M47.053 56.2218C47.5738 55.3378 47.2673 54.1919 46.3684 53.6621C45.4695 53.1293 44.3147 53.418 43.7938 54.299C43.273 55.183 43.5795 56.3259 44.4784 56.8587C45.3773 57.3885 46.5291 57.1028 47.053 56.2218Z" fill="#2DB2C4"/>
</g>
</g>
<mask id="mask16_4392_845" style="mask-type:luminance" maskUnits="userSpaceOnUse" x="29" y="34" width="7" height="15">
<path d="M29.8635 34.2656H35.6585V48.1117H29.8635V34.2656Z" fill="white"/>
</mask>
<g mask="url(#mask16_4392_845)">
<mask id="mask17_4392_845" style="mask-type:luminance" maskUnits="userSpaceOnUse" x="-64" y="-2" width="223" height="222">
<path d="M101.154 217.46L94.3113 163.275L136.6 150.732L158.521 51.9879C149.767 -1.87263 75.5393 -1.04223 74.5065 -1.04223L-29.8275 22.1616C-30.8633 22.1616 -31.5925 22.998 -31.4645 24.0308L-63.6689 36.8709V119.689L-26.738 158.328L-12.9128 170.93L-7.03738 217.46C-6.90642 218.493 -5.96291 219.329 -4.9301 219.329H99.52C100.553 219.329 101.285 218.493 101.154 217.46Z" fill="white"/>
</mask>
<g mask="url(#mask17_4392_845)">
<path d="M34.7004 35.3533C34.6468 34.7193 34.0902 34.2461 33.4562 34.2967C31.34 34.4723 29.7625 36.3236 29.9382 38.4368L30.4382 44.5652C30.6108 46.6784 32.4651 48.2529 34.5813 48.0803C35.2153 48.0267 35.6885 47.4701 35.6379 46.8362L34.7004 35.3533Z" fill="#C9F1F6"/>
</g>
</g>
<mask id="mask18_4392_845" style="mask-type:luminance" maskUnits="userSpaceOnUse" x="29" y="33" width="8" height="16">
<path d="M29.489 33.7656H36.165V48.6178H29.489V33.7656Z" fill="white"/>
</mask>
<g mask="url(#mask18_4392_845)">
<mask id="mask19_4392_845" style="mask-type:luminance" maskUnits="userSpaceOnUse" x="-64" y="-2" width="223" height="222">
<path d="M101.154 217.464L94.3116 163.279L136.6 150.736L158.521 51.9918C149.767 -1.86873 75.5395 -1.03832 74.5067 -1.03832L-29.8273 22.1655C-30.8631 22.1655 -31.5923 23.0019 -31.4643 24.0347L-63.6687 36.8748V119.693L-26.7378 158.332L-12.9125 170.934L-7.03714 217.464C-6.90617 218.496 -5.96266 219.333 -4.92986 219.333H99.5202C100.553 219.333 101.285 218.496 101.154 217.464Z" fill="white"/>
</mask>
<g mask="url(#mask19_4392_845)">
<path d="M33.5515 34.7121C33.5306 34.7121 33.5098 34.7121 33.4919 34.7151C32.5752 34.7895 31.7478 35.2121 31.1555 35.9116C30.5632 36.6081 30.2775 37.495 30.3548 38.4058L30.8519 44.5312C31.0067 46.4123 32.6615 47.8201 34.5486 47.6653C34.742 47.6504 34.9236 47.5582 35.0486 47.4064C35.1766 47.2576 35.2391 47.0671 35.2212 46.8706L34.2837 35.3878C34.2688 35.1913 34.1765 35.0157 34.0277 34.8877C33.8938 34.7716 33.7241 34.7121 33.5515 34.7121ZM34.2658 48.5106C32.0722 48.5106 30.203 46.82 30.0215 44.5996L29.5215 38.4743C29.4292 37.3403 29.7834 36.239 30.5215 35.3699C31.2567 34.5038 32.2865 33.9769 33.4205 33.8847C33.8402 33.849 34.2479 33.9799 34.5664 34.2508C34.8879 34.5216 35.0813 34.9026 35.117 35.3193L36.0546 46.8022C36.0873 47.2218 35.9564 47.6266 35.6855 47.9481C35.4147 48.2665 35.0337 48.46 34.614 48.4957C34.498 48.5047 34.3819 48.5106 34.2658 48.5106Z" fill="black"/>
</g>
</g>
<mask id="mask20_4392_845" style="mask-type:luminance" maskUnits="userSpaceOnUse" x="58" y="34" width="7" height="15">
<path d="M58.8359 34.2656H64.756V48.1117H58.8359V34.2656Z" fill="white"/>
</mask>
<g mask="url(#mask20_4392_845)">
<mask id="mask21_4392_845" style="mask-type:luminance" maskUnits="userSpaceOnUse" x="-64" y="-2" width="223" height="222">
<path d="M101.154 217.46L94.3116 163.275L136.6 150.732L158.521 51.9879C149.767 -1.87263 75.5395 -1.04223 74.5067 -1.04223L-29.8273 22.1616C-30.8631 22.1616 -31.5923 22.998 -31.4643 24.0308L-63.6687 36.8709V119.689L-26.7378 158.328L-12.9125 170.93L-7.03714 217.46C-6.90617 218.493 -5.96266 219.329 -4.92986 219.329H99.5202C100.553 219.329 101.285 218.493 101.154 217.46Z" fill="white"/>
</mask>
<g mask="url(#mask21_4392_845)">
<path d="M59.8988 35.3533C59.9494 34.7193 60.509 34.2461 61.1459 34.2967C63.2591 34.4723 64.8366 36.3236 64.664 38.4368L64.164 44.5652C63.9913 46.6784 62.1341 48.2529 60.0179 48.0803C59.3809 48.0267 58.9106 47.4701 58.9612 46.8362L59.8988 35.3533Z" fill="#C9F1F6"/>
</g>
</g>
<mask id="mask22_4392_845" style="mask-type:luminance" maskUnits="userSpaceOnUse" x="58" y="33" width="8" height="16">
<path d="M58.457 33.7656H65.133V48.6178H58.457V33.7656Z" fill="white"/>
</mask>
<g mask="url(#mask22_4392_845)">
<mask id="mask23_4392_845" style="mask-type:luminance" maskUnits="userSpaceOnUse" x="-64" y="-2" width="223" height="222">
<path d="M101.154 217.464L94.3111 163.279L136.599 150.736L158.52 51.9918C149.767 -1.86873 75.539 -1.03832 74.5062 -1.03832L-29.8278 22.1655C-30.8635 22.1655 -31.5928 23.0019 -31.4648 24.0347L-63.6692 36.8748V119.693L-26.7383 158.332L-12.913 170.934L-7.03762 217.464C-6.90666 218.496 -5.96315 219.333 -4.93035 219.333H99.5197C100.553 219.333 101.285 218.496 101.154 217.464Z" fill="white"/>
</mask>
<g mask="url(#mask23_4392_845)">
<path d="M61.0494 34.7121C60.8738 34.7121 60.7071 34.7716 60.5732 34.8877C60.4214 35.0157 60.3291 35.1913 60.3143 35.3878L59.3767 46.8706C59.3618 47.0671 59.4243 47.2576 59.5493 47.4064C59.6773 47.5582 59.8559 47.6475 60.0523 47.6653C61.9334 47.8201 63.5942 46.4123 63.749 44.5312L64.2461 38.4058C64.4008 36.5218 62.993 34.8669 61.1119 34.7151C61.0881 34.7121 61.0703 34.7121 61.0494 34.7121ZM60.3351 48.5106C60.219 48.5106 60.1029 48.5047 59.9839 48.4957C59.5642 48.46 59.1862 48.2665 58.9154 47.9481C58.6415 47.6266 58.5106 47.2218 58.5463 46.8022L59.4839 35.3193C59.5196 34.9026 59.713 34.5216 60.0315 34.2508C60.353 33.9799 60.7607 33.849 61.1774 33.8847C63.5198 34.0722 65.2699 36.1348 65.0794 38.4743L64.5764 44.5996C64.3949 46.82 62.5257 48.5106 60.3351 48.5106Z" fill="black"/>
</g>
</g>
<mask id="mask24_4392_845" style="mask-type:luminance" maskUnits="userSpaceOnUse" x="32" y="14" width="31" height="17">
<path d="M32.1318 14.7539H62.2379V30.6091H32.1318V14.7539Z" fill="white"/>
</mask>
<g mask="url(#mask24_4392_845)">
<mask id="mask25_4392_845" style="mask-type:luminance" maskUnits="userSpaceOnUse" x="-64" y="-2" width="223" height="222">
<path d="M101.154 217.46L94.3113 163.275L136.6 150.732L158.521 51.9879C149.767 -1.87263 75.5393 -1.04223 74.5065 -1.04223L-29.8275 22.1616C-30.8633 22.1616 -31.5925 22.998 -31.4645 24.0308L-63.6689 36.8709V119.689L-26.738 158.328L-12.9128 170.93L-7.03738 217.46C-6.90642 218.493 -5.96291 219.329 -4.9301 219.329H99.52C100.553 219.329 101.285 218.493 101.154 217.46Z" fill="white"/>
</mask>
<g mask="url(#mask25_4392_845)">
<path d="M61.8182 30.5443C61.586 30.5443 61.4015 30.3598 61.4015 30.1276V28.9311C61.4015 21.5825 55.4189 15.6029 48.0643 15.6029H46.4005C39.0459 15.6029 33.0634 21.5825 33.0634 28.9311C33.0634 29.1603 32.8759 29.3449 32.6467 29.3449C32.4175 29.3449 32.23 29.1603 32.23 28.9311C32.23 21.1211 38.5875 14.7695 46.4005 14.7695H48.0643C55.8773 14.7695 62.2319 21.1211 62.2319 28.9311V30.1276C62.2319 30.3598 62.0473 30.5443 61.8182 30.5443Z" fill="#2DB2C4"/>
</g>
</g>
</g>
<rect x="0.5" y="0.5" width="93" height="93" rx="46.5" stroke="black"/>
<defs>
<clipPath id="clip0_4392_845">
<rect width="94" height="94" rx="47" fill="white"/>
</clipPath>
</defs>
</svg>
