<svg width="16" height="16" viewBox="0 0 16 16" fill="none" xmlns="http://www.w3.org/2000/svg">
<path fill-rule="evenodd" clip-rule="evenodd" d="M8 15.5C8.98491 15.5 9.96018 15.306 10.8701 14.9291C11.7801 14.5522 12.6069 13.9997 13.3033 13.3033C13.9997 12.6069 14.5522 11.7801 14.9291 10.8701C15.306 9.96018 15.5 8.98491 15.5 8C15.5 7.01509 15.306 6.03982 14.9291 5.12987C14.5522 4.21993 13.9997 3.39314 13.3033 2.6967C12.6069 2.00026 11.7801 1.44781 10.8701 1.0709C9.96018 0.693993 8.98491 0.5 8 0.5C6.01088 0.5 4.10322 1.29018 2.6967 2.6967C1.29018 4.10322 0.5 6.01088 0.5 8C0.5 9.98912 1.29018 11.8968 2.6967 13.3033C4.10322 14.7098 6.01088 15.5 8 15.5ZM7.80667 11.0333L11.9733 6.03333L10.6933 4.96667L7.11 9.26583L5.25583 7.41083L4.0775 8.58917L6.5775 11.0892L7.2225 11.7342L7.80667 11.0333Z" fill="#777777"/>
</svg>
