<svg width="25" height="25" viewBox="0 0 40 40" fill="none" xmlns="http://www.w3.org/2000/svg">
<ellipse cx="20" cy="19.9842" rx="20" ry="19.9842" fill="white"/>
<path d="M19.01 20.6862L20 19.9345L20.9808 20.677C21.3383 20.9429 21.8241 20.6037 21.6958 20.1729L21.3108 18.9262L22.4108 18.0554C22.75 17.7987 22.5575 17.2487 22.1175 17.2487H20.8341L20.44 16.0204C20.4098 15.9287 20.3515 15.8488 20.2733 15.7922C20.1951 15.7356 20.1011 15.7051 20.0045 15.7051C19.908 15.7051 19.814 15.7356 19.7358 15.7922C19.6576 15.8488 19.5993 15.9287 19.5691 16.0204L19.1658 17.2487H17.8733C17.4425 17.2487 17.25 17.7987 17.5891 18.0645L18.68 18.9354L18.295 20.182C18.1666 20.6129 18.6525 20.952 19.01 20.6862ZM14.5 28.8079C14.5 29.4312 15.1141 29.8712 15.71 29.6787L20 28.2487L24.29 29.6787C24.4281 29.7258 24.5754 29.7391 24.7197 29.7177C24.864 29.6962 25.0011 29.6405 25.1195 29.5553C25.238 29.4701 25.3343 29.3578 25.4004 29.2278C25.4666 29.0977 25.5007 28.9538 25.5 28.8079V23.0054C26.6819 21.6702 27.3341 19.9485 27.3333 18.1654C27.3333 14.1137 24.0516 10.832 20 10.832C15.9483 10.832 12.6666 14.1137 12.6666 18.1654C12.6666 20.0262 13.3633 21.7129 14.5 23.0054V28.8079ZM20 12.6654C23.0341 12.6654 25.5 15.1312 25.5 18.1654C25.5 21.1995 23.0341 23.6654 20 23.6654C16.9658 23.6654 14.5 21.1995 14.5 18.1654C14.5 15.1312 16.9658 12.6654 20 12.6654Z" fill="#2DB2C4"/>
</svg>
