<svg width="18" height="18" viewBox="0 0 23 24" fill="none" xmlns="http://www.w3.org/2000/svg">
<path d="M19.8656 12.2454C17.7815 14.2925 14.7529 15.5807 11.3819 15.5807C8.01098 15.5807 4.98231 14.2925 2.89821 12.2454C4.98231 10.1984 8.01098 8.91016 11.3819 8.91016C14.7529 8.91016 17.7815 10.1984 19.8656 12.2454Z" fill="white"/>
<path fill-rule="evenodd" clip-rule="evenodd" d="M0 18.916C0 13.3899 5.09585 8.91016 11.3819 8.91016C8.01096 8.91016 4.98231 10.1984 2.89821 12.2454C4.98231 14.2925 8.01098 15.5807 11.3819 15.5807C14.7528 15.5807 17.7815 14.2925 19.8656 12.2454C21.6679 14.0157 22.7638 16.3533 22.7638 18.916V22.696C22.7638 23.1872 22.3108 23.5854 21.7521 23.5854H1.01172C0.452964 23.5854 0 23.1872 0 22.696V18.916ZM19.8656 12.2454C19.8656 12.2454 19.8656 12.2454 19.8656 12.2454Z" fill="#7CD4FD"/>
<path fill-rule="evenodd" clip-rule="evenodd" d="M7.11268 14.8538C5.4875 14.2753 4.04888 13.3764 2.89821 12.2462C4.98231 10.1992 8.01098 8.91092 11.3819 8.91092C14.7528 8.91092 17.7815 10.1992 19.8656 12.2462C19.8656 12.2462 19.8656 12.2462 19.8656 12.2462C21.6679 10.476 22.7638 8.13831 22.7638 5.57564V1.79566C22.7638 1.30445 22.3108 0.906252 21.7521 0.906252L1.01172 0.90625C0.452965 0.90625 4.24751e-07 1.30445 3.75903e-07 1.79566L0 5.57564C-7.56051e-07 9.77448 2.94199 13.3692 7.11268 14.8538Z" fill="#0BA5EC"/>
</svg>
