<svg width="35" height="35" viewBox="0 0 43 43" fill="none" xmlns="http://www.w3.org/2000/svg">
<g clip-path="url(#clip0_4485_42741)">
<path d="M21.5004 0.859375C10.1011 0.859375 0.860352 10.1001 0.860352 21.4994C0.860352 32.8987 10.1011 42.1394 21.5004 42.1394C32.8997 42.1394 42.1404 32.8987 42.1404 21.4994C42.1404 10.1001 32.8997 0.859375 21.5004 0.859375ZM16.4479 30.0542H12.2683V16.6038H16.4479V30.0542ZM14.3323 14.9526C13.0122 14.9526 12.1586 14.0174 12.1586 12.8607C12.1586 11.6803 13.038 10.773 14.386 10.773C15.7341 10.773 16.5597 11.6803 16.5855 12.8607C16.5855 14.0174 15.7341 14.9526 14.3323 14.9526ZM31.7129 30.0542H27.5333V22.6002C27.5333 20.8651 26.927 19.6869 25.4155 19.6869C24.261 19.6869 23.5751 20.4846 23.272 21.2521C23.1602 21.5252 23.1322 21.9122 23.1322 22.297V30.0521H18.9505V20.8931C18.9505 19.2139 18.8967 17.81 18.8408 16.6017H22.4722L22.6635 18.47H22.7474C23.2978 17.5928 24.6458 16.2985 26.9012 16.2985C29.651 16.2985 31.7129 18.1411 31.7129 22.1014V30.0542Z" fill="#2DB2C4"/>
</g>
<defs>
<clipPath id="clip0_4485_42741">
<rect width="43" height="43" fill="white"/>
</clipPath>
</defs>
</svg>
