<svg width="19" height="18" viewBox="0 0 19 18" fill="none" xmlns="http://www.w3.org/2000/svg">
<path d="M12 7.001L11.26 6.878C11.2421 6.98544 11.2479 7.09548 11.2769 7.20046C11.3058 7.30545 11.3573 7.40288 11.4277 7.48596C11.4982 7.56904 11.5858 7.63578 11.6847 7.68155C11.7835 7.72732 11.8911 7.75102 12 7.751V7.001ZM1 7.001V6.251C0.801088 6.251 0.610322 6.33002 0.46967 6.47067C0.329018 6.61132 0.25 6.80209 0.25 7.001H1ZM3 17.751H14.36V16.251H3V17.751ZM15.56 6.251H12V7.751H15.56V6.251ZM12.74 7.124L13.546 2.289L12.066 2.042L11.26 6.878L12.74 7.124ZM11.82 0.251H11.606V1.751H11.819L11.82 0.251ZM8.485 1.921L5.97 5.694L7.218 6.526L9.733 2.753L8.485 1.921ZM4.93 6.251H1V7.751H4.93V6.251ZM0.25 7.001V15.001H1.75V7.001H0.25ZM17.057 15.541L18.257 9.541L16.787 9.246L15.587 15.246L17.057 15.541ZM5.97 5.694C5.8559 5.86528 5.70127 6.00475 5.51985 6.10191C5.33842 6.19908 5.13581 6.24995 4.93 6.25V7.75C5.85 7.75 6.708 7.291 7.218 6.526L5.97 5.694ZM13.546 2.289C13.5877 2.03837 13.5743 1.78067 13.5067 1.53574C13.4392 1.29082 13.3191 1.06353 13.1549 0.86969C12.9906 0.675848 12.7861 0.520094 12.5556 0.413253C12.3251 0.306411 12.0741 0.251044 11.82 0.251L11.819 1.751C11.8552 1.75109 11.892 1.75906 11.9249 1.77436C11.9578 1.78966 11.9869 1.81192 12.0103 1.8396C12.0337 1.86728 12.0508 1.89972 12.0604 1.93467C12.07 1.96962 12.0719 2.00624 12.066 2.042L13.546 2.289ZM15.56 7.75C16.35 7.75 16.94 8.472 16.786 9.245L18.257 9.54C18.3366 9.14109 18.3267 8.7285 18.228 8.33389C18.1293 7.93927 17.9443 7.57146 17.6864 7.25696C17.4284 6.94246 17.1039 6.6891 16.7362 6.51515C16.3685 6.3412 15.9668 6.25098 15.56 6.251V7.75ZM14.36 17.751C14.9957 17.7511 15.6118 17.53 16.1035 17.1271C16.5952 16.7242 16.9322 16.1633 17.057 15.54L15.587 15.245C15.5303 15.5286 15.377 15.7838 15.1533 15.967C14.9296 16.1503 14.6492 16.2513 14.36 16.251V17.751ZM11.606 0.251C10.9887 0.251045 10.3809 0.402495 9.83662 0.69382C9.29235 0.985145 8.82841 1.40633 8.486 1.92L9.733 2.753C9.93854 2.44466 10.2171 2.19086 10.5438 2.01606C10.8706 1.84125 11.2354 1.75086 11.606 1.751V0.251ZM3 16.251C2.31 16.251 1.75 15.691 1.75 15.001H0.25C0.25 15.7303 0.539731 16.4298 1.05546 16.9455C1.57118 17.4613 2.27065 17.751 3 17.751V16.251Z" fill="#2DB2C4"/>
<path d="M5 7V17" stroke="#2DB2C4" stroke-width="1.5"/>
</svg>
