<svg width="14" height="18" viewBox="0 0 14 18" fill="none" xmlns="http://www.w3.org/2000/svg">
<path d="M6.99944 0.609375C8.84649 0.609375 10.6179 1.34311 11.9239 2.64917C13.23 3.95522 13.9637 5.72662 13.9637 7.57366C13.9637 10.5165 11.8959 13.7237 7.81373 17.2294C7.58674 17.4244 7.29734 17.5315 6.99811 17.5312C6.69887 17.5309 6.40966 17.4233 6.18301 17.2279L5.91301 16.9937C2.01158 13.5794 0.0351562 10.4508 0.0351562 7.57366C0.0351562 5.72662 0.768892 3.95522 2.07495 2.64917C3.38101 1.34311 5.1524 0.609375 6.99944 0.609375ZM6.99944 4.89509C6.28904 4.89509 5.60774 5.1773 5.10541 5.67963C4.60308 6.18195 4.32087 6.86326 4.32087 7.57366C4.32087 8.28406 4.60308 8.96537 5.10541 9.4677C5.60774 9.97003 6.28904 10.2522 6.99944 10.2522C7.70984 10.2522 8.39115 9.97003 8.89348 9.4677C9.39581 8.96537 9.67801 8.28406 9.67801 7.57366C9.67801 6.86326 9.39581 6.18195 8.89348 5.67963C8.39115 5.1773 7.70984 4.89509 6.99944 4.89509Z" fill="#2DB2C4"/>
</svg>
