<svg width="14" height="14" viewBox="0 0 14 14" fill="none" xmlns="http://www.w3.org/2000/svg">
<path fill-rule="evenodd" clip-rule="evenodd" d="M2.21055 0C1.62428 0 1.06201 0.221249 0.647456 0.615076C0.232897 1.0089 0 1.54305 0 2.1V11.9C0 12.457 0.232897 12.9911 0.647456 13.3849C1.06201 13.7788 1.62428 14 2.21055 14H6.63165C7.21793 14 7.78019 13.7788 8.19475 13.3849C8.60931 12.9911 8.84221 12.457 8.84221 11.9V2.1C8.84221 1.54305 8.60931 1.0089 8.19475 0.615076C7.78019 0.221249 7.21793 0 6.63165 0H2.21055ZM9.79495 3.7051C9.93313 3.57387 10.1205 3.50015 10.3159 3.50015C10.5113 3.50015 10.6987 3.57387 10.8369 3.7051L13.7843 6.5051C13.9224 6.63637 14 6.81438 14 7C14 7.18561 13.9224 7.36363 13.7843 7.4949L10.8369 10.2949C10.6979 10.4224 10.5118 10.493 10.3186 10.4914C10.1254 10.4898 9.94055 10.4162 9.80393 10.2864C9.66731 10.1566 9.58982 9.98102 9.58814 9.79748C9.58646 9.61394 9.66073 9.43712 9.79495 9.3051L11.4846 7.7H5.15795C4.96253 7.7 4.77511 7.62625 4.63692 7.49497C4.49873 7.3637 4.4211 7.18565 4.4211 7C4.4211 6.81435 4.49873 6.6363 4.63692 6.50503C4.77511 6.37375 4.96253 6.3 5.15795 6.3H11.4846L9.79495 4.6949C9.65681 4.56363 9.57921 4.38561 9.57921 4.2C9.57921 4.01439 9.65681 3.83637 9.79495 3.7051Z" fill="black"/>
</svg>
