<svg width="24" height="24" viewBox="0 0 24 24" fill="none" xmlns="http://www.w3.org/2000/svg">
<path d="M4.99951 10.3C4.99951 9.452 4.99951 8.845 5.03951 8.37C5.07751 7.901 5.14951 7.604 5.27151 7.365L4.38151 6.911C4.17551 7.314 4.08551 7.758 4.04151 8.289C3.99951 8.814 3.99951 9.469 3.99951 10.3H4.99951ZM4.99951 11.5V10.3H3.99951V11.5H4.99951ZM3.99951 11.5V16.5H4.99951V11.5H3.99951ZM3.99951 16.5V18.414H4.99951V16.5H3.99951ZM3.99951 18.414C3.99951 19.26 5.02251 19.684 5.62151 19.085L4.91451 18.378C4.92253 18.3713 4.93219 18.3668 4.94251 18.365C4.95119 18.3631 4.96022 18.3638 4.96851 18.367C4.97687 18.3717 4.98396 18.3783 4.98919 18.3863C4.99442 18.3943 4.99762 18.4035 4.99851 18.413L3.99951 18.414ZM5.62151 19.085L7.56051 17.146L6.85351 16.439L4.91351 18.379L5.62151 19.085ZM14.6995 16H7.91351V17H14.6995V16ZM17.6345 15.728C17.3955 15.85 17.0985 15.922 16.6295 15.961C16.1535 16 15.5475 16 14.6995 16V17C15.5315 17 16.1855 17 16.7105 16.957C17.2415 16.914 17.6855 16.824 18.0885 16.619L17.6345 15.728ZM18.7265 14.635C18.4869 15.1051 18.1046 15.4884 17.6345 15.728L18.0885 16.619C18.7473 16.2834 19.2829 15.7478 19.6185 15.089L18.7265 14.635ZM18.9995 11.7C18.9995 12.548 18.9995 13.155 18.9595 13.63C18.9215 14.099 18.8495 14.396 18.7265 14.635L19.6185 15.089C19.8235 14.686 19.9135 14.242 19.9565 13.711C19.9995 13.186 19.9995 12.531 19.9995 11.7H18.9995ZM18.9995 10.3V11.7H19.9995V10.3H18.9995ZM18.7265 7.365C18.8485 7.604 18.9215 7.901 18.9605 8.37C18.9995 8.845 18.9995 9.452 18.9995 10.3H19.9995C19.9995 9.468 19.9995 8.814 19.9565 8.289C19.9135 7.758 19.8235 7.314 19.6185 6.911L18.7265 7.365ZM17.6345 6.272C18.1048 6.51189 18.487 6.89451 18.7265 7.365L19.6185 6.911C19.2829 6.2522 18.7473 5.7166 18.0885 5.381L17.6345 6.272ZM14.6995 6C15.5475 6 16.1535 6 16.6295 6.04C17.0985 6.078 17.3955 6.15 17.6345 6.272L18.0885 5.381C17.6855 5.175 17.2415 5.086 16.7105 5.042C16.1855 5 15.5305 5 14.6995 5V6ZM9.29951 6H14.6995V5H9.29951V6ZM6.36451 6.272C6.60351 6.151 6.90051 6.078 7.36951 6.039C7.84451 6 8.45151 6 9.29951 6V5C8.46751 5 7.81351 5 7.28851 5.043C6.75751 5.086 6.31351 5.176 5.91051 5.381L6.36451 6.272ZM5.27151 7.365C5.51124 6.89435 5.89387 6.51172 6.36451 6.272L5.91051 5.381C5.25186 5.71634 4.71728 6.25257 4.38151 6.911L5.27151 7.365ZM7.56051 17.146C7.65422 17.0525 7.78116 17 7.91351 17V16C7.51582 16.0003 7.13455 16.1586 6.85351 16.44L7.56051 17.146Z" fill="#2DB2C4"/>
<path d="M8.49951 9.5H15.4995M8.49951 12.5H13.4995" stroke="#2DB2C4" stroke-linecap="round" stroke-linejoin="round"/>
</svg>
