<svg width="15" height="14" viewBox="0 0 15 14" fill="none" xmlns="http://www.w3.org/2000/svg">
<path d="M4.9 0H0.7C0.514348 0 0.336301 0.0737498 0.205025 0.205025C0.0737498 0.336301 0 0.514348 0 0.7V4.9C0 5.08565 0.0737498 5.2637 0.205025 5.39497C0.336301 5.52625 0.514348 5.6 0.7 5.6H4.9C5.08565 5.6 5.2637 5.52625 5.39497 5.39497C5.52625 5.2637 5.6 5.08565 5.6 4.9V0.7C5.6 0.514348 5.52625 0.336301 5.39497 0.205025C5.2637 0.0737498 5.08565 0 4.9 0ZM4.9 8.4H0.7C0.514348 8.4 0.336301 8.47375 0.205025 8.60503C0.0737498 8.7363 0 8.91435 0 9.1V13.3C0 13.4857 0.0737498 13.6637 0.205025 13.795C0.336301 13.9263 0.514348 14 0.7 14H4.9C5.08565 14 5.2637 13.9263 5.39497 13.795C5.52625 13.6637 5.6 13.4857 5.6 13.3V9.1C5.6 8.91435 5.52625 8.7363 5.39497 8.60503C5.2637 8.47375 5.08565 8.4 4.9 8.4ZM13.3 0H9.1C8.91435 0 8.7363 0.0737498 8.60503 0.205025C8.47375 0.336301 8.4 0.514348 8.4 0.7V4.9C8.4 5.08565 8.47375 5.2637 8.60503 5.39497C8.7363 5.52625 8.91435 5.6 9.1 5.6H13.3C13.4857 5.6 13.6637 5.52625 13.795 5.39497C13.9263 5.2637 14 5.08565 14 4.9V0.7C14 0.514348 13.9263 0.336301 13.795 0.205025C13.6637 0.0737498 13.4857 0 13.3 0Z" fill="#2DB2C4"/>
<path d="M9.09998 8.40039H14M11.55 10.8504H14M9.09998 13.3004H14" stroke="#2DB2C4" stroke-linecap="round" stroke-linejoin="round"/>
</svg>
