<svg width="30" height="30" viewBox="0 0 42 43" fill="none" xmlns="http://www.w3.org/2000/svg">
<path d="M41.4453 12.7692V12.9204C41.4453 14.7026 41.4453 15.5957 41.0163 16.3252C40.5874 17.0546 39.8061 17.4877 38.2478 18.356L36.6045 19.2678C37.736 15.4382 38.1152 11.3227 38.254 7.80401L38.2747 7.34604L38.2789 7.23828C39.6279 7.70661 40.3864 8.05683 40.8589 8.71166C41.4453 9.52606 41.4453 10.6078 41.4453 12.7692ZM0 12.7692V12.9204C0 14.7026 3.08792e-08 15.5957 0.428959 16.3252C0.857918 17.0546 1.63916 17.4877 3.19751 18.356L4.84288 19.2678C3.70935 15.4382 3.33013 11.3227 3.19129 7.80401L3.17057 7.34604L3.16849 7.23828C1.81738 7.70661 1.05893 8.05683 0.586451 8.71166C0 9.52606 0 10.6099 0 12.7692Z" fill="white"/>
<path fill-rule="evenodd" clip-rule="evenodd" d="M29.7932 0.719564C26.795 0.228172 23.7611 -0.0123537 20.7229 0.000488206C17.0281 0.000488206 13.9818 0.325834 11.6526 0.719564C9.29231 1.11744 8.11319 1.31638 7.12679 2.53072C6.14247 3.74507 6.19427 5.05682 6.29789 7.6803C6.65639 16.6905 8.60017 27.9471 19.1687 28.9417V36.2651H16.2054C15.7265 36.2654 15.2625 36.4316 14.8923 36.7353C14.522 37.0391 14.2684 37.4616 14.1746 37.9312L13.7808 39.8916H8.28933C7.87713 39.8916 7.48182 40.0553 7.19035 40.3468C6.89888 40.6383 6.73513 41.0336 6.73513 41.4458C6.73513 41.858 6.89888 42.2533 7.19035 42.5448C7.48182 42.8363 7.87713 43 8.28933 43H33.1565C33.5687 43 33.964 42.8363 34.2555 42.5448C34.547 42.2533 34.7107 41.858 34.7107 41.4458C34.7107 41.0336 34.547 40.6383 34.2555 40.3468C33.964 40.0553 33.5687 39.8916 33.1565 39.8916H27.665L27.2713 37.9312C27.1774 37.4616 26.9238 37.0391 26.5536 36.7353C26.1834 36.4316 25.7194 36.2654 25.2405 36.2651H22.2771V28.9417C32.8457 27.9471 34.7915 16.6926 35.148 7.6803C35.2516 5.05682 35.3055 3.743 34.3191 2.53072C33.3327 1.31638 32.1535 1.11744 29.7932 0.719564Z" fill="white"/>
</svg>
