<svg width="14" height="15" viewBox="0 0 14 15" fill="none" xmlns="http://www.w3.org/2000/svg">
<path d="M7 0C6.10169 0 5.24016 0.359623 4.60496 0.999757C3.96976 1.63989 3.6129 2.5081 3.6129 3.41338C3.6129 4.31867 3.96976 5.18688 4.60496 5.82701C5.24016 6.46714 6.10169 6.82677 7 6.82677C7.89831 6.82677 8.75984 6.46714 9.39504 5.82701C10.0302 5.18688 10.3871 4.31867 10.3871 3.41338C10.3871 2.5081 10.0302 1.63989 9.39504 0.999757C8.75984 0.359623 7.89831 0 7 0ZM3.3871 8.64724C2.48878 8.64724 1.62726 9.00686 0.992058 9.64699C0.356854 10.2871 0 11.1553 0 12.0606V13.142C0 13.8283 0.493161 14.4127 1.16516 14.5228C5.02916 15.1591 8.97084 15.1591 12.8348 14.5228C13.1601 14.4694 13.4559 14.3012 13.6693 14.0483C13.8828 13.7953 14 13.4741 14 13.142V12.0606C14 11.1553 13.6431 10.2871 13.0079 9.64699C12.3727 9.00686 11.5112 8.64724 10.6129 8.64724H10.3058C10.1387 8.64724 9.97252 8.67455 9.81445 8.72552L9.03226 8.98312C7.7117 9.41751 6.2883 9.41751 4.96774 8.98312L4.18555 8.72552C4.02717 8.67358 3.86165 8.64716 3.6951 8.64724H3.3871Z" fill="black"/>
</svg>
