<svg width="12" height="16" viewBox="0 0 12 16" fill="none" xmlns="http://www.w3.org/2000/svg">
<path d="M7.44925 0.933594C7.4973 0.933594 7.54338 0.95268 7.57735 0.986654C7.61132 1.02063 7.63041 1.06671 7.63041 1.11475V5.20678C7.63041 5.50678 7.87389 5.75026 8.17389 5.75026H11.4348C11.4828 5.75026 11.5289 5.76935 11.5629 5.80332C11.5968 5.83729 11.6159 5.88337 11.6159 5.93142V13.0713C11.6159 13.5998 11.406 14.1067 11.0323 14.4804C10.6585 14.8541 10.1517 15.064 9.62316 15.064H2.37679C1.84828 15.064 1.34141 14.8541 0.967697 14.4804C0.593983 14.1067 0.384033 13.5998 0.384033 13.0713V2.92635C0.384033 2.39784 0.593983 1.89097 0.967697 1.51726C1.34141 1.14354 1.84828 0.933594 2.37679 0.933594H7.44925Z" fill="#2DB2C4"/>
</svg>
