<svg width="50" height="50" viewBox="0 0 94 64" fill="none" xmlns="http://www.w3.org/2000/svg">
<path d="M20.4367 23.25C24.4604 23.25 28.3936 24.4431 31.7391 26.6785C35.0846 28.9139 37.6922 32.0912 39.2319 35.8085C40.7717 39.5259 41.1746 43.6163 40.3896 47.5626C39.6046 51.5089 37.6671 55.1338 34.822 57.979C31.9768 60.8241 28.3519 62.7616 24.4056 63.5466C20.4593 64.3316 16.3689 63.9287 12.6515 62.3889C8.9342 60.8492 5.75694 58.2416 3.52154 54.8961C1.28614 51.5506 0.093 47.6174 0.093 43.5938L0 40.6875C0 29.8965 4.28671 19.5475 11.9171 11.9171C19.5475 4.28671 29.8965 0 40.6875 0V11.625C36.8693 11.6147 33.0869 12.3615 29.5591 13.8221C26.0313 15.2827 22.828 17.4282 20.1345 20.1345C19.0876 21.1794 18.1219 22.3025 17.2457 23.4941C18.2861 23.3314 19.3498 23.2442 20.4309 23.2442L20.4367 23.25ZM72.7492 23.25C76.7729 23.25 80.7061 24.4431 84.0516 26.6785C87.3971 28.9139 90.0047 32.0912 91.5444 35.8085C93.0842 39.5259 93.4871 43.6163 92.7021 47.5626C91.9171 51.5089 89.9796 55.1338 87.1344 57.979C84.2893 60.8241 80.6644 62.7616 76.7181 63.5466C72.7718 64.3316 68.6814 63.9287 64.964 62.3889C61.2467 60.8492 58.0694 58.2416 55.834 54.8961C53.5986 51.5506 52.4055 47.6174 52.4055 43.5938L52.3125 40.6875C52.3125 29.8965 56.5992 19.5475 64.2296 11.9171C71.86 4.28671 82.209 0 93 0V11.625C89.1818 11.6147 85.3994 12.3615 81.8716 13.8221C78.3438 15.2827 75.1405 17.4282 72.447 20.1345C71.4001 21.1794 70.4344 22.3025 69.5582 23.4941C70.5986 23.3314 71.6623 23.25 72.7492 23.25Z" fill="#2DB2C4"/>
</svg>
