<svg width="15" height="15" viewBox="0 0 20 20" fill="none" xmlns="http://www.w3.org/2000/svg">
<path d="M19 19.0002L14.657 14.6572M14.657 14.6572C15.3999 13.9143 15.9892 13.0324 16.3912 12.0618C16.7933 11.0911 17.0002 10.0508 17.0002 9.00021C17.0002 7.9496 16.7933 6.90929 16.3912 5.93866C15.9892 4.96803 15.3999 4.08609 14.657 3.34321C13.9141 2.60032 13.0322 2.01103 12.0615 1.60898C11.0909 1.20693 10.0506 1 8.99999 1C7.94939 1 6.90908 1.20693 5.93845 1.60898C4.96782 2.01103 4.08588 2.60032 3.34299 3.34321C1.84266 4.84354 0.999786 6.87842 0.999786 9.00021C0.999786 11.122 1.84266 13.1569 3.34299 14.6572C4.84332 16.1575 6.87821 17.0004 8.99999 17.0004C11.1218 17.0004 13.1567 16.1575 14.657 14.6572Z" stroke="#777777" stroke-width="2" stroke-linecap="round" stroke-linejoin="round"/>
</svg>
