<svg width="14" height="14" viewBox="0 0 14 14" fill="none" xmlns="http://www.w3.org/2000/svg">
<path fill-rule="evenodd" clip-rule="evenodd" d="M10.6757 1.48678C9.99912 1.48678 9.45064 2.03525 9.45064 2.71183C9.45064 2.92421 9.50468 3.12396 9.59976 3.29809C9.60605 3.30761 9.61211 3.31736 9.61793 3.32733C9.6238 3.33739 9.62935 3.34754 9.63458 3.35778C9.85074 3.70544 10.2362 3.93689 10.6757 3.93689C11.3523 3.93689 11.9008 3.38841 11.9008 2.71183C11.9008 2.03525 11.3523 1.48678 10.6757 1.48678ZM8.93437 4.43545C9.37844 4.88404 9.99461 5.16195 10.6757 5.16195C12.0289 5.16195 13.1258 4.06499 13.1258 2.71183C13.1258 1.35867 12.0289 0.261719 10.6757 0.261719C9.32254 0.261719 8.22559 1.35867 8.22559 2.71183C8.22559 2.94249 8.25746 3.1657 8.31704 3.3773L5.06701 5.27395C4.6229 4.82501 4.00649 4.54688 3.32511 4.54688C1.97195 4.54688 0.875 5.64383 0.875 6.99699C0.875 8.35015 1.97195 9.4471 3.32511 9.4471C4.00499 9.4471 4.62018 9.17019 5.06407 8.723L8.31669 10.6184C8.2567 10.8306 8.22461 11.0546 8.22461 11.2861C8.22461 12.6392 9.32156 13.7362 10.6747 13.7362C12.0279 13.7362 13.1248 12.6392 13.1248 11.2861C13.1248 9.93289 12.0279 8.83594 10.6747 8.83594C9.99446 8.83594 9.37895 9.11317 8.93501 9.56081L5.68286 7.6657C5.74303 7.45314 5.77523 7.22882 5.77523 6.99699C5.77523 6.76662 5.74343 6.54367 5.68399 6.3323L8.93437 4.43545ZM4.36107 6.34281C4.36765 6.35624 4.37476 6.36953 4.38242 6.38266C4.38995 6.39555 4.39787 6.40807 4.40616 6.4202C4.49807 6.59209 4.55017 6.78845 4.55017 6.99699C4.55017 7.67357 4.00169 8.22205 3.32511 8.22205C2.64853 8.22205 2.10006 7.67357 2.10006 6.99699C2.10006 6.32041 2.64853 5.77193 3.32511 5.77193C3.76114 5.77193 4.14397 5.99973 4.36107 6.34281ZM9.62426 10.6714C9.61008 10.6957 9.59449 10.7187 9.57765 10.7403C9.49574 10.9046 9.44967 11.09 9.44967 11.2861C9.44967 11.9626 9.99814 12.5111 10.6747 12.5111C11.3513 12.5111 11.8998 11.9626 11.8998 11.2861C11.8998 10.6095 11.3513 10.061 10.6747 10.061C10.2528 10.061 9.88071 10.2743 9.66037 10.5989C9.65007 10.6235 9.63805 10.6477 9.62426 10.6714Z" fill="#808792"/>
</svg>
