<svg width="12" height="12" viewBox="0 0 16 17" fill="none" xmlns="http://www.w3.org/2000/svg">
<path d="M13 11.9833C12.3667 11.9833 11.8 12.2333 11.3667 12.625L5.425 9.16667C5.46667 8.975 5.5 8.78333 5.5 8.58333C5.5 8.38333 5.46667 8.19167 5.425 8L11.3 4.575C11.75 4.99167 12.3417 5.25 13 5.25C14.3833 5.25 15.5 4.13333 15.5 2.75C15.5 1.36667 14.3833 0.25 13 0.25C11.6167 0.25 10.5 1.36667 10.5 2.75C10.5 2.95 10.5333 3.14167 10.575 3.33333L4.7 6.75833C4.25 6.34167 3.65833 6.08333 3 6.08333C1.61667 6.08333 0.5 7.2 0.5 8.58333C0.5 9.96667 1.61667 11.0833 3 11.0833C3.65833 11.0833 4.25 10.825 4.7 10.4083L10.6333 13.875C10.5917 14.05 10.5667 14.2333 10.5667 14.4167C10.5667 15.7583 11.6583 16.85 13 16.85C14.3417 16.85 15.4333 15.7583 15.4333 14.4167C15.4333 13.075 14.3417 11.9833 13 11.9833Z" fill="black"/>
</svg>
