<svg width="12" height="12" viewBox="0 0 14 14" fill="none" xmlns="http://www.w3.org/2000/svg">
<path d="M6.36956 1.67258C6.43376 1.56243 6.52571 1.47103 6.63626 1.4075C6.7468 1.34398 6.87207 1.31055 6.99956 1.31055C7.12706 1.31055 7.25233 1.34398 7.36287 1.4075C7.47342 1.47103 7.56537 1.56243 7.62956 1.67258L9.25998 4.47142L12.4263 5.15742C12.5509 5.18448 12.6661 5.24372 12.7607 5.32923C12.8552 5.41473 12.9256 5.52352 12.965 5.64475C13.0044 5.76597 13.0113 5.8954 12.985 6.02012C12.9588 6.14484 12.9003 6.26051 12.8154 6.35558L10.6571 8.77117L10.9837 11.9941C10.9966 12.121 10.976 12.2491 10.9239 12.3655C10.8718 12.4819 10.7901 12.5827 10.6869 12.6577C10.5837 12.7326 10.4626 12.7792 10.3358 12.7928C10.209 12.8063 10.0808 12.7864 9.96406 12.7349L6.99956 11.4283L4.03506 12.7349C3.91835 12.7864 3.79017 12.8063 3.66334 12.7928C3.5365 12.7792 3.41544 12.7326 3.31224 12.6577C3.20904 12.5827 3.12732 12.4819 3.07523 12.3655C3.02314 12.2491 3.00251 12.121 3.0154 11.9941L3.34206 8.77117L1.18373 6.35617C1.0987 6.2611 1.04009 6.14539 1.01376 6.02059C0.987423 5.89579 0.994288 5.76626 1.03366 5.64494C1.07304 5.52362 1.14355 5.41476 1.23816 5.32921C1.33277 5.24366 1.44816 5.18443 1.57281 5.15742L4.73915 4.47142L6.36956 1.67258Z" fill="white"/>
</svg>
