<svg width="20" height="20" viewBox="0 0 20 20" fill="none" xmlns="http://www.w3.org/2000/svg">
<path d="M7.94412 1.13735C7.80333 1.17004 7.66343 1.20653 7.52414 1.24568L7.71341 1.92276C7.84137 1.88664 7.96994 1.85318 8.10312 1.82226C12.6235 0.772846 17.1338 3.58353 18.1832 8.10394C19.2326 12.6244 16.4219 17.1346 11.9015 18.184C8.49219 18.9755 5.08861 17.5721 3.17145 14.8933L4.14947 14.3334L2.00369 13.4561L1.76025 15.6981L2.55911 15.244C4.62941 18.18 8.34678 19.7311 12.0605 18.8689C16.9538 17.7329 20.0041 12.8382 18.8681 7.94494C17.7321 3.05163 12.8374 0.00136693 7.94412 1.13735ZM6.79018 1.48705C6.29957 1.67112 5.83769 1.89264 5.39633 2.15069L5.76038 2.75151C6.16289 2.51611 6.59264 2.31168 7.03891 2.14391L6.79018 1.48705ZM4.75486 2.56588C4.32764 2.86757 3.93226 3.20278 3.56793 3.56806L4.06377 4.0629C4.3988 3.72687 4.76417 3.41788 5.15696 3.14062L4.75486 2.56588ZM3.04301 4.13986C2.71307 4.53201 2.41668 4.9512 2.15696 5.39301L2.76199 5.74499C3.00034 5.33797 3.27558 4.95166 3.57682 4.59099L3.33615 4.3834L3.04301 4.13986ZM5.76332 3.85241L5.74995 4.55488L14.497 4.74906L14.5107 4.04811L5.76332 3.85241ZM1.7945 6.07386C1.57297 6.53432 1.39047 7.0178 1.24853 7.51192L1.92175 7.70852C2.05211 7.24917 2.22088 6.80497 2.425 6.37662L1.7945 6.07386ZM6.72864 5.28129C6.80991 6.30505 7.32279 7.35694 7.96857 8.16946C8.33046 8.6228 8.73149 9.0029 9.10045 9.26211C9.30178 9.40385 9.49339 9.50373 9.66095 9.5691L9.64275 10.4235C9.47125 10.4793 9.27637 10.5727 9.06662 10.7056C8.68544 10.9465 8.2681 11.308 7.88835 11.7451C7.20426 12.5295 6.64784 13.5529 6.52357 14.5722L13.276 14.725C13.1947 13.7012 12.6819 12.6493 12.0361 11.8368C11.6742 11.3835 11.2732 11.0034 10.9042 10.7442C10.7029 10.6024 10.5113 10.5026 10.3437 10.4372L10.3619 9.58282C10.5287 9.52404 10.7283 9.4336 10.938 9.30069C11.3192 9.05982 11.7365 8.69826 12.1163 8.26122C12.8004 7.47683 13.3568 6.4534 13.4811 5.43405L6.72864 5.28129ZM1.06661 8.26394C0.969802 8.76763 0.913056 9.27806 0.901441 9.79807L1.60367 9.80347C1.61472 9.32771 1.66661 8.85851 1.75627 8.39658L1.06661 8.26394ZM0.918203 10.5681C0.949096 11.0622 1.02081 11.5629 1.13653 12.0613L1.14448 12.0956L1.82762 11.929L1.82144 11.9023C1.71456 11.4419 1.64825 10.9801 1.61922 10.5217L0.918203 10.5681ZM5.50763 15.2572L5.49391 15.9582L14.2411 16.1531L14.2549 15.4522L5.50763 15.2572Z" fill="#777777"/>
</svg>
