<svg width="120" height="120" viewBox="0 0 190 114" fill="none" xmlns="http://www.w3.org/2000/svg">
<path d="M4.69308 22.3469C4.35116 21.2966 3.22253 20.7224 2.17221 21.0643C1.1219 21.4062 0.547629 22.5348 0.88955 23.5851L4.69308 22.3469ZM55.1151 75.4578L54.9508 77.451L55.1151 75.4578ZM101.501 20.3743L103.302 19.5046L101.501 20.3743ZM61.4983 13.7035L63.463 14.0777L63.463 14.0777L61.4983 13.7035ZM126.618 90.7268L127.356 88.8683L127.356 88.8683L126.618 90.7268ZM188.813 99.2911C189.551 98.4696 189.484 97.2051 188.662 96.4666L175.276 84.4328C174.455 83.6944 173.19 83.7617 172.452 84.5831C171.713 85.4045 171.781 86.6691 172.602 87.4075L184.501 98.1042L173.804 110.003C173.066 110.824 173.133 112.089 173.954 112.827C174.776 113.566 176.04 113.499 176.779 112.677L188.813 99.2911ZM0.88955 23.5851C4.0292 33.2296 11.3353 46.0996 20.8486 56.818C30.317 67.4858 42.319 76.4099 54.9508 77.451L55.2793 73.4645C44.2012 72.5514 33.0845 64.578 23.8402 54.1627C14.6408 43.798 7.63999 31.3993 4.69308 22.3469L0.88955 23.5851ZM54.9508 77.451C72.8 78.9222 88.5483 72.2037 98.0332 61.1895C107.556 50.1315 110.688 34.8012 103.302 19.5046L99.7002 21.2439C106.351 35.0176 103.551 48.6517 95.0021 58.5793C86.4153 68.5506 71.9523 74.8388 55.2793 73.4645L54.9508 77.451ZM103.302 19.5046C97.0399 6.53478 87.0486 1.01871 78.0306 0.752051C69.2063 0.491123 61.047 5.38481 59.5336 13.3292L63.463 14.0777C64.4924 8.67411 70.3588 4.52695 77.9124 4.7503C85.2722 4.96793 94.011 9.46126 99.7002 21.2439L103.302 19.5046ZM59.5336 13.3292C56.4627 29.4496 64.5639 45.8814 77.408 59.8031C90.2989 73.7757 108.286 85.5908 125.879 92.5853L127.356 88.8683C110.263 82.0723 92.7931 70.5801 80.3479 57.0908C67.8559 43.5506 60.741 28.366 63.463 14.0777L59.5336 13.3292ZM125.879 92.5853C137.792 97.3216 153.238 99.1395 165.564 99.7961C171.755 100.126 177.213 100.165 181.124 100.122C183.08 100.1 184.652 100.058 185.736 100.021C186.279 100.002 186.7 99.9848 186.986 99.9722C187.13 99.9659 187.24 99.9607 187.314 99.9571C187.352 99.9552 187.38 99.9538 187.4 99.9528C187.41 99.9523 187.417 99.9519 187.422 99.9516C187.425 99.9515 187.427 99.9514 187.429 99.9513C187.429 99.9513 187.43 99.9512 187.431 99.9512C187.431 99.9512 187.431 99.9512 187.325 97.954C187.219 95.9568 187.219 95.9568 187.219 95.9568C187.219 95.9568 187.219 95.9568 187.218 95.9568C187.218 95.9569 187.216 95.957 187.214 95.9571C187.211 95.9572 187.204 95.9576 187.196 95.958C187.179 95.9588 187.154 95.9601 187.12 95.9618C187.051 95.9651 186.947 95.97 186.81 95.9761C186.536 95.9882 186.129 96.0048 185.6 96.0229C184.543 96.059 183.002 96.1005 181.08 96.1218C177.233 96.1644 171.863 96.1259 165.777 95.8017C153.549 95.1504 138.641 93.3546 127.356 88.8683L125.879 92.5853Z" fill="white"/>
</svg>
