<svg width="50" height="50" viewBox="0 0 50 50" fill="none" xmlns="http://www.w3.org/2000/svg">
<g id="window 1">
<g id="Group">
<g id="Group_2">
<g id="Group_3">
<path id="Vector" d="M46.9956 2.28857H3.0047C1.34757 2.28857 0 3.63653 0 5.2934V44.7066C0 46.3635 1.34757 47.7113 3.0047 47.7113H46.9957C48.6523 47.7113 49.9999 46.3635 49.9999 44.7066V5.2934C50.0003 3.63666 48.6522 2.28857 46.9956 2.28857ZM37.9361 7.33427C37.9361 6.72155 38.4328 6.22472 39.0454 6.22472H40.1549C40.7679 6.22472 41.2642 6.72142 41.2642 7.33427V8.59171C41.2642 9.20443 40.7675 9.70113 40.1549 9.70113H39.0454C38.4328 9.70113 37.9361 9.20443 37.9361 8.59171V7.33427ZM32.7769 7.33427C32.7769 6.72155 33.2739 6.22472 33.8865 6.22472H34.9958C35.6084 6.22472 36.1053 6.72142 36.1053 7.33427V8.59171C36.1053 9.20443 35.6084 9.70113 34.9958 9.70113H33.8865C33.2739 9.70113 32.7769 9.20443 32.7769 8.59171V7.33427ZM46.3942 44.1055H3.60569V13.034H46.3942V44.1055ZM46.4234 8.59171C46.4234 9.20443 45.9267 9.70113 45.3141 9.70113H44.2045C43.5914 9.70113 43.0951 9.20443 43.0951 8.59171V7.33427C43.0951 6.72155 43.5918 6.22472 44.2045 6.22472H45.3141C45.9268 6.22472 46.4234 6.72142 46.4234 7.33427V8.59171Z" fill="white"/>
<path id="Vector_2" d="M10.7322 29.7416L18.7748 33.4816C18.9827 33.5779 19.204 33.6267 19.4329 33.6267C19.731 33.6267 20.0215 33.5421 20.2741 33.3814C20.7263 33.0924 20.9964 32.5999 20.9964 32.0639V32.0229C20.9964 31.417 20.6414 30.8607 20.0918 30.6054L15.0616 28.2683L20.0918 25.9309C20.6414 25.6754 20.9964 25.1191 20.9964 24.5136V24.4729C20.9964 23.9362 20.7263 23.4434 20.2741 23.1554C20.0241 22.9957 19.7327 22.9111 19.432 22.9111C19.2052 22.9111 18.9777 22.961 18.7741 23.0556L10.732 26.7953C10.1829 27.0508 9.82813 27.6072 9.82813 28.2126V28.3244C9.828 28.9288 10.1825 29.4851 10.7322 29.7416Z" fill="white"/>
<path id="Vector_3" d="M21.0681 37.3593C21.3614 37.7608 21.8333 38.0006 22.3302 38.0006H22.3705C23.0528 38.0006 23.6506 37.5638 23.8586 36.9148L29.1564 20.499C29.3084 20.0252 29.2241 19.5022 28.9307 19.1C28.6373 18.6984 28.1655 18.4587 27.6684 18.4587H27.6282C26.9456 18.4587 26.3472 18.8954 26.1393 19.5444L20.8409 35.9615C20.6901 36.4359 20.775 36.9581 21.0681 37.3593Z" fill="white"/>
<path id="Vector_4" d="M29.002 24.5134C29.002 25.1184 29.3568 25.6747 29.9065 25.9315L34.9366 28.2683L29.9065 30.6052C29.357 30.8607 29.002 31.417 29.002 32.0226V32.0637C29.002 32.5998 29.2719 33.0923 29.7246 33.3814C29.9762 33.5418 30.2669 33.6267 30.5654 33.6267C30.794 33.6267 31.0152 33.5779 31.2245 33.4811L39.2666 29.7412C39.8157 29.4851 40.1705 28.9288 40.1705 28.3241V28.2123C40.1705 27.607 39.8157 27.0505 39.2661 26.795L31.224 23.0553C31.0211 22.961 30.794 22.9111 30.5672 22.9111C30.2669 22.9111 29.9752 22.9954 29.7252 23.1549C29.2725 23.4434 29.0023 23.936 29.0023 24.4728V24.5133H29.002V24.5134Z" fill="white"/>
</g>
</g>
</g>
</g>
</svg>
