<svg width="50" height="50" viewBox="0 0 50 50" fill="none" xmlns="http://www.w3.org/2000/svg">
<g id="file 1" clip-path="url(#clip0_449_34522)">
<path id="Vector" d="M40.9091 8.63636V0.8L49.2 9.09091H41.3636C41.1091 9.09091 40.9091 8.89091 40.9091 8.63636ZM41.3636 11.8182C39.6182 11.8182 38.1818 10.3818 38.1818 8.63636V0H15.9091C13.1455 0 10.9091 2.23636 10.9091 5V13.0182C13.0364 12.2545 15.3273 11.8182 17.7273 11.8182C29 11.8182 38.1818 21 38.1818 32.2727C38.1818 39.8545 34.0364 46.4727 27.8909 50H45C47.7636 50 50 47.7636 50 45V11.8182H41.3636ZM35.4545 32.2727C35.4545 42.0545 27.5091 50 17.7273 50C7.94545 50 0 42.0545 0 32.2727C0 22.4909 7.94545 14.5455 17.7273 14.5455C27.5091 14.5455 35.4545 22.4909 35.4545 32.2727ZM8.63636 33.6364C9.38182 33.6364 10 33.0182 10 32.2727C10 28.0182 13.4727 24.5455 17.7273 24.5455C19.0182 24.5455 20.2364 24.8727 21.3273 25.4545C20.5818 25.4727 20 26.0727 20 26.8182C20 27.5636 20.6182 28.1818 21.3636 28.1818H25C25.7455 28.1818 26.3636 27.5636 26.3636 26.8182V23.1818C26.3636 22.4364 25.7455 21.8182 25 21.8182C24.2545 21.8182 23.6364 22.4364 23.6364 23.1818V23.6545C21.9273 22.4727 19.8909 21.8182 17.7273 21.8182C11.9636 21.8182 7.27273 26.5091 7.27273 32.2727C7.27273 33.0182 7.89091 33.6364 8.63636 33.6364ZM28.1818 32.2727C28.1818 31.5273 27.5636 30.9091 26.8182 30.9091C26.0727 30.9091 25.4545 31.5273 25.4545 32.2727C25.4545 36.5273 21.9818 40 17.7273 40C16.4364 40 15.2 39.6727 14.0909 39.0909C14.8364 39.0909 15.4545 38.4727 15.4545 37.7273C15.4545 36.9818 14.8364 36.3636 14.0909 36.3636H10.4545C9.70909 36.3636 9.09091 36.9818 9.09091 37.7273V41.3636C9.09091 42.1091 9.70909 42.7273 10.4545 42.7273C11.2 42.7273 11.8182 42.1091 11.8182 41.3636V40.8909C13.5273 42.0727 15.5636 42.7273 17.7273 42.7273C23.4909 42.7273 28.1818 38.0364 28.1818 32.2727Z" fill="white"/>
</g>
<defs>
<clipPath id="clip0_449_34522">
<rect width="50" height="50" fill="white"/>
</clipPath>
</defs>
</svg>
