<svg width="50" height="50" viewBox="0 0 50 50" fill="none" xmlns="http://www.w3.org/2000/svg">
<g id="group 1">
<g id="Group">
<path id="Vector" d="M32.1004 9.10005H26.7004V6.00005C26.7004 4.80005 25.7004 3.80005 24.5004 3.80005H16.6004C15.4004 3.80005 14.4004 4.80005 14.4004 6.00005V13.9C14.4004 14.1 14.5004 14.3 14.7004 14.3C14.8004 14.3 14.8004 14.4 14.9004 14.4C15.0004 14.4 15.1004 14.4 15.2004 14.3L18.2004 12.2H22.0004V15.3C22.0004 16.5 23.0004 17.5 24.2004 17.5H30.5004L33.5004 19.6C33.6004 19.7 33.7004 19.7 33.8004 19.7H34.0004C34.2004 19.6 34.3004 19.4 34.3004 19.2V11.3C34.3004 10.1 33.3004 9.10005 32.1004 9.10005ZM22.1004 11.2H18.1004C18.0004 11.2 17.9004 11.2 17.8004 11.3L15.5004 12.9V6.00005C15.5004 5.30005 16.0004 4.80005 16.7004 4.80005H24.6004C25.2004 4.80005 25.8004 5.30005 25.8004 6.00005V9.10005H24.4004C23.1004 9.10005 22.2004 10 22.1004 11.2ZM30.8004 14.7H27.9004C27.6004 14.7 27.4004 14.5 27.4004 14.2C27.4004 13.9 27.6004 13.7 27.9004 13.7H30.8004C31.1004 13.7 31.3004 13.9 31.3004 14.2C31.3004 14.5 31.1004 14.7 30.8004 14.7ZM30.8004 12.8H25.5004C25.2004 12.8 25.0004 12.6 25.0004 12.3C25.0004 12 25.2004 11.8 25.5004 11.8H30.8004C31.1004 11.8 31.3004 12 31.3004 12.3C31.3004 12.6 31.1004 12.8 30.8004 12.8Z" fill="white"/>
<path id="Vector_2" d="M18 7.6001H23.3C23.6 7.6001 23.8 7.4001 23.8 7.1001C23.8 6.8001 23.6 6.6001 23.3 6.6001H18C17.7 6.6001 17.5 6.8001 17.5 7.1001C17.5 7.4001 17.7 7.6001 18 7.6001Z" fill="white"/>
<path id="Vector_3" d="M20.9 9.5C21.2 9.5 21.4 9.3 21.4 9C21.4 8.7 21.2 8.5 20.9 8.5H18C17.7 8.5 17.5 8.7 17.5 9C17.5 9.3 17.7 9.5 18 9.5H20.9Z" fill="white"/>
<path id="Vector_4" d="M43.6 14.6002C43.4 16.2002 42.1 17.4002 40.5 17.4002C40.4 17.4002 40.3 17.4002 40.2 17.4002C39.4 17.3002 38.6 16.9002 38.1 16.3002C37.6 15.7002 37.3 14.9002 37.4 14.0002C37.6 12.3002 39.1 11.1002 40.8 11.2002C41.6 11.3002 42.4 11.7002 42.9 12.3002C43.4 13.0002 43.7 13.8002 43.6 14.6002Z" fill="white"/>
<path id="Vector_5" d="M44.0004 20.6C43.9004 20.5 44.0004 20.5 44.0004 20.6C43.9004 19.8 43.6004 19.2 42.9004 18.8C42.3004 18.5 41.6004 18.3 40.5004 18.2C39.6004 18.2 36.9004 18.1 36.8004 20.7C36.7004 23.7 36.3004 26.5 35.6004 28.9L32.8004 28.5C31.9004 28.4 30.9004 28.6 30.2004 29.2C29.5004 29.8 29.0004 30.6 28.9004 31.5C28.6004 34.8 28.0004 40.5 27.9004 42.1C27.9004 43.2 28.8004 43.9 29.6004 43.9H29.7004C30.5004 43.9 31.4004 43.3 31.5004 42.3C31.7004 39.9 32.3004 35.5 32.5004 34.1L38.8004 34.7C39.7004 34.8 40.6004 34.6 41.2004 34C41.9004 33.4 42.3004 32.6 42.3004 31.7C42.3004 31.6 42.3004 31.6 42.3004 31.5C42.8004 30.9 43.0004 30 43.2004 29.3C43.3004 29 43.3004 28.8 43.4004 28.6C44.0004 26.1 44.2004 23.4 44.0004 20.6ZM42.5004 28.4C42.4004 28.6 42.4004 28.9 42.3004 29.2C42.1004 29.9 41.8004 31 41.3004 31.3C41.2004 31.3 41.1004 31.4 40.8004 31.3C40.7004 31.2 40.5004 31.1 40.5004 31C40.4004 30.9 40.4004 30.7 40.5004 30.5C41.0004 29.3 41.3004 27.7 41.4004 25.8C41.4004 25 41.4004 24.2 41.4004 23.5C41.4004 23.2 41.2004 23 40.9004 23C40.6004 23 40.4004 23.3 40.4004 23.5V25.8C40.3004 27.5 40.1004 28.8 39.7004 29.9L36.6004 29.2C37.3004 26.7 37.7004 23.9 37.8004 20.8C37.8004 20 38.1004 19.2 40.4004 19.3C41.3004 19.3 41.9004 19.5 42.3004 19.7C42.7004 20 42.9004 20.3 42.9004 20.9C43.2004 23.5 43.0004 26 42.5004 28.4Z" fill="white"/>
<path id="Vector_6" d="M21.1011 31.5C21.0011 30.6 20.6011 29.7 19.8011 29.2C19.1011 28.6 18.1011 28.4 17.2011 28.5L14.4011 28.9C13.7011 26.5 13.3011 23.7 13.2011 20.7C13.1011 18.1 10.4011 18.2 9.50111 18.2C8.40111 18.2 7.70111 18.4 7.10111 18.8C6.50111 19.2 6.10111 19.8 6.00111 20.5C5.70111 23.4 5.90111 26 6.50111 28.7C6.60111 28.9 6.60111 29.1 6.70111 29.4C7.00111 30.2 7.20111 31 7.60111 31.6V31.8C7.60111 32.7 8.00111 33.5 8.70111 34.1C9.40111 34.7 10.3011 34.9 11.1011 34.8L17.4011 34.2C17.6011 35.6 18.1011 40 18.4011 42.4C18.5011 43.5 19.4011 44 20.2011 44H20.3011C21.2011 44 22.0011 43.3 22.0011 42.1C22.0011 40.6 21.4011 34.8 21.1011 31.5ZM10.3011 29.8C9.90111 28.7 9.70111 27.4 9.60111 25.7C9.60111 24.9 9.60111 24.2 9.60111 23.4C9.60111 23.1 9.40111 22.9 9.10111 22.9C8.80111 22.9 8.60111 23.1 8.60111 23.4V25.7C8.70111 27.7 9.00111 29.2 9.50111 30.4C9.60111 30.5 9.60111 30.7 9.50111 30.9C9.40111 31 9.30111 31.2 9.20111 31.2C8.90111 31.3 8.80111 31.2 8.70111 31.2C8.20111 30.9 7.90111 29.8 7.70111 29.1C7.60111 28.8 7.60111 28.6 7.50111 28.4C7.00111 26 6.80111 23.6 7.00111 20.9C7.00111 20.3 7.20111 19.9 7.60111 19.6C8.00111 19.4 8.60111 19.2 9.50111 19.2C11.8011 19.1 12.1011 19.9 12.1011 20.7C12.2011 23.8 12.6011 26.6 13.3011 29L10.3011 29.8Z" fill="white"/>
<path id="Vector_7" d="M49.0014 24.9001C48.6014 28.3001 47.4014 36.5001 44.6014 38.8001C43.5014 39.7001 42.0014 40.1001 40.4014 40.2001V42.9001L44.3014 45.3001C44.5014 45.5001 44.6014 45.8001 44.5014 46.0001C44.4014 46.2001 44.2014 46.2001 44.1014 46.2001C44.0014 46.2001 43.9014 46.2001 43.8014 46.1001L40.0014 43.7001L36.1014 46.1001C35.9014 46.2001 35.6014 46.2001 35.4014 45.9001C35.3014 45.7001 35.3014 45.4001 35.6014 45.2001L39.5014 42.8001V40.2001C39.1014 40.2001 38.8014 40.2001 38.4014 40.2001C37.5014 40.2001 36.7014 40.1001 36.1014 40.1001C35.9014 40.1001 35.7014 40.1001 35.6014 40.1001C35.1014 40.0001 34.6014 39.8001 34.2014 39.3001C33.9014 38.9001 33.7014 38.3001 33.8014 37.8001C33.9014 36.7001 35.0014 35.9001 36.1014 36.0001C38.3014 36.3001 41.3014 36.1001 42.1014 35.5001C43.0014 34.7001 44.4014 29.4001 45.0014 24.3001C45.1014 23.2001 46.1014 22.4001 47.3014 22.5001C47.8014 22.6001 48.3014 22.8001 48.7014 23.3001C48.9014 23.8001 49.0014 24.4001 49.0014 24.9001Z" fill="white"/>
<path id="Vector_8" d="M16.2006 37.9C16.3006 38.4 16.1006 39 15.8006 39.4C15.5006 39.8 15.0006 40.1 14.4006 40.2C14.3006 40.2 14.1006 40.2 13.9006 40.2C13.3006 40.2 12.5006 40.3 11.6006 40.3C11.2006 40.3 10.9006 40.3 10.5006 40.3V42.9L14.4006 45.3C14.6006 45.4 14.7006 45.8 14.6006 46C14.5006 46.2 14.1006 46.3 13.9006 46.2L10.0006 43.7L6.20063 46.1C6.10063 46.1 6.00063 46.2 5.90063 46.2C5.70063 46.2 5.60063 46.1 5.50063 46C5.40063 45.8 5.40063 45.5 5.70063 45.3L9.60063 42.9V40.2C8.00063 40 6.40063 39.6 5.40063 38.8C2.60063 36.6 1.40063 28.4 1.00063 24.9C0.900627 23.8 1.70063 22.8 2.80063 22.6C3.90063 22.5 4.90063 23.3 5.10063 24.4C5.70063 29.5 7.00063 34.9 8.00063 35.6C8.80063 36.2 11.8006 36.3 14.0006 36.1C15.0006 36 16.1006 36.8 16.2006 37.9Z" fill="white"/>
<path id="Vector_9" d="M34.4016 23.2001V26.0001C34.4016 26.3001 34.2016 26.5001 33.9016 26.5001H26.9016V43.4001C26.9016 43.7001 26.7016 43.9001 26.4016 43.9001H23.6016C23.3016 43.9001 23.1016 43.7001 23.1016 43.4001V26.5001H16.1016C15.8016 26.5001 15.6016 26.3001 15.6016 26.0001V23.1001C15.6016 22.8001 15.8016 22.6001 16.1016 22.6001H33.8016C34.1016 22.7001 34.4016 22.9001 34.4016 23.2001Z" fill="white"/>
<path id="Vector_10" d="M12.6 14.1001C12.7 14.9001 12.4 15.7001 11.9 16.4001C11.4 17.0001 10.6 17.4001 9.80002 17.5001C9.70002 17.5001 9.60002 17.5001 9.50002 17.5001C7.90002 17.5001 6.60002 16.3001 6.40002 14.7001C6.30002 13.9001 6.60002 13.1001 7.10002 12.4001C7.60002 11.8001 8.40002 11.4001 9.20002 11.3001C10.9 11.1001 12.4 12.4001 12.6 14.1001Z" fill="white"/>
</g>
</g>
</svg>
