<svg width="50" height="50" viewBox="0 0 50 50" fill="none" xmlns="http://www.w3.org/2000/svg">
<g id="interactions 1" clip-path="url(#clip0_449_34468)">
<g id="Page-1">
<g id="039---Positive-Interactions">
<path id="Shape" d="M34.4824 36.2068C34.4824 38.5874 36.4122 40.5172 38.7928 40.5172C41.1733 40.5172 43.1031 38.5874 43.1031 36.2068C43.1031 33.8263 41.1733 31.8965 38.7928 31.8965C37.9899 31.8972 37.2038 32.1255 36.5255 32.5551C36.0074 33.3464 35.4094 34.0824 34.741 34.7517C34.5713 35.2181 34.4838 35.7105 34.4824 36.2068Z" fill="white"/>
<path id="Oval" d="M11.2068 12.931C13.5874 12.931 15.5172 11.0012 15.5172 8.62065C15.5172 6.24011 13.5874 4.3103 11.2068 4.3103C8.82629 4.3103 6.89648 6.24011 6.89648 8.62065C6.89648 11.0012 8.82629 12.931 11.2068 12.931Z" fill="white"/>
<path id="Shape_2" d="M37.0696 24.9999C37.0696 18.3344 31.6661 12.9309 25.0006 12.9309C18.3351 12.9309 12.9316 18.3344 12.9316 24.9999C12.9316 31.6654 18.3351 37.0688 25.0006 37.0688C31.6632 37.0617 37.0624 31.6624 37.0696 24.9999ZM29.9204 22.1611L23.0239 29.0576C22.6872 29.3942 22.1416 29.3942 21.8049 29.0576L20.0808 27.3335C19.7541 26.9952 19.7588 26.4576 20.0913 26.125C20.4238 25.7925 20.9615 25.7878 21.2997 26.1145L22.4144 27.2292L28.7015 20.9421C29.0397 20.6154 29.5774 20.6201 29.9099 20.9526C30.2425 21.2851 30.2471 21.8228 29.9204 22.1611Z" fill="white"/>
<path id="Shape_3" d="M11.2064 21.5516C11.3667 21.5516 11.5158 21.5464 11.6633 21.5404C12.2716 19.1881 13.4909 17.0385 15.1977 15.3093C14.519 14.8813 13.7329 14.6544 12.9305 14.655H9.48222C7.10286 14.6579 5.17473 16.586 5.17188 18.9654V19.5921C5.7126 19.984 6.29001 20.3227 6.89601 20.6033V18.9654C6.89601 18.4893 7.28197 18.1033 7.75808 18.1033C8.23419 18.1033 8.62015 18.4893 8.62015 18.9654V21.2111C9.46426 21.4339 10.3333 21.5483 11.2064 21.5516Z" fill="white"/>
<path id="Shape_4" d="M7.41359 13.305C5.42717 11.6963 4.66982 9.01052 5.52313 6.60101C6.37645 4.1915 8.65529 2.58101 11.2114 2.58101C13.7676 2.58101 16.0464 4.1915 16.8997 6.60101C17.7531 9.01052 16.9957 11.6963 15.0093 13.305C15.5565 13.5053 16.071 13.7857 16.536 14.1369C18.0183 12.9787 19.7228 12.1375 21.5438 11.6653C21.5498 11.5188 21.555 11.3696 21.555 11.2084C21.5644 6.59172 18.5136 2.52758 14.0778 1.24782C9.64195 -0.0319426 4.89507 1.78251 2.44387 5.69476C-0.00734001 9.60701 0.430538 14.67 3.51704 18.1033C3.83794 15.9104 5.33326 14.0691 7.41359 13.305Z" fill="white"/>
<path id="Shape_5" d="M34.9992 40.8914C33.6359 39.7865 32.8222 38.142 32.7708 36.3879C31.4578 37.2824 29.9993 37.9416 28.4604 38.3362C28.4544 38.4828 28.4492 38.6319 28.4492 38.7931C28.4501 41.3414 29.3962 43.7987 31.1044 45.6897C31.425 43.4972 32.9196 41.656 34.9992 40.8914Z" fill="white"/>
<path id="Shape_6" d="M40.5164 42.2412H37.0682C34.6888 42.2441 32.7607 44.1722 32.7578 46.5516V47.1783C33.2985 47.5702 33.8759 47.9089 34.482 48.1895V46.5516C34.482 46.0754 34.8679 45.6895 35.344 45.6895C35.8201 45.6895 36.2061 46.0754 36.2061 46.5516V48.7929C37.9003 49.247 39.6843 49.247 41.3785 48.7929V46.5516C41.3785 46.0754 41.7645 45.6895 42.2406 45.6895C42.7167 45.6895 43.1026 46.0754 43.1026 46.5516V48.1895C43.7085 47.9102 44.2859 47.573 44.8268 47.1826V46.5516C44.8239 44.1722 42.8958 42.2441 40.5164 42.2412Z" fill="white"/>
<path id="Shape_7" d="M38.7928 28.4483C38.6325 28.4483 38.4833 28.4534 38.3359 28.4595C38.1797 29.0777 37.9806 29.6843 37.7402 30.275C38.0874 30.2096 38.4396 30.1752 38.7928 30.1724C41.3455 30.177 43.6191 31.7873 44.4707 34.1938C45.3223 36.6002 44.5675 39.2822 42.5859 40.8914C44.6663 41.6554 46.1616 43.4968 46.4825 45.6896C49.2158 42.6566 49.9056 38.298 48.2426 34.5691C46.5795 30.8403 42.8757 28.4412 38.7928 28.4483Z" fill="white"/>
<path id="Shape_8" d="M28.7724 2.61801L29.9189 1.47146C30.2456 1.1332 30.2409 0.595522 29.9084 0.262992C29.5759 -0.0695368 29.0382 -0.074209 28.6999 0.252491L26.1137 2.8387C25.7772 3.17534 25.7772 3.72103 26.1137 4.05766L28.6999 6.64387C29.0382 6.97057 29.5759 6.9659 29.9084 6.63337C30.2409 6.30084 30.2456 5.76316 29.9189 5.4249L28.8465 4.35249C39.756 5.03075 48.261 14.0693 48.2749 24.9999C48.2749 25.476 48.6609 25.862 49.137 25.862C49.6131 25.862 49.9991 25.476 49.9991 24.9999C49.985 13.0881 40.6667 3.26273 28.7724 2.61801Z" fill="white"/>
<path id="Shape_9" d="M21.2991 43.356C20.9609 43.0293 20.4232 43.034 20.0907 43.3665C19.7581 43.6991 19.7535 44.2368 20.0802 44.575L21.1526 45.6474C10.243 44.9692 1.7381 35.9306 1.72414 25C1.72414 24.5239 1.33818 24.1379 0.862069 24.1379C0.385961 24.1379 0 24.5239 0 25C0.0141125 36.9118 9.33238 46.7372 21.2267 47.3819L20.0802 48.5285C19.8561 48.7449 19.7662 49.0654 19.8451 49.3668C19.924 49.6682 20.1594 49.9036 20.4608 49.9825C20.7622 50.0614 21.0827 49.9715 21.2991 49.7474L23.8853 47.1612C24.2219 46.8246 24.2219 46.2789 23.8853 45.9422L21.2991 43.356Z" fill="white"/>
</g>
</g>
</g>
<defs>
<clipPath id="clip0_449_34468">
<rect width="50" height="50" fill="white"/>
</clipPath>
</defs>
</svg>
