<svg width="50" height="50" viewBox="0 0 50 50" fill="none" xmlns="http://www.w3.org/2000/svg">
<rect width="50" height="50" fill="#D2D5DA"/>
<g id="Maang Careers About Us" clip-path="url(#clip0_340_2)">
<rect width="1440" height="3015" transform="translate(-158 -801)" fill="white"/>
<g id="Frame 19" clip-path="url(#clip1_340_2)">
<rect id="Rectangle 1" x="-158" y="-154" width="1440" height="425" fill="#0B0C10"/>
<g id="Group 13">
<rect id="Rectangle 9" x="-23" y="-24" width="370" height="97" rx="5" fill="#1E2933"/>
<g id="Group 12">
<g id="Group 11">
<rect id="Rectangle 10" x="-8" y="-9" width="67" height="67" rx="2" fill="#3AB2C4"/>
<g id="mentorship 1" clip-path="url(#clip2_340_2)">
<g id="Group 10">
<path id="Vector" d="M24.9991 6.00023C16.6281 5.95229 10.1198 13.4736 10.7201 21.9593C10.7424 23.0607 12.3773 23.0646 12.3999 21.9592C11.5914 5.54801 33.5788 2.1348 37.3463 18.0787C37.8922 18.0031 38.455 17.9611 39.0178 17.9611C37.7747 11.1575 31.9622 6.00023 24.9991 6.00023Z" fill="white"/>
<path id="Vector_2" d="M30.1224 11.6362C30.6286 10.43 28.8638 10.1507 28.0729 9.81351C27.6277 9.67919 27.1574 9.93117 27.023 10.368C26.7365 11.5458 28.2988 11.5242 28.9969 11.9975C29.395 12.2238 29.9221 12.0536 30.1224 11.6362Z" fill="white"/>
<path id="Vector_3" d="M24.4609 9.3769C23.61 9.50994 21.8317 9.35937 22.0334 10.6536C22.3876 11.8229 23.7202 10.9838 24.5533 11.0568C25.6586 10.9726 25.5689 9.33804 24.4609 9.3769Z" fill="white"/>
<path id="Vector_4" d="M35.3717 17.3226C35.2289 16.8858 34.7586 16.6339 34.3218 16.7766C33.251 17.1478 34.0013 18.3006 34.0614 19.0781C34.5738 18.8345 35.1113 18.6245 35.6573 18.4565C35.5817 18.0702 35.4893 17.6922 35.3717 17.3226Z" fill="white"/>
<path id="Vector_5" d="M19.044 13.4506C19.5776 12.799 21.0951 12.3881 20.4888 11.3339C20.2284 10.9475 19.7076 10.8383 19.3212 11.0987C18.6538 11.643 17.0455 12.3933 17.8597 13.4086C18.1683 13.7489 18.7084 13.7684 19.044 13.4506Z" fill="white"/>
<path id="Vector_6" d="M32.415 15.0381C32.6741 15.416 33.2072 15.5136 33.5825 15.2565C34.5978 14.428 33.184 13.3545 32.6586 12.6862C31.8956 11.8818 30.6885 13.0411 31.4407 13.8453C31.7934 14.2149 32.121 14.6181 32.415 15.0381Z" fill="white"/>
<path id="Vector_7" d="M17.1539 15.8864C17.3721 15.4832 17.2294 14.9708 16.8262 14.744C15.6373 14.2097 15.3081 15.9334 14.9279 16.7095C14.7216 17.2473 15.1471 17.8583 15.7175 17.8434C16.6888 17.8038 16.6636 16.502 17.1539 15.8864Z" fill="white"/>
<path id="Vector_8" d="M22.0753 30.2075C22.8248 25.0555 19.2643 19.8472 14.289 18.4483C14.1882 18.9942 14.121 19.557 14.0958 20.1365C17.7073 21.3174 20.452 24.8561 20.4793 28.6704C20.287 30.8004 20.5366 32.9078 21.4957 34.9196C20.4038 35.4236 19.1271 35.6588 17.9343 35.558C16.4141 35.6434 16.3708 37.5215 16.6241 38.6741C16.6632 38.9998 16.4486 39.1588 16.162 39.2033C15.2801 39.2958 14.3393 39.2117 13.449 38.9682C13.1466 38.8926 12.8106 38.9849 12.6006 39.2201C11.8111 40.1021 11.3995 41.2108 11.4331 42.3196H5.09151C6.06998 40.2963 6.10428 37.7839 4.77243 35.8771C2.5465 34.0041 1.34538 31.2826 1.48816 28.4184C1.69814 24.2355 4.92352 20.6741 9.05609 19.8257C9.08967 19.2378 9.14848 18.6666 9.24085 18.0955C0.110224 19.4957 -3.55384 30.9567 3.56295 37.0447C4.36917 38.6826 4.27678 40.5052 3.31083 42.076C2.77694 42.8729 3.42433 44.0293 4.38603 43.9994C4.38598 43.9995 11.8867 43.9995 11.8867 43.9995C12.6406 44.017 13.2623 43.2927 13.1382 42.5547C13.0458 41.9416 13.2054 41.2864 13.5666 40.7236C15.4999 41.166 18.5966 41.118 18.2787 38.3885C18.1695 37.7671 18.1863 37.4311 18.2031 37.2547C19.5409 37.2793 23.2863 36.8293 23.3184 35.1129C23.3184 34.928 23.2764 34.7348 23.184 34.5501C22.4868 33.1557 22.1089 31.6522 22.0753 30.2075Z" fill="white"/>
<path id="Vector_9" d="M39.782 17.9864C39.5216 17.9696 39.2781 17.9612 39.0261 17.9612C39.2849 19.2141 39.2917 20.6617 39.2781 21.9593C44.8289 22.1324 44.8278 30.1866 39.278 30.3588C34.693 30.3334 33.4969 24.014 37.6654 22.2785C37.4938 20.9372 37.6881 19.39 37.3462 18.0788C36.7751 18.1628 36.2039 18.2888 35.6579 18.4567C35.8487 19.0786 35.8775 19.9023 35.0699 20.0442C34.4809 20.1372 34.0941 19.6234 34.062 19.0783C29.9257 21.0411 27.2832 25.6548 27.922 30.2076C27.8884 31.6607 27.502 33.1642 26.8132 34.5501C25.8658 36.7326 30.3743 37.2838 31.7942 37.2547C31.8109 37.4311 31.8278 37.7671 31.7186 38.3887C31.3845 41.1007 34.5141 41.174 36.4307 40.7237C36.7918 41.2865 36.9514 41.9417 36.859 42.5548C36.7359 43.2921 37.3558 44.0178 38.1105 43.9995C38.1105 43.9995 45.6113 43.9995 45.6113 43.9995C46.5719 44.028 47.2214 42.8742 46.6864 42.076C45.7205 40.5053 45.6281 38.6827 46.4344 37.0448C53.8785 30.6608 49.4798 18.6352 39.782 17.9864Z" fill="white"/>
<path id="Vector_10" d="M15.759 26.9989C16.8632 26.9803 16.8628 25.3374 15.7589 25.3191H14.919C14.919 24.393 14.1656 23.6392 13.2391 23.6392H9.87932C8.95283 23.6392 8.19943 24.393 8.19943 25.3191H7.35948C6.89562 25.3191 6.51953 25.6947 6.51953 26.159C6.51953 26.6233 6.89562 26.9989 7.35948 26.9989H8.19943V27.8389H7.35948C6.89562 27.8389 6.51953 28.2146 6.51953 28.6788C6.51953 29.1431 6.89562 29.5188 7.35948 29.5188H8.19943C8.19943 30.4449 8.95283 31.1987 9.87932 31.1987H10.7193V32.0386C10.7193 32.5029 11.0954 32.8786 11.5592 32.8786C12.0231 32.8786 12.3992 32.5029 12.3992 32.0386V31.1987H13.2391C14.1656 31.1987 14.919 30.4449 14.919 29.5188H15.759C16.2228 29.5188 16.5989 29.1431 16.5989 28.6788C16.5989 28.2146 16.2228 27.8389 15.759 27.8389H14.919V26.9989H15.759Z" fill="white"/>
</g>
</g>
</g>
</g>
</g>
</g>
</g>
<defs>
<clipPath id="clip0_340_2">
<rect width="1440" height="3015" fill="white" transform="translate(-158 -801)"/>
</clipPath>
<clipPath id="clip1_340_2">
<rect width="1440" height="425" fill="white" transform="translate(-158 -154)"/>
</clipPath>
<clipPath id="clip2_340_2">
<rect width="50" height="50" fill="white"/>
</clipPath>
</defs>
</svg>
