<svg width="50" height="50" viewBox="0 0 50 50" fill="none" xmlns="http://www.w3.org/2000/svg">
<g id="work-schedule 1" clip-path="url(#clip0_449_34457)">
<g id="Working Hour">
<path id="Vector" d="M48.0888 39.4809L44.7221 40.3516C48.1749 35.9071 50.0248 30.4264 49.9718 24.7985C49.9188 19.1706 47.966 13.7257 44.4301 9.34692C40.8943 4.96817 35.9827 1.91242 30.4922 0.675348C25.0018 -0.561726 19.2544 0.0924332 14.1823 2.53172C9.11024 4.971 5.01106 9.05233 2.54965 14.1137C0.0882377 19.175 -0.591012 24.9195 0.622076 30.4154C1.83516 35.9112 4.86943 40.836 9.23271 44.391C13.596 47.9459 19.0323 49.9225 24.6599 50.0001H24.6721C24.909 50.0016 25.1367 49.9089 25.3052 49.7425C25.4738 49.5761 25.5693 49.3496 25.5708 49.1127C25.5723 48.8759 25.4797 48.6481 25.3132 48.4796C25.1468 48.3111 24.9203 48.2155 24.6835 48.214C19.447 48.1464 14.3871 46.3113 10.3248 43.0063C6.26249 39.7014 3.43624 35.1207 2.3047 30.0075C1.17316 24.8943 1.80274 19.5488 4.09125 14.8384C6.37977 10.1281 10.1929 6.3293 14.9119 4.05858C19.6309 1.78787 24.9787 1.17848 30.0876 2.32932C35.1964 3.48015 39.7665 6.32367 43.056 10.3984C46.3456 14.4732 48.1617 19.54 48.2095 24.7766C48.2573 30.0133 46.5341 35.1124 43.3195 39.2466L43.5927 35.7379C43.6111 35.5018 43.535 35.2681 43.381 35.0882C43.2271 34.9082 43.008 34.7968 42.7719 34.7784C42.5358 34.7601 42.3021 34.8362 42.1221 34.9902C41.9422 35.1441 41.8308 35.3632 41.8124 35.5993L41.3811 41.1341C41.3644 41.3577 41.4013 41.5821 41.4887 41.7887C41.5761 41.9953 41.7114 42.178 41.8835 42.3218C42.0556 42.4657 42.2595 42.5664 42.4782 42.6157C42.697 42.665 42.9244 42.6615 43.1416 42.6054L48.5357 41.2103C48.6492 41.181 48.7559 41.1296 48.8496 41.059C48.9433 40.9884 49.0221 40.9001 49.0817 40.7991C49.1412 40.698 49.1803 40.5862 49.1967 40.4701C49.213 40.354 49.2063 40.2357 49.177 40.1222C49.1476 40.0086 49.0962 39.902 49.0257 39.8083C48.9551 39.7146 48.8668 39.6357 48.7657 39.5762C48.6647 39.5166 48.5529 39.4775 48.4368 39.4612C48.3206 39.4448 48.2024 39.4515 48.0888 39.4809Z" fill="white"/>
<path id="Vector_2" d="M36.4373 31.6C36.4959 31.4983 36.5739 31.4092 36.6669 31.3377C36.76 31.2662 36.8662 31.2138 36.9795 31.1834C37.0928 31.153 37.211 31.1453 37.3274 31.1607C37.4437 31.176 37.5558 31.2142 37.6574 31.2729L39.8018 32.511C40.8473 30.4515 41.4488 28.1953 41.5674 25.8886H39.1002C38.8634 25.8886 38.6362 25.7945 38.4688 25.6271C38.3013 25.4596 38.2072 25.2324 38.2072 24.9956C38.2072 24.7588 38.3013 24.5316 38.4688 24.3641C38.6362 24.1967 38.8634 24.1026 39.1002 24.1026H41.5674C41.4488 21.7959 40.8473 19.5398 39.8018 17.4802L37.6574 18.7183C37.5558 18.777 37.4436 18.8151 37.3273 18.8305C37.211 18.8458 37.0928 18.8381 36.9794 18.8077C36.8661 18.7774 36.7598 18.725 36.6668 18.6536C36.5737 18.5822 36.4956 18.4931 36.4369 18.3915C36.3783 18.2899 36.3402 18.1777 36.3249 18.0614C36.3096 17.945 36.3174 17.8268 36.3478 17.7135C36.3782 17.6002 36.4307 17.494 36.5021 17.4009C36.5736 17.3079 36.6627 17.2298 36.7643 17.1712L38.9116 15.9314C37.6485 13.9968 35.9973 12.3456 34.0627 11.0825L32.8229 13.2298C32.7044 13.4348 32.5094 13.5844 32.2806 13.6457C32.0519 13.7069 31.8082 13.6748 31.6031 13.5564C31.398 13.4381 31.2483 13.2431 31.187 13.0144C31.1256 12.7856 31.1576 12.5419 31.2758 12.3368L32.5139 10.1924C30.4544 9.14681 28.1983 8.54531 25.8916 8.42676V10.8939C25.8916 11.1308 25.7975 11.3579 25.63 11.5254C25.4625 11.6929 25.2354 11.7869 24.9985 11.7869C24.7617 11.7869 24.5345 11.6929 24.3671 11.5254C24.1996 11.3579 24.1055 11.1308 24.1055 10.8939V8.42676C21.7988 8.5453 19.5427 9.14681 17.4831 10.1924L18.7212 12.3368C18.8395 12.5419 18.8715 12.7856 18.8101 13.0144C18.7487 13.2431 18.5991 13.4381 18.394 13.5564C18.1889 13.6748 17.9452 13.7069 17.7164 13.6457C17.4877 13.5844 17.2926 13.4348 17.1741 13.2298L15.9344 11.0825C13.9998 12.3456 12.3486 13.9968 11.0854 15.9314L13.2327 17.1712C13.4378 17.2897 13.5873 17.4848 13.6486 17.7135C13.7098 17.9423 13.6777 18.186 13.5594 18.3911C13.441 18.5961 13.246 18.7458 13.0173 18.8072C12.7886 18.8686 12.5449 18.8366 12.3397 18.7183L10.1953 17.4802C9.14974 19.5398 8.54823 21.7959 8.42969 24.1026H10.8968C11.1337 24.1026 11.3608 24.1967 11.5283 24.3641C11.6958 24.5316 11.7899 24.7588 11.7899 24.9956C11.7899 25.2324 11.6958 25.4596 11.5283 25.6271C11.3608 25.7945 11.1337 25.8886 10.8968 25.8886H8.42969C8.54823 28.1953 9.14974 30.4515 10.1953 32.511L12.3397 31.2729C12.4413 31.2142 12.5535 31.1761 12.6698 31.1607C12.7861 31.1454 12.9043 31.1531 13.0176 31.1835C13.131 31.2138 13.2372 31.2662 13.3303 31.3376C13.4234 31.409 13.5015 31.4981 13.5602 31.5997C13.6188 31.7013 13.6569 31.8135 13.6722 31.9298C13.6875 32.0462 13.6797 32.1644 13.6493 32.2777C13.6189 32.391 13.5664 32.4972 13.4949 32.5903C13.4235 32.6833 13.3344 32.7614 13.2327 32.82L11.0854 34.0598C12.3486 35.9944 13.9998 37.6456 15.9344 38.9087L17.1742 36.7614C17.2926 36.5564 17.4877 36.4068 17.7164 36.3456C17.9452 36.2843 18.1889 36.3164 18.394 36.4348C18.5991 36.5532 18.7487 36.7481 18.8101 36.9768C18.8715 37.2056 18.8395 37.4493 18.7212 37.6544L17.4831 39.7989C19.5427 40.8444 21.7988 41.4459 24.1055 41.5645V39.0973C24.1055 38.8605 24.1996 38.6333 24.3671 38.4658C24.5345 38.2984 24.7617 38.2043 24.9985 38.2043C25.2354 38.2043 25.4625 38.2984 25.63 38.4658C25.7975 38.6333 25.8916 38.8605 25.8916 39.0973V41.5644C28.1983 41.4459 30.4544 40.8444 32.5139 39.7988L31.2758 37.6544C31.2171 37.5528 31.179 37.4407 31.1637 37.3244C31.1483 37.208 31.156 37.0898 31.1864 36.9765C31.2167 36.8632 31.2691 36.7569 31.3405 36.6638C31.412 36.5707 31.501 36.4926 31.6027 36.434C31.7043 36.3753 31.8164 36.3373 31.9328 36.322C32.0491 36.3067 32.1673 36.3145 32.2806 36.3449C32.3939 36.3753 32.5002 36.4277 32.5932 36.4992C32.6863 36.5707 32.7643 36.6598 32.8229 36.7614L34.0627 38.9087C35.9973 37.6456 37.6485 35.9944 38.9116 34.0598L36.7643 32.82C36.5592 32.7015 36.4095 32.5065 36.3482 32.2777C36.2869 32.0489 36.3189 31.8051 36.4373 31.6ZM29.4383 32.592C29.3371 32.6512 29.2252 32.6898 29.109 32.7058C28.9929 32.7217 28.8747 32.7146 28.7612 32.6848C28.6478 32.6551 28.5414 32.6032 28.448 32.5323C28.3546 32.4614 28.2761 32.3727 28.217 32.2715L24.4953 25.9043C24.2401 25.4674 24.1055 24.9705 24.1055 24.4645V14.8606C24.1055 14.6238 24.1996 14.3966 24.3671 14.2291C24.5345 14.0617 24.7617 13.9676 24.9985 13.9676C25.2354 13.9676 25.4625 14.0617 25.63 14.2291C25.7975 14.3966 25.8916 14.6238 25.8916 14.8606V24.4645C25.8917 24.6539 25.9419 24.8398 26.0372 25.0035L29.7588 31.3706C29.818 31.4718 29.8567 31.5837 29.8726 31.6999C29.8886 31.8161 29.8814 31.9343 29.8517 32.0477C29.8219 32.1611 29.7701 32.2676 29.6992 32.3609C29.6282 32.4543 29.5396 32.5328 29.4383 32.592Z" fill="white"/>
</g>
</g>
<defs>
<clipPath id="clip0_449_34457">
<rect width="50" height="50" fill="white"/>
</clipPath>
</defs>
</svg>
