<svg width="626" height="179" viewBox="0 0 626 179" fill="none" xmlns="http://www.w3.org/2000/svg">
<path d="M15.8799 66.3685L57.2878 18.2819L590.685 19.5505L620.675 57.0284V115.152L576.339 160.312H46.6775L15.8799 126.611V66.3685Z" fill="white" stroke="url(#paint0_linear_400_21256)" stroke-width="2"/>
<path d="M56.8301 17.2808L591.166 18.5516L621.675 56.6776V115.561L576.759 161.312H46.2366L14.8799 126.999V65.9973L56.8301 17.2808Z" fill="url(#paint1_radial_400_21256)"/>
<g opacity="0.5">
<path fill-rule="evenodd" clip-rule="evenodd" d="M587.627 22.3053H256.248L247.809 13.9314H591.664L625.051 55.0305V117.818L579.642 164.662H455.219L446.779 156.288H576.049L616.612 114.444V57.9853L587.627 22.3053Z" fill="url(#paint2_linear_400_21256)"/>
<path fill-rule="evenodd" clip-rule="evenodd" d="M48.86 156.288H381.152L389.592 164.662H45.1209L11.505 127.888V65.0672L56.9147 13.931H181.782L190.221 22.305H60.7267L19.9445 68.2301V124.656L48.86 156.288Z" fill="url(#paint3_linear_400_21256)"/>
<path fill-rule="evenodd" clip-rule="evenodd" d="M507.323 178.06H253.296V173.873H507.323V178.06Z" fill="url(#paint4_linear_400_21256)"/>
<path fill-rule="evenodd" clip-rule="evenodd" d="M54.0172 0.95166H342.33V5.13862H55.9178L5.1748 62.0372V105.626H0.955078V60.4506L54.0172 0.95166Z" fill="url(#paint5_linear_400_21256)"/>
</g>
<defs>
<linearGradient id="paint0_linear_400_21256" x1="621.675" y1="95.1582" x2="8.12922" y2="89.2043" gradientUnits="userSpaceOnUse">
<stop stop-color="#118EDE"/>
<stop offset="0.475794" stop-color="white"/>
<stop offset="1" stop-color="#35C69D"/>
</linearGradient>
<radialGradient id="paint1_radial_400_21256" cx="0" cy="0" r="1" gradientUnits="userSpaceOnUse" gradientTransform="translate(318.278 89.2965) rotate(90.2035) scale(60.5109 291.853)">
<stop stop-color="#B6F0F9"/>
<stop offset="1" stop-color="white" stop-opacity="0"/>
</radialGradient>
<linearGradient id="paint2_linear_400_21256" x1="512.807" y1="13.9314" x2="437.771" y2="156.354" gradientUnits="userSpaceOnUse">
<stop stop-color="#118EDE"/>
<stop offset="1" stop-color="#118EDE" stop-opacity="0"/>
</linearGradient>
<linearGradient id="paint3_linear_400_21256" x1="382.84" y1="174.71" x2="238.174" y2="55.1137" gradientUnits="userSpaceOnUse">
<stop stop-color="#35C69D" stop-opacity="0"/>
<stop offset="1" stop-color="#35C69D"/>
</linearGradient>
<linearGradient id="paint4_linear_400_21256" x1="459.64" y1="178.06" x2="455.692" y2="148.538" gradientUnits="userSpaceOnUse">
<stop stop-color="#E72853"/>
<stop offset="1" stop-color="#E72853" stop-opacity="0"/>
</linearGradient>
<linearGradient id="paint5_linear_400_21256" x1="65.9387" y1="9.32558" x2="96.7577" y2="80.6797" gradientUnits="userSpaceOnUse">
<stop stop-color="#E72853"/>
<stop offset="1" stop-color="#E72853" stop-opacity="0"/>
</linearGradient>
</defs>
</svg>
