<svg width="192" height="177" viewBox="0 0 192 177" fill="none" xmlns="http://www.w3.org/2000/svg">
<path d="M48.1023 103.263L47.907 103.056L49.1477 101.873L49.3545 102.08L48.1023 103.263ZM50.5837 100.873L50.3884 100.667C50.7905 100.276 51.1925 99.8624 51.5946 99.4488L51.8014 99.6441C51.3993 100.058 50.9973 100.471 50.5837 100.873ZM52.9847 98.3804L52.7664 98.1851C53.1455 97.7716 53.5361 97.335 53.9037 96.8985L54.122 97.0938C53.7544 97.5303 53.3638 97.9669 52.9847 98.3804ZM55.2363 95.7727L55.018 95.5889C55.3742 95.1523 55.7418 94.7043 56.0864 94.2448L56.3162 94.4171C55.9601 94.8766 55.6039 95.3361 55.2363 95.7727ZM57.3616 93.05L57.1318 92.8777C57.4765 92.4297 57.8096 91.9587 58.1428 91.4876L58.384 91.6485C58.0394 92.1195 57.7062 92.5905 57.3616 93.05ZM59.3605 90.2355L59.1308 90.0746C59.4524 89.5998 59.7664 89.1211 60.0728 88.6386L60.314 88.7995C60 89.282 59.6822 89.7606 59.3605 90.2355ZM75.0991 88.248C74.5706 88.248 74.0307 88.1446 73.5482 87.9493L73.6516 87.6851C74.1111 87.8574 74.6051 87.9608 75.0991 87.9608C75.168 87.9493 75.2254 87.9493 75.2829 87.9493L75.2944 88.2365C75.2254 88.2365 75.1565 88.2365 75.0991 88.248ZM77.0061 87.7541L76.8567 87.5013C77.3392 87.2256 77.7298 86.835 78.0055 86.3525L78.2583 86.4904C77.9596 87.0188 77.523 87.4554 77.0061 87.7541ZM61.2445 87.3405L60.9918 87.1911C61.2982 86.701 61.5968 86.2108 61.8879 85.7207L62.1406 85.8585C61.8419 86.3563 61.5432 86.8503 61.2445 87.3405ZM72.1007 86.9384C71.7101 86.5248 71.3884 86.0194 71.1472 85.445L71.4114 85.3416C71.6412 85.8815 71.9399 86.3525 72.3075 86.7431L72.1007 86.9384ZM78.7293 84.7787L78.4421 84.7672L78.4536 84.6982C78.4536 84.2617 78.3617 83.8481 78.1893 83.4805C78.151 83.381 78.1051 83.2852 78.0515 83.1933L78.3042 83.0555C78.3578 83.155 78.4076 83.2546 78.4536 83.3541C78.6374 83.7562 78.7408 84.2272 78.7408 84.6982L78.7293 84.7787ZM63.1171 84.48L62.8873 84.2847C63.2664 83.8481 63.68 83.4231 64.1165 83.044L64.3004 83.2622C63.8753 83.6299 63.4732 84.0434 63.1171 84.48ZM70.6992 83.7447C70.6647 83.469 70.6532 83.1933 70.6532 82.9176C70.6532 82.6074 70.6647 82.2973 70.7107 81.9871L70.9979 82.0215C70.9519 82.3202 70.9404 82.6189 70.9404 82.9176C70.9404 83.1818 70.9519 83.4461 70.9864 83.7103L70.6992 83.7447ZM65.6674 82.2628L65.5181 82.0101C66.0121 81.7114 66.529 81.4471 67.069 81.2059L67.1838 81.4701C66.6554 81.6999 66.1499 81.9641 65.6674 82.2628ZM76.9372 81.9641C76.5121 81.6424 76.0181 81.3667 75.4667 81.1485L75.5701 80.8842C76.156 81.114 76.6729 81.4012 77.1095 81.7343L76.9372 81.9641ZM68.7922 80.9187L68.7117 80.643C69.2747 80.4821 69.8491 80.3673 70.4235 80.2983L70.4579 80.5855C69.895 80.6545 69.3321 80.7693 68.7922 80.9187ZM73.8469 80.6774C73.2955 80.574 72.7325 80.5166 72.1581 80.5051V80.2179C72.7555 80.2294 73.3414 80.2868 73.8928 80.3902L73.8469 80.6774ZM71.3999 80.3902L71.1242 80.2983C71.3195 79.7469 71.5723 79.2185 71.8824 78.713L72.1237 78.8623C71.8365 79.3563 71.5837 79.8618 71.3999 80.3902ZM73.1461 77.5182L72.9393 77.3229C73.0236 77.231 73.1117 77.143 73.2036 77.0587C73.5137 76.7371 73.8699 76.4384 74.249 76.1627L74.4213 76.3924C74.0537 76.6681 73.709 76.9553 73.3988 77.2655C73.3146 77.3497 73.2304 77.434 73.1461 77.5182ZM75.8688 75.5193L75.7424 75.2551C76.2594 75.0024 76.8108 74.7841 77.3622 74.6118L77.4426 74.8875C76.9027 75.0598 76.3742 75.2666 75.8688 75.5193ZM79.1084 74.4624L79.0395 74.1867C79.6024 74.0374 80.1538 73.888 80.6937 73.7387L80.7741 74.0144C80.2342 74.1637 79.6713 74.3131 79.1084 74.4624ZM82.4284 73.5204L82.348 73.2447C82.8994 73.0724 83.4508 72.8886 83.9793 72.7048L84.0712 72.969C83.5427 73.1643 82.9913 73.3481 82.4284 73.5204ZM85.691 72.3716L85.5876 72.1074C86.1275 71.9006 86.6675 71.6823 87.1844 71.4641L87.2878 71.7168C86.7709 71.9466 86.2309 72.1648 85.691 72.3716ZM88.8617 71.0045L88.7468 70.7518L90.2977 69.9936L90.4126 70.2578L88.8617 71.0045ZM91.9635 69.4881L91.8371 69.2354L93.388 68.4772L93.5143 68.7414L91.9635 69.4881ZM95.0652 67.9832L94.9388 67.719L96.4897 66.9723L96.6161 67.225L95.0652 67.9832ZM98.167 66.4783L98.0406 66.2255L99.5915 65.4673L99.7178 65.7201L98.167 66.4783ZM101.257 64.9733L101.142 64.7206L102.682 63.9624L102.808 64.2266L101.257 64.9733Z" fill="#9192FF"/>
<path d="M95.9724 11.577C95.9724 11.6345 95.9724 11.6919 95.9839 11.7494H133.756C133.653 8.63611 130.942 6.14322 127.622 6.14322C126.553 6.14322 125.554 6.39596 124.681 6.84399C124.727 4.42002 123.567 2.09944 121.418 0.85874C118.202 -1.00232 113.986 0.261365 112.021 3.68479C111.424 4.71871 111.102 5.83304 111.022 6.93589C109.448 6.22363 107.506 5.78709 105.393 5.78709C100.189 5.78709 95.9724 8.38338 95.9724 11.577Z" fill="#EBEBFF"/>
<path fill-rule="evenodd" clip-rule="evenodd" d="M33.144 99.8279H2V99.7245C2.08042 97.0823 4.33206 95.0259 7.13514 95.0259C7.92781 95.0259 8.72048 95.1982 9.43273 95.5314C9.44422 93.521 10.4781 91.6829 12.1554 90.7064C13.4076 89.9827 14.878 89.7989 16.3026 90.178C17.8649 90.603 19.1746 91.6255 20.0017 93.0615C20.4612 93.8656 20.7369 94.7272 20.8173 95.6233C22.1499 95.0374 23.7008 94.7387 25.3321 94.7387C29.6516 94.7387 33.1555 96.9099 33.1555 99.5866C33.1555 99.6326 33.1555 99.69 33.1555 99.736L33.144 99.8279ZM2.21827 99.6096H32.9372C32.9372 99.602 32.9372 99.5905 32.9372 99.5752C32.9372 97.0248 29.5252 94.9455 25.3321 94.9455C23.6779 94.9455 22.0925 95.2671 20.7714 95.876L20.622 95.9449L20.6106 95.7841C20.5531 94.8651 20.2889 93.992 19.8179 93.1648C19.0137 91.7748 17.75 90.7868 16.2451 90.3848C14.878 90.0171 13.465 90.2009 12.2588 90.8902C10.6045 91.8552 9.60506 93.6933 9.63952 95.7037L9.65101 95.8875L9.49017 95.7956C8.76643 95.428 7.95078 95.2327 7.12365 95.2327C4.49289 95.2327 2.35613 97.1512 2.21827 99.6096Z" fill="#9192FF"/>
<path d="M94.04 96.7259C94.04 100.402 97.0154 103.377 100.68 103.377H174.502C178.167 103.377 181.154 100.402 181.154 96.7259V51.8193H94.04V96.7259Z" fill="white"/>
<path d="M89.481 63.2729C90.5034 60.0103 93.72 57.4944 97.2354 57.2302C100.762 56.9659 104.358 58.9649 105.897 62.0321C107.77 62.0207 109.608 63.0546 110.527 64.6399C111.435 66.2253 111.366 68.2816 110.355 69.8095C112.595 70.1886 114.594 71.6591 115.582 73.635C116.57 75.5995 116.512 78.0234 115.444 79.9534C117.891 78.7012 121.039 78.8161 123.394 80.2406C125.749 81.6651 127.231 84.3418 127.15 87.0185C128.678 84.629 131.607 83.1241 134.525 83.262C137.432 83.3998 140.212 85.146 141.51 87.6734C142.877 83.5836 146.53 80.2751 150.838 79.2182C155.158 78.1613 160.006 79.3905 163.234 82.3659C168.093 83.1241 171.632 88.3971 170.368 92.9923C172.987 95.1635 174.331 98.6904 173.78 101.987C173.24 105.273 170.816 108.214 167.622 109.478L84.0242 109.42L76.9016 77.5295L89.481 63.2729Z" fill="#D1D1FF"/>
<g opacity="0.8">
<path d="M88.1592 73.8647C89.1357 70.5906 92.2604 68.0862 95.6609 67.822C99.0613 67.5463 102.531 69.5452 104.013 72.6125C105.816 72.5895 107.608 73.6349 108.481 75.2088C109.355 76.7941 109.297 78.8504 108.321 80.3784C110.48 80.7689 112.41 82.2279 113.364 84.2039C114.317 86.1683 114.26 88.6038 113.226 90.5223C115.593 89.2701 118.625 89.3849 120.9 90.8095C123.175 92.2225 124.611 94.8992 124.53 97.5874C126.001 95.1864 128.838 93.6814 131.653 93.8193C134.467 93.9457 137.156 95.7033 138.408 98.2307C139.729 94.1295 143.256 90.8209 147.426 89.764C151.596 88.7071 156.272 89.9249 159.396 92.9003C164.083 93.647 167.507 98.92 166.278 103.515C168.816 105.686 170.103 109.213 169.575 112.51C169.035 115.807 166.703 118.748 163.612 120L82.8403 120.012L75.9819 88.1327L88.1592 73.8647Z" fill="white"/>
</g>
<path opacity="0.7" d="M152.368 53.2554C128.174 76.0131 111.011 82.1477 89.4018 84.3419L87.9658 107.318L110.655 115.072C130.471 114.498 149.496 85.8009 161.248 61.1936L152.368 53.2554Z" fill="#FFF2E0"/>
<path d="M155.779 53.5542C151.839 58.2068 145.911 62.6527 138.915 68.6724L148.462 64.778C147.29 66.7194 145.578 69.4306 144.625 70.6024C146.83 69.58 150.369 67.3513 151.54 66.1565C151.54 67.8108 149.553 70.5794 148.68 72.0958C153.769 67.7304 158.41 62.4114 159.904 57.7358L155.779 53.5542Z" fill="#FFA121"/>
<path opacity="0.4" d="M156.894 53.7837C154.562 56.874 151.081 59.8379 146.968 63.8472L152.54 61.2049C151.839 62.4801 150.816 64.2837 150.254 65.0534C151.54 64.3641 153.62 62.8707 154.309 62.078C154.286 63.1579 153.103 64.9845 152.586 65.9839C155.584 63.0775 158.318 59.5507 159.237 56.4834L156.894 53.7837Z" fill="white"/>
<path d="M120.761 69.5912C120.796 70.315 120.761 71.5212 120.038 71.9463C118.843 72.6355 117.901 70.9468 117.453 70.1082C116.936 69.0857 117.062 67.8336 118.257 67.3855C119.819 66.7881 120.704 68.2471 120.761 69.5912Z" fill="#D1D1FF"/>
<path d="M177.639 91.4298C177.673 92.1536 177.639 93.3713 176.915 93.7849C175.72 94.4742 174.778 92.7854 174.342 91.9468C173.813 90.9359 173.94 89.6722 175.134 89.2241C176.697 88.6268 177.581 90.0857 177.639 91.4298Z" fill="#D1D1FF"/>
<path d="M115.385 61.4577C115.385 62.0091 114.937 62.4572 114.386 62.4572C113.834 62.4572 113.375 62.0091 113.375 61.4577C113.375 60.9063 113.834 60.4468 114.386 60.4468C114.937 60.4468 115.385 60.9063 115.385 61.4577Z" fill="#D1D1FF"/>
<path d="M167.036 79.5972C167.036 80.4474 166.347 81.1251 165.508 81.1251C164.658 81.1251 163.98 80.4474 163.98 79.5972C163.98 78.7471 164.658 78.0693 165.508 78.0693C166.347 78.0693 167.036 78.7471 167.036 79.5972Z" fill="#D1D1FF"/>
<path fill-rule="evenodd" clip-rule="evenodd" d="M174.501 103.515H100.68C96.9345 103.515 93.8901 100.471 93.8901 96.7259V51.6699H181.291V96.7259C181.291 100.471 178.246 103.515 174.501 103.515ZM94.1773 51.9571V96.7259C94.1773 100.31 97.0953 103.228 100.68 103.228H174.501C178.086 103.228 181.004 100.31 181.004 96.7259V51.9571H94.1773Z" fill="#9192FF"/>
<path d="M174.502 34.415H100.68C97.0157 34.415 94.0403 37.3904 94.0403 41.0666V51.8194H181.154V41.0666C181.154 37.3904 178.167 34.415 174.502 34.415Z" fill="white"/>
<path fill-rule="evenodd" clip-rule="evenodd" d="M181.291 51.9571H93.8904V41.0665C93.8904 37.3214 96.9347 34.2771 100.68 34.2771H174.502C178.247 34.2771 181.291 37.3214 181.291 41.0665V51.9571ZM94.1776 51.6699H181.004V41.055C181.004 37.4708 178.086 34.5528 174.502 34.5528H100.68C97.0955 34.5528 94.1776 37.4708 94.1776 41.055V51.6699Z" fill="#9192FF"/>
<path d="M106.459 43.1117C106.459 45.1336 104.827 46.7648 102.817 46.7648C100.807 46.7648 99.1753 45.1336 99.1753 43.1117C99.1753 41.1013 100.807 39.47 102.817 39.47C104.827 39.47 106.459 41.1013 106.459 43.1117Z" fill="#D1D1FF"/>
<path d="M117.187 43.1117C117.187 45.1336 115.556 46.7648 113.545 46.7648C111.535 46.7648 109.904 45.1336 109.904 43.1117C109.904 41.1013 111.535 39.47 113.545 39.47C115.556 39.47 117.187 41.1013 117.187 43.1117Z" fill="white"/>
<path fill-rule="evenodd" clip-rule="evenodd" d="M113.545 46.9026C111.454 46.9026 109.754 45.2024 109.754 43.1116C109.754 41.0323 111.454 39.332 113.545 39.332C115.636 39.332 117.336 41.0323 117.336 43.1116C117.336 45.2024 115.636 46.9026 113.545 46.9026ZM113.545 39.6192C111.615 39.6192 110.041 41.1816 110.041 43.1116C110.041 45.0416 111.615 46.6154 113.545 46.6154C115.475 46.6154 117.049 45.0416 117.049 43.1116C117.049 41.1816 115.475 39.6192 113.545 39.6192Z" fill="#9192FF"/>
<path d="M141.28 46.5926H126.771C124.852 46.5926 123.301 45.0417 123.301 43.1117C123.301 41.1932 124.852 39.6423 126.771 39.6423H141.28C143.198 39.6423 144.761 41.1932 144.761 43.1117C144.761 45.0417 143.198 46.5926 141.28 46.5926Z" fill="white"/>
<path fill-rule="evenodd" clip-rule="evenodd" d="M141.28 46.7419H126.77C124.783 46.7419 123.152 45.1106 123.152 43.1116C123.152 41.1242 124.783 39.4929 126.77 39.4929H141.28C143.279 39.4929 144.898 41.1242 144.898 43.1116C144.898 45.1106 143.279 46.7419 141.28 46.7419ZM126.77 39.7801C124.932 39.7801 123.439 41.2736 123.439 43.1116C123.439 44.9497 124.932 46.4547 126.77 46.4547H141.28C143.118 46.4547 144.611 44.9497 144.611 43.1116C144.611 41.2736 143.118 39.7801 141.28 39.7801H126.77Z" fill="#9192FF"/>
<path d="M170.897 26.4883C165.072 31.5775 155.043 28.0736 151.918 32.1404L160.833 39.194L170.897 26.4883Z" fill="#3335CF"/>
<path d="M151.919 32.1404C151.482 33.3236 151.723 34.6563 152.55 35.6098L158.869 42.8472L160.833 39.194L151.919 32.1404Z" fill="#D1D1FF"/>
<path d="M184.073 36.9309C180.455 43.7548 186.164 52.7269 182.925 56.6903L174.021 49.6366L184.073 36.9309Z" fill="#3335CF"/>
<path d="M182.925 56.6904C181.868 57.3911 180.524 57.4715 179.398 56.8742L170.908 52.3824L174.022 49.6367L182.925 56.6904Z" fill="#D1D1FF"/>
<path d="M188.601 17.7346L180.674 20.6526L187.59 26.1209L188.601 17.7346Z" fill="#1B1B43"/>
<path d="M187.589 26.1209C186.474 38.6773 177.204 50.3835 165.945 56.8972L155.675 48.7752C159.983 35.2194 168.002 25.5235 180.673 20.6526L187.589 26.1209Z" fill="#C5C5FF"/>
<path d="M155.676 48.7751L151.23 51.8539L163.959 61.9404L165.946 56.8972L155.676 48.7751Z" fill="#3335CF"/>
<path d="M181.433 34.4727C179.802 36.529 176.803 36.8852 174.736 35.2539C172.679 33.6111 172.323 30.6242 173.966 28.5564C175.597 26.4885 178.584 26.1439 180.652 27.7752C182.72 29.418 183.064 32.4048 181.433 34.4727Z" fill="white"/>
<path d="M178.056 34.8863L178.022 34.5991C178.297 34.5762 178.562 34.5072 178.826 34.4153L178.929 34.6795C178.642 34.7829 178.355 34.8634 178.056 34.8863ZM177.16 34.8634C176.861 34.8174 176.574 34.737 176.298 34.6106L176.413 34.3464C176.666 34.4613 176.93 34.5417 177.206 34.5876L177.16 34.8634ZM179.71 34.243L179.538 34.0018C179.756 33.8409 179.963 33.6571 180.135 33.4388L180.354 33.6112C180.17 33.8524 179.952 34.0592 179.71 34.243ZM175.54 34.1281C175.299 33.9328 175.104 33.7146 174.92 33.4733L175.161 33.301C175.322 33.5307 175.506 33.726 175.724 33.9099L175.54 34.1281ZM180.71 33.0712L180.446 32.9334C180.572 32.6921 180.675 32.4394 180.733 32.1637L181.009 32.2211C180.951 32.5198 180.848 32.807 180.71 33.0712ZM174.506 32.6691C174.403 32.3934 174.334 32.0947 174.311 31.7961L174.598 31.7731C174.621 32.0488 174.679 32.313 174.771 32.5772L174.506 32.6691ZM180.802 31.3365C180.79 31.0608 180.733 30.7966 180.652 30.5324L180.928 30.4405C181.02 30.7277 181.077 31.0264 181.089 31.3251L180.802 31.3365ZM174.633 30.9459L174.357 30.8885C174.403 30.6013 174.495 30.3141 174.633 30.0384L174.885 30.1648C174.771 30.406 174.69 30.6702 174.633 30.9459ZM180.296 29.7857C180.147 29.5559 179.963 29.3491 179.756 29.1653L179.952 28.947C180.181 29.1538 180.377 29.3836 180.538 29.6363L180.296 29.7857ZM175.333 29.464L175.115 29.2802C175.31 29.0504 175.54 28.8436 175.782 28.6828L175.942 28.9126C175.72 29.0734 175.517 29.2572 175.333 29.464ZM179.079 28.6943C178.837 28.5794 178.573 28.4875 178.297 28.4301L178.355 28.1544C178.653 28.2118 178.941 28.3037 179.205 28.4416L179.079 28.6943ZM176.678 28.545L176.586 28.2692C176.873 28.1773 177.16 28.1084 177.459 28.0969L177.482 28.3841C177.206 28.3994 176.938 28.4531 176.678 28.545Z" fill="#9192FF"/>
<path d="M154.217 61.3891L153.999 61.2053C153.665 60.9411 153.608 60.4586 153.872 60.1255L162.798 48.8442C163.063 48.5111 163.557 48.4536 163.89 48.7179L164.108 48.9017C164.441 49.1659 164.499 49.6484 164.234 49.9815L155.308 61.2628C155.044 61.5959 154.55 61.6534 154.217 61.3891Z" fill="#1B1B43"/>
<path d="M170.046 159.738H168.323V159.451H170.046V159.738ZM166.6 159.738H164.877V159.451H166.6V159.738ZM163.153 159.738H161.43V159.451H163.153V159.738ZM159.707 159.738H157.984V159.451H159.707V159.738ZM156.261 159.738H154.537V159.451H156.261V159.738ZM152.814 159.738H151.091V159.451H152.814V159.738ZM149.368 159.738H147.645V159.451H149.368V159.738ZM145.921 159.738H144.198V159.451H145.921V159.738ZM142.475 159.738H140.752V159.451H142.475V159.738ZM139.029 159.738H137.305V159.451H139.029V159.738ZM135.582 159.738C134.985 159.726 134.399 159.635 133.836 159.439L133.94 159.164C134.468 159.347 135.019 159.439 135.582 159.451V159.738ZM170.253 159.738L170.242 159.451C170.804 159.428 171.356 159.313 171.884 159.118L171.976 159.382C171.425 159.6 170.85 159.715 170.253 159.738ZM132.285 158.612C131.826 158.245 131.412 157.819 131.079 157.337L131.32 157.165C131.63 157.636 132.021 158.038 132.469 158.382L132.285 158.612ZM173.504 158.509L173.32 158.29C173.757 157.934 174.136 157.521 174.435 157.05L174.676 157.199C174.354 157.705 173.964 158.141 173.504 158.509ZM130.321 155.74C130.183 155.246 130.114 154.741 130.114 154.235V153.994H130.401V154.235C130.401 154.718 130.47 155.2 130.597 155.66L130.321 155.74ZM175.377 155.591L175.101 155.522C175.204 155.097 175.262 154.672 175.262 154.235V153.845H175.549V154.235C175.549 154.695 175.492 155.143 175.377 155.591ZM130.401 152.271H130.114V150.548H130.401V152.271ZM175.549 152.121H175.262V150.398H175.549V152.121ZM130.401 148.824H130.114V147.101H130.401V148.824ZM175.549 148.675H175.262V146.952H175.549V148.675ZM130.401 145.378H130.114V143.655H130.401V145.378ZM175.549 145.229H175.262V143.505H175.549V145.229ZM130.401 141.932H130.114V140.208H130.401V141.932ZM175.549 141.782H175.262V140.059H175.549V141.782ZM130.401 138.485H130.114V136.762H130.401V138.485ZM175.549 138.336H175.262V136.613H175.549V138.336ZM130.401 135.039H130.114V133.89C130.114 133.698 130.125 133.503 130.148 133.304L130.436 133.339C130.413 133.522 130.401 133.706 130.401 133.89V135.039ZM175.549 134.889H175.262V133.89C175.262 133.653 175.247 133.419 175.216 133.189L175.492 133.155C175.53 133.4 175.549 133.645 175.549 133.89V134.889ZM130.872 131.73L130.608 131.604C130.861 131.075 131.182 130.581 131.584 130.145L131.803 130.34C131.412 130.754 131.102 131.225 130.872 131.73ZM174.722 131.592C174.481 131.098 174.148 130.639 173.757 130.237L173.964 130.03C174.377 130.455 174.722 130.938 174.986 131.466L174.722 131.592ZM133.112 129.318L132.975 129.065C133.491 128.778 134.054 128.582 134.629 128.479L134.686 128.755C134.135 128.858 133.606 129.042 133.112 129.318ZM172.401 129.249C171.907 128.996 171.367 128.824 170.816 128.732L170.862 128.456C171.448 128.537 172.011 128.72 172.539 128.985L172.401 129.249ZM169.104 128.686H167.381V128.399H169.104V128.686ZM165.658 128.686H163.935V128.399H165.658V128.686ZM162.211 128.686H160.488V128.399H162.211V128.686ZM158.765 128.686H157.042V128.399H158.765V128.686ZM155.319 128.686H153.595V128.399H155.319V128.686ZM151.872 128.686H150.149V128.399H151.872V128.686ZM148.426 128.686H146.703V128.399H148.426V128.686ZM144.979 128.686H143.256V128.399H144.979V128.686ZM141.533 128.686H139.81V128.399H141.533V128.686ZM138.087 128.686H136.363V128.399H138.087V128.686Z" fill="#9192FF"/>
<path d="M166.898 154.764H130.24C127.896 154.764 126 152.857 126 150.513V127.077C126 124.734 127.896 122.838 130.24 122.838H166.898C169.241 122.838 171.137 124.734 171.137 127.077V150.513C171.137 152.857 169.241 154.764 166.898 154.764Z" fill="#9192FF"/>
<path d="M138.73 151.409H133.848V141.483H138.73V151.409Z" fill="white"/>
<path d="M146.921 151.409H142.027V141.805H146.921V151.409Z" fill="white"/>
<path d="M155.1 151.409H150.218V136.785H155.1V151.409Z" fill="white"/>
<path d="M163.291 151.409H158.397V132.488H163.291V151.409Z" fill="white"/>
<path d="M161.681 128.479H135.454V127.33H161.681V128.479Z" fill="white"/>
<path d="M55.5917 91.6713C54.7645 88.7878 53.0069 86.2605 50.5944 84.4798L49.6179 83.7676L50.4451 100.804L56.8094 95.8759L55.5917 91.6713Z" fill="#FFA121"/>
<path d="M76.0511 112.258L74.6381 109.489C74.2705 108.788 73.6386 108.26 72.8804 108.053L68.7217 106.904L58.0149 100.069L56.8087 95.876L50.4443 100.804L50.5018 101.999C50.6167 104.389 52.0871 106.514 54.2928 107.467L64.6895 111.948L69.6293 112.063C71.2146 112.614 71.7661 113.981 72.754 113.487C73.1216 113.303 71.6856 110.937 71.6856 110.937L74.0752 113.567L76.0511 112.258Z" fill="#FFBC96"/>
<path d="M56.7413 101.827L56.4885 101.608L57.8901 99.9656L58.1428 100.172L56.7413 101.827Z" fill="#D28572"/>
<path d="M57.4309 119.151L65.2198 118.461C70.286 118.013 74.6974 122.114 74.9501 127.491L76.7078 165.838L65.9665 166.171L57.4309 119.151Z" fill="#26289C"/>
<path d="M66.8276 165.792L67.1608 176.384H83.0717L75.2254 169.858L74.7314 164.746L66.8276 165.792Z" fill="#1B1B43"/>
<path d="M72.0779 172.696L71.6758 172.179L75.0188 169.594L75.4209 170.111L72.0779 172.696Z" fill="white"/>
<path d="M63.2065 165.792L63.5282 176.384H79.4506L71.6043 169.858L71.1103 164.746L63.2065 165.792Z" fill="#D1D1FF"/>
<path d="M68.4568 172.696L68.0547 172.179L71.3977 169.594L71.7998 170.111L68.4568 172.696Z" fill="white"/>
<path d="M75.0633 166.837H61.8866L52.5009 137.945L51.1798 133.901L32.4084 133.821C31.2596 133.809 30.1452 133.269 29.2032 132.477C27.2043 130.799 26.2853 128.146 26.6529 125.561L28.2957 113.82L56.1885 117.439C61.473 118.128 65.7465 122.091 66.8264 127.307L75.0633 166.837Z" fill="#3335CF"/>
<path d="M55.0514 133.901L52.5011 137.945L51.1799 133.901H55.0514Z" fill="#1B1B43"/>
<path d="M51.6049 111.695C51.4671 112.239 51.3254 112.782 51.1799 113.326L50.1919 117.358L37.1875 116.818L27.8248 116.428C25.3434 116.325 23.5398 114.027 24.0452 111.591L28.4107 90.5799C28.9736 87.0071 31.88 84.25 35.4758 83.8824L46.1596 82.7795L49.6175 83.7675C52.995 85.5826 52.995 88.8682 53.1558 91.0164C53.8681 100.425 52.995 106.123 51.6049 111.695Z" fill="#FFA121"/>
<path opacity="0.3" d="M42.7816 111.017C42.6552 111.557 51.3287 112.775 51.1793 113.326L50.1914 117.358L37.1869 116.818C32.6492 113.395 30.9375 105.928 29.2832 96.5881L42.7816 111.017Z" fill="#1B1B43"/>
<path d="M40.1974 88.8567C40.7718 89.4656 41.4151 90.0055 42.1503 90.3961C42.8626 90.7982 43.6553 91.0854 44.4709 91.1888C45.2751 91.2922 46.1252 91.2232 46.8374 90.8326C47.5497 90.4765 48.0207 89.7183 48.1011 88.8912L48.2275 88.9026C48.2275 89.3392 48.1126 89.7757 47.9058 90.1548C47.6876 90.5454 47.3544 90.8671 46.9753 91.0854C46.1941 91.5334 45.2751 91.6138 44.425 91.5104C43.5634 91.384 42.7362 91.0854 42.001 90.6373C41.2658 90.2008 40.6224 89.6149 40.1055 88.9371L40.1974 88.8567Z" fill="#1B1B43"/>
<path d="M53.4423 101.7L53.201 101.677C53.4423 98.3687 53.201 94.2904 52.4888 89.5804L52.73 89.5459C53.4423 94.279 53.6835 98.3687 53.4423 101.7Z" fill="#1B1B43"/>
<path d="M75.5568 115.796H63.3105V113.384H75.5568V115.796Z" fill="#1B1B43"/>
<path d="M96.7398 115.796H72.144L83.4597 94.1755H108.044L96.7398 115.796Z" fill="#9192FF"/>
<path d="M42.9102 65.4901C40.0267 62.6526 34.5929 63.8473 34.6848 68.6263C28.757 70.1887 28.4238 76.6909 30.8133 80.0224L32.8697 80.1833L33.3177 77.7593L34.5124 80.2292L40.2794 80.5968L42.9102 65.4901Z" fill="#1B1B43"/>
<path d="M47.7236 76.1165V85.1805C47.7236 85.2647 47.7236 85.3451 47.7236 85.4217C47.5743 87.2943 45.7707 88.6154 43.9211 88.1329C41.1984 87.4321 39.3029 84.9737 39.3259 82.1591L39.3718 76.1165H47.7236Z" fill="#FFBC96"/>
<path d="M47.7235 80.034V85.1806C47.7235 85.2648 47.7235 85.3453 47.7235 85.4218C45.288 85.0313 42.4849 82.2167 41.7957 79.1609L47.7235 80.034Z" fill="#1B1B43"/>
<path d="M52.6413 76.7828C52.515 77.5066 52.3427 78.2418 52.1244 78.9426C51.4006 81.2516 50.1025 83.1586 47.7704 82.8255C42.2907 82.0443 39.2463 76.4037 39.2463 76.4037L42.9914 72.1187L45.5073 68.7412L53.0319 71.9923C53.0319 71.9923 53.0779 74.3014 52.6413 76.7828Z" fill="#FFBC96"/>
<path d="M40.8649 74.9562C43.2659 74.8873 45.1269 73.658 45.9196 70.1887C45.9196 70.1887 51.5142 75.0136 54.2599 72.4403C56.5575 70.2806 52.6631 65.3063 46.2068 64.7089C43.8518 64.5021 41.5082 65.2373 39.6701 66.7078C36.5454 69.2122 36.2467 75.0481 39.1646 77.0585L40.8649 74.9562Z" fill="#1B1B43"/>
<path d="M38.0511 68.8676C37.9018 68.3047 38.0167 67.6729 38.2694 67.133C38.5221 66.5815 38.9242 66.1105 39.3952 65.7429C39.8662 65.3753 40.4291 65.1111 41.015 64.9847C41.5894 64.8698 42.2098 64.8928 42.7497 65.1226C42.1868 65.3064 41.7158 65.4902 41.2563 65.7199C40.8082 65.9612 40.3947 66.2254 40.0041 66.5241C39.6135 66.8228 39.2459 67.1674 38.9242 67.5465C38.6025 67.9256 38.3153 68.3392 38.0511 68.8676Z" fill="#FFA121"/>
<path d="M41.8878 74.646C42.3473 75.8063 41.9453 77.0585 40.9918 77.4491C40.0268 77.8282 38.878 77.1964 38.407 76.0361C37.9474 74.8758 38.3495 73.6236 39.303 73.2445C40.268 72.8654 41.4168 73.4858 41.8878 74.646Z" fill="#FFBC96"/>
<path d="M40.1541 76.5875C40.1886 76.1854 40.1886 75.8063 40.0737 75.4617C39.9588 75.1056 39.7405 74.8069 39.4878 74.4852L39.5682 74.3933C39.9358 74.5771 40.2575 74.9332 40.3839 75.3583C40.5217 75.7834 40.4643 76.2544 40.269 76.622L40.1541 76.5875Z" fill="#1B1B43"/>
<path d="M49.1483 75.3696C49.1483 75.7142 48.8955 75.99 48.5854 75.99C48.2752 75.99 48.0339 75.7142 48.0339 75.3696C48.0339 75.0365 48.2752 74.7607 48.5854 74.7607C48.8955 74.7607 49.1483 75.0365 49.1483 75.3696Z" fill="#1B1B43"/>
<path d="M52.0656 75.8639C52.0311 76.1626 51.7784 76.3809 51.5027 76.3464C51.227 76.3119 51.0432 76.0362 51.0776 75.7375C51.1121 75.4389 51.3648 75.2206 51.6405 75.255C51.9048 75.2895 52.1001 75.5537 52.0656 75.8639Z" fill="#1B1B43"/>
<path d="M49.1134 73.8304C49.1364 74.1176 48.6769 74.1406 47.9991 74.1635C47.3213 74.1865 46.8503 74.3933 46.8503 74.2095C46.8388 74.0257 47.3443 73.5662 48.0106 73.4513C48.6999 73.3364 49.0905 73.4857 49.1134 73.8304Z" fill="#1B1B43"/>
<path d="M51.2846 74.1062C51.2271 74.3934 51.5718 74.4623 52.0658 74.5542C52.5712 74.6346 52.8929 74.8874 52.9159 74.7151C52.9388 74.5313 52.6287 74.0143 52.1462 73.842C51.6407 73.6582 51.342 73.773 51.2846 74.1062Z" fill="#1B1B43"/>
<path d="M50.4681 76.3694C50.606 76.5302 50.7439 76.6681 50.8932 76.8059L51.1115 77.0127C51.1919 77.0816 51.2723 77.1621 51.3412 77.2769C51.3872 77.3344 51.4102 77.4033 51.4216 77.4952C51.4216 77.5756 51.3987 77.656 51.3642 77.725C51.2838 77.8513 51.1919 77.9318 51.1 77.9892C50.9047 78.1271 50.6864 78.173 50.4796 78.219L50.4337 78.0926C50.606 77.9777 50.7898 77.8858 50.9277 77.7594C50.9851 77.702 51.054 77.6331 51.077 77.5756C51.1 77.5182 51.1 77.5067 51.0655 77.4378C50.9966 77.3229 50.8013 77.1621 50.6864 76.9897C50.5486 76.8289 50.4337 76.6451 50.3647 76.4268L50.4681 76.3694Z" fill="#1B1B43"/>
<path d="M47.6889 78.4026C48.022 78.7817 48.3781 79.1378 48.7917 79.3676C49.2168 79.5973 49.6878 79.6548 50.1932 79.6088L50.2277 79.7237C49.9865 79.8386 49.7107 79.896 49.435 79.8845C49.1593 79.8616 48.8836 79.7812 48.6424 79.6548C48.1484 79.3791 47.7922 78.9425 47.574 78.4715L47.6889 78.4026Z" fill="#1B1B43"/>
<path opacity="0.2" d="M47.0683 76.691C47.0683 77.4378 46.4595 78.0466 45.7128 78.0466C44.966 78.0466 44.3572 77.4378 44.3572 76.691C44.3572 75.9328 44.966 75.3354 45.7128 75.3354C46.4595 75.3354 47.0683 75.9328 47.0683 76.691Z" fill="#FE5B52"/>
<path opacity="0.2" d="M52.6409 76.7827C52.5145 77.5065 52.3422 78.2417 52.1239 78.9425C51.9057 78.7012 51.7793 78.391 51.7793 78.0464C51.7793 77.472 52.1354 76.9895 52.6409 76.7827Z" fill="#FE5B52"/>
<path d="M37.1276 92.8545L29.2812 96.5881L31.7397 102.424L39.9766 98.6215L37.1276 92.8545Z" fill="#FFA121"/>
<path d="M66.2038 113.085C65.9855 112.981 65.8477 112.913 65.8477 112.913L65.9281 112.752C65.9281 112.752 66.0774 112.821 66.2842 112.936L66.2038 113.085Z" fill="#C5C5FF"/>
<path d="M69.4541 113.901C69.2014 114.406 67.2599 113.51 66.3524 113.073C67.0531 113.464 68.2708 114.222 67.7309 114.647C67.2944 114.969 66.3409 114.268 63.2161 112.97C63.6871 113.188 66.4787 114.521 65.778 115.026C65.0083 115.578 61.7227 114.372 61.7227 114.372L58.8622 115.9H55.5651L43.721 115.98C42.9743 115.98 42.239 115.888 41.5268 115.704C40.1253 115.348 38.7926 114.647 37.6783 113.705C36.9661 113.119 36.3572 112.419 35.8402 111.66C35.4611 111.086 35.1395 110.466 34.8638 109.822L31.739 102.424L39.9759 98.6216L44.2609 107.341L58.4256 110.42L62.3775 109.432C63.2276 109.214 64.4339 109.57 65.1806 110.029C66.9957 111.144 69.6954 113.418 69.4541 113.901Z" fill="#FFBC96"/>
<path opacity="0.2" d="M41.7461 114.475C41.7461 114.911 41.6657 115.325 41.5279 115.704C40.1263 115.348 38.7937 114.647 37.6794 113.705C36.9671 113.119 36.3583 112.419 35.8413 111.66C36.4731 111.155 37.2543 110.856 38.1159 110.856C40.1263 110.856 41.7461 112.476 41.7461 114.475Z" fill="#FE5B52"/>
<path d="M58.4038 110.351C59.3918 110.029 60.3797 109.742 61.4022 109.535C61.9077 109.432 62.4246 109.34 62.9416 109.317C63.202 109.301 63.4662 109.309 63.7342 109.34C63.8721 109.363 63.9985 109.397 64.1363 109.432C64.2627 109.466 64.3776 109.524 64.5039 109.569C65.4689 110.006 66.3076 110.626 67.1232 111.27C67.9389 111.925 68.6971 112.614 69.4438 113.338L69.4782 113.372L69.4897 113.418C69.5127 113.567 69.4897 113.717 69.4093 113.854C69.3519 113.923 69.2944 113.992 69.2255 114.015C69.1566 114.061 69.0877 114.084 69.0187 114.084C68.7545 114.13 68.5132 114.073 68.2835 114.015C67.824 113.889 67.4219 113.682 67.0083 113.475C66.6062 113.269 66.2042 113.039 65.8251 112.798C65.423 112.568 65.0554 112.304 64.6763 112.062L64.8486 111.787C65.5264 112.177 66.1812 112.602 66.8015 113.073C67.1117 113.315 67.4219 113.567 67.6861 113.889C67.755 113.969 67.8125 114.061 67.8584 114.176C67.8814 114.234 67.8929 114.303 67.8929 114.383C67.8929 114.463 67.8699 114.544 67.8125 114.601C67.7091 114.728 67.5827 114.762 67.4793 114.797C67.3644 114.819 67.2611 114.831 67.1577 114.831L67.1347 114.842L67.1002 114.819L63.516 113.326L63.6308 113.073C64.1938 113.338 64.7337 113.613 65.2621 113.958C65.5149 114.142 65.7791 114.303 65.9744 114.624C66.0204 114.705 66.0433 114.819 65.9974 114.934C65.9514 115.049 65.871 115.118 65.7906 115.153C65.6183 115.233 65.4574 115.256 65.2966 115.268C64.6533 115.279 64.0559 115.13 63.4585 114.98C62.8612 114.819 62.2753 114.636 61.7009 114.429L61.7468 114.303C62.3212 114.498 62.9071 114.67 63.5045 114.808C64.0904 114.946 64.6992 115.072 65.2851 115.049C65.5608 115.038 65.894 114.911 65.7676 114.728C65.6298 114.509 65.3655 114.326 65.1243 114.165C64.6188 113.843 64.0674 113.567 63.516 113.326L63.6194 113.073L67.2151 114.544L67.1462 114.532C67.2381 114.521 67.33 114.509 67.3989 114.486C67.4793 114.475 67.5483 114.44 67.5712 114.406C67.6172 114.394 67.5483 114.211 67.4449 114.084C67.2151 113.809 66.9164 113.556 66.6062 113.326C65.9974 112.867 65.3426 112.453 64.6877 112.062L64.8601 111.787C65.2392 112.028 65.6068 112.292 65.9859 112.522C66.365 112.763 66.7556 112.981 67.1577 113.2C67.5483 113.395 67.9503 113.602 68.3639 113.717C68.5707 113.774 68.789 113.82 68.9613 113.786L69.0302 113.774C69.0417 113.763 69.0532 113.751 69.0762 113.751C69.1106 113.74 69.1221 113.705 69.1451 113.694C69.1796 113.636 69.191 113.544 69.1796 113.487L69.2255 113.556C68.5018 112.844 67.7321 112.154 66.9394 111.499C66.1467 110.856 65.3196 110.224 64.412 109.799L64.0559 109.661C63.941 109.627 63.8261 109.604 63.6998 109.569C63.4547 109.539 63.2058 109.531 62.9531 109.546C62.4476 109.569 61.9421 109.638 61.4366 109.73C60.4257 109.914 59.4262 110.178 58.4498 110.477L58.4038 110.351Z" fill="#D28572"/>
<path d="M31.7975 102.539L31.6941 102.309L39.8161 98.564L36.4271 90.6488L36.6569 90.5454L40.1378 98.6904L31.7975 102.539Z" fill="#1B1B43"/>
<path d="M32.9607 174.304H32.5242V137.198H32.9607V174.304Z" fill="#1B1B43"/>
<path d="M43.1163 138.841H22.3689C20.9674 138.841 19.8186 137.704 19.8186 136.291C19.8186 134.889 20.9674 133.74 22.3689 133.74H43.1163C44.5293 133.74 45.6666 134.889 45.6666 136.291C45.6666 137.704 44.5293 138.841 43.1163 138.841Z" fill="#D1D1FF"/>
<path d="M41.4725 176.717H24.0222V176.292C24.0222 174.178 25.7339 172.455 27.8592 172.455H37.6355C39.7493 172.455 41.4725 174.178 41.4725 176.292V176.717Z" fill="#D1D1FF"/>
<path d="M94.2499 176.579L57.4768 118.289L57.8444 118.059L94.6175 176.349L94.2499 176.579Z" fill="#1B1B43"/>
<path d="M57.8444 176.579L57.4768 176.349L94.2499 118.059L94.6175 118.289L57.8444 176.579Z" fill="#1B1B43"/>
<path d="M108.266 120.656H43.8298V115.796H108.266V120.656Z" fill="#D1D1FF"/>
<path fill-rule="evenodd" clip-rule="evenodd" d="M49.2283 38.3212C41.8071 38.3212 35.7644 32.2785 35.7644 24.8572C35.7644 17.436 41.8071 11.3933 49.2283 11.3933C56.6611 11.3933 62.7038 17.436 62.7038 24.8572C62.7038 32.2785 56.6611 38.3212 49.2283 38.3212ZM49.2283 11.6805C41.9679 11.6805 36.0516 17.5853 36.0516 24.8572C36.0516 32.1177 41.9679 38.034 49.2283 38.034C56.5002 38.034 62.4166 32.1177 62.4166 24.8572C62.4166 17.5853 56.5002 11.6805 49.2283 11.6805Z" fill="#9192FF"/>
<path d="M72.9848 19.5842C72.9848 27.6718 66.4252 34.2314 58.3376 34.2314C50.2501 34.2314 43.6904 27.6718 43.6904 19.5842C43.6904 11.4852 50.2501 4.92554 58.3376 4.92554C66.4252 4.92554 72.9848 11.4852 72.9848 19.5842Z" fill="#EBEBFF"/>
<path d="M58.3378 19.8599L50.2158 13.4955L50.4915 13.1509L58.3378 19.297L62.7033 15.5978L62.9905 15.931L58.3378 19.8599Z" fill="#1B1B43"/>
<path d="M20.3086 51.1763H12.8758C11.6811 51.1763 10.7046 52.1413 10.7046 53.3475V60.7802C10.7046 61.9865 11.6811 62.9515 12.8758 62.9515H18.1833L20.4694 66.1107V62.94C21.5952 62.8596 22.4798 61.929 22.4798 60.7802V53.3475C22.4798 52.1413 21.5148 51.1763 20.3086 51.1763Z" fill="white"/>
<path fill-rule="evenodd" clip-rule="evenodd" d="M20.6191 66.5586L18.1148 63.1007H12.8762C11.6011 63.1007 10.5671 62.0553 10.5671 60.7802V53.3474C10.5671 52.0723 11.6011 51.0383 12.8762 51.0383H20.309C21.5841 51.0383 22.6295 52.0723 22.6295 53.3474V60.7802C22.6295 61.9404 21.7564 62.9284 20.6191 63.0778V66.5586ZM12.8762 51.3255C11.7619 51.3255 10.8543 52.2331 10.8543 53.3474V60.7802C10.8543 61.8945 11.7619 62.8135 12.8762 62.8135H18.2526L20.3319 65.6625V62.8135L20.4583 62.802C21.5152 62.7216 22.3423 61.837 22.3423 60.7802V53.3474C22.3423 52.2331 21.4348 51.3255 20.309 51.3255H12.8762Z" fill="#9192FF"/>
<path d="M16.438 60.895L13.4626 56.587L14.1749 56.1045L16.3691 59.2637L19.6662 53.3589L20.4129 53.7839L16.438 60.895Z" fill="#9192FF"/>
<path d="M192 177H0V176H192V177Z" fill="#1B1B43"/>
</svg>
