<svg width="243" height="162" viewBox="0 0 243 162" fill="none" xmlns="http://www.w3.org/2000/svg">
<path d="M237.373 107.885C238.374 105.809 239.26 103.665 240.03 101.474C245.708 85.2697 243.254 65.0383 232.6 51.1405C227.2 44.0956 219.645 38.9824 210.886 37.1755C197.758 34.4652 184.929 40.2703 171.791 39.5111C163.206 39.0209 155.073 35.6378 147.344 31.8894C126.478 21.7496 106.718 8.64965 84.0716 2.64268C66.3141 -2.06678 45.3035 -1.05761 30.2216 10.3893C4.78363 29.6885 6.22732 65.711 17.0647 92.43C20.212 100.205 24.3506 107.654 29.7211 114.113C48.3064 136.459 75.8233 144.82 104.043 146.656C128.634 148.261 154.043 147.387 178.682 146.493C203.398 145.599 226.719 130.058 237.373 107.885Z" fill="#F6F9FF"/>
<path d="M237 140.986C237 152.578 184.624 162 120.006 162C55.3886 162 3 152.578 3 140.986C3 129.394 55.3886 120 120.006 120C184.624 120 237 129.394 237 140.986Z" fill="url(#paint0_radial_422_15546)"/>
<path d="M43.3206 102.176H2.11743C0.952842 102.176 0 101.224 0 100.051V83.8278C0 82.6649 0.952842 81.7134 2.11743 81.7134H43.3206C44.4852 81.7134 45.4381 82.6649 45.4381 83.8278V100.051C45.4381 101.224 44.4852 102.176 43.3206 102.176Z" fill="#D4DFFF"/>
<path d="M11.1822 85.8654H3.16483C3.03971 85.8654 2.93384 85.7597 2.93384 85.6347V84.1258C2.93384 83.9912 3.03971 83.8855 3.16483 83.8855H11.1822C11.3169 83.8855 11.4228 83.9912 11.4228 84.1258V85.6347C11.4228 85.7597 11.3169 85.8654 11.1822 85.8654Z" fill="white"/>
<path d="M41.4838 85.8654H13.0814C12.8408 85.8654 12.6387 85.6732 12.6387 85.4329V84.3276C12.6387 84.0873 12.8408 83.8855 13.0814 83.8855H41.4838C41.7244 83.8855 41.9265 84.0873 41.9265 84.3276V85.4329C41.9265 85.6732 41.7244 85.8654 41.4838 85.8654Z" fill="#B7C9F7"/>
<path d="M22.3564 89.162H3.28995C3.09746 89.162 2.93384 88.9986 2.93384 88.7968V87.5474C2.93384 87.3455 3.09746 87.1821 3.28995 87.1821H22.3564C22.5585 87.1821 22.7125 87.3455 22.7125 87.5474V88.7968C22.7125 88.9986 22.5585 89.162 22.3564 89.162Z" fill="white"/>
<path d="M41.578 89.162H24.2439C24.0515 89.162 23.8975 89.0082 23.8975 88.816V87.5281C23.8975 87.3359 24.0515 87.1821 24.2439 87.1821H41.578C41.7705 87.1821 41.9245 87.3359 41.9245 87.5281V88.816C41.9245 89.0082 41.7705 89.162 41.578 89.162Z" fill="white"/>
<path d="M16.5816 92.4587H3.2322C3.06858 92.4587 2.93384 92.3241 2.93384 92.1511V90.7767C2.93384 90.6133 3.06858 90.4788 3.2322 90.4788H16.5816C16.7452 90.4788 16.88 90.6133 16.88 90.7767V92.1511C16.88 92.3241 16.7452 92.4587 16.5816 92.4587Z" fill="#B7C9F7"/>
<path opacity="0.2" d="M31.5694 92.4587H18.22C18.0564 92.4587 17.9216 92.3241 17.9216 92.1511V90.7767C17.9216 90.6133 18.0564 90.4788 18.22 90.4788H31.5694C31.733 90.4788 31.8678 90.6133 31.8678 90.7767V92.1511C31.8678 92.3241 31.733 92.4587 31.5694 92.4587Z" fill="#6880E4"/>
<path d="M41.6842 92.4587H33.5128C33.3781 92.4587 33.2722 92.3529 33.2722 92.2184V90.719C33.2722 90.5845 33.3781 90.4788 33.5128 90.4788H41.6842C41.8189 90.4788 41.9248 90.5845 41.9248 90.719V92.2184C41.9248 92.3529 41.8189 92.4587 41.6842 92.4587Z" fill="white"/>
<path opacity="0.2" d="M41.4133 95.7457H3.43432C3.15521 95.7457 2.93384 95.5246 2.93384 95.2459V94.2752C2.93384 93.9965 3.15521 93.7754 3.43432 93.7754H41.4133C41.6924 93.7754 41.9234 93.9965 41.9234 94.2752V95.2459C41.9234 95.5246 41.6924 95.7457 41.4133 95.7457Z" fill="#6880E4"/>
<path d="M22.3564 99.0424H3.28995C3.09746 99.0424 2.93384 98.879 2.93384 98.6868V97.4277C2.93384 97.2259 3.09746 97.0625 3.28995 97.0625H22.3564C22.5585 97.0625 22.7125 97.2259 22.7125 97.4277V98.6868C22.7125 98.879 22.5585 99.0424 22.3564 99.0424Z" fill="white"/>
<path d="M41.5877 99.0424H24.9659C24.7734 99.0424 24.6194 98.8886 24.6194 98.706V97.4085C24.6194 97.2163 24.7734 97.0625 24.9659 97.0625H41.5877C41.7705 97.0625 41.9245 97.2163 41.9245 97.4085V98.706C41.9245 98.8886 41.7705 99.0424 41.5877 99.0424Z" fill="#B7C9F7"/>
<path d="M32.5025 78.6476H2.08855C0.933594 78.6476 0 77.7153 0 76.5619V23.7102C0 22.5569 0.933594 21.615 2.08855 21.615H32.5025C33.6575 21.615 34.5911 22.5569 34.5911 23.7102V76.5619C34.5911 77.7153 33.6575 78.6476 32.5025 78.6476Z" fill="#D4DFFF"/>
<path d="M31.3665 26.5839H3.22396C3.00259 26.5839 2.82935 26.4109 2.82935 26.1899V24.8923C2.82935 24.6713 3.00259 24.4983 3.22396 24.4983H31.3665C31.5879 24.4983 31.7611 24.6713 31.7611 24.8923V26.1899C31.7611 26.4109 31.5879 26.5839 31.3665 26.5839Z" fill="#B7C9F7"/>
<path d="M31.3665 29.9191H3.22396C3.00259 29.9191 2.82935 29.7461 2.82935 29.5251V28.2276C2.82935 28.0161 3.00259 27.8335 3.22396 27.8335H31.3665C31.5879 27.8335 31.7611 28.0161 31.7611 28.2276V29.5251C31.7611 29.7461 31.5879 29.9191 31.3665 29.9191Z" fill="#F6F9FF"/>
<path opacity="0.2" d="M22.4155 33.2638H3.15658C2.97372 33.2638 2.82935 33.1101 2.82935 32.9371V31.505C2.82935 31.3224 2.97372 31.1782 3.15658 31.1782H22.4155C22.5984 31.1782 22.7428 31.3224 22.7428 31.505V32.9371C22.7428 33.1101 22.5984 33.2638 22.4155 33.2638Z" fill="#6880E4"/>
<path d="M31.3665 36.5988H3.22396C3.00259 36.5988 2.82935 36.4258 2.82935 36.2047V34.9072C2.82935 34.6862 3.00259 34.5132 3.22396 34.5132H31.3665C31.5879 34.5132 31.7611 34.6862 31.7611 34.9072V36.2047C31.7611 36.4258 31.5879 36.5988 31.3665 36.5988Z" fill="#F6F9FF"/>
<path d="M31.4719 39.9339H16.5922C16.4286 39.9339 16.3035 39.809 16.3035 39.6456V38.1366C16.3035 37.9829 16.4286 37.8579 16.5922 37.8579H31.4719C31.6356 37.8579 31.7607 37.9829 31.7607 38.1366V39.6456C31.7607 39.809 31.6356 39.9339 31.4719 39.9339Z" fill="#F6F9FF"/>
<path opacity="0.2" d="M14.5041 39.9339H3.07959C2.93522 39.9339 2.82935 39.8282 2.82935 39.684V38.1078C2.82935 37.9636 2.93522 37.8579 3.07959 37.8579H14.5041C14.6388 37.8579 14.7543 37.9636 14.7543 38.1078V39.684C14.7543 39.8282 14.6388 39.9339 14.5041 39.9339Z" fill="#6880E4"/>
<path d="M31.3665 43.2785H3.22396C3.00259 43.2785 2.82935 43.0959 2.82935 42.8844V41.5869C2.82935 41.3659 3.00259 41.1929 3.22396 41.1929H31.3665C31.5879 41.1929 31.7611 41.3659 31.7611 41.5869V42.8844C31.7611 43.0959 31.5879 43.2785 31.3665 43.2785Z" fill="#F6F9FF"/>
<path d="M31.3665 46.6135H3.22396C3.00259 46.6135 2.82935 46.4405 2.82935 46.2194V44.9219C2.82935 44.7104 3.00259 44.5278 3.22396 44.5278H31.3665C31.5879 44.5278 31.7611 44.7104 31.7611 44.9219V46.2194C31.7611 46.4405 31.5879 46.6135 31.3665 46.6135Z" fill="#F6F9FF"/>
<path opacity="0.2" d="M31.3665 49.9582H3.22396C3.00259 49.9582 2.82935 49.7756 2.82935 49.5641V48.2666C2.82935 48.0456 3.00259 47.8726 3.22396 47.8726H31.3665C31.5879 47.8726 31.7611 48.0456 31.7611 48.2666V49.5641C31.7611 49.7756 31.5879 49.9582 31.3665 49.9582Z" fill="#6880E4"/>
<path d="M31.3665 53.2934H3.22396C3.00259 53.2934 2.82935 53.1204 2.82935 52.8993V51.6018C2.82935 51.3808 3.00259 51.2078 3.22396 51.2078H31.3665C31.5879 51.2078 31.7611 51.3808 31.7611 51.6018V52.8993C31.7611 53.1204 31.5879 53.2934 31.3665 53.2934Z" fill="#F6F9FF"/>
<path d="M11.7899 56.6283H3.05071C2.92559 56.6283 2.82935 56.5322 2.82935 56.4073V54.7638C2.82935 54.6484 2.92559 54.5427 3.05071 54.5427H11.7899C11.9054 54.5427 12.0113 54.6484 12.0113 54.7638V56.4073C12.0113 56.5322 11.9054 56.6283 11.7899 56.6283Z" fill="#F6F9FF"/>
<path opacity="0.2" d="M24.9956 56.6283H14.3603C14.2256 56.6283 14.1101 56.5226 14.1101 56.3881V54.7926C14.1101 54.6581 14.2256 54.5427 14.3603 54.5427H24.9956C25.1304 54.5427 25.2362 54.6581 25.2362 54.7926V56.3881C25.2362 56.5226 25.1304 56.6283 24.9956 56.6283Z" fill="#6880E4"/>
<path d="M31.3665 59.9731H3.22396C3.00259 59.9731 2.82935 59.7905 2.82935 59.579V58.2815C2.82935 58.0605 3.00259 57.8875 3.22396 57.8875H31.3665C31.5879 57.8875 31.7611 58.0605 31.7611 58.2815V59.579C31.7611 59.7905 31.5879 59.9731 31.3665 59.9731Z" fill="#F6F9FF"/>
<path d="M27.5647 63.308H3.19508C2.99297 63.308 2.82935 63.1446 2.82935 62.9428V61.5876C2.82935 61.3858 2.99297 61.2224 3.19508 61.2224H27.5647C27.7765 61.2224 27.9401 61.3858 27.9401 61.5876V62.9428C27.9401 63.1446 27.7765 63.308 27.5647 63.308Z" fill="#B7C9F7"/>
<path d="M31.3665 66.6432H3.22396C3.00259 66.6432 2.82935 66.4701 2.82935 66.2491V64.9516C2.82935 64.7401 3.00259 64.5671 3.22396 64.5671H31.3665C31.5879 64.5671 31.7611 64.7401 31.7611 64.9516V66.2491C31.7611 66.4701 31.5879 66.6432 31.3665 66.6432Z" fill="#F6F9FF"/>
<path opacity="0.2" d="M13.8688 69.988H3.06996C2.93522 69.988 2.82935 69.8726 2.82935 69.7381V68.1426C2.82935 68.0081 2.93522 67.9023 3.06996 67.9023H13.8688C14.0036 67.9023 14.1095 68.0081 14.1095 68.1426V69.7381C14.1095 69.8726 14.0036 69.988 13.8688 69.988Z" fill="#6880E4"/>
<path d="M31.4633 69.988H15.5537C15.3901 69.988 15.2554 69.8534 15.2554 69.69V68.2003C15.2554 68.0369 15.3901 67.9023 15.5537 67.9023H31.4633C31.6269 67.9023 31.7617 68.0369 31.7617 68.2003V69.69C31.7617 69.8534 31.6269 69.988 31.4633 69.988Z" fill="#B7C9F7"/>
<path d="M31.3665 73.3232H3.22396C3.00259 73.3232 2.82935 73.1502 2.82935 72.9291V71.6316C2.82935 71.4202 3.00259 71.2375 3.22396 71.2375H31.3665C31.5879 71.2375 31.7611 71.4202 31.7611 71.6316V72.9291C31.7611 73.1502 31.5879 73.3232 31.3665 73.3232Z" fill="#F6F9FF"/>
<path d="M31.3665 76.658H3.22396C3.00259 76.658 2.82935 76.485 2.82935 76.2736V74.9761C2.82935 74.755 3.00259 74.582 3.22396 74.582H31.3665C31.5879 74.582 31.7611 74.755 31.7611 74.9761V76.2736C31.7611 76.485 31.5879 76.658 31.3665 76.658Z" fill="#F6F9FF"/>
<path d="M214.563 118.851C214.781 118.467 214.993 118.082 215.198 117.698C221.435 105.847 225.025 92.6223 225.621 79.2532C219.202 85.1352 212.734 91.1999 207.296 97.9949C203.148 103.195 199.577 108.961 197.315 115.189C201.3 100.465 203.398 85.1833 202.975 69.9592C187.806 90.9788 177.604 115.478 173.215 141.014L208.663 140.611C221.695 132.864 231.829 120.36 236.709 106.02C228.595 108.75 220.944 113.123 214.563 118.851Z" fill="#EAF2FC"/>
<path d="M214.563 118.851C214.781 118.467 214.993 118.082 215.198 117.698C221.435 105.847 225.025 92.6223 225.621 79.2532C219.202 85.1352 212.734 91.1999 207.296 97.9949C203.148 103.195 199.577 108.961 197.315 115.189C201.3 100.465 203.398 85.1833 202.975 69.9592C187.806 90.9788 173.389 121.463 169 147L189.5 145.5L208.663 140.611C221.695 132.864 231.829 120.36 236.709 106.02C228.595 108.75 220.944 113.123 214.563 118.851Z" fill="#6880E4"/>
<path d="M185.525 142.86C185.467 142.86 185.419 142.812 185.419 142.754C185.342 138.804 188.249 125.348 194.072 102.762C198.412 85.9522 202.82 70.0938 202.868 69.9304C202.888 69.8727 202.945 69.8439 203.003 69.8631C203.051 69.8727 203.09 69.9304 203.071 69.9881C203.032 70.1514 198.614 86.0002 194.283 102.82C190.279 118.332 185.534 137.852 185.631 142.744C185.631 142.802 185.583 142.85 185.525 142.86Z" fill="#6880E4"/>
<path d="M60.6451 96.0725L54.1003 89.633L57.4979 86.1826L64.0426 92.6221L60.6451 96.0725Z" fill="#1C056D"/>
<path d="M115.889 85.2792C101.837 99.5325 78.8824 99.7055 64.6186 85.6732C50.3548 71.6506 50.1816 48.728 64.224 34.4842C78.276 20.2405 101.231 20.0579 115.495 34.0902C129.758 48.1129 129.932 71.0355 115.889 85.2792Z" fill="#EAF2FC"/>
<path opacity="0.2" d="M115.89 85.2792C101.838 99.5325 78.8828 99.7055 64.6191 85.6732C50.3553 71.6506 50.1821 48.728 64.2245 34.4842C78.2765 20.2405 101.231 20.0579 115.495 34.0902C129.759 48.1129 129.932 71.0355 115.89 85.2792Z" fill="#6880E4"/>
<path fill-rule="evenodd" clip-rule="evenodd" d="M60.2101 90.1425C56.1196 86.1251 52.9434 81.4156 50.7683 76.1679C48.6605 71.0932 47.5729 65.7206 47.5248 60.2038C47.4863 54.6966 48.4872 49.3048 50.518 44.2012C52.6162 38.9151 55.725 34.1672 59.7481 30.0825C63.7808 25.9977 68.4873 22.826 73.752 20.6443C78.8338 18.5395 84.2044 17.4534 89.7289 17.415C95.2535 17.3669 100.643 18.3761 105.754 20.404C111.048 22.4993 115.812 25.6037 119.902 29.6211C123.993 33.6386 127.169 38.3481 129.354 43.5957C131.452 48.6704 132.539 54.0431 132.588 59.5599C132.626 65.0671 131.625 70.4589 129.594 75.5624C127.496 80.8486 124.387 85.5965 120.364 89.6812C116.332 93.7659 111.625 96.9376 106.36 99.1194C101.279 101.224 95.908 102.31 90.3834 102.349C84.8588 102.397 79.469 101.388 74.3583 99.3692C69.0648 97.2644 64.3005 94.1696 60.2101 90.1425ZM115.186 34.3979C108.372 27.6893 99.3536 24.037 89.7771 24.1139C80.2101 24.1812 71.2496 27.9776 64.5315 34.7823C57.8231 41.587 54.1658 50.6023 54.2331 60.1558C54.3101 69.7092 58.1023 78.6668 64.9261 85.3658C71.7404 92.0744 80.7684 95.7266 90.3353 95.6497C99.9022 95.5825 108.863 91.786 115.581 84.9813C122.289 78.1767 125.947 69.1614 125.879 59.6079C125.802 50.0544 122.01 41.0968 115.186 34.3979Z" fill="#1B3D9E"/>
<path d="M32.8573 124.204L26.5339 117.986C25.3789 116.842 25.3597 114.987 26.505 113.834L50.7784 89.2199C51.9141 88.0666 53.7717 88.0473 54.9363 89.1911L61.2501 95.3999C62.4146 96.5436 62.4243 98.3986 61.2886 99.5519L37.0151 124.166C35.8698 125.329 34.0122 125.339 32.8573 124.204Z" fill="#1B3D9E"/>
<path fill-rule="evenodd" clip-rule="evenodd" d="M90.0466 99.3116C85.0322 99.3116 80.1332 98.3793 75.4845 96.5339C70.5663 94.5925 66.1486 91.7091 62.3564 87.98C58.5547 84.2413 55.5999 79.8778 53.5787 74.9954C51.6249 70.2859 50.6143 65.3073 50.5759 60.1846C50.5374 55.0618 51.4709 50.064 53.3478 45.3257C55.3016 40.424 58.1793 36.0125 61.9233 32.2161C65.6673 28.4197 70.0369 25.4787 74.9166 23.4507C79.6327 21.4997 84.6279 20.4905 89.7579 20.4521C94.8782 20.4136 99.8926 21.3459 104.638 23.2297C109.546 25.1711 113.964 28.0545 117.766 31.7932C121.558 35.5224 124.513 39.8858 126.534 44.7683C128.488 49.4777 129.498 54.4563 129.537 59.5791C129.575 64.7018 128.642 69.6996 126.765 74.4379C124.811 79.3492 121.933 83.7511 118.189 87.5475C114.445 91.3439 110.076 94.2849 105.196 96.3129C100.48 98.2639 95.4846 99.2731 90.3642 99.3116C90.2551 99.3116 90.1493 99.3116 90.0466 99.3116ZM90.0659 20.9422C89.9632 20.9422 89.8605 20.9422 89.7579 20.9422C84.6953 20.9807 79.7675 21.9802 75.1091 23.9025C70.2872 25.9016 65.9657 28.8138 62.2698 32.5621C58.574 36.3009 55.7347 40.6643 53.8097 45.5083C51.9426 50.189 51.0282 55.1195 51.0667 60.1846C51.1052 65.24 52.0966 70.1609 54.0311 74.8127C56.033 79.6279 58.9397 83.9433 62.6933 87.6244C66.4469 91.3151 70.8069 94.16 75.6577 96.0822C80.3449 97.9372 85.292 98.8598 90.3546 98.8214C95.4172 98.7829 100.355 97.7834 105.003 95.8612C109.825 93.862 114.147 90.9499 117.843 87.2015C121.539 83.4628 124.387 79.0993 126.312 74.2553C128.17 69.5747 129.094 64.6441 129.046 59.5791C129.007 54.5236 128.016 49.6027 126.081 44.9509C124.079 40.1357 121.173 35.8299 117.419 32.1392C113.666 28.4486 109.306 25.6036 104.455 23.6814C99.8638 21.8649 95.0226 20.9422 90.0659 20.9422Z" fill="#1C056D"/>
<path d="M37.0727 123.176L27.4961 113.757C27.0341 113.305 27.0245 112.556 27.4865 112.094L28.2372 111.325C28.6992 110.854 29.4499 110.854 29.9119 111.306L39.4885 120.725C39.9504 121.177 39.9601 121.926 39.4981 122.388L38.7377 123.157C38.2854 123.628 37.5346 123.628 37.0727 123.176Z" fill="#1C056D"/>
<path d="M148.085 65.8455C148.085 65.8455 144.09 70.5934 141.896 78.5322C139.865 85.8655 133.965 112.911 133.965 112.911H149.115L148.085 65.8455Z" fill="#D40221"/>
<path d="M89.4908 126.781C89.4908 126.781 86.7767 126.685 85.3715 128.232C84.024 129.722 83.6775 133.797 85.7468 136.776C85.7468 136.776 87.2001 138.314 89.3657 138.958C89.3657 138.958 87.5178 134.671 87.5851 131.769C87.6621 128.866 89.4908 126.781 89.4908 126.781Z" fill="#1B3D9E"/>
<path d="M87.68 137.151C85.3797 133.431 86.0245 126.434 89.4894 126.78C94.4942 127.29 107.565 131.394 107.565 131.394L108.335 139.784C108.335 139.784 96.679 140.38 89.6915 139.054C88.7483 138.871 88.1708 137.949 87.68 137.151Z" fill="#1C056D"/>
<path d="M107.335 132.182C107.335 132.182 101.666 130.404 101.079 132.182C100.482 133.95 100.935 137.132 102.465 138.064C103.986 138.987 107.749 138.41 107.749 138.41L107.335 132.182Z" fill="#FE8E9C"/>
<path d="M121.156 115.545C121.156 115.545 114.294 114.67 110.964 121.043C107.903 126.915 110.79 136.747 123.052 137.814C135.324 138.881 169.097 136.132 169.097 136.132V117.919L121.156 115.545Z" fill="#1C056D"/>
<path d="M185.381 116.852C185.381 116.852 196.526 121.6 191.194 135.882C186.16 149.338 108.037 143.004 107.613 141.851C107.113 140.467 105.554 129.452 107.18 128.808C108.797 128.164 167.065 116.381 167.065 116.381L185.381 116.852Z" fill="#1B3D9E"/>
<path opacity="0.5" d="M185.384 116.852C185.384 116.852 196.529 121.6 191.197 135.882C186.163 149.338 108.04 143.004 107.616 141.851C107.116 140.467 105.556 129.452 107.183 128.808C108.8 128.164 167.068 116.381 167.068 116.381L185.384 116.852Z" fill="#1C056D"/>
<path d="M106.46 135.555C106.334 135.555 106.229 135.45 106.219 135.325C106.219 135.19 106.325 135.084 106.45 135.075C106.633 135.075 124.159 134.681 143.592 133.431C169.289 131.778 186.623 129.404 193.736 126.569C193.852 126.511 193.996 126.578 194.044 126.694C194.092 126.819 194.025 126.953 193.909 127.001C189.915 128.597 182.822 130.048 172.841 131.298C164.872 132.288 155.035 133.172 143.62 133.902C124.179 135.152 106.642 135.546 106.469 135.555C106.463 135.555 106.46 135.555 106.46 135.555Z" fill="#1C056D"/>
<path d="M172.06 54.668C172.06 54.668 184.62 59.9157 188.316 67.4796C192.011 75.034 178.816 114.238 176.343 114.94C173.879 115.641 148.354 116.17 146.419 114.94C144.485 113.709 145.447 69.5364 148.084 65.8457C150.722 62.1551 160.693 54.668 160.693 54.668H172.06Z" fill="#FC476A"/>
<path d="M172.059 54.668C172.059 54.668 184.619 59.9157 188.315 67.4796C192.011 75.034 178.816 114.238 176.342 114.94C173.878 115.641 148.353 116.17 146.419 114.94C144.484 113.709 145.447 69.5364 148.084 65.8457C150.721 62.1551 160.692 54.668 160.692 54.668H172.059Z" fill="#FE8E9C"/>
<path d="M166.97 28.4872C165.314 26.7379 159.53 25.0175 154.987 26.1036C152.427 26.7187 150.511 28.8524 150.078 31.4474C149.549 34.6767 149.068 37.9157 148.856 41.1931C148.683 43.9227 148.365 47.4596 149.78 49.9489C150.704 51.5828 153.033 51.7077 154.698 51.7365C154.977 51.7365 157.614 51.4674 157.547 51.1022C158.144 54.6199 160.232 62.5875 160.588 63.6544C161.089 65.1441 170.925 59.5216 172.504 57.5609C174.082 55.5906 165.295 44.163 165.295 44.163C166.171 41.7121 169.26 30.9284 166.97 28.4872Z" fill="#FE8E9C"/>
<path d="M154.863 34.917C154.863 34.917 151.051 40.2992 151.927 40.8375C152.803 41.3853 155.517 40.0397 155.517 40.0397C155.498 40.4242 155.257 40.751 154.901 40.8855C153.871 41.2796 151.879 41.9427 151.427 41.1258C150.637 39.6937 154.863 34.917 154.863 34.917Z" fill="#E57492"/>
<path d="M157.546 51.102C157.546 51.102 159.894 49.6507 161.203 47.8918C161.203 47.8918 161.944 53.3029 158.479 55.5231L157.546 51.102Z" fill="#E57492"/>
<path d="M169.482 26.9012C171.484 27.9296 174.265 32.3219 172.417 35.9165C170.348 39.9339 165.901 44.0667 165.295 44.1628C164.698 44.2493 163.9 39.4822 163.9 39.4822C168.211 38.6268 166.248 34.3979 165.574 34.4171C164.901 34.446 163.563 37.2236 163.158 36.7046C162.85 36.3009 163.312 31.9759 163.553 29.9768C163.553 29.9768 154.467 35.5801 148.567 33.3791C148.567 33.3791 145.699 23.6719 154.294 21.7112C162.889 19.7505 169.482 26.9012 169.482 26.9012Z" fill="#1B3D9E"/>
<path opacity="0.5" d="M169.483 26.9012C171.485 27.9296 174.266 32.3219 172.418 35.9165C170.349 39.9339 165.902 44.0667 165.296 44.1628C164.699 44.2493 163.9 39.4822 163.9 39.4822C168.212 38.6268 166.249 34.3979 165.575 34.4171C164.901 34.446 163.563 37.2236 163.159 36.7046C162.851 36.3009 163.313 31.9759 163.554 29.9768C163.554 29.9768 154.468 35.5801 148.568 33.3791C148.568 33.3791 145.7 23.6719 154.295 21.7112C162.89 19.7505 169.483 26.9012 169.483 26.9012Z" fill="#1C056D"/>
<path d="M157.76 42.9711L156.47 42.5578C156.383 42.5289 156.297 42.577 156.277 42.6539C156.248 42.7404 156.297 42.8173 156.374 42.8461L156.826 42.9903C156.345 45.8063 151.388 45.6718 151.34 45.6718C151.253 45.6622 151.186 45.7295 151.176 45.816C151.176 45.9025 151.244 45.9697 151.33 45.9793C151.34 45.9793 151.398 45.9793 151.494 45.9793C151.888 45.9793 152.918 45.9505 154.006 45.6814C155.806 45.2393 156.884 44.3454 157.115 43.0864L157.673 43.2594C157.686 43.2658 157.699 43.269 157.711 43.269C157.779 43.269 157.837 43.2306 157.865 43.1633C157.885 43.0864 157.846 42.9999 157.76 42.9711Z" fill="#1C056D"/>
<path d="M164.332 35.061L161.396 35.2628C161.261 33.8596 160.087 32.7639 158.653 32.7639C157.508 32.7639 156.526 33.4559 156.112 34.4459C155.111 33.8596 154.332 34.071 153.899 34.2825C153.706 32.9561 152.561 31.9277 151.175 31.9277C149.654 31.9277 148.422 33.1676 148.422 34.6861C148.422 36.2047 149.654 37.4349 151.175 37.4349C152.667 37.4349 153.87 36.2624 153.927 34.7919C154.149 34.6285 154.89 34.2152 155.968 34.888C155.92 35.0898 155.891 35.3012 155.891 35.5127C155.891 37.0409 157.123 38.2711 158.653 38.2711C160.106 38.2711 161.29 37.1466 161.396 35.7241L164.361 35.5223C164.486 35.5127 164.582 35.407 164.572 35.2724C164.563 35.1475 164.457 35.0514 164.332 35.061Z" fill="white"/>
<path d="M161.271 63.8947L163.118 66.6819C164.081 68.1428 166.131 68.3831 167.401 67.1913C170.347 64.4233 174.716 59.512 173.744 55.4465L172.06 54.668C172.06 54.668 166.68 62.6068 161.271 63.8947Z" fill="white"/>
<path d="M160.587 63.6542L158.316 65.4515C157.199 66.3261 155.544 65.6726 155.342 64.2694C155.034 62.0972 154.947 59.1851 156.141 57.0802L158.547 55.7827L160.587 63.6542Z" fill="white"/>
<path d="M161.271 71.7757C161.271 72.4292 160.742 72.9578 160.088 72.9578C159.433 72.9578 158.904 72.4292 158.904 71.7757C158.904 71.1221 159.433 70.5935 160.088 70.5935C160.742 70.5935 161.271 71.1221 161.271 71.7757Z" fill="#D40221"/>
<path d="M160.953 80.5027C160.953 81.1563 160.423 81.6849 159.769 81.6849C159.114 81.6849 158.585 81.1563 158.585 80.5027C158.585 79.8492 159.114 79.3206 159.769 79.3206C160.423 79.3206 160.953 79.8492 160.953 80.5027Z" fill="#D40221"/>
<path d="M160.5 89.2198C160.5 89.8733 159.971 90.4115 159.316 90.4115C158.662 90.4115 158.132 89.8733 158.132 89.2198C158.132 88.5662 158.662 88.0376 159.316 88.0376C159.971 88.0376 160.5 88.5662 160.5 89.2198Z" fill="#D40221"/>
<path d="M160.088 97.9468C160.088 98.6004 159.558 99.129 158.904 99.129C158.249 99.129 157.72 98.6004 157.72 97.9468C157.72 97.2933 158.249 96.7646 158.904 96.7646C159.558 96.7646 160.088 97.2933 160.088 97.9468Z" fill="#D40221"/>
<path d="M160.088 106.674C160.088 107.318 159.558 107.856 158.904 107.856C158.249 107.856 157.72 107.318 157.72 106.674C157.72 106.02 158.249 105.482 158.904 105.482C159.558 105.482 160.088 106.02 160.088 106.674Z" fill="#D40221"/>
<path d="M188.317 67.4795C188.317 67.4795 198.191 90.4117 197.142 102.483C196.382 111.229 157.864 116.852 157.864 116.852L153.6 109.98L182.157 96.0246C182.157 96.0246 171.117 71.2663 188.317 67.4795Z" fill="#FC476A"/>
<path d="M162.801 105.482L182.156 96.0245C182.156 96.0245 177.277 85.9712 178.297 79.3203C178.297 79.3203 175.669 89.1333 179.914 95.0057C179.914 95.0057 163.157 104.626 162.801 105.482Z" fill="#D40221"/>
<path d="M188.317 67.4794C188.317 67.4794 180.29 65.7782 178.298 79.3203C178.298 79.3203 177.537 66.451 187.364 65.8455L188.317 67.4794Z" fill="#D40221"/>
<path d="M177.826 112.787L166.065 115.247C166.065 115.247 174.939 115.459 176.344 114.94C176.344 114.94 177.557 113.892 177.826 112.787Z" fill="#D40221"/>
<path d="M119.308 115.151C119.308 115.151 186.277 113.7 186.633 114.363C186.999 115.026 186.874 117.39 186.229 117.506C185.594 117.611 120.887 118.995 119.992 118.447C119.106 117.89 119.308 115.151 119.308 115.151Z" fill="#1B3D9E"/>
<path d="M119.306 115.151C119.306 115.151 186.275 113.7 186.631 114.363C186.997 115.026 186.872 117.39 186.227 117.506C185.592 117.611 120.885 118.995 119.99 118.447C119.104 117.89 119.306 115.151 119.306 115.151Z" fill="#1C056D"/>
<path d="M102.185 88.7875C102.06 88.5184 102.262 88.2204 102.551 88.2108C107.883 88.1531 145.795 87.7687 147.007 88.3838C148.316 89.0374 162.619 114.171 161.964 114.613C161.31 115.055 120.713 115.699 119.308 115.151C116.786 114.18 104.861 94.5061 102.185 88.7875Z" fill="#6880E4"/>
<path d="M135.217 101.589C136.353 103.089 136.208 105.126 134.89 106.126C133.571 107.126 131.579 106.712 130.434 105.213C129.288 103.704 129.433 101.676 130.751 100.676C132.07 99.6769 134.072 100.09 135.217 101.589Z" fill="white"/>
<path d="M47.7568 57.6185C44.5806 57.6185 42.0012 55.0427 42.0012 51.871V37.9445C42.0012 34.7728 44.5806 32.197 47.7568 32.197H82.4441C85.6202 32.197 88.1996 34.7728 88.1996 37.9445V51.871C88.1996 55.0427 85.6202 57.6185 82.4441 57.6185H47.7568Z" fill="white"/>
<path d="M82.4436 55.6772H47.7563C45.6582 55.6772 43.9546 53.976 43.9546 51.8808V37.9446C43.9546 35.8494 45.6582 34.1482 47.7563 34.1482H82.4436C84.5418 34.1482 86.2454 35.8494 86.2454 37.9446V51.8808C86.2454 53.976 84.5418 55.6772 82.4436 55.6772Z" fill="#68A9FD"/>
<path d="M54.7622 40.8469C54.8007 40.6803 54.8745 40.5521 54.9836 40.4624C55.0991 40.3791 55.2242 40.3343 55.3589 40.3279C55.4937 40.3279 55.6188 40.3663 55.7343 40.4432C55.8562 40.5201 55.9396 40.6386 55.9845 40.7988C56.1449 42.2085 56.2572 43.6021 56.3214 44.9797C56.3791 46.3637 56.4112 47.7637 56.4176 49.1798C56.4112 49.3143 56.3759 49.4232 56.3118 49.5065C56.2476 49.5962 56.1674 49.6603 56.0712 49.6988C55.9749 49.7372 55.8658 49.7564 55.7439 49.7564C55.6284 49.7564 55.5225 49.7372 55.4263 49.6988C55.3236 49.6539 55.237 49.5898 55.1664 49.5065C55.0959 49.4232 55.0509 49.3143 55.0317 49.1798C55.0253 48.5134 55.0381 47.8598 55.0702 47.2191C55.0959 46.5719 55.0959 45.9152 55.0702 45.2488C55.0381 45.2616 55.006 45.2744 54.9739 45.2872C54.9354 45.3001 54.8969 45.3097 54.8584 45.3161C54.5248 45.3097 54.204 45.2968 53.896 45.2776C53.588 45.252 53.2832 45.2328 52.9816 45.22C52.6736 45.2071 52.3689 45.2103 52.0673 45.2296C51.7593 45.2488 51.4449 45.2936 51.1241 45.3641L51.0374 48.9203C51.0246 49.1125 50.9605 49.2566 50.845 49.3528C50.7295 49.4489 50.6043 49.4969 50.4696 49.4969C50.3284 49.4969 50.1937 49.4489 50.0654 49.3528C49.9434 49.2566 49.8697 49.1157 49.844 48.9299V40.8469C49.8825 40.6803 49.9563 40.5586 50.0654 40.4817C50.1809 40.4048 50.306 40.3663 50.4407 40.3663C50.5755 40.3727 50.7038 40.4176 50.8257 40.5009C50.9412 40.5842 51.0246 40.7059 51.076 40.8661L51.1241 44.1435C51.4513 44.0858 51.7689 44.0506 52.0769 44.0378C52.3785 44.025 52.6833 44.0282 52.9913 44.0474C53.2928 44.0602 53.5976 44.0794 53.9056 44.1051C54.2136 44.1243 54.5344 44.1371 54.8681 44.1435C54.8873 44.1563 54.9066 44.1659 54.9258 44.1723C54.9451 44.1723 54.9643 44.1787 54.9836 44.1916C54.9515 43.6085 54.9226 43.051 54.8969 42.5192C54.8713 41.9874 54.8264 41.43 54.7622 40.8469Z" fill="white"/>
<path d="M57.8893 41.6255C57.7225 41.5998 57.591 41.5422 57.4947 41.4525C57.3985 41.3692 57.3439 41.2698 57.3311 41.1545C57.3183 41.0456 57.3439 40.9367 57.4081 40.8277C57.4787 40.7188 57.5942 40.6355 57.7546 40.5778C58.3705 40.501 58.9288 40.4497 59.4293 40.4241C59.9233 40.3984 60.4078 40.3888 60.8826 40.3952C61.3574 40.3952 61.8451 40.4081 62.3455 40.4337C62.846 40.4529 63.4043 40.4657 64.0202 40.4721C64.1806 40.517 64.2993 40.5907 64.3763 40.6932C64.4533 40.8021 64.4918 40.911 64.4918 41.02C64.4854 41.1353 64.4405 41.2378 64.3571 41.3275C64.2737 41.4236 64.1486 41.4909 63.9817 41.5293C63.7315 41.5293 63.5069 41.5293 63.308 41.5293C63.1155 41.5358 62.9262 41.539 62.7402 41.539C62.5541 41.5454 62.3616 41.5518 62.1627 41.5582C61.9702 41.5582 61.7488 41.5582 61.4986 41.5582C61.505 42.1861 61.5082 42.8044 61.5082 43.4131C61.5146 44.0283 61.5242 44.6402 61.5371 45.2489C61.5499 45.8512 61.5659 46.4599 61.5852 47.075C61.6109 47.6901 61.6494 48.3084 61.7007 48.9299C61.6943 49.0901 61.6397 49.2279 61.5371 49.3432C61.4344 49.4586 61.3157 49.5354 61.181 49.5739C61.0462 49.6187 60.9115 49.6155 60.7767 49.5643C60.642 49.5194 60.5393 49.4201 60.4687 49.2663C60.411 48.6256 60.3757 47.9848 60.3629 47.3441C60.3564 46.6969 60.3596 46.053 60.3725 45.4123C60.3789 44.7715 60.3949 44.1308 60.4206 43.49C60.4399 42.8429 60.4495 42.1989 60.4495 41.5582C60.18 41.5646 59.9458 41.5646 59.7469 41.5582C59.5416 41.5582 59.3459 41.555 59.1598 41.5486C58.9737 41.5486 58.7812 41.5518 58.5823 41.5582C58.3834 41.5646 58.1524 41.587 57.8893 41.6255Z" fill="white"/>
<path d="M70.5852 48.824C70.4633 49.0418 70.3414 49.1732 70.2195 49.218C70.0911 49.2629 69.9756 49.2629 69.873 49.218C69.7703 49.1732 69.6837 49.1027 69.6131 49.0066C69.5425 48.9169 69.4944 48.8432 69.4687 48.7855C69.3597 48.5356 69.257 48.2441 69.1607 47.9109C69.0645 47.5777 68.9715 47.2221 68.8816 46.8441C68.7854 46.4724 68.6891 46.0912 68.5929 45.7003C68.4967 45.3031 68.3972 44.9218 68.2945 44.5566C68.1854 44.1914 68.0732 43.8454 67.9577 43.5186C67.8422 43.1982 67.7171 42.9195 67.5823 42.6824C67.4411 43.195 67.3289 43.714 67.2454 44.2394C67.1684 44.7585 67.1043 45.2807 67.053 45.8061C67.0016 46.3315 66.9567 46.8537 66.9182 47.3727C66.8797 47.8917 66.8284 48.4107 66.7642 48.9297C66.7321 49.1411 66.6648 49.2981 66.5621 49.4006C66.4594 49.4967 66.3407 49.548 66.206 49.5544C66.0777 49.5544 65.9461 49.5096 65.8114 49.4199C65.6766 49.3302 65.5675 49.1956 65.4841 49.0162C65.5098 48.2857 65.5643 47.5457 65.6477 46.796C65.7312 46.0399 65.8274 45.3095 65.9365 44.6047C66.0456 43.8999 66.1579 43.2367 66.2733 42.6152C66.3953 41.9872 66.5011 41.4426 66.591 40.9813C66.6423 40.8531 66.7321 40.7538 66.8605 40.6833C66.9888 40.6064 67.1267 40.5616 67.2743 40.5488C67.4219 40.536 67.5663 40.552 67.7074 40.5968C67.8422 40.6417 67.9416 40.7186 68.0058 40.8275C68.3459 41.2824 68.6314 41.7694 68.8624 42.2884C69.087 42.8138 69.2763 43.3328 69.4302 43.8454C69.5842 44.358 69.7158 44.8514 69.8249 45.3255C69.9275 45.7933 70.027 46.2065 70.1232 46.5653C70.258 46.0015 70.4152 45.444 70.5948 44.893C70.7745 44.342 70.9541 43.823 71.1338 43.336C71.3135 42.849 71.4771 42.4037 71.6247 42.0001C71.7787 41.6028 71.8877 41.2728 71.9519 41.0101C71.984 40.8755 72.0578 40.757 72.1733 40.6545C72.2888 40.5584 72.4107 40.4943 72.539 40.4623C72.6738 40.4366 72.8021 40.4527 72.924 40.5103C73.0459 40.5744 73.1325 40.6929 73.1839 40.8659C73.2929 41.59 73.4181 42.298 73.5592 42.99C73.694 43.6756 73.8319 44.3548 73.9731 45.0276C74.1078 45.6939 74.233 46.3603 74.3484 47.0267C74.4704 47.6866 74.557 48.3498 74.6083 49.0162C74.6276 49.2084 74.5859 49.359 74.4832 49.4679C74.3805 49.5704 74.2586 49.6249 74.1175 49.6313C73.9827 49.6377 73.848 49.5929 73.7132 49.4967C73.5785 49.407 73.4919 49.2597 73.4534 49.0546C73.3379 48.5356 73.2256 48.0294 73.1165 47.5361C73.0138 47.0427 72.9176 46.5525 72.8278 46.0656C72.7379 45.5722 72.6577 45.0788 72.5871 44.5855C72.5101 44.0857 72.4428 43.5731 72.385 43.0477C72.2567 43.5154 72.1316 43.9832 72.0097 44.4509C71.8942 44.925 71.769 45.3992 71.6343 45.8733C71.4995 46.3539 71.3488 46.8377 71.1819 47.3246C71.0151 47.818 70.8162 48.3178 70.5852 48.824Z" fill="white"/>
<path d="M76.3118 40.991C76.3438 40.8244 76.4241 40.7026 76.5524 40.6258C76.6743 40.5489 76.809 40.5136 76.9566 40.52C77.1042 40.5264 77.2454 40.5745 77.3801 40.6642C77.5148 40.7539 77.6047 40.8788 77.6496 41.039C77.6496 41.699 77.6432 42.3397 77.6303 42.9613C77.6239 43.5764 77.6111 44.1851 77.5918 44.7874C77.579 45.3961 77.5662 46.0112 77.5533 46.6327C77.5405 47.2478 77.5309 47.8886 77.5245 48.555C77.8581 48.5998 78.2142 48.6286 78.5928 48.6414C78.965 48.6543 79.3467 48.6575 79.7381 48.6511C80.1231 48.6511 80.5049 48.6447 80.8835 48.6318C81.2621 48.619 81.6214 48.6126 81.9614 48.6126C82.1154 48.6639 82.2309 48.7408 82.3079 48.8433C82.3849 48.9458 82.4234 49.0547 82.4234 49.1701C82.4234 49.279 82.3785 49.3815 82.2887 49.4776C82.2053 49.5737 82.0801 49.6378 81.9133 49.6698C81.5412 49.6698 81.1369 49.6827 80.7006 49.7083C80.2707 49.7339 79.8312 49.7499 79.382 49.7563C78.9393 49.7692 78.503 49.7724 78.0731 49.766C77.6432 49.7595 77.2454 49.7275 76.8796 49.6698C76.7449 49.7019 76.6133 49.6731 76.485 49.5833C76.3567 49.4872 76.2765 49.3335 76.2444 49.122C76.2444 48.4236 76.2476 47.738 76.254 47.0652C76.2604 46.3924 76.2668 45.7229 76.2733 45.0565C76.2861 44.3901 76.2957 43.7205 76.3021 43.0478C76.3086 42.375 76.3118 41.6894 76.3118 40.991Z" fill="white"/>
<path d="M94.6688 73.1597C92.6283 73.1597 90.9729 71.5065 90.9729 69.469V58.6372C90.9729 56.5996 92.6283 54.9465 94.6688 54.9465H119.144C121.185 54.9465 122.85 56.5996 122.85 58.6372V69.469C122.85 71.5065 121.185 73.1597 119.144 73.1597H94.6688Z" fill="white"/>
<path d="M119.145 71.6123H94.6695C93.4857 71.6123 92.5232 70.6512 92.5232 69.469V58.6373C92.5232 57.4551 93.4857 56.4844 94.6695 56.4844H119.145C120.338 56.4844 121.301 57.4551 121.301 58.6373V69.469C121.301 70.6512 120.338 71.6123 119.145 71.6123Z" fill="#68A9FD"/>
<path d="M97.7967 61.607C97.6684 61.5878 97.5658 61.543 97.4888 61.4725C97.4182 61.402 97.3765 61.3219 97.3636 61.2322C97.3508 61.1489 97.37 61.0624 97.4214 60.9727C97.4791 60.8894 97.569 60.8221 97.6909 60.7709C97.8834 60.7581 98.0983 60.7388 98.3357 60.7132C98.5667 60.694 98.7977 60.6812 99.0287 60.6748C99.2597 60.6684 99.4843 60.6748 99.7024 60.694C99.9206 60.7196 100.11 60.7709 100.27 60.8478C100.392 60.9375 100.469 61.04 100.501 61.1553C100.533 61.2771 100.53 61.386 100.492 61.4821C100.453 61.5782 100.386 61.6487 100.29 61.6936C100.193 61.732 100.075 61.7192 99.9334 61.6551C99.8179 61.6038 99.6607 61.5782 99.4618 61.5782C99.4875 61.8409 99.5196 62.1293 99.5581 62.4432C99.5966 62.7572 99.6351 63.084 99.6736 63.4236C99.7121 63.7632 99.7409 64.1059 99.7602 64.4519C99.7858 64.7979 99.789 65.1375 99.7698 65.4707C99.757 65.7975 99.7185 66.1083 99.6543 66.403C99.5901 66.6913 99.4939 66.9508 99.3656 67.1815C99.2693 67.3545 99.1346 67.4891 98.9613 67.5852C98.7817 67.6877 98.5892 67.7582 98.3838 67.7966C98.1721 67.8415 97.9539 67.8543 97.7294 67.8351C97.4984 67.8159 97.277 67.7774 97.0653 67.7197C96.8535 67.6557 96.661 67.5692 96.4878 67.4602C96.3081 67.3577 96.167 67.236 96.0643 67.095C95.9873 66.9861 95.9263 66.8643 95.8814 66.7298C95.8429 66.6016 95.8108 66.4671 95.7852 66.3261C95.7659 66.1852 95.7531 66.0442 95.7467 65.9032C95.7467 65.7687 95.7435 65.6373 95.7371 65.5092C95.7627 65.381 95.8237 65.2849 95.9199 65.2208C96.0098 65.1568 96.1092 65.1247 96.2183 65.1247C96.3274 65.1247 96.43 65.1568 96.5263 65.2208C96.6225 65.2849 96.6899 65.381 96.7284 65.5092C96.7348 65.695 96.7348 65.8552 96.7284 65.9897C96.722 66.1243 96.7316 66.2396 96.7573 66.3357C96.7894 66.4383 96.8471 66.528 96.9305 66.6048C97.0139 66.6753 97.1519 66.7458 97.3444 66.8163C97.7422 66.9508 98.0502 66.9508 98.2684 66.8163C98.4801 66.6817 98.6309 66.4062 98.7207 65.9897C98.7849 65.663 98.817 65.317 98.817 64.9517C98.817 64.5865 98.8009 64.2181 98.7688 63.8464C98.7367 63.4684 98.695 63.0904 98.6437 62.7123C98.5924 62.3407 98.5539 61.9819 98.5282 61.6359C98.3935 61.6551 98.2587 61.6519 98.124 61.6263C97.9957 61.6006 97.8866 61.5942 97.7967 61.607Z" fill="white"/>
<path fill-rule="evenodd" clip-rule="evenodd" d="M100.953 67.4988C101.043 67.3002 101.123 67.0535 101.194 66.7587C101.271 66.464 101.348 66.1372 101.425 65.7784C101.495 65.4196 101.576 65.0447 101.665 64.6539C101.749 64.2694 101.839 63.8882 101.935 63.5102C102.031 63.1321 102.137 62.7733 102.253 62.4337C102.368 62.0941 102.5 61.793 102.647 61.5303C102.795 61.274 102.958 61.0689 103.138 60.9151C103.311 60.7678 103.51 60.6941 103.735 60.6941C103.863 60.6941 103.988 60.7678 104.11 60.9151C104.232 61.0689 104.354 61.274 104.476 61.5303C104.598 61.7866 104.716 62.0845 104.832 62.4241C104.954 62.7573 105.073 63.1097 105.188 63.4813C105.31 63.853 105.429 64.231 105.544 64.6154C105.66 64.9999 105.775 65.3651 105.891 65.7111C106.006 66.0571 106.122 66.3775 106.237 66.6722C106.353 66.9606 106.468 67.1976 106.584 67.3835C106.622 67.5116 106.619 67.6237 106.574 67.7198C106.529 67.816 106.462 67.8864 106.372 67.9313C106.289 67.9761 106.189 67.9922 106.074 67.9793C105.958 67.9601 105.855 67.9025 105.766 67.8063C105.65 67.6333 105.547 67.4507 105.458 67.2585C105.361 67.0599 105.278 66.8677 105.207 66.6818C105.143 66.5024 105.089 66.339 105.044 66.1917C104.999 66.0443 104.97 65.929 104.957 65.8457C104.726 65.8457 104.502 65.8457 104.283 65.8457C104.065 65.8393 103.85 65.8361 103.639 65.8361C103.427 65.8361 103.215 65.8361 103.003 65.8361C102.792 65.8361 102.564 65.8329 102.32 65.8264C102.269 66.0443 102.227 66.2333 102.195 66.3935C102.163 66.5537 102.134 66.7107 102.108 66.8645C102.076 67.0118 102.041 67.1656 102.002 67.3258C101.957 67.486 101.896 67.6686 101.819 67.8736C101.736 67.9761 101.637 68.0402 101.521 68.0658C101.412 68.0851 101.313 68.0755 101.223 68.037C101.133 67.9986 101.059 67.9313 101.001 67.8352C100.944 67.7455 100.928 67.6333 100.953 67.4988ZM103.648 61.7802C103.584 61.7609 103.52 61.8026 103.456 61.9051C103.385 62.0076 103.318 62.1486 103.254 62.328C103.196 62.5074 103.135 62.7124 103.071 62.9431C103.013 63.1738 102.952 63.4044 102.888 63.6351C102.83 63.8722 102.776 64.0964 102.724 64.3079C102.673 64.5257 102.625 64.7083 102.58 64.8557C102.779 64.8621 102.965 64.8653 103.138 64.8653C103.311 64.8717 103.481 64.8781 103.648 64.8846C103.815 64.891 103.982 64.8974 104.149 64.9038C104.322 64.9166 104.508 64.923 104.707 64.923C104.591 64.6475 104.495 64.3784 104.418 64.1157C104.341 63.8594 104.267 63.6031 104.197 63.3468C104.126 63.0841 104.046 62.8246 103.956 62.5683C103.873 62.312 103.77 62.0493 103.648 61.7802Z" fill="white"/>
<path d="M109.789 67.8543C109.719 67.9312 109.648 67.9825 109.578 68.0081C109.501 68.0338 109.427 68.0402 109.356 68.0273C109.292 68.0145 109.231 67.9825 109.173 67.9312C109.116 67.8864 109.067 67.8287 109.029 67.7582C108.638 66.6498 108.243 65.5701 107.845 64.5193C107.441 63.4685 107.03 62.4016 106.613 61.3188C106.594 61.1842 106.623 61.0753 106.7 60.992C106.777 60.9087 106.87 60.851 106.979 60.819C107.094 60.7934 107.213 60.7998 107.335 60.8382C107.451 60.8767 107.55 60.9503 107.633 61.0593C107.807 61.5334 107.973 61.9787 108.134 62.3952C108.301 62.8117 108.461 63.225 108.615 63.6351C108.769 64.0451 108.917 64.4648 109.058 64.8941C109.199 65.3234 109.34 65.7912 109.481 66.2973C109.661 65.8488 109.834 65.4035 110.001 64.9614C110.174 64.5193 110.338 64.0772 110.492 63.6351C110.652 63.1929 110.806 62.7508 110.954 62.3087C111.108 61.8666 111.259 61.4181 111.406 60.9632C111.47 60.8542 111.557 60.7837 111.666 60.7517C111.775 60.7261 111.878 60.7325 111.974 60.7709C112.077 60.8158 112.16 60.8863 112.224 60.9824C112.295 61.0849 112.327 61.2002 112.321 61.3284C112.167 61.8794 111.99 62.424 111.791 62.9623C111.599 63.5069 111.39 64.0483 111.166 64.5866C110.941 65.1312 110.713 65.6758 110.482 66.2205C110.251 66.7587 110.02 67.3033 109.789 67.8543Z" fill="white"/>
<path fill-rule="evenodd" clip-rule="evenodd" d="M112.994 67.4988C113.078 67.3002 113.158 67.0535 113.235 66.7587C113.305 66.464 113.379 66.1372 113.456 65.7784C113.533 65.4196 113.613 65.0447 113.697 64.6539C113.78 64.2694 113.87 63.8882 113.966 63.5102C114.063 63.1321 114.172 62.7733 114.294 62.4337C114.409 62.0941 114.541 61.793 114.688 61.5303C114.829 61.274 114.99 61.0689 115.169 60.9151C115.349 60.7678 115.548 60.6941 115.766 60.6941C115.894 60.6941 116.02 60.7678 116.141 60.9151C116.27 61.0689 116.395 61.274 116.517 61.5303C116.632 61.7866 116.751 62.0845 116.873 62.4241C116.995 62.7573 117.114 63.1097 117.229 63.4813C117.345 63.853 117.46 64.231 117.576 64.6154C117.697 64.9999 117.816 65.3651 117.932 65.7111C118.047 66.0571 118.163 66.3775 118.278 66.6722C118.387 66.9606 118.503 67.1976 118.625 67.3835C118.663 67.5116 118.657 67.6237 118.605 67.7198C118.561 67.816 118.493 67.8864 118.403 67.9313C118.32 67.9761 118.22 67.9922 118.105 67.9793C117.996 67.9601 117.893 67.9025 117.797 67.8063C117.688 67.6333 117.585 67.4507 117.489 67.2585C117.393 67.0599 117.313 66.8677 117.248 66.6818C117.178 66.5024 117.12 66.339 117.075 66.1917C117.037 66.0443 117.011 65.929 116.998 65.8457C116.761 65.8457 116.533 65.8457 116.315 65.8457C116.103 65.8393 115.891 65.8361 115.68 65.8361C115.468 65.8361 115.256 65.8361 115.044 65.8361C114.826 65.8361 114.598 65.8329 114.361 65.8264C114.303 66.0443 114.258 66.2333 114.226 66.3935C114.201 66.5537 114.172 66.7107 114.14 66.8645C114.114 67.0118 114.079 67.1656 114.034 67.3258C113.995 67.486 113.934 67.6686 113.851 67.8736C113.767 67.9761 113.671 68.0402 113.562 68.0658C113.453 68.0851 113.35 68.0755 113.254 68.037C113.164 67.9986 113.09 67.9313 113.033 67.8352C112.975 67.7455 112.962 67.6333 112.994 67.4988ZM115.689 61.7802C115.619 61.7609 115.551 61.8026 115.487 61.9051C115.423 62.0076 115.359 62.1486 115.295 62.328C115.23 62.5074 115.166 62.7124 115.102 62.9431C115.044 63.1738 114.987 63.4044 114.929 63.6351C114.871 63.8722 114.817 64.0964 114.765 64.3079C114.714 64.5257 114.663 64.7083 114.611 64.8557C114.817 64.8621 115.003 64.8653 115.169 64.8653C115.343 64.8717 115.513 64.8781 115.68 64.8846C115.846 64.891 116.016 64.8974 116.19 64.9038C116.363 64.9166 116.546 64.923 116.738 64.923C116.629 64.6475 116.536 64.3784 116.459 64.1157C116.382 63.8594 116.305 63.6031 116.228 63.3468C116.158 63.0841 116.081 62.8246 115.997 62.5683C115.914 62.312 115.811 62.0493 115.689 61.7802Z" fill="white"/>
<path d="M99.2758 47.9112C96.9178 47.9112 95.0024 45.9986 95.0024 43.6438V32.1105C95.0024 29.7557 96.9178 27.8335 99.2758 27.8335H126.494C128.852 27.8335 130.768 29.7557 130.768 32.1105V43.6438C130.768 45.9986 128.852 47.9112 126.494 47.9112H99.2758Z" fill="white"/>
<path d="M126.494 45.9985H99.2755C97.9762 45.9985 96.9175 44.9413 96.9175 43.6438V32.1104C96.9175 30.8033 97.9762 29.7461 99.2755 29.7461H126.494C127.793 29.7461 128.852 30.8033 128.852 32.1104V43.6438C128.852 44.9413 127.793 45.9985 126.494 45.9985Z" fill="#68A9FD"/>
<path fill-rule="evenodd" clip-rule="evenodd" d="M103.163 34.5037C103.15 34.3307 103.179 34.1866 103.249 34.0712C103.326 33.9623 103.416 33.8918 103.519 33.8598C103.621 33.8214 103.73 33.8246 103.846 33.8694C103.961 33.9143 104.055 34.0072 104.125 34.1481C104.298 34.0136 104.542 33.9175 104.857 33.8598C105.171 33.8021 105.514 33.7829 105.886 33.8021C106.259 33.8278 106.637 33.895 107.022 34.004C107.407 34.1193 107.76 34.2859 108.081 34.5037C108.395 34.7216 108.655 34.9939 108.86 35.3207C109.072 35.6475 109.181 36.0351 109.188 36.4836C109.201 37.0283 109.13 37.512 108.976 37.9349C108.816 38.3578 108.604 38.7166 108.341 39.0114C108.071 39.3125 107.76 39.5496 107.407 39.7226C107.061 39.8956 106.708 40.0013 106.348 40.0398C105.989 40.0846 105.633 40.059 105.28 39.9629C104.934 39.8732 104.622 39.713 104.346 39.4823C104.334 39.7322 104.33 39.9725 104.337 40.2032C104.343 40.4338 104.35 40.6613 104.356 40.8856C104.363 41.1098 104.369 41.3373 104.375 41.5679C104.382 41.7922 104.382 42.0293 104.375 42.2792C104.363 42.4714 104.308 42.6188 104.212 42.7213C104.109 42.8174 103.997 42.8686 103.875 42.8751C103.753 42.8751 103.637 42.8302 103.528 42.7405C103.426 42.6508 103.362 42.513 103.336 42.3272C103.336 41.6288 103.336 40.9496 103.336 40.2897C103.329 39.6233 103.32 38.9697 103.307 38.329C103.301 37.6818 103.285 37.0411 103.259 36.4068C103.233 35.7724 103.201 35.1381 103.163 34.5037ZM104.318 35.2822C104.337 35.5706 104.353 35.8429 104.366 36.0992C104.379 36.3555 104.385 36.6086 104.385 36.8585C104.391 37.1084 104.391 37.3615 104.385 37.6178C104.385 37.8741 104.382 38.1464 104.375 38.4347C104.459 38.4219 104.552 38.4283 104.654 38.4539C104.828 38.6269 105.03 38.7423 105.261 38.7999C105.498 38.864 105.736 38.8832 105.973 38.8576C106.217 38.8256 106.457 38.7583 106.695 38.6558C106.926 38.5468 107.134 38.4059 107.32 38.2329C107.507 38.0599 107.654 37.8548 107.763 37.6178C107.879 37.3871 107.936 37.134 107.936 36.8585C107.936 36.5573 107.872 36.2914 107.744 36.0608C107.616 35.8365 107.449 35.6411 107.243 35.4745C107.038 35.3143 106.804 35.1893 106.541 35.0996C106.278 35.0099 106.012 34.9555 105.742 34.9362C105.479 34.917 105.222 34.9362 104.972 34.9939C104.722 35.0516 104.504 35.1477 104.318 35.2822Z" fill="white"/>
<path d="M115.299 34.177C115.331 34.0168 115.405 33.8951 115.52 33.8118C115.629 33.7285 115.748 33.6837 115.876 33.6772C116.011 33.6772 116.136 33.7125 116.252 33.783C116.367 33.8599 116.447 33.9784 116.492 34.1386C116.653 35.5162 116.762 36.8842 116.819 38.2425C116.884 39.5945 116.919 40.9657 116.925 42.3561C116.919 42.4843 116.884 42.5932 116.819 42.6829C116.755 42.7662 116.675 42.8271 116.579 42.8655C116.483 42.9039 116.377 42.9232 116.261 42.9232C116.152 42.9232 116.046 42.9039 115.944 42.8655C115.847 42.8207 115.764 42.7566 115.693 42.6733C115.623 42.59 115.578 42.4843 115.559 42.3561C115.552 41.7026 115.565 41.0618 115.597 40.4339C115.623 39.7995 115.623 39.1556 115.597 38.502C115.565 38.5149 115.533 38.5245 115.501 38.5309C115.462 38.5437 115.424 38.5565 115.385 38.5693C115.058 38.5629 114.744 38.5501 114.442 38.5309C114.141 38.5052 113.842 38.486 113.547 38.4732C113.252 38.4604 112.954 38.4636 112.652 38.4828C112.35 38.502 112.042 38.5469 111.728 38.6174L111.641 42.0966C111.629 42.2888 111.568 42.433 111.459 42.5291C111.343 42.6188 111.218 42.6637 111.083 42.6637C110.942 42.6637 110.81 42.6188 110.689 42.5291C110.567 42.433 110.496 42.292 110.477 42.1062V34.177C110.509 34.0168 110.579 33.8983 110.689 33.8214C110.804 33.7445 110.926 33.7093 111.054 33.7157C111.183 33.7157 111.308 33.7573 111.43 33.8406C111.552 33.9239 111.635 34.0457 111.68 34.2059L111.728 37.416C112.049 37.3583 112.36 37.3263 112.662 37.3199C112.957 37.3071 113.255 37.3071 113.557 37.3199C113.852 37.3327 114.15 37.3519 114.452 37.3775C114.753 37.4032 115.068 37.416 115.395 37.416C115.421 37.4288 115.44 37.4384 115.453 37.4448C115.472 37.4448 115.494 37.4512 115.52 37.464C115.482 36.8874 115.45 36.3395 115.424 35.8205C115.398 35.3015 115.357 34.7537 115.299 34.177Z" fill="white"/>
<path fill-rule="evenodd" clip-rule="evenodd" d="M118.196 34.5037C118.183 34.3307 118.215 34.1866 118.292 34.0712C118.363 33.9623 118.45 33.8918 118.552 33.8598C118.655 33.8214 118.764 33.8246 118.879 33.8694C118.995 33.9143 119.088 34.0072 119.159 34.1481C119.332 34.0136 119.576 33.9175 119.89 33.8598C120.204 33.8021 120.548 33.7829 120.92 33.8021C121.292 33.8278 121.671 33.895 122.056 34.004C122.441 34.1193 122.793 34.2859 123.114 34.5037C123.429 34.7216 123.689 34.9939 123.894 35.3207C124.106 35.6475 124.215 36.0351 124.221 36.4836C124.234 37.0283 124.163 37.512 124.009 37.9349C123.849 38.3578 123.637 38.7166 123.374 39.0114C123.105 39.3125 122.797 39.5496 122.45 39.7226C122.097 39.8956 121.741 40.0013 121.382 40.0398C121.023 40.0846 120.666 40.059 120.314 39.9629C119.967 39.8732 119.656 39.713 119.38 39.4823C119.367 39.7322 119.364 39.9725 119.37 40.2032C119.377 40.4338 119.383 40.6613 119.39 40.8856C119.396 41.1098 119.402 41.3373 119.409 41.5679C119.415 41.7922 119.415 42.0293 119.409 42.2792C119.396 42.4714 119.341 42.6188 119.245 42.7213C119.143 42.8174 119.03 42.8686 118.908 42.8751C118.786 42.8751 118.674 42.8302 118.571 42.7405C118.462 42.6508 118.395 42.513 118.369 42.3272C118.369 41.6288 118.369 40.9496 118.369 40.2897C118.363 39.6233 118.353 38.9697 118.34 38.329C118.334 37.6818 118.318 37.0411 118.292 36.4068C118.267 35.7724 118.235 35.1381 118.196 34.5037ZM119.351 35.2822C119.37 35.5706 119.386 35.8429 119.399 36.0992C119.412 36.3555 119.418 36.6086 119.418 36.8585C119.425 37.1084 119.425 37.3615 119.418 37.6178C119.418 37.8741 119.415 38.1464 119.409 38.4347C119.492 38.4219 119.585 38.4283 119.688 38.4539C119.861 38.6269 120.063 38.7423 120.294 38.7999C120.532 38.864 120.769 38.8832 121.007 38.8576C121.25 38.8256 121.491 38.7583 121.728 38.6558C121.959 38.5468 122.168 38.4059 122.354 38.2329C122.54 38.0599 122.688 37.8548 122.797 37.6178C122.912 37.3871 122.97 37.134 122.97 36.8585C122.97 36.5573 122.906 36.2914 122.777 36.0608C122.649 35.8365 122.482 35.6411 122.277 35.4745C122.072 35.3143 121.837 35.1893 121.574 35.0996C121.311 35.0099 121.045 34.9555 120.776 34.9362C120.512 34.917 120.256 34.9362 120.006 34.9939C119.755 35.0516 119.537 35.1477 119.351 35.2822Z" fill="white"/>
<path d="M56.074 76.0142V66.1436C56.074 64.2502 57.6139 62.7124 59.5196 62.7124H79.8854C81.7815 62.7124 83.3214 64.2502 83.3214 66.1436V76.0142C83.3214 77.9172 81.7815 79.455 79.8854 79.455H59.5196C57.6139 79.455 56.074 77.9172 56.074 76.0142Z" fill="white"/>
<path d="M80.2614 77.7827H59.0775C58.1921 77.7827 57.4702 77.0619 57.4702 76.168V65.9994C57.4702 65.1056 58.1921 64.3848 59.0775 64.3848H80.2614C81.1565 64.3848 81.8784 65.1056 81.8784 65.9994V76.168C81.8784 77.0619 81.1565 77.7827 80.2614 77.7827Z" fill="#68A9FD"/>
<path d="M65.1605 67.393C65.1413 67.2328 65.167 67.1047 65.2375 67.0085C65.3145 66.906 65.4044 66.8451 65.507 66.8259C65.6097 66.8003 65.7124 66.8195 65.815 66.8836C65.9241 66.9477 66.0011 67.0566 66.046 67.2104C66.0909 67.4731 66.123 67.7358 66.1423 67.9985C66.1615 68.2612 66.1711 68.5271 66.1711 68.7962C66.1647 68.9628 66.1134 69.0942 66.0171 69.1903C65.9145 69.28 65.8022 69.3312 65.6803 69.344C65.5584 69.3569 65.4461 69.328 65.3434 69.2575C65.2343 69.1871 65.1702 69.0685 65.1509 68.9019V68.8443C64.9071 68.5303 64.6312 68.306 64.3232 68.1715C64.0152 68.0433 63.6976 67.9889 63.3704 68.0081C63.0431 68.0337 62.7223 68.1266 62.4079 68.2868C62.0871 68.4406 61.7983 68.6456 61.5417 68.9019C61.3813 69.0685 61.2497 69.264 61.1471 69.4882C61.038 69.7125 60.9578 69.9528 60.9064 70.2091C60.8551 70.4653 60.8262 70.7248 60.8198 70.9876C60.8134 71.2567 60.8262 71.513 60.8583 71.7564C60.8968 71.9999 60.9481 72.2242 61.0123 72.4292C61.0829 72.6343 61.1663 72.8041 61.2626 72.9386C61.4101 73.1437 61.593 73.3135 61.8112 73.448C62.0293 73.589 62.2635 73.6915 62.5138 73.7556C62.7704 73.826 63.0335 73.8613 63.303 73.8613C63.5725 73.8677 63.8355 73.8389 64.0922 73.7748C64.3424 73.7171 64.5766 73.6274 64.7948 73.5057C65.013 73.3775 65.199 73.2205 65.353 73.0347C65.4236 72.945 65.4717 72.8425 65.4974 72.7272C65.5295 72.6182 65.568 72.5093 65.6129 72.4004C65.6963 72.2594 65.7861 72.1697 65.8824 72.1313C65.9851 72.0928 66.0749 72.096 66.1519 72.1409C66.2353 72.1857 66.3027 72.2658 66.354 72.3812C66.4053 72.4965 66.4278 72.6375 66.4214 72.8041C66.415 73.1629 66.2963 73.4833 66.0653 73.7652C65.8279 74.0471 65.5263 74.2778 65.1605 74.4572C64.7948 74.643 64.3874 74.7744 63.9382 74.8512C63.4891 74.9345 63.0431 74.9473 62.6004 74.8897C62.1512 74.8384 61.731 74.7167 61.3395 74.5245C60.9417 74.3322 60.6177 74.0567 60.3675 73.6979C60.2263 73.4993 60.1044 73.2558 60.0017 72.9675C59.8991 72.6855 59.8253 72.378 59.7804 72.0448C59.729 71.718 59.7066 71.3752 59.713 71.0164C59.7194 70.664 59.7579 70.318 59.8285 69.9784C59.8926 69.6388 59.9953 69.3152 60.1365 69.0077C60.2712 68.7065 60.4445 68.4438 60.6562 68.2195C60.823 68.0401 61.0219 67.8767 61.2529 67.7294C61.4839 67.5756 61.7342 67.4474 62.0037 67.3449C62.2731 67.236 62.5523 67.1527 62.841 67.095C63.1297 67.0438 63.4153 67.0214 63.6976 67.0278C63.9735 67.0406 64.243 67.0886 64.5061 67.1719C64.7627 67.2616 64.9905 67.393 65.1894 67.566C65.183 67.5339 65.1798 67.5051 65.1798 67.4795C65.1734 67.4539 65.167 67.425 65.1605 67.393Z" fill="white"/>
<path d="M72.4759 68.9788C72.5144 69.1134 72.5015 69.2255 72.4374 69.3152C72.3668 69.3985 72.2738 69.4562 72.1583 69.4882C72.0364 69.5203 71.9048 69.5203 71.7636 69.4882C71.6225 69.4562 71.5006 69.3889 71.3979 69.2864C71.3915 69.1262 71.3562 68.966 71.292 68.8058C71.2215 68.6392 71.1316 68.4919 71.0226 68.3637C70.9135 68.2292 70.7819 68.1202 70.6279 68.0369C70.4804 67.9536 70.3199 67.912 70.1467 67.912C69.9093 67.9248 69.6976 67.9889 69.5115 68.1042C69.3254 68.2131 69.1778 68.3605 69.0687 68.5463C68.9661 68.7321 68.9051 68.9404 68.8859 69.1711C68.873 69.4017 68.9212 69.6388 69.0302 69.8823C69.0687 69.9784 69.1778 70.0521 69.3575 70.1033C69.5371 70.1546 69.7521 70.2091 70.0023 70.2667C70.2462 70.3244 70.5092 70.3949 70.7916 70.4782C71.0803 70.5679 71.3498 70.6928 71.6 70.853C71.8567 71.0196 72.0813 71.2407 72.2738 71.5162C72.4598 71.7853 72.585 72.1313 72.6491 72.5542C72.7004 72.913 72.6684 73.227 72.5529 73.4961C72.431 73.7716 72.2545 74.0023 72.0235 74.1881C71.7925 74.3803 71.5198 74.5277 71.2054 74.6302C70.891 74.7327 70.5638 74.7904 70.2237 74.8032C69.89 74.816 69.5596 74.784 69.2324 74.7071C68.8987 74.6238 68.6035 74.4988 68.3469 74.3322C68.0838 74.1592 67.8721 73.9382 67.7117 73.6691C67.5513 73.4 67.4678 73.0796 67.4614 72.708C67.4614 72.6118 67.4678 72.5157 67.4807 72.4196C67.4871 72.3235 67.5095 72.2402 67.548 72.1697C67.5801 72.0928 67.6315 72.0288 67.702 71.9775C67.7662 71.9198 67.8528 71.8846 67.9619 71.8718C68.0646 71.8654 68.1512 71.8814 68.2218 71.9198C68.2924 71.9647 68.3501 72.0192 68.395 72.0832C68.4335 72.1537 68.4592 72.237 68.472 72.3331C68.4848 72.4228 68.4881 72.5221 68.4816 72.6311C68.456 72.8489 68.4881 73.0379 68.5779 73.1981C68.6613 73.3583 68.78 73.4897 68.934 73.5922C69.088 73.6947 69.258 73.7716 69.4441 73.8228C69.6366 73.8677 69.8259 73.8837 70.012 73.8709C70.1916 73.8645 70.3745 73.8389 70.5606 73.794C70.7466 73.7556 70.9167 73.6883 71.0707 73.5922C71.2183 73.4961 71.3402 73.3743 71.4364 73.227C71.5262 73.0732 71.5615 72.8842 71.5423 72.6599C71.5294 72.5382 71.4942 72.41 71.4364 72.2755C71.3787 72.1473 71.3017 72.0256 71.2054 71.9102C71.1092 71.8013 71.0001 71.6988 70.8782 71.6027C70.7563 71.513 70.6279 71.4489 70.4932 71.4105C70.2943 71.3464 70.0858 71.2887 69.8676 71.2375C69.6494 71.1798 69.4377 71.1157 69.2324 71.0452C69.027 70.9747 68.8345 70.8914 68.6549 70.7953C68.4688 70.6992 68.3084 70.5807 68.1736 70.4397C68.0325 70.2988 67.9234 70.129 67.8464 69.9303C67.763 69.7317 67.7181 69.4946 67.7117 69.2191C67.7052 68.8795 67.7662 68.5752 67.8945 68.3061C68.0293 68.0305 68.2025 67.7967 68.4143 67.6044C68.626 67.4122 68.8634 67.2648 69.1265 67.1623C69.3831 67.0598 69.643 67.0085 69.9061 67.0085C70.259 67.0085 70.5798 67.0534 70.8686 67.1431C71.1637 67.2328 71.4236 67.3642 71.6482 67.5372C71.8663 67.7102 72.046 67.9184 72.1871 68.1619C72.3283 68.4054 72.4245 68.6777 72.4759 68.9788Z" fill="white"/>
<path d="M78.1822 68.9788C78.2207 69.1134 78.2046 69.2255 78.1341 69.3152C78.0699 69.3985 77.9769 69.4562 77.8549 69.4882C77.7394 69.5203 77.6111 69.5203 77.47 69.4882C77.3288 69.4562 77.2069 69.3889 77.1042 69.2864C77.0914 69.1262 77.0529 68.966 76.9887 68.8058C76.9246 68.6392 76.8379 68.4919 76.7288 68.3637C76.6134 68.2292 76.4818 68.1202 76.3342 68.0369C76.1802 67.9536 76.0166 67.912 75.8434 67.912C75.606 67.9248 75.3942 67.9889 75.2082 68.1042C75.0221 68.2131 74.8777 68.3605 74.775 68.5463C74.666 68.7321 74.605 68.9404 74.5922 69.1711C74.5729 69.4017 74.621 69.6388 74.7365 69.8823C74.775 69.9784 74.8841 70.0521 75.0638 70.1033C75.2434 70.1546 75.4552 70.2091 75.699 70.2667C75.9493 70.3244 76.2155 70.3949 76.4979 70.4782C76.7802 70.5679 77.0497 70.6928 77.3063 70.853C77.563 71.0196 77.7844 71.2407 77.9704 71.5162C78.1629 71.7853 78.2913 72.1313 78.3554 72.5542C78.4067 72.913 78.3715 73.227 78.2495 73.4961C78.1341 73.7716 77.9576 74.0023 77.7202 74.1881C77.4892 74.3803 77.2197 74.5277 76.9117 74.6302C76.5973 74.7327 76.2701 74.7904 75.93 74.8032C75.5899 74.816 75.2563 74.784 74.929 74.7071C74.6018 74.6238 74.3066 74.4988 74.0436 74.3322C73.7869 74.1592 73.5784 73.9382 73.418 73.6691C73.2576 73.4 73.1741 73.0796 73.1677 72.708C73.1677 72.6118 73.1709 72.5157 73.1773 72.4196C73.1902 72.3235 73.2126 72.2402 73.2447 72.1697C73.2832 72.0928 73.3345 72.0288 73.3987 71.9775C73.4629 71.9198 73.5527 71.8846 73.6682 71.8718C73.7645 71.8654 73.8479 71.8814 73.9184 71.9198C73.989 71.9647 74.0468 72.0192 74.0917 72.0832C74.1366 72.1537 74.1655 72.237 74.1783 72.3331C74.1911 72.4228 74.1911 72.5221 74.1783 72.6311C74.1526 72.8489 74.1847 73.0379 74.2746 73.1981C74.3644 73.3583 74.4831 73.4897 74.6307 73.5922C74.7847 73.6947 74.9579 73.7716 75.1504 73.8228C75.3429 73.8677 75.529 73.8837 75.7086 73.8709C75.8947 73.8645 76.0808 73.8389 76.2669 73.794C76.4529 73.7556 76.6198 73.6883 76.7673 73.5922C76.9213 73.4961 77.0433 73.3743 77.1331 73.227C77.2229 73.0732 77.2582 72.8842 77.239 72.6599C77.2325 72.5382 77.2005 72.41 77.1427 72.2755C77.0785 72.1473 77.0015 72.0256 76.9117 71.9102C76.8155 71.8013 76.7064 71.6988 76.5845 71.6027C76.4626 71.513 76.3342 71.4489 76.1995 71.4105C75.9942 71.3464 75.7824 71.2887 75.5643 71.2375C75.3461 71.1798 75.1376 71.1157 74.9387 71.0452C74.7333 70.9747 74.5376 70.8914 74.3516 70.7953C74.1719 70.6992 74.0115 70.5807 73.8703 70.4397C73.7356 70.2988 73.6265 70.129 73.5431 69.9303C73.4661 69.7317 73.4244 69.4946 73.418 69.2191C73.4115 68.8795 73.4725 68.5752 73.6008 68.3061C73.7292 68.0305 73.8992 67.7967 74.1109 67.6044C74.3227 67.4122 74.5601 67.2648 74.8232 67.1623C75.0862 67.0598 75.3461 67.0085 75.6028 67.0085C75.9557 67.0085 76.2797 67.0534 76.5749 67.1431C76.87 67.2328 77.1267 67.3642 77.3448 67.5372C77.5694 67.7102 77.7523 67.9184 77.8934 68.1619C78.0346 68.4054 78.1308 68.6777 78.1822 68.9788Z" fill="white"/>
<path d="M174.503 13.0802C176.111 12.2056 202.405 7.80368 202.935 10.7831C202.935 10.7831 206.101 27.4969 204.513 28.0736C203.512 28.4388 192.665 29.8997 184.455 30.5533C182.742 33.2156 180.625 35.9547 179.989 36.3007C179.297 36.6852 179.691 33.7057 180.211 30.8128C177.477 30.9281 175.553 30.8416 175.264 30.4476C174.109 28.8713 172.886 13.9644 174.503 13.0802Z" fill="#6880E4"/>
<path d="M196.202 19.8175C196.443 20.6056 197.271 21.0573 198.06 20.8266C198.849 20.596 199.302 19.7694 199.071 18.9813C198.83 18.1932 198.002 17.7415 197.213 17.9721C196.424 18.2028 195.971 19.0294 196.202 19.8175Z" fill="white"/>
<path d="M188.33 20.5863C188.561 21.384 189.389 21.8261 190.178 21.5954C190.967 21.3648 191.42 20.5382 191.189 19.7501C190.958 18.962 190.13 18.5103 189.341 18.7409C188.551 18.9716 188.099 19.7982 188.33 20.5863Z" fill="white"/>
<path d="M180.169 21.4417C180.4 22.2299 181.228 22.6816 182.017 22.4509C182.806 22.2202 183.259 21.3937 183.028 20.6056C182.797 19.8175 181.969 19.3657 181.18 19.5964C180.381 19.8271 179.938 20.6536 180.169 21.4417Z" fill="white"/>
<path d="M33.1559 55.8117H28.1318C27.9489 55.8117 27.7949 55.6675 27.7949 55.4849V54.0625C27.7949 53.8799 27.9489 53.7261 28.1318 53.7261H33.1559C33.3387 53.7261 33.4927 53.8799 33.4927 54.0625V55.4849C33.4927 55.6675 33.3387 55.8117 33.1559 55.8117Z" fill="#F6F9FF"/>
<defs>
<radialGradient id="paint0_radial_422_15546" cx="0" cy="0" r="1" gradientUnits="userSpaceOnUse" gradientTransform="translate(120 141) rotate(90) scale(21 117)">
<stop stop-color="#7688BC"/>
<stop offset="1" stop-color="white" stop-opacity="0"/>
</radialGradient>
</defs>
</svg>
