<svg width="188" height="188" viewBox="0 0 188 188" fill="none" xmlns="http://www.w3.org/2000/svg">
<path d="M81.3261 11.4192H27.6423V61.526H81.3261V11.4192Z" fill="#112B46"/>
<path d="M81.3261 11.4192H27.6423V16.7186H81.3261V11.4192Z" fill="#1D262D"/>
<path d="M69.7201 14.129C69.7201 14.6655 69.2854 15.1003 68.7489 15.1003C68.2123 15.1003 67.7776 14.6655 67.7776 14.129C67.7776 13.5924 68.2123 13.1577 68.7489 13.1577C69.2854 13.1577 69.7201 13.5924 69.7201 14.129Z" fill="#606BF1"/>
<path d="M73.7778 14.129C73.7778 14.6655 73.343 15.1003 72.8065 15.1003C72.2699 15.1003 71.8352 14.6655 71.8352 14.129C71.8352 13.5924 72.2699 13.1577 72.8065 13.1577C73.343 13.1577 73.7778 13.5924 73.7778 14.129Z" fill="#FBD15B"/>
<path d="M77.5436 14.2313C77.5436 14.7678 77.1089 15.2026 76.5723 15.2026C76.0358 15.2026 75.6011 14.7678 75.6011 14.2313C75.6011 13.6947 76.0358 13.26 76.5723 13.26C77.1089 13.26 77.5436 13.6947 77.5436 14.2313Z" fill="#FF8578"/>
<path d="M44.7883 21.6448H37.1848V22.2837H44.7883V21.6448Z" fill="#FF8578"/>
<path d="M53.7116 21.6448H46.1082V22.2837H53.7116V21.6448Z" fill="#FBD15B"/>
<path d="M51.3268 25.0869H39.5361V25.7258H51.3268V25.0869Z" fill="#606BF1"/>
<path d="M59.2692 25.0869H53.2759V25.7258H59.2692V25.0869Z" fill="#FF8578"/>
<path d="M48.806 28.5295H43.6277V29.1684H48.806V28.5295Z" fill="#FBD15B"/>
<path d="M68.9775 28.5295H51.7988V29.1684H68.9775V28.5295Z" fill="#FBD15B"/>
<path d="M67.2824 31.9722H47.6494V32.6111H67.2824V31.9722Z" fill="#606BF1"/>
<path d="M48.783 35.4148H42.7407V36.0537H48.783V35.4148Z" fill="#FF8578"/>
<path d="M57.4107 35.4148H51.3684V36.0537H57.4107V35.4148Z" fill="#606BF1"/>
<path d="M45.9747 53.2747H37.1848V53.9136H45.9747V53.2747Z" fill="#FF8578"/>
<path d="M57.8442 53.2747H49.0537V53.9136H57.8442V53.2747Z" fill="#FBD15B"/>
<path d="M69.3946 53.2747H60.6047V53.9136H69.3946V53.2747Z" fill="#FF8578"/>
<path d="M56.7148 49.8325H39.5361V50.4714H56.7148V49.8325Z" fill="#606BF1"/>
<path d="M76.5732 49.8325H59.3945V50.4714H76.5732V49.8325Z" fill="#FF8578"/>
<path d="M60.6748 46.3899H43.6277V47.0288H60.6748V46.3899Z" fill="#FF8578"/>
<path d="M66.9046 46.3899H62.1599V47.0288H66.9046V46.3899Z" fill="#FBD15B"/>
<path d="M48.932 42.9473H42.5144V43.5862H48.932V42.9473Z" fill="#FBD15B"/>
<path d="M58.7572 42.9473H52.3396V43.5862H58.7572V42.9473Z" fill="#606BF1"/>
<path d="M69.3023 42.9473H62.8848V43.5862H69.3023V42.9473Z" fill="#FF8578"/>
<path d="M58.9509 39.5046H49.9524V40.1435H58.9509V39.5046Z" fill="#FBD15B"/>
<path d="M46.5588 39.5046H37.5603V40.1435H46.5588V39.5046Z" fill="#606BF1"/>
<path d="M33.0282 21.0312H32.2104V21.8495H33.0282V21.0312Z" fill="#F9FBFC"/>
<path d="M33.0301 51.0452H32.2124V49.3772H33.0301V51.0452ZM33.0301 46.8745H32.2124V45.2065H33.0301V46.8745ZM33.0301 42.7032H32.2124V41.0347H33.0301V42.7032ZM33.0301 38.5325H32.2124V36.864H33.0301V38.5325ZM33.0301 34.3618H32.2124V32.6933H33.0301V34.3618ZM33.0301 30.1911H32.2124V28.5226H33.0301V30.1911ZM33.0301 26.0198H32.2124V24.3513H33.0301V26.0198Z" fill="#F9FBFC"/>
<path d="M33.0282 53.5479H32.2104V54.3661H33.0282V53.5479Z" fill="#F9FBFC"/>
<path d="M137.084 0.774902H92.8784V28.0229H137.084V0.774902Z" fill="#FF8578"/>
<path d="M110.046 11.734L104.787 13.9787L110.046 16.1904L109.357 17.7796L103.05 14.9615V13.0118L109.357 10.1772L110.046 11.734Z" fill="#F9FBFC"/>
<path d="M117.796 6.54077L113.978 21.204L112.159 20.7781L115.993 6.13135L117.796 6.54077Z" fill="#F9FBFC"/>
<path d="M126.924 13.0123V14.962L120.616 17.78L119.928 16.1908L125.17 13.9791L119.928 11.7345L120.616 10.1782L126.924 13.0123Z" fill="#F9FBFC"/>
<path d="M160.739 53.562H135.561V71.4995H160.739V53.562Z" fill="#606BF1"/>
<path d="M146.095 57.4344C145.285 57.4344 145.015 57.6528 145.015 58.257V60.9568C145.015 62.0112 144.578 62.3326 143.845 62.5384C144.578 62.731 145.015 63.0523 145.015 64.0935V66.7933C145.015 67.3975 145.298 67.616 146.095 67.616V68.7986C144.051 68.7986 143.472 68.1432 143.472 66.7801V64.2217C143.472 63.4887 143.279 63.2064 142.611 63.2064V61.8565C143.279 61.8565 143.472 61.561 143.472 60.828V58.2697C143.472 56.894 144.051 56.2512 146.095 56.2512V57.4344Z" fill="#F1F2F2"/>
<path d="M152.831 58.2701V60.8285C152.831 61.5615 153.024 61.857 153.705 61.857V63.2069C153.024 63.2069 152.831 63.4897 152.831 64.2222V66.7805C152.831 68.143 152.253 68.799 150.208 68.799V67.6164C151.005 67.6164 151.288 67.3979 151.288 66.7937V64.0939C151.288 63.0528 151.725 62.7314 152.458 62.5388C151.725 62.333 151.288 62.0116 151.288 60.9572V58.2575C151.288 57.6533 151.018 57.4348 150.208 57.4348V56.2522C152.253 56.2516 152.831 56.8944 152.831 58.2701Z" fill="#F1F2F2"/>
<path d="M38.7994 4.68237H10.5532V23.5752H38.7994V4.68237Z" fill="#FBD15B"/>
<path d="M19.9007 10.1057C18.5519 11.7934 18.5728 14.2599 19.9469 15.9273C21.5081 17.8219 24.1826 18.1268 26.1042 16.8452L29.0687 19.8096C29.1936 19.9345 29.3966 19.9345 29.5216 19.8096L30.3547 18.977C30.4796 18.8521 30.4796 18.649 30.3547 18.5241L27.3903 15.5597C28.591 13.7591 28.399 11.2976 26.8113 9.71C24.8798 7.77846 21.6551 7.91053 19.9007 10.1057ZM25.8511 15.3065C24.5727 16.5849 22.4932 16.5843 21.2148 15.3065C19.9365 14.0282 19.9365 11.9486 21.2148 10.6703C22.4932 9.39193 24.5727 9.39193 25.8511 10.6703C27.1289 11.9481 27.1294 14.0282 25.8511 15.3065Z" fill="#F9FBFC"/>
<path d="M120.966 63.0395C120.904 63.6635 120.051 70.1785 113.352 70.1785C106.318 70.1785 107.496 63.215 107.496 63.215L107.488 63.171C108.173 63.0301 108.912 62.9773 109.694 63.0654V59.768L117.677 55.3018H117.967V62.9949C117.967 62.9949 119.234 62.8458 120.966 63.0395Z" fill="url(#paint0_radial_422_12085)"/>
<path d="M117.085 40.5844C118.217 41.7323 119.073 43.2181 119.485 45.0335C120.252 48.4157 119.53 51.9942 118.549 55.2537C118.381 55.8111 118.19 56.3735 117.846 56.8429C117.6 57.1775 117.284 57.4537 116.97 57.7261C115.55 58.9627 114.131 60.1997 112.714 61.4401C111.754 62.281 105.841 62.9815 104.713 62.1747C100.364 59.0656 99.5276 50.0583 100.398 45.4534C101.842 37.8136 111.661 35.0819 117.085 40.5844Z" fill="url(#paint1_radial_422_12085)"/>
<path d="M114.646 50.3612C114.704 49.626 115.46 48.8204 116.219 49.2975C117.005 49.7916 116.82 51.0975 116.494 51.8162C116.239 52.3797 115.384 52.9966 114.806 52.4727C114.321 52.0335 115.075 51.5152 115.099 51.1145C115.121 50.7535 114.399 50.4949 114.695 50.1086" fill="#F7B094"/>
<path d="M114.785 53.7607C115.578 53.9985 116.92 53.3942 117.26 52.2904C117.599 51.1865 117.563 49.9263 117.563 49.9263C117.563 49.9263 117.962 50.9256 117.757 52.533C117.552 54.141 116.988 55.6725 115.726 55.6923C114.464 55.7126 114.785 53.7607 114.785 53.7607Z" fill="#F7B094"/>
<path d="M113.813 52.6167C113.787 52.6294 113.757 52.6388 113.724 52.6437C113.233 52.7125 113.038 52.1187 112.965 51.7467C112.794 50.8789 112.821 50.0006 112.791 49.1229C112.783 48.9028 112.801 48.6287 112.711 48.4218C112.435 47.7906 111.7 47.3801 111.477 46.7286C111.216 45.9703 111.952 45.2136 111.66 44.3832C111.212 43.1115 109.58 42.8193 108.399 42.833C106.626 42.8539 104.899 43.1824 103.15 43.4537C101.304 43.7404 98.944 44.0123 97.3173 42.8446C95.3566 41.4375 94.5378 37.7697 96.001 35.7617C96.7984 34.6671 98.3112 34.0844 99.6363 34.0541C101.041 34.0222 102.228 34.8592 103.516 35.2807C104.543 35.6164 105.535 34.6347 106.495 34.4426C107.7 34.2016 108.213 35.5179 109.279 35.5542C110.315 35.5894 111.332 34.7799 112.34 34.5956C114.349 34.2291 114.23 36.2465 115.578 36.9355C116.416 37.3636 117.498 37.1044 118.346 37.5397C118.99 37.8704 119.08 38.4515 119.22 39.1097C119.341 39.6787 119.349 40.3358 119.536 40.8767C119.704 41.3632 120.113 41.6702 120.431 42.051C120.779 42.466 121.001 42.9508 121.178 43.4714C121.568 44.6253 121.655 45.8707 121.549 47.0791C121.369 49.1081 120.717 51.1045 120.039 53.0152C119.599 54.255 119.436 55.546 118.76 56.7192C118.578 57.0345 117.771 57.9552 117.471 57.2695C117.407 57.1226 117.417 56.9553 117.429 56.7952C117.518 55.5174 118.707 47.2822 115.588 48.2716C114.933 48.4791 114.494 49.0239 114.25 49.6457C113.958 50.3891 113.937 51.1381 113.975 51.9239C113.98 52.0362 113.983 52.149 113.979 52.2613C113.973 52.4071 113.937 52.5546 113.813 52.6167Z" fill="#3D3D7A"/>
<path d="M109.696 62.3114C113.243 61.7413 115.584 58.9392 115.584 58.9392C115.584 58.9392 114.627 63.6619 109.483 63.9117L109.696 62.3114Z" fill="#F7B094"/>
<path d="M115.519 126.68H120.597V175.395C120.597 175.889 120.196 176.29 119.702 176.29H116.414C115.92 176.29 115.519 175.889 115.519 175.395V126.68Z" fill="#0A2033"/>
<path d="M104.096 127.377H132.019V128.139C132.019 130.058 130.464 131.613 128.545 131.613H107.571C105.652 131.613 104.096 130.058 104.096 128.139V127.377Z" fill="#30475E"/>
<path d="M115.52 170.514H120.597V181.803C120.597 182.297 120.197 182.697 119.702 182.697H116.414C115.92 182.697 115.52 182.297 115.52 181.803V170.514Z" fill="#0A2033"/>
<path d="M91.709 179.726C91.709 181.367 93.0396 182.698 94.6806 182.698C96.3216 182.698 97.6522 181.367 97.6522 179.726C97.6522 178.085 96.3216 176.754 94.6806 176.754C93.0396 176.754 91.709 178.085 91.709 179.726Z" fill="#0A2033"/>
<path d="M138.463 179.726C138.463 181.367 139.794 182.698 141.434 182.698C143.075 182.698 144.406 181.367 144.406 179.726C144.406 178.085 143.075 176.754 141.434 176.754C139.793 176.754 138.463 178.085 138.463 179.726Z" fill="#0A2033"/>
<path d="M112.95 175.656H123.165V166.731H112.95V175.656Z" fill="#30475E"/>
<path d="M91.709 177.757H144.405V176.721C144.405 174.974 142.988 173.557 141.241 173.557H94.8743C93.1266 173.557 91.7095 174.974 91.7095 176.721V177.757H91.709Z" fill="#FBD15B"/>
<path d="M118.057 132.615H116.296V165.934H118.057V132.615Z" fill="#30475E"/>
<path d="M138.005 91.3692C136.787 91.3312 135.797 92.3394 135.867 93.5561C136.216 99.6039 134.934 114.357 129.301 119.391C122.413 125.546 102.893 124.708 102.893 124.708C102.893 124.708 99.6689 128.665 106.116 129.543C112.564 130.423 130.734 129.837 135.131 125.734C139.386 121.762 141.912 111.357 140.009 93.2452C139.899 92.2062 139.049 91.4017 138.005 91.3692Z" fill="#FBD15B"/>
<path d="M101.431 165.935L103.752 171.227L96.6395 174.349L94.3096 169.038L101.431 165.935Z" fill="url(#paint2_radial_422_12085)"/>
<path d="M134.975 107.105C134.535 107.985 102.932 107.123 99.9468 107.395C99.9468 107.395 80.6038 116.627 77.8253 125.27C77.5441 126.141 77.4649 127.293 77.5529 128.664C78.3267 140.832 92.1832 169.97 92.1832 169.97L94.3106 169.038L101.433 165.934L102.443 165.494C102.443 165.494 91.4535 132.743 93.6514 130.985C95.8493 129.227 120.758 124.831 129.4 122.492C138.052 120.145 134.975 107.105 134.975 107.105Z" fill="#56548C"/>
<path d="M74.3151 167.296L74.8704 175.248H67.1068L66.5515 167.278L74.3151 167.296Z" fill="url(#paint3_radial_422_12085)"/>
<path d="M99.7879 107.123L99.5067 107.246C99.5067 107.246 67.125 111.792 61.8498 120.874C58.4209 126.783 65.058 169.955 65.058 169.955L76.5142 169.981C76.5142 169.981 74.8005 134.019 75.3723 132.014C76.0139 129.728 77.1129 128.902 77.5526 128.664C77.4645 127.293 77.5438 126.141 77.825 125.271C80.6034 116.628 99.9464 107.396 99.9464 107.396C99.8842 107.352 99.8314 107.255 99.7879 107.123Z" fill="#3D3D7A"/>
<path d="M131.065 77.2034L128.894 77.5022C128.894 77.5022 128.366 83.3579 127.074 89.2136L100.02 99.4827L99.6509 101.443C99.5365 101.435 99.4226 101.426 99.3169 101.417C99.3257 101.821 99.3257 102.217 99.3433 102.586C99.4049 104.846 99.5541 106.473 99.7918 107.123C99.8358 107.255 99.8887 107.351 99.9503 107.395C100.685 107.995 110.254 106.834 120.598 110.632C129.57 113.926 134.598 117.524 134.83 117.041C137.648 111.179 132.516 88.1763 131.065 77.2034Z" fill="#FF8578"/>
<path d="M128.243 90.6202C127.522 94.0843 125.659 100.977 122.001 101.901C117.226 103.114 107.995 103.053 99.3433 102.586C99.3257 102.217 99.3257 101.821 99.3169 101.417C99.4226 101.426 99.5365 101.435 99.6509 101.443L100.02 99.4827L127.074 89.2136C128.367 83.3579 128.894 77.5022 128.894 77.5022C128.894 77.5022 128.894 77.5374 128.903 77.5991C128.955 78.5048 129.325 85.503 128.243 90.6202Z" fill="#F4675D"/>
<path d="M101.125 68.561C100.641 69.4404 99.9466 78.8478 99.5686 88.1852L94.0381 83.024C96.3857 78.4785 101.125 68.561 101.125 68.561Z" fill="#F4675D"/>
<path d="M97.8103 95.0078C93.1416 95.8167 88.8509 96.5112 88.8509 96.5112L88.8421 96.7396C83.6456 92.5898 75.7417 80.8343 75.7417 80.8343C75.7417 80.8343 78.1069 77.9943 78.6957 77.2469C78.7837 77.1325 91.6728 86.0038 92.3326 85.9246C92.4999 85.907 93.1592 84.7464 94.0385 83.0234L99.569 88.1847C99.481 90.409 99.4106 92.6245 99.3665 94.7261C98.8476 94.8229 98.3287 94.911 97.8103 95.0078Z" fill="#F7B094"/>
<path d="M88.8504 96.5112L88.736 100.362H74.6687C74.6687 100.362 76.0665 94.8669 79.874 94.8669C83.6809 94.8669 85.1491 96.8805 85.1491 96.8805L88.8504 96.5112Z" fill="url(#paint4_radial_422_12085)"/>
<path d="M78.591 77.1594L78.6966 77.2474C78.1073 77.9947 75.7426 80.8348 75.7426 80.8348L74.2744 79.7975C74.2744 79.7975 72.6566 80.7825 70.7751 79.7535C68.8144 78.6897 70.0278 76.1496 70.1285 75.8485C69.7482 75.9559 67.399 77.8544 67.0298 77.6524C66.6605 77.4499 66.3881 76.7819 69.0169 74.1883C71.6369 71.5947 75.2066 74.9268 75.3123 74.9268L78.591 77.1594Z" fill="#F7B094"/>
<path d="M71.079 79.3123C71.079 79.3123 70.5122 80.3738 71.5198 80.835C72.5274 81.2961 74.4881 81.629 75.3301 81.5481C76.172 81.4672 76.8418 80.2885 76.8418 80.2885L74.2911 77.8953H72.2523L71.079 79.3123Z" fill="#F7B094"/>
<path d="M70.9277 79.8333C71.079 79.3122 72.5269 79.5901 73.4249 79.6116C74.0864 79.6275 74.4485 79.4542 74.6532 78.9501C74.8579 78.4466 73.8976 77.6431 73.7083 77.8952C73.5196 78.1472 74.055 78.5016 74.0704 78.8362C74.0864 79.1708 73.1256 79.2808 72.386 79.2808C71.6458 79.2808 70.3691 79.4734 70.3691 79.4734L70.9277 79.8333Z" fill="#E8987C"/>
<path d="M125.698 94.2079L111.921 89.3284C110.919 91.201 109.846 92.6081 108.782 92.8893C107.173 93.3114 103.287 94.0411 99.3652 94.7268C98.8463 94.8236 98.3279 94.9111 97.809 95.008C93.1402 95.8169 88.8496 96.5114 88.8496 96.5114L88.8408 96.7398V96.8895L88.7351 100.362V101.243C88.7351 101.243 93.4126 101.004 99.3124 101.417C107.569 102.006 118.216 102.358 121.741 100.696C123.395 99.9139 124.713 97.3468 125.751 94.1814C125.733 94.1902 125.716 94.1991 125.698 94.2079Z" fill="url(#paint5_radial_422_12085)"/>
<path d="M111.921 89.3284L125.698 94.2079L125.074 96.0486L111.438 90.1995L111.921 89.3284Z" fill="#F7B094"/>
<path d="M111.921 89.3283C110.918 91.201 109.845 92.6081 108.782 92.8893C107.173 93.3114 103.286 94.0411 99.365 94.7267C99.409 92.6251 99.4795 90.4096 99.5675 88.1853C99.9456 78.8479 100.64 69.4405 101.124 68.5612C101.915 67.093 104.078 63.9013 107.489 63.1716L107.498 63.2156C107.498 63.2156 106.32 70.179 113.354 70.179C120.053 70.179 120.906 63.6641 120.967 63.04C124.414 63.4269 129.698 65.1504 130.428 72.0787C130.577 73.45 130.788 75.2088 131.06 77.2047L128.889 77.5035C128.889 77.5035 128.01 87.263 125.75 94.1825C125.732 94.1913 125.715 94.2001 125.697 94.2089L111.921 89.3283Z" fill="#FF8578"/>
<path d="M111.779 88.0582L117.28 74.741L113.227 88.5964L111.779 88.0582Z" fill="#6D4B35"/>
<path d="M120.968 63.0393H117.97C117.97 63.0393 113.704 67.724 110.961 67.724C108.218 67.724 109.697 63.0657 109.697 63.0657H108.359C104.515 63.0657 101.281 65.952 100.846 69.7717C100.796 70.2091 100.751 70.6241 100.712 70.9994C100.418 73.8334 111.899 75.8959 111.899 75.8959L117.81 75.5652L121.4 68.561L122.115 65.6928L120.968 63.0393Z" fill="#FF8578"/>
<path d="M84.793 180.44C85.0599 181.873 86.0527 182.892 87.4857 182.624L106.582 179.063C107.065 178.972 107.383 178.508 107.293 178.025L106.977 176.33C106.977 176.33 86.8941 179.845 84.7837 180.43L84.793 180.44Z" fill="#F1F2F2"/>
<path d="M90.4732 175.632C90.6724 175.46 90.8639 175.288 91.0631 175.115C91.4461 174.772 91.823 174.439 92.1857 174.115C92.3772 173.944 92.5687 173.772 92.7464 173.612C93.0953 173.299 93.4239 173.006 93.7183 172.744C93.9301 172.553 94.1277 172.372 94.3054 172.211C94.6318 171.918 94.8987 171.68 95.0852 171.512C95.247 171.368 95.4869 171.36 95.6537 171.5C96.4389 172.16 98.9758 173.67 103.571 170.826C103.789 170.691 104.078 170.761 104.196 170.988L106.975 176.329C106.975 176.329 86.8924 179.843 84.782 180.429C85.4759 179.997 88.0397 177.779 90.4732 175.632Z" fill="#3D3D7A"/>
<path d="M54.7143 180.254C54.75 181.71 55.5678 182.874 57.0244 182.839L76.4439 182.365C76.9353 182.353 77.3238 181.945 77.3117 181.453L77.2698 179.73C77.2698 179.73 56.883 180.001 54.7065 180.242L54.7143 180.254Z" fill="#F1F2F2"/>
<path d="M61.0877 176.412C61.3123 176.273 61.5285 176.135 61.7525 175.996C62.185 175.718 62.6104 175.449 63.0198 175.188C63.2361 175.049 63.4524 174.91 63.6538 174.78C64.0478 174.527 64.4187 174.29 64.7511 174.078C64.9904 173.923 65.2144 173.777 65.4158 173.646C65.7845 173.41 66.0861 173.216 66.2968 173.081C66.4795 172.963 66.7178 172.995 66.8598 173.159C67.5295 173.936 69.794 175.83 74.7841 173.755C75.0207 173.656 75.2948 173.772 75.3757 174.016L77.2681 179.731C77.2681 179.731 56.8813 180.001 54.7048 180.242C55.4587 179.925 58.3434 178.143 61.0877 176.412Z" fill="#3D3D7A"/>
<path d="M40.9004 101.243L30.5295 73.5837H60.0547L70.4261 101.243H40.9004Z" fill="#ABB5BA"/>
<path d="M72.2512 101.243H70.4264L60.0549 73.5837L61.713 73.6575L71.3052 98.6938L72.2512 101.243Z" fill="#8495A0"/>
<path d="M71.679 101.243H91.1887L91.1359 99.4995C91.1359 99.4995 71.6058 99.4995 71.28 99.4995" fill="#8495A0"/>
<path d="M154.798 106.519H150.101V183.689H154.798V106.519Z" fill="#8495A0"/>
<path d="M129.3 106.519H124.603V183.689H129.3V106.519Z" fill="#ABB5BA"/>
<path d="M47.6131 106.519H42.9158V183.689H47.6131V106.519Z" fill="#8495A0"/>
<path d="M22.1163 106.519H17.4189V183.689H22.1163V106.519Z" fill="#ABB5BA"/>
<path d="M159.498 106.812H12.9201C11.6594 106.812 10.637 105.789 10.637 104.529V103.527C10.637 102.265 11.6594 101.243 12.9201 101.243H159.497C160.759 101.243 161.781 102.266 161.781 103.527V104.529C161.781 105.79 160.759 106.812 159.498 106.812Z" fill="#141B56"/>
<path d="M35.46 76.491L35.9651 77.8375H41.8467L41.3415 76.491H35.46Z" fill="#8495A0"/>
<path d="M94.0376 83.0239L93.6155 83.8395L99.5675 89.9912V88.1852L94.0376 83.0239Z" fill="#E8987C"/>
<path d="M187.652 182.497H0V188H187.652V182.497Z" fill="#A5B7C6"/>
<path d="M177.847 142.444C176.903 147.025 177.188 154.829 171.127 156.065C169.494 156.398 167.918 155.266 166.969 153.97C165.728 152.273 165.431 148.682 165.453 146.628C165.47 145 166.025 143.185 166.204 141.543C166.397 139.769 166.554 137.992 166.761 136.219C167.506 129.831 170.843 124.478 176.488 121.289C176.925 123.385 177.921 125.16 178.798 127.173C179.198 128.091 179.56 129.059 179.82 130.021C180.282 131.724 179.723 133.446 179.309 135.077C178.697 137.49 178.35 140.004 177.847 142.444Z" fill="url(#paint6_linear_422_12085)"/>
<path d="M170.101 156.219C170.144 155.835 170.191 155.45 170.242 155.066C170.966 155.064 171.72 154.652 172.328 154.337C173.382 153.791 174.237 153.007 175.066 152.17C175.11 152.125 175.036 152.053 174.988 152.092C174.162 152.786 173.306 153.458 172.323 153.917C171.774 154.172 170.973 154.59 170.297 154.671C170.361 154.212 170.432 153.754 170.508 153.298C171.262 153.205 171.952 152.71 172.591 152.331C173.676 151.687 174.61 150.854 175.577 150.052C175.588 150.043 175.575 150.026 175.563 150.034C174.083 151.109 172.434 152.639 170.563 152.974C170.662 152.402 170.767 151.831 170.887 151.264C170.893 151.234 170.899 151.205 170.906 151.175C173.073 150.627 174.539 148.928 176.197 147.554C176.224 147.532 176.196 147.486 176.167 147.508C174.533 148.776 172.998 150.225 170.979 150.84C171.154 150.029 171.336 149.22 171.519 148.412C173.48 147.689 175.045 146.541 176.415 144.941C176.438 144.914 176.4 144.876 176.375 144.902C174.957 146.378 173.396 147.226 171.597 148.066C171.778 147.266 171.958 146.466 172.128 145.664C172.976 145.247 173.868 144.994 174.652 144.445C175.425 143.904 176.118 143.259 176.615 142.454C176.642 142.412 176.579 142.371 176.55 142.412C175.454 143.989 173.8 144.48 172.202 145.309C172.358 144.562 172.503 143.812 172.633 143.058C174.414 142.077 176.349 141.168 177.358 139.289C177.368 139.27 177.342 139.252 177.331 139.27C176.262 140.997 174.393 141.74 172.696 142.68C172.718 142.546 172.743 142.412 172.764 142.277C172.873 141.578 172.975 140.878 173.075 140.178C174.099 139.768 175.074 139.19 175.995 138.59C176.649 138.164 177.347 137.742 177.775 137.074C177.802 137.032 177.74 136.988 177.712 137.029C176.756 138.398 174.665 139.189 173.119 139.874C173.22 139.167 173.319 138.459 173.42 137.752C175.135 136.714 177.151 136.14 178.206 134.271C178.238 134.215 178.156 134.164 178.122 134.218C177.029 135.926 175.105 136.452 173.467 137.422C173.53 136.984 173.594 136.545 173.66 136.108C175.511 135.427 177.664 133.878 178.64 132.204C178.694 132.112 178.56 132.026 178.5 132.114C177.504 133.583 175.504 135.179 173.714 135.76C173.823 135.051 173.938 134.343 174.064 133.636C174.076 133.616 174.086 133.595 174.091 133.573C174.922 133.328 175.744 132.742 176.461 132.299C177.326 131.766 178.152 131.145 178.691 130.268C178.75 130.171 178.593 130.082 178.537 130.181C177.714 131.649 175.762 132.633 174.147 133.193C174.195 132.936 174.241 132.677 174.292 132.42C174.369 132.035 174.447 131.65 174.525 131.265C175.187 130.809 176.027 130.59 176.691 130.108C177.268 129.688 177.772 129.183 178.267 128.671C178.316 128.621 178.243 128.542 178.191 128.591C177.521 129.221 176.831 129.825 176.016 130.262C175.559 130.507 175.039 130.646 174.597 130.913C174.727 130.284 174.856 129.655 174.978 129.026C174.986 129.024 174.994 129.022 175.002 129.021C175.01 129.022 175.018 129.024 175.026 129.026C175.071 129.034 175.108 129.019 175.135 128.992C176.034 128.765 176.722 127.991 177.326 127.331C177.341 127.315 177.319 127.292 177.303 127.307C176.669 127.894 175.948 128.542 175.099 128.795C175.095 128.794 175.093 128.792 175.09 128.791C175.068 128.788 175.047 128.785 175.026 128.781C175.124 128.268 175.218 127.754 175.304 127.24C175.368 127.228 175.425 127.173 175.41 127.108C175.886 126.788 176.32 126.38 176.727 125.98C176.757 125.951 176.714 125.903 176.681 125.931C176.259 126.296 175.842 126.596 175.366 126.86C175.534 125.797 175.664 124.728 175.723 123.648C175.729 123.548 175.578 123.547 175.569 123.645C175.475 124.684 175.324 125.713 175.145 126.738C174.649 126.087 174.097 125.416 173.793 124.671C173.778 124.633 173.716 124.648 173.73 124.69C173.878 125.153 174.134 125.557 174.387 125.969C174.614 126.337 174.795 126.766 175.084 127.092C174.984 127.642 174.876 128.191 174.763 128.738C174.16 128.642 173.606 128.527 173.108 128.091C172.499 127.556 172.152 126.829 172.091 126.023C172.084 125.924 171.927 125.925 171.937 126.024C172.006 126.774 172.304 127.479 172.817 128.038C173.356 128.626 173.989 128.813 174.716 128.964C174.584 129.596 174.447 130.228 174.308 130.859C173.76 130.531 173.251 130.101 172.757 129.707C171.96 129.072 171.49 128.308 170.798 127.593C170.729 127.521 170.616 127.625 170.684 127.697C171.333 128.387 171.771 129.133 172.509 129.752C173.04 130.198 173.625 130.756 174.258 131.086C174.251 131.12 174.244 131.153 174.236 131.186C174.23 131.193 174.222 131.198 174.216 131.204C174.167 131.252 174.173 131.306 174.202 131.346C174.069 131.95 173.936 132.555 173.808 133.161C173.801 133.199 173.794 133.237 173.786 133.275C172.376 132.63 170.269 131.509 170.083 129.873C170.065 129.717 169.833 129.761 169.869 129.92C170.286 131.771 172.32 132.591 173.721 133.6C173.583 134.285 173.457 134.973 173.34 135.661C172.43 135.348 171.564 134.961 170.799 134.353C170.104 133.799 169.12 133.133 168.807 132.276C168.797 132.249 168.758 132.267 168.767 132.293C169.057 133.145 169.939 133.73 170.581 134.311C171.396 135.048 172.23 135.674 173.277 135.969C173.269 135.999 173.267 136.03 173.274 136.061C173.202 136.498 173.133 136.935 173.066 137.372C171.354 137.24 168.959 135.94 168.084 134.645C168.08 134.639 168.071 134.646 168.075 134.652C168.671 135.64 169.574 136.218 170.591 136.719C171.351 137.093 172.171 137.536 173.031 137.6C172.908 138.41 172.789 139.221 172.668 140.032C171.925 139.755 171.138 139.622 170.404 139.328C169.311 138.89 168.477 138.105 167.833 137.139C167.795 137.081 167.697 137.13 167.735 137.191C168.921 139.075 170.625 139.628 172.623 140.334C172.523 140.998 172.419 141.663 172.309 142.326C170.674 142.013 168.56 141.016 167.733 139.595C167.673 139.491 167.506 139.578 167.567 139.683C168.09 140.592 168.99 141.168 169.908 141.632C170.569 141.966 171.48 142.52 172.268 142.579C172.264 142.601 172.261 142.622 172.258 142.644C172.096 143.599 171.907 144.549 171.703 145.496C169.877 145.037 168.697 143.684 167.369 142.418C167.277 142.33 167.133 142.464 167.225 142.555C168.577 143.885 169.765 145.282 171.643 145.774C171.475 146.544 171.296 147.313 171.11 148.079C169.555 147.644 168.015 146.541 167.009 145.273C166.937 145.183 166.812 145.305 166.88 145.394C167.926 146.769 169.433 147.807 171.038 148.376C170.836 149.199 170.628 150.02 170.416 150.839C168.818 150.596 167.587 149.596 166.603 148.332C166.58 148.303 166.529 148.341 166.551 148.371C167.425 149.588 168.748 150.992 170.339 151.14C170.272 151.402 170.204 151.663 170.137 151.925C170.096 152.083 170.053 152.243 170.01 152.405C168.805 152.05 167.686 151.617 166.692 150.805C166.664 150.783 166.632 150.826 166.658 150.849C167.603 151.7 168.735 152.274 169.944 152.646C169.809 153.138 169.668 153.644 169.528 154.16C169.229 154.021 168.94 153.869 168.613 153.771C168.014 153.591 167.626 153.211 167.104 152.898C167.056 152.869 167.002 152.937 167.05 152.968C167.508 153.267 167.83 153.651 168.353 153.848C168.74 153.994 169.104 154.18 169.478 154.346C168.929 156.393 168.443 158.569 168.707 160.534C168.765 160.97 169.496 161.085 169.609 160.622C169.956 159.196 169.938 157.675 170.101 156.219Z" fill="#747DED"/>
<path d="M158.666 141.132C159.744 145.684 163.295 152.638 158.322 156.317C156.983 157.307 155.077 156.947 153.669 156.172C151.828 155.158 150.042 152.028 149.196 150.157C148.524 148.674 148.261 146.793 147.73 145.23C147.156 143.54 146.549 141.863 145.988 140.169C143.968 134.063 144.733 127.801 148.505 122.528C149.786 124.244 151.438 125.433 153.083 126.888C153.833 127.551 154.57 128.276 155.212 129.038C156.349 130.388 156.57 132.184 156.883 133.838C157.346 136.283 158.093 138.708 158.666 141.132Z" fill="url(#paint7_linear_422_12085)"/>
<path d="M157.457 156.889C157.334 156.523 157.215 156.154 157.098 155.785C157.754 155.477 158.264 154.786 158.682 154.244C159.407 153.304 159.851 152.233 160.249 151.123C160.27 151.065 160.172 151.03 160.146 151.087C159.69 152.064 159.197 153.035 158.499 153.866C158.11 154.328 157.56 155.045 156.982 155.404C156.846 154.961 156.716 154.517 156.593 154.07C157.237 153.669 157.655 152.928 158.073 152.315C158.785 151.273 159.28 150.124 159.818 148.988C159.824 148.975 159.806 148.965 159.799 148.978C158.91 150.577 158.061 152.66 156.506 153.753C156.354 153.193 156.208 152.631 156.077 152.066C156.071 152.036 156.064 152.007 156.058 151.977C157.791 150.566 158.402 148.407 159.326 146.462C159.341 146.43 159.296 146.401 159.28 146.433C158.334 148.272 157.554 150.233 155.983 151.643C155.799 150.835 155.623 150.024 155.448 149.214C156.92 147.731 157.854 146.03 158.422 144.001C158.431 143.967 158.381 143.949 158.369 143.983C157.707 145.919 156.649 147.347 155.373 148.867C155.2 148.065 155.025 147.265 154.841 146.466C155.434 145.729 156.135 145.123 156.614 144.295C157.086 143.479 157.443 142.601 157.554 141.662C157.56 141.613 157.486 141.603 157.477 141.652C157.148 143.545 155.857 144.688 154.758 146.114C154.583 145.371 154.398 144.629 154.198 143.891C155.399 142.25 156.77 140.61 156.891 138.48C156.892 138.459 156.861 138.454 156.858 138.475C156.618 140.492 155.238 141.955 154.096 143.523C154.059 143.392 154.025 143.261 153.988 143.13C153.792 142.45 153.589 141.772 153.384 141.095C154.139 140.291 154.779 139.356 155.361 138.423C155.774 137.762 156.229 137.084 156.334 136.298C156.341 136.248 156.267 136.235 156.258 136.285C155.97 137.928 154.407 139.529 153.296 140.801C153.088 140.118 152.88 139.435 152.673 138.751C153.789 137.087 155.375 135.716 155.543 133.575C155.548 133.511 155.452 133.5 155.444 133.563C155.174 135.573 153.652 136.862 152.576 138.432C152.448 138.008 152.321 137.584 152.197 137.159C153.588 135.761 154.885 133.447 155.064 131.517C155.074 131.411 154.917 131.39 154.9 131.495C154.617 133.247 153.477 135.538 152.099 136.821C151.899 136.132 151.704 135.441 151.52 134.747C151.523 134.724 151.523 134.701 151.518 134.679C152.169 134.106 152.666 133.228 153.129 132.524C153.689 131.675 154.176 130.764 154.293 129.742C154.306 129.629 154.125 129.614 154.117 129.728C153.991 131.406 152.636 133.121 151.408 134.311C151.343 134.058 151.276 133.804 151.213 133.549C151.12 133.168 151.028 132.786 150.938 132.404C151.344 131.711 152.013 131.158 152.412 130.44C152.759 129.816 153.002 129.146 153.235 128.473C153.258 128.406 153.159 128.366 153.132 128.432C152.79 129.286 152.42 130.125 151.865 130.865C151.555 131.279 151.142 131.625 150.854 132.054C150.706 131.429 150.557 130.805 150.403 130.182C150.409 130.177 150.415 130.172 150.422 130.168C150.43 130.165 150.437 130.164 150.446 130.162C150.491 130.15 150.517 130.121 150.53 130.086C151.25 129.501 151.546 128.507 151.816 127.654C151.823 127.634 151.793 127.623 151.785 127.643C151.458 128.442 151.078 129.335 150.414 129.922C150.411 129.922 150.408 129.921 150.404 129.922C150.383 129.928 150.363 129.934 150.342 129.94C150.215 129.434 150.082 128.929 149.943 128.426C149.997 128.388 150.025 128.314 149.984 128.262C150.281 127.77 150.502 127.218 150.702 126.684C150.716 126.644 150.658 126.62 150.64 126.659C150.411 127.168 150.16 127.616 149.84 128.055C149.543 127.021 149.21 125.997 148.809 124.993C148.771 124.9 148.634 124.963 148.667 125.056C149.02 126.038 149.318 127.034 149.588 128.038C148.864 127.657 148.08 127.283 147.491 126.735C147.46 126.706 147.411 126.746 147.441 126.778C147.77 127.135 148.173 127.394 148.576 127.66C148.937 127.899 149.282 128.211 149.682 128.385C149.824 128.925 149.958 129.469 150.086 130.012C149.498 130.179 148.948 130.309 148.312 130.123C147.534 129.896 146.912 129.383 146.518 128.678C146.469 128.592 146.328 128.658 146.378 128.744C146.756 129.394 147.325 129.908 148.025 130.198C148.763 130.504 149.416 130.406 150.138 130.236C150.285 130.865 150.428 131.495 150.568 132.127C149.933 132.06 149.29 131.886 148.676 131.737C147.686 131.497 146.937 131.003 146.008 130.647C145.915 130.611 145.856 130.752 145.948 130.79C146.827 131.141 147.539 131.633 148.469 131.883C149.139 132.063 149.905 132.322 150.618 132.354C150.626 132.387 150.633 132.42 150.64 132.453C150.637 132.462 150.632 132.47 150.629 132.479C150.605 132.542 150.633 132.589 150.676 132.612C150.81 133.217 150.945 133.821 151.085 134.425C151.094 134.462 151.104 134.499 151.113 134.537C149.562 134.547 147.179 134.42 146.32 133.016C146.238 132.883 146.046 133.02 146.146 133.149C147.305 134.651 149.495 134.536 151.191 134.859C151.355 135.539 151.53 136.215 151.716 136.889C150.758 136.989 149.81 137.003 148.86 136.775C147.997 136.567 146.824 136.378 146.178 135.733C146.158 135.713 146.129 135.746 146.148 135.766C146.771 136.416 147.817 136.574 148.645 136.829C149.695 137.154 150.714 137.37 151.788 137.195C151.794 137.226 151.805 137.255 151.825 137.28C151.944 137.706 152.066 138.131 152.19 138.556C150.582 139.159 147.861 138.992 146.522 138.187C146.516 138.183 146.511 138.192 146.517 138.197C147.475 138.841 148.537 138.984 149.67 139.009C150.517 139.027 151.448 139.082 152.255 138.777C152.485 139.564 152.72 140.349 152.952 141.135C152.162 141.198 151.392 141.41 150.601 141.452C149.426 141.517 148.338 141.157 147.347 140.553C147.287 140.517 147.22 140.602 147.28 140.641C149.15 141.849 150.929 141.631 153.038 141.428C153.228 142.073 153.415 142.719 153.595 143.366C151.98 143.773 149.643 143.76 148.294 142.822C148.195 142.753 148.081 142.902 148.181 142.972C149.039 143.576 150.097 143.717 151.126 143.751C151.867 143.774 152.926 143.892 153.665 143.613C153.671 143.634 153.677 143.655 153.683 143.677C153.94 144.611 154.17 145.552 154.384 146.496C152.535 146.851 150.894 146.122 149.156 145.535C149.035 145.494 148.961 145.677 149.082 145.719C150.869 146.355 152.536 147.12 154.447 146.773C154.619 147.543 154.781 148.314 154.936 149.088C153.342 149.35 151.48 148.999 150.033 148.275C149.931 148.223 149.868 148.386 149.967 148.439C151.496 149.244 153.301 149.55 154.996 149.388C155.16 150.219 155.317 151.051 155.472 151.883C153.92 152.337 152.382 151.95 150.956 151.219C150.923 151.202 150.893 151.259 150.926 151.277C152.231 152.012 154.023 152.726 155.528 152.189C155.578 152.455 155.627 152.72 155.676 152.986C155.705 153.147 155.735 153.31 155.763 153.474C154.521 153.661 153.325 153.741 152.081 153.425C152.046 153.416 152.036 153.468 152.069 153.479C153.285 153.851 154.553 153.894 155.806 153.721C155.892 154.224 155.977 154.743 156.068 155.269C155.738 155.269 155.412 155.253 155.074 155.302C154.455 155.393 153.943 155.212 153.338 155.148C153.282 155.142 153.262 155.226 153.319 155.234C153.86 155.312 154.314 155.525 154.871 155.482C155.283 155.451 155.693 155.466 156.102 155.458C156.468 157.546 156.946 159.723 158.014 161.394C158.251 161.764 158.962 161.56 158.869 161.092C158.583 159.65 157.924 158.278 157.457 156.889Z" fill="#747DED"/>
<path d="M169.17 137.604C169.426 143.387 172.134 152.664 165.237 155.985C163.379 156.879 161.145 156 159.613 154.732C157.61 153.073 156.164 148.854 155.567 146.383C155.095 144.425 155.21 142.078 154.927 140.054C154.621 137.867 154.27 135.687 153.981 133.498C152.939 125.608 155.319 118.172 161.125 112.635C162.285 115.018 164.018 116.846 165.682 118.995C166.441 119.975 167.168 121.027 167.772 122.102C168.842 124.006 168.694 126.241 168.691 128.324C168.688 131.403 169.034 134.524 169.17 137.604Z" fill="url(#paint8_linear_422_12085)"/>
<path d="M164.052 156.48C163.987 156.006 163.928 155.531 163.872 155.055C164.74 154.833 165.52 154.11 166.154 153.549C167.254 152.573 168.042 151.374 168.781 150.117C168.821 150.05 168.709 149.986 168.665 150.049C167.884 151.132 167.061 152.198 166.019 153.046C165.439 153.518 164.605 154.262 163.818 154.564C163.755 153.994 163.702 153.424 163.654 152.853C164.53 152.513 165.209 151.71 165.86 151.062C166.967 149.96 167.835 148.677 168.752 147.421C168.762 147.407 168.741 147.391 168.73 147.404C167.28 149.143 165.766 151.478 163.621 152.448C163.566 151.731 163.519 151.014 163.491 150.297C163.49 150.26 163.489 150.222 163.487 150.185C165.921 148.87 167.164 146.387 168.738 144.236C168.764 144.202 168.715 144.155 168.688 144.19C167.112 146.208 165.71 148.41 163.473 149.761C163.437 148.735 163.41 147.709 163.385 146.684C165.518 145.222 167.048 143.37 168.207 141.035C168.227 140.996 168.17 140.962 168.148 141C166.894 143.201 165.277 144.691 163.374 146.245C163.349 145.23 163.322 144.216 163.283 143.202C164.174 142.445 165.167 141.87 165.941 140.974C166.704 140.091 167.341 139.107 167.693 137.99C167.712 137.932 167.624 137.903 167.603 137.96C166.764 140.185 164.929 141.275 163.263 142.754C163.224 141.811 163.17 140.866 163.098 139.923C164.937 138.206 166.983 136.528 167.625 133.968C167.631 133.942 167.594 133.929 167.586 133.954C166.827 136.35 164.81 137.809 163.059 139.451C163.045 139.283 163.034 139.115 163.019 138.947C162.938 138.076 162.848 137.205 162.756 136.334C163.859 135.532 164.854 134.542 165.777 133.544C166.432 132.835 167.142 132.117 167.453 131.185C167.472 131.127 167.385 131.093 167.363 131.151C166.632 133.082 164.362 134.666 162.715 135.956C162.621 135.077 162.526 134.198 162.433 133.319C164.175 131.554 166.421 130.254 167.12 127.691C167.141 127.615 167.028 127.578 167.003 127.654C166.209 130.034 164.061 131.249 162.388 132.908C162.331 132.364 162.275 131.819 162.222 131.274C164.236 129.896 166.35 127.383 167.014 125.079C167.05 124.953 166.864 124.89 166.819 125.014C166.069 127.078 164.153 129.6 162.182 130.84C162.098 129.956 162.02 129.071 161.957 128.185C161.966 128.158 161.971 128.13 161.971 128.101C162.894 127.556 163.703 126.603 164.43 125.854C165.306 124.952 166.109 123.957 166.488 122.741C166.53 122.607 166.314 122.547 166.277 122.683C165.735 124.694 163.692 126.466 161.923 127.628C161.903 127.304 161.88 126.981 161.864 126.657C161.838 126.171 161.816 125.686 161.794 125.2C162.449 124.452 163.39 123.935 164.04 123.154C164.606 122.476 165.058 121.717 165.497 120.953C165.54 120.877 165.429 120.805 165.381 120.88C164.768 121.839 164.124 122.773 163.278 123.544C162.805 123.976 162.222 124.3 161.774 124.755C161.738 123.961 161.702 123.168 161.659 122.375C161.668 122.371 161.676 122.365 161.685 122.361C161.695 122.361 161.705 122.36 161.715 122.36C161.773 122.357 161.811 122.326 161.835 122.287C162.846 121.742 163.437 120.604 163.962 119.629C163.974 119.606 163.941 119.585 163.927 119.607C163.343 120.503 162.675 121.5 161.733 122.06C161.728 122.06 161.725 122.059 161.72 122.059C161.693 122.062 161.667 122.064 161.64 122.066C161.603 121.421 161.559 120.777 161.506 120.133C161.58 120.1 161.631 120.016 161.593 119.942C162.068 119.414 162.465 118.793 162.831 118.19C162.858 118.145 162.793 118.102 162.762 118.145C162.365 118.711 161.956 119.197 161.465 119.658C161.344 118.332 161.177 117.01 160.92 115.696C160.897 115.575 160.714 115.619 160.734 115.74C160.936 117.015 161.067 118.296 161.163 119.579C160.37 118.948 159.504 118.311 158.914 117.509C158.884 117.468 158.815 117.505 158.843 117.551C159.162 118.061 159.591 118.469 160.02 118.886C160.404 119.259 160.751 119.718 161.197 120.023C161.244 120.713 161.28 121.404 161.31 122.095C160.557 122.162 159.859 122.193 159.129 121.819C158.235 121.363 157.599 120.596 157.282 119.647C157.243 119.53 157.056 119.578 157.097 119.694C157.407 120.573 157.978 121.329 158.763 121.844C159.589 122.386 160.405 122.419 161.323 122.379C161.356 123.178 161.384 123.977 161.408 124.777C160.651 124.549 159.911 124.188 159.198 123.865C158.05 123.345 157.253 122.571 156.206 121.922C156.102 121.857 155.997 122.016 156.101 122.082C157.088 122.713 157.84 123.475 158.913 123.995C159.685 124.368 160.558 124.861 161.417 125.065C161.418 125.107 161.42 125.149 161.421 125.192C161.415 125.202 161.407 125.21 161.401 125.22C161.357 125.291 161.38 125.355 161.427 125.394C161.451 126.16 161.474 126.926 161.505 127.691C161.507 127.739 161.511 127.787 161.512 127.835C159.625 127.488 156.757 126.781 156.038 124.876C155.969 124.694 155.704 124.817 155.795 124.997C156.857 127.091 159.546 127.458 161.533 128.245C161.575 129.109 161.631 129.972 161.701 130.833C160.514 130.734 159.357 130.531 158.256 130.033C157.254 129.581 155.872 129.078 155.236 128.146C155.216 128.116 155.174 128.15 155.193 128.179C155.799 129.113 157.035 129.547 157.981 130.049C159.182 130.687 160.372 131.185 161.719 131.221C161.718 131.26 161.725 131.298 161.744 131.332C161.79 131.878 161.839 132.424 161.892 132.969C159.798 133.33 156.529 132.497 155.087 131.208C155.08 131.202 155.072 131.212 155.078 131.219C156.093 132.223 157.351 132.643 158.723 132.935C159.748 133.154 160.867 133.437 161.918 133.253C162.016 134.262 162.119 135.271 162.22 136.28C161.245 136.173 160.261 136.253 159.289 136.122C157.845 135.929 156.607 135.239 155.541 134.275C155.477 134.217 155.375 134.306 155.439 134.367C157.433 136.269 159.646 136.414 162.257 136.655C162.339 137.484 162.415 138.312 162.485 139.141C160.428 139.261 157.589 138.705 156.166 137.252C156.062 137.145 155.889 137.3 155.993 137.408C156.897 138.341 158.151 138.758 159.393 139.037C160.288 139.237 161.549 139.625 162.512 139.457C162.514 139.484 162.517 139.512 162.519 139.538C162.615 140.733 162.676 141.93 162.719 143.128C160.388 143.131 158.562 141.865 156.586 140.748C156.448 140.67 156.316 140.875 156.453 140.955C158.479 142.142 160.327 143.458 162.731 143.478C162.762 144.454 162.78 145.429 162.789 146.406C160.792 146.355 158.609 145.498 157.018 144.281C156.905 144.195 156.791 144.379 156.9 144.466C158.572 145.799 160.695 146.588 162.793 146.784C162.8 147.832 162.798 148.88 162.794 149.928C160.803 150.12 159.022 149.293 157.458 148.075C157.422 148.046 157.372 148.108 157.408 148.138C158.825 149.333 160.838 150.617 162.792 150.311C162.79 150.646 162.789 150.98 162.787 151.314C162.786 151.516 162.783 151.721 162.78 151.928C161.227 151.867 159.754 151.688 158.315 151.015C158.274 150.996 158.249 151.058 158.288 151.078C159.679 151.812 161.211 152.157 162.774 152.237C162.763 152.869 162.746 153.519 162.735 154.181C162.334 154.104 161.94 154.009 161.518 153.991C160.745 153.957 160.164 153.619 159.443 153.401C159.377 153.381 159.333 153.479 159.4 153.502C160.04 153.721 160.543 154.086 161.23 154.163C161.738 154.221 162.232 154.333 162.731 154.419C162.692 157.041 162.769 159.799 163.681 162.077C163.884 162.582 164.796 162.499 164.791 161.909C164.781 160.097 164.299 158.276 164.052 156.48Z" fill="#747DED"/>
<path d="M172.978 158.647L172.722 163.348L172.323 170.669L171.668 182.697H155.384L154.729 170.669L154.33 163.348L154.074 158.647H172.978Z" fill="#95A8B5"/>
<path d="M172.722 163.348L172.67 164.291L172.617 165.267L172.323 170.669H154.729L154.434 165.267L154.382 164.291L154.33 163.348H172.722Z" fill="#A5B7C6"/>
<path d="M172.67 164.291L172.617 165.266H154.434L154.382 164.291H172.67Z" fill="#95A8B5"/>
<defs>
<radialGradient id="paint0_radial_422_12085" cx="0" cy="0" r="1" gradientUnits="userSpaceOnUse" gradientTransform="translate(114.194 62.7405) scale(7.11287 7.11288)">
<stop stop-color="#FFC8AF"/>
<stop offset="1" stop-color="#FFBB9C"/>
</radialGradient>
<radialGradient id="paint1_radial_422_12085" cx="0" cy="0" r="1" gradientUnits="userSpaceOnUse" gradientTransform="translate(110.076 49.8655) rotate(-12.1516) scale(11.2138 11.2138)">
<stop stop-color="#FFC8AF"/>
<stop offset="1" stop-color="#FFBB9C"/>
</radialGradient>
<radialGradient id="paint2_radial_422_12085" cx="0" cy="0" r="1" gradientUnits="userSpaceOnUse" gradientTransform="translate(99.0309 170.142) scale(4.47166 4.47166)">
<stop stop-color="#FFC8AF"/>
<stop offset="1" stop-color="#FFBB9C"/>
</radialGradient>
<radialGradient id="paint3_radial_422_12085" cx="0" cy="0" r="1" gradientUnits="userSpaceOnUse" gradientTransform="translate(70.711 171.263) scale(4.07303 4.07303)">
<stop stop-color="#FFC8AF"/>
<stop offset="1" stop-color="#FFBB9C"/>
</radialGradient>
<radialGradient id="paint4_radial_422_12085" cx="0" cy="0" r="1" gradientUnits="userSpaceOnUse" gradientTransform="translate(95.5088 94.833) scale(22.8066 22.8066)">
<stop stop-color="#FFC8AF"/>
<stop offset="1" stop-color="#FFBB9C"/>
</radialGradient>
<radialGradient id="paint5_radial_422_12085" cx="0" cy="0" r="1" gradientUnits="userSpaceOnUse" gradientTransform="translate(95.5085 94.8332) scale(22.8065 22.8065)">
<stop stop-color="#FFC8AF"/>
<stop offset="1" stop-color="#FFBB9C"/>
</radialGradient>
<linearGradient id="paint6_linear_422_12085" x1="172.722" y1="121.289" x2="172.724" y2="156.123" gradientUnits="userSpaceOnUse">
<stop stop-color="#606BF1"/>
<stop offset="1" stop-color="#58479F"/>
</linearGradient>
<linearGradient id="paint7_linear_422_12085" x1="145.092" y1="124.117" x2="159.795" y2="155.696" gradientUnits="userSpaceOnUse">
<stop stop-color="#606BF1"/>
<stop offset="1" stop-color="#58479F"/>
</linearGradient>
<linearGradient id="paint8_linear_422_12085" x1="156.607" y1="113.776" x2="167.17" y2="155.571" gradientUnits="userSpaceOnUse">
<stop stop-color="#606BF1"/>
<stop offset="1" stop-color="#58479F"/>
</linearGradient>
</defs>
</svg>
