<svg width="285" height="284" viewBox="0 0 285 284" fill="none" xmlns="http://www.w3.org/2000/svg">
<path d="M145.759 125.139H138.252L125.301 0.00439453H158.711L145.759 125.139Z" fill="url(#paint0_linear_393_1861)"/>
<path d="M138.252 155.491H145.759L158.711 280.627H125.301L138.252 155.491Z" fill="url(#paint1_linear_393_1861)"/>
<path d="M157.364 144.024V136.607L284.002 123.808V156.823L157.364 144.024Z" fill="url(#paint2_linear_393_1861)"/>
<path d="M126.647 136.607V144.024L0.00976562 156.823V123.808L126.647 136.607Z" fill="url(#paint3_linear_393_1861)"/>
<path d="M155.518 132.207L150.21 126.962L230.597 29.4282L254.222 52.7731L155.518 132.207Z" fill="url(#paint4_linear_393_1861)"/>
<path d="M128.488 148.424L133.796 153.669L53.4092 251.203L29.7841 227.858L128.488 148.424Z" fill="url(#paint5_linear_393_1861)"/>
<path d="M150.21 153.669L155.518 148.424L254.222 227.858L230.597 251.203L150.21 153.669Z" fill="url(#paint6_linear_393_1861)"/>
<path d="M133.796 126.962L128.488 132.207L29.7841 52.7731L53.4092 29.4282L133.796 126.962Z" fill="url(#paint7_linear_393_1861)"/>
<path d="M154.026 85.7265C154.026 85.7265 156.831 80.7735 160.337 82.8959C166.041 86.3499 164.221 94.1214 164.221 94.1214L162.91 90.6674C162.91 90.6674 164.658 96.1362 161.891 99.878L162.182 96.2801C162.182 96.2801 159.997 101.461 156.065 102.037C152.133 102.612 151.55 102.612 151.113 104.915C150.676 107.218 153.873 108.748 152.861 108.585C149.292 108.009 149.657 103.548 149.657 103.548L149.074 106.786C149.074 106.786 144.559 98.151 144.85 94.1214C145.142 90.0917 147.035 87.3573 147.035 87.3573L144.705 88.2208C144.705 88.2208 151.696 77.2354 154.026 85.7265Z" fill="#333333"/>
<path d="M157.472 97.7326C159.342 94.3949 162.186 90.668 155.535 87.2141C154.463 86.6574 151.929 87.088 150.922 87.046C150.22 87.0166 150.139 87.7489 149.51 87.8438C144.922 88.5341 142.326 92.0807 142.326 92.0807C142.326 92.0807 146.533 98.4389 134.021 106.51C132.56 107.453 143.001 123.61 144.029 117.628C147.524 97.2876 156.349 99.737 157.472 97.7326Z" fill="#EABFA5"/>
<path d="M146.596 89.2047C146.596 89.2047 148.635 88.6532 150.903 91.5914C151.13 91.8861 151.013 92.3115 150.653 92.414C149.673 92.6926 147.846 93.0518 146.207 92.4905C143.253 91.4774 146.596 89.2047 146.596 89.2047Z" fill="#D84744"/>
<path d="M150.655 92.4141C150.669 92.4101 150.676 92.3991 150.689 92.394C150.287 92.1067 149.78 91.9265 149.219 91.9265C148.459 91.9265 147.79 92.2489 147.365 92.7405C148.649 92.8856 149.902 92.6282 150.655 92.4141Z" fill="#822A2A"/>
<path d="M150.477 92.0587C150.477 92.0587 148.486 90.14 146.351 89.9478C146.351 89.9478 148.292 90.4993 146.253 90.5712C146.253 90.5712 145.671 90.2834 145.962 89.8039C145.962 89.7716 146.316 89.4982 146.546 89.3243C146.676 89.2259 146.835 89.1793 146.998 89.196C147.727 89.2696 149.783 89.687 150.477 92.0587Z" fill="#EEF9F9"/>
<path d="M145.255 91.9269C145.25 91.9309 145.245 91.939 145.24 91.9436C145.444 92.1474 145.757 92.3339 146.213 92.4905C146.588 92.6189 146.973 92.6948 147.356 92.7386C147.358 92.7323 147.366 92.7184 147.366 92.7184C147.366 92.7184 147.694 92.4306 147.293 92.0708C146.892 91.711 145.66 91.6195 145.255 91.9269Z" fill="#EEF9F9"/>
<path d="M146.209 92.4906C147.128 92.8061 148.104 92.8268 148.96 92.7381C148.47 92.4825 147.84 92.3225 147.144 92.3225C146.773 92.3225 146.421 92.3686 146.097 92.448C146.135 92.4624 146.169 92.4768 146.209 92.4906Z" fill="#FFABAB"/>
<path d="M142.052 98.5765C142.545 103.299 139.852 113.691 139.21 116.074C139.295 116.175 139.379 116.275 139.464 116.371L144.859 113.583C147.316 103.509 151.279 100.577 154.13 99.3191C153.045 98.8281 151.932 98.3094 150.821 97.7683C144.122 94.506 142.322 92.0813 142.322 92.0813C142.322 92.0813 144.011 94.643 142.052 98.5765Z" fill="#D8A98F"/>
<path d="M157.521 96.7603C157.521 96.7603 158.929 97.0959 157.861 98.5351C156.793 99.9742 153.492 100.022 154.317 98.1994C155.143 96.3763 157.521 96.7603 157.521 96.7603Z" fill="#EABFA5"/>
<path d="M153.151 89.66C153.151 89.66 155.919 88.3648 156.72 91.8188C156.72 91.8188 156.028 89.5161 153.151 89.66Z" fill="#822A2A"/>
<path d="M154.319 88.7966C154.319 88.7966 158.203 87.7892 157.814 91.3393C157.814 91.3393 157.196 88.6527 154.319 88.7966Z" fill="#333333"/>
<path d="M150.504 86.9975C150.504 86.9975 152.688 87.0937 152.817 88.2928C152.817 88.2928 153.15 85.7743 150.504 86.9975Z" fill="#333333"/>
<path d="M151.786 88.6631C151.786 88.6631 152.085 87.0938 149.318 88.0534C149.318 88.0534 151.089 87.7414 151.786 88.6631Z" fill="#822A2A"/>
<path d="M150.128 88.7246L149.669 88.3032C149.669 88.3032 149.873 87.7892 151.111 88.2566C152.349 88.7241 153.187 88.4368 153.187 88.4368L150.93 90.0561L150.128 88.7246Z" fill="#F7CAB2"/>
<path d="M148.963 88.9048L149.669 88.3039C149.951 88.0638 150.391 88.1933 150.493 88.5474L150.929 90.0562C150.929 90.0562 150.347 89.2646 148.963 88.9048Z" fill="#D8A98F"/>
<path d="M157.229 97.3958C157.229 97.3958 157.448 98.7273 155.554 98.7273C155.554 98.7273 156.465 98.3312 156.282 97.9714C156.1 97.6116 155.59 97.6473 155.59 97.6473C155.59 97.6473 156.537 97.5754 156.61 97.7912C156.683 98.0071 156.647 98.2949 156.647 98.2949L157.229 97.3958Z" fill="#D8A98F"/>
<path d="M154.829 96.4241C154.829 96.4241 157.742 96.0643 158.033 94.0495C158.033 94.0495 159.125 93.7375 160.097 92.8262C161 91.9788 158.543 97.5034 158.543 97.5034C158.543 97.5034 157.96 96.496 155.339 97.6474L154.829 96.4241Z" fill="#333333"/>
<path d="M159.384 29.3632C160.121 30.7834 162.209 30.4892 163.613 29.4697C165.03 28.4422 165.342 26.7975 165.115 25.4234C164.518 21.8025 160.23 20.2131 156.233 22.0679C151.125 24.4373 149.864 29.2855 149.723 33.5909C149.653 35.7059 150.581 39.5744 147.314 40.553C145.25 41.1713 144.212 39.4938 143.766 38.1427C143.467 37.2349 143.508 35.8677 144.965 35.4941C146.369 35.1337 147.372 36.726 145.616 36.6897C145.702 37.1905 145.787 37.6914 145.873 38.1922C145.975 38.1404 146.077 38.0892 146.179 38.0373C147.319 37.4594 146.3 36.1227 145.163 36.6989C145.061 36.7507 144.959 36.802 144.857 36.8538C144.133 37.2211 144.285 38.339 145.115 38.3563C146.485 38.385 148.299 38.0281 148.716 36.631C149.108 35.315 147.797 34.0716 146.444 33.8051C144.841 33.4896 143.066 34.2955 142.184 35.5764C141.094 37.16 141.756 38.9745 142.632 40.3325C143.542 41.7435 144.924 42.6455 146.999 42.3099C148.921 41.9991 150.518 40.8322 151.212 39.2497C152.039 37.3655 151.636 35.2949 151.696 33.3998C151.777 30.8272 152.103 27.9345 154.116 25.6928C155.972 23.6256 159.593 21.8186 161.99 23.724C162.798 24.3659 163.217 25.386 163.216 26.3681C163.216 26.82 163.163 27.3507 162.872 27.7738C162.735 27.9724 161.394 28.947 161.284 28.734C160.8 27.7997 158.893 28.4174 159.384 29.3632Z" fill="#E5A920"/>
<path d="M176.003 49.2374L172.702 39.5053L171.647 36.3961L168.345 26.6639C168.15 26.0888 167.425 25.8108 166.725 26.0422C166.026 26.2736 165.617 26.9282 165.812 27.5032L165.851 27.619C163.448 28.4151 161.359 29.9095 160.061 31.8397C159.206 33.1119 158.424 34.706 158.129 36.5348C157.726 39.0292 155.722 41.2685 152.906 42.2017L152.725 42.2615C150.883 42.8717 148.913 42.8556 147.247 42.2166L145.361 41.493C144.546 41.1804 143.582 41.1724 142.681 41.4711L144.059 45.5348L145.114 48.6439L146.492 52.7075C147.394 52.4088 148.158 51.8285 148.618 51.0934L149.681 49.3923C150.621 47.8904 152.183 46.7039 154.025 46.0943L154.206 46.0344C157.022 45.1019 159.987 45.6948 161.83 47.4454C163.181 48.7291 164.777 49.535 166.236 50.041C168.448 50.8084 171.028 50.7566 173.43 49.961L173.469 50.0767C173.664 50.6518 174.39 50.9299 175.089 50.6985C175.79 50.4665 176.198 49.8125 176.003 49.2374Z" fill="#E5A920"/>
<path d="M158.187 40.9576C159.15 39.9899 160.792 37.7765 161.721 36.7213C162.977 35.2936 164.822 34.0905 166.91 33.2822C167.164 33.1838 173.235 50.2275 173.495 50.1411L167.682 33.0054L167.652 32.9179C167.504 32.4832 167.952 31.9427 168.652 31.7113C169.351 31.4793 170.038 31.6439 170.185 32.0791L168.349 26.6644C168.153 26.0893 167.428 25.8113 166.728 26.0427C166.029 26.2741 165.62 26.9287 165.815 27.5037L165.854 27.6194C163.451 28.4156 161.362 29.91 160.064 31.8402C159.209 33.1124 158.427 34.7064 158.132 36.5353C157.729 39.0297 155.725 41.269 152.909 42.2022L152.728 42.262C150.886 42.8722 148.916 42.8561 147.251 42.2171L145.364 41.4935C144.549 41.1809 143.585 41.1729 142.684 41.4716L144.052 45.503C144.953 45.2042 146.634 45.0379 148.273 44.7926C148.273 44.7926 156.592 42.5591 158.187 40.9576Z" fill="#C68D1A"/>
<path d="M167.21 52.4215C166.931 50.8494 168.777 49.8408 170.52 49.8172C172.277 49.7936 173.53 50.9202 174.187 52.1516C175.919 55.3971 173.466 59.219 169.146 60.1193C163.625 61.2706 159.661 58.1528 156.922 54.8019C155.576 53.1555 153.957 49.5167 150.753 50.6813C148.73 51.417 148.925 53.3737 149.393 54.7173C149.707 55.6199 150.574 56.6866 151.965 56.1173C153.305 55.5687 153.135 53.7001 151.756 54.7754C151.519 54.3247 151.282 53.8739 151.045 53.4232C151.158 53.4036 151.27 53.3841 151.383 53.3645C152.645 53.1469 152.647 54.8209 151.389 55.0379C151.276 55.0575 151.163 55.0771 151.05 55.0966C150.249 55.2348 149.688 54.2527 150.339 53.7444C151.414 52.9057 153.08 52.1095 154.265 52.9765C155.381 53.7928 155.093 55.5658 154.176 56.5842C153.089 57.7908 151.181 58.2047 149.696 57.7073C147.86 57.0931 147.282 55.2504 147.153 53.6454C147.018 51.9777 147.571 50.4343 149.431 49.4667C151.155 48.5698 153.141 48.5502 154.66 49.3993C156.469 50.4102 157.41 52.303 158.614 53.779C160.249 55.7834 162.272 57.8973 165.246 58.4873C167.988 59.0313 171.979 58.3163 172.73 55.3684C172.983 54.3753 172.695 53.3115 172.095 52.528C171.82 52.1677 171.453 51.7756 170.963 51.611C170.734 51.5339 169.069 51.5546 169.111 51.7906C169.293 52.8257 167.395 53.4681 167.21 52.4215Z" fill="#E5A920"/>
<path d="M167.098 38.0609C167.384 38.0333 167.637 37.8859 167.82 37.6326C167.905 37.5164 168.017 37.3275 168.028 37.1358C168.034 37.0576 168.019 36.977 167.983 36.9039C167.98 36.8987 167.976 36.8912 167.97 36.8831C167.968 36.8791 167.966 36.8756 167.963 36.8722L167.962 36.8728C167.807 36.6546 166.907 35.7272 166.125 35.7094C166.109 35.5689 166.058 35.4918 166.016 35.4463C166.009 35.4376 166.001 35.4296 165.993 35.4221C165.888 35.3168 164.847 34.7491 164.107 34.9927C164.077 34.9362 164.035 34.8839 163.976 34.8418C163.956 34.8269 163.935 34.8142 163.912 34.8027C163.739 34.7146 162.694 34.6012 162.108 35.0842C162.054 35.0433 161.99 35.0134 161.92 35.0001C161.908 34.9978 161.894 34.9961 161.88 34.9955C161.873 34.995 161.866 34.9944 161.86 34.9944V34.9955C161.534 34.9961 160.666 35.3392 160.317 35.9661C160.272 35.9557 160.225 35.9517 160.177 35.9552C160.162 35.9563 160.145 35.9592 160.128 35.9632C160.103 35.9678 160.079 35.9747 160.055 35.9834L160.057 35.988C159.676 36.1515 159.04 36.886 158.935 37.5912C158.909 37.5947 158.883 37.5998 158.857 37.6085C158.838 37.6142 158.819 37.6229 158.801 37.6332C158.762 37.6511 158.726 37.6741 158.695 37.7029L158.701 37.7098C158.324 38.0794 158.011 39.2675 158.166 39.9255C158.18 39.986 158.197 40.0441 158.216 40.1005C158.382 40.5921 158.746 40.9047 159.241 40.9761C159.305 41.0187 159.385 41.0584 159.479 41.097C159.913 41.2731 160.335 41.2185 160.636 40.9467C160.95 40.6601 161.139 40.1932 161.268 39.819L161.28 39.7856C161.316 39.7079 161.33 39.6181 161.315 39.5283C161.312 39.5122 161.309 39.4966 161.305 39.4811C161.612 39.2986 161.848 39.0154 161.973 38.8623C162.036 38.7995 162.081 38.7183 162.098 38.6257C162.428 38.5756 162.717 38.4236 162.872 38.3401C162.95 38.3085 163.019 38.2549 163.069 38.1836C163.398 38.2607 163.72 38.2365 163.896 38.2216C163.985 38.2233 164.074 38.1997 164.149 38.1502C164.455 38.354 164.795 38.4668 164.984 38.5278C165.075 38.5693 165.18 38.5796 165.28 38.5543C165.534 38.8853 165.871 39.1524 166.035 39.2825L166.075 39.3147C166.179 39.4189 166.332 39.469 166.486 39.4362C166.589 39.4143 166.676 39.3591 166.738 39.2837C167.076 38.9302 167.2 38.5025 167.098 38.0609ZM163.82 46.6901C163.86 46.6642 163.896 46.6331 163.925 46.598C164.587 46.8905 165.487 46.6481 165.748 46.4541L165.749 46.4547C165.754 46.4507 165.758 46.4461 165.764 46.442C165.775 46.4322 165.785 46.423 165.793 46.415C165.841 46.362 165.874 46.2998 165.892 46.2348C166.657 46.2688 167.419 45.5584 167.503 45.3857C167.514 45.3632 167.523 45.3402 167.53 45.3166C167.552 45.2475 167.553 45.1807 167.543 45.1168C168.292 44.8676 168.763 43.8066 168.786 43.6552C168.787 43.646 168.788 43.6374 168.788 43.6288C168.797 43.5654 168.793 43.4693 168.716 43.3421C169.325 42.8545 169.48 41.5875 169.472 41.3238H169.473C169.472 41.3203 169.472 41.3169 169.472 41.3134C169.471 41.3025 169.47 41.2944 169.469 41.2881C169.453 41.2052 169.414 41.1281 169.358 41.0676C169.232 40.9254 169.033 40.8437 168.897 40.8017C168.596 40.7078 168.304 40.7401 168.057 40.8898C167.871 40.4787 167.513 40.2116 167.026 40.1287C166.93 40.1057 166.827 40.1132 166.731 40.1569C166.588 40.2226 166.497 40.3538 166.477 40.4983L166.464 40.5484C166.413 40.7493 166.306 41.1638 166.305 41.5788C166.201 41.622 166.119 41.7026 166.072 41.8016L166.069 41.7999C165.977 41.9311 165.771 42.223 165.65 42.5753C165.471 42.5874 165.313 42.706 165.257 42.8798C165.29 42.7756 165.354 42.7025 165.391 42.6778C165.265 42.7561 164.989 42.9276 164.768 43.1924C164.675 43.1619 164.576 43.1636 164.486 43.193C164.49 43.1918 164.496 43.1872 164.5 43.1867C164.35 43.2085 164.025 43.2575 163.723 43.4175C163.648 43.3484 163.555 43.3093 163.459 43.3006V43.2978C163.298 43.258 162.934 43.1688 162.569 43.2074C162.563 43.1924 162.556 43.1774 162.548 43.1636C162.505 43.0825 162.44 43.0197 162.363 42.9794L162.334 42.9598C162.002 42.7376 161.567 42.478 161.139 42.4354C160.734 42.3986 160.366 42.6064 160.126 43.0059C160.074 43.0928 160.035 43.1711 160.01 43.2436C159.658 43.5936 159.558 44.0611 159.725 44.5521C159.745 44.608 159.766 44.6638 159.792 44.7196C160.071 45.3385 161.045 46.1007 161.572 46.1709L161.571 46.1801C161.614 46.1841 161.657 46.1812 161.698 46.1726C161.719 46.1697 161.739 46.1651 161.758 46.1588C161.784 46.1502 161.808 46.1392 161.831 46.126C162.346 46.6268 163.301 46.8335 163.703 46.7373L163.704 46.7419C163.729 46.735 163.752 46.7258 163.775 46.7143C163.792 46.7063 163.807 46.6988 163.82 46.6901ZM165.239 42.9696C165.241 42.9524 165.243 42.9357 165.247 42.9195C165.243 42.9357 165.241 42.9524 165.24 42.9696H165.239ZM164.212 43.4526C164.222 43.4267 164.234 43.4025 164.247 43.3801C164.234 43.4031 164.223 43.4279 164.214 43.4538L164.212 43.4526Z" fill="#C68D1A"/>
<path d="M162.318 36.6097C162.33 36.6109 161.923 35.9955 162.281 35.5338C162.652 35.0422 163.715 35.1712 163.707 35.1971C163.12 35.5649 162.655 36.0577 162.318 36.6097Z" fill="#EFB135"/>
<path d="M163.505 36.2086C163.111 36.5189 162.322 36.5909 162.318 36.6104C162.654 36.0584 163.119 35.5656 163.706 35.1978C163.718 35.2024 163.909 35.8799 163.505 36.2086Z" fill="#FCC34F"/>
<path d="M162.355 36.71C162.346 36.7163 162.464 37.399 162.889 37.6454C163.295 37.8809 163.892 37.7663 163.905 37.7801C163.477 37.338 162.951 36.9633 162.355 36.71Z" fill="#FCC34F"/>
<path d="M163.574 36.7478C163.119 36.3719 162.338 36.6932 162.355 36.7104C162.951 36.9637 163.477 37.3385 163.905 37.7806C163.894 37.7835 164.006 37.1036 163.574 36.7478Z" fill="#EFB135"/>
<path d="M163.877 36.4433C163.888 36.4491 163.646 35.737 164.131 35.4618C164.635 35.1619 165.688 35.714 165.675 35.7364C164.969 35.8193 164.364 36.0778 163.877 36.4433Z" fill="#EFB135"/>
<path d="M165.193 36.5567C164.704 36.6701 163.888 36.4272 163.88 36.4433C164.367 36.0778 164.973 35.8187 165.677 35.7358C165.688 35.7462 165.697 36.4307 165.193 36.5567Z" fill="#FCC34F"/>
<path d="M163.882 36.5464C163.871 36.5487 163.805 37.2078 164.166 37.5952C164.511 37.9637 165.153 38.107 165.163 38.1266C164.845 37.5515 164.412 37.0058 163.882 36.5464Z" fill="#FCC34F"/>
<path d="M165.107 37.0662C164.743 36.54 163.868 36.5239 163.882 36.5469C164.412 37.0063 164.845 37.552 165.163 38.1271C165.152 38.1254 165.452 37.5635 165.107 37.0662Z" fill="#EFB135"/>
<path d="M165.506 36.9219C165.517 36.9328 165.461 36.1913 166.038 36.1533C166.638 36.0952 167.595 37.0842 167.577 37.1038C166.809 36.8372 166.108 36.801 165.506 36.9219Z" fill="#EFB135"/>
<path d="M166.843 37.6086C166.294 37.4751 165.519 36.9092 165.506 36.9224C166.108 36.8015 166.809 36.8372 167.577 37.1038C167.587 37.1187 167.41 37.7358 166.843 37.6086Z" fill="#FCC34F"/>
<path d="M165.486 37.0169C165.475 37.0146 165.225 37.5747 165.491 38.0749C165.745 38.5481 166.382 38.9799 166.389 39.0052C166.208 38.334 165.906 37.6512 165.486 37.0169Z" fill="#FCC34F"/>
<path d="M166.618 38.0266C166.376 37.3784 165.476 36.9881 165.486 37.0169C165.905 37.6513 166.207 38.334 166.388 39.0052C166.376 38.9989 166.846 38.6368 166.618 38.0266Z" fill="#EFB135"/>
<path d="M159.364 40.5479C159.37 40.537 158.766 40.571 158.596 39.8272C158.412 39.042 158.976 37.9949 158.99 38.0271C158.985 38.8986 159.12 39.7564 159.364 40.5479Z" fill="#EFB135"/>
<path d="M159.602 38.9365C159.64 39.5599 159.348 40.5201 159.362 40.5478C159.117 39.7562 158.983 38.8985 158.988 38.0275C158.997 38.0195 159.553 38.2808 159.602 38.9365Z" fill="#FCC34F"/>
<path d="M159.445 40.5801C159.446 40.5974 159.973 40.9411 160.326 40.6222C160.665 40.3125 160.853 39.5992 160.868 39.5986C160.371 39.7449 159.875 40.0586 159.445 40.5801Z" fill="#FCC34F"/>
<path d="M160.006 39.2394C159.54 39.4558 159.425 40.579 159.448 40.5801C159.877 40.0586 160.374 39.7448 160.871 39.5986C160.868 39.613 160.445 39.0252 160.006 39.2394Z" fill="#EFB135"/>
<path d="M159.931 38.7052C159.94 38.6977 159.338 38.4605 159.361 37.7674C159.379 37.0358 160.202 36.3645 160.207 36.395C159.979 37.1538 159.893 37.943 159.931 38.7052Z" fill="#EFB135"/>
<path d="M160.577 37.4428C160.454 38.0058 159.923 38.6799 159.93 38.7053C159.892 37.9431 159.978 37.1539 160.207 36.3946C160.218 36.3905 160.697 36.8516 160.577 37.4428Z" fill="#FCC34F"/>
<path d="M160.008 38.7692C160.004 38.783 160.434 39.3029 160.863 39.1941C161.274 39.0876 161.641 38.5464 161.656 38.5499C161.129 38.471 160.562 38.5292 160.008 38.7692Z" fill="#FCC34F"/>
<path d="M160.899 37.875C160.386 37.8721 159.987 38.7627 160.009 38.769C160.563 38.529 161.13 38.4708 161.656 38.5497C161.65 38.5606 161.385 37.8727 160.899 37.875Z" fill="#EFB135"/>
<path d="M160.966 37.3783C160.977 37.3754 160.446 36.9195 160.647 36.3197C160.853 35.6853 161.841 35.4061 161.839 35.4343C161.414 36.0267 161.124 36.695 160.966 37.3783Z" fill="#EFB135"/>
<path d="M161.926 36.5182C161.658 36.9776 160.962 37.3552 160.963 37.3777C161.121 36.6944 161.41 36.026 161.835 35.4331C161.848 35.4343 162.201 36.0358 161.926 36.5182Z" fill="#FCC34F"/>
<path d="M161.021 37.4653C161.014 37.4757 161.303 38.1101 161.752 38.1901C162.183 38.2667 162.687 37.9241 162.702 37.9328C162.202 37.6565 161.628 37.4843 161.021 37.4653Z" fill="#FCC34F"/>
<path d="M162.13 37.0313C161.623 36.8304 161.002 37.4538 161.022 37.4654C161.628 37.4844 162.202 37.6565 162.702 37.9328C162.694 37.9397 162.612 37.2201 162.13 37.0313Z" fill="#EFB135"/>
<path d="M165.132 44.89C165.141 44.8819 165.191 45.6153 165.759 45.7707C166.354 45.9423 167.124 45.2054 167.102 45.1905C166.409 45.2457 165.737 45.13 165.132 44.89Z" fill="#EFB135"/>
<path d="M166.324 44.503C165.821 44.4898 165.148 44.9025 165.132 44.8898C165.737 45.1299 166.409 45.2462 167.102 45.1898C167.108 45.1788 166.848 44.5243 166.324 44.503Z" fill="#FCC34F"/>
<path d="M165.096 44.7898C165.084 44.7903 164.763 44.175 164.951 43.7259C165.131 43.2959 165.678 43.0311 165.68 43.0127C165.608 43.6206 165.416 44.2331 165.096 44.7898Z" fill="#FCC34F"/>
<path d="M166.047 44.0339C165.913 44.605 165.093 44.8139 165.097 44.7898C165.418 44.2331 165.609 43.6206 165.681 43.0127C165.67 43.0167 166.174 43.4928 166.047 44.0339Z" fill="#EFB135"/>
<path d="M166.477 44.0939C166.483 44.0824 166.723 44.7956 167.278 44.726C167.863 44.665 168.367 43.5977 168.342 43.5879C167.729 43.9413 167.088 44.0956 166.477 44.0939Z" fill="#EFB135"/>
<path d="M167.455 43.221C166.996 43.4219 166.494 44.1012 166.477 44.0937C167.088 44.0954 167.729 43.9412 168.342 43.5877C168.345 43.5733 167.935 43.0212 167.455 43.221Z" fill="#FCC34F"/>
<path d="M166.419 44.0079C166.409 44.0125 165.954 43.5261 166.005 43.0022C166.055 42.5026 166.481 42.0058 166.477 41.9839C166.574 42.6321 166.562 43.3252 166.419 44.0079Z" fill="#FCC34F"/>
<path d="M167.079 42.8636C167.109 43.5003 166.421 44.0339 166.418 44.0074C166.561 43.3253 166.574 42.6322 166.477 41.9834C166.468 41.992 167.051 42.2614 167.079 42.8636Z" fill="#EFB135"/>
<path d="M167.486 42.7417C167.488 42.7267 167.896 43.3513 168.379 43.0387C168.893 42.7273 169.054 41.3681 169.028 41.3635C168.577 42.0336 168.039 42.4797 167.486 42.7417Z" fill="#EFB135"/>
<path d="M168.134 41.3981C167.777 41.8315 167.504 42.7445 167.486 42.7417C168.04 42.4797 168.577 42.0336 169.028 41.3635C169.026 41.3451 168.509 40.9583 168.134 41.3981Z" fill="#FCC34F"/>
<path d="M167.41 42.6788C167.402 42.6874 166.861 42.3892 166.768 41.832C166.681 41.3035 166.927 40.5794 166.917 40.5552C167.182 41.1976 167.358 41.9229 167.41 42.6788Z" fill="#FCC34F"/>
<path d="M167.698 41.1983C167.9 41.8597 167.42 42.7071 167.41 42.6783C167.358 41.9225 167.183 41.1971 166.917 40.5547C166.912 40.5668 167.508 40.5754 167.698 41.1983Z" fill="#EFB135"/>
<path d="M160.37 43.5066C160.381 43.5112 159.878 43.8445 160.196 44.5388C160.528 45.2756 161.617 45.7741 161.608 45.7402C161.073 45.0482 160.657 44.2837 160.37 43.5066Z" fill="#EFB135"/>
<path d="M161.544 44.6499C161.194 44.1295 160.375 43.5371 160.37 43.5066C160.658 44.2837 161.074 45.0482 161.609 45.7402C161.621 45.7419 161.906 45.2025 161.544 44.6499Z" fill="#FCC34F"/>
<path d="M160.415 43.4307C160.405 43.4163 160.616 42.828 161.093 42.8717C161.553 42.9172 162.137 43.3743 162.15 43.3662C161.663 43.5458 161.076 43.5913 160.415 43.4307Z" fill="#FCC34F"/>
<path d="M161.678 44.1682C161.174 44.273 160.398 43.4452 160.415 43.4308C161.076 43.5908 161.663 43.5459 162.149 43.3663C162.138 43.3571 162.159 44.0772 161.678 44.1682Z" fill="#EFB135"/>
<path d="M161.95 44.6389C161.961 44.6395 161.626 45.1875 162.067 45.7269C162.528 46.2997 163.594 46.3452 163.58 46.3181C162.934 45.8484 162.384 45.2698 161.95 44.6389Z" fill="#EFB135"/>
<path d="M163.238 45.2619C162.797 44.8855 161.962 44.6633 161.953 44.6396C162.387 45.2706 162.937 45.8491 163.583 46.3189C163.593 46.3148 163.695 45.662 163.238 45.2619Z" fill="#FCC34F"/>
<path d="M161.971 44.5434C161.96 44.5342 161.985 43.8636 162.394 43.6955C162.786 43.5354 163.41 43.749 163.42 43.7369C163.047 44.114 162.559 44.4053 161.971 44.5434Z" fill="#FCC34F"/>
<path d="M163.225 44.7271C162.817 45.035 161.956 44.5618 161.969 44.544C162.558 44.4053 163.046 44.114 163.418 43.7381C163.406 43.7323 163.615 44.4387 163.225 44.7271Z" fill="#EFB135"/>
<path d="M163.575 45.0857C163.586 45.0817 163.44 45.7615 163.966 46.1208C164.518 46.5041 165.476 46.1386 165.458 46.1173C164.757 45.898 164.118 45.537 163.575 45.0857Z" fill="#EFB135"/>
<path d="M164.869 45.198C164.375 44.9913 163.59 45.1042 163.576 45.0858C164.119 45.5365 164.758 45.898 165.458 46.1173C165.468 46.1099 165.382 45.4202 164.869 45.198Z" fill="#FCC34F"/>
<path d="M163.57 44.9827C163.559 44.9787 163.401 44.3006 163.711 43.969C164.009 43.6512 164.62 43.6236 164.627 43.6086C164.396 44.1267 164.043 44.6063 163.57 44.9827Z" fill="#FCC34F"/>
<path d="M164.721 44.6684C164.439 45.1307 163.563 45.0035 163.572 44.9827C164.044 44.6063 164.397 44.1267 164.628 43.6086C164.616 43.6081 164.99 44.2315 164.721 44.6684Z" fill="#EFB135"/>
<path d="M149.034 57.9801L141.488 35.7339L137.754 36.9706L145.3 59.2169L149.034 57.9801Z" fill="#846C5D"/>
<path d="M130.305 36.3619L139.74 64.1741L148.002 61.4376L138.567 33.6254L130.305 36.3619Z" fill="#846C5D"/>
<path d="M134.098 40.2583L140.39 58.8069L144.892 57.3157L138.6 38.7671L134.098 40.2583Z" fill="#FCC34F"/>
<path d="M169.354 129.716C167.281 129.275 165.858 128.149 164.9 126.951L161.118 132.211L157.623 117.628C156.582 113.514 152.03 110.255 147.635 107.99C137.792 110.887 138.117 102.044 138.301 100.31C136.392 88.9322 144.828 79.2559 152.203 70.1546L143.932 67.3523C112.531 95.6761 109.628 142.745 109.628 142.745L147.715 148.329C141.797 141.326 148.496 137.488 145.105 137.098C144.386 137.015 146.134 135.633 146.263 134.993C146.385 134.387 145.653 133.888 145.828 133.348C147.225 129.041 150.05 126.838 150.05 126.838C150.269 145.032 161.895 149.097 161.895 149.097L169.354 129.716Z" fill="#3AC1B0"/>
<path d="M140.81 112.901C140.4 112.776 139.991 112.921 139.896 113.225C139.802 113.529 140.058 113.876 140.468 114.001C140.878 114.126 141.287 113.981 141.381 113.677C141.476 113.373 141.22 113.026 140.81 112.901ZM139.015 117.706C139.109 117.402 138.853 117.055 138.443 116.93C138.033 116.806 137.624 116.951 137.53 117.255C137.435 117.559 137.691 117.906 138.101 118.031C138.511 118.155 138.92 118.01 139.015 117.706ZM138.636 122.734C138.207 122.734 137.859 122.992 137.859 123.309C137.859 123.627 138.207 123.885 138.636 123.885C139.065 123.885 139.413 123.627 139.413 123.309C139.413 122.992 139.065 122.734 138.636 122.734ZM138.07 127.369C137.771 127.487 137.657 127.901 137.815 128.295C137.974 128.689 138.345 128.913 138.644 128.796C138.942 128.678 139.057 128.264 138.898 127.87C138.74 127.476 138.369 127.252 138.07 127.369ZM134.497 131.182C134.126 130.97 133.694 131.021 133.533 131.297C133.372 131.572 133.543 131.967 133.915 132.179C134.287 132.391 134.718 132.34 134.879 132.065C135.04 131.789 134.869 131.394 134.497 131.182Z" fill="#4ADDC7"/>
<path d="M134.06 136.709L133.919 136.15C135.155 135.845 135.23 133.251 135.156 132.278L135.147 132.168L136.715 130.153L136.78 130.123C136.815 130.108 140.265 128.543 141.11 127.987C141.302 127.768 140.764 126.285 140.371 125.204C139.699 123.349 138.861 121.042 138.941 119.148C139.069 116.105 141.216 114.367 141.922 113.875L141.02 111.944L141.318 111.837C141.333 111.831 142.883 111.271 143.565 110.731C143.664 110.654 143.676 110.587 143.676 110.533C143.674 110.229 143.21 109.773 142.985 109.6L143.343 109.146C143.436 109.217 144.253 109.865 144.258 110.528C144.26 110.783 144.146 111.009 143.929 111.181C143.359 111.631 142.321 112.067 141.812 112.266L142.664 114.092L142.44 114.225C142.412 114.241 139.66 115.92 139.523 119.171C139.447 120.952 140.264 123.201 140.92 125.008C141.612 126.918 142.031 128.071 141.432 128.465C140.606 129.01 137.588 130.389 137.089 130.617L135.743 132.345C135.779 133.008 135.861 136.264 134.06 136.709Z" fill="#39AA99"/>
<path d="M165.685 129.525L158.112 143.628C150.247 133.123 150.684 123.192 150.684 123.192C147.189 140.031 161.607 148.378 161.607 148.378L167.87 131.396L165.685 129.525Z" fill="#39AA99"/>
<path d="M112.575 141.422C112.769 143.725 115.099 140.462 115.099 140.462C115.099 140.462 115.488 131.06 115.293 129.909C115.1 128.757 112.575 141.422 112.575 141.422Z" fill="#39AA99"/>
<path d="M144.616 136.817C144.384 134.755 104.807 115.997 145.49 78.3867C145.49 78.3867 136.098 81.3733 136.266 79.1541C136.558 75.3161 138.47 72.7671 138.47 72.7671C131.873 79.9249 119.097 100.451 122.721 117.58C126.751 136.624 138.499 136.912 138.499 136.912C138.499 136.912 129.469 133.938 128.11 123.384C128.11 123.384 131.994 132.595 144.616 136.817Z" fill="#39AA99"/>
<path d="M141.001 110.672C141.581 110.866 139.07 108.693 138.744 107.577C138.458 106.603 138.652 105.783 138.901 105.22C138.307 103.757 138.224 102.146 138.255 101.11C136.869 102.618 132.481 107.726 132.481 111.967C132.481 111.967 135.03 104.843 137.651 104.267C137.651 104.267 136.486 109.161 141.001 110.672Z" fill="#39AA99"/>
<path d="M148.937 123.192C144.568 129.237 138.014 124.919 138.014 124.919L145.15 133.266C145.15 133.266 147.044 127.654 149.956 125.063L152.141 119.307C152.141 119.307 149.853 121.926 148.937 123.192Z" fill="#39AA99"/>
<path d="M156.654 132.835L160.732 130.964L155.197 132.259L156.363 137.584L156.654 132.835Z" fill="#39AA99"/>
<path d="M143.33 107.721L143.694 107.002L145.66 106.138L148.1 107.038L149.666 109.341C149.666 109.341 145.26 109.449 144.059 108.873C142.856 108.297 143.33 107.721 143.33 107.721Z" fill="#39AA99"/>
<path d="M142.089 108.13L145.39 106.403L146.604 110.959L150.9 109.664L150.682 106.354L145.487 105.731L142.089 108.13Z" fill="#4ADDC7"/>
<path d="M144.491 108.081C144.491 108.081 154.103 119.235 164.954 112.758C164.954 112.758 160.511 118.587 155.341 117.508C150.171 116.428 144.855 111.463 144.054 108.729L144.491 108.081Z" fill="#DB7631"/>
<path d="M143.355 107.266C143.355 107.266 150.54 128.757 169.764 111.296C169.764 111.296 171.115 109.248 170.868 103.182C170.854 102.859 170.499 102.665 170.218 102.831L164.327 106.307C164.327 106.307 161.889 119.647 152.481 116.093C145.879 113.598 143.355 107.266 143.355 107.266Z" fill="#B64E00"/>
<path d="M141.071 107.41C141.071 107.41 142.818 106.067 143.789 106.642C144.761 107.218 145.489 108.322 145.489 108.322L144.324 109.425C144.324 109.425 142.284 109.329 141.071 107.41Z" fill="#B64E00"/>
<path d="M140.15 104.676C140.15 104.676 140.15 106.594 142.092 107.698C142.092 107.698 143.596 108.513 142.771 108.657C141.946 108.801 140.635 107.842 140.053 106.307C139.47 104.772 140.15 104.676 140.15 104.676Z" fill="#DB7631"/>
<path d="M140.975 107.793L142.771 104.531L138.887 99.8779L138.305 100.166C138.305 100.166 137.771 106.259 140.975 107.793Z" fill="#4ADDC7"/>
<path d="M143.935 67.353L152.206 70.1553L152.204 70.157C155.61 65.9535 158.823 62.6101 160.75 60.6983L164.302 60.1572L165.661 58.5983L166.656 58.6224C166.656 58.6224 167.252 58.159 167.117 57.7589C166.68 56.4637 165.787 56.93 165.442 56.2478C164.796 54.9704 164.084 53.5411 163.84 52.9619C163.462 52.0645 163.485 50.7963 162.19 50.9471C154.762 51.8106 157.82 56.7038 155.992 58.3858C150.971 61.4138 146.496 64.8983 142.497 68.6827C142.969 68.2349 143.449 67.7916 143.935 67.353Z" fill="#EABFA5"/>
<path d="M171.944 115.133H163.934L161.895 117.724C161.895 117.724 162.04 119.307 163.351 119.594C163.939 119.723 164.262 119.331 164.441 118.858C164.7 120.619 166.685 122.836 167.352 123.538L164.9 126.95C165.858 128.148 167.281 129.274 169.354 129.715L171.507 124.12C172.964 120.732 171.944 115.133 171.944 115.133Z" fill="#EABFA5"/>
<path d="M109.465 140.271C109.465 140.271 120.534 129.525 147.295 139.23L146.167 142.19C146.167 142.19 171.616 153.73 178.114 173.451L142.138 187.881L145.542 198.211C145.542 198.211 144.106 200.231 141.282 197.245C138.458 194.258 133.48 183.137 133.48 183.137L160.93 167.554C160.93 167.554 146.442 154.688 130.496 158.131C130.496 158.131 113.407 183.623 120.281 217.245C120.281 217.245 120.955 233.646 116.219 232.833C111.484 232.019 114.274 217.359 114.274 217.359C114.274 217.359 99.1943 184.862 109.465 140.271Z" fill="#333333"/>
<path d="M145.777 64.0913C145.777 64.0913 150.243 58.7187 154.515 68.3127L150.826 73.6853C150.826 73.6853 146.748 66.9691 140.728 68.8883L145.777 64.0913Z" fill="#4ADDC7"/>
<path d="M164.053 126.167C164.053 126.167 167.217 129.717 170.733 129.333L167.745 137.392C167.745 137.392 162.648 137.488 160.538 130.196L164.053 126.167Z" fill="#4ADDC7"/>
<path opacity="0.2" d="M131.322 246.386C129.346 241.482 127.738 236.437 126.323 231.345C124.917 226.249 123.794 221.078 122.872 215.873L122.261 211.956L121.786 208.02C121.609 206.71 121.513 205.391 121.415 204.074C121.328 202.755 121.176 201.441 121.164 200.118C120.921 194.836 121.159 189.542 121.785 184.302L121.543 188.252C121.511 188.91 121.436 189.565 121.44 190.224L121.434 192.201L121.416 194.176C121.41 194.834 121.394 195.492 121.437 196.15L121.61 200.096C121.973 205.347 122.505 210.593 123.446 215.779C124.316 220.974 125.444 226.126 126.753 231.233C127.413 233.787 128.114 236.329 128.882 238.854C129.62 241.386 130.448 243.893 131.322 246.386Z" fill="#333333"/>
<path opacity="0.2" d="M132.982 236.114C132.041 234.11 131.246 232.043 130.511 229.957C129.773 227.872 129.153 225.747 128.559 223.616C128.006 221.475 127.505 219.319 127.12 217.141C126.717 214.967 126.46 212.767 126.3 210.567C126.521 211.651 126.657 212.744 126.9 213.82L127.208 215.443L127.56 217.056C128.033 219.205 128.527 221.351 129.122 223.47C129.666 225.603 130.291 227.715 130.935 229.821C131.255 230.875 131.588 231.926 131.934 232.973C132.265 234.026 132.626 235.067 132.982 236.114Z" fill="#333333"/>
<path opacity="0.3" d="M142.002 283.994C208.504 283.994 262.414 276.707 262.414 267.718C262.414 258.729 208.504 251.442 142.002 251.442C75.5001 251.442 21.5897 258.729 21.5897 267.718C21.5897 276.707 75.5001 283.994 142.002 283.994Z" fill="url(#paint8_radial_393_1861)"/>
<g opacity="0.3">
<path d="M179.466 165.083C180.675 166.984 181.805 168.924 182.926 170.87C184.033 172.823 185.116 174.787 186.176 176.764L186.453 177.28L185.905 177.523C184.355 178.213 182.812 178.917 181.251 179.58C179.697 180.259 178.132 180.914 176.564 181.563C173.422 182.845 170.267 184.1 167.042 185.201C170.03 183.574 173.087 182.102 176.156 180.656C177.694 179.94 179.234 179.231 180.786 178.546C182.33 177.846 183.893 177.186 185.449 176.511L185.178 177.27C184.168 175.269 183.18 173.255 182.217 171.23C181.267 169.198 180.327 167.16 179.466 165.083Z" fill="#333333"/>
</g>
<path d="M89.5986 23.2289C88.2196 21.8715 87.1558 20.7041 87.0982 18.6887C87.0486 16.9461 87.492 15.2209 87.524 13.4777C87.5444 12.3661 85.7967 12.3661 85.7763 13.4777C85.7349 15.7315 84.9927 18.075 85.5334 20.3132C85.9487 22.0315 87.1331 23.2398 88.3629 24.4505C89.1605 25.2357 90.3967 24.0147 89.5986 23.2289Z" fill="#3AC1B0"/>
<path d="M94.7417 53.5445C94.511 54.1339 93.671 54.606 93.1705 54.9376C92.5489 55.3498 91.8994 55.7153 91.2597 56.0987C90.2996 56.6744 91.1764 58.1682 92.1417 57.5897C93.6587 56.6801 95.7467 55.7418 96.4271 54.0033C96.8332 52.9665 95.1437 52.5169 94.7417 53.5445Z" fill="#3AC1B0"/>
<path d="M61.3988 46.0638C60.7405 46.8893 60.2604 47.9324 60.8074 48.9433C61.3964 50.0313 62.2761 49.8937 63.2508 49.9628C63.1546 50.8568 62.4899 51.7992 62.395 52.6632C62.3006 53.5169 62.5225 54.1479 63.1162 54.7684C63.8904 55.5778 65.1249 54.3551 64.3518 53.5474C63.697 52.863 64.6 51.5113 64.8074 50.8148C64.9973 50.1775 65.0567 49.6283 64.9239 48.979C64.8674 48.7032 64.5907 48.4344 64.3134 48.3757C63.5188 48.2087 62.0716 48.5662 62.6507 47.2969C62.9851 46.5641 64.6519 45.1997 65.4459 45.9418C66.2633 46.7051 67.5012 45.4859 66.6815 44.7208C64.9099 43.0652 62.6705 44.4692 61.3988 46.0638Z" fill="#3AC1B0"/>
<path d="M199.843 24.9421C199.967 24.9801 200.091 25.0181 200.215 25.0561C200.394 25.1108 200.581 25.0941 200.749 25.0284C200.79 25.0492 200.828 25.0682 200.838 25.0745C200.925 25.1332 200.936 25.1407 200.872 25.0981C200.915 25.1355 200.955 25.1752 200.995 25.2173C201.323 25.5523 201.9 25.5437 202.23 25.2173C202.569 24.8822 202.559 24.3319 202.23 23.9963C201.636 23.3907 200.687 22.9992 199.842 23.2761C199.026 23.5444 199 24.6836 199.843 24.9421Z" fill="#3AC1B0"/>
<path d="M202.492 47.5991C201.41 48.0061 199.814 48.7959 198.398 49.044C199.494 47.9226 201.133 46.8179 202.232 46.5468C203.322 46.278 202.86 44.612 201.768 44.8814C200.37 45.2257 199.393 46.1721 198.268 47.0039C197.296 47.7223 196.468 48.3417 195.917 49.4407C195.673 49.9265 195.862 50.5632 196.439 50.7089C197.842 51.0635 199.394 50.6334 200.849 50.09C200.351 50.6087 199.802 51.1124 199.547 51.5534C198.974 52.5435 198.36 53.7593 198.407 54.9244C198.451 56.032 200.199 56.0378 200.154 54.9244C200.044 52.144 203.644 50.9811 203.597 48.431C203.589 47.9169 203.04 47.393 202.492 47.5991Z" fill="#3AC1B0"/>
<path d="M215.693 79.8707V75.6493C215.693 74.5383 213.945 74.536 213.945 75.6493V79.8707C213.945 80.9817 215.693 80.984 215.693 79.8707Z" fill="#3AC1B0"/>
<path d="M221.418 93.9745C220.877 93.9906 220.371 94.1892 220.023 94.6112C219.725 94.9721 219.665 95.4793 220.023 95.8321C220.33 96.1361 220.959 96.1954 221.259 95.8321C221.292 95.7884 221.329 95.7469 221.369 95.7084C221.37 95.7078 221.37 95.7072 221.372 95.7067C221.376 95.7055 221.379 95.7043 221.384 95.7026C221.395 95.702 221.403 95.702 221.417 95.7015C221.874 95.6877 222.312 95.314 222.291 94.838C222.271 94.382 221.907 93.9601 221.418 93.9745Z" fill="#3AC1B0"/>
<path d="M58.5668 106.717C58.3845 106.328 58.0769 106 57.5928 105.778C57.0999 105.553 56.5861 105.538 56.0624 105.438C55.3767 105.308 54.7323 105.119 54.0274 105.104C52.9025 105.08 52.9025 106.807 54.0274 106.831C54.7288 106.846 55.3982 107.078 56.0892 107.182C56.5605 107.253 57.1401 107.228 57.0475 107.839C56.9356 108.575 57.8916 109.437 58.508 108.679C58.7032 108.439 58.8873 108.198 59.0545 107.938C59.4028 107.395 59.0457 106.879 58.5668 106.717Z" fill="#3AC1B0"/>
<path d="M89.142 86.552L88.3655 87.3193C88.0317 87.6492 88.0317 88.2104 88.3655 88.5403C88.7005 88.8713 89.2667 88.8713 89.6011 88.5403C89.8598 88.2841 90.119 88.0285 90.3777 87.7729C90.7115 87.4431 90.7115 86.8818 90.3777 86.552C90.0427 86.221 89.4764 86.221 89.142 86.552Z" fill="#3AC1B0"/>
<path d="M244.488 21.472C242.59 22.1766 240.387 23.3596 239.757 25.4372C239.143 27.4658 241.287 28.5239 242.935 28.894C244.03 29.1398 244.497 27.475 243.4 27.2286C242.888 27.1135 242.325 26.9909 241.886 26.6933C241.23 26.2483 241.411 25.824 241.824 25.2317C242.564 24.1736 243.768 23.5766 244.953 23.1374C245.996 22.75 245.544 21.08 244.488 21.472Z" fill="#3AC1B0"/>
<path d="M249.044 42.2829C248.656 42.059 248.06 42.1741 247.848 42.5926C247.719 42.8488 247.59 43.1044 247.46 43.36C247.249 43.7767 247.347 44.2954 247.773 44.5412C248.16 44.7652 248.757 44.65 248.969 44.2315C249.098 43.9753 249.228 43.7198 249.357 43.4642C249.568 43.0474 249.47 42.5287 249.044 42.2829Z" fill="#3AC1B0"/>
<path d="M241.617 93.9746C240.493 93.9746 240.491 95.7016 241.617 95.7016C242.742 95.7016 242.744 93.9746 241.617 93.9746Z" fill="#3AC1B0"/>
<path d="M233.005 129.916C232.876 130.635 232.837 131.367 232.733 132.089C232.643 132.718 232.58 133.688 232.065 134.14C231.223 134.88 232.462 136.098 233.301 135.361C234.626 134.198 234.408 131.943 234.691 130.375C234.887 129.288 233.202 128.822 233.005 129.916Z" fill="#3AC1B0"/>
<path d="M199.214 121.145C199.222 121.15 199.231 121.152 199.239 121.157C199.234 121.152 199.228 121.146 199.222 121.141C199.22 121.141 199.218 121.143 199.216 121.144C199.216 121.144 199.215 121.144 199.214 121.145Z" fill="#3AC1B0"/>
<path d="M200.182 121.45C199.915 121.377 199.645 121.278 199.376 121.219C199.326 121.208 199.283 121.182 199.241 121.157C199.378 121.291 198.835 121.281 199.215 121.145C199.166 121.113 199.117 121.079 199.063 121.057C199.142 121.089 199.191 121.117 199.223 121.141C199.465 121.051 199.758 120.722 199.995 120.586C200.285 120.421 200.585 120.275 200.893 120.145C201.924 119.711 201.035 118.223 200.011 118.654C198.838 119.149 196.63 120.402 197.584 121.96C197.982 122.61 198.762 122.854 199.459 123.047C200.096 123.225 200.846 123.219 200.743 124.005C200.6 125.104 202.349 125.094 202.491 124.005C202.69 122.474 201.48 121.803 200.182 121.45Z" fill="#3AC1B0"/>
<path d="M77.4906 149.491C77.0187 149.92 75.9701 149.635 75.3899 149.622C74.2649 149.597 74.2649 151.324 75.3899 151.349C76.5766 151.375 77.7708 151.58 78.7263 150.712C79.5558 149.958 78.3179 148.74 77.4906 149.491Z" fill="#3AC1B0"/>
<path d="M118.658 74.8164C118.195 74.9103 117.929 75.4502 118.047 75.8785C118.172 76.3241 118.602 76.5371 119.038 76.4847C119.047 76.4887 119.051 76.4899 119.066 76.4974C119.05 76.4893 119.046 76.487 119.041 76.4847H119.043C119.061 76.4928 119.094 76.5089 119.11 76.5169C119.264 76.5929 119.36 76.6666 119.475 76.7622C119.727 76.9723 119.958 77.2054 120.214 77.4109C120.58 77.7051 121.092 77.7644 121.45 77.4109C121.757 77.107 121.818 76.4853 121.45 76.19C120.617 75.5205 119.857 74.5729 118.658 74.8164Z" fill="#3AC1B0"/>
<path d="M128.992 12.5262C128.927 12.1399 128.506 11.9143 128.15 11.8924C127.341 11.8429 126.459 12.266 125.824 12.7323C125.446 13.0097 125.254 13.4801 125.511 13.9135C125.729 14.282 126.325 14.503 126.706 14.2232C126.95 14.0442 127.218 13.8813 127.497 13.7627C127.539 13.7454 127.568 13.7397 127.606 13.7259C127.832 13.9176 128.167 14.0005 128.439 13.9268C128.933 13.7926 129.128 13.3264 129.05 12.8647C129.031 12.7518 129.011 12.639 128.992 12.5262Z" fill="#3AC1B0"/>
<path d="M31.1124 21.8248C30.0177 21.7874 29.0157 22.2376 27.9117 22.2243C26.6656 22.2094 25.4416 22.3049 24.3079 21.7103C23.4614 21.2659 22.4932 22.3746 23.2488 23.0665C23.3339 23.1442 23.4183 23.222 23.5034 23.2991C23.7154 23.4931 23.9549 23.5553 24.1798 23.5294C25.0647 23.8465 25.9502 23.9237 26.9499 23.9341C27.6735 23.9415 28.4063 24.0008 29.1258 23.903C29.8057 23.8097 30.4156 23.5282 31.1124 23.5518C32.2373 23.5904 32.2356 21.8634 31.1124 21.8248Z" fill="#3AC1B0"/>
<path d="M27.5681 78.7412C26.1851 79.6709 24.3564 80.3122 23.6713 81.9436C23.489 82.3777 23.8688 82.8888 24.2818 83.0057C24.7823 83.1479 25.1767 82.8313 25.3567 82.4024C25.5682 81.8987 26.3179 81.5182 26.756 81.2476C27.3159 80.9017 27.9043 80.5994 28.4507 80.2322C29.3753 79.611 28.502 78.1143 27.5681 78.7412Z" fill="#3AC1B0"/>
<path d="M37.9478 140.826C36.7996 140.672 35.8069 139.886 34.6085 140.027C34.1361 140.083 33.7399 140.384 33.7347 140.891C33.73 141.315 34.1401 141.81 34.6085 141.754C35.6071 141.636 36.5083 142.36 37.4835 142.491C37.9548 142.555 38.4156 142.379 38.5584 141.888C38.6749 141.486 38.4151 140.889 37.9478 140.826Z" fill="#3AC1B0"/>
<path d="M217.145 164.589C215.869 164.759 215.204 165.721 214.368 166.583C213.56 167.417 212.915 168.216 212.516 169.262C211.581 169.567 212.05 171.085 213.106 170.891C213.211 170.872 213.316 170.853 213.422 170.833C213.714 170.78 213.955 170.501 214.032 170.23C214.294 169.302 214.768 168.652 215.441 167.967C215.839 167.562 216.549 166.395 217.146 166.316C218.244 166.171 218.258 164.442 217.145 164.589Z" fill="#3AC1B0"/>
<path d="M221.469 193.107C220.951 192.851 220.434 192.595 219.916 192.339C219.494 192.131 218.969 192.228 218.72 192.649C218.494 193.032 218.61 193.621 219.034 193.83C219.552 194.086 220.069 194.342 220.587 194.598C221.009 194.806 221.534 194.709 221.783 194.288C222.009 193.905 221.893 193.316 221.469 193.107Z" fill="#3AC1B0"/>
<path d="M243.193 159.644C242.473 160.844 241.514 161.859 240.611 162.923C239.892 163.769 241.123 164.997 241.846 164.144C242.844 162.969 243.907 161.84 244.702 160.515C245.277 159.558 243.766 158.688 243.193 159.644Z" fill="#3AC1B0"/>
<path d="M262.75 85.0166C261.832 85.9164 262.096 87.1685 262.106 88.3135C262.114 89.4245 263.862 89.4268 263.853 88.3135C263.849 87.7591 263.543 86.6717 263.986 86.2376C264.785 85.4541 263.549 84.2326 262.75 85.0166Z" fill="#3AC1B0"/>
<path d="M36.5475 189.535H33.0521C31.9277 189.535 31.9259 191.262 33.0521 191.262H36.5475C37.6719 191.262 37.6742 189.535 36.5475 189.535Z" fill="#3AC1B0"/>
<path d="M62.4769 186.944C62.4903 189.916 63.0566 193.036 61.4312 195.719C60.8521 196.675 62.3627 197.545 62.9401 196.591C64.7495 193.605 64.2398 190.265 64.2246 186.944C64.2194 185.833 62.4717 185.831 62.4769 186.944Z" fill="#3AC1B0"/>
<path d="M59.8521 216.015C58.7277 216.015 58.7254 217.742 59.8521 217.742C60.9765 217.742 60.9782 216.015 59.8521 216.015Z" fill="#3AC1B0"/>
<defs>
<linearGradient id="paint0_linear_393_1861" x1="142.006" y1="152.296" x2="142.006" y2="24.9415" gradientUnits="userSpaceOnUse">
<stop stop-color="white"/>
<stop offset="0.9952" stop-color="#3AC1B0" stop-opacity="0"/>
</linearGradient>
<linearGradient id="paint1_linear_393_1861" x1="142.006" y1="128.335" x2="142.006" y2="255.69" gradientUnits="userSpaceOnUse">
<stop stop-color="white"/>
<stop offset="0.9952" stop-color="#3AC1B0" stop-opacity="0"/>
</linearGradient>
<linearGradient id="paint2_linear_393_1861" x1="129.881" y1="140.315" x2="258.765" y2="140.315" gradientUnits="userSpaceOnUse">
<stop stop-color="white"/>
<stop offset="0.9952" stop-color="#3AC1B0" stop-opacity="0"/>
</linearGradient>
<linearGradient id="paint3_linear_393_1861" x1="154.13" y1="140.315" x2="25.2463" y2="140.315" gradientUnits="userSpaceOnUse">
<stop stop-color="white"/>
<stop offset="0.9952" stop-color="#3AC1B0" stop-opacity="0"/>
</linearGradient>
<linearGradient id="paint4_linear_393_1861" x1="133.43" y1="148.787" x2="223.477" y2="57.6591" gradientUnits="userSpaceOnUse">
<stop stop-color="white"/>
<stop offset="0.9952" stop-color="#3AC1B0" stop-opacity="0"/>
</linearGradient>
<linearGradient id="paint5_linear_393_1861" x1="150.576" y1="131.844" x2="60.5288" y2="222.972" gradientUnits="userSpaceOnUse">
<stop stop-color="white"/>
<stop offset="0.9952" stop-color="#3AC1B0" stop-opacity="0"/>
</linearGradient>
<linearGradient id="paint6_linear_393_1861" x1="133.43" y1="131.844" x2="223.477" y2="222.972" gradientUnits="userSpaceOnUse">
<stop stop-color="white"/>
<stop offset="0.9952" stop-color="#3AC1B0" stop-opacity="0"/>
</linearGradient>
<linearGradient id="paint7_linear_393_1861" x1="150.576" y1="148.787" x2="60.5288" y2="57.6591" gradientUnits="userSpaceOnUse">
<stop stop-color="white"/>
<stop offset="0.9952" stop-color="#3AC1B0" stop-opacity="0"/>
</linearGradient>
<radialGradient id="paint8_radial_393_1861" cx="0" cy="0" r="1" gradientUnits="userSpaceOnUse" gradientTransform="translate(142.002 267.718) rotate(90) scale(16.2761 120.412)">
<stop stop-color="#9C9C9C"/>
<stop offset="1" stop-color="white" stop-opacity="0"/>
</radialGradient>
</defs>
</svg>
