<svg width="239" height="170" viewBox="0 0 239 170" fill="none" xmlns="http://www.w3.org/2000/svg">
<path d="M51.9649 17.0286H0.0917969V51.9245H51.9649V17.0286Z" fill="white"/>
<path d="M51.966 51.9244C51.966 51.9244 51.9606 51.7061 51.9579 51.2896C51.9562 50.8704 51.9531 50.2538 51.9497 49.4486C51.9453 47.8333 51.9388 45.4642 51.931 42.4305C51.9218 36.3679 51.9081 27.6531 51.8918 17.0285L51.966 17.1031C37.6722 17.1082 19.6403 17.1147 0.0970723 17.1219H0.0929853L0.18597 17.0285C0.183245 29.4603 0.180521 41.282 0.178136 51.9244L0.0929853 51.8389C15.3633 51.856 28.3202 51.8707 37.4641 51.881C42.0398 51.8909 45.6601 51.8988 48.1411 51.9039C49.3798 51.9084 50.3332 51.9118 50.981 51.9142C51.3019 51.9162 51.5461 51.9179 51.7143 51.9193C51.8795 51.921 51.966 51.9244 51.966 51.9244C51.966 51.9244 51.8863 51.9279 51.7242 51.9296C51.5583 51.9306 51.3172 51.9323 51.0004 51.9347C50.3563 51.9371 49.4088 51.9405 48.1775 51.945C45.7013 51.9505 42.0871 51.958 37.52 51.9679C28.3625 51.9782 15.3861 51.9929 0.0929853 52.01H0.00783415V51.9244C0.00544992 41.282 0.00272484 29.4603 0 17.0285V16.9351H0.0929853H0.0970723C19.6403 16.9422 37.6722 16.9487 51.966 16.9539H52.0403V17.0285C52.0239 27.6723 52.0107 36.4028 52.0011 42.4767C51.993 45.5032 51.9865 47.8668 51.9821 49.478C51.9783 50.2774 51.9756 50.8889 51.9739 51.305C51.9712 51.7167 51.966 51.9244 51.966 51.9244Z" fill="#E0E0E0"/>
<path d="M0.090332 20.1425C0.090332 20.0908 11.6937 20.0491 26.0042 20.0491C40.3195 20.0491 51.9205 20.0908 51.9205 20.1425C51.9205 20.1942 40.3195 20.2359 26.0042 20.2359C11.6937 20.2356 0.090332 20.1938 0.090332 20.1425Z" fill="#E0E0E0"/>
<g opacity="0.3">
<path d="M2.13791 18.5715C2.13791 18.8022 1.95194 18.9894 1.72203 18.9894C1.49246 18.9894 1.30615 18.8025 1.30615 18.5715C1.30615 18.3409 1.49246 18.1541 1.72203 18.1541C1.95194 18.1537 2.13791 18.3409 2.13791 18.5715Z" fill="#E0E0E0"/>
</g>
<g opacity="0.3">
<path d="M3.56369 18.5715C3.56369 18.8022 3.37738 18.9894 3.14781 18.9894C2.91825 18.9894 2.73193 18.8025 2.73193 18.5715C2.73193 18.3409 2.91825 18.1541 3.14781 18.1541C3.37738 18.1541 3.56369 18.3409 3.56369 18.5715Z" fill="#E0E0E0"/>
</g>
<g opacity="0.3">
<path d="M4.96667 18.5715C4.96667 18.8022 4.78036 18.9894 4.55113 18.9894C4.32156 18.9894 4.13525 18.8025 4.13525 18.5715C4.13525 18.3409 4.32156 18.1541 4.55113 18.1541C4.7807 18.1537 4.96667 18.3409 4.96667 18.5715Z" fill="#E0E0E0"/>
</g>
<path d="M18.3898 23.7817H4.55273V37.6841H18.3898V23.7817Z" fill="#E0E0E0"/>
<path d="M44.8546 27.7113C44.8546 27.763 39.4581 27.8048 32.8023 27.8048C26.1445 27.8048 20.749 27.763 20.749 27.7113C20.749 27.6597 26.1445 27.6179 32.8023 27.6179C39.4578 27.6176 44.8546 27.6597 44.8546 27.7113Z" fill="#E0E0E0"/>
<path d="M44.8546 30.2946C44.8546 30.3463 39.4581 30.388 32.8023 30.388C26.1445 30.388 20.749 30.3463 20.749 30.2946C20.749 30.2429 26.1445 30.2012 32.8023 30.2012C39.4578 30.2012 44.8546 30.2429 44.8546 30.2946Z" fill="#E0E0E0"/>
<path d="M44.8546 32.8781C44.8546 32.9298 39.4581 32.9715 32.8023 32.9715C26.1445 32.9715 20.749 32.9298 20.749 32.8781C20.749 32.8264 26.1445 32.7847 32.8023 32.7847C39.4578 32.7847 44.8546 32.8264 44.8546 32.8781Z" fill="#E0E0E0"/>
<path d="M34.9958 35.4616C34.9958 35.4746 34.7966 35.4869 34.4359 35.4979C34.0421 35.5054 33.5285 35.5153 32.9093 35.5276C31.6201 35.5444 29.8394 35.555 27.8728 35.555C25.9054 35.555 24.1244 35.5444 22.8352 35.5276C22.216 35.5157 21.7024 35.5057 21.3086 35.4979C20.9483 35.4866 20.749 35.4743 20.749 35.4616C20.749 35.4486 20.9483 35.4366 21.3086 35.4253C21.7024 35.4178 22.216 35.4079 22.8352 35.3955C24.1244 35.3788 25.9051 35.3682 27.8728 35.3682C29.8394 35.3682 31.6204 35.3784 32.9093 35.3955C33.5285 35.4075 34.0421 35.4174 34.4359 35.4253C34.7962 35.4363 34.9958 35.4486 34.9958 35.4616Z" fill="#E0E0E0"/>
<path d="M11.9218 42.3713H5.41895V48.9048H11.9218V42.3713Z" fill="#E0E0E0"/>
<path d="M23.7147 42.3713H17.2119V48.9048H23.7147V42.3713Z" fill="#E0E0E0"/>
<path d="M35.5072 42.3713H29.0044V48.9048H35.5072V42.3713Z" fill="#E0E0E0"/>
<path d="M47.3007 42.3713H40.7979V48.9048H47.3007V42.3713Z" fill="#E0E0E0"/>
<path d="M104.304 0.0712891H59.6201V18.3067H104.304V0.0712891Z" fill="white"/>
<path d="M104.304 18.3066C104.304 18.3066 104.301 18.1947 104.299 17.9808C104.298 17.7649 104.296 17.4487 104.294 17.0346C104.291 16.2027 104.287 14.9803 104.281 13.4054C104.275 10.2581 104.266 5.70535 104.254 0.070838L104.304 0.120801C92.9372 0.126276 77.1144 0.133805 59.6237 0.142018H59.6206L59.6915 0.070838C59.6905 6.4565 59.6895 12.6208 59.6884 18.3063L59.6206 18.2381C72.5681 18.2512 83.7297 18.2624 91.6579 18.2703C95.6253 18.2785 98.7827 18.2847 100.952 18.2891C102.035 18.2929 102.871 18.296 103.439 18.2977C103.721 18.2994 103.935 18.3008 104.083 18.3018C104.228 18.3039 104.304 18.3066 104.304 18.3066C104.304 18.3066 104.234 18.3093 104.091 18.3107C103.946 18.3117 103.733 18.3131 103.455 18.3148C102.89 18.3169 102.059 18.3196 100.982 18.3234C98.8167 18.3278 95.6648 18.3343 91.7039 18.3422C83.7641 18.3501 72.5864 18.3613 59.6206 18.3743H59.5529V18.3066C59.5518 12.6211 59.5508 6.45718 59.5498 0.07118V0H59.6206H59.6237C77.1148 0.00821307 92.9376 0.0157418 104.304 0.0212172H104.354V0.07118C104.343 5.71835 104.334 10.2814 104.327 13.4359C104.322 15.0056 104.318 16.2242 104.315 17.0538C104.312 17.4637 104.311 17.7768 104.309 17.9907C104.308 18.2012 104.304 18.3066 104.304 18.3066Z" fill="#E0E0E0"/>
<path d="M59.665 2.53041C59.665 2.49105 69.6529 2.45923 81.9702 2.45923C94.2923 2.45923 104.278 2.49105 104.278 2.53041C104.278 2.56976 94.2923 2.60159 81.9702 2.60159C69.6529 2.60159 59.665 2.56976 59.665 2.53041Z" fill="#E0E0E0"/>
<g opacity="0.3">
<path d="M61.5352 1.43052C61.5352 1.61052 61.3901 1.75631 61.211 1.75631C61.0318 1.75631 60.8867 1.61052 60.8867 1.43052C60.8867 1.25052 61.0318 1.10474 61.211 1.10474C61.3901 1.10474 61.5352 1.25052 61.5352 1.43052Z" fill="#EBEBEB"/>
</g>
<g opacity="0.3">
<path d="M62.6466 1.43052C62.6466 1.61052 62.5015 1.75631 62.3223 1.75631C62.1431 1.75631 61.998 1.61052 61.998 1.43052C61.998 1.25052 62.1431 1.10474 62.3223 1.10474C62.5015 1.10474 62.6466 1.25052 62.6466 1.43052Z" fill="#EBEBEB"/>
</g>
<g opacity="0.3">
<path d="M63.418 1.75631C63.5971 1.75631 63.7423 1.61045 63.7423 1.43052C63.7423 1.2506 63.5971 1.10474 63.418 1.10474C63.2389 1.10474 63.0938 1.2506 63.0938 1.43052C63.0938 1.61045 63.2389 1.75631 63.418 1.75631Z" fill="#EBEBEB"/>
</g>
<path d="M74.2097 5.49414H63.417V16.3378H74.2097V5.49414Z" fill="#E0E0E0"/>
<path d="M101.213 8.40028C101.213 8.43964 95.6593 8.47146 88.8098 8.47146C81.9578 8.47146 76.4053 8.43964 76.4053 8.40028C76.4053 8.36093 81.9582 8.3291 88.8098 8.3291C95.6593 8.3291 101.213 8.36093 101.213 8.40028Z" fill="#E0E0E0"/>
<path d="M101.213 10.6093C101.213 10.6486 95.6593 10.6804 88.8098 10.6804C81.9578 10.6804 76.4053 10.6486 76.4053 10.6093C76.4053 10.5699 81.9582 10.5381 88.8098 10.5381C95.6593 10.5381 101.213 10.5699 101.213 10.6093Z" fill="#E0E0E0"/>
<path d="M92.3749 12.8183C92.3749 12.823 92.319 12.8278 92.2127 12.8326C92.0911 12.836 91.9368 12.8405 91.7475 12.846C91.3244 12.8514 90.7447 12.8593 90.0363 12.8686C88.5744 12.874 86.5866 12.8812 84.3904 12.8894C82.1935 12.8812 80.2054 12.874 78.7439 12.8686C78.0354 12.8593 77.4557 12.8514 77.0327 12.846C76.8433 12.8405 76.689 12.836 76.5674 12.8326C76.4611 12.8282 76.4053 12.823 76.4053 12.8183C76.4053 12.8135 76.4611 12.8087 76.5674 12.8039C76.689 12.8005 76.8433 12.796 77.0327 12.7905C77.4557 12.7851 78.0354 12.7772 78.7439 12.7679C80.2057 12.7625 82.1935 12.7553 84.3904 12.7471C86.5866 12.7553 88.5744 12.7625 90.0363 12.7679C90.7447 12.7772 91.3248 12.7851 91.7475 12.7905C91.9368 12.796 92.0911 12.8005 92.2127 12.8039C92.319 12.8087 92.3749 12.8135 92.3749 12.8183Z" fill="#E0E0E0"/>
<path d="M224.865 24.4076C224.856 24.3991 224.947 24.2967 225.118 24.1188C225.317 23.9179 225.562 23.6702 225.852 23.3776C226.477 22.7571 227.349 21.9085 228.319 20.9787L228.341 20.9574L228.342 21.0827C227.364 20.1704 226.487 19.3384 225.858 18.7307C225.567 18.4439 225.32 18.2013 225.119 18.0042C224.948 17.83 224.856 17.7294 224.864 17.7208C224.872 17.7123 224.979 17.7961 225.164 17.9552C225.374 18.1414 225.633 18.3707 225.94 18.6417C226.589 19.2269 227.48 20.0444 228.458 20.9568L228.524 21.019L228.459 21.0824L228.437 21.1036C227.466 22.033 226.582 22.868 225.935 23.4659C225.63 23.743 225.372 23.9775 225.163 24.1677C224.979 24.3303 224.873 24.4162 224.865 24.4076Z" fill="#E0E0E0"/>
<path d="M217.322 17.7208C217.33 17.7294 217.239 17.8317 217.068 18.0096C216.87 18.2105 216.624 18.4583 216.334 18.7509C215.709 19.3713 214.837 20.22 213.867 21.1498L213.845 21.171L213.844 21.0457C214.822 21.9581 215.699 22.7896 216.328 23.3977C216.62 23.6845 216.867 23.9271 217.067 24.1243C217.238 24.2984 217.33 24.3991 217.322 24.4076C217.314 24.4162 217.207 24.3323 217.022 24.1732C216.812 23.987 216.553 23.7577 216.247 23.4867C215.597 22.9015 214.707 22.084 213.729 21.172L213.662 21.1097L213.728 21.0464L213.75 21.0252C214.72 20.0957 215.605 19.2608 216.252 18.6629C216.557 18.3857 216.814 18.1513 217.024 17.961C217.208 17.7981 217.314 17.7122 217.322 17.7208Z" fill="#E0E0E0"/>
<path d="M219.26 25.9823C219.215 25.9656 220.008 23.7292 221.028 20.9878C222.049 18.2453 222.912 16.0363 222.956 16.0531C223 16.0698 222.209 18.3059 221.187 21.0483C220.167 23.7898 219.304 25.9991 219.26 25.9823Z" fill="#E0E0E0"/>
<path d="M233.44 30.7675C233.44 30.7675 233.435 30.6375 233.433 30.3935C233.431 30.1444 233.428 29.7851 233.424 29.3176C233.42 28.3731 233.414 26.9967 233.406 25.2429C233.397 21.7349 233.385 16.7218 233.369 10.6773L233.44 10.7489C226.421 10.753 217.979 10.7578 208.902 10.7632H208.9L208.985 10.6773C208.982 17.9398 208.979 24.7984 208.976 30.7672L208.9 30.6905C216.186 30.7063 222.311 30.7196 226.62 30.7289C228.775 30.7378 230.475 30.7446 231.643 30.7494C232.222 30.7535 232.668 30.7566 232.976 30.7587C233.124 30.7607 233.238 30.7621 233.321 30.7631C233.399 30.7648 233.44 30.7675 233.44 30.7675C233.44 30.7675 233.405 30.7706 233.33 30.772C233.249 30.773 233.138 30.7744 232.994 30.7764C232.689 30.7785 232.248 30.7816 231.675 30.7857C230.512 30.7905 228.817 30.7973 226.67 30.8062C222.349 30.8155 216.207 30.8288 208.901 30.8445H208.825V30.7675C208.822 24.7987 208.819 17.9401 208.815 10.6777V10.5918H208.901H208.903C217.98 10.5969 226.421 10.6021 233.441 10.6062H233.512L233.512 10.6777C233.496 16.7406 233.484 21.7694 233.475 25.2884C233.467 27.035 233.461 28.4059 233.456 29.347C233.453 29.8087 233.45 30.1632 233.448 30.4093C233.446 30.6485 233.44 30.7675 233.44 30.7675Z" fill="#E0E0E0"/>
<path d="M233.632 13.6587C233.632 13.7062 228.093 13.7445 221.261 13.7445C214.427 13.7445 208.889 13.7059 208.889 13.6587C208.889 13.6111 214.427 13.5728 221.261 13.5728C228.093 13.5724 233.632 13.6111 233.632 13.6587Z" fill="#E0E0E0"/>
<path d="M210.902 12.1927C210.902 12.3768 210.754 12.526 210.572 12.526C210.389 12.526 210.241 12.3768 210.241 12.1927C210.241 12.0086 210.389 11.8594 210.572 11.8594C210.754 11.8594 210.902 12.0086 210.902 12.1927Z" fill="#E0E0E0"/>
<path d="M212.108 12.1927C212.108 12.3768 211.96 12.526 211.778 12.526C211.595 12.526 211.447 12.3768 211.447 12.1927C211.447 12.0086 211.595 11.8594 211.778 11.8594C211.96 11.8594 212.108 12.0086 212.108 12.1927Z" fill="#E0E0E0"/>
<path d="M213.311 12.1927C213.311 12.3768 213.163 12.526 212.981 12.526C212.798 12.526 212.65 12.3768 212.65 12.1927C212.65 12.0086 212.798 11.8594 212.981 11.8594C213.163 11.8594 213.311 12.0086 213.311 12.1927Z" fill="#E0E0E0"/>
<path d="M200.404 144.306H31.3815C28.6413 144.306 26.4199 142.074 26.4199 139.321V28.0651C26.4199 26.6001 27.6018 25.4126 29.0599 25.4126H203.07C204.338 25.4126 205.366 26.4454 205.366 27.7191V139.321C205.366 142.074 203.144 144.306 200.404 144.306Z" fill="#455A64"/>
<path d="M208.138 145.915H23.6109C21.0298 145.915 18.9375 143.813 18.9375 141.22V135.512H212.812V141.22C212.812 143.813 210.719 145.915 208.138 145.915Z" fill="#455A64"/>
<path d="M200.06 30.1362H31.2217V130.54H200.06V30.1362Z" fill="#E0E0E0"/>
<path d="M98.2549 135.512L100.661 139.357H134.514L136.748 135.512H98.2549Z" fill="#263238"/>
<path d="M195.46 35.9531H36.2324V130.539H195.46V35.9531Z" fill="#263238"/>
<path d="M48.4513 127.764C48.3689 127.764 48.3018 107.619 48.3018 82.7741C48.3018 57.9206 48.3685 37.7798 48.4513 37.7798C48.534 37.7798 48.6008 57.9206 48.6008 82.7741C48.6008 107.619 48.5337 127.764 48.4513 127.764Z" fill="#E0E0E0"/>
<path d="M45.2385 45.9365C45.2385 46.0193 44.0805 46.0867 42.652 46.0867C41.2231 46.0867 40.0654 46.0197 40.0654 45.9365C40.0654 45.8537 41.2235 45.7866 42.652 45.7866C44.0805 45.7866 45.2385 45.8537 45.2385 45.9365Z" fill="#E0E0E0"/>
<path d="M45.4338 40.8306C45.4338 40.9134 44.2758 40.9808 42.8473 40.9808C41.4185 40.9808 40.2607 40.9137 40.2607 40.8306C40.2607 40.7477 41.4188 40.6807 42.8473 40.6807C44.2758 40.6803 45.4338 40.7477 45.4338 40.8306Z" fill="#E0E0E0"/>
<path d="M45.2385 51.4403C45.2385 51.5231 44.0805 51.5905 42.652 51.5905C41.2231 51.5905 40.0654 51.5234 40.0654 51.4403C40.0654 51.3571 41.2235 51.29 42.652 51.29C44.0805 51.29 45.2385 51.3571 45.2385 51.4403Z" fill="#E0E0E0"/>
<path d="M45.2385 56.9436C45.2385 57.0264 44.0805 57.0938 42.652 57.0938C41.2231 57.0938 40.0654 57.0267 40.0654 56.9436C40.0654 56.8608 41.2235 56.7937 42.652 56.7937C44.0805 56.7937 45.2385 56.8608 45.2385 56.9436Z" fill="#E0E0E0"/>
<path d="M45.2385 62.4471C45.2385 62.5299 44.0805 62.5973 42.652 62.5973C41.2231 62.5973 40.0654 62.5303 40.0654 62.4471C40.0654 62.3643 41.2235 62.2969 42.652 62.2969C44.0805 62.2972 45.2385 62.3643 45.2385 62.4471Z" fill="#E0E0E0"/>
<path d="M45.2385 67.9509C45.2385 68.0337 44.0805 68.1011 42.652 68.1011C41.2231 68.1011 40.0654 68.0341 40.0654 67.9509C40.0654 67.8681 41.2235 67.801 42.652 67.801C44.0805 67.8007 45.2385 67.8681 45.2385 67.9509Z" fill="#E0E0E0"/>
<path d="M45.2385 73.4543C45.2385 73.5371 44.0805 73.6046 42.652 73.6046C41.2231 73.6046 40.0654 73.5375 40.0654 73.4543C40.0654 73.3715 41.2235 73.3044 42.652 73.3044C44.0805 73.3044 45.2385 73.3715 45.2385 73.4543Z" fill="#E0E0E0"/>
<path d="M45.2385 78.9581C45.2385 79.0409 44.0805 79.1083 42.652 79.1083C41.2231 79.1083 40.0654 79.0412 40.0654 78.9581C40.0654 78.8753 41.2235 78.8079 42.652 78.8079C44.0805 78.8079 45.2385 78.8753 45.2385 78.9581Z" fill="#E0E0E0"/>
<path d="M45.2385 84.4617C45.2385 84.5445 44.0805 84.6119 42.652 84.6119C41.2231 84.6119 40.0654 84.5448 40.0654 84.4617C40.0654 84.3788 41.2235 84.3118 42.652 84.3118C44.0805 84.3118 45.2385 84.3788 45.2385 84.4617Z" fill="#E0E0E0"/>
<path d="M45.2385 89.9654C45.2385 90.0482 44.0805 90.1156 42.652 90.1156C41.2231 90.1156 40.0654 90.0486 40.0654 89.9654C40.0654 89.8826 41.2235 89.8152 42.652 89.8152C44.0805 89.8152 45.2385 89.8826 45.2385 89.9654Z" fill="#E0E0E0"/>
<path d="M45.2385 95.4688C45.2385 95.5516 44.0805 95.6187 42.652 95.6187C41.2231 95.6187 40.0654 95.5516 40.0654 95.4688C40.0654 95.386 41.2235 95.3186 42.652 95.3186C44.0805 95.3186 45.2385 95.386 45.2385 95.4688Z" fill="#E0E0E0"/>
<path d="M45.2385 100.972C45.2385 101.055 44.0805 101.122 42.652 101.122C41.2231 101.122 40.0654 101.055 40.0654 100.972C40.0654 100.889 41.2235 100.822 42.652 100.822C44.0805 100.822 45.2385 100.889 45.2385 100.972Z" fill="#E0E0E0"/>
<path d="M45.2385 106.476C45.2385 106.559 44.0805 106.626 42.652 106.626C41.2231 106.626 40.0654 106.559 40.0654 106.476C40.0654 106.393 41.2235 106.326 42.652 106.326C44.0805 106.326 45.2385 106.393 45.2385 106.476Z" fill="#E0E0E0"/>
<path d="M45.2385 111.979C45.2385 112.062 44.0805 112.13 42.652 112.13C41.2231 112.13 40.0654 112.063 40.0654 111.979C40.0654 111.897 41.2235 111.83 42.652 111.83C44.0805 111.83 45.2385 111.897 45.2385 111.979Z" fill="#E0E0E0"/>
<path d="M45.2385 117.483C45.2385 117.566 44.0805 117.633 42.652 117.633C41.2231 117.633 40.0654 117.566 40.0654 117.483C40.0654 117.4 41.2235 117.333 42.652 117.333C44.0805 117.333 45.2385 117.4 45.2385 117.483Z" fill="#E0E0E0"/>
<path d="M45.2385 122.987C45.2385 123.07 44.0805 123.137 42.652 123.137C41.2231 123.137 40.0654 123.07 40.0654 122.987C40.0654 122.904 41.2235 122.837 42.652 122.837C44.0805 122.837 45.2385 122.904 45.2385 122.987Z" fill="#E0E0E0"/>
<path d="M65.9747 45.6119C65.9747 45.6947 62.9692 45.7621 59.2624 45.7621C55.5546 45.7621 52.5498 45.6951 52.5498 45.6119C52.5498 45.5287 55.5546 45.4617 59.2624 45.4617C62.9689 45.4617 65.9747 45.5291 65.9747 45.6119Z" fill="#FF725E"/>
<path d="M65.9747 122.987C65.9747 123.07 62.9692 123.137 59.2624 123.137C55.5546 123.137 52.5498 123.07 52.5498 122.987C52.5498 122.904 55.5546 122.837 59.2624 122.837C62.9689 122.837 65.9747 122.904 65.9747 122.987Z" fill="#FF725E"/>
<path d="M84.668 56.9436C84.668 57.0264 79.0446 57.0938 72.1096 57.0938C65.1722 57.0938 59.5498 57.0267 59.5498 56.9436C59.5498 56.8608 65.1718 56.7937 72.1096 56.7937C79.0446 56.7937 84.668 56.8608 84.668 56.9436Z" fill="#FF725E"/>
<path d="M113.711 56.9436C113.711 57.0264 108.087 57.0938 101.152 57.0938C94.2148 57.0938 88.5928 57.0267 88.5928 56.9436C88.5928 56.8608 94.2148 56.7937 101.152 56.7937C108.087 56.7937 113.711 56.8608 113.711 56.9436Z" fill="#E0E0E0"/>
<path d="M102.611 62.4471C102.611 62.5299 94.3237 62.5973 84.1032 62.5973C73.8793 62.5973 65.5938 62.5303 65.5938 62.4471C65.5938 62.3643 73.8793 62.2969 84.1032 62.2969C94.3237 62.2972 102.611 62.3643 102.611 62.4471Z" fill="#E0E0E0"/>
<path d="M102.611 67.9509C102.611 68.0337 94.3237 68.1011 84.1032 68.1011C73.8793 68.1011 65.5938 68.0341 65.5938 67.9509C65.5938 67.8681 73.8793 67.801 84.1032 67.801C94.3237 67.8007 102.611 67.8681 102.611 67.9509Z" fill="#E0E0E0"/>
<path d="M128.091 84.4617C128.091 84.5445 119.804 84.6119 109.584 84.6119C99.3598 84.6119 91.0742 84.5448 91.0742 84.4617C91.0742 84.3788 99.3598 84.3118 109.584 84.3118C119.805 84.3118 128.091 84.3788 128.091 84.4617Z" fill="#E0E0E0"/>
<path d="M117.097 73.4543C117.097 73.5371 108.81 73.6046 98.5891 73.6046C88.3651 73.6046 80.0796 73.5375 80.0796 73.4543C80.0796 73.3715 88.3651 73.3044 98.5891 73.3044C108.81 73.3044 117.097 73.3715 117.097 73.4543Z" fill="#E0E0E0"/>
<path d="M162.332 73.4543C162.332 73.5371 154.044 73.6046 143.824 73.6046C133.6 73.6046 125.314 73.5375 125.314 73.4543C125.314 73.3715 133.6 73.3044 143.824 73.3044C154.044 73.3044 162.332 73.3715 162.332 73.4543Z" fill="#E0E0E0"/>
<path d="M146.6 62.4471C146.6 62.5299 138.313 62.5973 128.092 62.5973C117.869 62.5973 109.583 62.5303 109.583 62.4471C109.583 62.3643 117.869 62.2969 128.092 62.2969C138.313 62.2972 146.6 62.3643 146.6 62.4471Z" fill="#FAFAFA"/>
<path d="M172.173 84.4617C172.173 84.5445 163.885 84.6119 153.665 84.6119C143.441 84.6119 135.155 84.5448 135.155 84.4617C135.155 84.3788 143.441 84.3118 153.665 84.3118C163.885 84.3118 172.173 84.3788 172.173 84.4617Z" fill="#FAFAFA"/>
<path d="M167.064 67.9509C167.064 68.0337 154.195 68.1011 138.325 68.1011C122.449 68.1011 109.583 68.0341 109.583 67.9509C109.583 67.8681 122.449 67.801 138.325 67.801C154.195 67.8007 167.064 67.8681 167.064 67.9509Z" fill="#455A64"/>
<path d="M65.9747 51.4403C65.9747 51.5231 62.9692 51.5905 59.2624 51.5905C55.5546 51.5905 52.5498 51.5234 52.5498 51.4403C52.5498 51.3571 55.5546 51.29 59.2624 51.29C62.9689 51.29 65.9747 51.3571 65.9747 51.4403Z" fill="#FAFAFA"/>
<path d="M65.9747 117.483C65.9747 117.566 62.9692 117.633 59.2624 117.633C55.5546 117.633 52.5498 117.566 52.5498 117.483C52.5498 117.4 55.5546 117.333 59.2624 117.333C62.9689 117.333 65.9747 117.4 65.9747 117.483Z" fill="#FAFAFA"/>
<path d="M72.6241 73.4543C72.6241 73.5371 69.6187 73.6046 65.9119 73.6046C62.204 73.6046 59.1992 73.5375 59.1992 73.4543C59.1992 73.3715 62.204 73.3044 65.9119 73.3044C69.6183 73.3044 72.6241 73.3715 72.6241 73.4543Z" fill="#FAFAFA"/>
<path d="M180.218 73.4543C180.218 73.5371 177.212 73.6046 173.506 73.6046C169.798 73.6046 166.793 73.5375 166.793 73.4543C166.793 73.3715 169.798 73.3044 173.506 73.3044C177.212 73.3044 180.218 73.3715 180.218 73.4543Z" fill="#FF725E"/>
<path d="M84.668 95.4364C84.668 95.5192 79.0446 95.5866 72.1096 95.5866C65.1722 95.5866 59.5498 95.5195 59.5498 95.4364C59.5498 95.3535 65.1718 95.2861 72.1096 95.2861C79.0446 95.2865 84.668 95.3535 84.668 95.4364Z" fill="#FF725E"/>
<path d="M113.711 95.4364C113.711 95.5192 108.087 95.5866 101.152 95.5866C94.2148 95.5866 88.5928 95.5195 88.5928 95.4364C88.5928 95.3535 94.2148 95.2861 101.152 95.2861C108.087 95.2865 113.711 95.3535 113.711 95.4364Z" fill="#E0E0E0"/>
<path d="M102.611 100.94C102.611 101.023 94.3237 101.09 84.1032 101.09C73.8793 101.09 65.5938 101.023 65.5938 100.94C65.5938 100.857 73.8793 100.79 84.1032 100.79C94.3237 100.79 102.611 100.857 102.611 100.94Z" fill="#E0E0E0"/>
<path d="M102.611 106.443C102.611 106.526 94.3237 106.594 84.1032 106.594C73.8793 106.594 65.5938 106.527 65.5938 106.443C65.5938 106.361 73.8793 106.293 84.1032 106.293C94.3237 106.294 102.611 106.361 102.611 106.443Z" fill="#E0E0E0"/>
<path d="M117.097 111.947C117.097 112.03 108.81 112.097 98.5891 112.097C88.3651 112.097 80.0796 112.03 80.0796 111.947C80.0796 111.864 88.3651 111.797 98.5891 111.797C108.81 111.797 117.097 111.864 117.097 111.947Z" fill="#E0E0E0"/>
<path d="M162.332 111.947C162.332 112.03 154.044 112.097 143.824 112.097C133.6 112.097 125.314 112.03 125.314 111.947C125.314 111.864 133.6 111.797 143.824 111.797C154.044 111.797 162.332 111.864 162.332 111.947Z" fill="#E0E0E0"/>
<path d="M146.6 100.94C146.6 101.023 138.313 101.09 128.092 101.09C117.869 101.09 109.583 101.023 109.583 100.94C109.583 100.857 117.869 100.79 128.092 100.79C138.313 100.79 146.6 100.857 146.6 100.94Z" fill="#FAFAFA"/>
<path d="M167.064 106.443C167.064 106.526 154.195 106.594 138.325 106.594C122.449 106.594 109.583 106.527 109.583 106.443C109.583 106.361 122.449 106.293 138.325 106.293C154.195 106.294 167.064 106.361 167.064 106.443Z" fill="#455A64"/>
<path d="M72.6241 111.947C72.6241 112.03 69.6187 112.097 65.9119 112.097C62.204 112.097 59.1992 112.03 59.1992 111.947C59.1992 111.864 62.204 111.797 65.9119 111.797C69.6183 111.797 72.6241 111.864 72.6241 111.947Z" fill="#FAFAFA"/>
<path d="M180.218 111.947C180.218 112.03 177.212 112.097 173.506 112.097C169.798 112.097 166.793 112.03 166.793 111.947C166.793 111.864 169.798 111.797 173.506 111.797C177.212 111.797 180.218 111.864 180.218 111.947Z" fill="#FF725E"/>
<path d="M183.795 138.987C183.795 139.036 149.517 139.076 107.242 139.076C64.9526 139.076 30.6816 139.036 30.6816 138.987C30.6816 138.938 64.9526 138.898 107.242 138.898C149.517 138.898 183.795 138.938 183.795 138.987Z" fill="#263238"/>
<path d="M24.9473 108.82C20.251 103.99 12.893 101.961 6.40137 103.706C12.0404 107.505 18.3774 109.54 25.1666 109.596" fill="#FF725E"/>
<path d="M18.6585 86.4394C19.4313 80.9486 17.3073 74.7717 13.2157 70.7805C13.0804 76.2224 15.3669 82.3462 18.6585 86.4394Z" fill="#FF725E"/>
<path d="M21.9308 96.8117C19.0149 91.2118 14.2283 86.6159 8.52832 83.9429C10.2365 90.2649 15.6187 95.4367 21.9808 96.8699" fill="#FF725E"/>
<path d="M22.6087 98.8131C19.3079 98.9062 15.9673 98.7895 12.7751 97.9408C9.58299 97.0921 6.52538 95.4611 4.40137 92.9209C10.8228 92.9281 17.2289 94.8931 22.5593 98.4904" fill="#FF725E"/>
<path d="M20.9336 92.221C22.609 85.912 25.3734 81.5474 30.3091 78.0117C30.6827 81.0814 29.9317 84.2766 28.2307 86.8545C26.5301 89.432 23.8931 91.3713 20.9336 92.221Z" fill="#FF725E"/>
<path d="M33.393 103.102C33.4795 99.4353 31.1276 95.8325 27.7461 94.4517C28.0203 97.7099 30.5677 101.479 33.393 103.102Z" fill="#FF725E"/>
<path d="M34.9697 97.7819C35.3447 92.5115 39.072 87.6357 44.0431 85.9116C42.9031 91.1841 39.869 95.5729 34.9697 97.7819Z" fill="#FF725E"/>
<path d="M32.5933 107.222C33.7574 105.549 35.6567 104.509 37.6223 103.992C39.5879 103.475 41.6414 103.43 43.6728 103.387C40.9326 106.416 36.8181 108.138 32.7479 107.959" fill="#FF725E"/>
<path d="M30.2329 120.671C33.8948 119.535 37.9759 119.829 41.4391 121.477C44.9024 123.125 47.7138 126.112 49.1589 129.678C42.2838 128.368 35.4997 125.3 30.2329 120.671Z" fill="#FF725E"/>
<path d="M22.6888 115.997C23.8308 119.389 23.6115 123.488 21.073 126.411C20.0399 122.931 20.6506 118.996 22.6888 115.997Z" fill="#FF725E"/>
<path d="M18.2295 114.113C17.9118 118.474 15.1365 122.57 11.2151 124.466C11.0203 124.561 10.7952 124.651 10.5949 124.569C10.2856 124.442 10.2573 124.018 10.2955 123.685C10.7924 119.339 13.9968 115.136 18.2295 114.113Z" fill="#FF725E"/>
<path d="M15.3164 113.672C13.3851 115.768 10.569 117.014 7.72566 117.028C4.88263 117.043 2.05391 115.826 0.101562 113.75C4.93781 113.218 10.5179 112.864 15.3164 113.672Z" fill="#FF725E"/>
<path d="M14.5937 74.8274C14.5906 74.8284 14.6056 74.8767 14.6379 74.9698C14.674 75.0704 14.7231 75.2066 14.7854 75.3808C14.9223 75.7497 15.1182 76.2781 15.3689 76.9543C15.6291 77.6346 15.9292 78.474 16.2773 79.449C16.4523 79.9363 16.6393 80.4571 16.8376 81.0091C17.0283 81.5645 17.2299 82.1511 17.4414 82.7667C18.2984 85.2272 19.2497 88.1805 20.2766 91.4685C21.2852 94.7626 22.3444 98.3993 23.3864 102.236C24.4143 106.078 25.3258 109.756 26.1013 113.113C26.8551 116.475 27.5033 119.511 27.9716 122.074C28.0918 122.714 28.2063 123.324 28.3146 123.901C28.4123 124.48 28.5046 125.025 28.5911 125.536C28.7662 126.556 28.9164 127.435 29.0172 128.157C29.1262 128.87 29.2114 129.427 29.2706 129.816C29.3006 129.999 29.3241 130.142 29.3412 130.247C29.3582 130.344 29.3684 130.394 29.3715 130.393C29.3745 130.393 29.3708 130.343 29.3599 130.245C29.3469 130.138 29.3296 129.995 29.3074 129.811C29.256 129.421 29.1824 128.862 29.0881 128.146C28.9982 127.423 28.8585 126.541 28.693 125.519C28.6109 125.007 28.5234 124.46 28.4304 123.881C28.3262 123.302 28.2158 122.691 28.1 122.05C27.648 119.482 27.0124 116.441 26.2675 113.075C25.5005 109.713 24.5935 106.031 23.5648 102.187C22.5222 98.3483 21.4572 94.7106 20.4395 91.4175C19.4027 88.1302 18.4381 85.1796 17.5651 82.7233C17.3491 82.1086 17.1431 81.5235 16.9483 80.9691C16.7453 80.4188 16.5535 79.8993 16.3743 79.4131C16.017 78.4412 15.7071 77.6051 15.4363 76.9283C15.1717 76.2575 14.9649 75.7329 14.8205 75.3671C14.7507 75.196 14.6962 75.0618 14.656 74.9629C14.6175 74.8719 14.5967 74.8261 14.5937 74.8274Z" fill="#263238"/>
<path d="M41.1577 88.7264C41.1553 88.7244 41.127 88.7511 41.0743 88.8055C41.0153 88.8678 40.939 88.9485 40.843 89.0498C40.641 89.2657 40.3484 89.5895 39.983 90.0166C39.253 90.8697 38.2227 92.1352 37.1355 93.8312C36.0483 95.5221 34.9338 97.6756 34.1579 100.231C33.3602 102.779 32.865 105.674 32.3721 108.701C31.3888 114.76 30.1821 120.186 29.3087 124.111C28.8683 126.064 28.5114 127.649 28.2614 128.758C28.1422 129.298 28.0489 129.722 27.9824 130.023C27.9542 130.16 27.9317 130.268 27.9143 130.353C27.9 130.427 27.8942 130.466 27.8973 130.467C27.9003 130.467 27.9123 130.43 27.9327 130.357C27.9545 130.274 27.9828 130.166 28.0185 130.031C28.0931 129.732 28.1977 129.311 28.3312 128.774C28.5948 127.668 28.9715 126.088 29.4361 124.14C30.3421 120.222 31.57 114.796 32.5547 108.731C33.0476 105.704 33.5363 102.817 34.3207 100.282C35.0834 97.7386 36.177 95.5949 37.2459 93.9017C38.314 92.2043 39.3259 90.9292 40.0378 90.0634C40.3937 89.6299 40.6778 89.2993 40.8706 89.0751C40.9608 88.9687 41.0327 88.8842 41.0879 88.8185C41.1366 88.7596 41.1601 88.7285 41.1577 88.7264Z" fill="#263238"/>
<path d="M13.8726 113.466C13.8722 113.472 13.9322 113.483 14.0466 113.498C14.1825 113.513 14.3477 113.531 14.5473 113.553C14.6587 113.564 14.7793 113.576 14.909 113.589C15.0422 113.609 15.1849 113.63 15.3368 113.653C15.6437 113.699 15.9938 113.744 16.375 113.829C16.5671 113.868 16.7674 113.908 16.9755 113.949C17.1822 114.002 17.3971 114.057 17.6185 114.113C18.0661 114.215 18.5286 114.379 19.0218 114.529C19.9939 114.871 21.0409 115.312 22.0842 115.885C23.1241 116.465 24.044 117.134 24.8298 117.801C25.2113 118.148 25.5791 118.472 25.8833 118.817C26.2089 119.141 26.4729 119.478 26.7168 119.783C26.9739 120.078 27.1527 120.385 27.3339 120.637C27.5175 120.889 27.6497 121.121 27.7566 121.313C27.8588 121.486 27.9436 121.63 28.0131 121.748C28.0737 121.847 28.1081 121.897 28.1139 121.895C28.1197 121.892 28.0962 121.836 28.0461 121.731C27.9848 121.608 27.9099 121.458 27.8193 121.277C27.7215 121.079 27.5976 120.839 27.4208 120.58C27.2464 120.321 27.0734 120.006 26.8203 119.702C26.5805 119.389 26.3196 119.044 25.995 118.711C25.6919 118.358 25.3244 118.025 24.9415 117.671C24.153 116.989 23.2245 116.308 22.1738 115.721C21.1196 115.142 20.06 114.702 19.076 114.366C18.577 114.219 18.109 114.059 17.6563 113.963C17.4322 113.91 17.2149 113.858 17.0058 113.809C16.7953 113.771 16.593 113.735 16.3988 113.7C16.0136 113.622 15.6597 113.586 15.3501 113.55C15.1968 113.532 15.0531 113.515 14.9186 113.5C14.7874 113.493 14.6662 113.486 14.5538 113.48C14.3525 113.472 14.1859 113.465 14.049 113.459C13.9335 113.458 13.8726 113.459 13.8726 113.466Z" fill="#263238"/>
<path d="M12.494 88.8427C12.4859 88.8522 12.6102 88.972 12.8425 89.1801C13.1047 89.4087 13.4385 89.6996 13.8377 90.0476C14.6834 90.7738 15.8602 91.7675 17.1671 92.8565C18.4747 93.9454 19.6644 94.9234 20.5316 95.6236C20.9458 95.9531 21.2922 96.2289 21.5643 96.4456C21.8106 96.6365 21.9506 96.7371 21.9588 96.7272C21.9666 96.7173 21.8419 96.5975 21.6093 96.3891C21.347 96.1605 21.0129 95.8693 20.6137 95.5216C19.768 94.7951 18.5919 93.802 17.285 92.7134C15.9788 91.6252 14.7894 90.6482 13.9225 89.9477C13.5084 89.6178 13.1616 89.3419 12.8895 89.1253C12.6425 88.934 12.5022 88.8331 12.494 88.8427Z" fill="#263238"/>
<path d="M11.3048 95.2705C11.2901 95.3197 13.8297 96.1168 16.9758 97.051C20.123 97.9852 22.6854 98.7025 22.7 98.6532C22.7143 98.6039 20.1755 97.8069 17.0283 96.8727C13.8821 95.9385 11.3194 95.2212 11.3048 95.2705Z" fill="#263238"/>
<path d="M20.6817 92.7114C20.6926 92.7179 20.7856 92.5871 20.944 92.3449C21.1228 92.0714 21.3469 91.7282 21.6133 91.3203C22.1811 90.4572 22.987 89.28 23.94 88.0261C24.8943 86.773 25.8126 85.6813 26.4897 84.9018C26.8099 84.5346 27.079 84.2259 27.2936 83.9798C27.4833 83.7615 27.5838 83.6366 27.5746 83.6277C27.5654 83.6188 27.4472 83.7269 27.2411 83.9302C27.0344 84.1328 26.7442 84.4343 26.3923 84.8138C25.689 85.5728 24.7513 86.6553 23.7928 87.9132C22.8361 89.1719 22.0438 90.3658 21.5029 91.2491C21.2325 91.6909 21.0206 92.0526 20.882 92.3072C20.7427 92.5615 20.6708 92.7049 20.6817 92.7114Z" fill="#263238"/>
<path d="M29.4995 96.279C29.4773 96.2947 29.7158 96.664 30.0952 97.2632C30.4746 97.8624 30.9893 98.6953 31.5227 99.6361C32.0554 100.578 32.5053 101.448 32.8238 102.082C33.1426 102.716 33.3367 103.11 33.3616 103.099C33.3834 103.09 33.2318 102.676 32.942 102.025C32.6524 101.375 32.2189 100.491 31.6834 99.5444C31.1477 98.5988 30.6126 97.7727 30.2042 97.1903C29.7955 96.6075 29.5189 96.2649 29.4995 96.279Z" fill="#263238"/>
<path d="M32.5168 107.398C32.5301 107.424 33.0141 107.185 33.8074 106.827C34.6 106.468 35.7073 106 36.9583 105.559C38.2104 105.12 39.3664 104.792 40.2091 104.576C41.0514 104.359 41.5776 104.242 41.5722 104.214C41.5698 104.201 41.4352 104.216 41.1941 104.254C40.9526 104.29 40.6055 104.356 40.1787 104.448C39.3252 104.632 38.1562 104.942 36.897 105.384C35.6388 105.827 34.5329 106.318 33.7515 106.709C33.3605 106.904 33.0482 107.07 32.837 107.193C32.6248 107.314 32.5107 107.387 32.5168 107.398Z" fill="#263238"/>
<path d="M30.1416 120.691C30.1403 120.697 30.1941 120.715 30.2983 120.744C30.424 120.776 30.5745 120.815 30.7554 120.861C31.1835 120.96 31.7537 121.092 32.4445 121.253C33.8682 121.585 35.8515 122.001 37.9605 122.716C40.0699 123.437 41.8795 124.354 43.1071 125.145C43.7222 125.538 44.2014 125.886 44.525 126.137C44.8496 126.385 45.0267 126.527 45.0363 126.516C45.0404 126.512 45.0012 126.47 44.9228 126.396C44.8431 126.323 44.729 126.211 44.5703 126.08C44.2593 125.811 43.789 125.445 43.1786 125.035C41.9609 124.21 40.1438 123.266 38.0208 122.54C35.8948 121.82 33.9036 121.424 32.472 121.125C31.7762 120.988 31.2019 120.875 30.7707 120.791C30.3678 120.715 30.1444 120.678 30.1416 120.691Z" fill="#263238"/>
<path d="M21.5521 123.967C21.6025 123.975 21.905 122.185 22.2275 119.971C22.5501 117.755 22.7704 115.954 22.72 115.947C22.6696 115.939 22.3672 117.728 22.0446 119.944C21.7221 122.158 21.5017 123.96 21.5521 123.967Z" fill="#263238"/>
<path d="M12.608 120.705C12.6295 120.721 12.9302 120.348 13.4139 119.743C13.8972 119.139 14.5668 118.306 15.3237 117.4C16.0812 116.495 16.7825 115.689 17.292 115.106C17.8012 114.523 18.1153 114.162 18.0958 114.143C18.0867 114.134 17.9961 114.213 17.8397 114.364C17.683 114.514 17.463 114.737 17.1956 115.018C16.6605 115.578 15.9419 116.373 15.1823 117.281C14.4235 118.189 13.7681 119.037 13.3104 119.663C13.0815 119.976 12.9003 120.233 12.78 120.413C12.6595 120.594 12.5978 120.697 12.608 120.705Z" fill="#263238"/>
<path d="M36.2759 129.038V133.478H35.171L31.2432 145.933H22.5329L18.728 133.601L17.2549 133.478V129.038H36.2759Z" fill="#FF725E"/>
<g opacity="0.3">
<path d="M36.2759 129.038V133.478H35.171L31.2432 145.933H22.5329L18.728 133.601L17.2549 133.478V129.038H36.2759Z" fill="black"/>
</g>
<path d="M17.9902 133.601C17.9902 133.652 21.8363 133.694 26.5796 133.694C31.3246 133.694 35.17 133.652 35.17 133.601C35.17 133.55 31.3246 133.508 26.5796 133.508C21.8367 133.508 17.9902 133.55 17.9902 133.601Z" fill="#263238"/>
<path d="M11.7266 105.043C11.7242 105.056 11.9231 105.109 12.2848 105.195C12.6772 105.29 13.1922 105.415 13.8138 105.565C15.1023 105.886 16.8718 106.372 18.7911 107.02C20.7104 107.67 22.4131 108.356 23.6328 108.883C24.2186 109.14 24.704 109.354 25.0735 109.516C25.4131 109.667 25.6038 109.746 25.6093 109.734C25.6151 109.722 25.4349 109.622 25.1045 109.451C24.7748 109.277 24.2901 109.042 23.6856 108.762C22.4771 108.204 20.7758 107.495 18.85 106.843C16.9242 106.194 15.1428 105.725 13.8438 105.437C13.1943 105.292 12.6663 105.186 12.2995 105.124C11.9326 105.06 11.729 105.031 11.7266 105.043Z" fill="#263238"/>
<path d="M20.8828 140.518C20.8828 140.569 23.5811 140.611 26.9091 140.611C30.2382 140.611 32.9361 140.569 32.9361 140.518C32.9361 140.467 30.2382 140.425 26.9091 140.425C23.5811 140.425 20.8828 140.466 20.8828 140.518Z" fill="#FAFAFA"/>
<path d="M20.5439 139.488C20.5439 139.539 23.4037 139.581 26.9303 139.581C30.4583 139.581 33.3173 139.539 33.3173 139.488C33.3173 139.437 30.4583 139.395 26.9303 139.395C23.4037 139.395 20.5439 139.437 20.5439 139.488Z" fill="#FAFAFA"/>
<path d="M233.53 146.004C233.53 146.054 181.608 146.093 117.574 146.093C53.518 146.093 1.60742 146.053 1.60742 146.004C1.60742 145.955 53.518 145.916 117.574 145.916C181.608 145.915 233.53 145.955 233.53 146.004Z" fill="#263238"/>
<path d="M201.709 38.0815H110.432V94.877H187.272L192.029 105.873L196.246 94.877H201.709V38.0815Z" fill="#FAFAFA"/>
<path d="M201.708 38.0814C201.708 38.6321 201.734 59.9693 201.776 94.8769V94.9453H201.707C200.03 94.946 198.155 94.947 196.245 94.9477L196.311 94.9022C194.991 98.3489 193.568 102.064 192.098 105.9L192.032 106.072L191.959 105.903C190.467 102.458 188.854 98.7329 187.198 94.9084L187.27 94.9563C166.625 94.959 142.9 94.9624 117.782 94.9659C115.315 94.9659 112.862 94.9659 110.43 94.9659H110.342V94.8769C110.345 74.6358 110.347 55.4257 110.35 38.0814V38H110.43C164.32 38.0483 200.989 38.0808 201.708 38.0814C200.99 38.0821 164.32 38.1146 110.43 38.1625L110.511 38.0814C110.513 55.4261 110.516 74.6358 110.519 94.8769L110.43 94.7879C112.862 94.7879 115.315 94.7879 117.782 94.7879C142.9 94.7913 166.625 94.7947 187.27 94.7975H187.323L187.343 94.8454C188.997 98.671 190.607 102.397 192.097 105.843L191.957 105.846C193.43 102.011 194.856 98.2973 196.179 94.8516L196.197 94.806H196.245C198.155 94.8071 200.03 94.8078 201.708 94.8084L201.64 94.8769C201.681 59.9693 201.707 38.6317 201.708 38.0814Z" fill="#263238"/>
<path d="M201.661 43.6235C201.661 43.6927 181.267 43.7488 156.117 43.7488C130.957 43.7488 110.568 43.6927 110.568 43.6235C110.568 43.5544 130.957 43.4983 156.117 43.4983C181.268 43.4983 201.661 43.5544 201.661 43.6235Z" fill="#263238"/>
<path d="M115.283 41.1148C115.283 41.5299 114.948 41.8663 114.535 41.8663C114.121 41.8663 113.787 41.5299 113.787 41.1148C113.787 40.6997 114.121 40.3633 114.535 40.3633C114.947 40.3633 115.283 40.6997 115.283 41.1148Z" fill="#263238"/>
<path d="M117.991 41.1148C117.991 41.5299 117.656 41.8663 117.243 41.8663C116.83 41.8663 116.495 41.5299 116.495 41.1148C116.495 40.6997 116.83 40.3633 117.243 40.3633C117.656 40.3633 117.991 40.6997 117.991 41.1148Z" fill="#263238"/>
<path d="M120.697 41.1148C120.697 41.5299 120.362 41.8663 119.949 41.8663C119.535 41.8663 119.201 41.5299 119.201 41.1148C119.201 40.6997 119.535 40.3633 119.949 40.3633C120.362 40.3633 120.697 40.6997 120.697 41.1148Z" fill="#263238"/>
<path d="M120.387 53.7839L118.219 54.6244L120.387 55.4652V55.9744L117.651 54.8886V54.3612L120.387 53.2754V53.7839Z" fill="#263238"/>
<path d="M122.643 51.6057H123.174L121.159 57.385H120.627L122.643 51.6057Z" fill="#263238"/>
<path d="M126.094 54.3609V54.8883L123.358 55.9741V55.4649L125.532 54.6241L123.358 53.7836V53.2744L126.094 54.3609Z" fill="#263238"/>
<path d="M126.785 56.3849C126.785 56.1399 126.975 55.9678 127.2 55.9678C127.42 55.9678 127.603 56.1396 127.603 56.3849C127.603 56.6306 127.42 56.8086 127.2 56.8086C126.975 56.8089 126.785 56.6306 126.785 56.3849Z" fill="#263238"/>
<path d="M128.173 56.3849C128.173 56.1399 128.362 55.9678 128.588 55.9678C128.808 55.9678 128.991 56.1396 128.991 56.3849C128.991 56.6306 128.808 56.8086 128.588 56.8086C128.362 56.8089 128.173 56.6306 128.173 56.3849Z" fill="#263238"/>
<path d="M129.559 56.3849C129.559 56.1399 129.748 55.9678 129.974 55.9678C130.193 55.9678 130.377 56.1396 130.377 56.3849C130.377 56.6306 130.193 56.8086 129.974 56.8086C129.748 56.8089 129.559 56.6306 129.559 56.3849Z" fill="#263238"/>
<path d="M178.027 61.8931C178.027 61.9622 164.533 62.0183 147.893 62.0183C131.246 62.0183 117.756 61.9622 117.756 61.8931C117.756 61.8239 131.246 61.7678 147.893 61.7678C164.533 61.7678 178.027 61.8239 178.027 61.8931Z" fill="#455A64"/>
<path d="M187.871 62.0723C187.871 62.1414 186.574 62.1975 184.976 62.1975C183.376 62.1975 182.08 62.1414 182.08 62.0723C182.08 62.0031 183.376 61.947 184.976 61.947C186.574 61.9474 187.871 62.0031 187.871 62.0723Z" fill="#263238"/>
<path d="M196.332 62.0723C196.332 62.1414 194.915 62.1975 193.169 62.1975C191.422 62.1975 190.006 62.1414 190.006 62.0723C190.006 62.0031 191.422 61.947 193.169 61.947C194.915 61.9474 196.332 62.0031 196.332 62.0723Z" fill="#263238"/>
<path d="M156.133 66.9956C156.133 67.0647 147.557 67.1209 136.979 67.1209C126.399 67.1209 117.824 67.0647 117.824 66.9956C117.824 66.9265 126.399 66.8704 136.979 66.8704C147.557 66.8704 156.133 66.9261 156.133 66.9956Z" fill="#455A64"/>
<path d="M155.859 86.0335C155.859 86.1026 147.282 86.1587 136.705 86.1587C126.124 86.1587 117.55 86.1026 117.55 86.0335C117.55 85.9643 126.125 85.9082 136.705 85.9082C147.282 85.9082 155.859 85.9643 155.859 86.0335Z" fill="#455A64"/>
<path d="M170.05 66.9956C170.05 67.0647 167.716 67.1209 164.838 67.1209C161.959 67.1209 159.626 67.0647 159.626 66.9956C159.626 66.9265 161.959 66.8704 164.838 66.8704C167.716 66.8704 170.05 66.9261 170.05 66.9956Z" fill="#263238"/>
<path d="M169.942 86.0335C169.942 86.1026 167.609 86.1587 164.73 86.1587C161.852 86.1587 159.519 86.1026 159.519 86.0335C159.519 85.9643 161.852 85.9082 164.73 85.9082C167.608 85.9082 169.942 85.9643 169.942 86.0335Z" fill="#263238"/>
<path d="M120.34 69.5913C120.34 69.6604 119.761 69.7166 119.048 69.7166C118.334 69.7166 117.756 69.6604 117.756 69.5913C117.756 69.5222 118.334 69.4661 119.048 69.4661C119.761 69.4661 120.34 69.5222 120.34 69.5913Z" fill="#FF725E"/>
<path d="M129.246 69.645C129.246 69.7142 127.99 69.7703 126.44 69.7703C124.89 69.7703 123.633 69.7142 123.633 69.645C123.633 69.5759 124.889 69.5198 126.44 69.5198C127.99 69.5198 129.246 69.5759 129.246 69.645Z" fill="#263238"/>
<path d="M134.95 69.645C134.95 69.7142 133.873 69.7703 132.544 69.7703C131.216 69.7703 130.139 69.7142 130.139 69.645C130.139 69.5759 131.215 69.5198 132.544 69.5198C133.873 69.5198 134.95 69.5759 134.95 69.645Z" fill="#263238"/>
<path d="M142.165 69.645C142.165 69.7142 141.068 69.7703 139.715 69.7703C138.362 69.7703 137.265 69.7142 137.265 69.645C137.265 69.5759 138.362 69.5198 139.715 69.5198C141.068 69.5198 142.165 69.5759 142.165 69.645Z" fill="#263238"/>
<path d="M148.491 69.645C148.491 69.7142 147.494 69.7703 146.264 69.7703C145.034 69.7703 144.037 69.7142 144.037 69.645C144.037 69.5759 145.034 69.5198 146.264 69.5198C147.494 69.5198 148.491 69.5759 148.491 69.645Z" fill="#263238"/>
<path d="M169.427 69.645C169.427 69.7142 165.039 69.7703 159.627 69.7703C154.214 69.7703 149.827 69.7142 149.827 69.645C149.827 69.5759 154.214 69.5198 159.627 69.5198C165.039 69.5198 169.427 69.5759 169.427 69.645Z" fill="#263238"/>
<path d="M119.983 72.9031C119.983 72.9722 119.484 73.0283 118.87 73.0283C118.255 73.0283 117.756 72.9722 117.756 72.9031C117.756 72.834 118.255 72.7778 118.87 72.7778C119.484 72.7778 119.983 72.834 119.983 72.9031Z" fill="#FF725E"/>
<path d="M120.072 76.3044C120.072 76.3736 119.554 76.4297 118.914 76.4297C118.275 76.4297 117.756 76.3736 117.756 76.3044C117.756 76.2353 118.274 76.1792 118.914 76.1792C119.554 76.1792 120.072 76.2353 120.072 76.3044Z" fill="#FF725E"/>
<path d="M120.072 80.1533C120.072 80.2225 119.554 80.2786 118.914 80.2786C118.275 80.2786 117.756 80.2225 117.756 80.1533C117.756 80.0842 118.274 80.0281 118.914 80.0281C119.554 80.0284 120.072 80.0842 120.072 80.1533Z" fill="#FF725E"/>
<path d="M141.187 79.9744C141.187 80.0435 137.318 80.0996 132.545 80.0996C127.772 80.0996 123.903 80.0435 123.903 79.9744C123.903 79.9052 127.772 79.8491 132.545 79.8491C137.318 79.8491 141.187 79.9052 141.187 79.9744Z" fill="#263238"/>
<path d="M139.67 76.3044C139.67 76.3736 135.98 76.4297 131.429 76.4297C126.877 76.4297 123.188 76.3736 123.188 76.3044C123.188 76.2353 126.877 76.1792 131.429 76.1792C135.98 76.1792 139.67 76.2353 139.67 76.3044Z" fill="#263238"/>
<path d="M179.493 72.7241C179.493 72.7933 166.928 72.8494 151.431 72.8494C135.929 72.8494 123.366 72.7933 123.366 72.7241C123.366 72.655 135.929 72.5989 151.431 72.5989C166.927 72.5989 179.493 72.6547 179.493 72.7241Z" fill="#263238"/>
<path d="M207.318 61.3076V109.573L199.849 115.835H207.318H208.052H238.912V61.3076H207.318Z" fill="#FAFAFA"/>
<path d="M207.318 61.3077C207.318 61.3077 207.502 61.3029 207.87 61.3005C208.241 61.2988 208.788 61.2964 209.503 61.2929C210.945 61.2892 213.066 61.2834 215.793 61.2762C221.266 61.2676 229.17 61.2553 238.911 61.2402H238.978V61.3077C238.984 75.8759 238.991 94.9036 239 115.835V115.924H238.911C237.173 115.924 235.309 115.924 233.433 115.924C221.536 115.921 210.171 115.919 199.848 115.918H199.621L199.795 115.771C202.376 113.61 204.871 111.52 207.267 109.513L207.239 109.573C207.256 95.1431 207.269 83.0692 207.279 74.5991C207.288 70.3745 207.294 67.0493 207.299 64.7766C207.303 63.6463 207.306 62.7785 207.308 62.1895C207.31 61.9 207.312 61.6796 207.313 61.528C207.315 61.3805 207.318 61.3077 207.318 61.3077C207.318 61.3077 207.321 61.3864 207.322 61.5373C207.323 61.6906 207.324 61.9137 207.326 62.2073C207.328 62.7997 207.332 63.6727 207.336 64.8095C207.34 67.0862 207.347 70.4173 207.356 74.6494C207.366 83.1072 207.379 95.1636 207.396 109.573V109.61L207.368 109.634C204.973 111.643 202.481 113.734 199.901 115.899L199.848 115.752C210.171 115.75 221.536 115.748 233.433 115.746C235.309 115.746 237.173 115.746 238.911 115.746L238.822 115.835C238.831 94.9036 238.839 75.8759 238.844 61.3077L238.911 61.3747C229.187 61.3597 221.297 61.3473 215.834 61.3388C213.101 61.3316 210.975 61.3258 209.529 61.322C208.808 61.3189 208.258 61.3162 207.884 61.3148C207.512 61.3124 207.318 61.3077 207.318 61.3077Z" fill="#263238"/>
<path d="M210.187 63.7094C210.187 64.0646 209.9 64.3524 209.547 64.3524C209.193 64.3524 208.907 64.0646 208.907 63.7094C208.907 63.3542 209.193 63.0664 209.547 63.0664C209.9 63.0661 210.187 63.3542 210.187 63.7094Z" fill="#263238"/>
<path d="M212.504 63.7094C212.504 64.0646 212.218 64.3524 211.864 64.3524C211.511 64.3524 211.224 64.0646 211.224 63.7094C211.224 63.3542 211.511 63.0664 211.864 63.0664C212.217 63.0661 212.504 63.3542 212.504 63.7094Z" fill="#263238"/>
<path d="M214.819 63.7094C214.819 64.0646 214.533 64.3524 214.179 64.3524C213.826 64.3524 213.539 64.0646 213.539 63.7094C213.539 63.3542 213.826 63.0664 214.179 63.0664C214.533 63.0661 214.819 63.3542 214.819 63.7094Z" fill="#263238"/>
<path d="M230.225 78.5803C230.225 78.6371 226.22 78.6833 221.28 78.6833C216.339 78.6833 212.334 78.6371 212.334 78.5803C212.334 78.5235 216.339 78.4773 221.28 78.4773C226.22 78.4773 230.225 78.5235 230.225 78.5803Z" fill="#FF725E"/>
<path d="M233.958 82.9463C233.958 83.0031 229.083 83.0493 223.072 83.0493C217.058 83.0493 212.185 83.0031 212.185 82.9463C212.185 82.8895 217.058 82.8433 223.072 82.8433C229.083 82.8433 233.958 82.8895 233.958 82.9463Z" fill="#FF725E"/>
<path d="M234.844 99.237C234.844 99.2938 229.646 99.34 223.237 99.34C216.825 99.34 211.628 99.2938 211.628 99.237C211.628 99.1802 216.825 99.134 223.237 99.134C229.646 99.1344 234.844 99.1802 234.844 99.237Z" fill="#FF725E"/>
<path d="M214.015 85.1677C214.015 85.2245 213.52 85.2707 212.91 85.2707C212.299 85.2707 211.805 85.2245 211.805 85.1677C211.805 85.1109 212.3 85.0647 212.91 85.0647C213.52 85.0647 214.015 85.1109 214.015 85.1677Z" fill="#FF725E"/>
<path d="M221.638 85.2136C221.638 85.2704 220.563 85.3166 219.237 85.3166C217.91 85.3166 216.835 85.2704 216.835 85.2136C216.835 85.1568 217.91 85.1106 219.237 85.1106C220.563 85.1106 221.638 85.1568 221.638 85.2136Z" fill="#FF725E"/>
<path d="M226.517 85.2136C226.517 85.2704 225.595 85.3166 224.459 85.3166C223.322 85.3166 222.4 85.2704 222.4 85.2136C222.4 85.1568 223.322 85.1106 224.459 85.1106C225.595 85.1106 226.517 85.1568 226.517 85.2136Z" fill="#FF725E"/>
<path d="M213.711 88.0014C213.711 88.0582 213.284 88.1044 212.758 88.1044C212.231 88.1044 211.805 88.0582 211.805 88.0014C211.805 87.9446 212.231 87.8984 212.758 87.8984C213.284 87.8984 213.711 87.9446 213.711 88.0014Z" fill="#FF725E"/>
<path d="M213.787 90.9121C213.787 90.9689 213.343 91.0151 212.796 91.0151C212.248 91.0151 211.805 90.9689 211.805 90.9121C211.805 90.8553 212.248 90.8091 212.796 90.8091C213.343 90.8094 213.787 90.8553 213.787 90.9121Z" fill="#FF725E"/>
<path d="M213.787 94.2058C213.787 94.2626 213.343 94.3088 212.796 94.3088C212.248 94.3088 211.805 94.2626 211.805 94.2058C211.805 94.149 212.248 94.1028 212.796 94.1028C213.343 94.1028 213.787 94.149 213.787 94.2058Z" fill="#FF725E"/>
<path d="M231.853 94.0525C231.853 94.1093 228.542 94.1555 224.458 94.1555C220.373 94.1555 217.063 94.1093 217.063 94.0525C217.063 93.9957 220.373 93.9495 224.458 93.9495C228.542 93.9495 231.853 93.9957 231.853 94.0525Z" fill="#FF725E"/>
<path d="M230.557 90.9121C230.557 90.9689 227.399 91.0151 223.505 91.0151C219.61 91.0151 216.454 90.9689 216.454 90.9121C216.454 90.8553 219.61 90.8091 223.505 90.8091C227.399 90.8094 230.557 90.8553 230.557 90.9121Z" fill="#FF725E"/>
<path d="M215.23 103.586C215.23 103.643 214.786 103.689 214.239 103.689C213.692 103.689 213.248 103.643 213.248 103.586C213.248 103.529 213.692 103.483 214.239 103.483C214.786 103.483 215.23 103.529 215.23 103.586Z" fill="#FF725E"/>
<path d="M215.23 106.88C215.23 106.936 214.786 106.983 214.239 106.983C213.692 106.983 213.248 106.936 213.248 106.88C213.248 106.823 213.692 106.777 214.239 106.777C214.786 106.777 215.23 106.823 215.23 106.88Z" fill="#FF725E"/>
<path d="M233.298 106.727C233.298 106.783 229.987 106.83 225.903 106.83C221.818 106.83 218.508 106.783 218.508 106.727C218.508 106.67 221.818 106.624 225.903 106.624C229.987 106.624 233.298 106.67 233.298 106.727Z" fill="#FF725E"/>
<path d="M232.001 103.586C232.001 103.643 228.843 103.689 224.95 103.689C221.054 103.689 217.897 103.643 217.897 103.586C217.897 103.529 221.054 103.483 224.95 103.483C228.843 103.483 232.001 103.529 232.001 103.586Z" fill="#FF725E"/>
<path d="M235.801 87.8481C235.801 87.9049 231.504 87.9511 226.204 87.9511C220.902 87.9511 216.606 87.9049 216.606 87.8481C216.606 87.7913 220.903 87.7451 226.204 87.7451C231.504 87.7455 235.801 87.7917 235.801 87.8481Z" fill="#FF725E"/>
<path d="M238.613 66.229C238.613 66.2858 231.676 66.332 223.12 66.332C214.561 66.332 207.625 66.2861 207.625 66.229C207.625 66.1722 214.561 66.126 223.12 66.126C231.676 66.1263 238.613 66.1725 238.613 66.229Z" fill="#263238"/>
<path d="M218.873 75.9475C218.873 76.0043 217.408 76.0505 215.601 76.0505C213.793 76.0505 212.328 76.0043 212.328 75.9475C212.328 75.8907 213.793 75.8445 215.601 75.8445C217.408 75.8445 218.873 75.8907 218.873 75.9475Z" fill="#FF725E"/>
<path d="M215.167 69.9924C215.167 70.0492 214.476 70.0954 213.624 70.0954C212.771 70.0954 212.08 70.0492 212.08 69.9924C212.08 69.9356 212.771 69.8894 213.624 69.8894C214.476 69.8897 215.167 69.9356 215.167 69.9924Z" fill="#FF725E"/>
<path d="M187.821 140.278L194.682 133.464L182.447 112.415C181.173 110.951 179.561 109.824 177.752 109.133L173.443 107.488L162.733 105.514L155.128 108.523C153.206 109.283 152.035 111.25 152.279 113.312L154.268 130.136L155.44 152.042L183.073 147.226L180.292 139.124L180.386 126.491L187.821 140.278Z" fill="#FF725E"/>
<path d="M180.546 138.586C180.611 138.586 180.628 134.209 180.584 128.813C180.54 123.414 180.452 119.04 180.387 119.04C180.322 119.041 180.306 123.416 180.35 128.815C180.394 134.211 180.482 138.587 180.546 138.586Z" fill="#263238"/>
<path d="M179.533 141.797L162.837 135.044C161.49 134.499 160.568 133.234 160.457 131.779L159.235 115.696C159.235 115.696 159.38 108.855 155.127 108.522L152.708 109.479C149.581 111.148 148.807 115.722 149.233 119.253C149.837 124.27 150.089 131.371 150.766 135.726C151.319 139.288 153.449 142.106 156.821 143.339L177.386 147.813L179.533 141.797Z" fill="#FF725E"/>
<path d="M159.477 118.149C159.485 118.149 159.503 118.276 159.53 118.518C159.556 118.78 159.592 119.133 159.637 119.577C159.723 120.52 159.843 121.847 159.99 123.478C160.132 125.132 160.299 127.091 160.485 129.265C160.531 129.81 160.578 130.368 160.625 130.938C160.675 131.508 160.709 132.092 160.838 132.658C160.961 133.227 161.233 133.76 161.669 134.166C162.101 134.573 162.644 134.871 163.209 135.129C167.813 137.13 172.056 138.783 175.137 139.942C176.666 140.508 177.91 140.968 178.793 141.296C179.21 141.45 179.542 141.573 179.788 141.664C180.014 141.75 180.132 141.799 180.13 141.806C180.127 141.814 180.004 141.779 179.773 141.707C179.524 141.625 179.188 141.516 178.765 141.378C177.891 141.087 176.631 140.651 175.082 140.091C171.984 138.969 167.734 137.34 163.116 135.333C162.542 135.07 161.978 134.763 161.516 134.328C161.049 133.895 160.749 133.302 160.626 132.708C160.492 132.113 160.461 131.525 160.413 130.957C160.368 130.386 160.324 129.828 160.281 129.283C160.113 127.107 159.961 125.147 159.833 123.491C159.715 121.858 159.619 120.528 159.551 119.584C159.523 119.138 159.501 118.784 159.485 118.521C159.473 118.278 159.47 118.15 159.477 118.149Z" fill="#263238"/>
<path d="M149.908 126.893C149.916 126.892 149.927 126.967 149.941 127.109C149.956 127.276 149.974 127.481 149.996 127.73C150.046 128.303 150.113 129.074 150.194 130.012C150.286 130.974 150.402 132.12 150.568 133.386C150.74 134.65 150.943 136.045 151.322 137.461C151.502 138.176 151.755 138.836 152.137 139.403C152.52 139.975 152.945 140.488 153.384 140.943C154.267 141.85 155.21 142.515 156.056 142.957C157.765 143.849 159.006 143.862 158.989 143.921C158.988 143.929 158.913 143.927 158.771 143.916C158.629 143.906 158.419 143.89 158.154 143.836C157.621 143.742 156.856 143.532 155.984 143.098C155.114 142.667 154.145 142.004 153.238 141.088C152.786 140.629 152.349 140.108 151.956 139.526C151.556 138.942 151.285 138.236 151.107 137.52C150.722 136.083 150.525 134.684 150.364 133.413C150.208 132.14 150.108 130.991 150.037 130.025C149.966 129.059 149.929 128.276 149.909 127.735C149.904 127.485 149.899 127.28 149.896 127.111C149.896 126.968 149.901 126.893 149.908 126.893Z" fill="#263238"/>
<path d="M157.048 138.147C157.026 138.141 157.097 137.782 157.352 137.254C157.605 136.726 158.073 136.044 158.754 135.457C159.438 134.873 160.182 134.515 160.74 134.347C161.3 134.176 161.664 134.162 161.666 134.185C161.673 134.223 161.323 134.292 160.792 134.497C160.261 134.699 159.558 135.064 158.899 135.628C158.243 136.194 157.773 136.834 157.491 137.329C157.208 137.823 157.084 138.16 157.048 138.147Z" fill="#263238"/>
<g opacity="0.3">
<path d="M174.738 139.88C172.953 138.867 171.206 138.088 169.339 137.236C167.472 136.383 165.644 135.289 164.422 133.634C162.118 130.514 162.38 126.01 160.022 122.931C160.176 125.002 160.33 127.072 160.484 129.143C160.625 131.041 160.336 132.917 161.553 134.207C162.578 135.294 164.576 136.126 165.991 136.595C168.833 137.538 171.895 138.937 174.738 139.88Z" fill="black"/>
</g>
<path opacity="0.3" d="M180.392 120.225L181.836 129.176L180.469 126.641L180.392 120.225Z" fill="black"/>
<path d="M158.974 114.702C158.973 114.715 158.836 114.725 158.587 114.732C158.3 114.739 157.948 114.748 157.534 114.759C156.645 114.781 155.418 114.826 154.066 114.923C152.713 115.021 151.492 115.152 150.609 115.257C150.197 115.306 149.848 115.348 149.563 115.382C149.316 115.41 149.178 115.42 149.176 115.408C149.174 115.396 149.308 115.362 149.552 115.313C149.796 115.263 150.152 115.201 150.592 115.132C151.472 114.995 152.696 114.844 154.053 114.745C155.41 114.648 156.642 114.623 157.533 114.633C157.978 114.638 158.339 114.648 158.588 114.663C158.836 114.677 158.974 114.69 158.974 114.702Z" fill="#455A64"/>
<path d="M159.449 123.268C159.453 123.317 157.264 123.539 154.561 123.764C151.857 123.988 149.662 124.131 149.658 124.082C149.654 124.033 151.843 123.811 154.547 123.586C157.25 123.362 159.445 123.219 159.449 123.268Z" fill="#455A64"/>
<path d="M160.253 132.274C160.259 132.285 160.135 132.355 159.907 132.473C159.68 132.592 159.343 132.749 158.92 132.928C158.076 133.287 156.874 133.71 155.506 134.019C154.136 134.325 152.87 134.458 151.954 134.495C151.495 134.514 151.124 134.517 150.868 134.506C150.611 134.497 150.47 134.486 150.47 134.474C150.47 134.462 150.612 134.449 150.867 134.437C151.122 134.426 151.491 134.404 151.946 134.369C152.856 134.301 154.109 134.149 155.467 133.845C156.824 133.538 158.022 133.139 158.874 132.811C159.3 132.648 159.643 132.509 159.878 132.41C160.114 132.312 160.248 132.263 160.253 132.274Z" fill="#455A64"/>
<path d="M166.19 136.892C166.219 136.942 165.32 137.342 164.535 138.227C163.739 139.102 163.434 140.041 163.382 140.018C163.362 140.011 163.41 139.77 163.566 139.405C163.72 139.041 163.998 138.56 164.403 138.108C164.81 137.657 165.257 137.33 165.602 137.139C165.948 136.946 166.182 136.873 166.19 136.892Z" fill="#455A64"/>
<path d="M172.229 142.822C172.185 142.812 172.379 141.976 172.884 141.056C173.384 140.132 173.981 139.518 174.013 139.549C174.054 139.583 173.529 140.237 173.04 141.141C172.546 142.042 172.28 142.838 172.229 142.822Z" fill="#455A64"/>
<path d="M162.711 109.665C162.72 109.713 161.663 109.946 160.35 110.184C159.037 110.423 157.966 110.577 157.958 110.528C157.949 110.48 159.006 110.247 160.319 110.009C161.631 109.77 162.703 109.616 162.711 109.665Z" fill="#455A64"/>
<path d="M178.696 110.395C178.691 110.444 177.225 110.31 175.422 110.095C173.62 109.88 172.163 109.666 172.169 109.617C172.175 109.568 173.64 109.703 175.443 109.918C177.246 110.133 178.702 110.347 178.696 110.395Z" fill="#455A64"/>
<path d="M180.061 117.864C180.061 117.87 179.989 117.875 179.852 117.878C179.696 117.879 179.498 117.881 179.253 117.883C178.71 117.882 177.963 117.881 177.05 117.88C175.19 117.878 172.621 117.894 169.785 117.967C166.947 118.041 164.38 118.157 162.523 118.255C161.612 118.303 160.866 118.343 160.324 118.371C160.079 118.382 159.881 118.391 159.725 118.398C159.588 118.402 159.516 118.401 159.516 118.395C159.515 118.388 159.586 118.377 159.723 118.362C159.878 118.346 160.076 118.327 160.319 118.302C160.837 118.253 161.588 118.194 162.516 118.129C164.373 117.999 166.941 117.862 169.781 117.788C172.62 117.716 175.191 117.72 177.052 117.754C177.983 117.77 178.735 117.791 179.255 117.813C179.5 117.825 179.698 117.834 179.854 117.842C179.989 117.851 180.061 117.858 180.061 117.864Z" fill="#455A64"/>
<path d="M180.257 127.323C180.26 127.372 175.88 127.702 170.474 128.06C165.067 128.417 160.682 128.667 160.679 128.618C160.676 128.569 165.055 128.239 170.463 127.882C175.868 127.524 180.254 127.274 180.257 127.323Z" fill="#455A64"/>
<path d="M179.792 135.656C179.796 135.668 179.665 135.724 179.423 135.814C179.183 135.906 178.831 136.029 178.393 136.172C177.518 136.459 176.297 136.819 174.931 137.15C173.565 137.48 172.314 137.716 171.405 137.86C170.95 137.932 170.581 137.984 170.325 138.012C170.069 138.041 169.927 138.052 169.925 138.039C169.924 138.027 170.062 137.994 170.314 137.944C170.603 137.888 170.96 137.818 171.383 137.736C172.285 137.561 173.527 137.306 174.89 136.977C176.251 136.648 177.474 136.308 178.356 136.052C178.769 135.932 179.119 135.831 179.402 135.749C179.649 135.678 179.788 135.645 179.792 135.656Z" fill="#455A64"/>
<path d="M186.798 120.551C186.81 120.599 185.386 121.01 183.617 121.47C181.848 121.929 180.404 122.263 180.392 122.216C180.38 122.168 181.804 121.757 183.573 121.297C185.342 120.838 186.786 120.504 186.798 120.551Z" fill="#455A64"/>
<path d="M183.457 114.158C183.465 114.206 182.834 114.361 182.047 114.503C181.26 114.645 180.615 114.721 180.606 114.673C180.597 114.625 181.228 114.47 182.015 114.328C182.803 114.185 183.448 114.109 183.457 114.158Z" fill="#455A64"/>
<path d="M159.527 116.142C159.493 116.149 159.441 115.574 159.129 114.714C158.824 113.858 158.205 112.72 157.173 111.787C156.139 110.855 154.947 110.357 154.067 110.144C153.183 109.924 152.609 109.934 152.611 109.898C152.611 109.888 152.754 109.876 153.012 109.883C153.269 109.89 153.643 109.925 154.096 110.021C154.997 110.206 156.23 110.697 157.291 111.654C158.351 112.612 158.968 113.791 159.247 114.672C159.39 115.114 159.465 115.484 159.499 115.74C159.534 115.998 159.538 116.141 159.527 116.142Z" fill="#263238"/>
<path d="M179.421 111.579C179.47 111.571 179.733 112.972 180.009 114.708C180.286 116.444 180.471 117.858 180.423 117.865C180.374 117.873 180.111 116.472 179.834 114.736C179.558 113.001 179.373 111.587 179.421 111.579Z" fill="#263238"/>
<path d="M198.03 162.017C198.03 162.017 210.864 165.586 211.379 165.768C212.152 166.041 212.022 168.887 210.819 168.843C210.25 168.822 200.961 169.191 199.788 169.117C198.614 169.043 195.073 167.641 195.073 167.641L198.03 162.017Z" fill="#FF725E"/>
<path d="M203.379 166.937C203.444 166.946 203.53 166.264 203.945 165.553C204.349 164.835 204.892 164.418 204.852 164.366C204.83 164.316 204.192 164.68 203.758 165.445C203.318 166.206 203.325 166.943 203.379 166.937Z" fill="#263238"/>
<path d="M202.039 166.328C202.102 166.339 202.232 165.729 202.574 165.056C202.909 164.378 203.319 163.911 203.273 163.866C203.237 163.824 202.736 164.246 202.382 164.958C202.023 165.668 201.984 166.324 202.039 166.328Z" fill="#263238"/>
<path d="M200.783 165.99C200.847 165.986 200.798 165.342 201.083 164.627C201.356 163.908 201.827 163.469 201.782 163.422C201.756 163.373 201.181 163.771 200.883 164.549C200.577 165.323 200.731 166.008 200.783 165.99Z" fill="#263238"/>
<path d="M201.011 164.325C201.033 164.33 201.147 163.97 201.148 163.365C201.147 163.064 201.113 162.703 201.018 162.314C200.971 162.119 200.908 161.918 200.827 161.715C200.785 161.613 200.738 161.495 200.621 161.399C200.502 161.291 200.284 161.314 200.18 161.421C200.063 161.524 200.025 161.669 200.009 161.786C199.997 161.904 199.99 162.015 199.993 162.126C199.996 162.348 200.024 162.561 200.072 162.757C200.167 163.151 200.32 163.481 200.467 163.743C200.766 164.266 201.026 164.534 201.044 164.519C201.073 164.498 200.858 164.198 200.602 163.672C200.476 163.409 200.344 163.086 200.266 162.713C200.226 162.528 200.204 162.329 200.204 162.124C200.209 161.926 200.207 161.678 200.322 161.583C200.383 161.532 200.438 161.529 200.491 161.569C200.548 161.612 200.596 161.701 200.632 161.794C200.711 161.987 200.776 162.178 200.827 162.363C200.928 162.734 200.976 163.079 200.996 163.37C201.034 163.954 200.975 164.319 201.011 164.325Z" fill="#263238"/>
<path d="M200.994 164.193C201 164.17 200.69 164.063 200.166 164.059C199.906 164.059 199.593 164.086 199.256 164.171C199.09 164.217 198.911 164.26 198.731 164.365C198.556 164.455 198.372 164.7 198.441 164.955C198.496 165.195 198.701 165.362 198.904 165.415C199.108 165.472 199.306 165.452 199.479 165.414C199.831 165.332 200.105 165.158 200.313 165.002C200.725 164.677 200.925 164.429 200.91 164.411C200.887 164.384 200.644 164.596 200.226 164.876C200.016 165.011 199.752 165.157 199.439 165.218C199.283 165.248 199.115 165.258 198.963 165.212C198.812 165.17 198.687 165.055 198.651 164.905C198.614 164.761 198.701 164.63 198.842 164.546C198.979 164.46 199.149 164.411 199.307 164.363C199.625 164.272 199.922 164.23 200.172 164.212C200.674 164.176 200.989 164.228 200.994 164.193Z" fill="#263238"/>
<path d="M205.35 167.075C205.413 167.068 205.35 166.517 205.603 165.913C205.843 165.303 206.271 164.953 206.231 164.903C206.21 164.85 205.673 165.156 205.404 165.831C205.126 166.503 205.297 167.098 205.35 167.075Z" fill="#263238"/>
<path d="M196.392 167.67C196.386 167.684 196.562 167.767 196.888 167.905C197.218 168.03 197.7 168.206 198.316 168.35C199.544 168.66 201.293 168.837 203.216 168.816C205.139 168.795 206.872 168.707 208.129 168.656C208.724 168.624 209.222 168.598 209.616 168.577C209.967 168.554 210.161 168.534 210.16 168.519C210.16 168.504 209.965 168.495 209.613 168.493C209.219 168.496 208.72 168.499 208.124 168.504C206.824 168.529 205.11 168.563 203.214 168.6C201.301 168.62 199.572 168.47 198.349 168.201C197.123 167.948 196.407 167.631 196.392 167.67Z" fill="#263238"/>
<path d="M196.017 167.964C196.034 167.994 196.386 167.788 196.979 167.527C197.564 167.274 198.443 166.971 199.407 167.121C200.374 167.27 201.06 167.922 201.506 168.376C201.956 168.845 202.22 169.157 202.246 169.135C202.265 169.119 202.046 168.776 201.618 168.272C201.401 168.023 201.126 167.734 200.767 167.473C200.411 167.21 199.953 166.987 199.441 166.908C198.406 166.749 197.495 167.096 196.914 167.389C196.326 167.691 196.004 167.943 196.017 167.964Z" fill="#263238"/>
<path d="M182.844 159.024C182.844 159.024 170.699 167.013 170.264 167.343C169.61 167.84 170.36 170.204 171.493 169.795C172.029 169.601 182.219 166.753 183.315 166.324C184.411 165.896 187.361 163.48 187.361 163.48L182.844 159.024Z" fill="#FF725E"/>
<path d="M179.234 165.343C179.287 165.331 179.072 164.628 178.422 164.037C177.778 163.44 177.06 163.288 177.054 163.342C177.031 163.403 177.675 163.636 178.277 164.196C178.887 164.747 179.175 165.371 179.234 165.343Z" fill="#263238"/>
<path d="M180.326 164.354C180.377 164.334 180.142 163.721 179.585 163.154C179.033 162.582 178.428 162.334 178.407 162.385C178.376 162.441 178.908 162.762 179.432 163.305C179.961 163.842 180.269 164.383 180.326 164.354Z" fill="#263238"/>
<path d="M181.421 163.649C181.476 163.651 181.415 162.951 180.89 162.307C180.371 161.656 179.702 161.453 179.693 161.507C179.664 161.565 180.246 161.841 180.723 162.443C181.21 163.036 181.358 163.665 181.421 163.649Z" fill="#263238"/>
<path d="M180.702 162.131C180.734 162.116 180.568 161.786 180.427 161.218C180.358 160.935 180.3 160.591 180.284 160.207C180.276 160.015 180.28 159.814 180.298 159.606C180.304 159.506 180.323 159.407 180.363 159.348C180.402 159.294 180.456 159.28 180.53 159.31C180.668 159.365 180.741 159.603 180.806 159.789C180.868 159.984 180.906 160.18 180.925 160.369C180.963 160.748 180.935 161.096 180.894 161.385C180.809 161.965 180.695 162.317 180.729 162.327C180.751 162.335 180.917 162.001 181.044 161.412C181.105 161.118 181.151 160.756 181.122 160.352C181.108 160.15 181.071 159.939 181.007 159.726C180.976 159.619 180.936 159.516 180.888 159.407C180.838 159.301 180.758 159.174 180.615 159.111C180.484 159.041 180.27 159.086 180.188 159.225C180.106 159.352 180.097 159.479 180.088 159.589C180.073 159.806 180.073 160.018 180.087 160.217C180.115 160.617 180.191 160.971 180.281 161.259C180.465 161.835 180.682 162.144 180.702 162.131Z" fill="#263238"/>
<path d="M180.677 162.001C180.693 162.033 180.977 161.888 181.466 161.768C181.711 161.71 182.006 161.659 182.336 161.649C182.501 161.646 182.678 161.641 182.835 161.68C182.994 161.717 183.117 161.816 183.125 161.965C183.136 162.118 183.052 162.266 182.92 162.352C182.79 162.443 182.627 162.485 182.469 162.504C182.152 162.541 181.857 162.482 181.615 162.418C181.132 162.278 180.837 162.15 180.823 162.184C180.814 162.205 181.08 162.38 181.57 162.564C181.815 162.649 182.129 162.732 182.489 162.702C182.666 162.685 182.861 162.644 183.038 162.527C183.216 162.416 183.36 162.193 183.34 161.948C183.329 161.684 183.08 161.507 182.885 161.475C182.682 161.429 182.499 161.442 182.327 161.45C181.98 161.472 181.674 161.541 181.426 161.621C180.927 161.784 180.665 161.981 180.677 162.001Z" fill="#263238"/>
<path d="M173.039 169.349C173.053 169.368 173.243 169.225 173.336 168.876C173.437 168.535 173.373 168.011 173.108 167.552C172.981 167.32 172.836 167.12 172.701 166.943C172.569 166.765 172.431 166.605 172.289 166.498C172.149 166.388 172.002 166.339 171.901 166.335C171.799 166.331 171.748 166.356 171.749 166.368C171.749 166.402 171.966 166.386 172.191 166.615C172.305 166.724 172.418 166.877 172.541 167.059C172.666 167.241 172.801 167.438 172.92 167.655C173.166 168.085 173.239 168.531 173.187 168.845C173.143 169.161 173.01 169.328 173.039 169.349Z" fill="#263238"/>
<path d="M177.399 166.076C177.455 166.082 177.438 165.462 176.971 164.907C176.51 164.346 175.907 164.219 175.902 164.275C175.879 164.335 176.393 164.538 176.806 165.045C177.229 165.544 177.336 166.089 177.399 166.076Z" fill="#263238"/>
<path d="M186.112 163.911C186.102 163.898 185.916 164.036 185.579 164.279C185.237 164.516 184.735 164.849 184.081 165.201C183.428 165.553 182.622 165.918 181.703 166.264C180.783 166.609 179.752 166.933 178.661 167.251C176.477 167.883 174.498 168.461 173.072 168.893C172.387 169.104 171.819 169.279 171.384 169.413C170.987 169.541 170.769 169.618 170.773 169.632C170.778 169.647 171.003 169.597 171.407 169.494C171.847 169.377 172.422 169.224 173.113 169.039C174.552 168.646 176.535 168.091 178.722 167.459C179.815 167.14 180.851 166.808 181.774 166.45C182.696 166.092 183.505 165.708 184.155 165.334C184.806 164.962 185.3 164.606 185.629 164.346C185.953 164.08 186.121 163.921 186.112 163.911Z" fill="#263238"/>
<path d="M186.562 164.075C186.568 164.051 186.186 163.909 185.533 163.8C184.892 163.699 183.919 163.646 182.981 164.113C182.516 164.344 182.148 164.697 181.888 165.055C181.625 165.414 181.45 165.773 181.319 166.077C181.063 166.687 180.958 167.081 180.982 167.09C181.013 167.103 181.17 166.725 181.457 166.141C181.745 165.573 182.201 164.742 183.078 164.305C183.951 163.868 184.88 163.888 185.514 163.95C186.158 164.019 186.555 164.108 186.562 164.075Z" fill="#263238"/>
<path d="M208.088 139.045C208.088 139.045 211.732 140.352 211.747 144.456C211.776 152.318 195.936 160.984 195.936 160.984L174.857 146.952L173.536 146.415C173.536 146.415 201.991 135.676 208.088 139.045Z" fill="#263238"/>
<path d="M185.535 154.039C185.544 154.051 185.739 153.917 186.084 153.665C186.429 153.414 186.922 153.04 187.525 152.572C188.732 151.634 190.374 150.306 192.141 148.783C193.907 147.258 195.462 145.828 196.567 144.772C197.12 144.243 197.561 143.81 197.861 143.505C198.161 143.201 198.322 143.028 198.312 143.017C198.302 143.006 198.121 143.159 197.803 143.444C197.459 143.757 197.008 144.166 196.464 144.66C195.334 145.687 193.765 147.097 192.001 148.619C190.237 150.14 188.613 151.485 187.431 152.452C186.863 152.918 186.392 153.305 186.032 153.6C185.703 153.871 185.525 154.028 185.535 154.039Z" fill="#455A64"/>
<path d="M202.136 141.984C202.144 141.931 201.204 141.839 200.105 142.169C199.003 142.491 198.264 143.081 198.299 143.122C198.334 143.178 199.103 142.686 200.166 142.376C201.226 142.056 202.137 142.05 202.136 141.984Z" fill="#455A64"/>
<path d="M200.319 140.744C200.3 140.693 199.625 140.992 199.07 141.688C198.508 142.38 198.36 143.107 198.414 143.115C198.475 143.136 198.705 142.477 199.236 141.824C199.759 141.165 200.353 140.8 200.319 140.744Z" fill="#455A64"/>
<path d="M209.246 165.638C209.257 165.613 208.995 165.562 208.703 165.804C208.416 166.034 208.172 166.495 208.094 167.033C208.014 167.575 208.134 168.072 208.286 168.388C208.435 168.71 208.599 168.861 208.617 168.846C208.646 168.826 208.531 168.647 208.427 168.332C208.319 168.02 208.234 167.56 208.306 167.063C208.378 166.57 208.58 166.142 208.805 165.917C209.029 165.681 209.251 165.672 209.246 165.638Z" fill="#263238"/>
<path d="M206.579 127.878L200.582 144.109C200.239 145.036 199.354 145.646 198.369 145.633L165.36 145.196V142.676L177.609 143.126L182.809 126.925C182.985 126.377 183.493 126.007 184.066 126.008L205.359 126.07C206.285 126.073 206.919 127.012 206.579 127.878Z" fill="#E0E0E0"/>
<path d="M206.58 127.878C206.58 127.878 206.584 127.861 206.594 127.827C206.601 127.793 206.624 127.745 206.635 127.676C206.665 127.542 206.688 127.33 206.621 127.067C206.552 126.809 206.382 126.492 206.042 126.282C205.875 126.178 205.669 126.106 205.442 126.092C205.215 126.081 204.969 126.089 204.709 126.087C202.628 126.085 199.607 126.081 195.826 126.076C193.934 126.073 191.851 126.069 189.602 126.065C188.477 126.062 187.311 126.06 186.105 126.057C185.502 126.056 184.89 126.054 184.268 126.053C183.956 126.037 183.651 126.077 183.389 126.247C183.131 126.41 182.931 126.668 182.843 126.969C181.272 131.868 179.525 137.317 177.658 143.142L177.647 143.179L177.607 143.178C173.701 143.035 169.586 142.885 165.359 142.73L165.414 142.677C165.414 142.818 165.414 142.972 165.414 143.126C165.414 143.835 165.414 144.542 165.414 145.197L165.361 145.143C172.746 145.243 179.756 145.337 186.119 145.423C189.3 145.466 192.319 145.508 195.143 145.547C195.848 145.557 196.542 145.566 197.222 145.576C197.563 145.581 197.9 145.585 198.234 145.59C198.566 145.604 198.891 145.564 199.194 145.449C199.798 145.226 200.287 144.746 200.516 144.17C200.736 143.58 200.951 143.003 201.161 142.44C202.834 137.932 204.185 134.292 205.119 131.773C205.587 130.52 205.95 129.547 206.198 128.882C206.445 128.222 206.58 127.878 206.58 127.878C206.58 127.878 206.458 128.227 206.217 128.89C205.973 129.557 205.616 130.532 205.157 131.788C204.229 134.309 202.889 137.953 201.229 142.466C201.02 143.03 200.806 143.608 200.587 144.199C200.351 144.795 199.846 145.293 199.221 145.525C198.91 145.645 198.566 145.686 198.232 145.673C197.898 145.669 197.561 145.665 197.221 145.66C196.54 145.652 195.847 145.643 195.141 145.634C192.318 145.598 189.299 145.56 186.118 145.52C179.755 145.437 172.744 145.346 165.36 145.25L165.307 145.249V145.196C165.307 144.541 165.307 143.835 165.307 143.126C165.307 142.972 165.307 142.818 165.307 142.676V142.621L165.362 142.623C169.59 142.779 173.705 142.93 177.611 143.074L177.56 143.11C179.432 137.287 181.183 131.839 182.758 126.941C182.851 126.623 183.066 126.345 183.342 126.171C183.617 125.989 183.963 125.947 184.268 125.965C184.89 125.967 185.503 125.969 186.105 125.971C187.311 125.976 188.477 125.98 189.602 125.984C191.852 125.993 193.934 126.001 195.826 126.009C199.607 126.026 202.628 126.04 204.71 126.05C204.97 126.054 205.213 126.048 205.444 126.06C205.676 126.075 205.886 126.151 206.056 126.258C206.401 126.475 206.572 126.799 206.639 127.061C206.703 127.329 206.677 127.543 206.644 127.677C206.609 127.813 206.58 127.878 206.58 127.878Z" fill="#263238"/>
<path d="M191.943 134.015C192.371 133.724 193.162 133.841 193.548 134.188C193.933 134.535 194.058 135.135 193.862 135.616C193.666 136.097 193.173 136.434 192.656 136.462C192.108 136.491 191.535 136.146 191.382 135.616C191.228 135.086 191.399 134.295 191.943 134.015Z" fill="white"/>
<path d="M199.49 161.868C199.49 161.868 169.742 142.723 168.428 141.972C167.311 141.333 164.322 139.484 161.375 140.301C158.428 141.118 155.786 143.772 154.465 147.652C153.71 149.869 153.353 153.651 153.186 156.487C152.986 159.878 154.031 163.26 156.239 165.833C157.244 167.003 158.483 168.022 159.952 168.481C160.262 168.578 160.584 168.662 160.915 168.734C166.546 169.96 172.332 167.421 175.496 162.583L176.191 161.52C176.191 161.52 195.673 168.711 195.978 168.609L199.49 161.868Z" fill="#263238"/>
<path d="M169.964 143.033C169.962 143.035 169.936 143.02 169.889 142.989C169.833 142.951 169.765 142.904 169.681 142.846C169.499 142.719 169.231 142.533 168.877 142.305C168.171 141.852 167.126 141.207 165.718 140.692C165.014 140.44 164.212 140.236 163.338 140.188C162.466 140.15 161.521 140.281 160.601 140.636C159.68 140.983 158.785 141.536 157.972 142.239C157.565 142.59 157.171 142.976 156.804 143.391C156.441 143.809 156.121 144.276 155.838 144.772C155.273 145.766 154.854 146.814 154.555 147.852C154.274 148.894 154.05 149.925 153.836 150.897C153.412 152.847 153.183 154.634 153.151 156.141C153.127 157.649 153.278 158.866 153.422 159.696C153.487 160.113 153.561 160.432 153.605 160.65C153.625 160.751 153.641 160.832 153.654 160.899C153.664 160.955 153.668 160.984 153.665 160.985C153.662 160.986 153.652 160.958 153.636 160.903C153.619 160.838 153.597 160.757 153.571 160.658C153.515 160.443 153.43 160.125 153.354 159.708C153.189 158.879 153.018 157.658 153.026 156.14C153.041 154.622 153.259 152.821 153.676 150.864C153.887 149.884 154.105 148.862 154.387 147.804C154.688 146.753 155.109 145.694 155.684 144.684C155.971 144.18 156.298 143.704 156.67 143.275C157.046 142.851 157.443 142.463 157.858 142.107C158.686 141.394 159.6 140.833 160.543 140.483C161.485 140.124 162.453 139.996 163.345 140.041C164.239 140.097 165.051 140.312 165.76 140.574C167.178 141.11 168.217 141.776 168.914 142.247C169.263 142.485 169.526 142.681 169.701 142.817C169.781 142.881 169.846 142.933 169.899 142.975C169.944 143.01 169.965 143.03 169.964 143.033Z" fill="#455A64"/>
<path d="M162.644 156.466C162.644 156.466 162.698 156.494 162.808 156.538C162.925 156.585 163.087 156.65 163.295 156.733C163.734 156.903 164.369 157.148 165.183 157.463C166.839 158.09 169.229 158.994 172.2 160.119C175.18 161.236 178.751 162.565 182.756 164.029C186.763 165.492 191.202 167.098 195.943 168.711L196.029 168.741L196.071 168.659C196.816 167.231 197.601 165.724 198.398 164.195C198.804 163.415 199.208 162.641 199.584 161.918L199.63 161.83L199.547 161.778C190.604 156.074 182.603 150.971 176.83 147.288C173.947 145.461 171.62 143.987 170.006 142.964C169.206 142.463 168.584 142.072 168.152 141.802C167.946 141.675 167.785 141.576 167.668 141.504C167.559 141.438 167.5 141.409 167.5 141.409C167.5 141.409 167.551 141.45 167.657 141.522C167.771 141.598 167.928 141.702 168.13 141.837C168.557 142.115 169.172 142.517 169.963 143.032C171.569 144.069 173.883 145.562 176.751 147.413C182.515 151.11 190.502 156.232 199.431 161.958L199.394 161.818C199.017 162.54 198.614 163.314 198.208 164.094C197.411 165.623 196.626 167.131 195.882 168.559L196.01 168.508C191.272 166.899 186.83 165.301 182.82 163.849C178.817 162.385 175.241 161.078 172.249 159.984C169.268 158.885 166.871 158.002 165.21 157.389C164.39 157.09 163.751 156.856 163.309 156.694C163.098 156.619 162.934 156.561 162.814 156.518C162.703 156.481 162.644 156.466 162.644 156.466Z" fill="#455A64"/>
<path d="M164.185 92.9522C163.665 91.927 163.142 90.8908 162.863 89.7748C162.584 88.6592 162.566 87.4406 163.039 86.3931C163.316 85.7805 163.752 85.2436 163.969 84.6074C164.268 83.7317 164.146 82.6986 164.685 81.9481C165.529 80.7753 167.333 81.0488 168.637 80.4345C169.653 79.9561 170.362 78.9243 171.43 78.5801C172.363 78.2793 173.38 78.5677 174.281 78.9551C175.182 79.3425 176.061 79.836 177.032 79.964C177.725 80.0553 178.427 79.9547 179.125 79.9694C179.824 79.9845 180.565 80.1399 181.057 80.6385C181.549 81.1371 181.652 82.0576 181.12 82.5121C182.342 82.3037 183.493 83.5295 183.477 84.7744C183.461 86.0194 182.527 87.1155 181.4 87.6333C180.273 88.151 178.986 88.1849 177.751 88.0881C174.253 87.8143 170.739 86.4783 168.357 83.8895" fill="#FF725E"/>
<path d="M164.943 88.5549L162.56 105.956C162.155 108.915 164.297 111.613 167.258 111.873C170.022 112.117 172.49 110.134 172.865 107.372C173.043 106.062 173.194 104.97 173.221 104.837C173.221 104.837 177.687 105.03 178.606 100.689C179.05 98.5916 179.615 94.1966 180.079 90.2146C180.579 85.938 177.72 81.9947 173.517 81.1511L173.099 81.0673C168.541 80.4273 165.454 83.9593 164.943 88.5549Z" fill="#FFBE9D"/>
<path d="M173.236 104.775C173.236 104.775 170.455 104.45 167.911 102.03C167.911 102.03 168.623 105.429 173.022 105.905L173.236 104.775Z" fill="#EB996E"/>
<path d="M178.13 93.9138C178.077 94.2443 177.754 94.4709 177.409 94.4209C177.065 94.371 176.829 94.0633 176.883 93.7327C176.937 93.4025 177.259 93.1749 177.604 93.2249C177.948 93.2749 178.184 93.5835 178.13 93.9138Z" fill="#263238"/>
<path d="M178.722 92.1634C178.629 92.2291 178.23 91.7866 177.564 91.6548C176.9 91.5135 176.343 91.7596 176.288 91.6631C176.259 91.6196 176.367 91.4892 176.61 91.3763C176.85 91.2634 177.237 91.1843 177.652 91.2695C178.066 91.3551 178.384 91.5782 178.553 91.7756C178.726 91.9741 178.767 92.1346 178.722 92.1634Z" fill="#263238"/>
<path d="M171.925 92.8373C171.871 93.1679 171.548 93.3944 171.203 93.3444C170.859 93.2945 170.624 92.9868 170.678 92.6562C170.731 92.326 171.054 92.0988 171.398 92.1484C171.743 92.1987 171.978 92.507 171.925 92.8373Z" fill="#263238"/>
<path d="M172.159 90.975C172.066 91.0407 171.666 90.5982 171.001 90.4665C170.337 90.3252 169.781 90.5712 169.725 90.4747C169.696 90.4312 169.803 90.3009 170.047 90.1879C170.287 90.075 170.674 89.996 171.088 90.0808C171.503 90.1664 171.821 90.3898 171.99 90.5869C172.163 90.7858 172.204 90.9463 172.159 90.975Z" fill="#263238"/>
<path d="M173.582 96.4186C173.587 96.3799 174.015 96.3912 174.702 96.4394C174.875 96.4559 175.043 96.4542 175.095 96.3436C175.16 96.2283 175.125 96.0298 175.082 95.8149C175.004 95.3697 174.923 94.9029 174.838 94.4139C174.509 92.4226 174.306 90.7991 174.386 90.7865C174.466 90.7738 174.798 92.3774 175.128 94.3687C175.205 94.8591 175.279 95.3262 175.349 95.7735C175.375 95.9805 175.442 96.2228 175.304 96.4613C175.233 96.5797 175.09 96.6475 174.975 96.655C174.859 96.6667 174.763 96.6492 174.678 96.6376C173.996 96.538 173.577 96.4569 173.582 96.4186Z" fill="#263238"/>
<path d="M171.533 96.4879C171.642 96.5033 171.499 97.2292 172.015 97.8688C172.529 98.5094 173.316 98.5826 173.301 98.6853C173.302 98.7328 173.102 98.7917 172.775 98.7356C172.454 98.6825 172.009 98.4861 171.693 98.095C171.379 97.7031 171.301 97.2494 171.335 96.9465C171.368 96.6371 171.484 96.4736 171.533 96.4879Z" fill="#263238"/>
<path d="M172.848 88.3888C172.746 88.5575 172.098 88.3378 171.299 88.2759C170.501 88.1975 169.825 88.3009 169.754 88.1171C169.723 88.0298 169.867 87.8806 170.157 87.7561C170.444 87.6308 170.88 87.5446 171.359 87.5863C171.838 87.6291 172.252 87.7899 172.514 87.9631C172.777 88.1366 172.893 88.3084 172.848 88.3888Z" fill="#FF725E"/>
<path d="M178.865 90.179C178.718 90.3074 178.291 90.0576 177.741 89.9395C177.195 89.8019 176.702 89.8372 176.627 89.6568C176.595 89.5702 176.699 89.433 176.931 89.33C177.161 89.227 177.52 89.1777 177.897 89.265C178.273 89.3529 178.574 89.5566 178.735 89.7506C178.899 89.946 178.932 90.1154 178.865 90.179Z" fill="#FF725E"/>
<path d="M164.655 91.8475C164.588 91.8007 161.856 90.3658 161.359 93.3598C160.862 96.3534 163.956 96.2374 163.975 96.1522C163.994 96.0673 164.655 91.8475 164.655 91.8475Z" fill="#FFBE9D"/>
<path d="M163.254 94.8656C163.243 94.854 163.196 94.8933 163.102 94.919C163.01 94.944 162.858 94.9464 162.712 94.8619C162.417 94.6931 162.235 94.1466 162.31 93.6046C162.348 93.3308 162.448 93.081 162.579 92.8822C162.707 92.6785 162.873 92.5492 163.037 92.5471C163.2 92.5369 163.297 92.6512 163.319 92.7415C163.345 92.8319 163.317 92.8883 163.332 92.8962C163.339 92.9051 163.404 92.8568 163.4 92.7292C163.398 92.6676 163.375 92.5913 163.314 92.5222C163.253 92.4517 163.152 92.4044 163.04 92.3979C162.807 92.3754 162.565 92.553 162.42 92.7713C162.263 92.9883 162.144 93.2682 162.102 93.5755C162.021 94.1819 162.234 94.7979 162.645 94.9953C162.845 95.0853 163.03 95.0511 163.132 94.9957C163.237 94.9371 163.264 94.8728 163.254 94.8656Z" fill="#EB996E"/>
<path d="M180.932 86.1731C180.421 87.2795 177.792 87.7066 175.865 87.1224C174.088 86.5838 173.444 85.4507 172.313 84.4628C171.598 83.8375 171.598 83.8375 170.431 83.7164C169.488 83.6185 168.731 84.5624 168.017 85.1903C168.414 87.5694 167.361 89.9251 166.335 92.1061C166.222 92.347 166.092 92.6053 165.854 92.7231C165.45 92.9233 164.967 92.6067 164.726 92.2245C164.339 91.6126 164.294 90.8484 164.308 90.1236C164.341 88.4728 164.629 86.8131 165.296 85.3043C165.964 83.7955 167.024 82.4417 168.411 81.5567C170.145 80.451 172.33 80.1352 174.337 80.5708C176.345 81.0064 178.168 82.1621 179.532 83.7041C180.166 84.419 180.717 85.2406 180.932 86.1731Z" fill="#FF725E"/>
<path d="M174.871 93.4098C174.896 93.4112 174.887 93.1518 175.006 92.7141C175.124 92.2846 175.417 91.657 176.061 91.1755C176.683 90.6923 177.708 90.423 178.698 90.7943C179.185 90.9719 179.65 91.3062 179.98 91.7679C180.32 92.2233 180.51 92.8072 180.516 93.4095C180.51 94.0117 180.32 94.5959 179.98 95.0517C179.65 95.5134 179.185 95.8481 178.697 96.0257C177.707 96.397 176.683 96.1273 176.06 95.6441C175.416 95.1623 175.123 94.535 175.006 94.1055C174.887 93.6682 174.896 93.4088 174.871 93.4098C174.862 93.4098 174.857 93.4734 174.856 93.596C174.852 93.7181 174.866 93.9002 174.915 94.1284C175.009 94.5784 175.288 95.2506 175.958 95.7803C176.604 96.3104 177.699 96.6245 178.774 96.2354C179.303 96.0493 179.81 95.691 180.171 95.1924C180.542 94.7003 180.752 94.0641 180.757 93.4098C180.752 92.7558 180.541 92.1197 180.17 91.6279C179.809 91.129 179.303 90.771 178.774 90.5848C177.699 90.1957 176.604 90.5096 175.958 91.0396C175.288 91.569 175.009 92.2411 174.916 92.6915C174.866 92.9197 174.852 93.1018 174.856 93.224C174.857 93.3461 174.862 93.4098 174.871 93.4098Z" fill="#263238"/>
<path d="M167.804 92.17C167.829 92.1714 167.82 91.912 167.939 91.4743C168.057 91.0448 168.35 90.4172 168.994 89.9357C169.617 89.4525 170.641 89.1832 171.631 89.5545C172.119 89.7321 172.584 90.0668 172.913 90.5284C173.253 90.9839 173.443 91.5677 173.449 92.17C173.444 92.7723 173.253 93.3564 172.913 93.8123C172.583 94.2743 172.119 94.6086 171.631 94.7862C170.64 95.1575 169.616 94.8878 168.993 94.4046C168.349 93.9228 168.056 93.2955 167.939 92.8661C167.82 92.428 167.829 92.1686 167.804 92.17C167.796 92.17 167.79 92.2337 167.789 92.3562C167.785 92.4783 167.799 92.6604 167.848 92.8886C167.942 93.3387 168.221 94.0108 168.891 94.5405C169.537 95.0706 170.632 95.3847 171.707 94.9953C172.236 94.8091 172.743 94.4508 173.104 93.9519C173.475 93.4598 173.685 92.8236 173.69 92.1693C173.685 91.5154 173.474 90.8795 173.104 90.3874C172.743 89.8885 172.236 89.5305 171.707 89.3444C170.632 88.9553 169.538 89.2691 168.891 89.7992C168.222 90.3286 167.942 91.0007 167.849 91.451C167.799 91.6793 167.785 91.8613 167.789 91.9835C167.79 92.1064 167.796 92.17 167.804 92.17Z" fill="#263238"/>
<path d="M173.626 92.2705C173.656 92.3311 174.034 92.1528 174.475 92.2883C174.917 92.4193 175.136 92.778 175.193 92.7441C175.221 92.7311 175.207 92.6171 175.108 92.4662C175.011 92.317 174.815 92.1384 174.545 92.0563C174.274 91.9745 174.013 92.0152 173.85 92.086C173.684 92.1569 173.61 92.2441 173.626 92.2705Z" fill="#263238"/>
<path d="M163.8 91.4031C163.801 91.4698 164.751 91.5105 165.922 91.4941C167.093 91.4777 168.042 91.4099 168.041 91.3432C168.04 91.2765 167.09 91.2357 165.918 91.2522C164.747 91.2686 163.799 91.3364 163.8 91.4031Z" fill="#263238"/>
<path d="M182.324 83.3159C182.324 83.3159 182.333 83.4213 182.278 83.6013C182.226 83.7803 182.088 84.0281 181.832 84.2457C181.579 84.4671 181.199 84.6379 180.76 84.6865C180.321 84.7409 179.836 84.6872 179.339 84.6119C178.341 84.4644 177.449 84.2662 176.81 84.0989C176.491 84.0157 176.234 83.9415 176.058 83.8874C175.986 83.8645 175.919 83.8429 175.855 83.8224C175.809 83.8067 175.785 83.7974 175.786 83.795C175.787 83.7926 175.812 83.7974 175.859 83.8087C175.924 83.8251 175.992 83.8422 176.065 83.8607C176.285 83.9155 176.537 83.9784 176.823 84.05C177.464 84.2043 178.355 84.3942 179.35 84.5414C179.845 84.6167 180.323 84.6707 180.753 84.6211C181.182 84.5766 181.551 84.4172 181.8 84.2067C182.053 84 182.194 83.7646 182.253 83.5921C182.313 83.4193 182.316 83.3149 182.324 83.3159Z" fill="white"/>
<path d="M182.985 83.9951C182.985 83.9951 182.955 84.3288 182.73 84.814C182.511 85.2949 182.061 85.9194 181.359 86.342C180.656 86.7636 179.895 86.8659 179.37 86.8324C178.838 86.802 178.531 86.6705 178.531 86.6705C178.533 86.6647 178.612 86.6846 178.756 86.7133C178.9 86.7424 179.111 86.7735 179.372 86.7818C179.891 86.802 180.634 86.6931 181.323 86.2804C182.01 85.867 182.457 85.2603 182.685 84.7915C182.801 84.556 182.874 84.3548 182.917 84.2138C182.959 84.0732 182.979 83.9938 182.985 83.9951Z" fill="white"/>
</svg>
