<svg width="178" height="190" viewBox="0 0 178 190" fill="none" xmlns="http://www.w3.org/2000/svg">
<path d="M173.369 88.33C161.379 106.282 135.792 161.801 142.086 182.405L50.2934 182.426C50.2934 182.426 37.0295 172.551 24.1441 155.381C21.8024 152.262 19.4735 148.898 17.2412 145.312C14.8702 141.512 12.6081 137.459 10.5524 133.171C4.57819 120.735 0.315415 106.323 0.142829 90.3938C-0.458654 35.2531 47.2665 -15.9946 112.191 4.68537C177.114 25.3654 185.354 70.3785 173.369 88.33Z" fill="#EAF9F8"/>
<path d="M115.937 183.056C115.752 183.056 115.569 182.975 115.445 182.82L66.4932 121.956C66.2749 121.685 66.3181 121.288 66.5893 121.069C66.8605 120.851 67.2576 120.894 67.4759 121.165L116.428 182.029C116.646 182.301 116.603 182.698 116.332 182.916C116.215 183.01 116.075 183.056 115.937 183.056Z" fill="#E03C03"/>
<path d="M40.0024 183.056C39.8637 183.056 39.724 183.01 39.6074 182.916C39.3362 182.698 39.293 182.301 39.5113 182.029L88.4631 121.165C88.6824 120.894 89.0784 120.851 89.3496 121.069C89.6208 121.287 89.664 121.684 89.4457 121.956L40.4939 182.82C40.3696 182.975 40.1868 183.056 40.0024 183.056Z" fill="#FF6224"/>
<path d="M88.9551 183.056C88.7707 183.056 88.5879 182.975 88.4631 182.82L39.5113 121.956C39.293 121.685 39.3362 121.288 39.6074 121.069C39.8791 120.851 40.2756 120.894 40.4939 121.165L89.4457 182.029C89.664 182.301 89.6208 182.698 89.3496 182.916C89.2335 183.01 89.0938 183.056 88.9551 183.056Z" fill="#FF6224"/>
<path d="M48.6766 123.176H25.9343C25.0421 123.176 24.3184 122.453 24.3184 121.561C24.3184 120.668 25.0416 119.945 25.9343 119.945H48.6766C49.5688 119.945 50.2926 120.668 50.2926 121.561C50.2926 122.453 49.5688 123.176 48.6766 123.176Z" fill="#E03C03"/>
<path d="M114.111 123.176H49.11C48.2178 123.176 47.4946 122.453 47.4946 121.561C47.4946 120.668 48.2178 119.945 49.11 119.945H114.111V123.176Z" fill="#FF6224"/>
<path d="M66.2437 151.993C66.2437 152.968 65.4537 153.758 64.4788 153.758C63.5039 153.758 62.7139 152.968 62.7139 151.993C62.7139 151.018 63.5039 150.228 64.4788 150.228C65.4537 150.228 66.2437 151.018 66.2437 151.993Z" fill="#E03C03"/>
<path d="M93.2256 151.993C93.2256 152.968 92.4356 153.758 91.4607 153.758C90.4858 153.758 89.6958 152.968 89.6958 151.993C89.6958 151.018 90.4858 150.228 91.4607 150.228C92.4351 150.228 93.2256 151.018 93.2256 151.993Z" fill="#FFC947"/>
<path d="M69.74 71.7043H46.8282C45.6967 71.7043 44.7798 70.7869 44.7798 69.6558V52.6161C44.7798 51.4845 45.6967 50.5676 46.8282 50.5676H69.74C70.8716 50.5676 71.7885 51.485 71.7885 52.6161V69.6558C71.7885 70.7869 70.8716 71.7043 69.74 71.7043Z" fill="#20C3C5"/>
<path d="M64.1456 59.9014H63.2976C63.1676 59.4381 62.9755 58.9989 62.7254 58.5967L63.3798 57.9423C63.6294 57.6927 63.6294 57.2885 63.3798 57.0388L62.4588 56.1179C62.2092 55.8682 61.8049 55.8682 61.5553 56.1179L60.8598 56.8133C60.4756 56.5971 60.0637 56.4271 59.6286 56.3172V55.2745C59.6286 54.9216 59.3425 54.636 58.9901 54.636H57.688C57.3352 54.636 57.0496 54.9221 57.0496 55.2745V56.329C56.6273 56.4379 56.2272 56.5976 55.8543 56.8036L55.091 56.0403C54.8414 55.7907 54.4371 55.7907 54.1875 56.0403L53.2665 56.9613C53.0169 57.2109 53.0169 57.6152 53.2665 57.8648L53.9733 58.5716C53.737 58.9476 53.5511 59.358 53.4176 59.7915H52.4231C52.0703 59.7915 51.7847 60.0776 51.7847 60.4299V61.732C51.7847 62.0849 52.0708 62.3705 52.4231 62.3705H53.2943C53.3924 62.8518 53.5578 63.3105 53.7838 63.7342L53.189 64.3291C52.9393 64.5787 52.9393 64.9829 53.189 65.232L54.11 66.153C54.3596 66.4027 54.7638 66.4027 55.0135 66.153L55.5307 65.6358C55.9617 65.9167 56.4363 66.133 56.9402 66.2732V66.9959C56.9402 67.3488 57.2263 67.6344 57.5786 67.6344H58.8807C59.2336 67.6344 59.5192 67.3483 59.5192 66.9959V66.3215C60.0411 66.1987 60.5326 66 60.98 65.7323L61.4777 66.2301C61.7274 66.4797 62.1316 66.4797 62.3812 66.2301L63.3022 65.3091C63.5519 65.0595 63.5519 64.6552 63.3022 64.4061L62.7911 63.895C63.0444 63.4594 63.2354 62.9843 63.3526 62.4794H64.1456C64.4985 62.4794 64.7841 62.1933 64.7841 61.8409V60.5388C64.7841 60.1875 64.4985 59.9014 64.1456 59.9014ZM58.9804 64.5325C56.6674 64.9701 54.6801 62.9828 55.1177 60.6698C55.3622 59.3775 56.4039 58.3358 57.6963 58.0913C60.0092 57.6537 61.9965 59.641 61.5589 61.9539C61.3144 63.2463 60.2727 64.2885 58.9804 64.5325Z" fill="white"/>
<path d="M104.236 60.0277H81.3238C80.1928 60.0277 79.2754 59.1109 79.2754 57.9793V40.94C79.2754 39.809 80.1928 38.8916 81.3238 38.8916H104.236C105.367 38.8916 106.284 39.809 106.284 40.94V57.9793C106.284 59.1109 105.367 60.0277 104.236 60.0277Z" fill="#FF6224"/>
<path d="M88.2186 53.0123C88.0573 53.0123 87.896 52.9466 87.7728 52.8146L84.9261 49.7681C84.6796 49.5046 84.6796 49.0772 84.9261 48.8137L87.8211 45.7159C88.0676 45.4524 88.4667 45.4524 88.7127 45.7159C88.9593 45.9794 88.9593 46.4068 88.7127 46.6703L86.2637 49.2909L88.6645 51.8607C88.911 52.1242 88.911 52.5516 88.6645 52.8151C88.5412 52.9461 88.3799 53.0123 88.2186 53.0123Z" fill="white"/>
<path d="M97.3392 53.0123C97.1779 53.0123 97.0166 52.9466 96.8933 52.8146C96.6468 52.5511 96.6468 52.1237 96.8933 51.8602L99.2947 49.2904L96.8451 46.6698C96.5985 46.4063 96.5985 45.979 96.8451 45.7154C97.0911 45.4519 97.4902 45.4519 97.7368 45.7154L100.632 48.8133C100.75 48.9396 100.817 49.1112 100.817 49.2904C100.817 49.4697 100.751 49.6413 100.632 49.7676L97.7851 52.8141C97.6618 52.9461 97.5005 53.0123 97.3392 53.0123Z" fill="white"/>
<path d="M91.3673 53.8492C91.2888 53.8492 91.2081 53.8333 91.13 53.7989C90.8075 53.6587 90.6523 53.2647 90.7833 52.9195L93.6089 45.4906C93.7404 45.146 94.1061 44.9785 94.4307 45.1198C94.7533 45.26 94.9084 45.654 94.7775 45.9991L91.9519 53.428C91.8522 53.6905 91.6165 53.8492 91.3673 53.8492Z" fill="white"/>
<path d="M124.916 64.0895H68.0659V62.3446C68.0659 61.8736 68.4476 61.4919 68.9181 61.4919H124.062C124.533 61.4919 124.915 61.8736 124.915 62.3446L124.916 64.0895Z" fill="white"/>
<path d="M123.328 94.3977H69.6541C68.7773 94.3977 68.0669 93.6868 68.0669 92.8105V64.0898H124.916V92.8105C124.916 93.6868 124.205 94.3977 123.328 94.3977Z" fill="#383873"/>
<path d="M122.186 62.7907C122.186 63.0116 122.007 63.1904 121.786 63.1904C121.565 63.1904 121.387 63.0116 121.387 62.7907C121.387 62.5699 121.565 62.3911 121.786 62.3911C122.007 62.3911 122.186 62.5699 122.186 62.7907Z" fill="#FF6224"/>
<path d="M119.44 62.7907C119.44 63.0116 119.261 63.1904 119.04 63.1904C118.819 63.1904 118.641 63.0116 118.641 62.7907C118.641 62.5699 118.819 62.3911 119.04 62.3911C119.261 62.3911 119.44 62.5699 119.44 62.7907Z" fill="#FF6224"/>
<path d="M116.692 62.7907C116.692 63.0116 116.513 63.1904 116.292 63.1904C116.071 63.1904 115.893 63.0116 115.893 62.7907C115.893 62.5699 116.071 62.3911 116.292 62.3911C116.513 62.3911 116.692 62.5699 116.692 62.7907Z" fill="#FF6224"/>
<path d="M102.581 68.1851H71.013C70.7094 68.1851 70.4634 67.9391 70.4634 67.6355C70.4634 67.332 70.7094 67.0859 71.013 67.0859H102.581C102.885 67.0859 103.131 67.332 103.131 67.6355C103.13 67.9391 102.884 68.1851 102.581 68.1851Z" fill="#20C3C5"/>
<path d="M102.581 71.6822H71.013C70.7094 71.6822 70.4634 71.4362 70.4634 71.1326C70.4634 70.829 70.7094 70.583 71.013 70.583H102.581C102.885 70.583 103.131 70.829 103.131 71.1326C103.13 71.4362 102.884 71.6822 102.581 71.6822Z" fill="#20C3C5"/>
<path d="M87.5211 75.1786H71.013C70.7094 75.1786 70.4634 74.9325 70.4634 74.629C70.4634 74.3254 70.7094 74.0793 71.013 74.0793H87.5211C87.8247 74.0793 88.0707 74.3254 88.0707 74.629C88.0707 74.9325 87.8247 75.1786 87.5211 75.1786Z" fill="#20C3C5"/>
<path d="M102.581 82.1712H71.013C70.7094 82.1712 70.4634 81.9252 70.4634 81.6216C70.4634 81.3181 70.7094 81.072 71.013 81.072H102.581C102.885 81.072 103.131 81.3181 103.131 81.6216C103.13 81.9252 102.884 82.1712 102.581 82.1712Z" fill="#FF6224"/>
<path d="M87.5211 85.6678H71.013C70.7094 85.6678 70.4634 85.4218 70.4634 85.1182C70.4634 84.8146 70.7094 84.5686 71.013 84.5686H87.5211C87.8247 84.5686 88.0707 84.8146 88.0707 85.1182C88.0707 85.4218 87.8247 85.6678 87.5211 85.6678Z" fill="#FF6224"/>
<path d="M87.5211 89.1641H71.013C70.7094 89.1641 70.4634 88.9181 70.4634 88.6145C70.4634 88.311 70.7094 88.0649 71.013 88.0649H87.5211C87.8247 88.0649 88.0707 88.311 88.0707 88.6145C88.0707 88.9181 87.8247 89.1641 87.5211 89.1641Z" fill="#20C3C5"/>
<path d="M102.582 75.1786H90.719C90.4155 75.1786 90.1694 74.9325 90.1694 74.629C90.1694 74.3254 90.4155 74.0793 90.719 74.0793H102.582C102.886 74.0793 103.132 74.3254 103.132 74.629C103.131 74.9325 102.885 75.1786 102.582 75.1786Z" fill="white"/>
<path d="M118.252 67.3269L109.863 75.7152C109.649 75.93 109.301 75.93 109.086 75.7152C108.872 75.5005 108.872 75.1528 109.086 74.9381L117.475 66.5497C117.689 66.335 118.037 66.335 118.252 66.5497C118.467 66.7644 118.467 67.1121 118.252 67.3269Z" fill="#FF6224"/>
<path d="M118.478 84.3395C119.108 81.6814 117.464 79.0157 114.806 78.3855C112.148 77.7553 109.482 79.3992 108.852 82.0572C108.222 84.7153 109.866 87.381 112.524 88.0113C115.182 88.6415 117.848 86.9976 118.478 84.3395Z" fill="#FF6224"/>
<path d="M113.022 86.6427C113.022 88.1893 111.768 89.4431 110.221 89.4431C108.675 89.4431 107.421 88.1893 107.421 86.6427C107.421 85.0961 108.675 83.8423 110.221 83.8423C111.768 83.8423 113.022 85.0961 113.022 86.6427Z" fill="#20C3C5"/>
<path d="M68.0664 91.3308V101.332L77.2581 92.1398" fill="#383873"/>
<path d="M58.2832 104.035H78.4501L85.7429 118.071H65.576L58.2832 104.035Z" fill="#86BFBC"/>
<path d="M65.9841 117.033L59.9456 105.411C59.8188 105.168 59.996 104.877 60.2703 104.877H77.7168C77.8535 104.877 77.9788 104.953 78.0415 105.074L84.0799 116.696C84.2068 116.939 84.0296 117.23 83.7553 117.23H66.3087C66.1726 117.23 66.0473 117.154 65.9841 117.033Z" fill="white"/>
<path d="M81.9092 118.071H65.5757V119.945H81.9092V118.071Z" fill="#B8E3E2"/>
<path d="M95.9424 118.071H79.8246C79.3073 118.071 78.8877 118.49 78.8877 119.008C78.8877 119.525 79.3073 119.945 79.8246 119.945H95.9424C96.4596 119.945 96.8793 119.526 96.8793 119.008C96.8793 118.491 96.4596 118.071 95.9424 118.071Z" fill="#9FCCC9"/>
<path d="M65.5761 118.071L58.2834 104.035L57.9181 104.31C57.6819 104.487 57.6094 104.809 57.7471 105.07L65.5767 119.945V118.071H65.5761Z" fill="#B8E3E2"/>
<path d="M72.9184 118.946H71.1201V119.257H72.9184V118.946Z" fill="#9FCCC9"/>
<path d="M75.1787 118.946H73.3804V119.257H75.1787V118.946Z" fill="#9FCCC9"/>
<path d="M77.4379 118.946H75.6396V119.257H77.4379V118.946Z" fill="#9FCCC9"/>
<path d="M102.344 145.544C102.344 145.544 85.6155 158.568 82.9625 161.877C81.962 163.13 80.2171 165.325 78.4096 167.573C75.4412 171.268 72.2925 175.12 71.9186 175.212C71.3217 175.364 66.3018 171.542 66.1503 170.718C66.0578 170.205 70.6278 162.361 74.5839 156.054C76.9929 152.22 79.1708 148.949 79.9356 148.243C81.9578 146.368 94.402 139.776 94.402 139.776L102.344 145.544Z" fill="#383873"/>
<path opacity="0.15" d="M70.4209 172.434C70.4209 172.434 86.0487 150.189 93.8941 146.443" stroke="black" stroke-width="0.8185" stroke-miterlimit="10" stroke-linecap="round"/>
<path d="M119.778 88.4267C119.601 88.8304 119.399 89.2506 119.172 89.6795C117.949 92.0171 118.853 94.3588 117.457 94.9557C117.373 94.9896 117.28 95.023 117.176 95.044C115.376 95.4431 111.231 93.0469 111.05 91.8486C110.87 90.6503 112.328 88.5987 111.05 88.3507C109.772 88.1026 109.083 90.2512 109.083 90.2512C108.032 90.3606 107.658 88.5987 105.934 88.5987C105.69 88.5987 105.451 88.6326 105.22 88.6912C104.408 88.8931 103.698 89.3934 103.244 89.7801C102.907 90.0616 102.714 90.2845 102.714 90.2845C102.714 90.2845 101.18 89.3132 101.251 87.4004C101.373 84.3694 102.491 82.1581 105.187 81.7081C105.485 78.3366 108.26 76.5372 111.968 76.4237C115.218 76.323 115.705 79.2447 115.781 79.972C115.752 79.4296 115.6 77.6472 114.827 76.4237C116.453 76.3523 117.887 77.5127 117.513 81.2962C117.887 80.1698 119.199 79.4589 120.208 80.2828C119.275 80.2828 118.375 81.8551 118.375 81.8551C118.375 81.8551 119.472 82.5572 120.22 83.8562C120.841 84.9292 120.606 86.5138 119.778 88.4267Z" fill="#382424"/>
<path d="M117.458 94.9554L117.416 95.5102L117.273 97.4775C117.273 97.4775 114.28 100.038 112.581 97.4775C112.569 97.4605 112.56 97.4436 112.543 97.4271C112.018 96.6454 111.543 96.3721 111.11 96.3212C110.172 96.2077 109.416 97.1241 108.633 96.1322C106.397 93.2943 105.505 90.007 105.22 88.691C105.451 88.6319 105.691 88.5985 105.934 88.5985C107.658 88.5985 108.032 90.3598 109.083 90.2509C109.083 90.2509 109.772 88.1029 111.05 88.3504C112.328 88.5985 110.869 90.65 111.05 91.8484C111.13 92.3826 112 93.1561 113.102 93.8116C114.384 94.581 115.982 95.1907 116.995 95.0726C117.058 95.0643 117.116 95.0556 117.175 95.0433C117.281 95.0227 117.374 94.9893 117.458 94.9554Z" fill="#FFAD94"/>
<path opacity="0.25" d="M117.924 98.6174C116.575 99.5378 114.103 99.6893 114.103 99.6893L112.081 99.3909C112.081 99.3909 111.236 98.1633 111.631 97.4781C111.706 97.3435 111.896 97.1586 112.165 96.9398C112.707 96.4939 113.581 95.9222 114.485 95.4517C115.419 94.9684 116.381 94.5857 117.075 94.5436C118.773 94.447 119.274 97.6928 117.924 98.6174Z" fill="black"/>
<path d="M117.524 131.41C114.514 131.99 108.145 130.216 105.097 128.845C104.198 128.442 103.583 128.072 103.436 127.811C102.852 126.781 103.441 125.991 104.891 122.72C105.055 122.35 105.227 121.951 105.412 121.518C106.396 119.201 106.4 114.261 106.396 110.003C106.383 106.358 106.367 103.213 106.947 102.654C108.204 101.443 114.476 97.4788 114.476 97.4788L115.725 103.987C115.725 103.987 116.431 107.291 117.175 111.605C118.546 119.546 120.051 130.922 117.524 131.41Z" fill="#20C3C5"/>
<path d="M119.623 134.306C119.623 134.605 116.625 141.596 114.111 142.597C111.598 143.597 96.446 142.496 96.446 142.496L88.9544 147.394L90.5226 162.15L91.6156 172.433L91.649 172.766C89.3576 174.263 83.5858 174.666 82.9632 173.375C82.9591 173.371 82.9591 173.367 82.9591 173.367C82.3581 172.068 73.1679 144.397 76.7665 139.6C80.3611 134.807 103.437 127.812 103.437 127.812C104.038 128.194 104.736 128.539 105.497 128.846C108.062 129.897 111.32 130.557 113.8 130.943C114.754 131.09 115.591 131.2 116.23 131.276C117.038 131.372 117.525 131.41 117.525 131.41C117.525 131.41 119.623 134.003 119.623 134.306Z" fill="#383873"/>
<path d="M92.5981 182.405H73.1165C73.0199 182.061 73.1499 181.711 73.4442 181.359C74.2347 180.408 76.2148 179.454 78.1235 178.63C79.9357 177.848 81.6759 177.175 82.2604 176.713C83.635 175.624 83.0001 173.505 82.9626 173.375C83.1727 173.808 83.9673 174.052 85.0182 174.123C87.0826 174.27 90.1306 173.758 91.6479 172.765L91.6145 172.433C92.1944 173.543 92.4677 179.029 92.5606 181.358C92.5853 182.002 92.5981 182.405 92.5981 182.405Z" fill="#0C2059"/>
<path d="M85.0178 174.123C84.9587 175.052 84.8246 176.557 84.5555 176.961C84.1564 177.563 79.8597 179.66 79.2623 179.458C78.8755 179.333 78.4045 178.912 78.123 178.63C79.9352 177.849 81.6754 177.176 82.26 176.713C83.6345 175.625 82.9996 173.506 82.9621 173.375C83.1722 173.808 83.9668 174.052 85.0178 174.123Z" fill="#2E4780"/>
<path d="M92.5981 182.405H73.1165C73.0199 182.061 73.1499 181.712 73.4442 181.359H92.5601C92.5853 182.002 92.5981 182.405 92.5981 182.405Z" fill="#2E4780"/>
<path d="M71.9192 175.212C71.9192 175.212 70.4394 179.114 69.1573 181.178C68.6488 182.002 68.165 182.536 67.8244 182.405C66.6261 181.955 54.5856 171.718 55.7377 170.97C55.9057 170.86 56.1749 170.785 56.5113 170.743C57.5581 170.608 59.2943 170.755 60.9004 170.92C62.2796 171.062 63.5616 171.218 64.2299 171.218C65.9285 171.218 66.151 170.718 66.151 170.718C66.189 170.915 66.5085 171.289 66.9831 171.743C68.4716 173.156 71.4652 175.326 71.9192 175.212Z" fill="#0C2059"/>
<path d="M66.9838 171.744C64.432 173.433 61.7707 172.416 61.2453 172.029C60.8585 171.748 60.8585 171.222 60.9006 170.919C62.2798 171.062 63.5618 171.218 64.2301 171.218C65.9287 171.218 66.1512 170.717 66.1512 170.717C66.1892 170.916 66.5087 171.289 66.9838 171.744Z" fill="#2E4780"/>
<path d="M69.1564 181.178C68.6478 182.002 68.164 182.536 67.8234 182.405C66.6251 181.955 54.5847 171.718 55.7368 170.97C55.9047 170.861 56.1739 170.785 56.5103 170.743L69.1564 181.178Z" fill="#2E4780"/>
<path d="M105.105 118.658C104.164 119.97 102.478 121.971 101.09 121.77C101.04 121.761 100.985 121.753 100.918 121.74C98.2694 121.273 82.693 117.368 81.9574 117.221C81.2091 117.074 75.9668 117.023 76.2652 116.472C76.5636 115.922 79.5613 114.177 80.36 114.219C81.1587 114.261 84.3079 115.173 87.4525 115.073C90.6011 114.976 98.8416 115.073 98.8416 115.073L99.2412 114.383L99.8299 113.366C99.665 116.418 103.344 118.906 105.105 118.658Z" fill="#FFAD94"/>
<path opacity="0.15" d="M105.105 130.034C105.105 130.034 104.387 133.855 107.184 135.129" stroke="black" stroke-width="0.8185" stroke-miterlimit="10" stroke-linecap="round"/>
<path opacity="0.15" d="M103.637 133.106C103.637 133.106 85.1336 140.999 84.2455 143.446C83.3574 145.894 88.9525 172.433 88.9525 172.433" stroke="black" stroke-width="0.8185" stroke-miterlimit="10" stroke-linecap="round"/>
<path opacity="0.15" d="M119.622 134.306C119.622 134.605 116.625 141.596 114.111 142.597C111.597 143.597 96.4455 142.496 96.4455 142.496L88.9539 147.393L90.5221 162.15C90.5221 162.15 87.3564 145.296 87.3564 144.194C87.3564 143.253 108.285 137.237 113.8 130.943C115.961 131.284 117.525 131.41 117.525 131.41C117.525 131.41 119.622 134.003 119.622 134.306Z" fill="black"/>
<path opacity="0.25" d="M109.755 116.422C108.456 118.264 106.362 120.601 104.891 122.72C105.054 122.35 105.227 121.951 105.412 121.518C106.396 119.201 106.4 114.261 106.396 110.003L110.881 107.034C110.881 107.034 111.853 113.45 109.755 116.422Z" fill="black"/>
<path d="M105.925 118.091C105.731 118.267 105.534 118.444 105.336 118.608C105.264 118.633 105.189 118.65 105.105 118.658C103.343 118.906 99.6647 116.417 99.8285 113.365C99.8414 113.138 100.022 112.684 100.316 112.091C101.821 109.056 106.349 102.3 107.181 102.611C107.181 102.611 110.091 103.061 110.881 107.033C111.621 110.763 108.951 115.287 105.925 118.091Z" fill="#169799"/>
<path opacity="0.25" d="M116.229 131.275C115.59 131.2 114.754 131.09 113.799 130.943C111.319 130.556 108.061 129.896 105.496 128.845C107.758 128.765 112.597 127.277 113.181 116.199C113.446 118.272 113.845 120.42 114.401 122.619C115.145 125.541 115.847 128.622 116.229 131.275Z" fill="black"/>
<path opacity="0.25" d="M115.036 94.7332C114.805 95.0024 114.624 95.2458 114.485 95.4523C113.581 95.9233 112.707 96.495 112.164 96.9404C111.786 96.5243 111.437 96.3599 111.109 96.3224L113.102 93.8127C113.707 94.1779 114.384 94.5016 115.036 94.7332Z" fill="black"/>
<path opacity="0.25" d="M105.106 118.658C104.164 119.97 102.478 121.971 101.091 121.77C101.041 121.761 100.986 121.753 100.918 121.74C99.2033 119.26 99.1401 116.01 99.2408 114.383L99.8294 113.366C99.6656 116.418 103.344 118.906 105.106 118.658Z" fill="black"/>
<path opacity="0.25" d="M119.778 88.4267C119.601 88.8304 119.399 89.2506 119.172 89.6795C118.571 90.827 118.487 91.9709 118.386 92.9165C118.184 92.7609 117.978 92.6181 117.772 92.4958C116.473 93.2694 115.598 94.0722 115.035 94.7322L115.031 94.7364C113.198 94.0804 111.176 92.6766 111.05 91.8481C110.869 90.6498 112.328 88.5982 111.05 88.3502C109.772 88.1021 109.083 90.2507 109.083 90.2507C108.032 90.3601 107.657 88.5982 105.934 88.5982C105.69 88.5982 105.451 88.6321 105.22 88.6907C104.408 88.8926 103.698 89.3929 103.244 89.7796C103.244 89.7796 105.186 87.0511 108.234 87.6018C108.234 87.6018 107.788 86.7527 105.736 86.8534C110.033 85.4537 112.778 86.0043 114.103 87.5514C115.183 88.8176 117.718 90.3816 119.778 88.4267Z" fill="black"/>
<path d="M128.515 147.393H113.527C113.527 147.393 125.416 143.895 125.416 120.319C125.416 120.016 125.416 119.718 125.412 119.419C125.29 103.662 121.923 94.9725 117.773 92.4962C119.072 91.7267 120.8 90.9912 123.083 90.4822C124.079 90.2551 125.176 90.0743 126.392 89.9485C136.654 88.9017 144.852 92.9251 145.827 97.4781C146.798 102.031 140.799 147.393 128.515 147.393Z" fill="#B8E3E2"/>
<path d="M125.416 120.319C125.416 143.896 113.527 147.394 113.527 147.394H88.9541L89.9757 146.666L96.4462 142.496L109.433 141.596C110.131 138.7 112.031 138.603 114.928 138.3C116.614 138.128 116.777 135.282 116.265 131.519C115.891 128.812 115.168 125.629 114.402 122.619C113.848 120.42 113.448 118.272 113.183 116.2C112.868 113.774 112.729 111.458 112.717 109.276C112.679 104.307 113.284 100.06 113.923 96.9912C113.982 96.6928 114.045 96.4067 114.108 96.1334C114.108 96.1252 114.112 96.1124 114.112 96.1042C114.171 95.9737 114.427 95.4441 115.033 94.7379L115.037 94.7337C115.601 94.0737 116.475 93.2709 117.774 92.4973C117.98 92.619 118.186 92.7624 118.388 92.918C122.251 95.8607 125.295 104.45 125.413 119.421C125.416 119.718 125.416 120.017 125.416 120.319Z" fill="#86BFBC"/>
<path d="M120.675 182.405H102.984C102.378 182.405 102.114 181.64 102.593 181.266L107.02 177.802C108.983 176.263 110.131 173.905 110.131 171.412V147.394H113.527V171.412C113.527 173.905 114.675 176.263 116.643 177.802L121.065 181.266C121.545 181.64 121.28 182.405 120.675 182.405Z" fill="#B8E3E2"/>
<g opacity="0.25">
<path d="M134.167 90.8535C134.167 90.8535 134.296 91.1838 134.508 91.8454" stroke="black" stroke-width="0.8185" stroke-miterlimit="10" stroke-linecap="round"/>
<path d="M135.103 93.8911C135.704 96.145 136.485 99.6563 137.105 104.435C138.714 116.842 137.08 134.256 126.291 145.288" stroke="black" stroke-width="0.8185" stroke-miterlimit="10" stroke-linecap="round" stroke-dasharray="4.15 4.15"/>
<path d="M125.53 146.041C125.278 146.282 125.02 146.521 124.758 146.755" stroke="black" stroke-width="0.8185" stroke-miterlimit="10" stroke-linecap="round"/>
</g>
<path opacity="0.15" d="M113.526 147.394V153.952C112.349 154.566 111.155 155.037 110.129 155.381V147.394H113.526Z" fill="black"/>
<path opacity="0.15" d="M118.223 137.203C117.425 139.7 112.435 139.253 111.829 141.1C110.544 145.019 109.832 143.294 104.892 143.794C102.067 144.08 100.016 145.892 98.7792 147.393H88.9541L89.9757 146.666L96.4462 142.496L109.433 141.596C110.131 138.7 112.031 138.603 114.928 138.3C116.614 138.128 116.777 135.282 116.265 131.519C115.891 128.812 115.168 125.629 114.402 122.619C113.848 120.42 113.448 118.272 113.183 116.2C112.868 113.774 112.729 111.458 112.717 109.276C114.637 119.289 118.816 135.353 118.223 137.203Z" fill="black"/>
<path opacity="0.15" d="M125.416 120.319C125.416 120.016 125.416 119.718 125.412 119.419C125.29 103.662 121.923 94.9725 117.773 92.4962C119.072 91.7267 120.8 90.9912 123.083 90.4822C122.398 91.4699 121.683 92.9544 122.019 94.539C122.62 97.343 129.414 108.131 126.816 125.414C124.941 137.883 125.563 144.37 127.522 147.393H113.527C113.527 147.393 125.416 143.895 125.416 120.319Z" fill="black"/>
<path opacity="0.25" d="M39.6652 107.476C39.657 108.022 39.6062 108.54 39.5055 108.998H34.6833C33.2667 108.056 30.9543 106.194 29.5669 103.398C30.8577 104.802 33.0607 106.513 35.3054 107.035C37.2649 107.488 38.7237 107.295 39.6652 107.476Z" fill="black"/>
<path d="M50.8654 88.33C50.327 90.285 47.8595 94.0773 45.6061 98.1382C43.1426 102.569 40.9396 107.316 41.8015 110.33C42.0157 111.087 42.1128 111.642 42.1128 112.041C42.121 113.353 41.125 112.945 40.1198 112.201C39.0941 111.44 38.0555 110.33 38.0555 110.33L38.131 104.486C38.131 104.486 34.8179 101.442 37.5382 94.783C37.7108 94.3629 37.9081 93.9252 38.131 93.4712C41.877 85.9036 47.4932 77.962 42.1754 75.7128C49.5201 75.2638 51.9923 84.2393 50.8654 88.33Z" fill="#20C3C5"/>
<g opacity="0.53">
<path d="M42.174 75.7139C43.5495 76.0133 44.7484 76.9353 45.5086 78.1116C45.714 78.3987 45.8589 78.7208 46.0217 79.0326C46.1445 79.3613 46.3006 79.6808 46.3843 80.0229C46.4824 80.3608 46.5785 80.6999 46.6283 81.0491L46.7197 81.5689L46.7526 82.1001C46.7233 83.5218 46.2713 84.8799 45.8029 86.198C45.3134 87.5149 44.7484 88.8011 44.1643 90.0765C42.9948 92.6263 41.7338 95.1313 40.6212 97.6975C40.0706 98.9811 39.542 100.278 39.1516 101.611C38.9523 102.276 38.8024 102.953 38.7145 103.631C38.6293 104.307 38.6354 105.003 38.8512 105.616L38.8532 105.622C38.8917 105.731 38.8342 105.851 38.7248 105.89C38.6154 105.928 38.4952 105.871 38.4567 105.761L38.4556 105.758C38.2142 105.038 38.2281 104.29 38.3236 103.583C38.4238 102.874 38.5882 102.18 38.7993 101.505C39.2148 100.152 39.7634 98.8543 40.333 97.5706C41.4831 95.007 42.7749 92.5184 43.9743 89.9876C44.5732 88.722 45.1526 87.4471 45.6555 86.143C46.1383 84.8388 46.6021 83.4936 46.6478 82.1001L46.6227 81.5818L46.5384 81.0656C46.4932 80.7189 46.4023 80.3819 46.3099 80.0455C46.2318 79.7049 46.0803 79.3875 45.9631 79.0593C45.806 78.7485 45.6657 78.427 45.4659 78.1398C44.7253 76.9646 43.5454 76.0308 42.174 75.7139Z" fill="black"/>
</g>
<path d="M47.4938 100.139C45.2486 106.059 47.4938 110.549 44.1222 111.188C42.5792 111.482 41.8981 110.339 41.6166 109.01C41.2801 107.438 41.5031 105.609 41.5031 105.609C41.5031 105.609 42.0748 104.146 43.2772 102.725C44.2567 101.569 45.6482 100.442 47.4938 100.139Z" fill="#169799"/>
<path d="M39.6656 107.476C39.6527 108.855 39.342 110.023 38.703 110.637C38.6398 110.7 38.5766 110.755 38.5181 110.801C36.9247 112.092 35.9072 109.729 35.9072 109.729C35.9072 109.729 31.6696 107.64 29.5672 103.398C27.9569 100.14 27.5999 95.6078 31.3876 89.781C31.9423 93.9303 34.2168 96.7558 36.4702 99.4381C36.4702 99.4422 36.4702 99.4422 36.4702 99.4422C36.7516 99.7787 37.0295 100.106 37.3069 100.439C38.8668 102.308 39.6866 105.184 39.6656 107.476Z" fill="#B8E3E2"/>
<g opacity="0.53">
<path d="M31.3847 89.781C31.018 91.5654 30.9296 93.4043 31.0991 95.2113C31.2902 97.0122 31.7859 98.8027 32.7639 100.328C33.7054 101.878 35.0131 103.155 36.1992 104.549C36.7893 105.248 37.3564 105.99 37.7535 106.842C38.1556 107.69 38.339 108.654 38.2625 109.599C38.2532 109.715 38.1515 109.801 38.036 109.792C37.9204 109.782 37.8341 109.681 37.8433 109.565C37.8433 109.564 37.8439 109.562 37.8439 109.561C37.9302 108.687 37.7812 107.801 37.418 106.994C37.06 106.184 36.5253 105.451 35.9562 104.75C34.8128 103.351 33.5117 102.032 32.5841 100.437C31.6179 98.8644 31.151 97.0358 30.9944 95.2216C30.8593 93.3991 30.9836 91.5587 31.3847 89.781Z" fill="black"/>
</g>
<g opacity="0.25">
<path d="M47.4959 100.139C46.8523 100.884 46.2533 101.666 45.6806 102.465C45.1125 103.267 44.5681 104.086 44.0806 104.937C43.1083 106.631 42.2813 108.448 42.0096 110.359L42.0086 110.366C41.9921 110.481 41.8858 110.561 41.7707 110.545C41.6557 110.528 41.5755 110.422 41.592 110.307C41.5925 110.305 41.593 110.302 41.593 110.299C41.951 108.305 42.8612 106.503 43.9003 104.829C44.4217 103.989 44.998 103.186 45.5959 102.402C46.1984 101.622 46.8261 100.861 47.4959 100.139Z" fill="black"/>
</g>
<path d="M46.132 110.477L44.6943 119.306C44.6229 119.675 44.2993 119.945 43.9207 119.945H34.9617C34.5831 119.945 34.2595 119.675 34.1881 119.306L33.0196 112.138L32.7504 110.477C32.6621 109.994 33.0319 109.548 33.524 109.548H45.3584C45.8505 109.548 46.2203 109.994 46.132 110.477Z" fill="#B8E3E2"/>
<path d="M47.4937 112.277H31.3877L31.8125 109.872C31.9049 109.368 32.3421 108.998 32.8552 108.998H46.0308C46.5393 108.998 46.981 109.368 47.0694 109.872L47.4937 112.277Z" fill="#86BFBC"/>
<path opacity="0.25" d="M41.5029 105.609C41.5029 105.609 41.28 107.429 41.6124 108.997H39.5059C39.6066 108.539 39.6574 108.022 39.6656 107.475C39.6867 105.184 38.8669 102.308 37.3069 100.438C37.0296 100.105 36.7522 99.7777 36.4702 99.4412C36.4702 99.4412 36.4702 99.4412 36.4702 99.4371C36.5041 98.1463 36.7979 96.5992 37.5381 94.783C37.6598 96.9059 38.1812 100.597 40.3 100.988C41.9103 101.283 44.008 99.6852 45.6055 98.1381C44.7605 99.6559 43.9489 101.211 43.2766 102.725C42.0746 104.146 41.5029 105.609 41.5029 105.609Z" fill="black"/>
<path opacity="0.25" d="M40.3087 119.945H34.9611C34.5825 119.945 34.2589 119.676 34.1875 119.306L33.04 112.277H37.6603C37.5468 113.26 37.4081 115.098 37.7569 116.523C38.0301 117.654 39.0225 119.108 40.3087 119.945Z" fill="black"/>
<path d="M80.8226 47.2243H57.9107C56.7797 47.2243 55.8623 46.3069 55.8623 45.1759V28.1361C55.8623 27.005 56.7797 26.0876 57.9107 26.0876H80.8226C81.9541 26.0876 82.871 27.005 82.871 28.1361V45.1759C82.871 46.3069 81.9541 47.2243 80.8226 47.2243Z" fill="#383873"/>
<path d="M62.1504 33.5636V35.8386C62.1504 36.0209 62.2984 36.1684 62.4802 36.1684H63.7397C63.922 36.1684 64.0694 36.0204 64.0694 35.8386V33.5636C64.0694 33.3813 64.2173 33.2339 64.3992 33.2339H64.5209C64.7033 33.2339 64.8507 33.3818 64.8507 33.5636V39.748C64.8507 39.9303 64.7027 40.0777 64.5209 40.0777H64.3992C64.2168 40.0777 64.0694 39.9298 64.0694 39.748V37.209C64.0694 37.0267 63.9215 36.8792 63.7397 36.8792H62.4802C62.2978 36.8792 62.1504 37.0272 62.1504 37.209V39.748C62.1504 39.9303 62.0025 40.0777 61.8207 40.0777H61.6984C61.5161 40.0777 61.3687 39.9298 61.3687 39.748V33.5636C61.3687 33.3813 61.5166 33.2339 61.6984 33.2339H61.8207C62.0025 33.2339 62.1504 33.3813 62.1504 33.5636Z" fill="white"/>
<path d="M66.54 33.9345H65.9509C65.7685 33.9345 65.6211 33.7866 65.6211 33.6047V33.5636C65.6211 33.3813 65.769 33.2339 65.9509 33.2339H68.5705C68.7528 33.2339 68.9002 33.3818 68.9002 33.5636V33.6047C68.9002 33.7871 68.7523 33.9345 68.5705 33.9345H67.9813C67.799 33.9345 67.6515 34.0824 67.6515 34.2643V39.748C67.6515 39.9303 67.5036 40.0777 67.3218 40.0777H67.1995C67.0172 40.0777 66.8698 39.9298 66.8698 39.748V34.2643C66.8698 34.0824 66.7224 33.9345 66.54 33.9345Z" fill="white"/>
<path d="M73.7645 37.133C73.7136 36.229 73.6628 35.2238 73.6936 34.4523H73.653C73.5004 35.2135 73.3176 36.0261 73.1044 36.8284L72.2615 40.0372H71.7638L70.9615 36.9604C70.738 36.0872 70.5352 35.2443 70.4031 34.4523H70.3728C70.3728 35.2546 70.3317 36.209 70.2917 37.1839L70.1741 39.7629C70.1658 39.9391 70.021 40.0778 69.8443 40.0778H69.8089C69.6188 40.0778 69.4683 39.918 69.4796 39.7285L69.8463 33.5442C69.8566 33.37 70.001 33.2339 70.1756 33.2339H70.4514C70.6019 33.2339 70.7334 33.3361 70.7709 33.482L71.5101 36.3615C71.7433 37.2655 71.9164 37.9353 72.0581 38.7176H72.0884C72.2204 37.9353 72.373 37.2856 72.5964 36.3615L73.3063 33.4846C73.3428 33.3372 73.4748 33.2334 73.6268 33.2334H73.9299C74.1045 33.2334 74.2493 33.37 74.2591 33.5442L74.6166 39.7285C74.6274 39.918 74.4769 40.0773 74.2874 40.0773H74.2201C74.0439 40.0773 73.899 39.9391 73.8903 39.7634L73.7645 37.133Z" fill="white"/>
<path d="M76.0309 33.2339H76.1532C76.3355 33.2339 76.4829 33.3818 76.4829 33.5636V39.0879C76.4829 39.2703 76.6309 39.4177 76.8127 39.4177H78.0819C78.2643 39.4177 78.4117 39.5656 78.4117 39.7475C78.4117 39.9298 78.2638 40.0772 78.0819 40.0772H76.0309C75.8486 40.0772 75.7012 39.9293 75.7012 39.7475V33.5631C75.7007 33.3813 75.8486 33.2339 76.0309 33.2339Z" fill="white"/>
<path d="M91.2661 27.8981C92.1234 27.8981 92.3258 27.3213 92.3258 26.8071C92.3258 26.3551 92.279 25.9185 92.2323 25.4824C92.1856 25.015 92.1388 24.5938 92.1388 24.1105C92.1388 22.7077 92.9961 22.1155 94.103 22.1155H94.29V22.926H94.0563C93.4014 22.926 93.1363 23.394 93.1363 24.0951C93.1363 24.5163 93.1836 24.9056 93.2298 25.2801C93.2611 25.6853 93.3074 26.0593 93.3074 26.4337C93.3228 27.6495 92.9021 28.0702 92.2318 28.2577V28.289C92.9021 28.4919 93.3228 28.9126 93.3074 30.1438C93.3074 30.5337 93.2606 30.923 93.2298 31.3129C93.1831 31.7027 93.1363 32.0926 93.1363 32.5133C93.1363 33.2149 93.37 33.6977 94.0717 33.6977H94.29V34.5083H94.0871C93.0582 34.5083 92.1388 33.9941 92.1388 32.5133C92.1388 32.0459 92.1861 31.5779 92.2323 31.1259C92.279 30.6739 92.3258 30.2219 92.3258 29.7853C92.3258 29.2865 92.1229 28.6784 91.2661 28.6784V27.8981Z" fill="#383873"/>
<path d="M107.158 28.6779C106.3 28.6779 106.098 29.286 106.098 29.7848C106.098 30.2214 106.145 30.6734 106.191 31.1254C106.238 31.5774 106.285 32.0448 106.285 32.5128C106.285 33.9936 105.365 34.5078 104.337 34.5078H104.134V33.6973H104.352C105.054 33.6192 105.287 33.2139 105.287 32.5128C105.287 32.0921 105.241 31.7022 105.209 31.3124C105.163 30.9225 105.116 30.5332 105.116 30.1433C105.1 28.9121 105.521 28.4909 106.191 28.2885V28.2572C105.521 28.0702 105.1 27.6496 105.116 26.4332C105.116 26.0593 105.163 25.6849 105.209 25.2796C105.241 24.9056 105.287 24.5158 105.287 24.0946C105.287 23.3935 105.022 23.0036 104.367 22.9255H104.134V22.115H104.321C105.427 22.115 106.285 22.7072 106.285 24.11C106.285 24.5928 106.238 25.014 106.191 25.482C106.145 25.9186 106.098 26.3546 106.098 26.8067C106.098 27.3208 106.301 27.8977 107.158 27.8977V28.6779Z" fill="#383873"/>
<path d="M101.808 29.811V26.8123L99.2112 25.313L96.6147 26.8123V29.811L99.2112 31.3098L101.808 29.811Z" fill="#FF6224"/>
<path d="M121.344 44.751C118.904 43.5357 115.968 44.0154 114.039 45.9447C111.657 48.326 111.578 52.1429 113.787 54.6284L112.835 54.5154C112.72 54.5016 112.615 54.5837 112.602 54.6993C112.588 54.8149 112.67 54.9192 112.785 54.933L114.235 55.1051C114.293 55.1123 114.348 55.0948 114.391 55.0614C114.433 55.0281 114.463 54.9787 114.469 54.9212L114.636 53.5184C114.65 53.4029 114.568 53.2986 114.452 53.2847C114.337 53.2709 114.232 53.3536 114.219 53.4686L114.112 54.3619C112.038 52.0417 112.108 48.4693 114.336 46.2416C116.137 44.4407 118.878 43.9923 121.156 45.1264C121.26 45.1788 121.387 45.1357 121.438 45.0319C121.491 44.9287 121.448 44.8028 121.344 44.751Z" fill="#FF6224"/>
<path d="M115.887 56.3844C118.328 57.5997 121.264 57.12 123.193 55.1907C125.574 52.8094 125.654 48.9925 123.445 46.5069L124.396 46.6199C124.512 46.6338 124.616 46.5511 124.63 46.4361C124.644 46.3205 124.561 46.2162 124.446 46.2023L122.996 46.0298C122.939 46.0231 122.884 46.04 122.842 46.0734C122.799 46.1068 122.77 46.1561 122.763 46.2136L122.596 47.6164C122.582 47.7315 122.664 47.8363 122.78 47.8501C122.895 47.864 123 47.7818 123.014 47.6662L123.12 46.773C125.194 49.0937 125.124 52.6656 122.896 54.8933C121.096 56.6941 118.354 57.1425 116.076 56.0084C115.972 55.956 115.846 55.9992 115.794 56.1029C115.741 56.2067 115.783 56.3325 115.887 56.3844Z" fill="#FF6224"/>
<path d="M172.112 68.1851H134.065C133.372 68.1851 132.809 67.6226 132.809 66.9292C132.809 66.2358 133.371 65.6733 134.065 65.6733H172.112C172.806 65.6733 173.368 66.2353 173.368 66.9292C173.368 67.6232 172.806 68.1851 172.112 68.1851Z" fill="#FF6224"/>
<path d="M158.525 73.6436H134.064C133.371 73.6436 132.808 73.0811 132.808 72.3877C132.808 71.6943 133.37 71.1318 134.064 71.1318H158.525C159.219 71.1318 159.781 71.6938 159.781 72.3877C159.781 73.0817 159.219 73.6436 158.525 73.6436Z" fill="#20C3C5"/>
<path d="M158.525 79.5044H134.064C133.371 79.5044 132.808 78.9425 132.808 78.2486C132.808 77.5551 133.37 76.9927 134.064 76.9927H158.525C159.219 76.9927 159.781 77.5546 159.781 78.2486C159.781 78.942 159.219 79.5044 158.525 79.5044Z" fill="#20C3C5"/>
<path d="M37.2051 47.3208H17.4414C16.748 47.3208 16.1855 46.7584 16.1855 46.065C16.1855 45.3715 16.7475 44.8091 17.4414 44.8091H37.2051C37.8985 44.8091 38.461 45.371 38.461 46.065C38.4604 46.7589 37.8985 47.3208 37.2051 47.3208Z" fill="#20C3C5"/>
<path d="M29.7433 52.7796H17.4414C16.748 52.7796 16.1855 52.2171 16.1855 51.5237C16.1855 50.8303 16.7475 50.2678 17.4414 50.2678H29.7433C30.4367 50.2678 30.9992 50.8298 30.9992 51.5237C30.9992 52.2176 30.4367 52.7796 29.7433 52.7796Z" fill="#FF6224"/>
<path d="M29.7433 58.6402H17.4414C16.748 58.6402 16.1855 58.0777 16.1855 57.3843C16.1855 56.6909 16.7475 56.1284 17.4414 56.1284H29.7433C30.4367 56.1284 30.9992 56.6903 30.9992 57.3843C30.9992 58.0777 30.4367 58.6402 29.7433 58.6402Z" fill="#FF6224"/>
<path d="M154.972 138.35C153.741 141.924 152.269 145.043 150.73 147.86C145.412 157.576 139.236 163.756 139.005 172.816C139.005 172.816 137.088 164.281 138.627 154.557C139.488 149.096 141.439 143.26 145.429 138.35C156.532 124.696 154.888 112.277 154.888 112.277C154.888 112.277 160.455 122.463 154.972 138.35Z" fill="#169799"/>
<g opacity="0.25">
<path d="M141.891 162.188C141.728 161.056 141.772 159.954 141.876 158.847C141.985 157.744 142.184 156.651 142.467 155.582C143.018 153.44 143.836 151.376 144.83 149.408C145.309 148.414 145.88 147.47 146.439 146.521L148.227 143.761C149.366 141.905 150.327 139.937 151.136 137.907C151.952 135.88 152.639 133.8 153.215 131.69C153.797 129.58 154.273 127.441 154.648 125.284C155.024 123.128 155.3 120.952 155.436 118.767C155.501 117.674 155.531 116.578 155.484 115.484C155.457 114.937 155.422 114.39 155.334 113.849C155.244 113.312 155.144 112.765 154.888 112.276C155.152 112.761 155.262 113.308 155.36 113.845C155.458 114.385 155.502 114.933 155.538 115.481C155.603 116.576 155.591 117.676 155.544 118.772C155.448 120.965 155.189 123.149 154.837 125.316C154.485 127.483 154.031 129.633 153.469 131.757C152.913 133.882 152.247 135.981 151.447 138.03C150.655 140.082 149.708 142.079 148.573 143.972L146.802 146.743C146.252 147.683 145.688 148.618 145.218 149.602C144.241 151.548 143.441 153.586 142.905 155.692C142.631 156.743 142.438 157.815 142.319 158.891C142.207 159.962 142.162 161.069 142.304 162.11L142.306 162.129C142.322 162.244 142.242 162.35 142.127 162.366C142.013 162.382 141.907 162.302 141.891 162.188Z" fill="black"/>
</g>
<path opacity="0.25" d="M150.73 147.86C145.412 157.576 139.236 163.756 139.005 172.816C139.005 172.816 137.088 164.281 138.627 154.557C142.074 153.149 146.921 150.853 150.73 147.86Z" fill="black"/>
<path d="M142.087 182.407C142.087 182.407 138.204 175.767 147.394 167.573C156.585 159.379 163.778 148.543 162.379 139.775C153.588 149.989 130.211 164.472 136.805 182.405L142.087 182.407Z" fill="#20C3C5"/>
<g opacity="0.25">
<path d="M162.38 139.775C161.503 141.71 160.327 143.496 159.061 145.199C157.782 146.894 156.375 148.493 154.877 150C153.393 151.522 151.753 152.885 150.129 154.246C148.514 155.615 147.051 157.16 145.746 158.825C143.138 162.155 141.099 165.945 139.87 169.988C139.27 172.009 138.858 174.097 138.8 176.201C138.738 178.295 139.006 180.427 139.845 182.341C139.892 182.447 139.844 182.571 139.738 182.618C139.631 182.665 139.508 182.617 139.46 182.511L139.459 182.509C138.604 180.512 138.352 178.323 138.432 176.188C138.509 174.045 138.946 171.934 139.568 169.896C140.844 165.821 142.93 162.023 145.58 158.695C146.907 157.03 148.392 155.488 150.027 154.126C151.666 152.775 153.307 151.434 154.802 149.925C156.309 148.434 157.726 146.85 159.018 145.167C160.298 143.477 161.487 141.703 162.38 139.775Z" fill="black"/>
</g>
<path d="M10.1834 134.305C10.1834 134.305 5.388 129.935 2.84082 119.008C17.526 131.458 21.1226 142.546 21.1226 142.546L10.1834 134.305Z" fill="#169799"/>
<g opacity="0.25">
<path d="M2.84082 119.008C4.8836 121.931 6.8817 124.887 8.82586 127.878C9.79717 129.374 10.7484 130.884 11.6725 132.412C12.5914 133.943 13.4908 135.488 14.2371 137.131C14.2849 137.237 14.2387 137.361 14.1329 137.41C14.0271 137.458 13.9028 137.411 13.8545 137.306C13.854 137.304 13.8535 137.303 13.8535 137.303L13.8504 137.296C13.1533 135.677 12.2863 134.114 11.4008 132.572C10.5096 131.031 9.58965 129.504 8.64865 127.991C6.76458 124.964 4.82556 121.971 2.84082 119.008Z" fill="black"/>
</g>
<path d="M20.8234 140.448C18.1833 138.069 14.2734 135.711 10.553 133.171C5.60504 129.795 0.99299 126.087 0.139306 121.56C-1.8028 137.901 17.2037 145.258 17.2037 145.258L17.2418 145.313L24.1447 155.382C24.1447 155.382 26.9656 145.994 20.8234 140.448Z" fill="#20C3C5"/>
<g opacity="0.25">
<path d="M0.139695 121.56C0.151509 123.381 0.680566 125.163 1.44693 126.799C2.24617 128.427 3.331 129.908 4.62334 131.176C5.91465 132.449 7.40475 133.495 8.92617 134.482C10.4466 135.473 11.9921 136.43 13.4956 137.454C16.4927 139.491 19.3661 141.868 21.3755 144.953C23.4147 148.014 24.3557 151.726 24.3557 155.382C24.3562 155.498 24.2627 155.592 24.1466 155.593C24.0305 155.593 23.936 155.5 23.9355 155.384V155.381C23.9684 151.788 23.0849 148.153 21.111 145.124C19.1658 142.072 16.3453 139.686 13.3769 137.627C11.8884 136.591 10.3531 135.621 8.83988 134.613C7.32616 133.611 5.83709 132.544 4.54988 131.25C3.26217 129.962 2.18607 128.463 1.40019 126.821C0.64564 125.172 0.134045 123.381 0.139695 121.56Z" fill="black"/>
</g>
<path d="M156.135 189.699H28.4369C26.4229 189.699 24.7905 188.066 24.7905 186.052C24.7905 184.038 26.4234 182.406 28.4369 182.406H156.135C158.149 182.406 159.782 184.038 159.782 186.052C159.782 188.066 158.149 189.699 156.135 189.699Z" fill="#D1E3E1"/>
</svg>
