<svg width="18" height="19" viewBox="0 0 18 19" fill="none" xmlns="http://www.w3.org/2000/svg">
<path fill-rule="evenodd" clip-rule="evenodd" d="M0 6.52362C0 4.32733 1.78045 2.54688 3.97674 2.54688H14.0233C16.2196 2.54688 18 4.32733 18 6.52362V14.8957C18 17.092 16.2196 18.8725 14.0233 18.8725H3.97674C1.78045 18.8725 0 17.092 0 14.8957V6.52362ZM3.97674 3.80269C2.47401 3.80269 1.25581 5.02089 1.25581 6.52362V14.8957C1.25581 16.3984 2.47401 17.6166 3.97674 17.6166H14.0233C15.526 17.6166 16.7442 16.3984 16.7442 14.8957V6.52362C16.7442 5.02089 15.526 3.80269 14.0233 3.80269H3.97674Z" fill="#777777"/>
<path d="M6.07027 7.77734H5.23306C5.00187 7.77734 4.81445 7.96476 4.81445 8.19595V9.03316C4.81445 9.26435 5.00187 9.45176 5.23306 9.45176H6.07027C6.30146 9.45176 6.48887 9.26435 6.48887 9.03316V8.19595C6.48887 7.96476 6.30146 7.77734 6.07027 7.77734Z" fill="#777777"/>
<path d="M9.4189 7.77734H8.58169C8.3505 7.77734 8.16309 7.96476 8.16309 8.19595V9.03316C8.16309 9.26435 8.3505 9.45176 8.58169 9.45176H9.4189C9.65009 9.45176 9.8375 9.26435 9.8375 9.03316V8.19595C9.8375 7.96476 9.65009 7.77734 9.4189 7.77734Z" fill="#777777"/>
<path d="M12.7675 7.77734H11.9303C11.6991 7.77734 11.5117 7.96476 11.5117 8.19595V9.03316C11.5117 9.26435 11.6991 9.45176 11.9303 9.45176H12.7675C12.9987 9.45176 13.1861 9.26435 13.1861 9.03316V8.19595C13.1861 7.96476 12.9987 7.77734 12.7675 7.77734Z" fill="#777777"/>
<path d="M6.07027 10.2891H5.23306C5.00187 10.2891 4.81445 10.4765 4.81445 10.7077V11.5449C4.81445 11.7761 5.00187 11.9635 5.23306 11.9635H6.07027C6.30146 11.9635 6.48887 11.7761 6.48887 11.5449V10.7077C6.48887 10.4765 6.30146 10.2891 6.07027 10.2891Z" fill="#777777"/>
<path d="M6.07027 12.8008H5.23306C5.00187 12.8008 4.81445 12.9882 4.81445 13.2194V14.0566C4.81445 14.2878 5.00187 14.4752 5.23306 14.4752H6.07027C6.30146 14.4752 6.48887 14.2878 6.48887 14.0566V13.2194C6.48887 12.9882 6.30146 12.8008 6.07027 12.8008Z" fill="#777777"/>
<path d="M9.4189 10.2891H8.58169C8.3505 10.2891 8.16309 10.4765 8.16309 10.7077V11.5449C8.16309 11.7761 8.3505 11.9635 8.58169 11.9635H9.4189C9.65009 11.9635 9.8375 11.7761 9.8375 11.5449V10.7077C9.8375 10.4765 9.65009 10.2891 9.4189 10.2891Z" fill="#777777"/>
<path d="M9.4189 12.8008H8.58169C8.3505 12.8008 8.16309 12.9882 8.16309 13.2194V14.0566C8.16309 14.2878 8.3505 14.4752 8.58169 14.4752H9.4189C9.65009 14.4752 9.8375 14.2878 9.8375 14.0566V13.2194C9.8375 12.9882 9.65009 12.8008 9.4189 12.8008Z" fill="#777777"/>
<path d="M12.7675 10.2891H11.9303C11.6991 10.2891 11.5117 10.4765 11.5117 10.7077V11.5449C11.5117 11.7761 11.6991 11.9635 11.9303 11.9635H12.7675C12.9987 11.9635 13.1861 11.7761 13.1861 11.5449V10.7077C13.1861 10.4765 12.9987 10.2891 12.7675 10.2891Z" fill="#777777"/>
<path d="M12.7675 12.8008H11.9303C11.6991 12.8008 11.5117 12.9882 11.5117 13.2194V14.0566C11.5117 14.2878 11.6991 14.4752 11.9303 14.4752H12.7675C12.9987 14.4752 13.1861 14.2878 13.1861 14.0566V13.2194C13.1861 12.9882 12.9987 12.8008 12.7675 12.8008Z" fill="#777777"/>
<path fill-rule="evenodd" clip-rule="evenodd" d="M5.65122 0.871094C5.998 0.871094 6.27913 1.15222 6.27913 1.499V4.42923C6.27913 4.77601 5.998 5.05714 5.65122 5.05714C5.30444 5.05714 5.02332 4.77601 5.02332 4.42923V1.499C5.02332 1.15222 5.30444 0.871094 5.65122 0.871094Z" fill="#777777"/>
<path fill-rule="evenodd" clip-rule="evenodd" d="M12.3488 0.871094C12.6956 0.871094 12.9767 1.15222 12.9767 1.499V4.42923C12.9767 4.77601 12.6956 5.05714 12.3488 5.05714C12.002 5.05714 11.7209 4.77601 11.7209 4.42923V1.499C11.7209 1.15222 12.002 0.871094 12.3488 0.871094Z" fill="#777777"/>
</svg>
