<svg width="17" height="17" viewBox="0 0 17 17" fill="none" xmlns="http://www.w3.org/2000/svg">
<path d="M15.7887 1.21217C15.6231 1.04782 15.4155 0.932281 15.1886 0.878252C14.9617 0.824224 14.7243 0.833799 14.5024 0.905925L1.70118 5.17592C1.46376 5.25115 1.25397 5.39505 1.09829 5.58944C0.942611 5.78384 0.848032 6.02 0.826497 6.26812C0.804963 6.51623 0.857439 6.76516 0.977298 6.98347C1.09716 7.20178 1.27902 7.37967 1.49993 7.49467L6.81118 10.1197L9.43618 15.4484C9.54169 15.657 9.70314 15.8321 9.90247 15.9542C10.1018 16.0763 10.3312 16.1405 10.5649 16.1397H10.6524C10.9028 16.1212 11.1418 16.0279 11.3384 15.8719C11.535 15.7159 11.6801 15.5043 11.7549 15.2647L16.0862 2.49842C16.1635 2.27786 16.1766 2.03987 16.1239 1.81216C16.0713 1.58444 15.955 1.37637 15.7887 1.21217ZM2.24368 6.38342L13.4174 2.65592L7.21368 8.85967L2.24368 6.38342ZM10.6262 14.7572L8.14118 9.78718L14.3449 3.58342L10.6262 14.7572Z" fill="white"/>
</svg>
