<?xml version="1.0" standalone="no"?>
<!DOCTYPE svg PUBLIC "-//W3C//DTD SVG 20010904//EN"
 "http://www.w3.org/TR/2001/REC-SVG-20010904/DTD/svg10.dtd">
<svg version="1.0" xmlns="http://www.w3.org/2000/svg"
 width="1920.000000pt" height="1296.000000pt" viewBox="0 0 1920.000000 1296.000000"
 preserveAspectRatio="xMidYMid meet">

<g transform="translate(0.000000,1296.000000) scale(0.100000,-0.100000)"
fill="#000000" stroke="none">
<path d="M12585 12133 c-116 -7 -264 -26 -490 -62 -132 -22 -293 -44 -358 -50
-66 -6 -142 -20 -170 -30 -61 -21 -302 -165 -437 -261 -177 -126 -314 -294
-341 -418 -9 -44 -8 -62 5 -103 l17 -50 -56 -61 c-62 -69 -115 -166 -115 -210
0 -81 87 -156 220 -189 82 -21 599 -18 789 4 250 29 410 22 736 -33 285 -48
621 -78 642 -56 13 13 -9 17 -148 26 -144 10 -300 28 -308 36 -2 2 45 4 105 4
170 0 343 27 499 76 117 36 439 199 474 240 33 36 62 109 95 232 19 74 24 82
36 67 29 -35 24 -115 -14 -226 -20 -58 -36 -123 -36 -146 0 -76 -81 -129 -320
-211 -80 -27 -181 -64 -225 -82 -119 -48 -239 -88 -345 -115 -99 -25 -722
-129 -990 -165 -142 -20 -183 -31 -168 -45 10 -10 907 128 1083 166 100 22
258 72 398 126 78 30 201 75 272 100 161 55 234 93 285 149 33 36 40 50 40 85
0 23 16 91 35 150 43 134 45 180 7 240 -25 40 -27 49 -21 109 8 81 -4 162 -30
198 -44 62 -200 126 -379 156 -46 8 -85 16 -88 19 -3 3 1 36 9 73 8 38 12 74
10 81 -5 13 -42 29 -89 38 -17 3 -68 28 -115 56 -46 27 -101 54 -122 60 -77
21 -254 31 -392 22z m263 -34 c108 -12 137 -22 234 -80 37 -22 90 -47 119 -54
76 -20 81 -28 65 -98 -8 -32 -15 -59 -17 -61 -2 -2 -38 1 -79 5 -41 4 -150 8
-242 8 -141 1 -194 -4 -344 -29 -747 -126 -1366 -328 -1668 -545 l-77 -55 -15
35 c-18 43 -18 59 1 121 49 165 221 323 590 542 137 81 184 96 362 111 67 6
213 26 325 45 362 62 559 76 746 55z m374 -325 c15 -8 12 -22 -31 -139 l-47
-130 -45 1 c-24 1 -102 6 -172 13 -345 30 -593 2 -917 -105 -251 -84 -452
-197 -586 -329 -39 -38 -76 -79 -82 -89 -9 -19 -18 -17 -198 43 -263 88 -305
111 -269 151 31 34 174 121 290 176 333 158 844 300 1445 404 97 16 152 19
355 17 132 -2 248 -8 257 -13z m225 -39 c121 -29 216 -70 260 -114 38 -39 58
-118 48 -192 -6 -42 -10 -49 -24 -43 -107 45 -149 54 -428 90 -73 9 -133 21
-133 26 0 5 21 68 48 139 l47 130 40 -6 c22 -4 86 -17 142 -30z m-478 -250
c79 -8 146 -17 149 -19 14 -15 -59 -146 -128 -229 -228 -275 -439 -391 -799
-441 -156 -22 -181 -21 -325 19 -176 48 -489 146 -500 156 -23 21 79 124 209
211 241 162 560 272 900 312 81 9 366 4 494 -9z m400 -50 c102 -14 213 -32
245 -40 72 -19 126 -50 126 -73 0 -28 -49 -202 -71 -251 -11 -25 -30 -56 -41
-68 -30 -32 -326 -179 -432 -215 -161 -54 -260 -69 -501 -75 -232 -6 -443 7
-530 31 -27 8 -45 15 -38 15 65 5 264 47 337 72 173 58 297 137 442 285 115
117 166 183 209 273 22 46 41 71 51 71 9 0 101 -11 203 -25z m-2514 -315 c20
-22 107 -57 316 -125 l146 -48 0 -43 c0 -79 68 -137 193 -166 l55 -12 -75 -8
c-41 -5 -190 -7 -330 -5 -234 3 -260 5 -320 26 -75 26 -124 60 -151 105 -25
41 -24 77 5 134 29 57 114 162 131 162 6 0 20 -9 30 -20z m980 -331 l90 -23
-45 -9 c-25 -4 -108 -6 -185 -4 -202 6 -301 42 -340 123 -31 67 -23 67 192 -1
109 -34 239 -73 288 -86z"/>
<path d="M13292 10419 c-41 -11 -101 -33 -134 -50 l-59 -30 -87 23 c-74 19
-110 23 -242 22 -133 -1 -169 -5 -252 -27 -206 -54 -360 -167 -429 -314 l-34
-73 -35 8 c-19 4 -75 7 -125 7 -81 0 -95 -3 -144 -30 -168 -93 -230 -323 -136
-511 19 -40 51 -86 71 -104 l37 -32 -17 -75 c-51 -232 -30 -406 104 -858 74
-251 86 -302 105 -445 47 -360 158 -696 298 -904 26 -38 47 -72 47 -75 0 -3
-26 -22 -57 -40 -95 -56 -243 -174 -319 -253 -167 -174 -253 -286 -478 -625
-70 -106 -132 -193 -138 -193 -6 0 -8 -7 -4 -15 4 -11 -10 -25 -47 -48 -646
-396 -934 -711 -998 -1093 l-13 -76 -436 6 c-239 4 -1015 11 -1725 16 -709 5
-1452 12 -1650 15 -198 3 -855 8 -1460 11 -605 4 -1426 9 -1825 13 -1155 10
-2206 1 -2220 -19 -3 -3 -41 -31 -85 -60 -44 -30 -179 -124 -300 -210 -121
-86 -276 -194 -345 -240 -138 -92 -149 -100 -133 -100 17 0 200 123 434 293
118 85 264 188 324 229 l110 75 345 9 c506 13 2014 8 4640 -15 2237 -20 2634
-24 3791 -37 l526 -6 6 -107 c7 -135 36 -278 86 -422 54 -155 81 -213 92 -202
7 7 -2 40 -25 94 -124 303 -160 587 -102 813 84 326 320 583 848 922 81 52
153 97 160 99 24 10 231 -321 353 -565 36 -71 65 -133 65 -137 0 -5 -37 -23
-83 -42 -108 -45 -310 -150 -479 -249 l-136 -80 -22 59 c-19 53 -35 77 -45 67
-2 -2 10 -44 27 -93 29 -81 32 -101 31 -200 -1 -78 -10 -158 -32 -275 -17 -91
-31 -175 -31 -187 0 -22 -4 -23 -72 -23 -40 0 -80 -5 -88 -10 -10 -7 12 -10
73 -10 l87 0 0 -46 c0 -27 4 -43 10 -39 6 3 10 24 10 45 l0 38 50 -13 c154
-41 273 -153 375 -355 49 -97 124 -283 118 -292 -8 -15 -88 -8 -130 11 -30 14
-49 33 -69 68 -15 26 -53 75 -83 108 -31 33 -67 75 -81 93 -19 25 -30 32 -44
26 -30 -12 -17 -116 33 -259 96 -269 113 -330 115 -392 1 -48 -3 -68 -20 -89
-19 -26 -82 -69 -89 -62 -7 7 -154 328 -181 395 -28 70 -44 91 -44 57 0 -21
54 -150 138 -327 75 -160 80 -167 90 -151 4 6 26 21 48 32 31 16 48 34 64 68
32 66 23 135 -40 314 -81 227 -99 284 -105 341 l-7 54 28 -35 c16 -19 51 -60
79 -90 28 -30 63 -75 77 -100 37 -64 83 -88 183 -91 65 -2 79 0 77 12 -6 32
-88 230 -130 314 -107 217 -237 339 -402 377 l-51 12 6 50 c4 28 17 107 30
176 13 69 26 155 30 191 l7 67 1338 -2 1339 -1 21 -95 c32 -139 82 -285 130
-381 69 -136 231 -282 378 -341 46 -18 77 -22 163 -23 102 0 107 1 183 39 164
80 310 273 410 540 22 59 45 135 76 255 l11 43 191 -7 c125 -5 193 -4 197 3 5
9 435 20 1941 48 l345 7 347 -869 c665 -1665 1078 -2725 1078 -2766 0 -6 -455
-7 -1132 -4 -1702 10 -5315 25 -9678 41 -2148 8 -4173 17 -4500 19 -327 3
-1295 6 -2150 7 -1330 2 -1564 0 -1615 -12 l-60 -15 3 -244 c1 -135 5 -366 8
-514 l7 -269 426 6 c234 4 4530 7 9546 8 5016 0 9135 3 9153 6 l32 5 0 482 c0
265 -4 486 -9 492 -4 5 -34 79 -66 164 -121 326 -334 867 -813 2060 -272 679
-511 1277 -531 1327 l-36 93 -90 0 c-122 0 -1033 -18 -1220 -25 -82 -2 -338
-8 -567 -11 -356 -6 -418 -5 -418 7 0 8 -7 73 -15 144 -7 72 -21 222 -30 335
-31 393 -93 729 -162 880 -19 41 -54 131 -78 200 -62 179 -133 319 -224 440
-131 175 -295 318 -491 428 -97 54 -281 123 -430 162 l-145 37 -9 115 c-5 64
-6 127 -2 142 9 38 128 159 207 212 l69 45 26 -20 c79 -62 258 23 320 151 12
25 33 41 82 66 133 64 248 198 310 359 142 369 63 875 -180 1147 -54 60 -153
130 -209 147 l-36 11 -7 88 c-13 169 -53 268 -143 350 -65 59 -140 96 -241
118 -54 11 -81 22 -91 37 -8 11 -40 45 -71 75 -63 61 -152 110 -246 134 -88
23 -259 20 -352 -5z m-1499 -1149 c38 -17 46 -25 52 -57 17 -92 79 -169 175
-217 157 -78 379 -71 559 17 68 33 157 108 180 151 l14 26 30 -52 c79 -138
260 -238 432 -238 60 0 170 26 232 55 l55 25 29 -25 c16 -13 46 -27 67 -30 86
-14 82 -11 82 -65 0 -41 5 -55 31 -85 55 -63 109 -65 169 -6 43 42 109 80 138
81 8 0 30 -8 49 -17 95 -45 121 -266 47 -408 -14 -27 -40 -77 -57 -110 -21
-42 -32 -79 -35 -123 l-4 -63 46 -45 47 -44 -17 -56 c-15 -54 -16 -162 -1
-195 6 -11 -10 -27 -62 -63 -38 -26 -99 -79 -135 -117 -36 -38 -68 -69 -71
-69 -3 0 -5 17 -5 38 0 53 -35 213 -54 250 -18 34 -54 64 -68 56 -5 -3 3 -16
17 -30 71 -66 98 -260 96 -704 -1 -328 -13 -568 -37 -748 l-15 -113 154 -247
c261 -416 496 -858 632 -1189 35 -85 55 -114 55 -79 0 7 -27 76 -61 152 -72
165 -75 174 -58 174 31 0 334 -75 429 -106 152 -51 145 -42 131 -171 -6 -59
-17 -133 -23 -163 -6 -30 -11 -62 -10 -70 1 -35 -63 -254 -104 -354 -221 -540
-574 -663 -935 -328 -44 41 -94 100 -113 132 -107 182 -171 437 -251 995 -68
474 -80 529 -163 715 -84 191 -153 330 -163 330 -14 0 -11 -13 16 -73 24 -52
25 -60 16 -139 -5 -46 -13 -195 -17 -333 l-7 -250 -39 120 c-32 100 -72 284
-150 685 -5 30 -14 60 -19 66 -5 6 -2 46 6 95 8 46 15 98 15 114 1 69 17 51
100 -110 55 -106 88 -160 95 -154 6 6 -22 70 -79 180 -108 210 -126 261 -126
353 0 100 -31 189 -160 456 -114 235 -144 318 -156 419 l-7 61 49 0 c108 0
157 -62 249 -320 21 -58 50 -130 66 -162 23 -46 32 -55 49 -51 15 4 20 14 20
39 0 51 -25 156 -70 299 -55 174 -80 279 -80 343 0 28 -4 52 -10 52 -16 0 -11
-119 9 -200 10 -41 39 -141 64 -221 45 -143 74 -275 64 -286 -9 -8 -42 64 -92
202 -91 253 -139 315 -246 323 -84 6 -93 -4 -85 -92 9 -100 44 -194 166 -446
59 -124 115 -246 123 -272 l16 -47 -32 -20 c-43 -26 -194 -37 -307 -22 -118
16 -242 77 -350 173 -44 39 -80 74 -80 78 0 4 -14 23 -31 41 -35 38 -120 178
-156 259 -80 177 -149 426 -177 640 -23 170 -47 275 -126 545 -98 332 -113
410 -114 585 -1 145 18 280 38 280 2 0 24 -9 49 -20z m2211 -2085 c155 -38
378 -132 515 -217 349 -218 593 -594 673 -1036 28 -156 30 -445 4 -612 -18
-116 -67 -326 -83 -354 -7 -14 -17 -12 -73 15 -95 45 -528 158 -551 144 -4 -3
-34 44 -64 106 -141 280 -377 691 -552 962 l-66 102 17 145 c21 187 36 449 36
635 0 135 1 146 18 141 9 -3 66 -17 126 -31z m-1648 -329 c109 -106 234 -171
375 -192 63 -9 124 -12 157 -8 l55 7 -7 -64 c-4 -35 -17 -122 -31 -194 -21
-116 -36 -201 -52 -304 l-6 -34 31 21 c16 12 44 44 62 72 l32 49 58 -41 c53
-37 59 -45 65 -87 39 -268 162 -778 201 -838 14 -22 34 -31 34 -15 0 111 23
626 28 647 7 26 14 15 70 -114 34 -79 71 -175 82 -214 24 -88 60 -301 100
-592 17 -121 36 -255 44 -298 10 -57 10 -80 2 -83 -6 -2 -198 -3 -426 -2
l-414 3 -16 80 c-37 183 -94 311 -185 417 -37 43 -134 220 -161 291 -17 46
-19 49 -48 43 -67 -13 -513 -244 -635 -330 -34 -24 -45 -28 -49 -17 -3 8 -36
78 -74 155 -79 159 -143 271 -264 462 -46 73 -84 136 -84 142 0 14 293 451
379 566 92 122 295 333 391 406 61 46 195 136 208 139 2 1 37 -32 78 -73z
m742 -348 c6 -15 9 -42 7 -60 -20 -156 -39 -268 -46 -268 -4 0 -42 27 -84 61
-63 50 -76 65 -71 82 8 32 44 223 53 287 8 53 9 55 43 60 19 4 44 11 55 17 19
11 20 8 26 -70 3 -45 11 -94 17 -109z m-140 -285 c6 -3 -66 -110 -79 -118 -9
-6 -10 -1 -5 21 3 16 11 55 18 87 l12 57 25 -22 c14 -13 28 -24 29 -25z m2317
-455 c40 -169 79 -439 95 -663 6 -88 18 -218 26 -290 7 -71 14 -149 14 -173
l0 -44 -152 3 c-210 4 -201 1 -193 58 4 25 13 92 19 149 8 66 17 107 26 112
14 9 22 35 65 205 64 256 79 567 40 805 l-6 35 16 -27 c8 -15 31 -92 50 -170z
m-2812 -490 c26 -57 70 -134 97 -173 27 -38 67 -95 88 -125 46 -64 103 -212
126 -324 9 -43 16 -82 16 -87 0 -10 -1674 -12 -1746 -2 -46 6 -45 4 -57 113
-5 38 669 396 704 374 5 -3 9 -11 9 -19 0 -27 19 -24 68 10 144 98 585 332
632 334 11 1 32 -34 63 -101z"/>
<path d="M14006 8703 c-18 -42 -37 -171 -25 -178 10 -7 19 22 19 65 0 30 5 40
20 45 11 3 20 10 20 15 0 5 -7 7 -15 4 -19 -8 -19 7 -1 51 20 47 3 45 -18 -2z"/>
<path d="M12552 8358 c3 -7 13 -15 24 -17 10 -2 127 -41 258 -87 158 -56 243
-81 249 -75 7 7 6 12 -4 16 -69 26 -513 175 -520 175 -6 0 -9 -6 -7 -12z"/>
<path d="M12075 8314 c-46 -17 -135 -75 -135 -88 0 -5 10 -1 23 8 46 33 117
66 156 72 23 4 44 11 47 15 8 14 -46 9 -91 -7z"/>
<path d="M12191 8076 c-32 -34 -82 -56 -125 -56 -20 0 -36 -4 -36 -10 0 -5 17
-10 38 -10 40 0 110 38 146 78 26 30 5 28 -23 -2z"/>
<path d="M12602 8028 c3 -7 29 -21 59 -31 43 -15 71 -18 139 -14 82 5 149 21
137 33 -3 3 -29 1 -57 -5 -75 -16 -148 -13 -210 9 -65 23 -73 24 -68 8z"/>
<path d="M12378 7924 c-5 -4 -8 -18 -8 -31 0 -13 -19 -80 -42 -149 -40 -121
-41 -125 -26 -158 19 -38 102 -86 119 -69 7 7 -6 18 -38 34 -29 14 -53 35 -61
52 -15 30 -11 46 43 195 23 66 32 146 13 126z"/>
<path d="M13390 7891 c0 -5 13 -11 29 -14 46 -10 98 -62 120 -123 24 -64 41
-193 41 -319 0 -113 10 -195 23 -195 6 0 7 27 4 73 -4 39 -3 160 2 267 9 208
22 267 61 277 18 5 29 23 14 23 -37 0 -77 -69 -90 -155 l-7 -50 -17 62 c-20
74 -60 130 -106 149 -38 16 -74 18 -74 5z"/>
<path d="M13351 7838 c-24 -67 -24 -178 -2 -349 12 -91 21 -185 19 -210 -3
-39 -8 -26 -46 116 -51 189 -104 306 -162 358 -37 34 -70 48 -70 30 0 -5 12
-16 28 -26 75 -52 120 -145 190 -401 34 -124 51 -171 62 -171 24 0 24 143 0
317 -23 176 -24 220 -6 306 13 66 6 84 -13 30z"/>
<path d="M12550 7172 c0 -5 39 -15 88 -23 106 -16 101 -16 105 -4 1 5 -27 15
-63 22 -77 14 -130 16 -130 5z"/>
<path d="M7500 4283 c-213 -20 -268 -27 -351 -43 l-97 -19 -213 -214 c-281
-282 -466 -427 -726 -568 -89 -49 -115 -71 -285 -239 -102 -102 -211 -201
-242 -220 -31 -19 -54 -39 -53 -44 2 -5 19 -15 38 -21 20 -7 28 -14 20 -16
-34 -12 9 -30 147 -63 532 -127 1075 -179 1876 -180 l449 -1 24 72 c49 146
227 484 461 873 91 152 280 454 333 532 22 31 39 62 39 67 0 6 -16 11 -35 11
-32 0 -35 2 -25 19 5 11 10 22 10 25 0 3 -44 6 -97 6 -54 0 -242 7 -418 15
-283 13 -758 18 -855 8z m840 -33 c113 -5 268 -10 345 -11 77 -1 143 -4 147
-6 4 -2 -42 -79 -101 -171 -218 -339 -489 -801 -606 -1032 -21 -41 -60 -127
-86 -190 l-47 -115 -363 2 c-830 5 -1400 60 -1921 184 -71 17 -128 34 -128 38
0 4 15 15 33 25 17 11 115 103 217 205 171 171 193 190 280 236 268 142 561
376 820 656 130 141 112 132 340 165 236 33 544 38 1070 14z m411 -287 c-360
-570 -614 -1027 -682 -1227 l-24 -69 -400 7 c-677 10 -1106 42 -1519 112 -216
36 -503 100 -493 110 2 2 66 -9 141 -26 324 -73 756 -129 1121 -145 77 -4 151
-9 165 -11 14 -2 232 -7 486 -11 l460 -6 23 69 c57 173 287 599 575 1064 227
366 216 350 253 350 l31 0 -137 -217z"/>
<path d="M7266 3982 c-5 -9 37 -12 161 -12 92 -1 206 -3 253 -5 228 -11 539
-15 544 -7 10 16 -87 21 -525 28 -317 5 -428 4 -433 -4z"/>
<path d="M7096 3852 c-4 -7 798 -53 921 -52 28 0 54 4 57 9 3 5 -62 12 -147
16 -83 3 -264 13 -402 21 -283 16 -422 18 -429 6z"/>
<path d="M6920 3602 c0 -6 43 -13 108 -16 59 -4 161 -11 227 -16 383 -31 645
-35 645 -9 0 5 -80 9 -177 9 -98 0 -259 7 -358 15 -285 23 -445 30 -445 17z"/>
<path d="M6249 3361 c-93 -36 -169 -102 -209 -182 -44 -85 -13 -141 102 -184
87 -32 186 -37 235 -12 38 20 81 70 89 104 12 44 -4 129 -33 184 -38 74 -39
77 -11 51 27 -24 43 -20 28 8 -13 25 -72 50 -117 50 -21 -1 -59 -9 -84 -19z
m123 -20 c-1 -7 2 -19 8 -26 14 -17 -3 -30 -60 -46 -49 -13 -74 -29 -48 -29 8
0 34 7 57 15 l42 14 -3 -51 -3 -51 -50 -15 c-57 -17 -46 -29 12 -13 46 13 55
5 51 -45 l-3 -39 -62 -10 c-62 -10 -95 -25 -55 -25 19 0 112 17 138 25 7 2 8
21 4 55 -4 28 -3 53 2 56 5 3 4 12 -2 19 -6 7 -10 37 -8 67 l3 53 28 -55 c31
-64 36 -143 12 -190 -43 -82 -189 -88 -329 -12 -85 45 -88 114 -10 201 73 81
154 122 234 118 32 -1 44 -6 42 -16z"/>
<path d="M6868 3374 c-17 -16 8 -24 80 -24 42 0 149 -7 237 -16 167 -18 490
-24 538 -11 35 10 37 32 1 23 -45 -12 -339 -7 -502 8 -240 22 -346 28 -354 20z"/>
<path d="M6610 3132 c0 -18 62 -22 450 -32 367 -8 478 -16 599 -41 35 -7 56
-8 63 -1 10 10 -41 24 -165 43 -34 6 -240 15 -457 20 -217 5 -416 12 -442 15
-29 4 -48 2 -48 -4z"/>
<path d="M10346 3822 c-2 -4 -15 -46 -27 -92 -33 -120 -33 -301 -1 -380 12
-30 22 -64 22 -75 0 -37 50 -215 86 -308 86 -225 201 -348 329 -352 28 -1 64
-5 82 -9 38 -9 100 20 132 60 32 41 16 41 -29 0 -115 -104 -222 16 -346 389
-29 88 -57 161 -63 163 -17 6 -14 -6 38 -166 56 -173 112 -297 164 -364 l37
-48 -28 0 c-15 0 -50 14 -79 30 -114 65 -228 281 -282 535 -12 55 -32 129 -44
165 -31 93 -29 240 5 368 14 50 22 92 17 92 -4 0 -10 -4 -13 -8z"/>
<path d="M10700 3275 c0 -28 111 -328 151 -406 44 -88 101 -154 142 -164 15
-4 40 -2 57 5 33 14 105 88 95 98 -3 4 -21 -10 -38 -30 -108 -126 -207 -20
-337 360 -47 136 -70 181 -70 137z"/>
</g>
</svg>
