<svg width="199" height="203" viewBox="0 0 199 203" fill="none" xmlns="http://www.w3.org/2000/svg">
<g clip-path="url(#clip0_4308_7032)">
<path d="M194.709 111.311C192.889 108.362 191.922 104.964 191.922 101.493C191.922 97.8717 192.975 94.3281 194.952 91.2929L194.954 91.2913C196.105 89.5301 196.889 87.5556 197.259 85.4854C197.63 83.4152 197.58 81.2917 197.111 79.2414C196.643 77.1911 195.766 75.2558 194.533 73.5511C193.3 71.8463 191.735 70.4068 189.933 69.3186L189.931 69.3172C186.832 67.4383 184.346 64.7018 182.773 61.4393C181.199 58.1767 180.608 54.5283 181.069 50.9363L181.069 50.9319C181.157 50.2649 181.201 49.5929 181.2 48.9202L194.709 111.311ZM194.709 111.311V111.329L194.953 111.703C196.103 113.464 196.886 115.437 197.257 117.507C197.627 119.576 197.576 121.699 197.108 123.749C196.639 125.798 195.763 127.733 194.53 129.437C193.297 131.141 191.734 132.58 189.933 133.669L189.931 133.67C186.832 135.549 184.346 138.285 182.773 141.548C181.199 144.81 180.608 148.459 181.069 152.051L181.069 152.055C181.158 152.728 181.202 153.406 181.2 154.085V154.085C181.194 157.981 179.737 161.735 177.112 164.616C174.487 167.498 170.882 169.301 166.998 169.675C163.389 170.02 159.959 171.406 157.124 173.665C154.289 175.923 152.173 178.957 151.033 182.396L151.033 182.396C150.372 184.393 149.315 186.237 147.925 187.818C146.535 189.398 144.841 190.683 142.943 191.596C141.045 192.509 138.983 193.031 136.879 193.13C134.775 193.23 132.672 192.906 130.696 192.177L130.695 192.177C127.294 190.924 123.601 190.686 120.067 191.491C116.533 192.296 113.308 194.111 110.787 196.713L110.786 196.713C109.323 198.225 107.57 199.428 105.631 200.249C103.692 201.07 101.608 201.494 99.5021 201.494C97.3961 201.494 95.3118 201.07 93.3732 200.249C91.4345 199.428 89.6812 198.225 88.2177 196.713L88.2172 196.713C85.6957 194.111 82.4716 192.296 78.9372 191.491C75.4027 190.686 71.7102 190.924 68.3087 192.177L68.3079 192.177C66.332 192.906 64.2293 193.23 62.1252 193.13C60.0211 193.031 57.9587 192.509 56.061 191.596C54.1632 190.683 52.469 189.398 51.0792 187.818C49.6893 186.237 48.6324 184.393 47.9712 182.396L47.9708 182.395C46.8293 178.957 44.7127 175.925 41.8784 173.667C39.0442 171.409 35.6143 170.022 32.006 169.675L32.0055 169.675C28.1238 169.302 24.5198 167.501 21.8943 164.622C19.2693 161.744 17.81 157.993 17.8 154.1C17.8 153.422 17.8449 152.744 17.9344 152.072L17.9357 152.062C18.0358 151.267 18.0865 150.467 18.0875 149.667V149.665C18.0886 146.449 17.2594 143.288 15.6802 140.486C14.101 137.684 11.8251 135.336 9.07269 133.669L9.07141 133.669C7.26958 132.58 5.7056 131.14 4.47254 129.435C3.23947 127.731 2.36253 125.796 1.89382 123.745C1.42511 121.695 1.37422 119.572 1.74416 117.502L0.267546 117.238L1.74416 117.502C2.1141 115.431 2.89732 113.457 4.04728 111.695L4.04735 111.695C6.0277 108.66 7.08216 105.116 7.08216 101.493C7.08216 97.8709 6.0277 94.3266 4.04735 91.2921L4.04728 91.292C2.89732 89.5302 2.1141 87.5555 1.74416 85.4852C1.37422 83.415 1.42511 81.2917 1.89382 79.2415C2.36253 77.1913 3.23948 75.2562 4.47253 73.5515C5.7056 71.8467 7.26958 70.4071 9.07141 69.3184L9.07268 69.3176C11.8234 67.6519 14.0981 65.3061 15.6772 62.5064C17.2564 59.7066 18.0865 56.5475 18.0875 53.3338L18.0875 53.3314C18.0865 52.5306 18.0358 51.7307 17.9357 50.9361L17.9343 50.9258C17.8456 50.2591 17.8007 49.5873 17.8 48.9147C17.8077 45.0201 19.2658 41.2673 21.891 38.3867C24.5167 35.5056 28.1221 33.7031 32.0055 33.3307L32.006 33.3306C35.6143 32.9834 39.0442 31.5965 41.8784 29.3384C44.7127 27.0802 46.8293 24.0481 47.9708 20.6104L47.9712 20.6091C48.6324 18.6121 49.6893 16.7683 51.0792 15.1878C52.469 13.6072 54.1632 12.3222 56.061 11.4094C57.9587 10.4965 60.0211 9.97464 62.1252 9.87482C64.2293 9.775 66.332 10.0993 68.3079 10.8284L68.3087 10.8287C71.7102 12.0813 75.4027 12.3195 78.9372 11.5142C82.4716 10.7089 85.6957 8.8948 88.2172 6.29242L88.2177 6.29191C89.6812 4.77995 91.4345 3.57749 93.3732 2.75623C95.3118 1.93497 97.3961 1.51172 99.5021 1.51172C101.608 1.51172 103.692 1.93497 105.631 2.75623C107.57 3.57749 109.323 4.77995 110.786 6.29191L110.787 6.29212C113.308 8.89545 116.532 10.7102 120.067 11.5156C123.601 12.3209 127.294 12.0823 130.696 10.8285L130.696 10.8284C132.672 10.0993 134.775 9.775 136.879 9.87482C138.983 9.97464 141.045 10.4965 142.943 11.4094C144.841 12.3222 146.535 13.6072 147.925 15.1878C149.315 16.7683 150.372 18.6121 151.033 20.6091L151.033 20.6096C152.173 24.0486 154.289 27.082 157.124 29.3406C159.959 31.599 163.389 32.9852 166.998 33.3307C170.882 33.7039 174.487 35.5072 177.112 38.389C179.737 41.2704 181.194 45.0239 181.2 48.9188L194.709 111.311ZM182.557 151.86C182.132 148.556 182.677 145.2 184.124 142.199C185.571 139.198 187.858 136.681 190.708 134.952C192.682 133.76 194.395 132.183 195.745 130.316C197.096 128.449 198.057 126.329 198.57 124.083C199.083 121.837 199.139 119.511 198.733 117.243L182.557 151.86ZM182.557 151.86C182.654 152.598 182.702 153.343 182.7 154.088L182.557 151.86Z" stroke="#2DB2C4" stroke-width="3"/>
<path d="M99.2827 179.761C142.546 179.761 177.618 144.729 177.618 101.515C177.618 58.3013 142.546 23.2695 99.2827 23.2695C56.0192 23.2695 20.9473 58.3013 20.9473 101.515C20.9473 144.729 56.0192 179.761 99.2827 179.761Z" fill="#2DB2C4"/>
<path d="M85.6046 133.194C84.7704 133.194 83.9443 133.031 83.1736 132.713C82.403 132.395 81.7031 131.929 81.1141 131.34L56.7242 107.05C56.1176 106.467 55.6337 105.769 55.3008 104.997C54.9679 104.225 54.7927 103.395 54.7854 102.555C54.7781 101.715 54.9388 100.882 55.2581 100.105C55.5775 99.3276 56.0491 98.6214 56.6455 98.0275C57.2418 97.4335 57.951 96.9639 58.7316 96.6458C59.5122 96.3277 60.3485 96.1677 61.1919 96.175C62.0352 96.1823 62.8687 96.3568 63.6436 96.6883C64.4185 97.0198 65.1193 97.5017 65.7053 98.1059L85.6046 117.924L132.942 70.7796C134.14 69.6273 135.745 68.9897 137.41 69.0041C139.076 69.0186 140.669 69.6838 141.846 70.8566C143.024 72.0294 143.692 73.6159 143.706 75.2745C143.721 76.933 143.081 78.5309 141.924 79.7239L90.0951 131.34C89.5061 131.929 88.8061 132.395 88.0355 132.713C87.2649 133.031 86.4388 133.194 85.6046 133.194Z" fill="white"/>
</g>
<defs>
<clipPath id="clip0_4308_7032">
<rect width="199" height="203" fill="white"/>
</clipPath>
</defs>
</svg>
