<svg width="50" height="50" viewBox="0 0 50 50" fill="none" xmlns="http://www.w3.org/2000/svg">
<circle cx="25" cy="25" r="24.5" fill="white" stroke="#2DB2C4"/>
<path d="M25.71 30.7102L30.71 25.7102C30.801 25.6151 30.8724 25.5029 30.92 25.3802C31.02 25.1367 31.02 24.8636 30.92 24.6202C30.8724 24.4974 30.801 24.3853 30.71 24.2902L25.71 19.2902C25.6167 19.1969 25.5061 19.123 25.3842 19.0725C25.2624 19.0221 25.1318 18.9961 25 18.9961C24.7337 18.9961 24.4783 19.1019 24.29 19.2902C24.1017 19.4785 23.9959 19.7339 23.9959 20.0002C23.9959 20.2665 24.1017 20.5219 24.29 20.7102L27.59 24.0002H20C19.7348 24.0002 19.4804 24.1055 19.2929 24.2931C19.1053 24.4806 19 24.735 19 25.0002C19 25.2654 19.1053 25.5198 19.2929 25.7073C19.4804 25.8948 19.7348 26.0002 20 26.0002H27.59L24.29 29.2902C24.1963 29.3831 24.1219 29.4937 24.0711 29.6156C24.0203 29.7375 23.9942 29.8682 23.9942 30.0002C23.9942 30.1322 24.0203 30.2629 24.0711 30.3848C24.1219 30.5066 24.1963 30.6172 24.29 30.7102C24.3829 30.8039 24.4935 30.8783 24.6154 30.9291C24.7373 30.9798 24.868 31.006 25 31.006C25.132 31.006 25.2627 30.9798 25.3846 30.9291C25.5064 30.8783 25.617 30.8039 25.71 30.7102Z" fill="#2DB2C4"/>
</svg>
