<?xml version="1.0" encoding="utf-8"?>
<!-- Generator: Adobe Illustrator 21.0.0, SVG Export Plug-In . SVG Version: 6.00 Build 0)  -->
<svg version="1.1" id="Layer_1" xmlns="http://www.w3.org/2000/svg" xmlns:xlink="http://www.w3.org/1999/xlink" x="0px" y="0px"
	 viewBox="0 0 64 64" style="enable-background:new 0 0 64 64;" xml:space="preserve">
<style type="text/css">
	.st0{fill:#595F6E;}
	.st1{fill:#8A9099;}
	.st2{fill:#9A9FA5;}
</style>
<g>
	<path class="st0" d="M22.9,37.7c0.2,1.4,0.2,2.8,0.5,4.2c1.3,6.1,4.7,10.6,10.6,12.6c5.6,1.8,10.6,0,14.6-4.3
		c0.4-0.4,0.7-0.9,1.1-1.3c1.6-2,1.5-1.9,3.8-1.1c1.6,0.6,3.3,1.2,4.9,1.8c0.7,0.2,0.9,0.4,0.4,1.2c-5.4,9.1-14.9,13.8-25.3,12
		c-8.1-1.4-13.6-6.4-16.8-14c-1.5-3.6-1.5-3.6,1.2-6.4C19.7,40.8,21.3,39.3,22.9,37.7z"/>
	<path class="st1" d="M5.5,24.9C5.5,17,5.4,9.1,5.7,1.4c2,1.8,4.1,3.7,6.1,5.7c2.4,2.4,4.6,4.9,6.9,7.4c2.7,2.9,5.4,5.8,8.2,8.8
		c-0.6,0.3-1.2,0.4-1.8,0.4c-2.6,0-5.2,0-7.8,0c-0.5,0-1-0.2-1.3,0.4c-0.7-0.6-1.4-1.3-2.4-2.2c0,1.4,0,2.4,0,3.4
		C11,25.1,8.2,25.4,5.5,24.9z"/>
	<path class="st2" d="M5.5,24.9c2.7,0.5,5.4,0.2,8.1,0.3c0,6,0,12,0,18c0,0.3-0.1,0.6-0.3,0.8c-2.5,2.4-4.9,4.9-7.4,7.3
		c-0.2,0-0.3-0.1-0.5-0.1C5.5,42.4,5.5,33.6,5.5,24.9z"/>
	<path class="st2" d="M16,24c0.3-0.5,0.8-0.4,1.3-0.4c2.6,0,5.2,0,7.8,0c0.6,0,1.2-0.1,1.8-0.4c0.6,0.4,1.1,1,1.5,1.6
		c1.4-1,2.2-2.7,3.7-3.6c0.6,0.3,1.2,0.3,1.8,0.3c2.3,0,4.6,0,6.9,0c0.5,0,1-0.2,1.3,0.4c-3.4,3.7-6.7,7.4-10.1,11.1
		C31,34,30,35,29.1,36.1c-0.4,0.5-0.7,0.5-1.2,0C24,32,19.8,28.2,16,24z"/>
	<path class="st1" d="M42,21.8c-0.3-0.5-0.8-0.4-1.3-0.4c-2.3,0-4.6,0-6.9,0c-0.6,0-1.2,0-1.8-0.3c1.5-1.7,2.9-3.4,4.4-5.1
		c4.5-4.9,9.1-9.8,13.6-14.7c0.2-0.2,0.3-0.5,0.9-0.4c0,3.7,0,7.5,0,11.3c0,0.4-0.2,0.7-0.4,0.9C47.7,16,44.9,18.9,42,21.8z"/>
	<path class="st0" d="M42.7,22.9c1.7-1.9,3.5-3.7,5.2-5.6c0.4-0.4,0.8-0.4,1.3-0.1c3.6,2.1,6.5,4.9,8.9,8.3c0.3,0.5,0.4,0.8-0.2,1.1
		c-2,1-3.9,2.1-5.8,3.1c-0.3,0.1-0.6,0.4-0.9,0C49.1,26.4,46,24.3,42.7,22.9z"/>
</g>
</svg>
