<svg width="20" height="20" viewBox="0 0 20 20" fill="none" xmlns="http://www.w3.org/2000/svg">
<g clip-path="url(#clip0_373_4165)">
<path fill-rule="evenodd" clip-rule="evenodd" d="M13.2316 1.77338L18.2238 6.76559L19.4738 5.50781C19.8097 5.17578 19.9932 4.73053 19.9932 4.25385C19.9932 3.78128 19.8097 3.33588 19.4738 3.00003L16.9934 0.519562C16.6613 0.183563 16.2159 0 15.7394 0C15.2667 0 14.8214 0.183563 14.4854 0.519562L13.2316 1.77338ZM0.176992 19.8242C0.290213 19.9374 0.442495 20 0.602713 20C0.657339 20 0.712118 19.9922 0.766745 19.9765L6.26678 18.4102L1.59484 13.7383L0.0245571 19.2305C-0.0378514 19.4414 0.0207424 19.668 0.176992 19.8242ZM2.22738 12.7734L7.22341 17.7695L17.4227 7.56638L12.4305 2.57416L2.22738 12.7734Z" fill="#2DB2C4"/>
</g>
<defs>
<clipPath id="clip0_373_4165">
<rect width="20" height="20" fill="white"/>
</clipPath>
</defs>
</svg>
