<svg width="20" height="20" viewBox="0 0 20 20" fill="none" xmlns="http://www.w3.org/2000/svg">
<g id="mail-inbox-app 1">
<path id="Union" fill-rule="evenodd" clip-rule="evenodd" d="M10.0358 1C9.63362 1 9.23851 1.10573 8.8901 1.30659L6.19207 2.84832C6.03883 2.87065 5.89509 2.94944 5.7939 3.07584L3.05192 4.64268L3.04951 4.64408C2.76139 4.81042 2.51363 5.03701 2.32266 5.30743C2.28013 5.34781 2.2426 5.39488 2.21175 5.44823C2.18477 5.49487 2.16448 5.54354 2.15059 5.59314C1.98812 5.91358 1.90288 6.26868 1.90251 6.62903L1.90251 9.95094C1.90229 9.96047 1.90229 9.96998 1.90251 9.97949L1.90251 13.3031C1.90292 13.7054 2.00911 14.1005 2.21043 14.4488C2.41175 14.7971 2.70112 15.0863 3.04951 15.2875L3.05193 15.2889L5.79401 16.8558C5.891 16.9764 6.03183 17.0604 6.19233 17.0834L8.8888 18.6242L8.89008 18.6249C9.14354 18.7711 9.42171 18.8668 9.70934 18.9082C9.80437 18.9664 9.91614 19 10.0358 19C10.1554 19 10.2671 18.9664 10.3621 18.9082C10.6498 18.8669 10.928 18.7711 11.1815 18.625L11.1828 18.6242L13.8793 17.0833C14.0397 17.0603 14.1804 16.9764 14.2774 16.8559L17.0197 15.2889L17.0221 15.2875C17.3705 15.0863 17.6599 14.7971 17.8612 14.4488C18.0625 14.1005 18.1687 13.7048 18.1691 13.3025V9.97156V9.95886V6.62839C18.1687 6.2678 18.0834 5.91299 17.9207 5.59248C17.9068 5.54311 17.8866 5.49466 17.8597 5.44823C17.829 5.39506 17.7916 5.34812 17.7492 5.30784C17.5582 5.03724 17.3104 4.8105 17.0221 4.64407L14.2774 3.07568C14.1763 2.94943 14.0327 2.87071 13.8796 2.84835L11.1828 1.30734L11.1815 1.30656C10.8331 1.10573 10.438 1 10.0358 1ZM10.6614 17.481L13.1639 16.051V12.1347C13.1639 11.9112 13.2831 11.7047 13.4766 11.593L16.9178 9.60467V6.71585L10.6614 10.335V17.481ZM9.41012 10.335L3.15378 6.71593V9.60475L6.59491 11.593C6.78838 11.7047 6.90755 11.9112 6.90755 12.1347V16.0509L9.41012 17.4809V10.335ZM10.0357 9.25135L16.261 5.65028L13.7478 4.21419L10.3487 6.1781C10.1551 6.28999 9.91639 6.28999 9.72273 6.1781L6.32374 4.21424L3.81058 5.65032L10.0357 9.25135ZM14.4152 15.336L16.3965 14.2038L16.3975 14.2032C16.5554 14.1118 16.6866 13.9806 16.7779 13.8226C16.8694 13.6643 16.9176 13.4847 16.9178 13.3019V11.0498L14.4152 12.4958V15.336ZM3.15378 13.3022V11.0499L5.65628 12.4958V15.3359L3.67515 14.2038L3.67407 14.2032C3.51619 14.1118 3.38505 13.9806 3.29375 13.8226C3.20229 13.6644 3.15402 13.4849 3.15378 13.3022ZM12.4903 3.49562L10.5572 2.39098C10.3987 2.29946 10.2188 2.25128 10.0358 2.25128C9.85277 2.25128 9.67295 2.29946 9.51444 2.39098L9.51202 2.39236L7.58123 3.49567L10.0357 4.91382L12.4903 3.49562Z" fill="#595F6E"/>
</g>
</svg>
