<svg width="30" height="30" viewBox="0 0 30 30" fill="none" xmlns="http://www.w3.org/2000/svg">
<g id="Frame" clip-path="url(#clip0_460_6700)">
<path id="Union" fill-rule="evenodd" clip-rule="evenodd" d="M3.21458 -0.00146484C5.03617 -0.00146484 6.42916 1.39152 6.42916 3.21311C6.42916 5.03471 5.03617 6.42769 3.21458 6.42769C1.39298 6.42769 0 5.03471 0 3.21311C0 1.39152 1.39298 -0.00146484 3.21458 -0.00146484ZM3.21458 2.14159C2.57166 2.14159 2.14305 2.5702 2.14305 3.21311C2.14305 3.85603 2.57166 4.28464 3.21458 4.28464C3.85749 4.28464 4.2861 3.85603 4.2861 3.21311C4.2861 2.5702 3.85749 2.14159 3.21458 2.14159ZM16.0724 2.14156C8.35742 2.14156 2.14257 8.35641 2.14257 16.0714C2.14257 23.7864 8.35742 30.0012 16.0724 30.0012C23.7874 30.0012 30.0022 23.7864 30.0022 16.0714C30.0022 8.35641 23.7874 2.14156 16.0724 2.14156ZM16.0724 27.8582C9.5361 27.8582 4.28562 22.6077 4.28562 16.0714C4.28562 9.53509 9.5361 4.28461 16.0724 4.28461C22.6087 4.28461 27.8592 9.53509 27.8592 16.0714C27.8592 22.6077 22.6087 27.8582 16.0724 27.8582ZM12.8591 8.5709C12.8591 6.74931 14.252 5.35632 16.0736 5.35632C17.8952 5.35632 19.2882 6.74931 19.2882 8.5709C19.2882 10.3925 17.8952 11.7855 16.0736 11.7855C14.252 11.7855 12.8591 10.3925 12.8591 8.5709ZM15.0021 8.5709C15.0021 9.21382 15.4307 9.64243 16.0736 9.64243C16.7166 9.64243 17.1452 9.21382 17.1452 8.5709C17.1452 7.92799 16.7166 7.49937 16.0736 7.49937C15.4307 7.49937 15.0021 7.92799 15.0021 8.5709ZM8.57282 12.8571C6.75123 12.8571 5.35825 14.2501 5.35825 16.0717C5.35825 17.8933 6.75123 19.2863 8.57282 19.2863C10.3944 19.2863 11.7874 17.8933 11.7874 16.0717C11.7874 14.2501 10.3944 12.8571 8.57282 12.8571ZM8.57282 17.1432C7.92991 17.1432 7.5013 16.7146 7.5013 16.0717C7.5013 15.4288 7.92991 15.0002 8.57282 15.0002C9.21574 15.0002 9.64435 15.4288 9.64435 16.0717C9.64435 16.7146 9.21574 17.1432 8.57282 17.1432ZM16.0736 20.3577C14.252 20.3577 12.8591 21.7507 12.8591 23.5723C12.8591 25.3939 14.252 26.7869 16.0736 26.7869C17.8952 26.7869 19.2882 25.3939 19.2882 23.5723C19.2882 21.7507 17.8952 20.3577 16.0736 20.3577ZM16.0736 24.6438C15.4307 24.6438 15.0021 24.2152 15.0021 23.5723C15.0021 22.9294 15.4307 22.5008 16.0736 22.5008C16.7166 22.5008 17.1452 22.9294 17.1452 23.5723C17.1452 24.2152 16.7166 24.6438 16.0736 24.6438ZM12.8591 16.0717C12.8591 14.2501 14.252 12.8571 16.0736 12.8571C17.8952 12.8571 19.2882 14.2501 19.2882 16.0717C19.2882 17.8933 17.8952 19.2863 16.0736 19.2863C14.252 19.2863 12.8591 17.8933 12.8591 16.0717ZM15.0021 16.0717C15.0021 16.7146 15.4307 17.1432 16.0736 17.1432C16.7166 17.1432 17.1452 16.7146 17.1452 16.0717C17.1452 15.4288 16.7166 15.0002 16.0736 15.0002C15.4307 15.0002 15.0021 15.4288 15.0021 16.0717ZM23.5744 12.8571C21.7529 12.8571 20.3599 14.2501 20.3599 16.0717C20.3599 17.8933 21.7529 19.2863 23.5744 19.2863C25.396 19.2863 26.789 17.8933 26.789 16.0717C26.789 14.2501 25.396 12.8571 23.5744 12.8571ZM23.5744 17.1432C22.9315 17.1432 22.5029 16.7146 22.5029 16.0717C22.5029 15.4288 22.9315 15.0002 23.5744 15.0002C24.2174 15.0002 24.646 15.4288 24.646 16.0717C24.646 16.7146 24.2174 17.1432 23.5744 17.1432Z" fill="#595F6E"/>
</g>
<defs>
<clipPath id="clip0_460_6700">
<rect width="30.0022" height="30.0027" fill="white" transform="translate(0 -0.00146484)"/>
</clipPath>
</defs>
</svg>
