<svg width="25" height="24" viewBox="0 0 25 24" fill="none" xmlns="http://www.w3.org/2000/svg">
<path d="M9.75261 7.64065L10.4393 10.1246C11.0859 12.4646 11.4086 13.6353 12.3593 14.1673C13.3099 14.7006 14.5166 14.386 16.9299 13.7593L19.4899 13.0926C21.9033 12.466 23.1099 12.1526 23.6593 11.2313C24.2086 10.3086 23.8859 9.13798 23.2379 6.79798L22.5526 4.31532C21.9059 1.97398 21.5819 0.803315 20.6326 0.271315C19.6806 -0.262018 18.4739 0.0526482 16.0606 0.680648L13.5006 1.34465C11.0873 1.97131 9.88061 2.28598 9.33261 3.20865C8.78328 4.12998 9.10594 5.30065 9.75261 7.64065Z" fill="#777777"/>
<path d="M0.0362505 2.99636C0.0713794 2.86973 0.131124 2.75126 0.212069 2.64773C0.293013 2.5442 0.39357 2.45764 0.50799 2.393C0.62241 2.32836 0.748449 2.28691 0.8789 2.27101C1.00935 2.25512 1.14166 2.26509 1.26825 2.30036L3.53892 2.92969C4.1407 3.09313 4.68988 3.40969 5.13292 3.84853C5.57596 4.28736 5.89775 4.83349 6.06692 5.43369L8.93492 15.815L9.14558 16.5444C9.99592 16.8578 10.7125 17.4543 11.1749 18.2337L11.5883 18.1057L23.4149 15.0324C23.542 14.9993 23.6744 14.9915 23.8045 15.0096C23.9346 15.0277 24.0599 15.0712 24.1732 15.1377C24.2865 15.2042 24.3856 15.2923 24.4648 15.3971C24.544 15.5019 24.6018 15.6212 24.6349 15.7484C24.668 15.8755 24.6757 16.0079 24.6577 16.138C24.6396 16.2681 24.5961 16.3934 24.5296 16.5066C24.4631 16.6199 24.375 16.719 24.2702 16.7982C24.1654 16.8775 24.046 16.9353 23.9189 16.9684L12.1363 20.0297L11.6963 20.1657C11.6883 21.859 10.5189 23.4084 8.74958 23.867C6.62958 24.419 4.44958 23.1977 3.88158 21.1417C3.31358 19.0844 4.57225 16.9697 6.69225 16.419C6.79671 16.3921 6.90211 16.369 7.00825 16.3497L4.13892 5.96569C4.06168 5.69891 3.91671 5.45666 3.71811 5.2625C3.51951 5.06834 3.27404 4.92889 3.00558 4.85769L0.733584 4.22703C0.606975 4.19203 0.488502 4.13244 0.384931 4.05164C0.28136 3.97085 0.194722 3.87044 0.129965 3.75616C0.0652075 3.64187 0.0236005 3.51595 0.00752079 3.38558C-0.00855891 3.25521 0.0012036 3.12296 0.0362505 2.99636Z" fill="#777777"/>
</svg>
