<svg width="24" height="24" viewBox="0 0 24 24" fill="none" xmlns="http://www.w3.org/2000/svg">
<path fill-rule="evenodd" clip-rule="evenodd" d="M21.3333 0C22.0406 0 22.7189 0.280951 23.219 0.781048C23.719 1.28115 24 1.95942 24 2.66667V21.3333C24 22.0406 23.719 22.7189 23.219 23.219C22.7189 23.719 22.0406 24 21.3333 24H2.66667C1.95942 24 1.28115 23.719 0.781048 23.219C0.280951 22.7189 0 22.0406 0 21.3333V2.66667C0 1.95942 0.280951 1.28115 0.781048 0.781048C1.28115 0.280951 1.95942 0 2.66667 0H21.3333ZM17.3333 14.6667H14.6667C14.313 14.6667 13.9739 14.8071 13.7239 15.0572C13.4738 15.3072 13.3333 15.6464 13.3333 16C13.3333 16.3536 13.4738 16.6928 13.7239 16.9428C13.9739 17.1929 14.313 17.3333 14.6667 17.3333H17.3333C17.687 17.3333 18.0261 17.1929 18.2761 16.9428C18.5262 16.6928 18.6667 16.3536 18.6667 16C18.6667 15.6464 18.5262 15.3072 18.2761 15.0572C18.0261 14.8071 17.687 14.6667 17.3333 14.6667ZM8.06667 7.28667C7.82672 7.04754 7.50476 6.9087 7.16616 6.89836C6.82756 6.88802 6.49772 7.00695 6.24363 7.231C5.98954 7.45504 5.83026 7.7674 5.79813 8.10463C5.76601 8.44186 5.86345 8.77868 6.07067 9.04667L6.18133 9.172L9.00933 12L6.18267 14.828C5.94099 15.0674 5.79996 15.3901 5.78842 15.7301C5.77689 16.07 5.89573 16.4016 6.12062 16.6568C6.34551 16.912 6.65945 17.0716 6.99817 17.1029C7.33688 17.1343 7.67477 17.035 7.94267 16.8253L8.06667 16.7147L11.8387 12.9427C12.0682 12.7131 12.2061 12.4076 12.2265 12.0836C12.2469 11.7595 12.1483 11.4392 11.9493 11.1827L11.8387 11.0573L8.06667 7.28667Z" fill="#777777"/>
</svg>
