<svg width="20" height="20" viewBox="0 0 20 20" fill="none" xmlns="http://www.w3.org/2000/svg">
<path d="M19.2372 3.31193L10.2372 0.311931C10.0832 0.260606 9.91677 0.260606 9.76281 0.311931L0.762812 3.31193C0.613473 3.36171 0.483585 3.45723 0.391547 3.58493C0.299509 3.71264 0.249988 3.86607 0.25 4.02349V11.5235C0.25 11.7224 0.329018 11.9132 0.46967 12.0538C0.610322 12.1945 0.801088 12.2735 1 12.2735C1.19891 12.2735 1.38968 12.1945 1.53033 12.0538C1.67098 11.9132 1.75 11.7224 1.75 11.5235V5.06412L4.89906 6.11318C4.0624 7.46487 3.79634 9.09334 4.15931 10.641C4.52229 12.1887 5.48462 13.5291 6.835 14.3679C5.1475 15.0297 3.68875 16.2269 2.62187 17.8638C2.56639 17.9463 2.52785 18.0389 2.50849 18.1364C2.48914 18.2339 2.48936 18.3343 2.50913 18.4317C2.52891 18.5291 2.56785 18.6216 2.62369 18.7038C2.67953 18.7861 2.75116 18.8564 2.83441 18.9107C2.91766 18.965 3.01087 19.0022 3.10863 19.0201C3.20639 19.0381 3.30674 19.0364 3.40386 19.0153C3.50097 18.9941 3.59291 18.9539 3.67433 18.8968C3.75575 18.8398 3.82502 18.7672 3.87813 18.6832C5.29094 16.5157 7.52219 15.2735 10 15.2735C12.4778 15.2735 14.7091 16.5157 16.1219 18.6832C16.2319 18.8467 16.4018 18.9603 16.5949 18.9995C16.788 19.0387 16.9888 19.0003 17.1539 18.8927C17.3189 18.785 17.435 18.6168 17.4769 18.4242C17.5189 18.2317 17.4834 18.0304 17.3781 17.8638C16.3112 16.2269 14.8469 15.0297 13.165 14.3679C14.5141 13.5291 15.4755 12.1896 15.8384 10.6431C16.2013 9.09652 15.9361 7.46916 15.1009 6.11787L19.2372 4.73974C19.3866 4.68999 19.5165 4.59449 19.6086 4.46678C19.7006 4.33907 19.7502 4.18562 19.7502 4.02818C19.7502 3.87074 19.7006 3.71729 19.6086 3.58958C19.5165 3.46187 19.3866 3.36637 19.2372 3.31662V3.31193ZM14.5 9.27349C14.5002 9.98492 14.3317 10.6863 14.0084 11.32C13.6851 11.9537 13.2161 12.5017 12.6399 12.919C12.0638 13.3364 11.3969 13.6112 10.694 13.7209C9.99107 13.8307 9.27216 13.7721 8.59623 13.5502C7.92031 13.3283 7.30663 12.9493 6.80555 12.4442C6.30448 11.9392 5.93028 11.3226 5.71367 10.6449C5.49705 9.96728 5.44419 9.24793 5.55942 8.5459C5.67465 7.84386 5.95469 7.17915 6.37656 6.60631L9.76281 7.73131C9.91677 7.78263 10.0832 7.78263 10.2372 7.73131L13.6234 6.60631C14.1932 7.3788 14.5005 8.31359 14.5 9.27349Z" fill="white"/>
</svg>
