<svg width="24" height="25" viewBox="0 0 24 25" fill="none" xmlns="http://www.w3.org/2000/svg">
<path d="M16 4.02344C16.2652 4.02344 16.5196 4.12879 16.7071 4.31633C16.8946 4.50387 17 4.75822 17 5.02344V9.22344L22.213 5.57344C22.288 5.52089 22.3759 5.48994 22.4672 5.48394C22.5586 5.47794 22.6498 5.49714 22.731 5.53943C22.8122 5.58173 22.8802 5.6455 22.9276 5.72379C22.9751 5.80208 23.0001 5.8919 23 5.98344V18.0634C23.0001 18.155 22.9751 18.2448 22.9276 18.3231C22.8802 18.4014 22.8122 18.4651 22.731 18.5074C22.6498 18.5497 22.5586 18.5689 22.4672 18.5629C22.3759 18.5569 22.288 18.526 22.213 18.4734L17 14.8234V19.0234C17 19.2887 16.8946 19.543 16.7071 19.7305C16.5196 19.9181 16.2652 20.0234 16 20.0234H2C1.73478 20.0234 1.48043 19.9181 1.29289 19.7305C1.10536 19.543 1 19.2887 1 19.0234V5.02344C1 4.75822 1.10536 4.50387 1.29289 4.31633C1.48043 4.12879 1.73478 4.02344 2 4.02344H16ZM7.4 8.85244C7.30779 8.85242 7.2184 8.88426 7.14697 8.94257C7.07553 9.00089 7.02644 9.08209 7.008 9.17244L7 9.25144V14.7934C6.99999 14.8582 7.01572 14.922 7.04582 14.9794C7.07592 15.0367 7.11951 15.0859 7.17282 15.1227C7.22614 15.1595 7.28759 15.1828 7.3519 15.1906C7.4162 15.1984 7.48144 15.1904 7.542 15.1674L7.615 15.1314L11.97 12.3604C12.0208 12.3278 12.0636 12.2841 12.0952 12.2327C12.1268 12.1812 12.1464 12.1232 12.1524 12.0632C12.1585 12.0031 12.1509 11.9424 12.1302 11.8856C12.1095 11.8289 12.0763 11.7775 12.033 11.7354L11.97 11.6854L7.615 8.91344C7.55048 8.87344 7.47591 8.85163 7.4 8.85244Z" fill="white"/>
</svg>
