<svg width="19" height="17" viewBox="0 0 19 17" fill="none" xmlns="http://www.w3.org/2000/svg">
<path fill-rule="evenodd" clip-rule="evenodd" d="M2.21551 0.625488C1.43488 0.625488 0.800049 1.26032 0.800049 2.04095V12.2965C0.800049 13.0771 1.43488 13.712 2.21551 13.712H10.7946L10.5666 15.1028C10.5064 15.4698 10.6261 15.828 10.9175 16.0377C11.2086 16.2473 11.586 16.2478 11.9153 16.0743L13.8057 15.0793L13.8087 15.0787C13.8189 15.0772 13.8334 15.076 13.8499 15.076C13.8664 15.076 13.8809 15.0772 13.8911 15.0787L13.8941 15.0793L15.7847 16.0744C15.9408 16.1566 16.1073 16.2 16.2718 16.2C16.4543 16.2 16.6315 16.1463 16.7824 16.0376C17.0737 15.8279 17.1934 15.4696 17.1333 15.1026L16.9053 13.7119H17.3319C18.1126 13.7119 18.7474 13.0771 18.7474 12.2964V2.04095C18.7473 1.26024 18.1125 0.625488 17.3319 0.625488H2.21551ZM13.8848 15.0743C13.8878 15.0759 13.8904 15.0771 13.8924 15.0779C13.8935 15.0784 13.8945 15.0788 13.8953 15.079L13.8984 15.0801C13.8981 15.08 13.8975 15.0799 13.8967 15.0797L13.8941 15.0793L13.8848 15.0743ZM13.8848 15.0743L13.8829 15.0734L13.9761 14.8964L13.8848 15.0743ZM13.8151 15.0743L13.8057 15.0793L13.8031 15.0797L13.8012 15.0802L13.8045 15.079C13.8066 15.0783 13.8102 15.0768 13.8151 15.0743ZM13.7237 14.8964L13.8169 15.0734L13.8151 15.0743L13.7237 14.8964ZM2.24187 12.2701V2.06731H17.3055V12.2701H16.6689L16.5181 11.3499C16.9516 10.7842 17.2102 10.0768 17.2102 9.31022C17.2102 7.45721 15.703 5.95003 13.85 5.95003C11.997 5.95003 10.4898 7.45721 10.4898 9.31022C10.4898 10.0768 10.7485 10.7841 11.182 11.3499L11.0311 12.2701H2.24187ZM11.2127 12.2714L11.2074 12.2711L11.1938 12.4699L11.2009 12.471L11.2009 12.471L11.2127 12.2714ZM3.68232 3.6233C3.28411 3.6233 2.96141 3.946 2.96141 4.34421C2.96141 4.74241 3.28411 5.06512 3.68232 5.06512H15.4896C15.8878 5.06512 16.2105 4.74241 16.2105 4.34421C16.2105 3.946 15.8878 3.6233 15.4896 3.6233H3.68232ZM3.68232 6.44788C3.28411 6.44788 2.96141 6.77058 2.96141 7.16879C2.96141 7.567 3.28411 7.8897 3.68232 7.8897H8.68306C9.08127 7.8897 9.40397 7.567 9.40397 7.16879C9.40397 6.77058 9.08127 6.44788 8.68306 6.44788H3.68232ZM11.9316 9.31022C11.9316 8.25266 12.7924 7.39185 13.8499 7.39185C14.9075 7.39185 15.7683 8.25266 15.7683 9.31022C15.7683 10.3678 14.9075 11.2286 13.8499 11.2286C12.7924 11.2286 11.9316 10.3678 11.9316 9.31022ZM13.85 12.6703C14.3397 12.6703 14.8051 12.5647 15.2252 12.3755L15.3477 13.1238L15.3488 13.1297L15.5436 14.3182L14.5545 13.7975C14.1419 13.5803 13.5579 13.5803 13.1453 13.7976L12.1564 14.3181L12.4749 12.3755C12.8949 12.5647 13.3604 12.6703 13.85 12.6703Z" fill="white"/>
</svg>
