<svg width="20" height="20" viewBox="0 0 20 20" fill="none" xmlns="http://www.w3.org/2000/svg">
<g id="mail-inbox-app 1">
<path id="Union" fill-rule="evenodd" clip-rule="evenodd" d="M2.21545 2.62545C1.43482 2.62545 0.799988 3.26028 0.799988 4.04091V14.2965C0.799988 15.0771 1.43482 15.7119 2.21545 15.7119H10.7946L10.5665 17.1027C10.5064 17.4697 10.6261 17.8279 10.9174 18.0376C11.2085 18.2472 11.5859 18.2478 11.9152 18.0743L13.8057 17.0792L13.8086 17.0787C13.8189 17.0771 13.8334 17.0759 13.8499 17.0759C13.8663 17.0759 13.8808 17.0771 13.8911 17.0787L13.894 17.0792L15.7846 18.0743C15.9408 18.1565 16.1072 18.1999 16.2717 18.1999C16.4543 18.1999 16.6315 18.1462 16.7824 18.0376C17.0737 17.8278 17.1933 17.4695 17.1333 17.1026L16.9053 15.7119H17.3319C18.1125 15.7119 18.7473 15.077 18.7473 14.2964V4.04091C18.7472 3.26021 18.1124 2.62545 17.3318 2.62545H2.21545ZM13.8847 17.0743C13.8877 17.0759 13.8903 17.077 13.8923 17.0778C13.8935 17.0783 13.8945 17.0787 13.8952 17.079L13.8983 17.0801C13.898 17.08 13.8975 17.0799 13.8967 17.0797L13.894 17.0792L13.8847 17.0743ZM13.8847 17.0743L13.8829 17.0733L13.976 16.8964L13.8847 17.0743ZM13.815 17.0743L13.8057 17.0792L13.803 17.0797L13.8012 17.0801L13.8045 17.079C13.8065 17.0783 13.8102 17.0768 13.815 17.0743ZM13.7237 16.8964L13.8168 17.0733L13.815 17.0743L13.7237 16.8964ZM2.24181 14.2701V4.06727H17.3054V14.2701H16.6688L16.518 13.3499C16.9515 12.7842 17.2101 12.0768 17.2101 11.3102C17.2101 9.45718 15.703 7.94999 13.85 7.94999C11.9969 7.94999 10.4898 9.45718 10.4898 11.3102C10.4898 12.0768 10.7484 12.7841 11.1819 13.3499L11.0311 14.2701H2.24181ZM11.2126 14.2714L11.2073 14.271L11.1937 14.4698L11.2008 14.471L11.2008 14.471L11.2126 14.2714ZM3.68226 5.62326C3.28405 5.62326 2.96134 5.94596 2.96134 6.34417C2.96134 6.74238 3.28405 7.06508 3.68226 7.06508H15.4896C15.8878 7.06508 16.2105 6.74238 16.2105 6.34417C16.2105 5.94596 15.8878 5.62326 15.4896 5.62326H3.68226ZM3.68226 8.44784C3.28405 8.44784 2.96134 8.77055 2.96134 9.16875C2.96134 9.56696 3.28405 9.88966 3.68226 9.88966H8.683C9.08121 9.88966 9.40391 9.56696 9.40391 9.16875C9.40391 8.77055 9.08121 8.44784 8.683 8.44784H3.68226ZM11.9315 11.3102C11.9315 10.2526 12.7923 9.39181 13.8499 9.39181C14.9075 9.39181 15.7683 10.2526 15.7683 11.3102C15.7683 12.3677 14.9074 13.2286 13.8499 13.2286C12.7923 13.2286 11.9315 12.3677 11.9315 11.3102ZM13.85 14.6703C14.3396 14.6703 14.8051 14.5646 15.2251 14.3754L15.3477 15.1237L15.3487 15.1297L15.5436 16.3181L14.5544 15.7975C14.1418 15.5803 13.5578 15.5803 13.1453 15.7975L12.1563 16.3181L12.4748 14.3754C12.8948 14.5647 13.3603 14.6703 13.85 14.6703Z" fill="#595F6E"/>
</g>
</svg>
