<svg width="20" height="20" viewBox="0 0 20 20" fill="none" xmlns="http://www.w3.org/2000/svg">
<g id="mail-inbox-app 1">
<g id="Vector">
<path d="M10.5998 8.63942C10.5998 8.29267 10.3312 8.01154 9.9998 8.01154C9.66844 8.01154 9.39981 8.29267 9.39981 8.63942H10.5998ZM9.39981 17.918C9.39981 18.2647 9.66844 18.5459 9.9998 18.5459C10.3312 18.5459 10.5998 18.2647 10.5998 17.918H9.39981ZM8.09937 4.04408C7.81253 4.21772 7.71452 4.60183 7.88044 4.902C8.04636 5.20219 8.4134 5.30476 8.7002 5.13112L8.09937 4.04408ZM11.2994 5.13112C11.5862 5.30476 11.9532 5.20219 12.1192 4.902C12.2851 4.60183 12.1871 4.21772 11.9002 4.04408L11.2994 5.13112ZM6.45655 2.16339C6.18476 2.36179 6.11812 2.75319 6.30769 3.03762C6.49727 3.32204 6.87128 3.39179 7.14306 3.19339L6.45655 2.16339ZM12.8565 3.19339C13.1284 3.39179 13.5024 3.32204 13.6919 3.03762C13.8815 2.75319 13.8148 2.36179 13.5431 2.16339L12.8565 3.19339ZM9.39981 8.63942V17.918H10.5998V8.63942H9.39981ZM4.81065 7.2827C6.1984 7.44225 7.98784 7.86699 9.22476 8.74884L9.90036 7.71099C8.419 6.65483 6.39348 6.20131 4.9417 6.0344L4.81065 7.2827ZM4.81065 17.2853C6.1984 17.4448 7.98784 17.8696 9.22476 18.7514L9.90036 17.7135C8.419 16.6574 6.39348 16.2039 4.9417 16.0369L4.81065 17.2853ZM2.9998 7.91133V15.2465H4.1998V7.91133H2.9998ZM4.9417 16.0369C4.50452 15.9867 4.1998 15.6237 4.1998 15.2465H2.9998C2.9998 16.3425 3.84252 17.1739 4.81065 17.2853L4.9417 16.0369ZM4.9417 6.0344C3.8464 5.90847 2.9998 6.84142 2.9998 7.91133H4.1998C4.1998 7.5081 4.50063 7.24706 4.81065 7.2827L4.9417 6.0344ZM15.0579 6.0344C13.6061 6.20131 11.5806 6.65483 10.0992 7.71099L10.7748 8.74884C12.0118 7.86699 13.8012 7.44225 15.1889 7.2827L15.0579 6.0344ZM15.0579 16.0369C13.6061 16.2039 11.5806 16.6574 10.0992 17.7135L10.7748 18.7514C12.0118 17.8696 13.8012 17.4448 15.1889 17.2853L15.0579 16.0369ZM15.7998 7.91133V15.2465H16.9998V7.91133H15.7998ZM15.1889 17.2853C16.1571 17.1739 16.9998 16.3425 16.9998 15.2465H15.7998C15.7998 15.6237 15.4951 15.9867 15.0579 16.0369L15.1889 17.2853ZM15.1889 7.2827C15.499 7.24706 15.7998 7.5081 15.7998 7.91133H16.9998C16.9998 6.84142 16.1532 5.90847 15.0579 6.0344L15.1889 7.2827ZM9.22476 18.7514C9.68981 19.0829 10.3098 19.0829 10.7748 18.7514L10.0992 17.7135C10.0418 17.7544 9.9578 17.7544 9.90036 17.7135L9.22476 18.7514ZM9.22476 8.74884C9.68981 9.08037 10.3098 9.08037 10.7748 8.74884L10.0992 7.71099C10.0418 7.75192 9.9578 7.75192 9.90036 7.71099L9.22476 8.74884ZM8.7002 5.13112C9.08204 4.89998 9.52524 4.76749 9.9998 4.76749V3.51168C9.30868 3.51168 8.65893 3.70535 8.09937 4.04408L8.7002 5.13112ZM9.9998 4.76749C10.4744 4.76749 10.9176 4.89998 11.2994 5.13112L11.9002 4.04408C11.3407 3.70535 10.6909 3.51168 9.9998 3.51168V4.76749ZM7.14306 3.19339C7.95271 2.60238 8.93668 2.25586 9.9998 2.25586V1.00005C8.68332 1.00005 7.46104 1.43015 6.45655 2.16339L7.14306 3.19339ZM9.9998 2.25586C11.0629 2.25586 12.0469 2.60238 12.8565 3.19339L13.5431 2.16339C12.5386 1.43015 11.3163 1.00005 9.9998 1.00005V2.25586Z" fill="#595F6E"/>
<path fill-rule="evenodd" clip-rule="evenodd" d="M6.33863 2.00185C7.37566 1.24485 8.63888 0.800049 9.9998 0.800049C11.3607 0.800049 12.624 1.24485 13.661 2.00185C14.0215 2.26505 14.1058 2.77729 13.8583 3.14855C13.6074 3.52505 13.1049 3.62225 12.7386 3.35495C11.9616 2.7877 11.0185 2.45586 9.9998 2.45586C8.98112 2.45586 8.03808 2.78768 7.26098 3.35494C6.89474 3.62228 6.39221 3.52502 6.14127 3.14854C5.89382 2.77728 5.97806 2.26505 6.33863 2.00185ZM6.73095 2.21448L7.19604 2.91228C7.95203 2.40561 8.84213 2.09759 9.7998 2.0598V1.20348C8.67102 1.24227 7.61977 1.60819 6.73095 2.21448ZM10.1998 1.20348V2.0598C11.1575 2.09759 12.0476 2.40561 12.8035 2.91228L13.2687 2.21448C12.3799 1.60819 11.3286 1.24227 10.1998 1.20348ZM13.5616 2.49614L13.1566 3.10376C13.2949 3.11977 13.4377 3.05843 13.5254 2.92671C13.6133 2.7949 13.6208 2.63057 13.5616 2.49614ZM6.84296 3.10376L6.43797 2.49612C6.37883 2.63057 6.38625 2.79487 6.47411 2.92669C6.56192 3.05843 6.70472 3.11976 6.84296 3.10376ZM7.9958 3.87298C8.58535 3.5161 9.27074 3.31168 9.9998 3.31168C10.7289 3.31168 11.4143 3.5161 12.0038 3.87298C12.386 4.10432 12.5101 4.60815 12.2942 4.99876C12.0756 5.39432 11.5836 5.537 11.1958 5.3022C10.844 5.08923 10.4364 4.96749 9.9998 4.96749C9.56318 4.96749 9.15562 5.08923 8.80379 5.3022C8.41599 5.537 7.92405 5.39432 7.7054 4.99876C7.7054 4.99875 7.7054 4.99876 7.7054 4.99876C7.48948 4.60814 7.61367 4.10432 7.9958 3.87298L8.09937 4.04408L7.92433 4.14082L8.05327 4.3741C7.98433 4.50218 7.9784 4.6658 8.05548 4.80525C8.13258 4.94474 8.2695 5.01821 8.40769 5.01533L8.52516 5.22786L8.7002 5.13112L8.87525 5.03437L8.7784 4.85915C9.09042 4.7011 9.43512 4.6016 9.7998 4.57481V4.76749H10.1998V4.57481C10.5645 4.6016 10.9092 4.7011 11.2212 4.85914L11.1244 5.03437L11.2994 5.13112L11.4744 5.22786L11.5919 5.01533C11.7301 5.01821 11.867 4.94475 11.9441 4.80525C12.0212 4.66579 12.0153 4.50217 11.9463 4.37409L12.0752 4.14082L11.9002 4.04408L11.7252 3.94733L11.6296 4.12016C11.1958 3.88867 10.7116 3.74687 10.1998 3.71742V4.57481C10.1338 4.56996 10.0671 4.56749 9.9998 4.56749C9.93253 4.56749 9.86584 4.56996 9.7998 4.57481V3.71742C9.28804 3.74687 8.80383 3.88867 8.36994 4.12016L8.7784 4.85915C8.71649 4.8905 8.65587 4.92416 8.59664 4.96002C8.53739 4.99589 8.47239 5.01398 8.40769 5.01533L8.05327 4.3741M11.6296 4.12016L11.2212 4.85914C11.2831 4.8905 11.3437 4.92416 11.403 4.96002C11.4622 4.99589 11.5272 5.01398 11.5919 5.01533L11.9463 4.37409C11.9116 4.30954 11.8608 4.25403 11.7966 4.21517L11.9002 4.04408M8.09937 4.04408L7.9958 3.87298L8.09937 4.04408ZM15.035 5.83571C16.2728 5.69342 17.1998 6.74702 17.1998 7.91133V15.2465C17.1998 16.4505 16.2744 17.3618 15.2118 17.484C13.8356 17.6421 12.0866 18.0618 10.8909 18.9143C10.3564 19.2953 9.64318 19.2953 9.10866 18.9142C7.91301 18.0618 6.16403 17.6421 4.7878 17.484C3.72519 17.3618 2.7998 16.4505 2.7998 15.2465V7.91133C2.7998 6.74702 3.72689 5.69342 4.96454 5.83571C6.42256 6.00334 8.47881 6.45923 9.99981 7.5363C11.5208 6.45923 13.577 6.00334 15.035 5.83571ZM9.62651 7.76509C8.26926 6.86012 6.48553 6.43389 5.11937 6.25756L5.03009 7.10805C6.33733 7.27742 7.96342 7.67751 9.16875 8.4683L9.25648 8.33352C9.29919 8.2226 9.36448 8.12283 9.44692 8.04096L9.62651 7.76509ZM9.1998 8.97196V17.0504C7.8099 16.3178 6.17952 15.9779 4.96455 15.8382C4.62523 15.7992 4.3998 15.519 4.3998 15.2465V7.91133C4.3998 7.60922 4.61407 7.46142 4.78781 7.48139C6.16403 7.63962 7.91301 8.05927 9.10866 8.91169C9.13851 8.93297 9.16891 8.95305 9.1998 8.97196ZM9.5998 17.2767V9.14434C9.86169 9.21521 10.1379 9.21521 10.3998 9.14434V17.2767C10.263 17.3597 10.1295 17.447 9.99981 17.5388C9.87013 17.447 9.73656 17.3597 9.5998 17.2767ZM9.1998 17.506C7.91056 16.7785 6.34651 16.4185 5.11937 16.2601L5.03009 17.1106C6.33733 17.2799 7.96342 17.6801 9.16874 18.4709L9.28577 18.2911C9.23063 18.1782 9.1998 18.0511 9.1998 17.918V17.506ZM9.55686 18.6078L9.5057 18.6864C9.81788 18.8379 10.1817 18.8379 10.4939 18.6864L10.4427 18.6078C10.3169 18.6947 10.1651 18.7459 9.9998 18.7459C9.83449 18.7459 9.68274 18.6947 9.55686 18.6078ZM10.7138 18.2911L10.8309 18.4709C12.0362 17.6801 13.6623 17.2799 14.9695 17.1106L14.8802 16.2601C13.6531 16.4185 12.089 16.7785 10.7998 17.506V17.918C10.7998 18.0511 10.769 18.1782 10.7138 18.2911ZM9.89916 17.7127L9.73275 17.6044L9.65883 17.718M9.5998 17.7499C9.60872 17.7558 9.61763 17.7617 9.62651 17.7676L9.5998 17.7499ZM9.77554 18.272C9.84052 18.319 9.91833 18.3459 9.9998 18.3459C10.0813 18.3459 10.1591 18.319 10.2241 18.272L10.1238 18.118H9.87577L9.77554 18.272ZM10.7998 17.0504C12.1897 16.3178 13.8201 15.9779 15.035 15.8382C15.3744 15.7992 15.5998 15.5189 15.5998 15.2465V7.91133C15.5998 7.60922 15.3856 7.46142 15.2118 7.48139C13.8356 7.63962 12.0866 8.05927 10.8909 8.91169C10.8611 8.93297 10.8307 8.95305 10.7998 8.97196V17.0504ZM10.8309 8.4683C12.0362 7.67751 13.6623 7.27742 14.9695 7.10805L14.8802 6.25756C13.5141 6.43389 11.7303 6.86012 10.3731 7.76509L10.5527 8.04096C10.6351 8.12283 10.7004 8.2226 10.7431 8.33352L10.8309 8.4683ZM9.66483 8.43942H10.3348L10.2451 8.30172C10.1762 8.24472 10.0903 8.21154 9.9998 8.21154C9.90934 8.21154 9.82338 8.24472 9.7545 8.30172L9.66483 8.43942ZM15.2788 6.22339C16.0737 6.23746 16.7001 6.89453 16.789 7.71133H15.9787C15.9078 7.38442 15.6663 7.14263 15.3698 7.09001L15.2788 6.22339ZM15.9998 8.11133V15.0465H16.7998V8.11133H15.9998ZM16.7893 15.4465H15.9777C15.9019 15.7874 15.6373 16.0826 15.2755 16.1947L15.3655 17.052C16.0938 16.8826 16.7027 16.2612 16.7893 15.4465ZM4.63404 17.052L4.72404 16.1947C4.36234 16.0826 4.09766 15.7874 4.0219 15.4465H3.21034C3.29689 16.2612 3.90584 16.8826 4.63404 17.052ZM3.1998 15.0465H3.9998V8.11133H3.1998V15.0465ZM3.21063 7.71133C3.29951 6.89453 3.92588 6.23746 4.72076 6.22339L4.62978 7.09002C4.33331 7.14264 4.09182 7.38443 4.02095 7.71133H3.21063Z" fill="#595F6E"/>
</g>
</g>
</svg>
