<svg width="20" height="20" viewBox="0 0 20 20" fill="none" xmlns="http://www.w3.org/2000/svg">
<g id="mail-inbox-app 1" clip-path="url(#clip0_341_628)">
<g id="Group">
<g id="Group_2">
<g id="Group_3">
<path id="Vector" d="M16.9978 5.00115C16.7323 4.73572 16.3156 4.69658 16.0053 4.90802C14.8363 5.70482 8.97289 9.7115 8.34273 10.3416C7.42891 11.2555 7.42891 12.7424 8.34273 13.6562C8.79965 14.1131 9.39988 14.3416 10 14.3416C10.6002 14.3416 11.2004 14.1131 11.6573 13.6562C12.2875 13.0261 16.2941 7.16263 17.0909 5.99365C17.3023 5.68337 17.2632 5.26665 16.9978 5.00115ZM10.5524 12.5513C10.2479 12.856 9.75219 12.856 9.44762 12.5513C9.14301 12.2468 9.14297 11.7513 9.44746 11.4467C9.6923 11.2047 11.357 10.0174 13.4052 8.59372C11.9816 10.6419 10.7943 12.3066 10.5524 12.5513Z" fill="white"/>
<path id="Vector_2" d="M3.60277 15.6338L2.63832 16.1042C1.93262 14.8448 1.5625 13.439 1.5625 12C1.5625 10.9457 1.75691 9.93586 2.11172 9.00457L3.21684 9.53465C3.32582 9.58691 3.44086 9.61168 3.55418 9.61168C3.84531 9.61168 4.1248 9.4482 4.25914 9.16813C4.4457 8.7791 4.28164 8.31242 3.89258 8.12582L2.80148 7.60246C4.15762 5.39074 6.50398 3.84875 9.21879 3.59836V4.7734C9.21879 5.20488 9.56855 5.55465 10 5.55465C10.4315 5.55465 10.7813 5.20488 10.7813 4.7734V3.59777C11.7121 3.6825 12.6127 3.91953 13.4677 4.30547C13.8608 4.48301 14.3236 4.30805 14.5011 3.91488C14.6787 3.5216 14.5038 3.05891 14.1105 2.88137C12.815 2.29656 11.432 2 10 2C7.32891 2 4.81769 3.04016 2.92891 4.92891C1.0402 6.8177 0 9.32891 0 12C0 13.9738 0.585859 15.8935 1.69426 17.5514C1.84355 17.7746 2.09039 17.8985 2.34422 17.8985C2.45961 17.8985 2.57648 17.8729 2.68629 17.8193L4.28785 17.0381C4.67566 16.8489 4.83668 16.3812 4.6475 15.9934C4.45832 15.6056 3.99059 15.4446 3.60277 15.6338Z" fill="white"/>
<path id="Vector_3" d="M19.1188 7.88862C18.9413 7.49538 18.4787 7.32038 18.0853 7.49799C17.692 7.67553 17.5172 8.13823 17.6947 8.53147C18.1878 9.62358 18.4377 10.7903 18.4377 11.9991C18.4377 13.4403 18.0664 14.8483 17.3586 16.1092L16.3517 15.6297C15.9622 15.4442 15.496 15.6096 15.3104 15.9992C15.1249 16.3887 15.2904 16.8549 15.6799 17.0404L17.3206 17.8217C17.4285 17.873 17.5429 17.8976 17.656 17.8976C17.9099 17.8976 18.1568 17.7736 18.3059 17.5505C19.4144 15.8926 20.0002 13.9729 20.0002 11.9991C20.0002 10.5671 19.7037 9.18413 19.1188 7.88862Z" fill="white"/>
</g>
</g>
</g>
</g>
<defs>
<clipPath id="clip0_341_628">
<rect width="20" height="20" fill="white"/>
</clipPath>
</defs>
</svg>
