<svg xmlns="http://www.w3.org/2000/svg" width="117" height="73" viewBox="0 0 117 73" fill="none">
  <path d="M1 72C15.1141 61.7349 32.6586 75.3995 41.3261 61.7349C56.8804 37.2129 77.0435 56.0321 83.9565 29.2289C90.8696 2.4257 99.2228 15.257 107 1" stroke="url(#paint0_linear_352_291)"/>
  <circle cx="44" cy="58" r="2" fill="#0FCFB4"/>
  <circle cx="67" cy="46" r="2" fill="#04D563"/>
  <path d="M116 17C105.082 24.9518 91.5093 14.3666 84.8043 24.9518C72.7717 43.9478 60.8478 25.7369 55.5 46.5C50.1522 67.2631 44.0163 61.4558 38 72.5" stroke="url(#paint1_linear_352_291)"/>
  <circle cx="81" cy="30" r="2" fill="#0B9BDD"/>
  <circle cx="52" cy="56" r="2" fill="#0A94E3"/>
  <circle cx="89" cy="16" r="2" fill="#44EED9"/>
  <defs>
    <linearGradient id="paint0_linear_352_291" x1="107" y1="1" x2="-0.629119" y2="73.2905" gradientUnits="userSpaceOnUse">
      <stop stop-color="white"/>
      <stop offset="0.231948" stop-color="#03FDDF"/>
      <stop offset="0.436311" stop-color="#00F361"/>
      <stop offset="0.734799" stop-color="#20D7FF"/>
      <stop offset="1" stop-color="white" stop-opacity="0"/>
    </linearGradient>
    <linearGradient id="paint1_linear_352_291" x1="34" y1="72" x2="117.331" y2="16.1063" gradientUnits="userSpaceOnUse">
      <stop stop-color="white"/>
      <stop offset="0.231948" stop-color="#0394FD"/>
      <stop offset="0.436311" stop-color="#00E5F3"/>
      <stop offset="0.734799" stop-color="#2087FF"/>
      <stop offset="1" stop-color="white" stop-opacity="0"/>
    </linearGradient>
  </defs>
</svg>