<svg width="20" height="20" viewBox="0 0 20 20" fill="none" xmlns="http://www.w3.org/2000/svg">
<g id="mail-inbox-app 1">
<path id="Union" fill-rule="evenodd" clip-rule="evenodd" d="M4.4 3.6C4.18783 3.6 3.98434 3.68429 3.83431 3.83431C3.68429 3.98434 3.6 4.18783 3.6 4.4V15.6C3.6 15.8122 3.68429 16.0157 3.83431 16.1657C3.98434 16.3157 4.18783 16.4 4.4 16.4H7.6C8.04183 16.4 8.4 16.7582 8.4 17.2C8.4 17.6418 8.04183 18 7.6 18H4.4C3.76348 18 3.15303 17.7471 2.70294 17.2971C2.25286 16.847 2 16.2365 2 15.6V4.4C2 3.76348 2.25286 3.15303 2.70294 2.70294C3.15303 2.25286 3.76348 2 4.4 2H7.6C8.04183 2 8.4 2.35817 8.4 2.8C8.4 3.24183 8.04183 3.6 7.6 3.6H4.4ZM6.80002 10C6.80002 9.55817 7.13261 9.2 7.54288 9.2H15.2686L12.6343 6.56568C12.3219 6.25326 12.3219 5.74673 12.6343 5.43431C12.9467 5.12189 13.4533 5.12189 13.7657 5.43431L17.7657 9.43431C18.0781 9.74673 18.0781 10.2533 17.7657 10.5657L13.7657 14.5657C13.4533 14.8781 12.9467 14.8781 12.6343 14.5657C12.3219 14.2533 12.3219 13.7467 12.6343 13.4343L15.2686 10.8H7.54288C7.13261 10.8 6.80002 10.4418 6.80002 10Z" fill="#595F6E"/>
</g>
</svg>
