<svg xmlns="http://www.w3.org/2000/svg" width="18" height="18" viewBox="0 0 18 18" fill="none">
<g clip-path="url(#clip0_341_150)">
<path fill-rule="evenodd" clip-rule="evenodd" d="M1.72352 3.72598C1.85883 3.45839 2.13709 3.27272 2.45452 3.27272H15.5454C15.8628 3.27272 16.1411 3.45838 16.2764 3.72595L8.99994 8.81947L1.72352 3.72598ZM3.3816e-05 4.07421C-0.000153445 4.08381 -0.000171842 4.09341 -2.21915e-05 4.10301V13.9091C-2.21915e-05 15.2609 1.10265 16.3636 2.45452 16.3636H15.5454C16.8973 16.3636 18 15.2609 18 13.9091V4.09807M16.3636 5.66234V13.9091C16.3636 14.3572 15.9936 14.7273 15.5454 14.7273H2.45452C2.00639 14.7273 1.63634 14.3572 1.63634 13.9091V5.66238L8.53075 10.4885C8.81246 10.6857 9.18742 10.6857 9.46914 10.4885L16.3636 5.66234ZM17.9999 4.08023C17.9942 2.73323 16.8937 1.63635 15.5454 1.63635H2.45452C1.10822 1.63635 0.00906122 2.72997 3.3816e-05 4.07421" fill="#3dcee8"/>
</g>
<defs>
<clipPath id="clip0_341_150">
<rect width="18" height="18" fill="white"/>
</clipPath>
</defs>
</svg>