<svg xmlns="http://www.w3.org/2000/svg" width="18" height="18" viewBox="0 0 18 18" fill="none">
<g clip-path="url(#clip0_341_146)">
<path fill-rule="evenodd" clip-rule="evenodd" d="M9.00865 -3.05176e-05C7.48943 -3.05176e-05 6.03244 0.603474 4.9582 1.67772C3.88395 2.75197 3.28045 4.20896 3.28045 5.72817C3.28045 8.4717 2.69366 10.1754 2.15289 11.1668C1.88138 11.6646 1.617 11.9911 1.43334 12.185C1.3413 12.2821 1.26898 12.3465 1.22543 12.3828C1.20365 12.401 1.18904 12.4121 1.18274 12.4168L1.1804 12.4185C0.887044 12.6201 0.757227 12.9887 0.860615 13.3301C0.965113 13.6753 1.28321 13.9113 1.64382 13.9113H16.3735C16.7341 13.9113 17.0522 13.6753 17.1567 13.3301C17.2601 12.9887 17.1302 12.6201 16.8369 12.4185L16.8346 12.4168C16.8283 12.4121 16.8136 12.401 16.7919 12.3828C16.7483 12.3465 16.676 12.2821 16.5839 12.185C16.4003 11.9911 16.1359 11.6646 15.8644 11.1668C15.3236 10.1754 14.7368 8.4717 14.7368 5.72817C14.7368 4.20896 14.1333 2.75197 13.0591 1.67772C11.9848 0.603474 10.5279 -3.05176e-05 9.00865 -3.05176e-05ZM14.4276 11.9505C14.4899 12.0647 14.5524 12.1727 14.6147 12.2747H3.40264C3.4649 12.1727 3.52741 12.0647 3.58968 11.9505C4.27639 10.6915 4.91707 8.71284 4.91707 5.72817C4.91707 4.64302 5.34815 3.60231 6.11547 2.83499C6.88279 2.06767 7.92349 1.6366 9.00865 1.6366C10.0938 1.6366 11.1345 2.06767 11.9018 2.83499C12.6691 3.60231 13.1002 4.64302 13.1002 5.72817C13.1002 8.71284 13.7409 10.6915 14.4276 11.9505ZM8.30076 15.9556C8.07399 15.5647 7.57325 15.4316 7.18231 15.6584C6.79138 15.8851 6.65831 16.3859 6.88508 16.7768C7.10088 17.1488 7.41063 17.4576 7.78331 17.6723C8.15599 17.887 8.57853 17.9999 9.00861 17.9999C9.43869 17.9999 9.86122 17.887 10.2339 17.6723C10.6066 17.4576 10.9163 17.1488 11.1321 16.7768C11.3589 16.3859 11.2258 15.8851 10.8349 15.6584C10.444 15.4316 9.94322 15.5647 9.71645 15.9556C9.64451 16.0796 9.54126 16.1826 9.41704 16.2541C9.29281 16.3257 9.15197 16.3633 9.00861 16.3633C8.86524 16.3633 8.7244 16.3257 8.60017 16.2541C8.47595 16.1826 8.3727 16.0796 8.30076 15.9556Z" fill="#595F6E"/>
</g>
<defs>
<clipPath id="clip0_341_146">
<rect width="18" height="18" fill="white"/>
</clipPath>
</defs>
</svg>