<svg width="20" height="20" viewBox="0 0 20 20" fill="none" xmlns="http://www.w3.org/2000/svg">
<g id="mail-inbox-app 1">
<path id="Union" fill-rule="evenodd" clip-rule="evenodd" d="M10.0372 1C9.63502 1 9.23992 1.10573 8.8915 1.30659L6.19347 2.84832C6.04023 2.87065 5.89649 2.94944 5.7953 3.07584L3.05333 4.64268L3.05091 4.64408C2.76279 4.81042 2.51503 5.03701 2.32406 5.30743C2.28153 5.34781 2.24401 5.39488 2.21315 5.44823C2.18617 5.49487 2.16588 5.54354 2.15199 5.59314C1.98953 5.91358 1.90428 6.26868 1.90391 6.62903L1.90391 9.95094C1.90369 9.96047 1.90369 9.96998 1.90391 9.97949L1.90391 13.3031C1.90432 13.7054 2.01052 14.1005 2.21184 14.4488C2.41316 14.7971 2.70253 15.0863 3.05091 15.2875L3.05333 15.2889L5.79541 16.8558C5.8924 16.9764 6.03324 17.0604 6.19373 17.0834L8.8902 18.6242L8.89149 18.6249C9.14495 18.7711 9.42311 18.8668 9.71074 18.9082C9.80577 18.9664 9.91754 19 10.0372 19C10.1568 19 10.2685 18.9664 10.3635 18.9082C10.6512 18.8669 10.9294 18.7711 11.1829 18.625L11.1842 18.6242L13.8807 17.0833C14.0411 17.0603 14.1818 16.9764 14.2788 16.8559L17.0211 15.2889L17.0235 15.2875C17.3719 15.0863 17.6613 14.7971 17.8626 14.4488C18.0639 14.1005 18.1701 13.7048 18.1705 13.3025V9.97156V9.95886V6.62839C18.1701 6.2678 18.0848 5.91299 17.9221 5.59248C17.9082 5.54311 17.888 5.49466 17.8611 5.44823C17.8304 5.39506 17.793 5.34812 17.7506 5.30784C17.5596 5.03724 17.3118 4.8105 17.0235 4.64407L14.2788 3.07568C14.1777 2.94943 14.0341 2.87071 13.881 2.84835L11.1842 1.30734L11.1829 1.30656C10.8345 1.10573 10.4394 1 10.0372 1ZM10.6628 17.481L13.1653 16.051V12.1347C13.1653 11.9112 13.2845 11.7047 13.478 11.593L16.9192 9.60467V6.71585L10.6628 10.335V17.481ZM9.41152 10.335L3.15519 6.71593V9.60475L6.59631 11.593C6.78979 11.7047 6.90896 11.9112 6.90896 12.1347V16.0509L9.41152 17.4809V10.335ZM10.0371 9.25135L16.2624 5.65028L13.7492 4.21419L10.3501 6.1781C10.1565 6.28999 9.91779 6.28999 9.72413 6.1781L6.32514 4.21424L3.81199 5.65032L10.0371 9.25135ZM14.4166 15.336L16.3979 14.2038L16.3989 14.2032C16.5568 14.1118 16.688 13.9806 16.7793 13.8226C16.8708 13.6643 16.919 13.4847 16.9192 13.3019V11.0498L14.4166 12.4958V15.336ZM3.15519 13.3022V11.0499L5.65768 12.4958V15.3359L3.67655 14.2038L3.67548 14.2032C3.5176 14.1118 3.38646 13.9806 3.29515 13.8226C3.20369 13.6644 3.15543 13.4849 3.15519 13.3022ZM12.4917 3.49562L10.5586 2.39098C10.4001 2.29946 10.2202 2.25128 10.0372 2.25128C9.85417 2.25128 9.67436 2.29946 9.51584 2.39098L9.51343 2.39236L7.58263 3.49567L10.0371 4.91382L12.4917 3.49562Z" fill="#595F6E"/>
</g>
</svg>
