<svg width="20" height="20" viewBox="0 0 20 20" fill="none" xmlns="http://www.w3.org/2000/svg">
<path fill-rule="evenodd" clip-rule="evenodd" d="M10.0368 1C9.6346 1 9.23949 1.10573 8.89107 1.30659L6.19305 2.84832C6.0398 2.87065 5.89606 2.94944 5.79487 3.07584L3.0529 4.64268L3.05049 4.64408C2.76236 4.81042 2.51461 5.03701 2.32364 5.30743C2.28111 5.34781 2.24358 5.39488 2.21272 5.44823C2.18574 5.49487 2.16546 5.54354 2.15156 5.59314C1.9891 5.91358 1.90385 6.26868 1.90348 6.62903L1.90348 9.95094C1.90327 9.96047 1.90327 9.96998 1.90348 9.97949L1.90348 13.3031C1.9039 13.7054 2.01009 14.1005 2.21141 14.4488C2.41273 14.7971 2.7021 15.0863 3.05049 15.2875L3.0529 15.2889L5.79499 16.8558C5.89198 16.9764 6.03281 17.0604 6.19331 17.0834L8.88978 18.6242L8.89106 18.6249C9.14452 18.7711 9.42269 18.8668 9.71031 18.9082C9.80534 18.9664 9.91712 19 10.0367 19C10.1563 19 10.2681 18.9664 10.3631 18.9082C10.6508 18.8669 10.929 18.7711 11.1825 18.625L11.1838 18.6242L13.8803 17.0833C14.0407 17.0603 14.1814 16.9764 14.2783 16.8559L17.0207 15.2889L17.0231 15.2875C17.3715 15.0863 17.6608 14.7971 17.8621 14.4488C18.0635 14.1005 18.1697 13.7048 18.1701 13.3025V9.97156V9.95886V6.62839C18.1697 6.2678 18.0843 5.91299 17.9217 5.59248C17.9078 5.54311 17.8876 5.49466 17.8607 5.44823C17.8299 5.39506 17.7926 5.34812 17.7502 5.30784C17.5592 5.03724 17.3113 4.8105 17.0231 4.64407L14.2784 3.07568C14.1772 2.94943 14.0337 2.87071 13.8806 2.84835L11.1838 1.30734L11.1824 1.30656C10.834 1.10573 10.4389 1 10.0368 1ZM10.6624 17.481L13.1649 16.051V12.1347C13.1649 11.9112 13.2841 11.7047 13.4775 11.593L16.9188 9.60467V6.71585L10.6624 10.335V17.481ZM9.41109 10.335L3.15476 6.71593V9.60475L6.59588 11.593C6.78936 11.7047 6.90853 11.9112 6.90853 12.1347V16.0509L9.41109 17.4809V10.335ZM10.0367 9.25135L16.2619 5.65028L13.7488 4.21419L10.3497 6.1781C10.156 6.28999 9.91736 6.28999 9.7237 6.1781L6.32471 4.21424L3.81156 5.65032L10.0367 9.25135ZM14.4162 15.336L16.3974 14.2038L16.3985 14.2032C16.5564 14.1118 16.6875 13.9806 16.7788 13.8226C16.8703 13.6643 16.9186 13.4847 16.9188 13.3019V11.0498L14.4162 12.4958V15.336ZM3.15476 13.3022V11.0499L5.65725 12.4958V15.3359L3.67612 14.2038L3.67505 14.2032C3.51717 14.1118 3.38603 13.9806 3.29473 13.8226C3.20327 13.6644 3.155 13.4849 3.15476 13.3022ZM12.4913 3.49562L10.5581 2.39098C10.3996 2.29946 10.2198 2.25128 10.0368 2.25128C9.85374 2.25128 9.67393 2.29946 9.51541 2.39098L9.513 2.39236L7.58221 3.49567L10.0367 4.91382L12.4913 3.49562Z" fill="white"/>
</svg>
