<svg width="20" height="20" viewBox="0 0 20 20" fill="none" xmlns="http://www.w3.org/2000/svg">
<g id="mail-inbox-app 1">
<path id="Union" fill-rule="evenodd" clip-rule="evenodd" d="M7.33333 5.55555C7.33333 4.08279 8.52723 2.88888 10 2.88888C11.4728 2.88888 12.6667 4.08279 12.6667 5.55555C12.6667 7.02831 11.4728 8.22222 10 8.22222C8.52723 8.22222 7.33333 7.02831 7.33333 5.55555ZM10 1.1111C7.54539 1.1111 5.55554 3.10095 5.55554 5.55555C5.55554 8.01015 7.54539 10 10 10C12.4546 10 14.4444 8.01015 14.4444 5.55555C14.4444 3.10095 12.4546 1.1111 10 1.1111ZM6.44442 11.7778C5.26568 11.7778 4.13522 12.246 3.30172 13.0795C2.46822 13.913 1.99997 15.0435 1.99997 16.2222V18C1.99997 18.4909 2.39794 18.8889 2.88886 18.8889C3.37978 18.8889 3.77775 18.4909 3.77775 18V16.2222C3.77775 15.515 4.0587 14.8367 4.5588 14.3366C5.0589 13.8365 5.73718 13.5556 6.44442 13.5556H13.5555C14.2628 13.5556 14.9411 13.8365 15.4412 14.3366C15.9413 14.8367 16.2222 15.515 16.2222 16.2222V18C16.2222 18.4909 16.6202 18.8889 17.1111 18.8889C17.602 18.8889 18 18.4909 18 18V16.2222C18 15.0435 17.5317 13.913 16.6982 13.0795C15.8648 12.246 14.7343 11.7778 13.5555 11.7778H6.44442Z" fill="#595F6E"/>
</g>
</svg>
