<svg width="20" height="20" viewBox="0 0 20 20" fill="none" xmlns="http://www.w3.org/2000/svg">
<path fill-rule="evenodd" clip-rule="evenodd" d="M2.14286 0C3.35714 0 4.28571 0.928571 4.28571 2.14286C4.28571 3.35714 3.35714 4.28571 2.14286 4.28571C0.928571 4.28571 0 3.35714 0 2.14286C0 0.928571 0.928571 0 2.14286 0ZM2.14286 1.42857C1.71429 1.42857 1.42857 1.71429 1.42857 2.14286C1.42857 2.57143 1.71429 2.85714 2.14286 2.85714C2.57143 2.85714 2.85714 2.57143 2.85714 2.14286C2.85714 1.71429 2.57143 1.42857 2.14286 1.42857ZM10.7143 1.42857C5.57143 1.42857 1.42857 5.57143 1.42857 10.7143C1.42857 15.8571 5.57143 20 10.7143 20C15.8571 20 20 15.8571 20 10.7143C20 5.57143 15.8571 1.42857 10.7143 1.42857ZM10.7143 18.5714C6.35714 18.5714 2.85714 15.0714 2.85714 10.7143C2.85714 6.35714 6.35714 2.85714 10.7143 2.85714C15.0714 2.85714 18.5714 6.35714 18.5714 10.7143C18.5714 15.0714 15.0714 18.5714 10.7143 18.5714ZM8.57143 5.71429C8.57143 4.5 9.5 3.57143 10.7143 3.57143C11.9286 3.57143 12.8571 4.5 12.8571 5.71429C12.8571 6.92857 11.9286 7.85714 10.7143 7.85714C9.5 7.85714 8.57143 6.92857 8.57143 5.71429ZM10 5.71429C10 6.14286 10.2857 6.42857 10.7143 6.42857C11.1429 6.42857 11.4286 6.14286 11.4286 5.71429C11.4286 5.28571 11.1429 5 10.7143 5C10.2857 5 10 5.28571 10 5.71429ZM5.71429 8.57143C4.5 8.57143 3.57143 9.5 3.57143 10.7143C3.57143 11.9286 4.5 12.8571 5.71429 12.8571C6.92857 12.8571 7.85714 11.9286 7.85714 10.7143C7.85714 9.5 6.92857 8.57143 5.71429 8.57143ZM5.71429 11.4286C5.28571 11.4286 5 11.1429 5 10.7143C5 10.2857 5.28571 10 5.71429 10C6.14286 10 6.42857 10.2857 6.42857 10.7143C6.42857 11.1429 6.14286 11.4286 5.71429 11.4286ZM10.7143 13.5714C9.5 13.5714 8.57143 14.5 8.57143 15.7143C8.57143 16.9286 9.5 17.8571 10.7143 17.8571C11.9286 17.8571 12.8571 16.9286 12.8571 15.7143C12.8571 14.5 11.9286 13.5714 10.7143 13.5714ZM10.7143 16.4286C10.2857 16.4286 10 16.1429 10 15.7143C10 15.2857 10.2857 15 10.7143 15C11.1429 15 11.4286 15.2857 11.4286 15.7143C11.4286 16.1429 11.1429 16.4286 10.7143 16.4286ZM8.57143 10.7143C8.57143 9.5 9.5 8.57143 10.7143 8.57143C11.9286 8.57143 12.8571 9.5 12.8571 10.7143C12.8571 11.9286 11.9286 12.8571 10.7143 12.8571C9.5 12.8571 8.57143 11.9286 8.57143 10.7143ZM10 10.7143C10 11.1429 10.2857 11.4286 10.7143 11.4286C11.1429 11.4286 11.4286 11.1429 11.4286 10.7143C11.4286 10.2857 11.1429 10 10.7143 10C10.2857 10 10 10.2857 10 10.7143ZM15.7143 8.57143C14.5 8.57143 13.5714 9.5 13.5714 10.7143C13.5714 11.9286 14.5 12.8571 15.7143 12.8571C16.9286 12.8571 17.8571 11.9286 17.8571 10.7143C17.8571 9.5 16.9286 8.57143 15.7143 8.57143ZM15.7143 11.4286C15.2857 11.4286 15 11.1429 15 10.7143C15 10.2857 15.2857 10 15.7143 10C16.1429 10 16.4286 10.2857 16.4286 10.7143C16.4286 11.1429 16.1429 11.4286 15.7143 11.4286Z" fill="white"/>
</svg>
