<svg width="20" height="20" viewBox="0 0 20 20" fill="none" xmlns="http://www.w3.org/2000/svg">
<g id="mail-inbox-app 1" clip-path="url(#clip0_341_599)">
<g id="Group">
<path id="Union" fill-rule="evenodd" clip-rule="evenodd" d="M2.14286 7.62939e-06C3.35714 7.62939e-06 4.28571 0.928579 4.28571 2.14286C4.28571 3.35715 3.35714 4.28572 2.14286 4.28572C0.928571 4.28572 0 3.35715 0 2.14286C0 0.928579 0.928571 7.62939e-06 2.14286 7.62939e-06ZM2.14286 1.42858C1.71429 1.42858 1.42857 1.71429 1.42857 2.14286C1.42857 2.57144 1.71429 2.85715 2.14286 2.85715C2.57143 2.85715 2.85714 2.57144 2.85714 2.14286C2.85714 1.71429 2.57143 1.42858 2.14286 1.42858ZM10.7143 1.42858C5.57143 1.42858 1.42857 5.57144 1.42857 10.7143C1.42857 15.8572 5.57143 20 10.7143 20C15.8571 20 20 15.8572 20 10.7143C20 5.57144 15.8571 1.42858 10.7143 1.42858ZM10.7143 18.5714C6.35714 18.5714 2.85714 15.0714 2.85714 10.7143C2.85714 6.35715 6.35714 2.85715 10.7143 2.85715C15.0714 2.85715 18.5714 6.35715 18.5714 10.7143C18.5714 15.0714 15.0714 18.5714 10.7143 18.5714ZM8.57143 5.71429C8.57143 4.50001 9.5 3.57144 10.7143 3.57144C11.9286 3.57144 12.8571 4.50001 12.8571 5.71429C12.8571 6.92858 11.9286 7.85715 10.7143 7.85715C9.5 7.85715 8.57143 6.92858 8.57143 5.71429ZM10 5.71429C10 6.14286 10.2857 6.42858 10.7143 6.42858C11.1429 6.42858 11.4286 6.14286 11.4286 5.71429C11.4286 5.28572 11.1429 5.00001 10.7143 5.00001C10.2857 5.00001 10 5.28572 10 5.71429ZM5.71429 8.57144C4.5 8.57144 3.57143 9.50001 3.57143 10.7143C3.57143 11.9286 4.5 12.8572 5.71429 12.8572C6.92857 12.8572 7.85714 11.9286 7.85714 10.7143C7.85714 9.50001 6.92857 8.57144 5.71429 8.57144ZM5.71429 11.4286C5.28571 11.4286 5 11.1429 5 10.7143C5 10.2857 5.28571 10 5.71429 10C6.14286 10 6.42857 10.2857 6.42857 10.7143C6.42857 11.1429 6.14286 11.4286 5.71429 11.4286ZM10.7143 13.5714C9.5 13.5714 8.57143 14.5 8.57143 15.7143C8.57143 16.9286 9.5 17.8571 10.7143 17.8571C11.9286 17.8571 12.8571 16.9286 12.8571 15.7143C12.8571 14.5 11.9286 13.5714 10.7143 13.5714ZM10.7143 16.4286C10.2857 16.4286 10 16.1429 10 15.7143C10 15.2857 10.2857 15 10.7143 15C11.1429 15 11.4286 15.2857 11.4286 15.7143C11.4286 16.1429 11.1429 16.4286 10.7143 16.4286ZM8.57143 10.7143C8.57143 9.50001 9.5 8.57144 10.7143 8.57144C11.9286 8.57144 12.8571 9.50001 12.8571 10.7143C12.8571 11.9286 11.9286 12.8572 10.7143 12.8572C9.5 12.8572 8.57143 11.9286 8.57143 10.7143ZM10 10.7143C10 11.1429 10.2857 11.4286 10.7143 11.4286C11.1429 11.4286 11.4286 11.1429 11.4286 10.7143C11.4286 10.2857 11.1429 10 10.7143 10C10.2857 10 10 10.2857 10 10.7143ZM15.7143 8.57144C14.5 8.57144 13.5714 9.50001 13.5714 10.7143C13.5714 11.9286 14.5 12.8572 15.7143 12.8572C16.9286 12.8572 17.8571 11.9286 17.8571 10.7143C17.8571 9.50001 16.9286 8.57144 15.7143 8.57144ZM15.7143 11.4286C15.2857 11.4286 15 11.1429 15 10.7143C15 10.2857 15.2857 10 15.7143 10C16.1429 10 16.4286 10.2857 16.4286 10.7143C16.4286 11.1429 16.1429 11.4286 15.7143 11.4286Z" fill="#595F6E"/>
</g>
</g>
<defs>
<clipPath id="clip0_341_599">
<rect width="20" height="20" fill="white"/>
</clipPath>
</defs>
</svg>
