<svg width="20" height="20" viewBox="0 0 20 20" fill="none" xmlns="http://www.w3.org/2000/svg">
<path fill-rule="evenodd" clip-rule="evenodd" d="M2 10C2 5.58187 5.58187 2 10 2C14.4181 2 18 5.58187 18 10C18 14.4181 14.4181 18 10 18C5.58187 18 2 14.4181 2 10ZM12.6426 16.3886C13.4813 16.0391 14.2428 15.5277 14.8834 14.8834C15.5277 14.2428 16.0391 13.4813 16.3886 12.6426C16.738 11.804 16.9185 10.9046 16.9198 9.99604C16.921 9.08749 16.743 8.18762 16.3959 7.34799C16.0488 6.50836 15.5394 5.74547 14.897 5.10303C14.2545 4.46058 13.4916 3.95122 12.652 3.60411C11.8124 3.25701 10.9125 3.07898 10.004 3.08024C9.09541 3.0815 8.19604 3.26201 7.35737 3.61144C6.5187 3.96087 5.75722 4.47234 5.11656 5.11656C4.47234 5.75722 3.96087 6.5187 3.61144 7.35737C3.26201 8.19604 3.0815 9.09541 3.08024 10.004C3.07898 10.9125 3.25701 11.8124 3.60411 12.652C3.95122 13.4916 4.46058 14.2545 5.10303 14.897C5.74547 15.5394 6.50836 16.0488 7.34799 16.3959C8.18762 16.743 9.08749 16.921 9.99604 16.9198C10.9046 16.9185 11.804 16.738 12.6426 16.3886ZM11.3266 13.2069L12.1684 12.3728L13 13.2059C13.0443 13.2503 13.0968 13.2855 13.1547 13.3095C13.2126 13.3335 13.2747 13.3459 13.3373 13.3459C13.4 13.3459 13.4621 13.3335 13.52 13.3095C13.5778 13.2855 13.6304 13.2503 13.6747 13.2059C13.719 13.1617 13.7542 13.1091 13.7783 13.0512C13.8023 12.9933 13.8146 12.9313 13.8146 12.8686C13.8146 12.8059 13.8023 12.7439 13.7783 12.686C13.7542 12.6281 13.719 12.5755 13.6747 12.5312L12.8438 11.6984L13.6747 10.8672C13.719 10.8229 13.7542 10.7703 13.7783 10.7125C13.8023 10.6546 13.8146 10.5925 13.8146 10.5298C13.8146 10.4672 13.8023 10.4051 13.7783 10.3472C13.7542 10.2893 13.719 10.2368 13.6747 10.1925C13.5852 10.1031 13.4639 10.0528 13.3373 10.0528C13.2108 10.0528 13.0895 10.1031 13 10.1925L12.17 11.0241L11.3281 10.19C11.2385 10.1011 11.1173 10.0514 10.9911 10.0517C10.8649 10.052 10.7439 10.1023 10.6547 10.1916C10.6103 10.236 10.5751 10.2888 10.5511 10.3469C10.5271 10.4049 10.5149 10.4672 10.515 10.53C10.5151 10.5928 10.5277 10.655 10.5519 10.713C10.5762 10.771 10.6116 10.8236 10.6562 10.8678L11.4928 11.6997L10.6547 12.5303C10.6101 12.5746 10.5746 12.6272 10.5504 12.6852C10.5261 12.7432 10.5136 12.8054 10.5134 12.8683C10.5133 12.9311 10.5255 12.9934 10.5495 13.0515C10.5735 13.1096 10.6087 13.1624 10.6531 13.2069C10.7426 13.2959 10.8637 13.3458 10.9898 13.3458C11.116 13.3458 11.2371 13.2959 11.3266 13.2069ZM5.6875 11.6953V11.7016C5.68742 11.7643 5.6997 11.8264 5.72364 11.8844C5.74759 11.9423 5.78273 11.995 5.82704 12.0394C5.87136 12.0838 5.924 12.119 5.98193 12.143C6.03987 12.167 6.10197 12.1794 6.16469 12.1794H9.32938C9.39204 12.1794 9.45409 12.167 9.51199 12.143C9.56988 12.1191 9.62249 12.0839 9.6668 12.0396C9.71111 11.9953 9.74626 11.9427 9.77024 11.8848C9.79422 11.8269 9.80656 11.7649 9.80656 11.7022V11.6959C9.80656 11.6333 9.79422 11.5712 9.77024 11.5133C9.74626 11.4554 9.71111 11.4028 9.6668 11.3585C9.62249 11.3142 9.56988 11.2791 9.51199 11.2551C9.45409 11.2311 9.39204 11.2187 9.32938 11.2187H6.16469C6.03824 11.2187 5.91696 11.2689 5.82749 11.3583C5.73801 11.4476 5.68767 11.5689 5.6875 11.6953ZM10.9897 7.53653C10.8631 7.53653 10.7417 7.58679 10.6522 7.67625C10.5629 7.76571 10.5128 7.88691 10.5128 8.01328C10.5128 8.13965 10.5629 8.26085 10.6522 8.35031L11.7666 9.46469C11.7945 9.49267 11.8277 9.51488 11.8642 9.53003C11.9007 9.54518 11.9398 9.55298 11.9794 9.55298C12.0189 9.55298 12.0581 9.54518 12.0946 9.53003C12.1311 9.51488 12.1643 9.49267 12.1922 9.46469L14.1734 7.47437C14.2619 7.38554 14.3119 7.26541 14.3125 7.14001C14.3131 7.01461 14.2642 6.89403 14.1766 6.80437L14.1709 6.79844C14.1268 6.75327 14.0742 6.71731 14.0161 6.69263C13.958 6.66795 13.8955 6.65505 13.8324 6.65467C13.7693 6.65429 13.7067 6.66645 13.6483 6.69043C13.5899 6.71441 13.5368 6.74974 13.4922 6.79437L11.9688 8.31781L11.3272 7.67625C11.2377 7.58679 11.1163 7.53653 10.9897 7.53653ZM5.6875 8.32625V8.33281C5.68758 8.45931 5.73789 8.58061 5.82738 8.67003C5.91686 8.75945 6.03818 8.80969 6.16469 8.80969H9.32938C9.45588 8.80969 9.57721 8.75945 9.66669 8.67003C9.75617 8.58061 9.80648 8.45931 9.80656 8.33281V8.32625C9.80656 8.26358 9.79422 8.20153 9.77024 8.14364C9.74626 8.08574 9.71111 8.03314 9.6668 7.98883C9.62249 7.94451 9.56988 7.90937 9.51199 7.88538C9.45409 7.8614 9.39204 7.84906 9.32938 7.84906H6.16469C6.03813 7.84906 5.91676 7.89934 5.82727 7.98883C5.73778 8.07832 5.6875 8.19969 5.6875 8.32625Z" fill="white"/>
<path fill-rule="evenodd" clip-rule="evenodd" d="M1.7998 10C1.7998 5.47147 5.47122 1.80005 9.9998 1.80005C14.5284 1.80005 18.1998 5.47147 18.1998 10C18.1998 14.5286 14.5284 18.2001 9.9998 18.2001C5.47122 18.2001 1.7998 14.5286 1.7998 10ZM9.9998 2.20005C5.69214 2.20005 2.1998 5.69238 2.1998 10C2.1998 14.3077 5.69214 17.8 9.9998 17.8C14.3075 17.8 17.7998 14.3077 17.7998 10C17.7998 5.69238 14.3075 2.20005 9.9998 2.20005ZM12.5754 3.78899C11.7601 3.45194 10.8863 3.27907 10.004 3.28029C9.1218 3.28151 8.24847 3.4568 7.43409 3.79611C6.61971 4.13542 5.88029 4.63208 5.25818 5.25764L5.2574 5.25842C4.63183 5.88053 4.13517 6.61996 3.79586 7.43434C3.45655 8.24872 3.28127 9.12205 3.28004 10.0043C3.27882 10.8865 3.45169 11.7603 3.78875 12.5756C4.1258 13.391 4.62042 14.1318 5.24425 14.7556C5.86809 15.3794 6.60889 15.8741 7.4242 16.2111C8.23952 16.5482 9.11333 16.721 9.99557 16.7198C10.8778 16.7186 11.7511 16.5433 12.5655 16.204C13.3799 15.8647 14.1193 15.368 14.7414 14.7425L14.7422 14.7417C15.3678 14.1196 15.8644 13.3801 16.2037 12.5658C16.5431 11.7514 16.7183 10.8781 16.7196 9.99581C16.7208 9.11357 16.5479 8.23977 16.2109 7.42445C15.8738 6.60913 15.3792 5.86833 14.7554 5.2445C14.1315 4.62066 13.3907 4.12604 12.5754 3.78899ZM10.0035 2.88029C10.9383 2.87899 11.8643 3.06217 12.7282 3.41933C13.5922 3.77649 14.3772 4.30061 15.0382 4.96165C15.6992 5.6227 16.2234 6.40768 16.5805 7.27163C16.9377 8.13558 17.1209 9.06151 17.1196 9.99637C17.1183 10.9312 16.9325 11.8566 16.573 12.7196C16.2135 13.5824 15.6874 14.3658 15.0247 15.0249C14.3655 15.6876 13.5821 16.2137 12.7194 16.5732C11.8564 16.9328 10.931 17.1185 9.99612 17.1198C9.06126 17.1211 8.13533 16.9379 7.27139 16.5808C6.40744 16.2236 5.62246 15.6995 4.96141 15.0384C4.30036 14.3774 3.77625 13.5924 3.41909 12.7285C3.06193 11.8645 2.87875 10.9386 2.88004 10.0037C2.88134 9.06887 3.06708 8.14345 3.42663 7.2805C3.78611 6.41771 4.31226 5.63432 4.97495 4.97519C5.63408 4.3125 6.41747 3.78635 7.28025 3.42687C8.14321 3.06732 9.06863 2.88158 10.0035 2.88029ZM13.5721 6.50547C13.655 6.47144 13.7438 6.45419 13.8334 6.45472C13.923 6.45526 14.0116 6.47357 14.0941 6.50859C14.1765 6.54361 14.2512 6.59465 14.3138 6.65874L14.316 6.66092L14.3206 6.66582C14.4443 6.79295 14.5131 6.96358 14.5123 7.141C14.5115 7.31899 14.4406 7.48949 14.3149 7.61558L12.3337 9.60583C12.2872 9.65244 12.2318 9.68958 12.171 9.71481C12.1102 9.74004 12.045 9.75302 11.9792 9.75302C11.9133 9.75302 11.8482 9.74004 11.7873 9.71481C11.7266 9.68961 11.6714 9.65269 11.6249 9.60616M6.16449 8.04911C6.09098 8.04911 6.02047 8.07831 5.96849 8.1303C5.91651 8.18228 5.88731 8.25278 5.88731 8.3263V8.33273C5.88735 8.40621 5.91658 8.47667 5.96856 8.52861C6.02053 8.58056 6.09101 8.60973 6.16449 8.60973H9.32918C9.40266 8.60973 9.47314 8.58056 9.52512 8.52861C9.57709 8.47667 9.60632 8.40621 9.60637 8.33273V8.3263C9.60637 8.2899 9.5992 8.25385 9.58527 8.22022C9.57134 8.18659 9.55092 8.15604 9.52518 8.1303C9.49944 8.10456 9.46889 8.08414 9.43525 8.07021C9.40162 8.05628 9.36558 8.04911 9.32918 8.04911H6.16449ZM11.4687 10.048C11.3415 9.92191 11.1695 9.85135 10.9904 9.85177C10.8113 9.85218 10.6397 9.92354 10.513 10.0502C10.45 10.1133 10.4 10.1882 10.366 10.2706C10.332 10.353 10.3146 10.4414 10.3148 10.5305C10.315 10.6197 10.3328 10.7079 10.3672 10.7902C10.4016 10.8724 10.4518 10.9469 10.515 11.0097M10.515 11.0097L11.2087 11.6995L10.5137 12.3883C10.4504 12.4511 10.4 12.5258 10.3656 12.6081C10.3312 12.6904 10.3134 12.7787 10.3132 12.8679C10.313 12.957 10.3304 13.0454 10.3644 13.1278C10.3985 13.2103 10.4484 13.2852 10.5115 13.3483C10.6384 13.4745 10.8106 13.5459 10.9896 13.5459C11.1686 13.5459 11.3403 13.4751 11.4672 13.3489L12.1675 12.6552L12.8582 13.3473C12.9211 13.4102 12.9957 13.4602 13.0779 13.4943C13.1601 13.5284 13.2482 13.5459 13.3371 13.5459C13.4261 13.5459 13.5142 13.5284 13.5964 13.4943C13.6785 13.4602 13.7531 13.4103 13.8159 13.3474C13.8788 13.2846 13.9287 13.21 13.9628 13.1279C13.9969 13.0457 14.0144 12.9576 14.0144 12.8686C14.0144 12.7797 13.9969 12.6916 13.9628 12.6094C13.9287 12.5273 13.8788 12.4527 13.8159 12.3899M13.1262 11.6986L12.985 11.8399L12.8436 11.6985L12.9851 11.5572L13.1262 11.6986ZM5.68596 11.2168C5.81293 11.09 5.98504 11.0188 6.16449 11.0188H9.32918C9.41811 11.0188 9.50617 11.0363 9.58833 11.0703C9.67049 11.1044 9.74514 11.1543 9.80802 11.2171C9.87091 11.28 9.92079 11.3547 9.95482 11.4368C9.98885 11.519 10.0064 11.6071 10.0064 11.696V11.7022C10.0064 11.7912 9.98885 11.8792 9.95482 11.9614C9.92079 12.0435 9.87091 12.1182 9.80802 12.1811C9.74514 12.244 9.67049 12.2938 9.58833 12.3279C9.50617 12.3619 9.41811 12.3794 9.32918 12.3794H6.16449C6.07549 12.3794 5.98736 12.3619 5.90514 12.3278C5.82292 12.2937 5.74823 12.2437 5.68533 12.1808C5.62244 12.1178 5.57258 12.043 5.5386 11.9608C5.50465 11.8786 5.48722 11.7905 5.48731 11.7016" fill="white"/>
</svg>
