<svg xmlns="http://www.w3.org/2000/svg" width="18" height="18" viewBox="0 0 18 18" fill="none">
  <g clip-path="url(#clip0_359_499)">
    <path fill-rule="evenodd" clip-rule="evenodd" d="M1.8 8.1C1.8 4.62061 4.62061 1.8 8.1 1.8C11.5794 1.8 14.4 4.62061 14.4 8.1C14.4 9.7974 13.7287 11.338 12.6372 12.4708C12.6064 12.4945 12.5768 12.5204 12.5486 12.5486C12.5205 12.5768 12.4945 12.6064 12.4709 12.6371C11.338 13.7287 9.79741 14.4 8.1 14.4C4.62061 14.4 1.8 11.5794 1.8 8.1ZM13.1559 14.4287C11.7702 15.5372 10.0125 16.2 8.1 16.2C3.62649 16.2 0 12.5735 0 8.1C0 3.62649 3.62649 0 8.1 0C12.5735 0 16.2 3.62649 16.2 8.1C16.2 10.0125 15.5372 11.7702 14.4287 13.1559L17.7364 16.4636C18.0879 16.8151 18.0879 17.3849 17.7364 17.7364C17.385 18.0879 16.8151 18.0879 16.4636 17.7364L13.1559 14.4287Z" fill="#595F6E"/>
  </g>
  <defs>
    <clipPath id="clip0_359_499">
      <rect width="18" height="18" fill="white"/>
    </clipPath>
  </defs>
</svg>