<svg xmlns="http://www.w3.org/2000/svg" width="20" height="20" viewBox="0 0 20 20" fill="none">
<path fill-rule="evenodd" clip-rule="evenodd" d="M6.58176 0C6.11777 0 5.74163 0.383998 5.74163 0.857683V1.71625H3.73676C2.23101 1.71625 1 2.90727 1 4.3892V17.3271C1 18.809 2.23101 20 3.73676 20H17.0132C18.519 20 19.75 18.809 19.75 17.3271V4.3892C19.75 2.90727 18.519 1.71625 17.0132 1.71625H15.0084V0.857683C15.0084 0.383998 14.6322 0 14.1682 0C13.7043 0 13.3281 0.383998 13.3281 0.857683V1.71625H7.42188V0.857683C7.42188 0.383998 7.04574 0 6.58176 0ZM2.68025 4.3892C2.68025 3.82959 3.14755 3.36561 3.73676 3.36561H5.74163V4.73024C5.74163 5.20392 6.11777 5.58792 6.58176 5.58792C7.04574 5.58792 7.42188 5.20392 7.42188 4.73024V3.36561H13.3281V4.73024C13.3281 5.20392 13.7043 5.58792 14.1682 5.58792C14.6322 5.58792 15.0084 5.20392 15.0084 4.73024V3.36561H17.0132C17.6024 3.36561 18.0697 3.82959 18.0697 4.3892V7.74511H2.68025V4.3892ZM2.68025 17.3271V9.46048H18.0697V17.3271C18.0697 17.8867 17.6024 18.3506 17.0132 18.3506H3.73676C3.14755 18.3506 2.68025 17.8867 2.68025 17.3271ZM17.0755 13.4569H14.1815V16.4115H17.0755V13.4569Z" fill="#40C2D4"/>
</svg>