<svg width="18" height="18" viewBox="0 0 18 18" fill="none" xmlns="http://www.w3.org/2000/svg">
<path fill-rule="evenodd" clip-rule="evenodd" d="M0.799805 9.00005C0.799805 4.47147 4.47122 0.800049 8.9998 0.800049C13.5284 0.800049 17.1998 4.47147 17.1998 9.00005C17.1998 13.5286 13.5284 17.2001 8.9998 17.2001C4.47122 17.2001 0.799805 13.5286 0.799805 9.00005ZM8.9998 1.20005C4.69214 1.20005 1.1998 4.69238 1.1998 9.00005C1.1998 13.3077 4.69214 16.8 8.9998 16.8C13.3075 16.8 16.7998 13.3077 16.7998 9.00005C16.7998 4.69238 13.3075 1.20005 8.9998 1.20005ZM11.5754 2.78899C10.7601 2.45194 9.88628 2.27907 9.00404 2.28029C8.1218 2.28151 7.24847 2.4568 6.43409 2.79611C5.61971 3.13542 4.88029 3.63208 4.25818 4.25764L4.2574 4.25842C3.63183 4.88053 3.13517 5.61996 2.79586 6.43434C2.45655 7.24872 2.28127 8.12205 2.28004 9.00428C2.27882 9.88652 2.45169 10.7603 2.78875 11.5756C3.1258 12.391 3.62042 13.1318 4.24425 13.7556C4.86809 14.3794 5.60889 14.8741 6.4242 15.2111C7.23952 15.5482 8.11333 15.721 8.99557 15.7198C9.87781 15.7186 10.7511 15.5433 11.5655 15.204C12.3799 14.8647 13.1193 14.368 13.7414 13.7425L13.7422 13.7417C14.3678 13.1196 14.8644 12.3801 15.2037 11.5658C15.5431 10.7514 15.7183 9.87805 15.7196 8.99581C15.7208 8.11357 15.5479 7.23977 15.2109 6.42445C14.8738 5.60913 14.3792 4.86833 13.7554 4.2445C13.1315 3.62066 12.3907 3.12604 11.5754 2.78899ZM9.00349 1.88029C9.93835 1.87899 10.8643 2.06217 11.7282 2.41933C12.5922 2.77649 13.3772 3.30061 14.0382 3.96165C14.6992 4.6227 15.2234 5.40768 15.5805 6.27163C15.9377 7.13558 16.1209 8.06151 16.1196 8.99637C16.1183 9.93123 15.9325 10.8566 15.573 11.7196C15.2135 12.5824 14.6874 13.3658 14.0247 14.0249C13.3655 14.6876 12.5821 15.2137 11.7194 15.5732C10.8564 15.9328 9.93098 16.1185 8.99612 16.1198C8.06126 16.1211 7.13533 15.9379 6.27139 15.5808C5.40744 15.2236 4.62246 14.6995 3.96141 14.0384C3.30036 13.3774 2.77625 12.5924 2.41909 11.7285C2.06193 10.8645 1.87875 9.93859 1.88004 9.00373C1.88134 8.06887 2.06708 7.14345 2.42663 6.2805C2.78611 5.41771 3.31226 4.63432 3.97495 3.97519C4.63408 3.3125 5.41747 2.78635 6.28025 2.42687C7.14321 2.06732 8.06863 1.88158 9.00349 1.88029ZM12.5721 5.50547C12.655 5.47144 12.7438 5.45419 12.8334 5.45472C12.923 5.45526 13.0116 5.47357 13.0941 5.50859C13.1765 5.54361 13.2512 5.59465 13.3138 5.65874L13.316 5.66092L13.3206 5.66582C13.4443 5.79295 13.5131 5.96358 13.5123 6.141C13.5115 6.31899 13.4406 6.48949 13.3149 6.61558L11.3337 8.60583C11.2872 8.65244 11.2318 8.68958 11.171 8.71481C11.1102 8.74004 11.045 8.75302 10.9792 8.75302C10.9133 8.75302 10.8482 8.74004 10.7873 8.71481C10.7266 8.68961 10.6714 8.65269 10.6249 8.60616M5.16449 7.04911C5.09098 7.04911 5.02047 7.07831 4.96849 7.1303C4.91651 7.18228 4.88731 7.25278 4.88731 7.3263V7.33273C4.88735 7.40621 4.91658 7.47667 4.96856 7.52861C5.02053 7.58056 5.09101 7.60973 5.16449 7.60973H8.32918C8.40266 7.60973 8.47314 7.58056 8.52512 7.52861C8.57709 7.47667 8.60632 7.40621 8.60637 7.33273V7.3263C8.60637 7.2899 8.5992 7.25385 8.58527 7.22022C8.57134 7.18659 8.55092 7.15604 8.52518 7.1303C8.49944 7.10456 8.46889 7.08414 8.43525 7.07021C8.40162 7.05628 8.36558 7.04911 8.32918 7.04911H5.16449ZM10.4687 9.048C10.3415 8.92191 10.1695 8.85135 9.99042 8.85177C9.81131 8.85218 9.63966 8.92354 9.51304 9.05022C9.45 9.11328 9.40004 9.18817 9.36602 9.2706C9.332 9.35302 9.3146 9.44135 9.3148 9.53052C9.31501 9.61969 9.33282 9.70794 9.36722 9.7902C9.40158 9.87237 9.45181 9.94695 9.51503 10.0097M9.51503 10.0097L10.2087 10.6995L9.51371 11.3883C9.45038 11.4511 9.40003 11.5258 9.36563 11.6081C9.33124 11.6904 9.31342 11.7787 9.31322 11.8679C9.31301 11.957 9.33041 12.0454 9.36443 12.1278C9.39845 12.2103 9.44841 12.2852 9.51145 12.3483C9.6384 12.4745 9.81061 12.5459 9.98965 12.5459C10.1686 12.5459 10.3403 12.4751 10.4672 12.3489L11.1675 11.6552L11.8582 12.3473C11.9211 12.4102 11.9957 12.4602 12.0779 12.4943C12.1601 12.5284 12.2482 12.5459 12.3371 12.5459C12.4261 12.5459 12.5142 12.5284 12.5964 12.4943C12.6785 12.4602 12.7531 12.4103 12.8159 12.3474C12.8788 12.2846 12.9287 12.21 12.9628 12.1279C12.9969 12.0457 13.0144 11.9576 13.0144 11.8686C13.0144 11.7797 12.9969 11.6916 12.9628 11.6094C12.9287 11.5273 12.8788 11.4527 12.8159 11.3899M12.1262 10.6986L11.985 10.8399L11.8436 10.6985L11.9851 10.5572L12.1262 10.6986ZM4.68596 10.2168C4.81293 10.09 4.98504 10.0188 5.16449 10.0188H8.32918C8.41811 10.0188 8.50617 10.0363 8.58833 10.0703C8.67049 10.1044 8.74514 10.1543 8.80802 10.2171C8.87091 10.28 8.92079 10.3547 8.95482 10.4368C8.98885 10.519 9.00637 10.6071 9.00637 10.696V10.7022C9.00637 10.7912 8.98885 10.8792 8.95482 10.9614C8.92079 11.0435 8.87091 11.1182 8.80802 11.1811C8.74514 11.244 8.67049 11.2938 8.58833 11.3279C8.50617 11.3619 8.41811 11.3794 8.32918 11.3794H5.16449C5.07549 11.3794 4.98736 11.3619 4.90514 11.3278C4.82292 11.2937 4.74823 11.2437 4.68533 11.1808C4.62244 11.1178 4.57258 11.043 4.5386 10.9608C4.50465 10.8786 4.48722 10.7905 4.48731 10.7016" fill="white"/>
</svg>
