<svg width="18" height="20" viewBox="0 0 18 20" fill="none" xmlns="http://www.w3.org/2000/svg">
<path fill-rule="evenodd" clip-rule="evenodd" d="M15.6227 1.33333H12.6667V0.666667C12.6667 0.489856 12.5964 0.320286 12.4714 0.195262C12.3464 0.0702379 12.1768 0 12 0H5.33333C5.15652 0 4.98695 0.0702379 4.86193 0.195262C4.7369 0.320286 4.66667 0.489856 4.66667 0.666667V1.33333H1.71067C1.25713 1.33386 0.82232 1.51426 0.50163 1.83496C0.18093 2.15566 0.00053 2.59047 0 3.044V18.2893C0.00053 18.7429 0.18093 19.1777 0.50163 19.4984C0.82232 19.8191 1.25713 19.9995 1.71067 20H15.6227C16.0762 19.9995 16.511 19.8191 16.8317 19.4984C17.1524 19.1777 17.3328 18.7429 17.3333 18.2893V3.044C17.3328 2.59047 17.1524 2.15566 16.8317 1.83496C16.511 1.51426 16.0762 1.33386 15.6227 1.33333ZM6 1.33333H11.3333V2.66667H6V1.33333ZM16 18.2893C15.9998 18.3894 15.96 18.4852 15.8893 18.556C15.8186 18.6267 15.7227 18.6665 15.6227 18.6667H1.71067C1.61065 18.6665 1.51477 18.6267 1.44405 18.556C1.37332 18.4852 1.33351 18.3894 1.33333 18.2893V3.044C1.33351 2.94398 1.37332 2.84811 1.44405 2.77738C1.51477 2.70665 1.61065 2.66684 1.71067 2.66667H4.66667V3.33333C4.66667 3.51014 4.7369 3.67971 4.86193 3.80474C4.98695 3.92976 5.15652 4 5.33333 4H12C12.1768 4 12.3464 3.92976 12.4714 3.80474C12.5964 3.67971 12.6667 3.51014 12.6667 3.33333V2.66667H15.6227C15.7227 2.66684 15.8186 2.70665 15.8893 2.77738C15.96 2.84811 15.9998 2.94398 16 3.044V18.2893ZM6.19533 5.52867L4.66666 7.05733L3.80466 6.19533C3.74316 6.13166 3.6696 6.08087 3.58826 6.04593C3.50693 6.01099 3.41945 5.9926 3.33093 5.99183C3.24241 5.99106 3.15462 6.00793 3.07269 6.04145C2.99076 6.07497 2.91632 6.12447 2.85373 6.18707C2.79113 6.24966 2.74163 6.3241 2.70811 6.40603C2.67459 6.48796 2.65772 6.57575 2.65849 6.66427C2.65926 6.75278 2.67765 6.84026 2.71259 6.9216C2.74753 7.00294 2.79832 7.0765 2.86199 7.138L4.19533 8.47133C4.32034 8.59631 4.48988 8.66652 4.66666 8.66652C4.84343 8.66652 5.01297 8.59631 5.13799 8.47133L7.13799 6.47133C7.25943 6.3456 7.32663 6.1772 7.32511 6.0024C7.32359 5.8276 7.25348 5.66039 7.12987 5.53679C7.00627 5.41318 6.83906 5.34307 6.66426 5.34155C6.48946 5.34003 6.32106 5.40723 6.19533 5.52867ZM9.3333 6.66667H14C14.1768 6.66667 14.3464 6.7369 14.4714 6.86193C14.5964 6.98695 14.6667 7.15652 14.6667 7.33333C14.6667 7.51014 14.5964 7.67971 14.4714 7.80474C14.3464 7.92976 14.1768 8 14 8H9.3333C9.1565 8 8.98696 7.92976 8.86193 7.80474C8.73691 7.67971 8.66667 7.51014 8.66667 7.33333C8.66667 7.15652 8.73691 6.98695 8.86193 6.86193C8.98696 6.7369 9.1565 6.66667 9.3333 6.66667ZM6.19533 9.52867L4.66666 11.0573L3.80466 10.1953C3.74316 10.1317 3.6696 10.0809 3.58826 10.0459C3.50693 10.011 3.41945 9.9926 3.33093 9.99183C3.24241 9.99107 3.15462 10.0079 3.07269 10.0415C2.99076 10.075 2.91632 10.1245 2.85373 10.1871C2.79113 10.2497 2.74163 10.3241 2.70811 10.406C2.67459 10.488 2.65772 10.5757 2.65849 10.6643C2.65926 10.7528 2.67765 10.8403 2.71259 10.9216C2.74753 11.0029 2.79832 11.0765 2.86199 11.138L4.19533 12.4713C4.32034 12.5963 4.48988 12.6665 4.66666 12.6665C4.84343 12.6665 5.01297 12.5963 5.13799 12.4713L7.13799 10.4713C7.25943 10.3456 7.32663 10.1772 7.32511 10.0024C7.32359 9.8276 7.25348 9.66039 7.12987 9.53679C7.00627 9.41318 6.83906 9.34307 6.66426 9.34155C6.48946 9.34003 6.32106 9.40723 6.19533 9.52867ZM9.3333 10.6667H14C14.1768 10.6667 14.3464 10.7369 14.4714 10.8619C14.5964 10.9869 14.6667 11.1565 14.6667 11.3333C14.6667 11.5101 14.5964 11.6797 14.4714 11.8047C14.3464 11.9298 14.1768 12 14 12H9.3333C9.1565 12 8.98696 11.9298 8.86193 11.8047C8.73691 11.6797 8.66667 11.5101 8.66667 11.3333C8.66667 11.1565 8.73691 10.9869 8.86193 10.8619C8.98696 10.7369 9.1565 10.6667 9.3333 10.6667ZM6.19533 13.5287L4.66666 15.0573L3.80466 14.1953C3.74316 14.1317 3.6696 14.0809 3.58826 14.0459C3.50693 14.011 3.41945 13.9926 3.33093 13.9918C3.24241 13.9911 3.15462 14.0079 3.07269 14.0415C2.99076 14.075 2.91632 14.1245 2.85373 14.1871C2.79113 14.2497 2.74163 14.3241 2.70811 14.406C2.67459 14.488 2.65772 14.5757 2.65849 14.6643C2.65926 14.7528 2.67765 14.8403 2.71259 14.9216C2.74753 15.0029 2.79832 15.0765 2.86199 15.138L4.19533 16.4713C4.32034 16.5963 4.48988 16.6665 4.66666 16.6665C4.84343 16.6665 5.01297 16.5963 5.13799 16.4713L7.13799 14.4713C7.25943 14.3456 7.32663 14.1772 7.32511 14.0024C7.32359 13.8276 7.25348 13.6604 7.12987 13.5368C7.00627 13.4132 6.83906 13.3431 6.66426 13.3416C6.48946 13.34 6.32106 13.4072 6.19533 13.5287ZM9.3333 14.6667H14C14.1768 14.6667 14.3464 14.7369 14.4714 14.8619C14.5964 14.987 14.6667 15.1565 14.6667 15.3333C14.6667 15.5101 14.5964 15.6797 14.4714 15.8047C14.3464 15.9298 14.1768 16 14 16H9.3333C9.1565 16 8.98696 15.9298 8.86193 15.8047C8.73691 15.6797 8.66667 15.5101 8.66667 15.3333C8.66667 15.1565 8.73691 14.987 8.86193 14.8619C8.98696 14.7369 9.1565 14.6667 9.3333 14.6667Z" fill="white"/>
</svg>
