<svg width="20" height="20" viewBox="0 0 20 20" fill="none" xmlns="http://www.w3.org/2000/svg">
<g clip-path="url(#clip0_3894_1474)">
<path fill-rule="evenodd" clip-rule="evenodd" d="M9.96094 0H18.2422C19.2114 0 20 0.788555 20 1.75781V7.65625C20 8.62551 19.2114 9.41406 18.2422 9.41406H11.5481L9.57523 10.4005C9.14742 10.6137 8.65113 10.6441 8.20312 10.4861V18.2422C8.20312 19.2114 7.41457 20 6.44531 20C5.99551 20 5.58465 19.8302 5.27344 19.5513C4.96223 19.8302 4.55137 20 4.10156 20C3.1323 20 2.34375 19.2114 2.34375 18.2422V12.8293C2.16043 12.8943 1.96316 12.9297 1.75781 12.9297C0.788555 12.9297 0 12.1411 0 11.1719V7.65625C0 6.04082 1.31426 4.72656 2.92969 4.72656H5.27344H6.44531C6.91473 4.72656 7.35613 4.90945 7.68816 5.24152L8.20312 5.75645V1.75781C8.20312 0.788555 8.99168 0 9.96094 0ZM5.27344 4.72656C6.56578 4.72656 7.61719 3.67516 7.61719 2.38281C7.61719 1.09297 6.57516 0 5.27344 0C3.97039 0 2.92969 1.09398 2.92969 2.38281C2.92969 3.67516 3.98109 4.72656 5.27344 4.72656ZM9.05184 9.35195L11.3949 8.18043C11.6848 8.03551 11.8019 7.68402 11.657 7.39414C11.5121 7.10406 11.1616 6.98645 10.8709 7.13195L9.28223 7.92629C9.05668 8.03902 8.78418 7.99484 8.6059 7.81652L6.85953 6.07016C6.74883 5.95941 6.60172 5.89844 6.44531 5.89844H2.92969C1.96043 5.89844 1.17188 6.68699 1.17188 7.65625L1.17184 11.1719C1.17184 11.495 1.43469 11.7578 1.75777 11.7578C2.08086 11.7578 2.34371 11.495 2.34371 11.1719V7.65625C2.34371 7.33266 2.60605 7.07031 2.92965 7.07031C3.25324 7.07031 3.51559 7.33266 3.51559 7.65625V11.1719V18.2422C3.51559 18.5653 3.77844 18.8281 4.10152 18.8281C4.42461 18.8281 4.68746 18.5653 4.68746 18.2422V12.3438C4.68746 12.0202 4.9498 11.7578 5.2734 11.7578C5.59699 11.7578 5.85934 12.0202 5.85934 12.3438V18.2422C5.85934 18.5653 6.12219 18.8281 6.44527 18.8281C6.76836 18.8281 7.03121 18.5653 7.03121 18.2422V9.31332L7.03129 9.3116C7.03285 8.7832 7.66922 8.53676 8.03156 8.8991L8.37477 9.24234C8.55902 9.42656 8.83203 9.46148 9.05184 9.35195ZM18.2422 8.24219C18.5653 8.24219 18.8281 7.97934 18.8281 7.65625V1.75781C18.8281 1.43473 18.5653 1.17188 18.2422 1.17188H9.96094C9.63785 1.17188 9.375 1.43473 9.375 1.75781V6.56973L10.3466 6.08391C11.0411 5.73633 11.8408 5.89395 12.3541 6.39051L15.5582 4.78844C15.8477 4.64367 16.1996 4.76102 16.3444 5.05047C16.4891 5.33992 16.3718 5.69188 16.0823 5.8366L12.878 7.43875C12.9103 7.69586 12.885 7.95906 12.8006 8.21219C12.7986 8.21831 12.7964 8.22432 12.7941 8.23035C12.7927 8.23428 12.7912 8.23822 12.7898 8.24219H18.2422ZM4.10156 2.38281C4.10156 3.02898 4.62727 3.55469 5.27344 3.55469C5.91961 3.55469 6.44531 3.02898 6.44531 2.38281C6.44531 1.72641 5.90867 1.17188 5.27344 1.17188C4.6382 1.17188 4.10156 1.72641 4.10156 2.38281Z" fill="#595F6E"/>
</g>
<defs>
<clipPath id="clip0_3894_1474">
<rect width="20" height="20" fill="white"/>
</clipPath>
</defs>
</svg>
