<svg width="20" height="20" viewBox="0 0 20 20" fill="none" xmlns="http://www.w3.org/2000/svg">
<path fill-rule="evenodd" clip-rule="evenodd" d="M5.66953 1.8C5.4684 1.8 5.27552 1.8799 5.1333 2.02211C4.99109 2.16433 4.91119 2.35721 4.91119 2.55834V2.8385L4.63516 2.8385C3.8835 2.83933 3.16286 3.13829 2.63135 3.6698C2.09984 4.20131 1.80088 4.92217 1.80005 5.67384V14.9982C1.80088 15.7499 2.09984 16.4705 2.63135 17.002C3.16286 17.5335 3.88372 17.8325 4.63538 17.8333H10.5353C11.4428 18.5515 12.5656 18.9451 13.7242 18.95L13.7253 18.95C15.1105 18.9485 16.4385 18.3975 17.418 17.418C18.3976 16.4385 18.9485 15.1105 18.9501 13.7252L18.95 13.7242C18.9451 12.5655 18.5515 11.4428 17.8334 10.5353V5.67362C17.8326 4.92195 17.5336 4.20131 17.0021 3.6698C16.4706 3.13829 15.7497 2.83933 14.998 2.8385H14.7227V2.55834C14.7227 2.35721 14.6428 2.16433 14.5006 2.02211C14.3584 1.8799 14.1655 1.8 13.9644 1.8C13.7632 1.8 13.5703 1.8799 13.4281 2.02211C13.2859 2.16433 13.206 2.35721 13.206 2.55834V2.8385H6.42786V2.55834C6.42786 2.35721 6.34796 2.16433 6.20575 2.02211C6.06353 1.8799 5.87065 1.8 5.66953 1.8ZM4.63562 4.35517L4.91075 4.35517V4.63165C4.91075 4.83277 4.99064 5.02566 5.13286 5.16787C5.27507 5.31009 5.46796 5.38998 5.66908 5.38998C5.8702 5.38998 6.06309 5.31009 6.2053 5.16787C6.34752 5.02566 6.42741 4.83277 6.42741 4.63165V4.35517H13.2051V4.63165C13.2051 4.83277 13.285 5.02566 13.4272 5.16787C13.5694 5.31009 13.7623 5.38998 13.9635 5.38998C14.1646 5.38998 14.3575 5.31009 14.4997 5.16787C14.6419 5.02566 14.7218 4.83277 14.7218 4.63165V4.35517H14.998C15.3476 4.35563 15.6828 4.49471 15.93 4.74192C16.1772 4.98917 16.3163 5.3244 16.3167 5.67407V5.94775H3.31672V5.67388C3.31718 5.32428 3.45626 4.98913 3.70347 4.74192C3.95067 4.49471 4.28602 4.35563 4.63562 4.35517ZM3.31672 14.9979V7.46442H16.3167V9.19124C15.3791 8.65376 14.2947 8.41899 13.2131 8.5246C12.0095 8.64213 10.8841 9.17384 10.029 10.0289C9.17389 10.8841 8.64217 12.0095 8.52465 13.2131C8.41903 14.2947 8.6538 15.3791 9.19128 16.3167H4.63563C4.28597 16.3162 3.95075 16.1771 3.7035 15.9299C3.45629 15.6827 3.3172 15.3475 3.31672 14.9979ZM13.0016 10.0879C13.7209 9.94484 14.4666 10.0183 15.1442 10.299C15.8218 10.5796 16.4009 11.0549 16.8084 11.6648C17.2158 12.2745 17.4333 12.9914 17.4334 13.7248C17.4322 14.708 17.0411 15.6506 16.3459 16.3458C15.6506 17.0411 14.708 17.4322 13.7248 17.4333C12.9915 17.4333 12.2746 17.2158 11.6648 16.8084C11.055 16.4009 10.5797 15.8217 10.299 15.1441C10.0183 14.4665 9.94488 13.7209 10.088 13.0015C10.2311 12.2822 10.5842 11.6214 11.1029 11.1028C11.6215 10.5842 12.2822 10.231 13.0016 10.0879ZM13.725 10.7333C13.5239 10.7333 13.331 10.8132 13.1888 10.9554C13.0466 11.0977 12.9667 11.2905 12.9667 11.4917V13.7249L13.1888 10.9554L13.1888 11.3359C13.1743 11.3861 13.1667 11.4385 13.1667 11.4917V13.725C13.1666 13.778 13.1742 13.8306 13.189 13.8813L13.189 14.2613L14.3055 15.3779L14.308 15.3803C14.4511 15.5184 14.6426 15.5948 14.8414 15.5931C15.0403 15.5914 15.2305 15.5116 15.3711 15.371C15.5117 15.2304 15.5914 15.0402 15.5932 14.8414C15.5949 14.6426 15.5185 14.451 15.3803 14.308L14.4834 13.411V11.4917C14.4834 11.2905 14.4035 11.0977 14.2613 10.9554C14.1191 10.8132 13.9262 10.7333 13.725 10.7333Z" fill="#595F6E"/>
</svg>
