<svg width="18" height="18" viewBox="0 0 18 18" fill="none" xmlns="http://www.w3.org/2000/svg">
<path fill-rule="evenodd" clip-rule="evenodd" d="M4.66953 0.800003C4.4684 0.800003 4.27552 0.879899 4.1333 1.02211C3.99109 1.16433 3.91119 1.35721 3.91119 1.55834V1.8385L3.63516 1.8385C2.8835 1.83933 2.16286 2.13829 1.63135 2.6698C1.09984 3.20131 0.800876 3.92217 0.800049 4.67384V13.9982C0.800876 14.7499 1.09984 15.4705 1.63135 16.002C2.16286 16.5335 2.88372 16.8325 3.63538 16.8333H9.53531C10.4428 17.5515 11.5656 17.9451 12.7242 17.95L12.7253 17.95C14.1105 17.9485 15.4385 17.3975 16.418 16.418C17.3976 15.4385 17.9485 14.1105 17.9501 12.7252L17.95 12.7242C17.9451 11.5655 17.5515 10.4428 16.8334 9.53527V4.67362C16.8326 3.92195 16.5336 3.20131 16.0021 2.6698C15.4706 2.13829 14.7497 1.83933 13.998 1.8385H13.7227V1.55834C13.7227 1.35721 13.6428 1.16433 13.5006 1.02211C13.3584 0.879899 13.1655 0.800003 12.9644 0.800003C12.7632 0.800003 12.5703 0.879898 12.4281 1.02211C12.2859 1.16433 12.206 1.35721 12.206 1.55834V1.8385H5.42786V1.55834C5.42786 1.35721 5.34796 1.16433 5.20575 1.02211C5.06353 0.879899 4.87065 0.800003 4.66953 0.800003ZM3.63562 3.35517L3.91075 3.35517V3.63165C3.91075 3.83277 3.99064 4.02566 4.13286 4.16787C4.27507 4.31009 4.46796 4.38998 4.66908 4.38998C4.8702 4.38998 5.06309 4.31009 5.2053 4.16787C5.34752 4.02566 5.42741 3.83277 5.42741 3.63165V3.35517H12.2051V3.63165C12.2051 3.83277 12.285 4.02566 12.4272 4.16787C12.5694 4.31009 12.7623 4.38998 12.9635 4.38998C13.1646 4.38998 13.3575 4.31009 13.4997 4.16787C13.6419 4.02566 13.7218 3.83277 13.7218 3.63165V3.35517H13.998C14.3476 3.35563 14.6828 3.49471 14.93 3.74192C15.1772 3.98917 15.3163 4.3244 15.3167 4.67407V4.94775H2.31672V4.67388C2.31718 4.32428 2.45626 3.98913 2.70347 3.74192C2.95067 3.49471 3.28602 3.35563 3.63562 3.35517ZM2.31672 13.9979V6.46442H15.3167V8.19124C14.3791 7.65376 13.2947 7.41899 12.2131 7.5246C11.0095 7.64213 9.8841 8.17384 9.02899 9.02895C8.17389 9.88405 7.64217 11.0095 7.52465 12.2131C7.41903 13.2947 7.6538 14.3791 8.19128 15.3167H3.63563C3.28597 15.3162 2.95075 15.1771 2.7035 14.9299C2.45629 14.6827 2.3172 14.3475 2.31672 13.9979ZM12.0016 9.08792C12.7209 8.94484 13.4666 9.01827 14.1442 9.29895C14.8218 9.57963 15.4009 10.0549 15.8084 10.6648C16.2158 11.2745 16.4333 11.9914 16.4334 12.7248C16.4322 13.708 16.0411 14.6506 15.3459 15.3458C14.6506 16.0411 13.708 16.4322 12.7248 16.4333C11.9915 16.4333 11.2746 16.2158 10.6648 15.8084C10.055 15.4009 9.57967 14.8217 9.299 14.1441C9.01832 13.4665 8.94488 12.7209 9.08797 12.0015C9.23106 11.2822 9.58424 10.6214 10.1029 10.1028C10.6215 9.5842 11.2822 9.23101 12.0016 9.08792ZM12.725 9.73334C12.5239 9.73334 12.331 9.81323 12.1888 9.95545C12.0466 10.0977 11.9667 10.2905 11.9667 10.4917V12.7249L12.1888 9.95545L12.1888 10.3359C12.1743 10.3861 12.1667 10.4385 12.1667 10.4917V12.725C12.1666 12.778 12.1742 12.8306 12.189 12.8813L12.189 13.2613L13.3055 14.3779L13.308 14.3803C13.4511 14.5184 13.6426 14.5948 13.8414 14.5931C14.0403 14.5914 14.2305 14.5116 14.3711 14.371C14.5117 14.2304 14.5914 14.0402 14.5932 13.8414C14.5949 13.6426 14.5185 13.451 14.3803 13.308L13.4834 12.411V10.4917C13.4834 10.2905 13.4035 10.0977 13.2613 9.95545C13.1191 9.81323 12.9262 9.73334 12.725 9.73334Z" fill="white"/>
</svg>
