<svg width="20" height="20" viewBox="0 0 20 20" fill="none" xmlns="http://www.w3.org/2000/svg">
<path fill-rule="evenodd" clip-rule="evenodd" d="M7.33336 5.55555C7.33336 4.08279 8.52727 2.88888 10 2.88888C11.4728 2.88888 12.6667 4.08279 12.6667 5.55555C12.6667 7.02831 11.4728 8.22222 10 8.22222C8.52727 8.22222 7.33336 7.02831 7.33336 5.55555ZM10 1.1111C7.54542 1.1111 5.55558 3.10095 5.55558 5.55555C5.55558 8.01015 7.54542 10 10 10C12.4546 10 14.4445 8.01015 14.4445 5.55555C14.4445 3.10095 12.4546 1.1111 10 1.1111ZM6.44445 11.7778C5.26571 11.7778 4.13525 12.246 3.30175 13.0795C2.46825 13.913 2 15.0435 2 16.2222V18C2 18.4909 2.39797 18.8889 2.88889 18.8889C3.37981 18.8889 3.77778 18.4909 3.77778 18V16.2222C3.77778 15.515 4.05873 14.8367 4.55883 14.3366C5.05893 13.8365 5.73721 13.5556 6.44445 13.5556H13.5556C14.2628 13.5556 14.9411 13.8365 15.4412 14.3366C15.9413 14.8367 16.2222 15.515 16.2222 16.2222V18C16.2222 18.4909 16.6202 18.8889 17.1111 18.8889C17.6021 18.8889 18 18.4909 18 18V16.2222C18 15.0435 17.5318 13.913 16.6983 13.0795C15.8648 12.246 14.7343 11.7778 13.5556 11.7778H6.44445Z" fill="white"/>
</svg>
