<svg width="20" height="20" viewBox="0 0 20 20" fill="none" xmlns="http://www.w3.org/2000/svg">
<g clip-path="url(#clip0_3894_1482)">
<path d="M19.0662 1.16675H1.39179C0.749934 1.16675 0.229004 1.68768 0.229004 2.32954V3.72489V13.0272C0.229004 13.6691 0.749934 14.19 1.39179 14.19H6.76389L4.04761 18.7156C3.84761 19.0458 3.95459 19.4737 4.28482 19.6737C4.4011 19.7388 4.52668 19.7714 4.64761 19.7714C4.88482 19.7714 5.11738 19.6505 5.24761 19.4319L8.39179 14.19H9.53133V18.1435C9.53133 18.5295 9.84296 18.8412 10.229 18.8412C10.6151 18.8412 10.9267 18.5295 10.9267 18.1435V14.19H12.0662L15.2104 19.4319C15.3453 19.6505 15.5732 19.7714 15.8104 19.7714C15.9313 19.7714 16.0569 19.7388 16.1685 19.6737C16.4988 19.4737 16.6057 19.0458 16.4057 18.7156L13.6941 14.19H19.0662C19.7081 14.19 20.229 13.6691 20.229 13.0272V3.72489V2.32954C20.229 1.68768 19.7081 1.16675 19.0662 1.16675ZM18.8337 3.72489V12.7947H1.62435V3.72489V2.5621H18.8337V3.72489Z" fill="#595F6E"/>
</g>
<defs>
<clipPath id="clip0_3894_1482">
<rect width="20" height="20" fill="white"/>
</clipPath>
</defs>
</svg>
